<svg width="16" height="16" viewBox="0 0 16 16" fill="none" xmlns="http://www.w3.org/2000/svg">
    <path
        d="M7.99996 1.14307C11.7862 1.14307 14.8571 4.21296 14.8571 8.00021C14.8571 11.7875 11.7862 14.8574 7.99996 14.8574C4.21271 14.8574 1.14282 11.7875 1.14282 8.00021C1.14282 4.21296 4.21271 1.14307 7.99996 1.14307ZM7.99996 2.28592C4.84389 2.28592 2.28568 4.84414 2.28568 8.00021C2.28568 11.1563 4.84389 13.7145 7.99996 13.7145C11.1554 13.7145 13.7143 11.1559 13.7143 8.00021C13.7143 4.84453 11.1554 2.28592 7.99996 2.28592ZM7.71425 4.57169C8.02984 4.57169 8.28568 4.82752 8.28568 5.14311V8.05946L11.0711 9.18471C11.3638 9.30292 11.5051 9.63596 11.3869 9.92858C11.2687 10.2212 10.9357 10.3626 10.6431 10.2444L7.50021 8.97474C7.28422 8.88748 7.14282 8.67785 7.14282 8.44491V5.14311C7.14282 4.82752 7.39866 4.57169 7.71425 4.57169Z"
        fill="#007AFF" />
</svg>
