<svg width="546" height="550" viewBox="0 0 546 550" fill="none" xmlns="http://www.w3.org/2000/svg">
<g clip-path="url(#clip0_37979_2303)">
<path d="M78.6949 270.696L79.0213 271.349L79.3412 271.022L79.0213 270.696H78.6949Z" fill="#FEFEFE"/>
<path d="M147.82 338.522C146.697 337.895 145.613 337.321 144.556 336.563C151.025 354.209 143.935 380.262 123.686 384.825C137.734 393.84 142.995 396.908 160.856 397.215L191.505 382.866L192.158 382.214C195.089 373.251 199.208 364.836 205.853 358.086C206.069 357.864 206.284 357.642 206.506 357.433C207.675 356.33 214.986 348.007 215.613 353.144C199.724 396.647 184.99 443.792 186.955 490.787C187.34 500.044 190.669 510.619 188.894 519.171C248.435 535.856 310.536 538.84 370.195 520.476C366.129 511.304 367.232 498.307 370.346 488.992C371.795 484.664 377.011 478.873 377.318 475.133C378.003 466.862 371.978 439.823 370.195 429.822C370.156 429.613 370.235 429.378 370.195 429.169C368.537 417.954 357.25 386.411 359.392 376.926C360.031 374.086 362.551 374.236 364.588 375.777C371.481 380.973 382.494 429.039 384.544 439.608C395.831 427.276 416.081 427.087 430.847 432.433C422.237 403.149 411.394 375.281 391.718 351.565C391.516 351.336 391.274 351.14 391.065 350.912C388.33 347.87 385.536 345.239 382.586 342.432C377.533 347.073 367.219 349.894 360.266 351.747C320.172 362.427 263.065 363.981 226.103 343.32L230.627 337.216C226.495 336.27 212.394 330.597 210.129 330.721C207.714 330.858 193.77 338.013 189.396 339.351C175.172 343.692 161.489 346.133 147.807 338.522H147.82Z" fill="url(#paint0_linear_37979_2303)"/>
<path d="M85.1053 142.01C107.307 118.548 65.4822 95.4653 46.4336 111.818C42.7648 114.964 40.6237 122.85 36.2303 123.307C34.5657 123.483 22.7174 119.567 21.6011 118.411C14.7663 111.361 31.9741 93.9965 38.365 90.5954C75 71.0898 129.613 100.773 111.961 144.601C101.745 169.976 72.2191 164.401 61.1803 180.368C57.4463 185.767 58.7584 191.968 51.1402 191.159C49.9783 191.035 38.8089 187.543 38.3258 187.073C33.5277 182.353 43.842 166.078 47.9481 162.371C59.2611 152.135 73.8185 152.892 84.5244 142.604C84.7137 142.428 84.9226 142.199 85.0988 142.01H85.1053Z" fill="#F4D15B"/>
<path d="M398.906 104.396C401.269 106.354 404.526 109.403 406.733 111.57C407.366 112.197 408.071 112.888 408.691 113.528C436.304 142.003 453.76 196.27 462.632 234.694C466.79 252.711 465.504 266.348 453.036 280.488C452.82 280.71 452.605 280.925 452.383 281.141C450.757 282.707 445.568 295.169 413.254 309.185C446.279 274.456 411.087 246.144 373.825 245.25C366.566 245.074 358.752 247.078 351.597 246.601C331.674 245.283 320.896 215.195 288.322 214.601C256.582 214.02 243.396 241.64 225.111 242.064C211.2 242.384 203.288 237.769 187.601 242.332C170.863 247.202 157.736 265.447 163.474 283.099C146.599 265.147 141.814 237.573 151.084 214.621C155.549 204.476 157.984 199.482 161.515 188.535C169.486 163.872 174.402 142.845 190.885 121.891C239.003 60.7038 339.253 55.5532 398.253 103.756C398.488 103.945 398.671 104.213 398.906 104.409V104.396ZM247.032 137.388C256.576 132.022 255.362 120.996 244.173 122.818C242.077 123.157 211.696 135.084 210.645 136.559C208.523 139.542 210.873 142.121 213.687 143.524C220.835 147.082 239.819 141.442 247.025 137.388H247.032ZM338.254 148.74C345.278 155.882 369.353 165.517 378.806 161.75C381.045 160.856 382.749 157.057 380.947 154.641C380.151 153.577 360.645 144.752 357.107 142.767C352.883 140.391 345.631 132.91 341.12 132.492C331.374 131.598 329.526 143.459 337.601 148.087C337.817 148.322 338.032 148.518 338.254 148.74ZM239.773 182C235.047 175.564 225.999 175.035 219.876 179.663C208.641 188.15 209.17 212.623 219.203 221.821C238.278 239.316 256.054 198.588 240.426 182.647C240.204 182.418 240.021 182.203 239.773 181.994V182ZM348.908 225.803C372.533 237.58 380.653 197.328 364.993 185.917C364.771 185.715 364.581 185.44 364.34 185.264C337.784 167.965 328.044 215.404 348.908 225.803Z" fill="#FE80DD"/>
<path d="M187.595 242.319C203.281 237.756 211.193 242.371 225.104 242.051C243.389 241.633 256.576 214.007 288.315 214.588C320.883 215.182 331.661 245.276 351.591 246.588C358.745 247.058 366.566 245.061 373.818 245.237C411.08 246.125 446.273 274.443 413.247 309.172C411.302 310.086 406.915 312.358 406.726 312.436C352.589 333.006 292.643 334.749 235.863 325.479C233.441 324.839 231.091 324.278 228.688 323.52C209.372 317.443 182.261 304.844 168.69 289.608C168.487 289.379 168.233 289.183 168.037 288.955C166.77 287.479 164.035 284.823 163.474 283.086C157.729 265.434 170.857 247.195 187.601 242.319H187.595ZM263.254 230.914C253.828 240.243 268.411 254.252 278.255 255.695C278.405 256.23 277.792 265.617 277.602 266.779C268.17 264.155 241.144 291.932 254.689 296.743C262.151 299.393 262.888 289.758 265.957 286.115C274.965 275.409 293.844 278.843 303.845 286.337C307.351 288.968 318.951 309.329 323.416 298.577C325.988 292.382 317.56 283.634 313.474 279.829C313.252 279.62 313.049 279.378 312.821 279.176C305.901 273.105 298.166 268.228 288.694 267.432L289.346 256.348C300.823 254.716 317.116 241.882 305.373 230.203C298.283 223.153 271.244 221.971 263.913 230.255C263.678 230.438 263.476 230.693 263.261 230.908L263.254 230.914Z" fill="#FDFDFE"/>
<path d="M342.817 341.126C323.592 343.196 307.292 343.49 288.034 343.085C283.282 342.987 278.425 343.352 273.686 343.085C258.75 342.236 224.719 334.05 210.142 330.721L200.468 334.605C266.296 370.15 320.185 362.421 360.28 351.741C367.232 349.887 377.546 347.067 382.599 342.425C381.757 341.623 381.502 340.141 379.335 338.515C377.455 337.105 377.239 336.015 374.498 335.878C368.72 335.591 350.644 340.278 342.811 341.12L342.817 341.126Z" fill="#EC45CE"/>
<path d="M126.297 316.999C128.712 321.347 140.397 333.587 144.556 336.563C151.025 354.209 143.936 380.262 123.686 384.825C123.294 384.57 122.237 384.596 121.727 384.172C115.265 378.571 93.5657 354.319 93.1022 346.538C93.0304 345.357 94.2707 345.546 94.9888 344.39L96.9472 342.432C97.1561 341.923 97.9459 341.303 97.6 340.474C96.8427 338.672 85.001 338.874 81.8088 338.332C76.6974 337.471 71.8862 336.093 66.9511 334.605C55.7947 331.237 28.5665 318.657 22.9786 308.467C13.389 290.972 49.0187 307.527 53.6536 307.821C58.2884 308.114 62.5447 304.681 57.6161 301.221C52.2696 297.467 28.1879 289.49 21.686 290.319C16.7704 290.946 11.2021 297.754 12.808 286.004C14.0091 277.198 24.3821 281.16 29.7807 282.427C37.2487 284.176 49.567 290.691 55.8535 291.305C58.2362 291.533 61.0694 287.747 59.2024 285.038C59.0457 284.809 58.4777 283.732 58.4777 283.732C57.9816 283.393 57.5573 283.302 57.1722 283.08C54.6915 281.637 51.545 280.299 48.6923 279.816C41.9815 276.571 35.1533 273.614 27.8289 271.982C48.3071 270.559 67.049 285.906 88.1409 282.414C105.44 279.554 80.9797 262.536 93.6766 252.731C102.855 245.642 104.618 264.984 107.261 270.487C111.792 279.907 120.598 284.94 123.04 296.122C124.6 303.245 122.883 310.837 126.304 316.992L126.297 316.999ZM77.3763 310.824C77.9834 311.515 89.5575 312.795 92.247 313.559C94.9365 314.323 107.751 322.907 106.465 314.388C105.597 308.65 93.6244 304.576 88.6109 304.158C85.2099 303.871 71.9646 304.642 77.3763 310.824Z" fill="#9512FD"/>
<path d="M384.557 439.608C385.967 446.873 391.712 476.569 389.695 481.589C389.225 482.764 386.013 485.29 385.21 486.563C380.738 494.847 379.276 503.262 380.647 512.649C381.998 516.455 384.962 520.829 389.766 518.831C395.204 516.566 392.835 497.452 401.021 503.51C408.704 509.196 399.774 534.981 411.681 536.757C419.919 537.984 426.715 527.324 429.554 521.129L432.166 512.649C432.185 512.434 432.153 512.212 432.166 511.996C432.198 511.304 431.102 509.901 432.818 508.732C432.818 508.517 432.818 508.295 432.818 508.08C432.897 505.253 432.557 498.059 437.558 499.587C441.912 500.912 439.999 521.103 439.34 525.039C439.249 525.575 438.354 527.337 438.694 527.651C441.501 530.21 448.688 515.783 449.06 512.917C451.149 496.897 442.943 490.885 440.149 478.906C438.152 470.335 437.153 457.56 435.423 448.087L434.77 446.782C434.698 446.377 434.842 445.888 434.77 445.476C434.255 442.336 433.034 439.373 432.159 436.344C432.1 436.141 432.218 435.893 432.159 435.691C431.78 434.379 431.108 433.289 430.854 432.427C416.087 427.074 395.837 427.27 384.551 439.601L384.557 439.608Z" fill="#9512FD"/>
<path d="M435.423 371.782C428.144 390.661 430.344 387.364 436.076 404.389C466.895 403.012 495.513 425.253 498.686 456.561C505.592 449.863 511.748 442.506 516.945 434.385L526.077 414.168C526.025 413.959 526.143 413.705 526.077 413.515C524.511 408.809 514.764 395.021 511.096 391C494.403 372.689 458.454 357.296 435.43 371.775L435.423 371.782Z" fill="#FD63D2"/>
<path d="M372.167 71.7883C374.915 73.2506 392.077 83.8259 393.259 83.5778C393.853 83.4538 399.611 75.346 400.844 74.0535C408.188 66.3505 429.195 46.0158 440.267 47.7065C450.366 49.2472 455.014 75.7247 456.293 84.1784C457.638 93.0499 458.271 101.262 458.251 110.264C458.251 111.563 458.291 112.875 458.251 114.174C458.101 119.443 457.657 124.619 456.946 129.829C456.156 135.625 450.535 152.69 450.62 155.49C450.744 159.701 457.383 169.708 457.605 174.826L459.054 173.99C461.848 166.287 465.073 158.552 467.378 150.699C467.378 150.699 474.31 127.616 472.593 112.223C472.261 109.22 472.678 106.112 472.593 103.09C472.58 102.653 472.607 102.222 472.593 101.784C472.215 90.4061 470.877 80.2943 468.683 69.1771C466.614 58.6866 460.902 35.4666 454.335 27.4371C451.861 24.4082 444.889 21.2225 440.991 20.8961C420.409 19.1727 383.258 55.2398 372.16 71.7883H372.167Z" fill="#9512FD"/>
<path d="M526.077 413.522C536.437 387.847 535.726 346.44 505.651 334.494C475.76 322.62 445.972 344.449 435.43 371.782C458.454 357.296 494.403 372.696 511.096 391.007C514.764 395.028 524.511 408.822 526.077 413.522Z" fill="#9512FD"/>
<path d="M154.341 40.4801C151.286 46.5707 150.242 54.6588 149.125 61.35C144.902 86.6199 145.326 108.038 150.431 133.086C152.154 141.533 154.472 149.641 156.959 157.866C158.493 154.132 164.714 143.485 165.138 140.273C165.367 138.537 159.335 113.992 158.904 107.653C158.277 98.3833 158.382 88.8524 159.557 79.6088C166.072 28.2074 193.77 64.1636 212.701 84.0413C218.759 80.1963 224.928 76.3905 231.3 73.0873C225.829 63.7784 215.926 55.0832 207.472 48.3267C193.92 37.5033 166.3 16.6529 154.341 40.4801Z" fill="#9512FD"/>
<path d="M436.076 404.389C441.227 419.684 445.731 434.888 449.119 450.692C449.276 451.417 449.654 452.089 449.772 452.651C456.854 460.184 460.203 470.257 462.815 480.042C464.094 479.52 488.907 466.033 498.686 456.567C495.513 425.259 466.901 403.018 436.076 404.396V404.389Z" fill="#9512FD"/>
<path d="M440.639 74.393C427.851 77.8071 419.234 87.9973 409.99 96.5685C422.524 109.109 433.014 122.778 442.597 137.656C444.36 124.815 446.168 111.511 445.208 98.5269C445.195 98.3115 445.228 98.0895 445.208 97.8741C444.673 91.4375 442.369 80.7839 440.645 74.3995L440.639 74.393Z" fill="#FE80DD"/>
<path d="M372.167 71.7883C383.265 55.2398 420.415 19.1727 440.998 20.8961C444.895 21.2225 451.867 24.4147 454.341 27.4371C439.209 -7.47454 396.268 32.2156 381.62 48.3006C379.576 50.5462 365.463 67.5777 365.678 68.8572C365.913 70.2477 371.077 71.2007 372.167 71.7817V71.7883Z" fill="#D098FE"/>
<path d="M154.341 40.4801C166.294 16.6529 193.92 37.5033 207.472 48.3267C215.926 55.0766 225.829 63.7719 231.299 73.0873C232.24 72.5977 238.036 71.7034 237.814 70.1628C237.684 69.2424 227.624 57.4855 226.097 55.7882C210.736 38.7371 164.362 -3.41411 154.341 40.4801Z" fill="#D098FE"/>
<path d="M174.558 122.002C175.661 121.884 186.857 107.327 188.907 105.048C191.27 102.418 193.816 99.9435 196.081 97.2213C190.904 88.9634 181.967 83.8912 173.253 80.2681C171.373 94.1401 171.027 108.384 174.558 122.008V122.002Z" fill="#FE80DD"/>
<path d="M431.513 65.2668C426.702 67.8388 405.433 86.1368 404.435 90.7129C404.311 91.2808 408.495 95.0736 409.99 96.5685C419.234 87.9973 427.851 77.8071 440.639 74.3929C438.641 67.0163 439.477 61.004 431.506 65.2603L431.513 65.2668Z" fill="#EC45CE"/>
<path d="M175.211 68.5243C174.023 72.3562 173.788 76.3122 173.253 80.2616C181.968 83.8846 190.898 88.9569 196.081 97.2148L196.623 96.8101C197.308 96.0398 198.203 95.8113 198.686 95.2564C198.686 95.2564 201.845 92.9716 201.852 92.3253C201.865 89.7272 179.467 68.0282 175.211 68.5178V68.5243Z" fill="#EC45CE"/>
<path d="M160.863 397.215C161.3 397.221 161.731 397.215 162.168 397.215C166.744 397.215 185.408 395.785 188.437 393.318C189.344 392.573 190.989 384.662 191.511 382.866L160.863 397.215Z" fill="#CC2DE7"/>
<path d="M239.773 182C212.616 159.061 201.617 221.364 226.567 224.883C245.256 227.52 249.304 194.351 240.426 182.647C240.204 182.418 240.021 182.203 239.773 181.994V182Z" fill="#2F0085"/>
<path d="M190.278 124.038C222.99 87.5077 269.567 74.5366 318.109 80.9013C379.034 88.8916 416.525 128.321 444.438 179.859C446.038 182.816 451.103 192.798 452.004 195.65C451.9 195.187 451.782 194.723 451.671 194.26C451.338 192.869 450.992 191.492 450.62 190.134C449.987 188.398 449.374 186.576 448.708 184.611C436.637 148.975 418.379 114.07 388.102 92.9259C384.472 90.4648 380.745 88.1735 376.926 86.0519C376.227 85.6668 375.529 85.2882 374.83 84.9161C373.427 84.1719 372.023 83.4473 370.607 82.7553C369.902 82.4093 369.19 82.0633 368.485 81.7239C365.646 80.3726 362.786 79.1192 359.907 77.9572C359.509 77.8005 359.118 77.6373 358.719 77.4872C358.556 77.4219 358.393 77.3632 358.223 77.2979C358.054 77.2326 357.897 77.1739 357.727 77.1086C341.283 70.8026 323.808 67.3558 306.326 66.8923C305.112 66.8662 303.904 66.8662 302.696 66.8662C302.03 66.8662 301.371 66.8792 300.712 66.8923C300.379 66.8923 300.046 66.9053 299.719 66.9119C299.328 66.9184 298.943 66.9249 298.551 66.938C297.892 66.9576 297.232 66.9902 296.566 67.0228C295.848 67.0555 295.13 67.0881 294.412 67.1338C293.753 67.173 293.087 67.2252 292.428 67.2709C292.062 67.297 291.697 67.3297 291.338 67.3558C290.992 67.3819 290.639 67.408 290.293 67.4406C289.634 67.4994 288.974 67.5647 288.309 67.6365C287.603 67.7083 286.892 67.7801 286.187 67.865C285.528 67.9433 284.868 68.0282 284.209 68.113C283.504 68.2044 282.805 68.3023 282.1 68.4002C281.441 68.4982 280.788 68.6026 280.129 68.7071C279.43 68.818 278.732 68.9355 278.033 69.053C277.381 69.1706 276.728 69.2881 276.075 69.4121C275.905 69.4447 275.729 69.4774 275.559 69.5165C275.037 69.6145 274.515 69.7189 273.999 69.8233C273.346 69.9539 272.7 70.0975 272.054 70.2411C271.714 70.3129 271.381 70.3913 271.042 70.4696C270.689 70.548 270.337 70.6263 269.991 70.7112C269.345 70.8613 268.698 71.018 268.059 71.1812C267.843 71.2334 267.634 71.2921 267.419 71.3444C266.949 71.4619 266.479 71.5794 266.015 71.7034C265.376 71.8731 264.736 72.0494 264.096 72.2256C263.417 72.415 262.745 72.6108 262.066 72.8132C261.433 73.0025 260.793 73.1918 260.166 73.3942C259.494 73.6031 258.828 73.8185 258.162 74.0339C257.529 74.2428 256.902 74.4517 256.276 74.6671C255.61 74.8956 254.951 75.1306 254.285 75.3721C253.658 75.5941 253.038 75.8226 252.418 76.0576C252.098 76.1751 251.784 76.2991 251.471 76.4231C251.132 76.5537 250.792 76.6843 250.453 76.8148C249.839 77.0564 249.219 77.3044 248.605 77.5525C248.442 77.6178 248.279 77.6896 248.116 77.7549C247.626 77.9572 247.143 78.1596 246.653 78.3685C246.046 78.6296 245.433 78.8907 244.832 79.1584C244.61 79.2563 244.395 79.3607 244.173 79.4587C243.748 79.648 243.331 79.8438 242.906 80.0331C242.306 80.3138 241.705 80.588 241.105 80.8752C240.471 81.182 239.838 81.4954 239.205 81.8087C238.611 82.1025 238.017 82.4028 237.429 82.7031C237.051 82.8989 236.672 83.1013 236.294 83.3036C236.045 83.4342 235.797 83.5648 235.549 83.6953C234.968 84.0087 234.387 84.322 233.806 84.6419C233.219 84.9683 232.638 85.3012 232.057 85.6407C232.024 85.6602 231.985 85.6798 231.952 85.6994C231.378 86.0323 230.803 86.3587 230.236 86.6982C229.981 86.8483 229.733 87.005 229.485 87.1551C229.126 87.3706 228.767 87.5925 228.408 87.8145C227.846 88.1605 227.285 88.5064 226.723 88.859C226.116 89.2441 225.516 89.6423 224.922 90.034C224.367 90.3996 223.819 90.7586 223.27 91.1307C222.781 91.4636 222.304 91.8031 221.821 92.1425C221.717 92.2143 221.606 92.2927 221.501 92.3645C220.959 92.7431 220.417 93.1217 219.882 93.5069C219.295 93.9312 218.714 94.3686 218.133 94.806C217.604 95.1976 217.075 95.5893 216.553 95.994C215.972 96.438 215.404 96.9014 214.83 97.3584C214.314 97.7697 213.798 98.1744 213.289 98.5922C212.825 98.9708 212.375 99.3625 211.918 99.7476C211.807 99.839 211.696 99.9369 211.585 100.028C211.089 100.453 210.586 100.87 210.09 101.295C209.522 101.784 208.967 102.294 208.413 102.796C207.929 103.234 207.446 103.658 206.963 104.102C206.493 104.539 206.036 104.983 205.573 105.427C205.481 105.512 205.397 105.597 205.305 105.682C204.842 106.125 204.372 106.569 203.915 107.02C203.81 107.118 203.712 107.222 203.614 107.327C203.157 107.777 202.714 108.234 202.263 108.698C201.819 109.148 201.375 109.592 200.938 110.049C200.781 110.212 200.631 110.382 200.481 110.545C200.076 110.969 199.678 111.407 199.28 111.837C198.869 112.281 198.451 112.725 198.046 113.176C197.478 113.809 196.923 114.455 196.368 115.101C195.99 115.539 195.605 115.97 195.233 116.407C194.665 117.086 194.103 117.778 193.548 118.47C193.509 118.516 193.47 118.561 193.437 118.607C193.13 118.986 192.811 119.358 192.51 119.743C191.623 120.866 190.748 122.002 189.886 123.157C189.88 123.164 189.873 123.177 189.866 123.183C189.716 124.463 189.618 124.763 190.278 124.025V124.038Z" fill="#E8BAFE"/>
<path d="M364.34 185.264C342.484 169.675 329.076 209.548 346.368 223.12C368.172 240.23 380.934 200.031 364.993 185.917C364.771 185.715 364.581 185.44 364.34 185.264Z" fill="#35018B"/>
<path d="M337.601 148.087C337.817 148.322 338.032 148.518 338.254 148.74C346.695 153.773 369.118 165.145 378.532 160.654C388.422 155.934 364.34 148.022 360.86 146.025C354.822 142.558 342.125 129.711 335.656 134.738C330.564 138.694 334.344 144.49 337.601 148.094V148.087Z" fill="#35018B"/>
<path d="M545.008 374.693C540.693 313.004 473.723 300.385 436.076 345.043C428.836 353.628 424.535 361.722 421.075 372.435C416.603 364.392 411.681 356.147 406.08 348.816C402.392 343.992 397.398 339.945 393.683 335.264C393.494 335.029 393.2 334.853 393.03 334.612C392.508 333.887 390.622 332.066 391.079 331.361C391.699 330.401 409.187 325.296 412.569 323.827C425.892 318.037 437.989 311.405 449.112 302.004C449.347 301.808 449.537 301.547 449.765 301.352C454.132 297.598 458.63 293.531 462.155 288.961C462.351 288.726 462.619 288.544 462.808 288.309C477.614 271.675 480.858 254.357 475.662 232.736C473.834 225.137 462.88 198.072 463.435 192.876C463.454 192.713 463.774 192.099 464.264 191.224C465.008 190.023 465.739 188.776 466.444 187.49C468.213 184.494 470.211 181.126 470.74 179.833C486.975 140.11 490.369 99.2908 480.218 57.3158C461.738 -19.1204 420.063 -12.279 373.46 37.882C365.502 46.4467 357.962 55.3313 351.63 65.2081C326.752 58.0274 299.7 57.7075 274.117 60.8148C269.123 61.4219 253.527 65.8609 250.485 64.6402C249.363 64.1898 237.997 48.2811 235.543 45.6764C232.357 42.2949 228.277 39.0113 224.772 35.9301C133.915 -53.3205 122.361 85.347 140.319 148.753C141.814 154.034 151.351 174.976 151.469 176.465C152.37 187.96 137.649 210.593 134.973 222.977C125.311 267.732 156.489 303.153 192.811 322.894C180.068 330.284 163.435 334.207 150.424 325.492C147.722 323.436 144.693 320.335 142.597 317.665C135.188 308.225 138.53 311.6 136.637 301.13C132.616 278.869 125.533 280.599 118.352 265.278C113.9 255.773 113.613 239.708 99.258 238.729C82.2135 237.567 75.4243 256.393 78.6883 270.709H79.0147L79.315 271.009C79.2171 271.114 79.1127 271.212 78.9821 271.29L78.6949 270.709C57.1068 268.692 35.336 251.275 13.3106 262.242C4.9221 266.42 7.89886 269.567 5.51615 274.809C1.37088 283.909 -2.85273 285.325 2.57855 297.591C15.504 326.778 35.4078 338.718 65.6585 347.987C68.4068 348.829 80.5684 350.553 81.1951 351.042C82.0568 351.708 89.7663 366.71 92.0577 369.889C96.0201 375.385 100.518 380.81 105.44 385.497C105.662 385.706 105.864 385.941 106.093 386.15C125.377 407.836 155.738 415.552 183.698 407.673C183.933 407.718 184.207 407.601 184.35 407.673C178.162 425.814 167.965 503.373 178.567 516.168C181.498 519.706 185.806 518.322 188.913 519.19C190.689 510.639 187.36 500.063 186.975 490.807C185.01 443.812 199.743 396.667 215.632 353.164C215.006 348.02 207.694 356.35 206.526 357.453C206.304 357.662 206.089 357.884 205.873 358.106C199.228 364.856 195.108 373.27 192.177 382.233L191.525 382.886C190.996 384.681 189.357 392.593 188.45 393.337C185.421 395.805 166.757 397.228 162.181 397.235C161.744 397.235 161.313 397.241 160.876 397.235C143.015 396.928 137.754 393.86 123.705 384.844C123.314 384.59 122.256 384.616 121.747 384.192C115.284 378.591 93.5852 354.339 93.1217 346.558C93.0499 345.376 94.2902 345.566 95.0083 344.41L95.5175 343.901C96.0332 343.477 96.7382 343 96.9667 342.452C97.1756 341.943 97.9655 341.322 97.6195 340.493C96.8623 338.692 85.0205 338.894 81.8283 338.352C76.7169 337.49 71.9058 336.113 66.9706 334.625C55.8143 331.256 28.586 318.677 22.9981 308.487C13.4085 290.992 49.0382 307.547 53.6731 307.84C58.4124 308.147 62.5642 304.7 57.6356 301.241C52.2892 297.487 28.2074 289.51 21.7055 290.339C16.79 290.965 11.2216 297.774 12.8275 286.024C14.0286 277.218 24.4016 281.18 29.8003 282.446L31.4192 282.877C38.946 285.071 50.0174 290.757 55.873 291.324C58.2557 291.553 59.6136 289.823 59.7963 289.621C61.8657 287.382 59.7311 284.366 59.6593 284.333L58.4907 283.752C57.9946 283.413 57.5703 283.321 57.1852 283.099C54.7045 281.657 51.558 280.318 48.7053 279.835C41.9945 276.591 35.1663 273.634 27.8419 272.002C48.3201 270.579 67.062 285.926 88.1539 282.433C105.453 279.574 80.9927 262.556 93.6897 252.751C102.868 245.661 104.631 265.004 107.274 270.507C111.805 279.927 120.611 284.96 123.053 296.142C124.613 303.264 122.896 310.856 126.317 317.012C128.732 321.36 140.417 333.6 144.575 336.577C145.626 337.327 146.71 337.908 147.839 338.535C161.522 346.147 175.205 343.705 189.429 339.364C193.803 338.026 207.747 330.871 210.162 330.734C212.434 330.61 226.528 336.283 230.66 337.229C245.237 340.559 258.769 342.249 273.705 343.098C278.438 343.366 283.302 343 288.054 343.098C307.311 343.503 323.612 343.209 342.837 341.14C350.67 340.297 368.746 335.61 374.524 335.898C377.265 336.035 377.481 337.118 379.361 338.535L381.437 340.728C381.9 341.433 382.181 342.034 382.618 342.445C384.479 344.214 386.274 345.911 388.03 347.687L391.098 350.925C391.301 351.153 391.549 351.349 391.751 351.578C411.426 375.294 422.269 403.162 430.88 432.446C431.134 433.302 431.807 434.398 432.185 435.71C432.244 435.913 432.127 436.161 432.185 436.363C433.054 439.386 434.274 442.356 434.797 445.496C434.868 445.901 434.725 446.397 434.797 446.802L435.449 448.107C437.179 457.579 438.178 470.348 440.176 478.926C442.97 490.905 451.175 496.917 449.086 512.937C448.714 515.802 441.527 530.229 438.72 527.67C438.38 527.357 439.275 525.594 439.366 525.059C440.019 521.129 441.938 500.932 437.584 499.606C432.584 498.085 432.923 505.273 432.845 508.099C432.845 508.315 432.845 508.537 432.845 508.752C431.128 509.921 432.224 511.324 432.192 512.016C432.179 512.232 432.211 512.453 432.192 512.669L429.581 521.149C426.741 527.344 419.945 538.004 411.707 536.777C399.8 535.001 408.73 509.216 401.047 503.53C392.861 497.472 395.224 516.579 389.793 518.851C384.988 520.855 382.031 516.481 380.673 512.669C379.302 503.282 380.764 494.867 385.236 486.583C386.039 485.31 389.251 482.79 389.721 481.609C391.738 476.589 385.993 446.893 384.583 439.627C382.533 429.058 371.521 380.999 364.627 375.797C362.59 374.263 360.071 374.112 359.431 376.946C357.603 385.06 365.6 409.324 368.981 423.19C369.51 425.514 369.948 427.564 370.235 429.189C370.274 429.398 370.196 429.633 370.235 429.842C370.548 431.846 370.979 434.039 371.482 436.35C373.897 448.61 377.925 468.305 377.357 475.153C377.043 478.893 371.828 484.683 370.385 489.011C367.271 498.327 366.174 511.324 370.235 520.496C373.172 527.122 379.988 531.326 387.09 531.835C388.663 531.946 392.841 530.719 393.05 530.934C393.2 531.091 393.122 533.878 393.67 535.21C399.31 548.847 410.93 553.417 424.574 547.104C431.017 544.127 429.235 543.971 437.558 541.196C452.97 536.065 461.973 525.633 462.24 508.439C462.279 505.723 459.89 495.663 460.223 495.069C460.811 494.018 478.652 487.373 482.203 485.401C520.594 464.14 548.161 419.41 545.035 374.713L545.008 374.693ZM235.863 325.479C233.441 324.839 231.091 324.278 228.688 323.521C209.372 317.443 182.261 304.844 168.69 289.608C168.487 289.379 168.233 289.183 168.037 288.955C166.77 287.48 164.035 284.823 163.474 283.086C146.599 265.134 141.814 237.56 151.084 214.608C155.549 204.463 157.984 199.469 161.515 188.522C169.486 163.859 174.402 142.832 190.885 121.878C239.003 60.6908 339.253 55.5402 398.253 103.743C398.488 103.932 398.671 104.2 398.906 104.396L406.733 111.57C407.366 112.197 408.071 112.889 408.691 113.528C436.304 142.003 453.76 196.271 462.632 234.694C466.79 252.711 465.504 266.348 453.036 280.488C452.82 280.71 452.592 280.912 452.383 281.141C434.32 301.13 406.922 312.371 406.733 312.443C352.596 333.012 292.65 334.755 235.869 325.485L235.863 325.479ZM196.081 97.2214C193.816 99.937 191.27 102.418 188.907 105.048C186.857 107.327 175.662 121.891 174.558 122.002C171.027 108.378 171.373 94.1336 173.253 80.2617C173.788 76.3122 174.023 72.3563 175.211 68.5244C179.467 68.0413 201.865 89.7338 201.852 92.3319C201.852 92.9782 196.075 97.2149 196.075 97.2149L196.081 97.2214ZM440.639 74.393C442.369 80.7774 444.673 91.4311 445.202 97.8676C445.222 98.0831 445.189 98.305 445.202 98.5204L445.457 107.653C445.32 117.693 443.949 127.805 442.597 137.649C433.014 122.772 422.524 109.102 409.99 96.562C408.495 95.0671 404.278 91.4572 404.435 90.7065C405.394 86.2217 426.702 67.8324 431.513 65.2604C439.484 60.9976 438.648 67.0164 440.646 74.393H440.639ZM381.613 48.3007C396.262 32.2157 439.203 -7.47445 454.335 27.4372C460.902 35.4666 466.614 58.6867 468.683 69.1772C470.877 80.2943 472.215 90.4062 472.594 101.784C472.607 102.215 472.581 102.653 472.594 103.09C472.678 106.112 472.639 109.194 472.594 112.223C472.587 112.66 472.607 113.091 472.594 113.528C472.097 134.065 467.378 150.699 467.378 150.699C465.073 158.558 461.849 166.287 459.055 173.99L457.605 174.826C457.383 169.702 450.744 159.701 450.62 155.49C450.535 152.69 456.156 135.626 456.946 129.829C457.658 124.619 458.101 119.443 458.252 114.175C458.291 112.875 458.252 111.563 458.252 110.264C458.278 101.262 457.638 93.05 456.293 84.1785C455.014 75.7182 450.366 49.2472 440.267 47.7066C429.195 46.0159 408.188 66.3505 400.844 74.0536C399.611 75.3461 393.853 83.4539 393.259 83.5779C392.077 83.826 374.909 73.2506 372.167 71.7884C371.077 71.2074 365.913 70.2477 365.678 68.8638C365.463 67.5843 379.576 50.5528 381.62 48.3072L381.613 48.3007ZM226.097 55.7948C227.624 57.4921 238.637 69.7516 237.815 70.1694C237.358 70.3979 232.24 72.6044 231.3 73.0939C224.935 76.3971 218.759 80.2094 212.701 84.0479C193.77 64.1702 166.078 28.2141 159.557 79.6154C158.389 88.859 158.284 98.3899 158.904 107.66C159.329 113.998 165.367 138.544 165.138 140.28C164.714 143.492 158.493 154.139 156.959 157.873C154.472 149.648 152.148 141.54 150.431 133.093C145.333 108.045 144.908 86.6199 149.125 61.3566C150.242 54.6654 151.286 46.5773 154.341 40.4867C164.362 -3.40099 210.736 38.7502 226.097 55.7948ZM436.076 404.389C430.344 387.364 428.145 390.661 435.423 371.782C445.966 344.443 475.76 322.62 505.645 334.494C535.719 346.44 536.437 387.847 526.071 413.522C526.136 413.711 526.019 413.966 526.071 414.175L516.938 434.392C511.742 442.506 505.586 449.87 498.679 456.567C488.907 466.039 464.094 479.52 462.808 480.042C461.783 480.46 456.992 482.568 456.587 482.483C452.167 481.55 450.744 457.39 449.765 452.651C449.648 452.089 449.269 451.417 449.112 450.692C445.724 434.888 441.214 419.684 436.069 404.389H436.076Z" fill="#2F0085"/>
<path d="M53.8087 215.796C55.1499 208.15 50.0393 200.865 42.3938 199.524C34.7484 198.183 27.4632 203.293 26.122 210.939C24.7808 218.584 29.8914 225.87 37.5368 227.211C45.1823 228.552 52.4675 223.441 53.8087 215.796Z" fill="#F4D15B"/>
<path d="M244.173 122.818C242.077 123.157 211.696 135.084 210.645 136.559C208.523 139.542 210.873 142.121 213.687 143.524C211.259 142.388 209.947 138.315 212.186 136.304C219.817 135.834 242.828 122.348 248.253 123.601C252.183 124.508 253.136 129.013 251.817 132.42C249.689 137.904 219.464 146.227 213.687 143.524C220.835 147.082 239.819 141.442 247.025 137.388C256.569 132.022 255.355 120.996 244.166 122.818H244.173Z" fill="#21127B"/>
<path d="M226.567 224.889C201.617 221.364 212.616 159.061 239.773 182.007C235.047 175.57 225.999 175.041 219.876 179.67C208.641 188.156 209.17 212.63 219.203 221.828C238.278 239.323 256.054 198.594 240.426 182.653C249.304 194.351 245.256 227.526 226.567 224.889Z" fill="#21127B"/>
<path d="M364.993 185.917C380.934 200.031 368.172 240.23 346.368 223.12C331.197 211.213 339.658 179.069 356.715 181.883C336.113 177.313 330.185 216.468 348.908 225.803C372.533 237.58 380.653 197.328 364.993 185.917Z" fill="#2F0085"/>
<path d="M356.715 181.883C359.072 182.405 361.618 183.489 364.34 185.264C361.657 183.352 359.105 182.274 356.715 181.883Z" fill="#21127B"/>
<path d="M357.107 142.767C352.883 140.391 345.631 132.91 341.12 132.492C331.374 131.598 329.526 143.459 337.601 148.087C334.35 144.484 330.571 138.687 335.656 134.731C342.119 129.705 354.822 142.558 360.86 146.018C364.34 148.016 388.422 155.927 378.532 160.647C369.118 165.145 346.695 153.767 338.254 148.734C345.278 155.875 369.353 165.511 378.806 161.744C381.045 160.85 382.749 157.05 380.947 154.635C380.151 153.571 360.645 144.745 357.107 142.761V142.767Z" fill="#2F0085"/>
<path d="M313.467 279.829C313.694 280.055 313.694 280.055 313.467 279.829C313.245 279.62 313.043 279.378 312.815 279.176C306.626 273.745 300.3 268.542 288.72 267.432L289.333 256.348C300.81 254.716 317.104 241.882 305.36 230.203C298.27 223.153 271.231 221.971 263.9 230.255C263.665 230.438 263.463 230.693 263.248 230.908C253.821 240.236 268.405 254.245 278.249 255.688C278.399 256.223 277.785 265.611 277.596 266.773C268.163 264.148 241.137 291.925 254.683 296.736C262.144 299.387 262.882 289.751 265.957 286.109C274.965 275.403 293.844 278.836 303.845 286.331C307.351 288.961 318.951 309.322 323.416 298.571C325.988 292.375 317.56 283.628 313.474 279.822L313.467 279.829Z" fill="#2F0085"/>
<path d="M88.6044 304.152C85.2033 303.865 71.958 304.635 77.3697 310.817C77.9768 311.509 89.551 312.788 92.2405 313.552C94.93 314.316 107.744 322.9 106.458 314.381C105.59 308.643 93.6179 304.57 88.6044 304.152Z" fill="#2F0085"/>
<path d="M462.815 480.042C460.203 470.256 456.854 460.184 449.772 452.651C450.751 457.39 452.174 481.543 456.593 482.483C456.998 482.568 461.79 480.466 462.815 480.042Z" fill="#FD63D2"/>
<path d="M213.687 143.524C219.464 146.227 249.689 137.897 251.817 132.42C253.136 129.013 252.183 124.508 248.253 123.601C242.828 122.348 219.817 135.841 212.186 136.304C209.946 138.315 211.259 142.388 213.687 143.524Z" fill="#2F0085"/>
<path d="M358.099 193.725C366.631 192.863 369.386 211.448 359.215 211.128C351.343 210.88 349.371 194.599 358.099 193.725Z" fill="#FDFDFD"/>
<path d="M229.622 191.792C239.642 189.455 242.26 207.544 233.206 208.491C225.091 209.339 222.043 193.561 229.622 191.792Z" fill="#FDFDFD"/>
<path d="M280.599 243.187C281.402 243.265 282.211 243.305 283.008 243.305C283.693 243.305 284.431 243.259 285.201 243.187C285.508 243.154 285.821 243.122 286.141 243.076C286.774 242.991 287.421 242.887 288.074 242.763C288.563 242.671 289.053 242.567 289.549 242.449C289.712 242.41 289.875 242.371 290.038 242.332C290.365 242.254 290.691 242.169 291.011 242.077C291.331 241.986 291.651 241.895 291.964 241.803C292.278 241.712 292.591 241.607 292.891 241.509C293.348 241.359 293.792 241.196 294.223 241.026C294.412 240.955 294.595 240.876 294.778 240.804C295.248 240.609 295.685 240.406 296.096 240.204C296.305 240.099 296.508 239.988 296.704 239.884C296.821 239.819 296.939 239.753 297.05 239.682C297.265 239.551 297.474 239.414 297.663 239.283C297.735 239.231 297.807 239.179 297.872 239.133C298.081 238.977 298.27 238.813 298.44 238.65C298.525 238.572 298.597 238.487 298.668 238.409C298.845 238.206 298.982 238.004 299.073 237.801C299.295 237.331 299.282 236.855 298.988 236.398C298.903 236.267 298.793 236.137 298.662 236.006C298.133 235.491 297.206 234.994 295.796 234.544C295.091 234.316 294.269 234.1 293.316 233.898C292.839 233.793 292.33 233.695 291.788 233.604C288.472 233.03 284.718 232.827 281.193 233.088C280.018 233.173 278.869 233.317 277.766 233.506C276.767 233.682 275.866 233.872 275.063 234.074C274.528 234.205 274.032 234.348 273.575 234.485C273.118 234.629 272.707 234.772 272.328 234.923C272.139 235.001 271.962 235.073 271.793 235.151C271.656 235.21 271.525 235.275 271.401 235.34C270.905 235.589 270.5 235.85 270.18 236.111C269.625 236.568 269.332 237.044 269.253 237.527C269.234 237.664 269.227 237.801 269.24 237.939C269.273 238.278 269.417 238.617 269.652 238.95C269.697 239.016 269.749 239.081 269.802 239.153C269.913 239.283 270.03 239.414 270.167 239.544C270.37 239.74 270.605 239.93 270.866 240.119C271.042 240.243 271.225 240.367 271.421 240.484C271.616 240.602 271.825 240.726 272.041 240.837C273.02 241.359 274.195 241.823 275.494 242.208C275.781 242.293 276.075 242.378 276.375 242.449C277.42 242.717 278.523 242.932 279.639 243.083C279.959 243.122 280.279 243.161 280.599 243.194V243.187Z" fill="#9E23FE"/>
<path d="M463.435 238.487C460.328 243.637 456.946 248.494 453.31 253.018C450.287 256.778 447.102 260.303 443.746 263.561C438.687 268.476 432.179 275.677 426.199 278.771C427.015 285.299 425.351 292.519 420.428 300.163C419.417 302.631 418.281 305.033 417.06 307.475C445.979 294.164 450.823 282.636 452.383 281.134C452.605 280.919 452.82 280.703 453.036 280.481C464.61 267.354 466.549 254.657 463.435 238.487Z" fill="#EC45CE"/>
</g>
<defs>
<linearGradient id="paint0_linear_37979_2303" x1="276.512" y1="416.256" x2="264.766" y2="532.25" gradientUnits="userSpaceOnUse">
<stop stop-color="#FE80DD"/>
<stop offset="1" stop-color="white" stop-opacity="0"/>
</linearGradient>
<clipPath id="clip0_37979_2303">
<rect width="545.25" height="549.872" fill="white"/>
</clipPath>
</defs>
</svg>
