<svg width="768" height="288" viewBox="0 0 768 288" fill="none" xmlns="http://www.w3.org/2000/svg">
<g opacity="0.2">
<path fill-rule="evenodd" clip-rule="evenodd" d="M0 189.422V237.375L137.306 233.359V288H195.134V231.667L237.514 230.428V181.631L195.134 183.298V0H119.427L0 189.422ZM138.424 66.375H136.189L60.9008 186.328V188.578L138.424 185.529V66.375Z" fill="#D2E9FF"/>
<path fill-rule="evenodd" clip-rule="evenodd" d="M537.387 189.422V237.375H674.693V288H732.521V237.375H768V188.578H732.521V0H656.814L537.387 189.422ZM675.811 66.375H673.576L598.288 186.328V188.578H675.811V66.375Z" fill="#D2E9FF"/>
<path fill-rule="evenodd" clip-rule="evenodd" d="M326.685 270.755C343.65 282.161 363.897 287.909 387.429 288C410.96 288 431.162 282.297 448.035 270.891C464.908 259.485 477.86 242.965 486.889 221.33C496.01 199.694 500.57 180.332 500.57 149.826C500.661 119.5 496.147 86.9929 487.026 65.7199C477.905 44.3564 464.863 28.0622 447.898 16.8374C431.025 5.61245 410.869 0 387.429 0C363.988 0 343.786 5.61245 326.822 16.8374C309.949 27.9717 296.952 44.2206 287.831 65.5842C278.802 86.9477 274.287 112.792 274.287 143.117C274.196 173.533 278.665 199.559 287.694 221.194C296.815 242.829 309.812 259.349 326.685 270.755ZM425.872 215.219C416.295 231.242 403.481 239.253 387.429 239.253C376.757 239.253 367.454 235.723 359.519 228.662C351.584 221.511 345.428 210.829 341.05 196.617C336.763 182.314 334.62 164.481 334.62 143.117C334.711 111.525 339.545 87.8076 349.122 71.9661C358.699 56.1245 371.467 48.2037 387.429 48.2037C398.1 48.2037 407.357 51.7341 415.201 58.7949C423.136 65.8557 429.247 76.4017 433.533 90.4328C437.911 104.464 440.1 122.025 440.1 143.117C440.191 175.163 435.449 199.197 425.872 215.219Z" fill="#D2E9FF"/>
</g>
</svg>
