<svg width="244" height="169" viewBox="0 0 244 169" fill="none" xmlns="http://www.w3.org/2000/svg">
<g clip-path="url(#clip0_58804_428)">
<rect x="78" y="16" width="88.047" height="88.047" rx="27" fill="white"/>
<rect x="78" y="16" width="88.047" height="88.047" rx="27" fill="url(#paint0_linear_58804_428)"/>
<g filter="url(#filter0_d_58804_428)">
<path d="M122 34.4082C138.118 34.4082 151.184 45.6925 151.184 59.6123C151.184 73.5321 138.118 84.8164 122 84.8164C118.695 84.8164 115.519 84.342 112.558 83.4679C109.248 86.0417 104.115 88.2027 97.1604 89.9472C96.8312 90.0298 96.4828 89.9837 96.1863 89.8183C95.5433 89.4595 95.3129 88.6473 95.6718 88.0043L96.1695 87.101C98.4791 82.8512 99.9202 79.3659 100.493 76.6449C95.7246 72.1601 92.8163 66.1795 92.8163 59.6123C92.8163 45.6925 105.882 34.4082 122 34.4082Z" fill="white"/>
</g>
</g>
<path d="M158.979 152.003C156.338 152.003 153.929 151.381 151.754 150.138C149.604 148.868 147.908 147.159 146.665 145.009C145.422 142.859 144.8 140.502 144.8 137.938C144.8 135.348 145.396 132.978 146.587 130.828C147.804 128.652 149.488 126.943 151.637 125.7C153.787 124.431 156.234 123.796 158.979 123.796C161.18 123.796 163.071 124.146 164.651 124.845C166.256 125.518 167.681 126.593 168.924 128.07L165.078 131.411C163.446 129.701 161.413 128.847 158.979 128.847C157.27 128.847 155.768 129.261 154.473 130.09C153.178 130.893 152.181 131.994 151.482 133.392C150.782 134.765 150.433 136.28 150.433 137.938C150.433 139.596 150.782 141.111 151.482 142.484C152.207 143.857 153.217 144.944 154.512 145.747C155.833 146.55 157.36 146.952 159.096 146.952C161.634 146.952 163.705 146.071 165.311 144.31L169.273 147.69C168.186 149.011 166.761 150.06 165 150.837C163.265 151.614 161.258 152.003 158.979 152.003Z" fill="url(#paint1_linear_58804_428)"/>
<path d="M171.104 123.135H176.348V134.092C177.436 131.916 179.469 130.828 182.447 130.828C183.897 130.828 185.205 131.178 186.37 131.877C187.536 132.551 188.455 133.522 189.128 134.791C189.802 136.034 190.138 137.485 190.138 139.143V151.497H184.894V140.425C184.894 138.741 184.506 137.485 183.729 136.656C182.952 135.827 181.89 135.413 180.543 135.413C179.352 135.413 178.355 135.84 177.552 136.695C176.749 137.524 176.348 138.767 176.348 140.425V151.497H171.104V123.135Z" fill="url(#paint2_linear_58804_428)"/>
<path d="M202.275 152.003C200.462 152.003 198.792 151.536 197.264 150.604C195.736 149.646 194.519 148.363 193.612 146.758C192.732 145.152 192.292 143.39 192.292 141.474C192.292 139.557 192.732 137.796 193.612 136.19C194.519 134.558 195.736 133.263 197.264 132.305C198.792 131.346 200.462 130.867 202.275 130.867C203.933 130.867 205.266 131.178 206.276 131.8C207.312 132.421 208.115 133.315 208.685 134.48V131.294H213.89V151.497H208.802V148.195C208.206 149.412 207.39 150.358 206.354 151.031C205.344 151.679 203.985 152.003 202.275 152.003ZM197.536 141.435C197.536 142.471 197.769 143.442 198.235 144.349C198.727 145.229 199.388 145.942 200.216 146.486C201.071 147.004 202.042 147.263 203.13 147.263C204.244 147.263 205.228 147.004 206.082 146.486C206.963 145.968 207.636 145.268 208.102 144.388C208.568 143.507 208.802 142.536 208.802 141.474C208.802 140.412 208.568 139.44 208.102 138.56C207.636 137.653 206.963 136.941 206.082 136.423C205.228 135.879 204.244 135.607 203.13 135.607C202.042 135.607 201.071 135.879 200.216 136.423C199.362 136.941 198.701 137.64 198.235 138.521C197.769 139.402 197.536 140.373 197.536 141.435Z" fill="url(#paint3_linear_58804_428)"/>
<path d="M224.659 151.497C222.613 151.497 221.072 150.992 220.036 149.982C219.001 148.972 218.483 147.392 218.483 145.242V135.762H215.647V131.294H218.483V127.215L223.727 126.671V131.294H228V135.762H223.727V144.97C223.727 146.214 224.271 146.835 225.358 146.835H227.534V151.497H224.659Z" fill="url(#paint4_linear_58804_428)"/>
<path d="M24.1093 128.326H16V123.217H37.895V128.326H29.7857V151.603H24.1093V128.326Z" fill="black"/>
<path d="M33.95 130.516H40.3563L43.0729 142.479C43.3702 143.695 43.5865 144.763 43.7216 145.682C43.9108 144.52 44.1406 143.438 44.4109 142.438L47.4924 130.516H53.7771L57.0613 142.438C57.3316 143.438 57.5614 144.52 57.7506 145.682C57.8858 144.763 58.102 143.695 58.3994 142.479L61.3187 130.516H67.279L60.7105 151.603H54.7907L51.3443 139.599C51.0199 138.626 50.7767 137.572 50.6145 136.436C50.4253 137.68 50.209 138.734 49.9657 139.599L46.8031 151.603H40.5185L33.95 130.516Z" fill="black"/>
<path d="M77.0684 152.13C75.1762 152.13 73.4327 151.643 71.8379 150.67C70.2431 149.67 68.9726 148.332 68.0266 146.656C67.1075 144.979 66.648 143.141 66.648 141.14C66.648 139.14 67.1075 137.302 68.0266 135.625C68.9726 133.922 70.2431 132.571 71.8379 131.57C73.4327 130.57 75.1762 130.07 77.0684 130.07C78.7984 130.07 80.1904 130.394 81.2446 131.043C82.3259 131.692 83.1638 132.625 83.7585 133.841V130.516H89.1917V151.603H83.8801V148.156C83.2584 149.427 82.407 150.413 81.3257 151.116C80.2715 151.792 78.8524 152.13 77.0684 152.13ZM72.1217 141.1C72.1217 142.181 72.365 143.195 72.8516 144.141C73.3652 145.06 74.0544 145.804 74.9194 146.372C75.8114 146.912 76.8251 147.183 77.9604 147.183C79.1227 147.183 80.1499 146.912 81.0419 146.372C81.961 145.831 82.6638 145.101 83.1503 144.182C83.6369 143.263 83.8801 142.249 83.8801 141.14C83.8801 140.032 83.6369 139.018 83.1503 138.099C82.6638 137.153 81.961 136.409 81.0419 135.869C80.1499 135.301 79.1227 135.017 77.9604 135.017C76.8251 135.017 75.8114 135.301 74.9194 135.869C74.0274 136.409 73.3381 137.139 72.8516 138.059C72.365 138.978 72.1217 139.991 72.1217 141.1Z" fill="black"/>
<path d="M97.9177 141.587V151.603H92.444V122H97.9177V139.032L105.824 130.516H113.609L103.675 140.329L113.65 151.603H106.392L97.9177 141.587Z" fill="black"/>
<path d="M122.496 152.13C120.361 152.13 118.469 151.643 116.82 150.67C115.171 149.67 113.887 148.332 112.968 146.656C112.049 144.979 111.589 143.127 111.589 141.1C111.589 139.099 112.062 137.247 113.009 135.544C113.955 133.841 115.252 132.489 116.901 131.489C118.577 130.489 120.442 129.989 122.496 129.989C124.551 129.989 126.389 130.489 128.011 131.489C129.66 132.489 130.93 133.841 131.822 135.544C132.741 137.22 133.201 139.072 133.201 141.1C133.201 141.776 133.146 142.425 133.038 143.046H117.266C117.59 144.317 118.198 145.344 119.09 146.128C120.01 146.885 121.145 147.264 122.496 147.264C123.632 147.264 124.645 147.007 125.537 146.493C126.429 145.953 127.132 145.263 127.646 144.425L131.903 147.629C131.038 148.98 129.768 150.075 128.092 150.913C126.416 151.724 124.551 152.13 122.496 152.13ZM127.686 138.951C127.362 137.734 126.727 136.72 125.781 135.909C124.835 135.098 123.713 134.693 122.415 134.693C121.145 134.693 120.037 135.085 119.09 135.869C118.171 136.653 117.563 137.68 117.266 138.951H127.686Z" fill="black"/>
<defs>
<filter id="filter0_d_58804_428" x="82.8163" y="26.4082" width="78.3673" height="75.5791" filterUnits="userSpaceOnUse" color-interpolation-filters="sRGB">
<feFlood flood-opacity="0" result="BackgroundImageFix"/>
<feColorMatrix in="SourceAlpha" type="matrix" values="0 0 0 0 0 0 0 0 0 0 0 0 0 0 0 0 0 0 127 0" result="hardAlpha"/>
<feOffset dy="2"/>
<feGaussianBlur stdDeviation="5"/>
<feComposite in2="hardAlpha" operator="out"/>
<feColorMatrix type="matrix" values="0 0 0 0 0 0 0 0 0 0 0 0 0 0 0 0 0 0 0.1 0"/>
<feBlend mode="normal" in2="BackgroundImageFix" result="effect1_dropShadow_58804_428"/>
<feBlend mode="normal" in="SourceGraphic" in2="effect1_dropShadow_58804_428" result="shape"/>
</filter>
<linearGradient id="paint0_linear_58804_428" x1="89.898" y1="96.8163" x2="160.612" y2="16" gradientUnits="userSpaceOnUse">
<stop stop-color="#8135FE"/>
<stop offset="1" stop-color="#E8A6FF"/>
</linearGradient>
<linearGradient id="paint1_linear_58804_428" x1="186.486" y1="113.307" x2="186.486" y2="160.336" gradientUnits="userSpaceOnUse">
<stop stop-color="#B666FA"/>
<stop offset="1" stop-color="#A347EC"/>
</linearGradient>
<linearGradient id="paint2_linear_58804_428" x1="186.486" y1="113.307" x2="186.486" y2="160.336" gradientUnits="userSpaceOnUse">
<stop stop-color="#B666FA"/>
<stop offset="1" stop-color="#A347EC"/>
</linearGradient>
<linearGradient id="paint3_linear_58804_428" x1="186.486" y1="113.307" x2="186.486" y2="160.336" gradientUnits="userSpaceOnUse">
<stop stop-color="#B666FA"/>
<stop offset="1" stop-color="#A347EC"/>
</linearGradient>
<linearGradient id="paint4_linear_58804_428" x1="186.486" y1="113.307" x2="186.486" y2="160.336" gradientUnits="userSpaceOnUse">
<stop stop-color="#B666FA"/>
<stop offset="1" stop-color="#A347EC"/>
</linearGradient>
<clipPath id="clip0_58804_428">
<rect x="78" y="16" width="88" height="88" fill="white"/>
</clipPath>
</defs>
</svg>
