<svg width="1193" height="221" viewBox="0 0 1193 221" fill="none" xmlns="http://www.w3.org/2000/svg">
<path d="M880.833 184.643C868.98 184.643 858.172 181.854 848.41 176.276C838.765 170.582 831.153 162.912 825.575 153.266C819.997 143.621 817.208 133.046 817.208 121.541C817.208 109.92 819.881 99.2866 825.227 89.6411C830.688 79.8795 838.242 72.2096 847.887 66.6315C857.533 60.9372 868.515 58.0901 880.833 58.0901C890.711 58.0901 899.194 59.6589 906.283 62.7966C913.488 65.818 919.88 70.6408 925.458 77.2647L908.201 92.2559C900.879 84.586 891.757 80.7511 880.833 80.7511C873.163 80.7511 866.423 82.6104 860.613 86.3291C854.802 89.9317 850.328 94.8706 847.19 101.146C844.053 107.305 842.484 114.103 842.484 121.541C842.484 128.978 844.053 135.777 847.19 141.936C850.444 148.095 854.976 152.976 860.787 156.578C866.714 160.181 873.57 161.982 881.356 161.982C892.745 161.982 902.041 158.031 909.246 150.129L927.027 165.294C922.146 171.221 915.754 175.927 907.852 179.413C900.066 182.9 891.06 184.643 880.833 184.643Z" fill="url(#paint0_linear_55759_27358)"/>
<path d="M935.239 55.1267H958.771V104.284C963.652 94.522 972.774 89.6411 986.139 89.6411C992.646 89.6411 998.515 91.21 1003.74 94.3476C1008.97 97.3691 1013.1 101.727 1016.12 107.421C1019.14 112.999 1020.65 119.507 1020.65 126.945V182.377H997.12V132.697C997.12 125.143 995.377 119.507 991.891 115.788C988.405 112.07 983.64 110.21 977.597 110.21C972.251 110.21 967.777 112.128 964.175 115.963C960.572 119.681 958.771 125.26 958.771 132.697V182.377H935.239V55.1267Z" fill="url(#paint1_linear_55759_27358)"/>
<path d="M1075.11 184.643C1066.98 184.643 1059.48 182.551 1052.63 178.368C1045.77 174.068 1040.31 168.315 1036.24 161.11C1032.29 153.905 1030.32 146.003 1030.32 137.404C1030.32 128.804 1032.29 120.902 1036.24 113.697C1040.31 106.375 1045.77 100.565 1052.63 96.2651C1059.48 91.9653 1066.98 89.8154 1075.11 89.8154C1082.55 89.8154 1088.54 91.21 1093.07 93.999C1097.72 96.7881 1101.32 100.797 1103.88 106.027V91.7329H1127.23V182.377H1104.4V167.56C1101.73 173.022 1098.07 177.264 1093.42 180.285C1088.89 183.19 1082.78 184.643 1075.11 184.643ZM1053.85 137.229C1053.85 141.878 1054.89 146.235 1056.99 150.303C1059.19 154.254 1062.16 157.45 1065.88 159.89C1069.71 162.214 1074.07 163.376 1078.95 163.376C1083.95 163.376 1088.36 162.214 1092.2 159.89C1096.15 157.566 1099.17 154.428 1101.26 150.477C1103.35 146.526 1104.4 142.168 1104.4 137.404C1104.4 132.639 1103.35 128.281 1101.26 124.33C1099.17 120.263 1096.15 117.067 1092.2 114.743C1088.36 112.302 1083.95 111.082 1078.95 111.082C1074.07 111.082 1069.71 112.302 1065.88 114.743C1062.04 117.067 1059.08 120.204 1056.99 124.156C1054.89 128.107 1053.85 132.465 1053.85 137.229Z" fill="url(#paint2_linear_55759_27358)"/>
<path d="M1175.56 182.377C1166.38 182.377 1159.46 180.111 1154.81 175.579C1150.16 171.046 1147.84 163.958 1147.84 154.312V111.779H1135.12V91.7329H1147.84V73.4298L1171.37 70.9894V91.7329H1190.55V111.779H1171.37V153.092C1171.37 158.67 1173.81 161.459 1178.69 161.459H1188.46V182.377H1175.56Z" fill="url(#paint3_linear_55759_27358)"/>
<path d="M275.637 78.4149H239.249V55.4902H337.497V78.4149H301.109V182.849H275.637V78.4149Z" fill="black"/>
<path d="M319.795 88.2397H348.542L360.732 141.912C362.066 147.371 363.037 152.162 363.643 156.286C364.492 151.07 365.523 146.218 366.736 141.731L380.564 88.2397H408.765L423.502 141.731C424.715 146.218 425.746 151.07 426.595 156.286C427.201 152.162 428.172 147.371 429.506 141.912L442.606 88.2397H469.351L439.877 182.849H413.313L397.848 128.995C396.393 124.628 395.301 119.898 394.573 114.803C393.724 120.383 392.754 125.113 391.662 128.995L377.471 182.849H349.27L319.795 88.2397Z" fill="black"/>
<path d="M513.279 185.215C504.788 185.215 496.965 183.031 489.808 178.665C482.652 174.177 476.951 168.173 472.706 160.652C468.582 153.132 466.52 144.884 466.52 135.908C466.52 126.933 468.582 118.685 472.706 111.164C476.951 103.523 482.652 97.4581 489.808 92.9702C496.965 88.4823 504.788 86.2384 513.279 86.2384C521.041 86.2384 527.288 87.6939 532.019 90.6049C536.87 93.516 540.63 97.7007 543.299 103.159V88.2397H567.679V182.849H543.845V167.384C541.055 173.085 537.234 177.512 532.382 180.666C527.652 183.698 521.284 185.215 513.279 185.215ZM491.082 135.726C491.082 140.578 492.173 145.127 494.357 149.372C496.661 153.496 499.754 156.832 503.636 159.379C507.638 161.805 512.187 163.018 517.281 163.018C522.497 163.018 527.106 161.805 531.109 159.379C535.233 156.953 538.387 153.678 540.57 149.554C542.753 145.43 543.845 140.881 543.845 135.908C543.845 130.935 542.753 126.387 540.57 122.263C538.387 118.017 535.233 114.682 531.109 112.256C527.106 109.709 522.497 108.435 517.281 108.435C512.187 108.435 507.638 109.709 503.636 112.256C499.633 114.682 496.54 117.957 494.357 122.081C492.173 126.205 491.082 130.753 491.082 135.726Z" fill="black"/>
<path d="M606.835 137.91V182.849H582.273V50.032H606.835V126.447L642.314 88.2397H677.246L632.671 132.27L677.428 182.849H644.861L606.835 137.91Z" fill="black"/>
<path d="M717.126 185.215C707.543 185.215 699.053 183.031 691.654 178.665C684.255 174.177 678.493 168.173 674.369 160.652C670.245 153.132 668.183 144.824 668.183 135.726C668.183 126.751 670.306 118.442 674.551 110.8C678.797 103.159 684.619 97.0942 692.018 92.6063C699.538 88.1184 707.907 85.8745 717.126 85.8745C726.344 85.8745 734.592 88.1184 741.87 92.6063C749.269 97.0942 754.969 103.159 758.972 110.8C763.096 118.321 765.158 126.629 765.158 135.726C765.158 138.759 764.916 141.67 764.43 144.46H693.655C695.111 150.16 697.84 154.77 701.843 158.287C705.967 161.683 711.061 163.382 717.126 163.382C722.22 163.382 726.769 162.229 730.771 159.925C734.774 157.499 737.928 154.406 740.232 150.646L759.336 165.019C755.455 171.084 749.754 175.996 742.234 179.756C734.713 183.395 726.344 185.215 717.126 185.215ZM740.414 126.084C738.959 120.625 736.108 116.077 731.863 112.438C727.618 108.799 722.584 106.98 716.762 106.98C711.061 106.98 706.088 108.738 701.843 112.256C697.719 115.774 694.989 120.383 693.655 126.084H740.414Z" fill="black"/>
<rect x="6.32227" y="12.2151" width="196.105" height="196.105" rx="64.7641" fill="white"/>
<rect x="6.32227" y="12.2151" width="196.105" height="196.105" rx="64.7641" fill="url(#paint4_linear_55759_27358)"/>
<rect x="6.32227" y="12.2151" width="196.105" height="196.105" rx="64.7641" fill="url(#paint5_linear_55759_27358)"/>
<rect x="6.32227" y="12.2151" width="196.105" height="196.105" rx="64.7641" fill="url(#paint6_linear_55759_27358)"/>
<path d="M103.597 53.7805C138.637 53.7805 167.043 78.3124 167.043 108.574C167.043 138.836 138.637 163.368 103.597 163.368C96.4134 163.368 89.5083 162.336 83.0697 160.436C75.875 166.031 64.716 170.729 49.5964 174.522C48.8806 174.701 48.1232 174.601 47.4787 174.242C46.0808 173.462 45.58 171.696 46.3601 170.298L47.4421 168.334C52.4632 159.095 55.5961 151.518 56.8405 145.603C46.4749 135.853 40.1523 122.851 40.1523 108.574C40.1523 78.3124 68.5577 53.7805 103.597 53.7805Z" fill="white"/>
<defs>
<linearGradient id="paint0_linear_55759_27358" x1="878.482" y1="26.0182" x2="978.738" y2="270.353" gradientUnits="userSpaceOnUse">
<stop stop-color="#74DF74"/>
<stop offset="1" stop-color="#32B332"/>
</linearGradient>
<linearGradient id="paint1_linear_55759_27358" x1="878.482" y1="26.0182" x2="978.738" y2="270.353" gradientUnits="userSpaceOnUse">
<stop stop-color="#74DF74"/>
<stop offset="1" stop-color="#32B332"/>
</linearGradient>
<linearGradient id="paint2_linear_55759_27358" x1="878.482" y1="26.0182" x2="978.738" y2="270.353" gradientUnits="userSpaceOnUse">
<stop stop-color="#74DF74"/>
<stop offset="1" stop-color="#32B332"/>
</linearGradient>
<linearGradient id="paint3_linear_55759_27358" x1="878.482" y1="26.0182" x2="978.738" y2="270.353" gradientUnits="userSpaceOnUse">
<stop stop-color="#74DF74"/>
<stop offset="1" stop-color="#32B332"/>
</linearGradient>
<linearGradient id="paint4_linear_55759_27358" x1="202.427" y1="126.609" x2="149.333" y2="92.7122" gradientUnits="userSpaceOnUse">
<stop offset="0.12998" stop-color="#A033FF"/>
<stop offset="0.610381" stop-color="#0094FF"/>
<stop offset="1" stop-color="#4FB500"/>
</linearGradient>
<linearGradient id="paint5_linear_55759_27358" x1="96.2036" y1="73.4978" x2="34.9208" y2="196.063" gradientUnits="userSpaceOnUse">
<stop stop-color="#FFD600" stop-opacity="0"/>
<stop offset="0.563347" stop-color="#FFC700"/>
</linearGradient>
<linearGradient id="paint6_linear_55759_27358" x1="112.546" y1="126.609" x2="181.999" y2="200.149" gradientUnits="userSpaceOnUse">
<stop offset="0.0297327" stop-color="#FF3B30" stop-opacity="0"/>
<stop offset="0.842824" stop-color="#E73B2D"/>
</linearGradient>
</defs>
</svg>
