<svg width="40" height="40" viewBox="0 0 40 40" fill="none" xmlns="http://www.w3.org/2000/svg">
<rect width="40" height="40" rx="20" fill="#0A84FF"/>
<path d="M14.7387 23.7542C14.0531 25.6091 13.6222 26.9123 13.4461 27.664C12.8928 30.0262 12.4904 30.5583 14.5528 29.4356C16.6152 28.313 26.5997 22.7519 28.8273 21.516C31.731 19.905 31.7698 20.0308 28.6715 18.3203C26.3117 17.0175 16.4443 11.6015 14.5528 10.538C12.6614 9.47457 12.8928 9.94746 13.4461 12.3097C13.6245 13.071 14.0616 14.3859 14.7575 16.2544C15.2442 17.5611 16.3763 18.5201 17.7453 18.7853L23.5099 19.9019C23.5641 19.9127 23.5992 19.9654 23.5884 20.0196C23.5805 20.0592 23.5495 20.0901 23.5099 20.098L17.7323 21.2136C16.3589 21.4788 15.2237 22.4421 14.7387 23.7542Z" fill="white"/>
</svg>
