<svg width="136" height="120" viewBox="0 0 136 120" fill="none" xmlns="http://www.w3.org/2000/svg">
<path opacity="0.12" d="M56.8993 100.95C56.8993 100.95 54.4893 105.149 72.412 104.996C90.3347 104.843 120.781 102.281 121.054 98.2377C121.326 94.1944 72.3067 99.5174 56.8962 100.952L56.8993 100.95Z" fill="url(#paint0_linear_15916_14474)"/>
<path d="M57.163 92.9933C57.163 92.9933 53.3594 93.343 56.4809 99.9659C59.6024 106.589 62.916 99.4025 62.916 99.4025C62.916 99.4025 66.744 92.0801 57.163 92.9933Z" fill="url(#paint1_radial_15916_14474)"/>
<path d="M53.5555 72.7726C53.5555 72.7726 51.264 78.6718 48.8511 79.8521C46.4382 81.0325 44.341 80.1193 43.8863 81.7125C43.4315 83.3033 44.2439 83.5728 44.2439 83.5728C44.2439 83.5728 40.6521 87.2741 42.9282 90.4387C45.2042 93.6032 52.6791 92.5127 55.231 80.622C57.783 68.7313 53.5731 72.6827 53.5731 72.6827" fill="url(#paint2_radial_15916_14474)"/>
<path d="M83.6869 38.7471C83.6869 38.7471 87.8482 27.3033 94.6078 43.109C101.367 58.9147 79.9163 92.3865 70.6842 82.4436C61.4521 72.5006 83.6869 38.7447 83.6869 38.7447V38.7471Z" fill="#C5E9FF"/>
<path d="M73.9358 71.2156C73.9358 71.2156 85.881 31.898 103.239 29.9673C120.597 28.0365 123.962 60.1118 103.533 75.4536C83.1039 90.7954 73.938 71.2156 73.938 71.2156H73.9358Z" fill="#ADDBF2" stroke="white" stroke-width="0.973723" stroke-miterlimit="10"/>
<path d="M79.7381 77.1365C79.7381 77.1365 87.5883 58.7395 102.019 53.6951C116.45 48.6508 123.57 53.0515 110.015 70.2707C96.4606 87.4899 81.0053 80.6775 81.0053 80.6775C81.0053 80.6775 78.2259 80.2015 79.7381 77.1365Z" fill="#C5E9FF"/>
<path d="M79.7381 77.1364C83.3917 69.3089 88.5287 61.9889 95.2066 57.0296C97.7299 55.1619 100.542 53.7654 103.47 52.845C105.417 52.2087 107.399 51.6768 109.426 51.4315C114.128 50.7709 119.053 52.148 117.335 58.5815C115.98 63.1546 113.104 66.9239 110.313 70.5159C107.114 74.4698 103.236 77.8432 98.7697 79.8784C92.8953 82.5353 85.9171 82.9433 80.0251 80.2572C78.9831 79.5214 79.2149 78.171 79.7359 77.1388L79.7381 77.1364ZM79.7381 77.1364C78.9235 78.7685 79.2061 80.2475 81.0097 80.6653C84.8111 82.0982 88.9724 82.2682 92.9085 81.4716C98.8381 80.2791 104.172 76.6191 108.253 71.8177C111.532 67.8954 122.989 53.2433 112.448 52.2354C109.011 51.978 105.505 52.9276 102.205 53.984C92.1028 57.4521 84.4866 67.0575 79.7381 77.1388V77.1364Z" fill="white"/>
<path d="M92.2788 89.1585C92.2126 90.895 91.9256 92.4663 91.4179 93.7851C91.3384 93.9915 91.2523 94.1931 91.1618 94.3874C90.6673 95.4414 89.9962 96.4396 89.1838 97.3722C87.7003 99.0747 85.7444 100.551 83.5302 101.736H83.528C76.6204 105.445 67.2161 106.334 61.8694 102.409H61.8672C61.3418 102.026 60.8561 101.593 60.4146 101.112C58.6573 98.9144 57.2445 96.748 56.1407 94.6278C55.1031 92.6387 54.3371 90.691 53.8139 88.8063C52.7543 84.9933 52.6792 81.4281 53.3415 78.2514C54.8272 71.1135 60.0194 65.9332 66.0682 64.2793C72.9845 62.3898 78.583 64.0607 82.8039 67.4827C84.1682 68.5853 85.3867 69.8725 86.4618 71.2811C87.8725 73.1318 89.0315 75.1888 89.9344 77.3188C90.5326 78.7298 91.0161 80.17 91.3869 81.6029C92.0713 84.2356 92.3715 86.8367 92.2788 89.1585Z" fill="url(#paint3_radial_15916_14474)"/>
<path d="M72.9601 77.2239C77.8521 74.89 80.9118 71.3053 82.8037 67.4826C78.5828 64.0606 72.9844 62.3897 66.068 64.2792C60.0192 65.9331 54.827 71.1134 53.3413 78.2512C57.3304 80.165 63.9554 81.5178 72.9601 77.2239Z" fill="url(#paint4_linear_15916_14474)"/>
<path d="M89.9339 77.321C89.031 75.1887 87.8721 73.1316 86.4614 71.2809C84.596 75.4801 81.4458 79.8128 76.1454 83.0162C68.0767 87.8954 59.6636 88.8839 53.8135 88.8061C54.3367 90.6908 55.1027 92.6386 56.1403 94.6276C75.3749 100.235 86.2561 84.1917 89.9339 77.321Z" fill="url(#paint5_linear_15916_14474)"/>
<path d="M92.2781 89.1606C92.3708 86.8364 92.0706 84.2353 91.3862 81.6027C90.2361 84.7186 88.7416 88.0823 86.8055 91.5286C81.2534 101.411 68.8998 102.603 61.8687 102.409C67.2154 106.334 76.6197 105.445 83.5272 101.739H83.5294C84.9246 100.391 86.1763 98.9287 87.2868 97.4521C88.5495 95.7715 89.629 94.0714 90.5297 92.4928C91.2162 91.2881 91.7991 90.1564 92.2781 89.1606Z" fill="url(#paint6_linear_15916_14474)"/>
<path d="M95.2234 65.0708C95.2411 64.8353 95.2499 64.6677 95.2543 64.5754L95.2234 65.0708Z" fill="url(#paint7_linear_15916_14474)"/>
<path d="M91.1609 94.3873C90.6664 95.4413 89.9953 96.4395 89.1829 97.3721C92.0593 97.1122 93.1455 96.3011 93.1455 96.3011L91.4169 93.785C91.3375 93.9914 91.2514 94.193 91.1609 94.3873Z" fill="url(#paint8_linear_15916_14474)"/>
<path d="M30.1544 72.1287C30.1544 72.1287 31.9713 75.5094 33.2494 76.272C34.5276 77.0346 34.5056 73.2945 34.5056 73.2945C34.5056 73.2945 31.6534 70.7055 30.2648 70.6934C28.8762 70.6812 30.1544 72.1287 30.1544 72.1287Z" fill="url(#paint9_linear_15916_14474)"/>
<path d="M30.4628 68.7308C30.4628 68.7308 30.0566 68.4078 29.2773 69.2141C28.498 70.0204 27.8137 71.6452 26.9616 71.9148C26.1094 72.1843 28.3744 72.3786 29.7321 71.3416C31.0897 70.3046 31.0036 69.2141 30.4628 68.7308Z" fill="url(#paint10_radial_15916_14474)"/>
<path d="M28.4653 71.6184C28.4653 71.6184 28.5073 73.0804 29.7524 73.1338C30.9974 73.1873 31.7635 71.1958 31.5008 70.3967C31.2381 69.6001 29.6111 70.115 29.6111 70.115L28.4653 71.6159V71.6184Z" fill="url(#paint11_radial_15916_14474)"/>
<path d="M51.0202 90.9288C51.0202 90.9288 43.0972 85.6174 37.8321 81.0321C36.7593 80.0995 35.8718 79.3514 35.1455 78.7394C35.4855 77.4644 36.1455 75.7716 37.3995 74.5038C41.6358 77.8335 50.2895 84.7066 50.2895 84.7066L51.0202 90.9288Z" fill="url(#paint12_linear_15916_14474)"/>
<path d="M55.2268 82.142C51.8227 82.55 48.9396 80.8864 48.2751 82.6107C48.1008 83.0624 47.8138 83.4486 47.4937 83.7935C46.6106 84.7479 45.5267 86.8754 49.167 89.8311C54.8847 94.4699 65.8652 89.0394 68.6931 82.5889C71.2163 76.8354 70.9117 71.3247 67.3045 70.5743C63.6973 69.8238 64.4633 76.5002 56.686 81.6077C56.2401 81.8991 55.7412 82.0837 55.2246 82.1444L55.2268 82.142Z" fill="url(#paint13_radial_15916_14474)"/>
<path d="M33.3673 56.3449C33.3673 56.3449 25.1993 21.1294 60.2998 17.9722C75.3114 16.7578 92.9721 29.144 89.8814 54.402C86.7908 79.6601 31.6013 82.3316 33.3673 56.3449Z" fill="url(#paint14_radial_15916_14474)"/>
<path d="M39.5486 45.416C39.5486 45.416 40.8732 44.9302 41.5354 44.2016C42.1977 43.473 43.9638 44.6874 42.86 46.1446C41.7562 47.6018 38.4448 48.3304 38.4448 46.6303C38.4448 45.6588 39.1071 45.6588 39.5486 45.416Z" fill="black"/>
<path d="M64.9362 44.9302C64.9362 44.9302 66.04 45.4159 66.9231 45.6588C67.8061 45.9016 67.7112 48.0243 65.9297 47.9563C64.1481 47.8883 62.6978 47.2131 62.2275 46.2271C61.7573 45.241 61.8081 44.1141 62.8192 43.9417C63.8302 43.7693 64.3115 44.7407 64.9031 44.901" fill="black"/>
<path d="M41.938 61.9599C44.0669 61.7104 45.5626 59.1316 45.2788 56.2C44.9949 53.2684 43.039 51.094 40.9101 51.3435C38.7812 51.593 37.2855 54.1718 37.5694 57.1034C37.8532 60.035 39.8091 62.2093 41.938 61.9599Z" fill="url(#paint15_radial_15916_14474)"/>
<path d="M41.0309 55.1727C41.5781 53.9322 41.4687 52.6313 40.7865 52.267C40.1042 51.9027 39.1075 52.613 38.5603 53.8535C38.013 55.0939 38.1224 56.3949 38.8046 56.7592C39.4869 57.1234 40.4836 56.4132 41.0309 55.1727Z" fill="white"/>
<path d="M42.5835 59.4331C42.766 59.1496 42.7583 58.7985 42.5663 58.6489C42.3742 58.4992 42.0706 58.6078 41.8881 58.8912C41.7056 59.1747 41.7133 59.5259 41.9053 59.6755C42.0973 59.8251 42.4009 59.7166 42.5835 59.4331Z" fill="white"/>
<path d="M66.2892 62.0985C68.9861 62.0985 71.1723 59.5204 71.1723 56.3401C71.1723 53.1599 68.9861 50.5818 66.2892 50.5818C63.5923 50.5818 61.406 53.1599 61.406 56.3401C61.406 59.5204 63.5923 62.0985 66.2892 62.0985Z" fill="url(#paint16_radial_15916_14474)"/>
<path d="M65.3876 54.9382C65.8732 53.6699 65.7057 52.3818 65.0135 52.0611C64.3214 51.7403 63.3667 52.5085 62.8811 53.7768C62.3956 55.0451 62.5631 56.3332 63.2552 56.6539C63.9473 56.9746 64.9021 56.2065 65.3876 54.9382Z" fill="white"/>
<path d="M67.0171 59.8281C67.1996 59.5446 67.1919 59.1935 66.9999 59.0438C66.8078 58.8942 66.5042 59.0027 66.3217 59.2862C66.1392 59.5697 66.1469 59.9208 66.3389 60.0704C66.5309 60.2201 66.8345 60.1116 67.0171 59.8281Z" fill="white"/>
<path d="M51.9068 61.3285C52.9529 61.3285 53.8009 60.7598 53.8009 60.0583C53.8009 59.3568 52.9529 58.7881 51.9068 58.7881C50.8607 58.7881 50.0127 59.3568 50.0127 60.0583C50.0127 60.7598 50.8607 61.3285 51.9068 61.3285Z" fill="url(#paint17_radial_15916_14474)"/>
<path d="M50.1584 65.2338C50.1584 65.2338 50.143 65.2338 50.1363 65.2338C49.9531 65.2217 49.8162 65.0468 49.8273 64.8477C49.8781 63.9709 50.4013 62.334 52.0062 62.334C52.026 62.334 52.0459 62.334 52.0658 62.334C53.9643 62.3826 55.2712 64.0535 55.3264 64.1264C55.4456 64.2794 55.4279 64.5101 55.2866 64.6388C55.1476 64.77 54.9378 64.7505 54.8208 64.5951C54.8098 64.5805 53.6464 63.1015 52.0525 63.0602C52.0371 63.0602 52.0238 63.0602 52.0106 63.0602C50.6132 63.0602 50.494 64.8161 50.4896 64.8914C50.4785 65.0833 50.3328 65.2314 50.1584 65.2314V65.2338Z" fill="black"/>
<path d="M65.9302 28.7797C65.471 28.7797 65.0428 28.464 64.886 27.9588C64.7757 27.6043 62.1729 19.1695 62.3981 12.7044C62.6431 5.67104 68.8023 2.98495 69.065 2.87566C69.6345 2.63522 70.2725 2.94609 70.4911 3.57268C70.7096 4.19928 70.4271 4.90116 69.8575 5.14159C69.6544 5.22903 64.7933 7.38325 64.6035 12.7992C64.3937 18.8101 66.9479 27.0918 66.9722 27.1744C67.1687 27.8083 66.8618 28.5004 66.2856 28.7166C66.1664 28.7603 66.0472 28.7822 65.928 28.7822L65.9302 28.7797Z" fill="url(#paint18_radial_15916_14474)"/>
<path d="M71.0067 11.1718C73.9938 11.1718 76.4153 8.67093 76.4153 5.58591C76.4153 2.5009 73.9938 0 71.0067 0C68.0196 0 65.5981 2.5009 65.5981 5.58591C65.5981 8.67093 68.0196 11.1718 71.0067 11.1718Z" fill="url(#paint19_radial_15916_14474)"/>
<path d="M50.1456 25.2582C49.7482 25.2582 49.3641 25.0202 49.1654 24.6073C49.0661 24.3984 39.1651 3.87626 29.2244 9.3456C28.6791 9.64675 28.0168 9.40146 27.7431 8.80158C27.4693 8.2017 27.6923 7.4731 28.2376 7.17195C33.2355 4.42271 38.8185 6.4555 44.386 13.0469C48.4149 17.8168 51.0154 23.2521 51.1236 23.4804C51.4061 24.0754 51.1964 24.8089 50.6556 25.1197C50.4922 25.2145 50.3178 25.2582 50.1456 25.2582Z" fill="url(#paint20_radial_15916_14474)"/>
<path d="M43.5403 65.7505C43.903 64.4925 42.6191 62.9219 40.6725 62.2425C38.7259 61.5632 36.8538 62.0324 36.4911 63.2904C36.1283 64.5485 37.4123 66.1191 39.3588 66.7984C41.3054 67.4777 43.1775 67.0086 43.5403 65.7505Z" fill="url(#paint21_radial_15916_14474)"/>
<path d="M68.6745 67.3244C70.6976 67.018 72.2049 65.7096 72.0413 64.4021C71.8776 63.0946 70.1049 62.2831 68.0818 62.5895C66.0587 62.896 64.5514 64.2044 64.715 65.5119C64.8787 66.8194 66.6514 67.6309 68.6745 67.3244Z" fill="url(#paint22_radial_15916_14474)"/>
<path d="M70.6846 105.331C68.6801 102.847 68.945 98.6789 70.848 95.7646C72.7509 92.8502 77.1043 93.6201 78.8438 97.6419C80.5834 101.664 73.0092 108.209 70.6846 105.331Z" fill="url(#paint23_radial_15916_14474)"/>
<path d="M38.037 59.0359C38.037 59.0359 35.3393 63.7573 35.3548 67.2812C35.3703 70.8052 36.9641 71.2667 38.2467 71.2667C39.5293 71.2667 41.4808 70.1616 41.3661 66.6595C41.2513 63.1574 38.0348 59.0359 38.0348 59.0359H38.037Z" fill="url(#paint24_radial_15916_14474)"/>
<path d="M36.9442 70.0912C37.3636 70.0912 37.7036 69.2485 37.7036 68.209C37.7036 67.1695 37.3636 66.3268 36.9442 66.3268C36.5248 66.3268 36.1848 67.1695 36.1848 68.209C36.1848 69.2485 36.5248 70.0912 36.9442 70.0912Z" fill="#F9FEFF"/>
<path d="M95.2543 64.5757C95.2499 64.6679 95.2411 64.8355 95.2234 65.0711L95.2543 64.5757Z" stroke="#FF7E4C" stroke-width="0.243431" stroke-miterlimit="10"/>
<path d="M29.0387 14.4954C31.6354 13.5223 32.9597 10.2118 31.9966 7.10107C31.0335 3.99037 28.1476 2.25748 25.5509 3.23056C22.9542 4.20364 21.6299 7.5142 22.593 10.6249C23.5561 13.7356 26.442 15.4685 29.0387 14.4954Z" fill="url(#paint25_radial_15916_14474)"/>
<path d="M30.2661 69.2776C33.6381 63.9991 31.2345 55.748 24.8974 50.8482C18.5603 45.9484 10.6894 46.2553 7.31735 51.5338C3.94527 56.8123 6.34892 65.0634 12.686 69.9632C19.0231 74.863 26.894 74.5561 30.2661 69.2776Z" fill="url(#paint26_radial_15916_14474)"/>
<path d="M27.4684 67.6232C29.9179 63.7889 27.765 57.4807 22.6598 53.5334C17.5546 49.5861 11.4303 49.4945 8.98084 53.3287C6.53135 57.163 8.68424 63.4713 13.7894 67.4186C18.8946 71.3659 25.0189 71.4575 27.4684 67.6232Z" fill="#CCECFF"/>
<path d="M10.1861 61.6684H12.8926C12.8926 61.6684 10.7954 54.5889 20.4977 53.5421C20.4977 53.5421 14.4114 49.0953 10.5503 53.8093C7.67384 57.3236 10.1839 61.6684 10.1839 61.6684H10.1861Z" fill="white"/>
<path d="M37.3986 74.504C36.1447 75.7718 35.4846 77.4646 35.1446 78.7396C32.3035 76.3498 31.915 76.0341 32.5176 74.7299C33.2726 73.093 34.1755 72.0487 35.1733 72.7724C35.3897 72.9303 36.2242 73.5811 37.3986 74.504Z" fill="url(#paint27_radial_15916_14474)"/>
<path d="M33.1257 117.598L40.5255 119.869C41.7287 120.136 42.9782 119.995 44.1085 119.468L63.4844 110.443C64.2946 110.067 64.7648 109.127 64.6213 108.172L64.5529 107.677C64.5529 107.677 48.6627 108.029 48.4839 107.995C48.3051 107.961 37.7087 108.282 37.4658 108.262C37.223 108.243 33.1257 110.98 33.1257 110.98V117.598Z" fill="url(#paint28_linear_15916_14474)"/>
<path d="M38.9615 117.596L40.5642 118.091C41.9241 118.511 43.3745 118.397 44.6659 117.768L64.3024 108.202C64.671 108.022 64.6291 107.434 64.2406 107.32L31.2041 97.5543L38.9638 117.598L38.9615 117.596Z" fill="url(#paint29_linear_15916_14474)"/>
<path d="M37.2053 114.234L42.6647 116.488L53.6849 111.266L26.5427 102.827L37.2053 114.234Z" fill="#333333"/>
<path d="M36.9252 104.889L46.6496 107.81C46.8483 107.871 47.0602 107.847 47.2435 107.747L50.7204 105.855C51.4268 105.472 51.3076 104.325 50.5416 104.126L39.9187 101.341C39.7002 101.282 39.4706 101.324 39.2807 101.455L36.7045 103.208C36.0797 103.633 36.2166 104.675 36.9252 104.889Z" fill="#B3B3B3"/>
<path d="M39.9191 119.742L38.7954 119.388C39.8838 119.679 40.8728 118.579 40.5769 117.372L34.3207 90.5085C34.0359 89.282 33.155 88.3324 32.0358 88.0434C25.9186 86.4648 6.27553 81.3937 2.63744 80.4587C1.30847 80.1187 0.502706 80.1527 0.0280762 80.364C0.145078 79.5431 0.621916 79.0622 1.49833 78.9578L32.1175 86.9238C33.5877 87.2492 34.8372 87.8855 35.3119 89.622C35.3119 89.622 40.5129 111.995 41.3893 116.138C42.268 120.281 39.9191 119.742 39.9191 119.742Z" fill="url(#paint30_linear_15916_14474)"/>
<path d="M38.7957 119.388L33.9986 117.874L32.5483 117.415L7.93152 109.649C7.27808 109.445 6.77033 108.876 6.59372 108.155L0.110056 81.8016C-0.000322619 81.243 -0.0290212 80.7621 0.0283759 80.3638C0.503006 80.1525 1.30877 80.1185 2.63774 80.4585C6.27583 81.3936 25.9189 86.4646 32.0361 88.0432C33.1553 88.3322 34.0362 89.2819 34.321 90.5083L40.5772 117.372C40.8731 118.579 39.8841 119.679 38.7957 119.388Z" fill="url(#paint31_linear_15916_14474)"/>
<g clip-path="url(#clip0_15916_14474)">
<path d="M127.399 75.4319L104.416 69.9977C101.946 69.4127 99.9426 70.9497 99.9426 73.4288V85.1846C99.9426 87.5323 101.741 89.8824 104.028 90.6212V92.9069C104.028 94.253 105.663 95.2992 106.592 94.5456L109.736 91.9896L127.402 96.1669C129.872 96.752 131.875 95.2149 131.875 92.7359V80.9801C131.875 78.501 129.872 76.0169 127.402 75.4319H127.399Z" fill="url(#paint32_linear_15916_14474)"/>
<path d="M114.98 81.9339L97.7964 77.8707C96.6083 77.5906 95.6475 76.3981 95.6475 75.2082C95.6475 74.0182 96.6083 73.2794 97.7964 73.5596L114.98 77.6228C116.166 77.9029 117.129 79.0954 117.129 80.2878C117.129 81.4778 116.168 82.2165 114.98 81.9364V81.9339Z" fill="#F4F4F4"/>
<path d="M114.98 90.0589L97.7964 85.9957C96.6108 85.7155 95.6475 84.5231 95.6475 83.3307C95.6475 82.1407 96.6083 81.402 97.7964 81.6821L114.98 85.7453C116.166 86.0254 117.129 87.2179 117.129 88.4103C117.129 89.6003 116.168 90.339 114.98 90.0589Z" fill="#F4F4F4"/>
</g>
<path d="M101.98 6.03185L107.603 7.25038L106.419 5.31194C105.875 4.42386 104.993 3.77477 104.052 3.56824L99.5604 2.5946L101.309 5.53028C101.462 5.78401 101.712 5.97284 101.98 6.03185Z" fill="url(#paint33_linear_15916_14474)"/>
<path d="M110.531 8.18862L101.78 6.29149C101.386 6.20593 101.015 5.93154 100.792 5.55388L98.8872 2.35561C98.6638 1.98091 98.2934 1.70356 97.8995 1.618L94.2191 0.821385C92.5317 0.455532 91.1648 1.53244 91.1648 3.22599V14.9599C91.1648 16.6534 92.5317 18.3234 94.2191 18.6892L110.528 22.2238C112.215 22.5897 113.582 21.5128 113.582 19.8192V11.915C113.582 10.2215 112.215 8.55152 110.528 8.18567L110.531 8.18862Z" fill="url(#paint34_linear_15916_14474)"/>
<path d="M16.9633 17.3934C19.3586 19.3486 18.913 23.88 15.9679 27.5146C13.0228 31.1492 8.69361 32.5107 6.29829 30.5555C3.90297 28.6004 4.34862 24.0689 7.29369 20.4343C10.2387 16.7997 14.568 15.4382 16.9633 17.3934Z" fill="url(#paint35_linear_15916_14474)"/>
<path d="M22.2724 34.802C22.4299 34.0097 22.5135 33.2194 22.5136 32.4466C22.5133 29.2707 21.1109 27.0045 18.884 25.9718C17.2909 28.9452 14.6339 31.571 11.6306 32.8263C8.62729 34.0816 5.97024 33.6775 4.37718 32.0356C2.15 34.9309 0.747559 38.3688 0.747559 41.5452C0.747559 42.3183 0.831199 43.0387 0.988755 43.6986L22.2724 34.802Z" fill="url(#paint36_linear_15916_14474)"/>
<defs>
<linearGradient id="paint0_linear_15916_14474" x1="122.516" y1="101.103" x2="49.6411" y2="100.127" gradientUnits="userSpaceOnUse">
<stop stop-color="white" stop-opacity="0"/>
<stop offset="0.06" stop-color="#878787" stop-opacity="0.47"/>
<stop offset="0.43"/>
<stop offset="0.92" stop-opacity="0.36"/>
<stop offset="1" stop-opacity="0"/>
</linearGradient>
<radialGradient id="paint1_radial_15916_14474" cx="0" cy="0" r="1" gradientUnits="userSpaceOnUse" gradientTransform="translate(58.0484 96.9565) rotate(18.8777) scale(4.40665 4.88067)">
<stop stop-color="#FFF1BE"/>
<stop offset="0.592992" stop-color="#F5CE61"/>
<stop offset="0.839693" stop-color="#EEBB3A"/>
<stop offset="1" stop-color="#E28210"/>
</radialGradient>
<radialGradient id="paint2_radial_15916_14474" cx="0" cy="0" r="1" gradientUnits="userSpaceOnUse" gradientTransform="translate(46.1316 78.7579) rotate(54.6205) scale(12.0498 11.5754)">
<stop stop-color="#FFF1BE"/>
<stop offset="0.331511" stop-color="#F5CE61"/>
<stop offset="0.373974" stop-color="#EEBB3A"/>
<stop offset="1" stop-color="#E28210"/>
</radialGradient>
<radialGradient id="paint3_radial_15916_14474" cx="0" cy="0" r="1" gradientUnits="userSpaceOnUse" gradientTransform="translate(65.9995 80.4997) rotate(17.1027) scale(20.4022 20.7468)">
<stop stop-color="#FFF1BE"/>
<stop offset="0.592992" stop-color="#F5CE61"/>
<stop offset="0.839693" stop-color="#EEBB3A"/>
<stop offset="1" stop-color="#E28210"/>
</radialGradient>
<linearGradient id="paint4_linear_15916_14474" x1="57.8691" y1="78.7977" x2="84.4356" y2="62.7928" gradientUnits="userSpaceOnUse">
<stop stop-color="#4D4D4D"/>
<stop offset="1"/>
</linearGradient>
<linearGradient id="paint5_linear_15916_14474" x1="65.0302" y1="90.6884" x2="91.5992" y2="74.6813" gradientUnits="userSpaceOnUse">
<stop stop-color="#4D4D4D"/>
<stop offset="1"/>
</linearGradient>
<linearGradient id="paint6_linear_15916_14474" x1="72.1361" y1="102.482" x2="98.7048" y2="86.477" gradientUnits="userSpaceOnUse">
<stop stop-color="#4D4D4D"/>
<stop offset="1"/>
</linearGradient>
<linearGradient id="paint7_linear_15916_14474" x1="63.4236" y1="88.0214" x2="89.991" y2="72.0128" gradientUnits="userSpaceOnUse">
<stop stop-color="#4D4D4D"/>
<stop offset="1"/>
</linearGradient>
<linearGradient id="paint8_linear_15916_14474" x1="75.1713" y1="107.519" x2="101.738" y2="91.5141" gradientUnits="userSpaceOnUse">
<stop stop-color="#4D4D4D"/>
<stop offset="1"/>
</linearGradient>
<linearGradient id="paint9_linear_15916_14474" x1="34.3422" y1="71.3855" x2="30.0155" y2="74.4173" gradientUnits="userSpaceOnUse">
<stop stop-color="white"/>
<stop offset="1"/>
</linearGradient>
<radialGradient id="paint10_radial_15916_14474" cx="0" cy="0" r="1" gradientUnits="userSpaceOnUse" gradientTransform="translate(28.8005 70.3969) scale(1.81463 1.99636)">
<stop stop-color="white"/>
<stop offset="1"/>
</radialGradient>
<radialGradient id="paint11_radial_15916_14474" cx="0" cy="0" r="1" gradientUnits="userSpaceOnUse" gradientTransform="translate(26.1937 68.8278) scale(6.97595 7.67456)">
<stop stop-color="white"/>
<stop offset="1"/>
</radialGradient>
<linearGradient id="paint12_linear_15916_14474" x1="48.6758" y1="72.8961" x2="40.7439" y2="86.6003" gradientUnits="userSpaceOnUse">
<stop stop-color="white"/>
<stop offset="1"/>
</linearGradient>
<radialGradient id="paint13_radial_15916_14474" cx="0" cy="0" r="1" gradientUnits="userSpaceOnUse" gradientTransform="translate(53.391 77.6058) rotate(39.9755) scale(13.8438 13.9532)">
<stop stop-color="#FFF1BE"/>
<stop offset="0.592992" stop-color="#F5CE61"/>
<stop offset="0.839693" stop-color="#EEBB3A"/>
<stop offset="1" stop-color="#E28210"/>
</radialGradient>
<radialGradient id="paint14_radial_15916_14474" cx="0" cy="0" r="1" gradientUnits="userSpaceOnUse" gradientTransform="translate(48.9995 36.9999) rotate(43.9949) scale(40.3113 40.9899)">
<stop stop-color="#FFF1BE"/>
<stop offset="0.592992" stop-color="#F5CE61"/>
<stop offset="0.839693" stop-color="#EEBB3A"/>
<stop offset="1" stop-color="#E28210"/>
</radialGradient>
<radialGradient id="paint15_radial_15916_14474" cx="0" cy="0" r="1" gradientUnits="userSpaceOnUse" gradientTransform="translate(40.2601 53.9977) scale(8.21662 9.03947)">
<stop stop-color="#4D4D4D"/>
<stop offset="1"/>
</radialGradient>
<radialGradient id="paint16_radial_15916_14474" cx="0" cy="0" r="1" gradientUnits="userSpaceOnUse" gradientTransform="translate(64.6114 54.2928) scale(6.01125 6.61323)">
<stop stop-color="#4D4D4D"/>
<stop offset="1"/>
</radialGradient>
<radialGradient id="paint17_radial_15916_14474" cx="0" cy="0" r="1" gradientUnits="userSpaceOnUse" gradientTransform="translate(51.5315 59.5099) rotate(-4.24521) scale(1.56813 0.879)">
<stop stop-color="#FCF29F"/>
<stop offset="0.71" stop-color="#E96447"/>
</radialGradient>
<radialGradient id="paint18_radial_15916_14474" cx="0" cy="0" r="1" gradientUnits="userSpaceOnUse" gradientTransform="translate(66.0005 17.9999) rotate(66.0573) scale(6.97164 4.12471)">
<stop stop-color="#FFF1BE"/>
<stop offset="0.592992" stop-color="#F5CE61"/>
<stop offset="0.839693" stop-color="#EEBB3A"/>
<stop offset="1" stop-color="#E28210"/>
</radialGradient>
<radialGradient id="paint19_radial_15916_14474" cx="0" cy="0" r="1" gradientUnits="userSpaceOnUse" gradientTransform="translate(68.6835 3.7626) rotate(45.3972) scale(7.74338 7.87783)">
<stop stop-color="#FFF1BE"/>
<stop offset="0.592992" stop-color="#F5CE61"/>
<stop offset="0.839693" stop-color="#EEBB3A"/>
<stop offset="1" stop-color="#E28210"/>
</radialGradient>
<radialGradient id="paint20_radial_15916_14474" cx="0" cy="0" r="1" gradientUnits="userSpaceOnUse" gradientTransform="translate(40.5 -5.9998) rotate(98.5308) scale(20.2237 20.0813)">
<stop stop-color="#FFF1BE"/>
<stop offset="0.592992" stop-color="#F5CE61"/>
<stop offset="0.839693" stop-color="#EEBB3A"/>
<stop offset="1" stop-color="#E28210"/>
</radialGradient>
<radialGradient id="paint21_radial_15916_14474" cx="0" cy="0" r="1" gradientUnits="userSpaceOnUse" gradientTransform="translate(42.4836 59.0455) rotate(94.7023) scale(11.9949 13.1961)">
<stop stop-color="#FCD79F" stop-opacity="0"/>
<stop offset="1" stop-color="#E96447"/>
</radialGradient>
<radialGradient id="paint22_radial_15916_14474" cx="0" cy="0" r="1" gradientUnits="userSpaceOnUse" gradientTransform="translate(67.9998 62.9999) rotate(34.992) scale(6.10328 6.71448)">
<stop stop-color="#FCD19F" stop-opacity="0"/>
<stop offset="1" stop-color="#E96447"/>
</radialGradient>
<radialGradient id="paint23_radial_15916_14474" cx="0" cy="0" r="1" gradientUnits="userSpaceOnUse" gradientTransform="translate(72.5541 98.9428) rotate(19.7251) scale(5.1575 5.92796)">
<stop stop-color="#FFF1BE"/>
<stop offset="0.592992" stop-color="#F5CE61"/>
<stop offset="0.839693" stop-color="#EEBB3A"/>
<stop offset="1" stop-color="#E28210"/>
</radialGradient>
<radialGradient id="paint24_radial_15916_14474" cx="0" cy="0" r="1" gradientUnits="userSpaceOnUse" gradientTransform="translate(34.0236 61.546) scale(7.82368 11.1032)">
<stop stop-color="white"/>
<stop offset="0.21" stop-color="#FCFDFE"/>
<stop offset="0.35" stop-color="#F3FAFD"/>
<stop offset="0.47" stop-color="#E3F4FB"/>
<stop offset="0.59" stop-color="#CEEBF8"/>
<stop offset="0.69" stop-color="#B2E0F4"/>
<stop offset="0.79" stop-color="#8FD3EF"/>
<stop offset="0.88" stop-color="#66C3EA"/>
<stop offset="0.97" stop-color="#38B1E4"/>
<stop offset="1" stop-color="#29ABE2"/>
</radialGradient>
<radialGradient id="paint25_radial_15916_14474" cx="0" cy="0" r="1" gradientUnits="userSpaceOnUse" gradientTransform="translate(24.706 7.7813) rotate(30.4321) scale(7.47823 7.97981)">
<stop stop-color="#FFF1BE"/>
<stop offset="0.592992" stop-color="#F5CE61"/>
<stop offset="0.839693" stop-color="#EEBB3A"/>
<stop offset="1" stop-color="#E28210"/>
</radialGradient>
<radialGradient id="paint26_radial_15916_14474" cx="0" cy="0" r="1" gradientUnits="userSpaceOnUse" gradientTransform="translate(12.7108 55.8212) rotate(0.913105) scale(16.1993 17.6461)">
<stop stop-color="white"/>
<stop offset="1"/>
</radialGradient>
<radialGradient id="paint27_radial_15916_14474" cx="0" cy="0" r="1" gradientUnits="userSpaceOnUse" gradientTransform="translate(28.2879 70.2515) scale(22.7756 25.0564)">
<stop stop-color="white"/>
<stop offset="1"/>
</radialGradient>
<linearGradient id="paint28_linear_15916_14474" x1="46.0754" y1="104.33" x2="55.5809" y2="127.936" gradientUnits="userSpaceOnUse">
<stop stop-color="white"/>
<stop offset="1"/>
</linearGradient>
<linearGradient id="paint29_linear_15916_14474" x1="44.1714" y1="91.4851" x2="61.7146" y2="135.051" gradientUnits="userSpaceOnUse">
<stop stop-color="white"/>
<stop offset="1"/>
</linearGradient>
<linearGradient id="paint30_linear_15916_14474" x1="13.4193" y1="72.2061" x2="52.1137" y2="168.298" gradientUnits="userSpaceOnUse">
<stop stop-color="white"/>
<stop offset="1"/>
</linearGradient>
<linearGradient id="paint31_linear_15916_14474" x1="-3.17483" y1="68.2011" x2="162.003" y2="247.366" gradientUnits="userSpaceOnUse">
<stop stop-color="white"/>
<stop offset="1"/>
</linearGradient>
<linearGradient id="paint32_linear_15916_14474" x1="97.4479" y1="61.791" x2="110.938" y2="294.785" gradientUnits="userSpaceOnUse">
<stop stop-color="white"/>
<stop offset="1"/>
</linearGradient>
<linearGradient id="paint33_linear_15916_14474" x1="89.4134" y1="-5.8417" x2="133.152" y2="208.084" gradientUnits="userSpaceOnUse">
<stop stop-color="white"/>
<stop offset="1"/>
</linearGradient>
<linearGradient id="paint34_linear_15916_14474" x1="89.4134" y1="-5.8417" x2="133.152" y2="208.084" gradientUnits="userSpaceOnUse">
<stop stop-color="white"/>
<stop offset="1"/>
</linearGradient>
<linearGradient id="paint35_linear_15916_14474" x1="16.0005" y1="7.00017" x2="114.444" y2="108.208" gradientUnits="userSpaceOnUse">
<stop stop-color="white"/>
<stop offset="1"/>
</linearGradient>
<linearGradient id="paint36_linear_15916_14474" x1="16.0005" y1="7.00017" x2="114.444" y2="108.208" gradientUnits="userSpaceOnUse">
<stop stop-color="white"/>
<stop offset="1"/>
</linearGradient>
<clipPath id="clip0_15916_14474">
<rect width="36.3485" height="26.6625" fill="white" transform="translate(95.6479 69.7501)"/>
</clipPath>
</defs>
</svg>
