<svg width="546" height="611" viewBox="0 0 546 611" fill="none" xmlns="http://www.w3.org/2000/svg">
<g clip-path="url(#clip0_37997_1871)">
<path d="M544.72 302.252C543.08 282.143 534.817 264.882 520.822 252.328C507.646 240.51 490.329 234 472.064 234C458.387 234 444.525 237.711 431.979 244.737C431.357 245.083 430.601 245.599 429.632 246.32C429.703 244.892 429.724 243.797 429.668 242.977C429.54 241.04 429.244 239.28 428.954 237.576C428.848 236.94 428.742 236.304 428.643 235.661C427.95 231.059 425.547 223.468 422.755 214.675C420.359 207.126 416.45 194.791 416.16 190.72C417.1 189.073 419.242 185.624 420.875 182.987C424.409 177.283 426.798 173.395 427.731 171.458C438.404 149.264 443.953 124.871 444.222 98.9577C444.469 75.6956 440.468 51.1258 432.347 25.9269C426.89 8.96981 415.163 0 398.454 0C385.554 0 369.622 5.42147 351.081 16.116C335.128 25.319 321.464 35.9711 314.742 41.4986C313.583 42.4529 311.229 44.6794 307.483 48.2419C304.762 50.8289 300.606 54.7731 298.273 56.8441C296.124 56.4059 292.816 55.6637 290.18 55.07C283.988 53.6775 280.093 52.8152 278.156 52.5748C266.303 51.0975 254.251 50.3553 242.341 50.3553C232.897 50.3553 223.376 50.8289 214.025 51.7549C210.865 52.0659 206.08 53.105 201.019 54.2076C197.181 55.0417 192.148 56.1373 189.469 56.4695C186.394 54.0733 179.029 47.4997 174.823 43.7464C170.568 39.9436 167.889 37.5686 166.603 36.5507C149.483 23.0713 116.721 0.44531 89.5571 0.44531C78.5516 0.44531 69.4404 4.09261 62.478 11.2882C55.3672 18.6394 50.186 40.7423 48.4825 48.0016C45.118 62.3222 42.3896 78.4523 41.9867 86.3548C40.0499 124.538 49.9174 161.414 69.8079 190.543C68.3589 197.986 66.2384 205.168 64.1885 212.144C59.488 228.09 54.6321 244.581 57.7775 264.019C61.34 286.051 76.5936 307.822 98.6329 322.404C100.697 324.391 104.627 326.476 114.311 331.24C115.604 331.876 117.074 332.597 118.474 333.297C117.329 334.555 116.134 335.863 115.131 336.958C110.409 342.111 107.447 345.37 106.14 347.186C104.994 348.784 103.114 352.063 100.138 357.28C98.4986 360.157 96.06 364.44 94.4343 367.077C93.5931 366.978 92.7096 366.858 91.9462 366.759C91.0697 365.55 89.8539 363.811 88.8785 362.411C84.899 356.707 82.3544 353.124 80.5731 351.441C74.1479 345.377 67.129 342.429 59.1346 342.429C57.3322 342.429 55.4449 342.585 53.5152 342.881C50.3981 343.369 47.0052 345.179 43.4993 347.257C39.8237 345.136 36.7914 343.496 34.275 342.959C32.2393 342.528 30.1754 342.309 28.1326 342.309C20.1241 342.309 13.5787 345.73 10.1647 351.689C4.72202 361.203 8.63085 371.424 12.3206 378.174C9.01254 379.22 5.45713 381.213 3.0044 385.129C0.0356654 389.858 -0.755996 395.018 0.700096 400.051C3.6971 410.406 15.7417 418.054 25.3194 422.641C39.4915 429.434 61.0714 436.305 72.6636 439.994C74.1903 440.482 77.2298 441.175 82.0575 442.263C83.7539 442.645 85.9663 443.147 88.0091 443.628C86.97 446.292 86.2066 448.561 85.9804 450.47C81.7889 485.098 106.754 510.127 156.276 520.935C158 521.309 161.28 521.712 166.49 522.32C168.391 522.546 170.801 522.829 172.837 523.091C172.837 529.933 173.339 541.878 180.584 549.915C187.363 557.436 202.659 561.437 211.098 561.437C211.982 561.437 212.83 561.394 213.629 561.317C220.33 560.659 229.844 555.386 239.824 549.569C240.941 548.919 242.206 548.183 243.253 547.59C244.108 548.113 245.09 548.721 245.967 549.265C254.399 554.51 262.422 559.316 267.879 560.482C270.558 561.055 273.336 561.345 276.149 561.345C284.645 561.345 292.922 558.744 299.446 554.029C306.812 548.699 311.406 540.96 312.375 532.223C312.594 530.223 312.389 527.431 312.014 523.472C314.672 523.041 317.98 522.568 320.362 522.221C324.999 521.557 327.911 521.126 329.388 520.786C343.744 517.471 359.068 513.138 373.884 503.963C375.884 502.726 378.217 500.627 380.684 498.408C381.921 497.298 383.744 495.658 384.515 495.107C386.932 494.202 392.686 493.212 397.337 492.414C402.242 491.573 406.872 490.774 410.343 489.784C449.799 478.51 485.268 453.566 510.219 419.531C535.779 384.67 548.021 343.016 544.699 302.238L544.72 302.252ZM385.9 323.069C383.864 330.851 381.101 340.45 378.747 348.041C376.231 344.896 373.106 341.27 369.353 336.993C368.406 335.919 367.381 334.746 366.42 333.636C367.664 333.063 368.929 332.491 370.01 331.996C375.601 329.459 379.121 327.833 380.903 326.766C381.829 326.207 383.264 325.119 385.907 323.062L385.9 323.069Z" fill="#2F0085"/>
<path d="M209.19 575.418C237.951 574.563 359.542 573.601 379.036 588.035C390.494 596.517 365.105 600.631 359.754 601.698C300.634 613.446 193.159 612.626 133.529 602.631C128.447 601.783 94.8723 596.637 108.38 587.597C121.838 578.592 190.324 575.976 209.183 575.418H209.19Z" fill="#EBC6FE"/>
<path d="M383.751 145.63C395.372 165.62 407.148 210.49 411.997 233.901C411.283 235.286 411.184 237.647 411.7 240.983C412.513 249.246 402.009 276.028 394.439 277.591C393.951 277.69 393.442 277.704 392.933 277.682L391.039 276.608C383.087 257.87 359.542 257.905 342.147 258.11L321.535 258.831C306.698 260.018 293.954 253.417 284.497 242.192L270.989 226.917C242.991 199.131 222.09 216.795 202.432 242.256C188.168 261.425 168.129 260.231 146.196 257.283C127.917 256.18 103.899 259.63 94.7027 277.47L92.8296 278.389C92.3631 278.637 91.6351 278.926 91.4089 278.644C86.2772 272.282 79.4138 261.807 77.1943 254.039C76.4521 248.073 75.307 242.538 73.7661 237.428C77.3215 215.332 86.6518 189.193 92.8296 167.521C120.559 87.415 213.883 56.5543 291.487 76.876C329.367 86.793 366.009 109.688 383.765 145.63H383.751Z" fill="#FE80DD"/>
<path d="M330.081 351.123C331.502 350.911 331.799 351.505 330.788 352.537C333.615 355.421 335.389 359.344 336.103 364.285C337.743 368.413 338.089 372.265 337.142 375.841C338.005 381.312 338.704 388.685 338.556 394.198C338.959 397.188 338.132 399.655 337.1 402.532C335.234 407.741 332.039 413.884 329.07 418.584L327.261 419.623C306.72 424.967 287.395 434.121 268.883 444.221C265.002 446.342 243.825 460.698 242.277 460.521C240.828 460.351 221.369 447.013 217.573 444.928C197.683 433.993 176.633 423.624 154.254 418.916C154.48 417.595 155.59 417.1 157.59 417.425L151.526 408.215C148.628 403.755 146.726 399.111 147.193 394.205C146.981 387.9 147.631 379.255 148.607 373.021L147.532 370.929C148.755 364.596 150.671 358.404 152.954 352.374L154.961 351.13C156.615 351.06 158.319 351.038 159.916 351.533C188.812 360.517 211.805 365.882 242.461 365.748C272.961 365.613 296.301 359.98 325.14 351.441C326.738 350.968 328.434 351.024 330.088 351.123H330.081Z" fill="#FE80DD"/>
<path d="M383.751 452.103C384.939 456.944 384.508 459.39 383.751 464.105C375.651 477.733 358.468 484.511 343.956 489.579C321.599 494.789 299.291 500.189 277.025 505.78C255.644 514.898 234.608 524.844 213.926 535.623C209.819 538.026 205.698 539.136 201.556 538.959C202.652 535.651 212.908 522.659 212.145 522.016C208.087 518.588 193.399 537.15 195.901 542.486C178.301 531.672 190.77 501.878 201.542 489.862C212.922 477.167 225.271 473.251 241.811 471.873C245.274 471.505 248.639 470.89 251.911 470.028C271.844 457.079 290.88 445.571 313.774 437.669C336.683 429.766 376.669 418.98 383.744 452.103H383.751Z" fill="#9E23FE"/>
<path d="M223.454 465.518C206.299 471.371 193.978 482.122 185.32 498.005C184.825 498.302 184.323 498.57 183.793 498.754C183.263 498.938 182.775 499.1 182.323 499.03C161.838 496.061 141.114 491.94 122.814 481.797C115.145 477.549 105.927 471.986 101.997 464.105C101.17 458.86 101.213 457.34 101.997 452.102C105.503 439.28 116.311 431.788 129.317 429.872C155.731 425.978 200.693 447.777 221.312 462.295C221.8 462.634 222.167 463.165 222.528 463.709C222.888 464.253 223.192 464.889 223.454 465.518Z" fill="#9E23FE"/>
<path d="M154.954 350.416C155.562 350.65 155.562 350.883 154.954 351.123C152.324 357.661 149.674 366.101 148.599 373.014C144.387 377.305 141.397 388.091 140.124 394.198C129.607 419.072 102.697 426.875 77.8093 419.234C58.6256 413.184 39.3783 407.43 20.0816 401.966C17.9257 400.192 13.4655 398.001 15.1407 394.198L16.5191 393.251C20.8237 392.65 25.0719 392.028 29.2634 391.378C33.1369 392.085 66.8956 406.886 47.8533 392.205C45.0613 390.049 31.702 384.91 31.5677 383.977C31.2072 381.425 36.8266 377.997 39.3218 378.103C41.8169 378.209 53.3243 385.278 52.5468 387.116C52.4478 387.356 48.0583 388.84 51.1189 391.06C58.6468 396.524 70.2955 379.164 60.0181 370.165C55.7912 366.462 53.501 375.234 47.6201 371.961C41.8735 368.766 50.3344 362.164 53.2748 360.312C61.9265 356.488 69.4756 360.814 74.4588 368.08C80.4104 374.202 81.499 382.613 89.9952 385.03L91.2816 383.906C99.5375 385.596 108.514 387.335 116.869 385.702L118.94 384.323C119.803 379.998 112.883 378.831 109.758 377.262L109.023 375.891C117.194 364.998 125.366 354.099 133.544 343.2L135.184 343.369L137.905 342.959C140.697 343.723 153.095 347.886 154.148 349.137C154.473 349.526 154.728 349.971 154.961 350.43L154.954 350.416Z" fill="#9E23FE"/>
<path d="M374.57 377.248C371.41 378.994 365.685 379.743 366.095 384.309L368.173 385.751C376.93 386.72 385.716 386.084 394.538 383.843L395.754 385.016C403.296 383.221 404.229 377.446 408.463 371.6C415.255 360.517 430.771 351.597 438.828 366.66C441.168 378.365 426.904 368.716 426.105 369.105C424.642 369.819 421.327 377.863 421.228 379.835C420.663 390.819 435.245 394.233 435.33 389.611C435.372 387.518 432.545 387.299 432.474 387.123C431.873 385.716 445.084 377.997 447.021 377.955C449.325 377.905 454.443 382.062 453.715 384.564C453.396 385.674 437.033 390.657 433.555 395.626C427.491 404.292 447.537 393.887 450.117 393.117C454.527 391.795 474.856 387.2 469.201 397.725C462.833 402.433 456.669 404.85 449.163 407.466C432.792 413.17 412.52 419.673 395.436 421.92C375.637 424.522 354.736 413.276 345.632 395.612C343.893 388.013 341.44 380.259 337.87 373.36L337.164 375.841C335.948 368.158 333.644 359.796 330.809 352.537L330.795 350.685C336.195 347.229 341.984 344.514 348.176 342.542L349.88 343.362L351.343 343.101C359.351 353.936 367.317 364.822 375.234 375.75L374.591 377.262L374.57 377.248Z" fill="#9E23FE"/>
<path d="M167.67 69.3694C158.481 73.5044 149.589 78.5088 141.177 84.0575C131.444 72.847 119.894 59.2403 106.259 52.7445C97.5442 48.5953 85.8318 43.7747 79.3925 53.1262L79.5551 55.4658C63.8066 88.7792 69.0302 133.232 82.9196 166.108C79.7106 175.989 82.3753 182.831 74.7839 169.649C52.5891 131.119 52.4477 75.1725 67.3833 34.0556C69.8855 25.0151 74.8475 20.8942 84.1212 20.2369C110.515 18.3637 149.264 48.8003 166.079 65.9907C166.482 66.4077 166.765 66.9449 167.034 67.5104C167.302 68.0759 167.5 68.7261 167.663 69.3694H167.67Z" fill="#9E23FE"/>
<path d="M419.058 34.0627C433.831 75.2008 433.279 125.464 414.011 164.955C413.177 166.666 407.621 177.65 407.042 178.117C405.706 179.184 405.889 177.763 405.614 177.092C404.532 174.413 403.741 169.31 402.815 166.115C404.271 164.991 405.501 163.669 406.518 162.142C418.019 128.892 421.963 89.3518 408.922 55.8828L409.798 54.4268C409.021 52.8929 408.865 50.8713 407.013 49.2739C395.322 39.2155 368.201 60.0391 359.726 68.3091C357.131 70.8467 346.932 84.5877 345.886 84.835C344.401 85.1885 322.235 72.5289 318.771 70.7831C319.174 69.4754 319.662 68.1395 320.588 67.1075C333.721 52.4335 355.485 35.7874 373.693 27.5032C388.374 20.8235 413.396 12.1647 419.044 34.0627H419.058Z" fill="#9E23FE"/>
<path d="M505.208 356.771C505.822 357.004 505.822 357.244 505.208 357.478C505.314 358.121 505.398 358.764 505.384 359.407C505.37 360.051 505.342 360.637 505.123 361.146C502.006 368.413 490.046 393.067 484.419 396.262C483.854 396.58 483.246 396.813 482.617 397.018C480.786 397.527 479.613 396.347 479.083 393.484C478.793 388.607 474.297 384.903 469.901 383.595L464.317 381.744L464.253 380.061C469.668 372.102 477.358 356.227 464.748 350.261C452.647 344.543 444.667 354.735 441.415 354.488C440.312 354.403 435.746 350.48 432.792 349.738C424.656 347.688 416.958 349.137 410.59 354.643C408.561 356.417 404.659 355.188 404.235 352.523C403.705 352.339 402.935 351.964 402.998 351.576C404.575 342.669 407.027 330.328 409.671 321.839C409.94 320.05 410.243 318.778 411.996 317.916C411.014 316.969 411.438 316.559 412.703 317.209C413.198 316.446 413.813 315.746 414.661 315.371C418.217 313.823 429.201 314.311 433.498 314.714C453.431 316.601 473.576 325.861 489.169 338.259C493.354 341.588 502.79 349.71 505.01 354.12C505.42 354.933 505.356 355.873 505.215 356.743L505.208 356.771Z" fill="#FE80DD"/>
<path d="M325.14 342.648C328.434 341.885 331.982 348.996 330.081 351.123C275.223 371.954 209.663 373.042 154.954 351.123C155.039 350.918 154.869 350.614 154.954 350.416C153.448 347.836 156.862 341.772 159.895 341.941C217.297 356.269 267.617 356.87 325.133 342.648H325.14Z" fill="#EC45CE"/>
<path d="M520.744 276.976C522.949 280.644 523.536 282.206 524.978 286.157C523.041 288.08 523.734 285.557 524.285 286.398C525.077 287.614 521.522 311.681 520.85 315.18L519.338 315.817L516.602 314.7C497.411 292.54 467.894 280.453 438.708 281.733L436.015 280.51C437.598 274.113 446.215 268.649 452.117 265.496C473.782 253.947 505.363 256.456 520.751 276.976H520.744Z" fill="#FE80DD"/>
<path d="M383.751 464.105C376.789 507.483 304.705 506.367 271.632 517.577C257.495 522.37 217.474 547.166 208.37 546.664C201.74 546.296 199.57 544.981 201.563 538.959C228.197 529.798 253.205 511.654 279.98 503.327C314.912 492.463 356.495 493.743 383.751 464.105Z" fill="#8500F6"/>
<path d="M383.751 145.63C322.362 40.0637 135.452 49.083 93.5152 168.228L92.8225 167.521C110.239 115.47 147.285 79.35 202.135 69.5814C272.466 57.0562 352.537 75.3492 383.758 145.63H383.751Z" fill="#E8BAFE"/>
<path d="M402.108 68.6625C410.286 94.7167 406.483 122.39 395.739 147.037C387.717 130.561 377.828 115.335 365.387 101.849L365.204 99.4313C371.912 88.0512 379.107 78.4311 390.855 71.9847C393.612 70.472 399.337 68.1536 402.108 68.6555V68.6625Z" fill="#FE80DD"/>
<path d="M85.0472 67.9557C86.1994 67.8002 87.4575 68.3374 88.8076 69.5673C98.3712 72.6138 105.871 78.8057 112.685 86.3689C115.081 89.0266 120.269 94.8651 121.584 97.7632C121.966 98.6043 121.916 99.5444 121.768 100.435C116.396 106.061 111.391 112.006 106.783 118.29L90.0022 147.044C79.76 122.192 76.2329 93.8826 85.0472 67.9557Z" fill="#FE80DD"/>
<path d="M482.61 397.025L484.992 397.923C488.477 403.048 491.141 408.667 493.651 414.315L493.205 416.796C482.992 429.929 471.47 440.44 457.899 449.982L456.224 447.946C455.347 441.45 453.311 435.195 450.512 429.279L450.83 426.677C448.526 426.734 447.211 423.398 448.71 421.737C459.008 417.128 479.889 407.204 479.076 393.491C480.546 394.325 481.62 395.711 482.61 397.025Z" fill="#8500F6"/>
<path d="M520.744 276.976C497.51 252.985 456.881 254.781 436.008 280.51C436.404 282.362 435.923 282.581 434.594 281.217C429.449 283.408 421.723 286.044 416.16 286.836C415.199 286.97 414.259 286.553 413.41 286.157C435.605 245.132 494.966 234.162 520.744 276.976Z" fill="#FEADF7"/>
<path d="M457.892 449.982C445.183 458.916 432.382 465.964 417.644 471.166L416.28 468.911C416.414 461.991 416.245 455.015 414.704 448.229L415.531 445.741L415.432 444.193C426.763 438.079 438.093 431.958 449.431 425.836L450.838 426.677C454.647 434.439 456.959 441.267 457.899 449.982H457.892Z" fill="#EC45CE"/>
<path d="M185.319 498.005C184.28 499.906 181.616 509.053 180.032 509.371C176.972 509.993 158.516 505.78 154.247 504.72C132.448 499.284 105.984 489.296 101.997 464.112C123.294 486.787 155.477 494.152 185.319 498.005Z" fill="#8500F6"/>
<path d="M345.617 395.612C349.674 399.273 352.403 403.91 356.545 407.635C364.815 415.071 376.428 420.344 387.611 421.058C400.553 421.892 447.077 407.522 460.196 401.797C463.773 400.235 466.077 396.255 469.194 397.732C462.981 409.296 417.248 424.09 403.826 427.342C400.27 428.204 387.512 431.449 384.819 431.003C384.274 430.911 378.613 424.868 376.626 423.574C371.982 420.542 366.716 418.782 361.295 417.722C358.623 417.199 348.897 417.262 348.445 416.803C347.695 416.039 346.494 399.415 345.624 395.612H345.617Z" fill="#8500F6"/>
<path d="M419.058 34.0627C409.395 7.16029 368.724 30.3376 353.873 40.5515C341.143 49.3022 329.939 60.1946 318.785 70.783C317.753 70.26 310.275 67.3902 310.317 66.9025C310.579 63.5591 349.519 33.9354 355.138 30.5143C373.749 19.1907 412.336 0.685631 419.058 34.0556V34.0627Z" fill="#D098FE"/>
<path d="M514.389 381.489C513.598 388.006 497.913 410.745 493.205 416.796C490.286 410.173 486.978 402.814 482.61 397.025C492.223 385.108 499.072 371.417 505.208 357.478C505.561 357.407 505.921 357.358 506.275 357.372C508.501 357.457 518.517 377.411 514.389 381.489Z" fill="#EC45CE"/>
<path d="M67.3904 34.0627C74.791 0.318086 114.077 19.7279 132.724 31.2212C137.997 34.4726 176.908 63.3754 176.838 66.1957C176.823 66.6834 168.872 68.8251 167.663 69.3694C153.314 56.1514 138.393 42.2691 121.068 32.9883C106.641 25.2625 75.6816 11.2246 67.3833 34.0627H67.3904Z" fill="#D098FE"/>
<path d="M140.124 394.198C139.248 398.418 138.541 402.991 138.025 407.282C137.82 408.964 138.35 416.464 138.011 416.803C137.7 417.114 130.964 416.669 129.281 416.902C119.379 418.273 114.975 420.104 106.705 425.398C105.03 426.465 101.983 430.501 100.859 430.742C92.7377 432.438 28.0476 408.547 20.0815 401.973C57.6572 405.091 101.057 440.857 132.717 404.101C135.36 401.033 136.767 396.354 140.124 394.205V394.198Z" fill="#8500F6"/>
<path d="M365.387 101.856C363.613 99.9332 353.364 91.6419 353.364 90.207C353.371 85.0966 376.81 64.8244 382.118 61.7496C395.88 53.7835 397.308 53.3877 402.101 68.6696C398.255 71.1789 393.845 71.8221 389.625 74.2042C378.831 80.3042 371.629 91.5288 365.38 101.863L365.387 101.856Z" fill="#EC45CE"/>
<path d="M121.768 100.442C114.211 89.9102 107.129 80.5021 95.6497 73.9497C91.9671 71.8433 86.7223 71.4404 85.0471 67.9628C89.9809 53.4725 91.3733 54.5752 104.33 61.7496C109.355 64.5346 133.826 85.0895 133.628 89.5143C133.593 90.3201 123.351 98.7952 121.768 100.449V100.442Z" fill="#EC45CE"/>
<path d="M383.751 452.102C373.389 409.897 302.938 441.924 280.185 454.103C273.618 457.616 255.58 470.558 250.801 472.028C246.631 473.315 244.199 471.675 241.817 471.873C260.421 460.259 279.075 448.109 299.248 439.266C325.663 427.695 375.347 410.378 383.751 452.095V452.102Z" fill="#D098FE"/>
<path d="M409.169 53.1262C422.952 80.3395 419.595 129.43 409.515 157.633C408.314 160.99 406.518 163.224 402.814 166.115C401.995 163.287 399.132 159.039 399.422 156.035C399.733 152.777 407.416 136.767 408.971 130.956C415.806 105.418 415.389 76.0844 402.115 52.7728L409.169 53.1332V53.1262Z" fill="#8500F6"/>
<path d="M528.512 330.646C526.603 347.865 521.825 365.861 514.389 381.489C515.266 374.286 509.236 363.323 505.207 357.478C505.292 357.28 505.123 356.969 505.207 356.771C506.494 349.971 508.713 343.291 511.866 336.725C513.859 329.734 516.58 323.238 520.037 317.23C524.787 319.322 527.904 325.514 528.512 330.646Z" fill="#8500F6"/>
<path d="M396.199 289.43L394.552 279.768L392.933 279.096L389.71 280.46C378.118 292.434 363.613 301.072 348.119 307.009L346.621 308.48C346.911 307.85 346.289 307.419 344.91 307.341C343.85 307.341 342.875 308.041 341.984 309.434C332.208 313.378 321.782 316.976 311.081 317.888L309.604 319.344C307.518 319.591 307.144 320.354 308.19 322.171C307.108 321.521 305.949 321.146 304.698 321.068C263.291 329.487 221.524 328.533 179.658 321.047L176.852 321.464C178.089 319.725 177.559 318.7 175.438 318.637C164.574 317.004 151.929 313.696 142.344 308.345L140.838 308.755C140.605 308.861 140.464 308.967 140.414 309.059L138.47 307.235C122.312 301.927 107.235 293.106 95.8054 280.397L92.8226 279.096L91.3524 279.704C90.6738 283.358 89.9033 287.034 88.1362 290.335L88.5886 291.805C101.63 307.518 119.244 317.513 138.018 324.991C154.664 331.621 172.399 336.393 190.275 338.407C193.137 340.033 204.468 341.319 208.384 341.835C238.375 345.772 265.857 344.09 295.488 339.114C314.276 335.954 330.731 332.116 348.452 324.991C368.102 317.089 385.342 307.2 398.588 290.391C398.135 289.02 397.393 288.907 396.206 289.423L396.199 289.43Z" fill="#E8BAFE"/>
<path d="M415.524 445.748C417.821 454.032 417.842 462.613 417.644 471.166C414.287 472.354 389.795 479.952 388.699 478.927C387.992 478.263 393.287 464.451 393.534 460.118C393.718 456.881 393.499 451.707 392.933 448.561L394.177 447.444C400.532 448.646 407.961 447.932 413.219 443.931L414.824 444.32C416.662 443.974 416.86 444.363 415.531 445.734L415.524 445.748Z" fill="#8500F6"/>
<path d="M101.997 452.103C108.465 408.992 164.835 429.568 189.815 440.906C192.36 442.065 232.261 462.521 230.522 464.098C230.253 464.338 224.945 465.009 223.461 465.518C209.903 455.813 193.794 447.261 178.251 441.168C156.381 432.601 124.962 421.829 107.291 443.62L102.004 452.103H101.997Z" fill="#D098FE"/>
<path d="M297.601 531.544C297.29 533.573 295.509 537.729 294.06 539.305C288.526 545.306 289.784 540.316 288.575 537.743C287.289 534.994 279.549 522.928 275.711 526.257C272.862 528.731 296.463 545.95 275.958 546.685C271.915 546.826 252.18 538.111 252.392 535.093C252.477 533.856 272.685 526.158 275.152 525.352C276.778 524.822 297.594 518.722 297.594 520.963C297.594 524.087 298.033 528.703 297.594 531.558L297.601 531.544Z" fill="#8500F6"/>
<path d="M79.3997 53.1262L85.0474 52.7657C70.9247 76.7134 70.437 108.684 78.3465 135.028C79.6117 139.226 86.8145 153.837 86.977 155.279C87.2032 157.272 83.6902 163.761 82.9339 166.108C80.8911 165.627 80.778 164.779 79.9793 163.054C67.9489 137.007 62.6405 77.498 79.3997 53.1262Z" fill="#8500F6"/>
<path d="M434.594 281.217L433.612 284.503C425.921 293.572 419.468 303.694 415.114 314.792L412.703 317.23C412.491 317.28 412.216 317.88 411.996 317.937C410.251 320.588 404.221 323.153 401.401 321.471C405.069 307.744 406.427 299.064 413.403 286.165C420.528 284.122 427.102 282.1 434.587 281.224L434.594 281.217Z" fill="#D098FE"/>
<path d="M411.996 233.901C422.139 269.349 395.4 294.689 395.195 294.442C394.806 293.968 393.774 282.015 392.926 279.096C391.024 278.941 391.109 278.234 392.926 277.682C405.14 266.896 409.989 252.307 410.575 236.332C410.625 234.982 409.862 233.505 411.989 233.901H411.996Z" fill="#EC45CE"/>
<path d="M92.8152 278.389C93.4514 278.559 93.4372 278.799 92.8152 279.096C92.8364 280.644 90.5462 290.886 88.5812 291.805C74.8827 275.3 70.6275 256.951 74.0627 235.59C74.9745 239.817 76.5861 250.808 80.9191 260.28C82.6084 263.97 92.6597 277.315 92.8223 278.389H92.8152Z" fill="#DD5EE0"/>
<path d="M448.717 421.737C449.459 423.292 450.088 425.165 450.837 426.677L415.531 445.741C415.439 445.416 415.008 444.886 414.824 444.327C412.23 443.175 409.452 437.831 410.59 435.145C422.5 431.781 437.457 426.762 448.724 421.73L448.717 421.737Z" fill="#FE80DD"/>
<path d="M411.997 317.937L404.229 352.537C401.627 353.979 396.432 353.244 394.34 351.123C397.068 341.376 398.779 331.268 401.401 321.464C405.084 320.581 408.307 318.912 411.997 317.93V317.937Z" fill="#FDADF7"/>
<path d="M404.228 352.537C405.981 353.01 408.356 354.65 410.583 354.657C407.134 357.633 398.856 372.159 397.874 372.668C397.372 372.929 386.989 374.103 386.579 373.721C385.702 372.908 393.499 354.156 394.34 351.13C397.598 351.215 401.097 351.696 404.228 352.544V352.537Z" fill="#D098FE"/>
<path d="M519.33 315.817L523.579 285.458L524.985 286.157C530.689 301.715 530.322 314.367 528.519 330.646C526.017 325.896 523.275 321.521 520.044 317.23C518.122 317.548 518.108 317.287 519.338 315.817H519.33Z" fill="#EC45CE"/>
<path d="M410.583 435.152C411.961 438.157 413.778 441.196 414.817 444.334C410.534 449.098 399.005 450.505 392.926 448.568C392.665 447.14 389.01 439.697 389.399 439.394C390.247 438.729 407.226 436.1 410.583 435.152Z" fill="#9E23FE"/>
<path d="M159.902 341.941C157.767 344.366 156.212 348.183 154.961 351.123C148.649 348.805 141.298 345.97 135.191 343.355C133.749 344.938 131.522 343.093 131.656 341.234C133.021 339.835 136.018 335.078 137.622 334.922C139.227 334.767 156.311 341.051 159.902 341.941Z" fill="#8500F6"/>
<path d="M353.386 341.941C352.947 344.125 351.675 344.641 349.851 343.355C343.758 345.977 335.163 348.402 330.788 352.537C330.59 352.021 330.286 351.597 330.081 351.123C328.773 348.084 327.96 344.79 325.14 342.648C328.71 341.765 345.914 335.481 347.42 335.629C348.925 335.778 352.05 340.542 353.386 341.941Z" fill="#8500F6"/>
<path d="M135.184 343.355L109.766 377.248C109.101 376.916 107.094 376.93 106.924 376.131C105.92 371.374 127.338 345.666 131.656 341.235C133.035 341.878 134.123 342.783 135.191 343.355H135.184Z" fill="#8500F6"/>
<path d="M353.386 341.941C357.598 346.366 377.574 371.035 377.291 375.622C377.157 377.792 375.255 376.866 374.57 377.248L349.851 343.355C351.011 342.86 352.191 342.351 353.386 341.941Z" fill="#D098FE"/>
<path d="M37.7385 364.539C37.4487 371.869 37.0104 369.204 31.1507 372.427C30.1046 373 27.7508 375.82 27.4963 375.82C26.0615 375.82 22.817 367.826 22.9089 365.946C21.8275 356.516 35.8653 358.439 37.7385 364.532V364.539Z" fill="#9E23FE"/>
<path d="M147.186 394.198C147.235 395.605 147.094 390.105 147.143 391.505L147.73 395.195C150.423 403.726 159.697 419.199 160.312 420.33C160.312 420.33 154.523 418.923 154.24 418.909C153.251 418.86 146.076 417.792 145.807 417.46C145.072 416.555 147.15 397.011 147.179 394.191L147.186 394.198Z" fill="#DD5EE0"/>
<path d="M327.26 419.623C329.367 413.834 333.233 409.303 335.347 403.345C336.336 400.546 338.52 395.605 338.556 394.198C338.888 397.025 340.648 416.548 339.92 417.46C339.517 417.962 329.324 419.079 327.253 419.623H327.26Z" fill="#DE5FE0"/>
<path d="M461.426 370.187C457.891 377.022 457.192 373.452 452.032 370.752C448.335 368.815 446.667 371.551 446.596 366.652C451.014 357.379 468.119 355.265 461.426 370.187Z" fill="#9E23FE"/>
<path d="M438.828 366.66C428.622 353.703 417.043 362.404 408.462 371.6C412.371 366.207 415.601 357.98 423.695 356.82C430.162 355.894 437.499 360.036 438.828 366.66Z" fill="#D098FE"/>
<path d="M366.094 384.316C372.802 387.455 390.968 380.394 396.107 382.196C397.012 382.514 395.782 384.394 395.754 385.023C391.046 386.147 366.681 390.876 366.094 384.316Z" fill="#D098FE"/>
<path d="M118.94 384.316C117.675 390.678 94.7096 386.366 89.9879 385.023C90.3555 384.203 88.8994 382.415 89.6345 382.196C95.6568 380.401 111.596 387.561 118.94 384.316Z" fill="#D098FE"/>
<path d="M461.426 370.187C466.07 355.887 453.262 360.411 446.597 366.652C446.42 354.311 470.686 352.268 461.426 370.187Z" fill="#D098FE"/>
<path d="M74.4516 368.073C68.2455 361.683 62.3151 359.245 53.2676 360.305C64.0398 353.505 68.3798 358.46 74.4516 368.073Z" fill="#D098FE"/>
<path d="M37.7384 364.539C33.7943 360.941 23.2906 357.916 22.9089 365.953C20.8308 356.248 32.7764 354.346 37.4345 360.948C39.35 363.663 37.7808 363.479 37.7384 364.539Z" fill="#D098FE"/>
<path d="M29.2633 391.378L27.5386 393.498L15.1406 394.198C17.3389 389.215 25.1636 390.629 29.2633 391.371V391.378Z" fill="#D098FE"/>
<path d="M469.901 383.61C467.78 382.981 464.402 382.966 462.133 382.896C462.691 381.857 463.575 381.072 464.253 380.082L469.901 383.617V383.61Z" fill="#6E1CF4"/>
<path d="M188.819 238.121C186.26 239.753 180.068 230.169 177.919 228.239C164.362 216.06 145.553 214.251 132.342 227.885C130.031 230.275 122.927 244.065 123.238 230.14C123.902 200.425 179.319 196.021 188.338 227.709C188.903 229.688 190.6 236.99 188.819 238.121Z" fill="#2F0085"/>
<path d="M361.747 235.201C358.284 237.612 355.866 229.865 354.064 227.921C341.786 214.625 322.821 215.968 309.589 227.186C306.889 229.476 297.517 244.447 296.88 234.282C295.241 208.073 339.609 195.873 356.92 215.883C359.641 219.029 365.67 232.466 361.74 235.201H361.747Z" fill="#2F0085"/>
<path d="M519.33 315.817C519.627 316.198 519.74 316.834 520.037 317.23C515.888 330.823 510.869 343.779 505.208 356.778C486.349 330.83 444.942 310.077 412.703 317.23C417.418 303.828 425.207 291.784 434.594 281.217C434.997 281.167 435.619 280.545 436.008 280.51C466.43 277.852 500.465 291.862 519.33 315.817Z" fill="#9E23FE"/>
<path d="M392.926 277.682C382.988 247.932 335.198 259.022 313.463 257.226C285.217 254.894 278.177 221.368 253.487 213.395C215.155 201.026 205.967 254.053 176.47 257.184C163.054 258.605 148.097 254.809 134.095 255.763C119.075 256.788 98.3146 262.832 92.8083 278.389C92.8437 278.615 92.8083 278.863 92.8083 279.096C105.998 294.979 124.553 304.118 143.468 311.406C197.11 332.067 258.442 333.678 313.922 319.704C330.356 315.562 346.557 310.049 361.676 302.337C368.78 298.718 375.361 294.548 381.744 289.798C383.673 288.363 393.809 282.185 392.919 279.089C392.806 278.693 393.046 278.05 392.919 277.675L392.926 277.682Z" fill="#FFFEFF"/>
<path d="M246.787 265.709C245.889 266.889 248.08 270.508 248.879 271.674C255.078 280.701 268.204 279.146 276.043 273.427C277.739 272.19 284.709 261.934 284.051 271.483C283.267 282.857 271.844 282.531 268.593 286.454C267.448 287.84 266.246 295.028 265.009 297.7C256.159 316.926 228.585 316.177 220.287 296.725C219.305 294.42 217.99 286.815 217.651 286.299C216.251 284.157 204.751 283.175 202.602 274.162C199.28 260.223 209.557 273.873 213.084 275.682C220.287 279.379 231.024 279.174 236.891 273.109C244.489 265.256 238.806 266.331 234.488 264.161C227.384 260.598 220.704 256.067 222.026 246.935C224.189 231.985 278.262 233.872 260.895 257.566C256.689 263.298 247.288 265.037 246.78 265.701L246.787 265.709Z" fill="#2F0085"/>
<path d="M243.931 291.819C244.193 292.364 242.531 293.275 242.524 293.579C242.503 294.76 247.805 290.985 248.858 290.738C271.392 285.514 251.883 312.735 233.095 302.295C231.583 301.454 224.818 294.109 224.875 292.858C224.924 291.883 242.517 288.843 243.931 291.819Z" fill="#EC45CE"/>
<path d="M236.735 245.415C239.598 245.026 254.343 244.178 253.855 248.363C253.473 251.678 243.945 252.321 241.556 252.165C235.972 251.805 224.853 247.034 236.735 245.415Z" fill="#9E23FE"/>
<path d="M319.605 148.288C330.569 147.687 346.642 156.226 349.413 167.472C353.442 183.8 338.761 168.306 334.506 166.143C320.213 158.87 317.209 165.069 306.006 164.263C293.226 163.344 307.639 148.931 319.598 148.281L319.605 148.288Z" fill="#2F0085"/>
<path d="M177.644 146.874C184.168 146.09 195.385 148.733 196.749 156.396C198.524 166.362 183.991 159.591 177.771 160.425C171.042 161.329 153.074 177.601 154.791 165.733C155.979 157.512 169.776 147.822 177.644 146.874Z" fill="#2F0085"/>
</g>
<defs>
<clipPath id="clip0_37997_1871">
<rect width="545.25" height="610.322" fill="white"/>
</clipPath>
</defs>
</svg>
