<svg width="24" height="24" viewBox="0 0 24 24" fill="none" xmlns="http://www.w3.org/2000/svg">
<g id="Matrix ID">
<path id="Union" fill-rule="evenodd" clip-rule="evenodd" d="M4.5 21H0V3H4.5V5H2V19H4.5V21ZM19.5 5V3H24V21H19.5V19H22V5H19.5ZM15.6544 11.0797V16H17.5V10.8158C17.5 9.94073 17.2539 9.2539 16.7617 8.75527C16.2745 8.25176 15.5904 8 14.7094 8C14.296 8 13.8826 8.07822 13.4691 8.23465C13.0557 8.38619 12.7333 8.59151 12.502 8.8506C11.9705 8.28353 11.1805 8 10.1322 8C9.32013 8 8.65817 8.27864 8.14631 8.83593L7.7698 8.14665H6.5V16H8.34564V10.3538C8.46868 10.1485 8.66555 9.96028 8.93624 9.78918C9.21186 9.61809 9.46532 9.53254 9.69664 9.53254C10.1347 9.53254 10.4743 9.64742 10.7154 9.87718C10.9566 10.102 11.0772 10.4076 11.0772 10.7938V16H12.9228V10.3318C13.0262 10.1216 13.2058 9.93584 13.4617 9.77452C13.7177 9.6132 13.9834 9.53254 14.2591 9.53254C15.1893 9.53254 15.6544 10.0483 15.6544 11.0797Z" fill="#ffffff"/>
</g>
</svg>
