<svg width="24" height="20" viewBox="0 0 24 20" fill="none" xmlns="http://www.w3.org/2000/svg">
<rect x="0.75" y="0.75" width="22.5" height="18.5" rx="3.25" fill="white"/>
<rect x="0.75" y="0.75" width="22.5" height="18.5" rx="3.25" stroke="#99A0A9" stroke-width="1.5"/>
<path d="M7.16667 14.3333V12.6667H8.83333V14.3333H7.16667ZM4.66667 14.3333V7.66667H3V6H6.33333V14.3333H4.66667ZM15.0833 14.3333L17.5833 10.1667L15.0833 6H16.75L18.4167 8.77083L20.0833 6H21.75L19.25 10.1667L21.75 14.3333H20.0833L18.4167 11.5625L16.75 14.3333H15.0833ZM9.66667 14.3333V12.6667H12.5833V11H9.66667V6H14.25V7.66667H11.3333V9.33333H12.5833C13.0417 9.33333 13.434 9.49653 13.7604 9.82292C14.0868 10.1493 14.25 10.5417 14.25 11V12.6667C14.25 13.125 14.0868 13.5174 13.7604 13.8437C13.434 14.1701 13.0417 14.3333 12.5833 14.3333H9.66667Z" fill="#99A0A9"/>
</svg>
