<svg width="24" height="20" viewBox="0 0 24 20" fill="none" xmlns="http://www.w3.org/2000/svg">
<rect x="0.75" y="0.75" width="22.5" height="18.5" rx="3.25" fill="white"/>
<rect x="0.75" y="0.75" width="22.5" height="18.5" rx="3.25" stroke="#99A0A9" stroke-width="1.5"/>
<path d="M6 14.3333V11C6 10.5417 6.16319 10.1493 6.48958 9.82292C6.81597 9.49653 7.20833 9.33333 7.66667 9.33333H9.33333V7.66667H6V6H9.33333C9.79167 6 10.184 6.16319 10.5104 6.48958C10.8368 6.81597 11 7.20833 11 7.66667V9.33333C11 9.79167 10.8368 10.184 10.5104 10.5104C10.184 10.8368 9.79167 11 9.33333 11H7.66667V12.6667H11V14.3333H6ZM11.8333 14.3333L14.3333 10.1667L11.8333 6H13.5L15.1667 8.77083L16.8333 6H18.5L16 10.1667L18.5 14.3333H16.8333L15.1667 11.5625L13.5 14.3333H11.8333Z" fill="#99A0A9"/>
</svg>
