<svg width="48" height="48" viewBox="0 0 48 48" fill="none" xmlns="http://www.w3.org/2000/svg">
<rect width="48" height="48" rx="24" fill="white"/>
<rect width="48" height="48" rx="24" fill="url(#paint0_linear_10823_158737)"/>
<rect width="48" height="48" rx="24" fill="url(#paint1_linear_10823_158737)"/>
<rect width="48" height="48" rx="24" fill="url(#paint2_linear_10823_158737)"/>
<path d="M18.1332 26.1547C19.424 26.1547 19.8921 26.2891 20.364 26.5414C20.8359 26.7938 21.2062 27.1641 21.4586 27.636C21.7109 28.1079 21.8453 28.576 21.8453 29.8668V32.2879C21.8453 33.5787 21.7109 34.0467 21.4586 34.5186C21.2062 34.9905 20.8359 35.3609 20.364 35.6132C19.8921 35.8656 19.424 36 18.1332 36H15.7121C14.4213 36 13.9533 35.8656 13.4814 35.6132C13.0095 35.3609 12.6391 34.9905 12.3868 34.5186C12.1344 34.0467 12 33.5787 12 32.2879V29.8668C12 28.576 12.1344 28.1079 12.3868 27.636C12.6391 27.1641 13.0095 26.7938 13.4814 26.5414C13.9533 26.2891 14.4213 26.1547 15.7121 26.1547H18.1332ZM31.4534 26.1547C32.7442 26.1547 33.2123 26.2891 33.6841 26.5414C34.156 26.7938 34.5264 27.1641 34.7787 27.636C35.0311 28.1079 35.1655 28.576 35.1655 29.8668V32.2879C35.1655 33.5787 35.0311 34.0467 34.7787 34.5186C34.5264 34.9905 34.156 35.3609 33.6841 35.6132C33.2123 35.8656 32.7442 36 31.4534 36H29.0323C27.7415 36 27.2734 35.8656 26.8015 35.6132C26.3296 35.3609 25.9593 34.9905 25.7069 34.5186C25.4546 34.0467 25.3202 33.5787 25.3202 32.2879V29.8668C25.3202 28.576 25.4546 28.1079 25.7069 27.636C25.9593 27.1641 26.3296 26.7938 26.8015 26.5414C27.2734 26.2891 27.7415 26.1547 29.0323 26.1547H31.4534ZM31.0168 12.1164C31.529 12.2716 31.955 12.5076 32.8677 13.4203L34.5797 15.1323C35.4924 16.045 35.7284 16.471 35.8836 16.9832C36.0388 17.4953 36.0388 18.019 35.8836 18.5312C35.7284 19.0433 35.4924 19.4693 34.5797 20.382L32.8677 22.094C31.955 23.0067 31.529 23.2427 31.0168 23.3979C30.5047 23.5531 29.981 23.5531 29.4688 23.3979C28.9567 23.2427 28.5307 23.0067 27.618 22.094L25.906 20.382C24.9933 19.4693 24.7573 19.0433 24.6021 18.5312C24.4469 18.019 24.4469 17.4953 24.6021 16.9832C24.7573 16.471 24.9933 16.045 25.906 15.1323L27.618 13.4203C28.5307 12.5076 28.9567 12.2716 29.4688 12.1164C29.981 11.9612 30.5047 11.9612 31.0168 12.1164ZM18.1332 12.8345C19.424 12.8345 19.8921 12.9689 20.364 13.2213C20.8359 13.4736 21.2062 13.844 21.4586 14.3159C21.7109 14.7877 21.8453 15.2558 21.8453 16.5466V18.9677C21.8453 20.2585 21.7109 20.7266 21.4586 21.1985C21.2062 21.6704 20.8359 22.0407 20.364 22.2931C19.8921 22.5454 19.424 22.6798 18.1332 22.6798H15.7121C14.4213 22.6798 13.9533 22.5454 13.4814 22.2931C13.0095 22.0407 12.6391 21.6704 12.3868 21.1985C12.1344 20.7266 12 20.2585 12 18.9677V16.5466C12 15.2558 12.1344 14.7877 12.3868 14.3159C12.6391 13.844 13.0095 13.4736 13.4814 13.2213C13.9533 12.9689 14.4213 12.8345 15.7121 12.8345H18.1332Z" fill="white"/>
<defs>
<linearGradient id="paint0_linear_10823_158737" x1="48" y1="28" x2="-1.23576e-06" y2="28" gradientUnits="userSpaceOnUse">
<stop offset="0.12998" stop-color="#A033FF"/>
<stop offset="0.610381" stop-color="#0094FF"/>
<stop offset="1" stop-color="#4FB500"/>
</linearGradient>
<linearGradient id="paint1_linear_10823_158737" x1="22" y1="15" x2="7" y2="45" gradientUnits="userSpaceOnUse">
<stop stop-color="#FFD600" stop-opacity="0"/>
<stop offset="0.563347" stop-color="#FFC700"/>
</linearGradient>
<linearGradient id="paint2_linear_10823_158737" x1="26" y1="28" x2="43" y2="46" gradientUnits="userSpaceOnUse">
<stop offset="0.0297327" stop-color="#FF3B30" stop-opacity="0"/>
<stop offset="0.842824" stop-color="#E73B2D"/>
</linearGradient>
</defs>
</svg>
