<svg width="20" height="20" viewBox="0 0 20 20" fill="none" xmlns="http://www.w3.org/2000/svg">
<path d="M2.5 4.99992V17.4999L5 14.9999H10.0625C10.0347 14.861 10.0174 14.7221 10.0104 14.5833C10.0035 14.4444 10 14.3055 10 14.1666C10 14.0277 10.0035 13.8888 10.0104 13.7499C10.0174 13.611 10.0347 13.4721 10.0625 13.3333H4.16667V4.99992H14.1667V9.22909C14.3056 9.20131 14.4444 9.18395 14.5833 9.177C14.7222 9.17006 14.8611 9.16658 15 9.16658C15.1389 9.16658 15.2778 9.17006 15.4167 9.177C15.5556 9.18395 15.6944 9.20131 15.8333 9.22909V4.99992C15.8333 4.54159 15.6701 4.14922 15.3438 3.82284C15.0174 3.49645 14.625 3.33325 14.1667 3.33325H4.16667C3.70833 3.33325 3.31597 3.49645 2.98958 3.82284C2.66319 4.14922 2.5 4.54159 2.5 4.99992Z" fill="#00C853"/>
<path d="M12.5 8.33325H5.83333V6.66659H12.5V8.33325Z" fill="#00C853"/>
<path d="M10 11.6666H5.83333V9.99992H10V11.6666Z" fill="#00C853"/>
<path d="M13.8734 13.5842V13.9314H14.5679V13.5842C14.5679 13.4858 14.5346 13.4033 14.468 13.3368C14.4015 13.2702 14.319 13.237 14.2206 13.237C14.1223 13.237 14.0398 13.2702 13.9733 13.3368C13.9067 13.4033 13.8734 13.4858 13.8734 13.5842Z" fill="#00C853"/>
<path fill-rule="evenodd" clip-rule="evenodd" d="M12.2285 16.3663C12.7522 17.0868 13.4163 17.5483 14.2206 17.7508C15.025 17.5483 15.6891 17.0868 16.2128 16.3663C16.7366 15.6458 16.9984 14.8457 16.9984 13.9661V11.8481L14.2206 10.8064L11.4429 11.8481V13.9661C11.4429 14.8457 11.7047 15.6458 12.2285 16.3663ZM14.9151 15.6675H13.5262C13.4278 15.6675 13.3454 15.6342 13.2788 15.5677C13.2123 15.5011 13.179 15.4187 13.179 15.3203V14.2786C13.179 14.1802 13.2123 14.0978 13.2788 14.0312C13.3454 13.9647 13.4278 13.9314 13.5262 13.9314V13.5842C13.5262 13.3932 13.5942 13.2297 13.7302 13.0937C13.8662 12.9577 14.0297 12.8897 14.2206 12.8897C14.4116 12.8897 14.5751 12.9577 14.7111 13.0937C14.8471 13.2297 14.9151 13.3932 14.9151 13.5842V13.9314C15.0135 13.9314 15.0959 13.9647 15.1625 14.0312C15.229 14.0978 15.2623 14.1802 15.2623 14.2786V15.3203C15.2623 15.4187 15.229 15.5011 15.1625 15.5677C15.0959 15.6342 15.0135 15.6675 14.9151 15.6675Z" fill="#00C853"/>
</svg>
