<svg width="28" height="28" viewBox="0 0 28 28" fill="none" xmlns="http://www.w3.org/2000/svg">
<mask id="mask0_5110_201894" style="mask-type:alpha" maskUnits="userSpaceOnUse" x="0" y="0" width="28" height="28">
<path d="M10.0745 3.00171L18.002 3.002L18.0047 5.00258L10.1223 5.0012C8.45115 5.01573 7.75099 5.16391 7.02973 5.54964C6.38918 5.89221 5.89246 6.38894 5.54989 7.02948C5.14272 7.79082 5.00024 8.52864 5.00024 10.4097V17.5903C5.00024 19.4714 5.14272 20.2092 5.54989 20.9705C5.89246 21.6111 6.38918 22.1078 7.02973 22.4504C7.71092 22.8147 8.37329 22.9671 9.85257 22.9951L10.41 23H17.5905L18.1479 22.9951C19.6272 22.9671 20.2896 22.8147 20.9708 22.4504C21.6113 22.1078 22.108 21.6111 22.4506 20.9705C22.8149 20.2893 22.9673 19.627 22.9954 18.1477L23.0002 17.5903L22.996 10L24.9976 9.99881L25.0002 17.5903C25.0002 19.7733 24.7975 20.823 24.2142 21.9137C23.6853 22.9028 22.903 23.685 21.914 24.214C20.8233 24.7973 19.7735 25 17.5905 25H10.41C8.22695 25 7.17722 24.7973 6.08653 24.214C5.09745 23.685 4.31523 22.9028 3.78626 21.9137C3.23366 20.8804 3.02264 19.8839 3.00195 17.9257V10.0743C3.02264 8.11609 3.23366 7.11957 3.78626 6.08629C4.31523 5.0972 5.09745 4.31499 6.08653 3.78602C7.11981 3.23341 8.11634 3.02239 10.0745 3.00171ZM23.1784 4.82183C23.608 5.2514 23.608 5.94788 23.1784 6.37746L14.2879 15.2679C13.6213 15.9346 12.8291 16.4624 11.9572 16.8209L11.5228 16.9995C11.3185 17.0835 11.0848 16.9859 11.0008 16.7816C10.9607 16.6842 10.9607 16.5749 11.0008 16.4774L11.1794 16.0431C11.5378 15.1711 12.0657 14.3789 12.7323 13.7123L21.6228 4.82183C22.0524 4.39225 22.7488 4.39225 23.1784 4.82183ZM24.0002 9C24.5131 9 24.9357 9.38604 24.9935 9.88338L25.0002 10H23.0002C23.0002 9.44772 23.448 9 24.0002 9ZM18.0002 3C18.5525 3 19.0002 3.44772 19.0002 4C19.0002 4.51284 18.6142 4.93551 18.1169 4.99327L18.0002 5V3ZM24.8002 2C25.463 2 26.0002 2.53726 26.0002 3.2C26.0002 3.86274 25.463 4.4 24.8002 4.4C24.1375 4.4 23.6002 3.86274 23.6002 3.2C23.6002 2.53726 24.1375 2 24.8002 2Z" fill="#ffffff"/>
</mask>
<g mask="url(#mask0_5110_201894)">
<rect width="28" height="28" fill="#ffffff"/>
</g>
</svg>
