<svg width="100" height="100" viewBox="0 0 100 100" fill="none" xmlns="http://www.w3.org/2000/svg">
<rect x="10" y="10" width="80" height="80" rx="16" fill="#818C99" fill-opacity="0.12"/>
<path d="M54.5105 31.9933C55.0505 32.1178 55.5283 32.3157 55.9981 32.6095C56.4679 32.9033 56.8485 33.2118 57.8444 34.2077L63.9739 40.3372C64.9698 41.3331 65.2782 41.7136 65.5721 42.1835C65.8659 42.6533 66.0638 43.1311 66.1882 43.671C66.3127 44.211 66.3637 44.6982 66.3637 46.1066V59.3709C66.3637 61.8023 66.1105 62.684 65.6351 63.5729C65.1598 64.4618 64.4622 65.1594 63.5733 65.6348C62.6844 66.1102 61.8027 66.3633 59.3713 66.3633H42.447C40.0156 66.3633 39.1339 66.1102 38.245 65.6348C37.3561 65.1594 36.6585 64.4618 36.1831 63.5729C35.7078 62.684 35.4546 61.8023 35.4546 59.3709V38.8103C35.4546 36.3789 35.7078 35.4972 36.1831 34.6083C36.6585 33.7194 37.3561 33.0218 38.245 32.5464C39.1339 32.071 40.0156 31.8179 42.447 31.8179H52.0749C53.4833 31.8179 53.9705 31.8689 54.5105 31.9933ZM53.2728 35.3165C52.9715 35.3165 52.7273 35.5607 52.7273 35.862V42.727C52.7273 43.2291 53.1343 43.6361 53.6364 43.6361H60.5014C60.646 43.6361 60.7848 43.5786 60.8871 43.4763C61.1001 43.2633 61.1001 42.918 60.8871 42.7049L53.6585 35.4763C53.5562 35.374 53.4174 35.3165 53.2728 35.3165Z" fill="#99A2AD"/>
</svg>
