<svg width="100" height="100" viewBox="0 0 100 100" fill="none" xmlns="http://www.w3.org/2000/svg">
<path d="M10.5 24.336C10.5 16.6946 16.6946 10.5 24.336 10.5H75.664C83.3054 10.5 89.5 16.6946 89.5 24.336V75.664C89.5 83.3054 83.3054 89.5 75.664 89.5H24.336C16.6946 89.5 10.5 83.3054 10.5 75.664V24.336Z" fill="white" stroke="url(#paint0_linear_10720_157101)"/>
<path d="M51.1412 37.8477C53.4629 37.8477 54.3048 38.0894 55.1536 38.5433C56.0023 38.9972 56.6684 39.6634 57.1224 40.5121C57.5763 41.3609 57.818 42.2028 57.818 44.5244V55.4764C57.818 57.7981 57.5763 58.64 57.1224 59.4887C56.6684 60.3375 56.0023 61.0036 55.1536 61.4576C54.3048 61.9115 53.4629 62.1532 51.1412 62.1532H38.4532C36.1315 62.1532 35.2896 61.9115 34.4408 61.4576C33.5921 61.0036 32.926 60.3375 32.472 59.4887C32.0181 58.64 31.7764 57.7981 31.7764 55.4764V44.5244C31.7764 42.2028 32.0181 41.3609 32.472 40.5121C32.926 39.6634 33.5921 38.9972 34.4408 38.5433C35.2896 38.0894 36.1315 37.8477 38.4532 37.8477H51.1412ZM67.8868 42.877C68.1126 43.1777 68.2347 43.5436 68.2347 43.9196V56.0813C68.2347 57.0402 67.4574 57.8174 66.4986 57.8174C66.1225 57.8174 65.7566 57.6953 65.456 57.4695L61.637 54.6011C61.4187 54.4372 61.2903 54.1801 61.2903 53.9071V46.0938C61.2903 45.8208 61.4187 45.5637 61.637 45.3997L65.456 42.5314C66.2226 41.9556 67.311 42.1103 67.8868 42.877Z" fill="url(#paint1_radial_10720_157101)"/>
<defs>
<linearGradient id="paint0_linear_10720_157101" x1="85.392" y1="11.472" x2="15.056" y2="86.736" gradientUnits="userSpaceOnUse">
<stop stop-color="#BA3CDD"/>
<stop offset="1" stop-color="#1E87FF"/>
</linearGradient>
<radialGradient id="paint1_radial_10720_157101" cx="0" cy="0" r="1" gradientUnits="userSpaceOnUse" gradientTransform="translate(37.8831 62.1525) rotate(-25.6199) scale(39.807 26.1715)">
<stop stop-color="#0099FF"/>
<stop offset="0.6" stop-color="#A033FF"/>
<stop offset="0.9" stop-color="#FF5280"/>
<stop offset="1" stop-color="#FF7061"/>
</radialGradient>
</defs>
</svg>
