<svg width="100" height="100" viewBox="0 0 100 100" fill="none" xmlns="http://www.w3.org/2000/svg">
<path d="M30.2178 10.5L52.7047 10.5L52.706 10.5L52.7074 10.5L52.7127 10.5L52.718 10.5L52.7343 10.5L52.8216 10.5L53.1724 10.5L54.5792 10.5L60.0107 10.5L85.7178 36.2071V74C85.7178 82.5604 78.7782 89.5 70.2178 89.5H30.2178C21.6574 89.5 14.7178 82.5604 14.7178 74V26C14.7178 17.4396 21.6574 10.5 30.2178 10.5Z" fill="#FDFAF5" stroke="#FF9500"/>
<path d="M86.2178 37L59.2178 10V23.9655C59.2178 31.1643 64.859 37 71.8178 37H86.2178Z" fill="#FF9500"/>
<path fill-rule="evenodd" clip-rule="evenodd" d="M42 52V74H46.181V66.0602H51.1833C54.6881 66.0602 57.5294 62.9127 57.5294 59.0301C57.5294 55.1475 54.6881 52 51.1833 52H42ZM46.181 62.7519V55.3083H50.2873C52.1429 55.3083 53.6471 56.9746 53.6471 59.0301C53.6471 61.0856 52.1429 62.7519 50.2873 62.7519H46.181Z" fill="#FF9500"/>
</svg>
