<svg width="100" height="100" viewBox="0 0 100 100" fill="none" xmlns="http://www.w3.org/2000/svg">
<path d="M30.2183 10.5L52.7052 10.5L52.7065 10.5L52.7079 10.5L52.7132 10.5L52.7185 10.5L52.7348 10.5L52.8221 10.5L53.1728 10.5L54.5797 10.5L60.0112 10.5L85.7183 36.2071V74C85.7183 82.5604 78.7787 89.5 70.2183 89.5H30.2183C21.6578 89.5 14.7183 82.5604 14.7183 74V26C14.7183 17.4396 21.6578 10.5 30.2183 10.5Z" fill="#F5FDF7" stroke="#248A3D"/>
<path d="M86.2183 37L59.2183 10V23.9655C59.2183 31.1643 64.8595 37 71.8183 37H86.2183Z" fill="#248A3D"/>
<path fill-rule="evenodd" clip-rule="evenodd" d="M39.398 52H45.9996L50.0269 58.1923L54.1498 52.0242H60.6576L52.9591 62.4512L61.0005 73.9769H55.0044L49.9598 66.7601L47.0748 71.059L49.999 71.0627V74H39.0005L47.0001 62.5183L39.398 52Z" fill="#248A3D"/>
</svg>
