<svg width="180" height="180" viewBox="0 0 180 180" fill="none" xmlns="http://www.w3.org/2000/svg">
<g id="image 8 [Vectorized]" clip-path="url(#clip0_41647_9565)">
<path id="Vector" d="M46.0072 -0.27993C53.7393 -0.894617 60.4821 6.61025 65.4131 11.6029C68.4478 14.6756 70.0956 18.0091 72.7468 21.1373C87.1415 19.722 95.0253 19.4645 108.901 24.8192C116.716 17.9209 126.988 10.4295 137.718 9.67234C145.635 9.11357 148.128 14.1232 149.751 20.6814C152.725 32.9518 151.755 45.8477 146.98 57.5355C145.338 61.4745 141.937 66.4129 140.162 69.9159C139.716 70.7957 141.923 78.4998 142.361 80.0603C146.617 95.2126 133.372 104.933 120.58 109.082C119.613 109.397 113.399 110.974 113.02 111.37C113.136 112.615 114.47 116.947 114.866 118.561C116.025 123.28 116.818 127.83 117.514 132.643C117.726 134.103 117.942 138.928 118.562 139.691C119.527 140.001 120.217 138.818 120.833 138.183C125.519 133.353 125.215 126.281 128.098 120.598C130.229 116.304 133.989 113.041 138.541 111.536C141.187 110.682 144.953 110.459 147.684 111.047C163.344 114.421 163.623 132.19 157.314 143.939C151.426 154.904 141.925 161.21 130.221 164.834C126.709 166.095 121.725 166.389 118.042 166.58C117.185 169.566 116.804 172.256 115.01 174.953C111.062 180.889 101.155 182.886 95.2019 178.944C91.015 176.171 90.5674 171.802 89.6633 167.322C85.9208 167.267 80.8876 167.407 77.2191 166.683C75.4746 169.921 72.6364 175.58 69.4365 177.599C64.8525 180.495 53.274 181.414 49.6052 176.297C49.2264 175.769 48.6624 174.117 48.8208 173.455C51.7321 161.296 51.1376 148.611 53.8252 136.358C50.2379 136.548 48.7737 136.754 45.2701 135.392C39.2633 133.057 34.371 126.633 31.9275 120.852C26.9164 121.088 21.4442 120.605 17.3828 117.245C14.2965 114.692 13.729 109.659 16.3499 106.56C18.7865 103.678 22.6344 103.67 26.1347 103.423C25.1341 101.22 25.0862 100.639 25.4686 98.3152C29.5388 93.3692 33.6149 98.6202 37.3195 100.739C39.9836 102.262 43.4798 103.322 45.7744 105.52C48.2184 107.862 50.19 110.733 52.6369 113.103C55.2478 112.386 57.3937 110.656 59.4878 109.016C57.7007 108.311 55.8726 107.695 54.1095 106.949C44.9536 103.078 37.0087 97.4942 31.9062 88.7912C28.0421 82.2004 26.9676 74.0068 30.4744 67.0445C32.6422 62.7405 34.6003 60.3586 35.8919 55.4729C34.4414 51.7095 32.8098 46.9688 32.1453 42.8578C30.2033 30.8441 31.606 15.1522 38.2601 4.74267C40.0936 1.87436 42.7286 0.291682 46.0072 -0.27993Z" fill="#370785"/>
<path id="Vector_2" d="M37.2769 89.7199C37.2454 89.6918 37.2139 89.6636 37.1826 89.6355C34.3097 86.1191 32.6484 81.4948 32.4258 77.1282C32.0596 69.943 35.5855 66.4837 38.0899 60.4567C41.487 52.2809 43.7733 45.1476 49.9705 38.4169C58.3526 29.3132 70.7963 24.5507 83.033 24.0444C96.0687 23.5049 110.856 27.8913 120.604 36.7729C130.977 46.2246 134.826 60.3578 137.453 73.657C137.953 76.19 139.026 81.9775 139.127 84.4936C139.604 88.5145 138.489 92.1986 135.947 95.3347C132.663 99.3857 128.165 102.377 123.283 104.155C122.803 104.329 122.309 104.45 121.799 104.44C119.612 105.759 116.531 106.54 114.018 107.115C102.795 109.684 91.3343 110.174 79.8765 109.328C77.3288 109.14 74.8137 108.463 72.3096 107.969C70.2767 107.567 68.0345 107.296 66.0608 106.868C55.9501 104.679 43.0472 98.5302 37.2769 89.7199Z" fill="#FC85DD"/>
<path id="Vector_3" d="M37.2771 89.7191C37.6864 88.8751 37.7258 87.5092 37.9537 86.5228C38.9085 82.3892 41.6198 80.1928 45.2165 78.6349C50.751 76.2377 55.3614 79.1969 60.8175 78.7415C63.3513 78.5301 66.613 75.819 68.7011 74.5185C74.1577 70.7378 80.0236 69.7553 86.253 72.3278C91.5951 74.5027 94.5378 79.7257 99.3558 82.5335C102.173 84.1755 105.829 83.2392 108.882 83.6842C116.118 84.7387 123.183 87.9005 125.378 95.3471C125.4 99.0247 124.004 101.597 121.8 104.439C119.612 105.758 116.531 106.539 114.019 107.114C102.796 109.683 91.3345 110.173 79.8767 109.327C77.329 109.139 74.8139 108.463 72.3098 107.968C70.2769 107.567 68.0347 107.295 66.061 106.868C55.9503 104.679 43.0474 98.5294 37.2771 89.7191Z" fill="#FEFEFE"/>
<path id="Vector_4" d="M76.2144 74.308C84.5564 72.9533 93.0368 80.0451 81.9612 84.294C78.9995 85.2054 76.6388 84.8984 74.1986 82.9928C69.6042 79.4049 70.4102 75.1604 76.2144 74.308Z" fill="#370785"/>
<path id="Vector_5" d="M76.0693 76.8443C77.8992 76.6958 81.8332 76.8792 83.3177 78.0046C83.5905 78.5116 83.5626 78.2853 83.4164 78.851C83.027 79.3495 82.3223 79.5831 81.7282 79.8418C80.2733 80.2723 78.7294 80.3039 77.2581 79.9331C76.2449 79.6879 74.7127 79.1298 74.1332 78.1999C74.0722 77.1309 75.2056 77.0204 76.0693 76.8443Z" fill="#9E2BF7"/>
<path id="Vector_6" d="M76.3868 88.9516C79.0949 88.5574 83.8174 90.0812 86.016 91.6963C87.2938 92.6347 89.3934 94.3823 89.6597 95.9913C89.7472 96.5036 89.6252 97.0295 89.321 97.4507C88.6866 98.3338 87.4891 98.7489 86.7436 97.9137C85.4649 96.4809 85.0392 95.4893 83.4237 94.3171C80.3099 92.5471 76.1697 91.4794 72.8919 93.5568C72.0208 94.105 71.6985 94.9533 70.6395 95.194C68.3989 95.7033 68.2682 93.1205 69.3733 91.8712C71.0258 90.0031 73.9589 89.1955 76.3868 88.9516Z" fill="#370785"/>
<path id="Vector_7" d="M139.127 84.4922C139.604 88.5131 138.489 92.1972 135.947 95.3334C132.663 99.3843 128.166 102.376 123.283 104.153C122.803 104.327 122.309 104.449 121.8 104.439C124.004 101.596 125.401 99.0242 125.378 95.3466C127.35 95.1993 133.132 90.2225 134.627 88.7797C135.551 87.888 138.202 84.8264 139.127 84.4922Z" fill="#E853D2"/>
<path id="Vector_8" d="M104.272 61.5684C112.076 61.6574 113.372 77.0193 104.774 78.7013C96.4847 78.9155 95.8959 63.0216 104.272 61.5684Z" fill="#370785"/>
<path id="Vector_9" d="M105.374 65.6809C108.184 65.1873 109.225 69.2524 106.608 70.9286C103.634 70.7366 102.952 67.2621 105.374 65.6809Z" fill="#FEFEFE"/>
<path id="Vector_10" d="M60.9523 57.9002C69.188 57.2451 70.0045 71.8871 62.0028 74.3082C61.0125 74.4768 59.8396 74.2573 58.9906 73.7989C53.9044 71.0523 54.4585 61.0098 59.4753 58.4525C59.8946 58.2388 60.5167 58.0379 60.9523 57.9002Z" fill="#370785"/>
<path id="Vector_11" d="M62.6332 61.3311C65.5447 61.509 66.063 65.4324 63.3987 66.978C60.466 66.8414 59.891 62.9547 62.6332 61.3311Z" fill="#FEFEFE"/>
<path id="Vector_12" d="M99.9537 44.3194C100.254 44.3127 100.559 44.3099 100.858 44.3496C101.536 44.4396 112.859 49.5117 112.991 49.7138C113.142 49.9439 113.189 50.3531 113.131 50.6159C112.972 51.3327 112.233 51.7333 111.649 52.0608C107.327 53.017 94.8249 48.665 99.9537 44.3194Z" fill="#370785"/>
<path id="Vector_13" d="M69.0989 41.5394C74.7431 40.5246 71.935 48.8267 60.5519 47.5029C59.303 47.2261 57.122 46.3743 57.884 44.6582C58.5234 44.0944 67.6733 41.8787 69.0989 41.5394Z" fill="#370785"/>
<path id="Vector_14" d="M67.7231 111.556C70.022 110.464 73.1938 110.965 75.192 112.497C77.2343 113.531 79.1084 116.07 80.8453 117.651C82.5437 119.196 83.7227 119.831 85.4931 121.043C88.3698 122.03 91.4475 122.209 94.0641 120.399C94.5502 120.063 94.7011 119.845 94.7924 119.289C94.4836 118.756 94.5559 118.905 93.952 118.577C93.5108 118.719 93.502 118.685 93.1039 118.733C86.6862 119.508 85.1535 117.106 80.6209 113.128C88.9721 114.049 101.183 113.766 109.386 112.042C109.575 112.775 110.087 114.149 110.346 114.912C112.618 122.571 113.656 131.345 114.789 139.238C116.144 148.671 116.973 165.681 111.335 173.794C107.843 178.062 97.0475 179.304 94.7827 173.055C93.6493 170.193 93.5939 166.184 92.2738 163.598C91.2358 162.466 89.113 163.781 87.6865 163.791C81.9087 163.835 76.271 163.371 70.6613 161.959C69.4706 161.66 67.129 160.886 66.1007 161.755C65.5422 163.139 67.278 163.967 68.2849 164.559C69.9044 165.12 71.5369 165.645 73.1813 166.13C71.9722 168.844 70.5986 171.859 68.3884 173.918L67.9842 174.169C65.4599 176.41 57.8813 177.068 54.7596 175.798C51.6751 174.541 52.3911 172.702 53.2671 170.337C54.4226 165.378 54.4972 157.319 55.1779 151.957C56.2169 143.771 57.3724 135.85 59.1185 127.76C59.5313 125.848 59.8699 121.362 60.3941 119.845L61.2319 119.783C61.6506 121.245 62.2189 123.27 62.9712 124.595C66.3513 130.409 71.4239 135.781 77.272 139.133C82.7529 142.274 88.4121 142.81 94.4534 141.16C96.8478 140.505 104.51 137.181 104.673 134.271L104.504 133.866C101.057 132.848 91.8868 144.407 77.0192 134.961C73.6747 132.836 68.852 127.758 66.8229 124.321C65.4177 121.941 63.9397 118.648 64.7219 115.863C65.1954 114.177 66.1893 112.451 67.7231 111.556Z" fill="#FC85DD"/>
<path id="Vector_15" d="M67.7231 111.556C70.0221 110.464 73.1939 110.965 75.192 112.497C77.2344 113.531 79.1085 116.07 80.8453 117.651C82.5437 119.196 83.7228 119.831 85.4932 121.043C85.2882 121.566 85.3789 122.075 85.4045 122.626C85.6583 128.115 81.6919 132.547 77.0192 134.961C73.6747 132.836 68.8521 127.758 66.823 124.321C65.4178 121.941 63.9398 118.648 64.722 115.863C65.1955 114.177 66.1893 112.451 67.7231 111.556Z" fill="#9E2BF7"/>
<path id="Vector_16" d="M80.6206 113.128C88.9718 114.049 101.183 113.766 109.386 112.042C109.575 112.775 110.087 114.149 110.346 114.912C107.182 115.912 103.944 116.661 100.663 117.152C98.6939 117.439 96.6198 117.636 94.6668 118.007C94.3101 118.075 94.1295 118.28 93.9517 118.577C93.5105 118.719 93.5017 118.685 93.1036 118.733C86.6859 119.508 85.1532 117.106 80.6206 113.128Z" fill="#E853D2"/>
<path id="Vector_17" d="M94.7822 173.055C99.5352 169.192 107.071 169.288 111.335 173.794C107.843 178.062 97.047 179.304 94.7822 173.055Z" fill="#9E2BF7"/>
<path id="Vector_18" d="M53.2671 170.336C54.1057 170.605 56.6669 169.686 57.8698 169.606C61.0459 169.398 66.3138 171.298 67.9842 174.168C65.4599 176.409 57.8813 177.067 54.7596 175.797C51.6751 174.54 52.3911 172.701 53.2671 170.336Z" fill="#9E2BF7"/>
<path id="Vector_19" d="M68.2848 164.559C69.9044 165.12 71.5369 165.645 73.1813 166.13C71.9721 168.844 70.5986 171.859 68.3884 173.918C67.6652 172.434 68.0172 166.306 68.2848 164.559Z" fill="#E853D2"/>
<path id="Vector_20" d="M130.187 124.264C131.929 120.068 134.166 116.74 138.491 114.987C145.706 112.063 153.652 115.161 156.643 122.276C158.598 125.708 157.883 134.539 156.105 137.864C154.765 142.289 151.898 146.98 148.67 150.288C148.112 150.886 146.306 152.458 145.574 152.713C143.153 155.818 140.229 156.597 137.308 158.487L136.968 158.523C133.345 160.326 129.503 161.649 125.539 162.46C124.063 162.839 120.27 162.936 118.716 162.979C119.013 159.151 119.24 156.049 119.264 152.218C119.224 149.721 119.113 147.224 118.932 144.733C118.884 143.834 120.057 143.315 120.929 142.681C124.667 139.962 126.025 137.375 127.756 133.211C128.653 130.638 129.409 127.041 130.187 124.264Z" fill="#FC85DD"/>
<path id="Vector_21" d="M127.756 133.211C128.412 133.672 128.506 133.739 129.284 133.91L129.602 133.787C135.684 134.484 139.843 136.22 143.899 141.082C146.757 144.508 146.934 146.997 148.67 150.288C148.112 150.886 146.306 152.459 145.574 152.713C143.153 155.819 140.229 156.598 137.308 158.487L136.968 158.523C133.345 160.327 129.503 161.65 125.539 162.46C124.063 162.839 120.27 162.936 118.716 162.979C119.013 159.151 119.24 156.049 119.264 152.219C119.224 149.721 119.113 147.225 118.932 144.733C118.884 143.834 120.057 143.315 120.929 142.681C124.667 139.963 126.025 137.376 127.756 133.211Z" fill="#9E2BF7"/>
<path id="Vector_22" d="M124.862 141.442C130.511 144.683 134.465 148.895 136.371 155.206C136.58 156.309 136.779 157.416 136.968 158.523C133.345 160.326 129.503 161.649 125.539 162.46C124.063 162.838 120.27 162.935 118.716 162.978C119.013 159.151 119.24 156.048 119.264 152.218C119.224 149.72 119.113 147.224 118.932 144.732C119.577 145.067 120.002 145.287 120.597 145.7C122.134 143.951 123.099 142.96 124.862 141.442Z" fill="#FC85DD"/>
<path id="Vector_23" d="M118.932 144.732C119.577 145.067 120.002 145.288 120.597 145.7C123.635 148.845 124.718 152.021 125.525 156.294C125.561 157.132 125.286 162.225 125.539 162.46C124.063 162.838 120.27 162.935 118.716 162.978C119.013 159.151 119.24 156.049 119.264 152.218C119.224 149.721 119.113 147.224 118.932 144.732Z" fill="#9E2BF7"/>
<path id="Vector_24" d="M119.264 152.218C119.549 152.688 119.444 154.848 119.437 155.562C121.451 155.97 123.372 155.84 125.525 156.293C125.561 157.131 125.286 162.224 125.539 162.46C124.063 162.838 120.27 162.935 118.716 162.978C119.013 159.151 119.24 156.048 119.264 152.218Z" fill="#8B15EA"/>
<path id="Vector_25" d="M136.371 155.206C136.58 156.31 136.779 157.416 136.968 158.523C133.345 160.326 129.503 161.649 125.539 162.46C125.286 162.225 125.56 157.132 125.525 156.294C127.289 156.389 135.227 156.042 136.371 155.206Z" fill="#E853D2"/>
<path id="Vector_26" d="M127.756 133.211C128.412 133.672 128.506 133.739 129.285 133.91C128.341 136.778 126.821 139.158 124.862 141.443C123.099 142.961 122.134 143.951 120.597 145.701C120.003 145.288 119.578 145.068 118.933 144.733C118.884 143.834 120.058 143.315 120.929 142.681C124.668 139.963 126.025 137.376 127.756 133.211Z" fill="#D99EFD"/>
<path id="Vector_27" d="M137.308 158.487C137.224 157.666 136.849 156.171 136.974 155.566C137.378 155.529 138.665 155.422 138.985 155.302C140.78 154.621 143.731 152.859 145.574 152.713C143.153 155.818 140.229 156.598 137.308 158.487Z" fill="#8B15EA"/>
<path id="Vector_28" d="M130.188 124.264C131.929 120.068 134.166 116.74 138.492 114.987C145.707 112.063 153.652 115.161 156.643 122.276C158.599 125.708 157.883 134.539 156.105 137.864C155.644 137.373 154.765 135.861 154.394 135.244C150.66 129.027 143.992 124.789 136.834 123.797C135.735 123.644 134.02 123.759 132.85 123.761L132.674 123.885C131.365 123.895 131.351 124.425 130.188 124.264Z" fill="#9E2BF7"/>
<path id="Vector_29" d="M130.188 124.264C131.929 120.068 134.166 116.74 138.492 114.987C145.707 112.063 153.652 115.161 156.643 122.276C156.01 122.066 155.266 121.12 154.781 120.576C148.858 113.946 135.997 114.506 132.85 123.761L132.674 123.885C131.365 123.895 131.351 124.425 130.188 124.264Z" fill="#D798FE"/>
<path id="Vector_30" d="M132.674 123.885C132.077 125.454 131.573 127.527 131.054 129.177C130.74 130.175 129.751 132.911 129.602 133.787L129.284 133.909C128.506 133.738 128.412 133.671 127.756 133.21C128.653 130.637 129.409 127.04 130.187 124.264C131.351 124.424 131.365 123.895 132.674 123.885Z" fill="#F3BCF1"/>
<path id="Vector_31" d="M112.412 26.9994C118.102 21.8714 140.199 5.76791 144.894 17.9466C145.614 19.3654 146.099 21.7353 146.397 23.3474C149.182 38.4082 147.072 51.6082 138.441 64.3564C138.107 63.148 137.763 61.9423 137.411 60.7392C137.082 59.3504 136.664 58.34 136.37 56.791C137.832 53.8249 139.502 51.3471 140.445 48.0594C142.21 41.9106 142.668 34.8502 140.932 28.6431C140.646 27.6209 140.096 26.775 139.899 25.6738C140.425 25.2618 140.807 25.7658 141.477 25.2876C139.583 21.9454 132.804 25.3229 130.456 26.7613C127.487 28.5796 124.309 31.1233 121.895 33.633C120.396 32.3111 119.182 31.3881 117.54 30.2546C116.955 29.8503 115.398 28.8219 114.926 28.4063L112.412 26.9994Z" fill="#9E2BF7"/>
<path id="Vector_32" d="M112.412 26.9994C118.102 21.8714 140.199 5.76791 144.894 17.9466C143.874 17.8149 142.208 16.2638 140.847 16.1739C131.452 15.5547 121.677 22.5585 114.926 28.4063L112.412 26.9994Z" fill="#D99EFD"/>
<path id="Vector_33" d="M141.477 25.2871C141.674 26.4077 142.573 27.5689 142.777 28.6589C144.851 39.6502 142.949 51.0211 137.41 60.7387C137.081 59.3499 136.663 58.3395 136.369 56.7904C137.832 53.8244 139.501 51.3466 140.445 48.0589C142.209 41.9101 142.668 34.8497 140.932 28.6426C140.646 27.6204 140.095 26.7745 139.898 25.6733C140.424 25.2613 140.807 25.7653 141.477 25.2871Z" fill="#8B15EA"/>
<path id="Vector_34" d="M40.8969 8.04806C41.9107 6.15155 42.9428 4.59927 45.1426 3.89826C47.3735 3.18731 50.2979 4.37545 52.266 5.51729C58.8954 9.36323 64.4562 16.0181 68.5739 22.4143L66.2287 23.3469C63.959 24.3121 61.6989 25.2998 59.4489 26.3098C57.5914 22.9256 52.9249 17.3394 49.5146 15.3113C46.9536 13.7885 44.2304 14.2228 42.8832 17.1023C39.4491 24.4424 38.9596 36.0333 41.4365 43.7267C40.5086 45.762 39.1093 48.061 38.062 50.1499C37.3306 47.6073 36.4751 44.8565 36.0704 42.2541C34.5562 32.5155 35.321 21.9163 38.9024 12.7088C39.3724 11.5002 40.1877 9.05539 40.8969 8.04806Z" fill="#9E2BF7"/>
<path id="Vector_35" d="M40.8965 8.04806C41.9103 6.15155 42.9425 4.59927 45.1422 3.89826C47.3731 3.18731 50.2975 4.37545 52.2656 5.51729C58.8951 9.36323 64.4558 16.0181 68.5735 22.4143L66.2283 23.3469C65.5183 22.4549 64.5181 20.4014 63.6538 19.3348C61.0827 16.1619 57.4889 12.7654 54.1852 10.3609C51.527 8.57438 47.9869 6.34981 44.6366 6.83538C43.434 7.00969 42.1018 7.88157 40.8965 8.04806Z" fill="#D99EFD"/>
<path id="Vector_36" d="M28.5468 99.1075C31.4312 98.6756 33.831 102.028 36.1322 103.323C39.7267 105.348 44.0619 106.8 46.4725 110.408C47.1647 111.017 50.4225 115.417 50.8709 116.269C50.4756 117.087 51.0764 118.038 51.1126 119.207C51.2471 123.558 47.5097 126.99 43.5941 128.185C43.2341 128.295 41.5987 128.766 41.3939 128.866C39.9035 128.162 36.4057 122.134 35.4486 120.492C36.6938 119.967 37.6652 119.779 38.9888 119.508L39.2173 117.591C33.7358 116.64 27.372 119.016 21.5355 116.043C23.7874 110.856 28.8506 114.468 29.456 112.341C29.3366 112.082 29.317 111.892 29.0458 111.773C24.8596 109.946 21.4778 111.117 19.1512 114.905L18.9842 114.671C18.2841 113.685 17.6582 112.927 17.9029 111.603C18.6134 107.759 27.9104 111.228 28.2882 108.232C27.189 106.577 20.9892 108.193 19.5051 107.583L19.6708 107.376C23.5724 105.622 26.8967 106.266 30.7891 106.366C31.3932 106.152 31.9238 105.453 32.3727 104.956C30.4306 103.51 26.2728 101.997 28.5468 99.1075Z" fill="#9E2BF7"/>
<path id="Vector_37" d="M28.5467 99.1075C31.4312 98.6756 33.831 102.028 36.1322 103.323C39.7266 105.348 44.0619 106.8 46.4725 110.408C45.3553 110.033 43.8375 108.763 43.5195 108.445C43.2015 108.127 43.3453 108.228 43.2015 108.127C42.9916 107.98 43.5615 108.304 42.5864 107.898C41.6114 107.491 38.2758 105.204 35.9347 103.903C33.9529 102.801 32.1122 100.837 29.9484 99.9343C29.4501 99.7263 27.9363 99.8588 28.5467 99.1075Z" fill="#E853D2"/>
<path id="Vector_38" d="M38.577 108.019C40.1131 107.834 43.1902 108.328 42.845 110.454C42.0885 111.05 40.2936 110.531 38.968 110.477C37.6993 110.474 36.684 111.019 35.4059 110.939C34.9971 110.676 35.1114 110.834 34.9902 110.341C35.5956 108.757 37.0117 108.22 38.577 108.019Z" fill="#370785"/>
<path id="Vector_39" d="M138.195 26.2471C138.748 27.6858 139.193 28.9825 139.484 30.4968C141.181 37.7749 139.846 46.8202 135.89 53.2003C135.797 53.35 135.703 53.4991 135.609 53.6478C132.657 47.3702 131.184 44.4153 126.983 38.8447C126.424 38.3436 124.727 36.3185 124.069 35.6228C128.5 31.147 132.024 28.0857 138.195 26.2471Z" fill="#FC85DD"/>
<path id="Vector_40" d="M138.195 26.2471C138.748 27.6858 139.193 28.9825 139.484 30.4968C135.118 31.3163 132.066 33.5633 128.911 36.6438C128.38 37.1627 127.33 38.2352 126.983 38.8447C126.424 38.3436 124.727 36.3185 124.069 35.6228C128.5 31.147 132.024 28.0857 138.195 26.2471Z" fill="#E853D2"/>
<path id="Vector_41" d="M46.4593 17.1221C46.9928 17.1715 47.5632 17.4603 48.0126 17.7408C51.9939 20.2258 54.3827 24.268 56.3531 28.3651C55.0787 29.4056 53.5617 30.3592 52.2392 31.4564C50.4069 32.9769 48.9978 34.4607 47.3557 36.1669C45.8473 37.8095 44.6418 39.3462 43.3194 41.1155C42.2018 34.608 41.631 28.8612 43.5804 22.3979C44.1941 20.3641 44.6411 18.4223 46.4593 17.1221Z" fill="#FB7ADE"/>
<path id="Vector_42" d="M54.3995 117.806C54.3324 117.241 53.999 116.579 54.1314 116.137C55.2154 115.433 56.2561 115.069 57.3434 114.407C59.1566 113.303 61.1533 110.566 63.3095 110.628L63.4681 110.776C63.3956 111.578 62.635 112.842 62.2551 113.588C61.5822 114.91 60.9473 118.402 61.2322 119.783L60.3944 119.845C60.4143 119.207 59.8491 118.271 59.4135 117.834C57.3392 118.277 54.9055 130.872 54.2334 133.049C49.9712 133.694 47.1192 133.264 43.6011 130.659C42.8361 130.099 42.0994 129.5 41.394 128.866C41.5988 128.766 43.2343 128.295 43.5943 128.185C47.5099 126.99 51.2473 123.558 51.1128 119.206C51.0765 118.038 50.4758 117.087 50.8711 116.269C51.2295 116.647 54.2902 120.866 54.6503 121.166C55.2988 121.155 54.6503 119.576 54.3995 117.806Z" fill="#FC85DD"/>
<path id="Vector_43" d="M18.6587 33.3848C22.0525 33.5323 20.2129 38.0379 20.9599 39.9769C22.2489 41.2068 28.9942 38.8223 27.0271 43.2706C26.757 43.8812 26.2928 44.0323 25.6941 44.2038C18.7614 45.2282 16.3031 43.6158 16.8188 36.5281C16.9555 34.6483 16.6502 34.0351 18.6587 33.3848Z" fill="#370785"/>
<path id="Vector_44" d="M11.6998 33.375C12.6853 33.3734 13.0528 33.6468 13.8726 34.1521C14.2468 36.5563 14.6919 41.2815 12.7949 43.0704C11.0936 44.6745 8.03346 44.3852 5.8366 44.3388C4.65809 44.1545 3.21088 43.4238 3.66881 41.9104C4.18464 39.4125 9.18374 40.9143 9.85715 40.239C11.4163 38.6758 8.86986 35.0826 11.6998 33.375Z" fill="#370785"/>
<path id="Vector_45" d="M20.4945 46.7741C21.4096 46.7278 22.3255 46.6947 23.2415 46.6747C24.6057 46.6545 28.8317 46.7421 26.606 50.0718C26.0659 50.88 22.1841 50.5743 20.8619 50.5215C20.7858 51.6436 20.8269 53.141 20.8284 54.293C20.7494 55.8044 20.4488 58.0619 17.9156 56.9948C16.5822 56.1512 16.728 53.4698 16.7733 52.2343C16.8817 49.2872 17.4672 47.4068 20.4945 46.7741Z" fill="#370785"/>
<path id="Vector_46" d="M5.4917 46.7707C7.47926 46.6969 9.67026 46.4978 11.5755 47.2145C14.6718 48.3791 14.5563 53.5456 13.8448 56.186C13.6724 56.8257 13.068 57.0878 12.5115 57.3169C12.04 57.2622 11.2866 57.2065 10.9735 56.861C9.99035 55.7764 10.4152 52.3316 10.3952 50.7283C8.38037 50.4424 2.85521 51.5343 3.9639 48.1615C4.21649 47.393 4.80739 47.0847 5.4917 46.7707Z" fill="#370785"/>
</g>
<defs>
<clipPath id="clip0_41647_9565">
<rect width="180" height="180" fill="white"/>
</clipPath>
</defs>
</svg>
