<svg width="180" height="179.3" viewBox="0 0 180 179.3" fill="none" xmlns="http://www.w3.org/2000/svg">
<g id="image 90 [Vectorized]">
<path id="Vector" d="M93.3172 29.4577C97.8885 22.1272 104.369 10.2394 113.93 8.46183C115.971 8.08236 119.314 9.56781 120.844 11.1094C129.906 20.239 131.477 35.3045 130.523 47.5809C129.793 55.806 126.864 56.4409 132.823 63.8464C140.52 73.4115 138.102 85.2887 130.486 93.9884C132.333 94.5602 132.492 93.3289 133.673 94.829C134.939 95.2303 136.418 95.1239 137.867 95.4571C138.224 94.5636 137.426 91.4843 137.734 90.1564C138.048 88.2595 139.517 86.691 141.416 86.1818C145.174 85.1741 149.083 86.5499 151.277 89.7838C153.257 92.7023 152.841 96.9332 152.254 100.171C156.27 100.081 159.895 100.688 162.505 104.191C164.573 106.967 163.402 109.107 163.489 112.061C163.529 113.424 164.773 115.447 164.218 117.082C163.889 118.392 163.421 119.223 163.035 120.411C162.047 123.554 162.219 125.974 159.214 127.998C154.628 131.085 149.012 130.459 143.788 130.075C142.789 130.002 140.702 128.916 139.764 129.072C135.513 129.78 131.471 130.527 127.114 130.291C122.653 130.176 119.168 129.446 114.849 128.528C116.045 132.943 119.221 161.348 118.385 165.318C118.034 166.981 116.956 168.209 115.539 169.101C112.225 171.184 106.889 171.371 103.168 170.524C97.1859 169.162 96.2843 164.331 93.4311 159.804C90.3564 160.54 85.1693 160.377 82.0196 160.101C81.2376 162.868 79.137 167.829 76.8884 169.703C72.3266 173.504 62.1722 173.166 58.6618 168.115C55.4048 163.43 57.5575 149.54 58.4316 144.007C50.0283 137.637 51.9622 126.803 56.4589 118.918C57.6494 116.831 59.514 114.36 60.9062 112.345C52.7987 110.949 44.0037 108.003 38.5435 101.486C33.0416 94.9197 36.1995 85.9236 37.0093 77.8535C30.1882 71.5003 26.2343 60.0578 24.8379 50.8349C23.8898 43.9142 24.5874 31.6555 28.8016 26.0753C36.46 15.9346 54.2045 30.7038 60.5721 35.7619C72.6836 29.8042 80.2851 29.1982 93.3172 29.4577Z" fill="#370786"/>
<path id="Vector_2" d="M113.451 106.389C117.533 103.852 121.598 102.074 125.364 98.8478C127.128 97.3371 128.815 95.327 130.486 93.9885C132.334 94.5604 132.492 93.3291 133.673 94.8292C134.939 95.2305 136.419 95.124 137.867 95.4572L138.006 95.576C139.051 98.2205 135.121 102.631 133.518 104.399C126.322 106.344 120.827 106.686 113.451 106.389Z" fill="#FEFEFE"/>
<path id="Vector_3" d="M41.674 68.2769C41.6983 66.8309 42.9972 62.8442 43.4628 61.4101C47.386 49.3261 55.1554 41.7596 66.9129 36.8147C75.4195 33.2371 90.0318 31.2295 99.0457 34.6414C107.572 36.3807 116.458 42.6239 121.093 49.9927C123.798 54.2947 124.395 55.9378 126.623 60.2688C130.61 68.0193 135.308 71.3702 133.496 81.0557C133.151 82.9005 132.088 85.4518 130.908 86.8461C124.685 97.8424 111.646 103.873 100.01 107.149C89.4967 110.109 65.402 111.532 55.2941 107.674C54.7051 107.669 53.844 107.541 53.2462 107.338C46.6543 105.105 39.2596 100.546 38.5741 92.8973C38.4913 91.9746 38.4076 90.2005 38.6476 89.342C38.7509 86.7961 40.1785 74.3293 40.9017 72.1522C40.9948 70.9935 41.401 69.4108 41.674 68.2769Z" fill="#FC83DC"/>
<path id="Vector_4" d="M51.4358 100.39C51.4652 100.025 51.5025 99.66 51.5482 99.2961C52.3305 93.1777 60.153 89.0323 65.6367 88.1647C67.9587 87.7973 72.3955 87.6157 74.1806 86.4904C77.6391 84.3102 79.4323 79.6423 83.1081 77.047C86.1793 74.8785 90.9435 73.3115 94.696 73.8867C97.9556 74.3864 102.51 76.0234 105.005 78.2487C105.564 78.7467 107.082 80.7946 107.61 81.4908C111.644 80.1618 115.123 77.6156 119.715 78.0185C123.309 78.3338 127.254 80.1559 129.282 83.2395C129.929 84.2245 129.987 85.9276 130.908 86.8462C124.685 97.8425 111.645 103.874 100.01 107.149C89.4965 110.109 65.4017 111.532 55.2939 107.674C53.3491 104.383 52.2621 105.037 51.4358 100.39Z" fill="#FEFEFE"/>
<path id="Vector_5" d="M93.0775 76.5776C94.8071 76.3006 97.4931 76.5347 99.2507 78.4957C103.079 82.7663 88.6074 88.0749 98.4521 89.8596C101.36 90.3869 101.523 86.9255 102.834 85.6137C103.317 85.1299 104.471 85.4698 104.928 86.0523C105.133 86.8242 104.804 88.0407 104.646 88.8695C103.06 90.6129 102.396 91.1184 100.37 92.3367C100.02 95.0478 99.0147 98.3196 96.9546 100.213C95.4429 101.626 93.4201 102.361 91.3538 102.248C86.8995 100.822 85.4444 98.3897 83.6861 94.2929C82.2472 93.4124 78.5183 90.9759 79.3775 89.0209C80.9471 87.6618 82.0561 89.2543 83.0379 90.2464C84.716 91.9421 89.7187 92.0156 91.3874 90.297C92.5201 89.1304 92.3301 87.9516 92.2965 86.4414C88.2005 85.6881 86.9342 84.9886 85.5234 81.1102C87.3535 77.5932 89.4216 77.0329 93.0775 76.5776Z" fill="#370786"/>
<path id="Vector_6" d="M89.6034 94.9804C91.0591 94.7969 96.0331 95.8256 95.9219 97.8597C95.3695 98.8532 94.6351 99.042 93.5977 99.4298C89.6832 100.444 88.2739 97.9534 86.5457 95.1233C87.5652 95.0828 88.5845 95.0354 89.6034 94.9804Z" fill="#FC83DC"/>
<path id="Vector_7" d="M94.7891 79.0408C95.6035 78.9818 96.8164 78.868 96.9855 79.8514C96.3179 81.8226 92.9145 81.939 91.1814 81.765C90.8521 81.7179 90.5234 81.6662 90.1953 81.6102C89.5388 81.495 89.2573 81.4489 88.9104 80.9534L89.0834 80.6072C90.5817 79.5493 92.9905 79.1883 94.7891 79.0408Z" fill="#9D27F7"/>
<path id="Vector_8" d="M41.6741 68.2769C41.6984 66.831 42.9973 62.8442 43.4629 61.4101C47.3861 49.3261 55.1555 41.7596 66.9129 36.8147C75.4195 33.2371 90.0319 31.2295 99.0457 34.6414C99.356 34.8328 99.6698 35.0186 99.9869 35.1989L99.9918 35.4526C99.4775 35.7638 92.6937 34.8013 91.5793 34.7395C76.6699 33.9137 60.3513 40.707 51.1813 52.6566C47.6319 57.3169 45.5267 63.1254 42.978 68.2034L42.8684 68.2865C42.3958 68.6506 42.3307 68.747 42.039 69.2708C41.9343 68.9645 41.8127 68.5581 41.6741 68.2769Z" fill="#E8C0FA"/>
<path id="Vector_9" d="M55.2941 107.674C54.7051 107.669 53.844 107.541 53.2462 107.339C46.6543 105.106 39.2596 100.546 38.5741 92.8974C38.4913 91.9746 38.4076 90.2005 38.6476 89.342C38.6518 89.4989 38.6921 90.7649 38.7033 90.7798C41.1253 93.987 47.8376 99.0004 51.436 100.39C52.2623 105.037 53.3493 104.383 55.2941 107.674Z" fill="#E654CF"/>
<path id="Vector_10" d="M42.9777 68.2034C42.5447 69.237 41.708 71.4651 40.9014 72.1522C40.9945 70.9935 41.4007 69.4108 41.6737 68.2769C41.8124 68.5581 41.9339 68.9645 42.0386 69.2708C42.3303 68.747 42.3955 68.6506 42.8681 68.2865L42.9777 68.2034Z" fill="#D599FB"/>
<path id="Vector_11" d="M66.5742 66.225C73.9456 66 76.297 74.1937 74.2522 80.1289C73.5952 82.0358 71.7285 82.9921 69.9394 83.6565C61.9453 84.4377 57.6505 68.4659 66.5742 66.225Z" fill="#370786"/>
<path id="Vector_12" d="M105.174 58.678C106.047 58.6045 107.322 58.4872 108.139 58.8195C114.411 61.3716 116.605 72.81 109.748 76.0025C100.885 78.2782 97.3652 61.2795 105.174 58.678Z" fill="#370786"/>
<path id="Vector_13" d="M64.4331 51.1766C66.0059 51.141 69.7164 52.026 70.1415 53.7468C69.0711 55.2056 65.7406 54.7703 64.1374 55.0406C63.0264 55.2281 61.3653 56.7673 60.5665 57.5417C59.7729 58.3927 58.5478 60.0708 57.4056 60.0339C56.1707 58.9337 57.2967 56.4038 58.0705 55.2889C59.6638 52.9932 61.6838 51.725 64.4331 51.1766Z" fill="#370786"/>
<path id="Vector_14" d="M102.133 44.5364C104.57 44.5446 109.272 46.3434 109.512 49.1406C108.819 50.7791 106.309 49.2432 105.212 48.7256C104.495 48.406 103.529 48.2544 102.745 48.0961C102.06 48.3426 101.371 48.5809 100.68 48.8105C99.421 49.222 97.5632 49.468 97.1377 47.8692C97.5795 45.5365 100.099 44.7946 102.133 44.5364Z" fill="#370786"/>
<path id="Vector_15" d="M108.55 108.283L110.862 109.154C114.751 109.697 124.107 110.407 127.797 109.363C125.765 113.796 125.274 116.553 126.909 121.426C127.176 122.222 128.729 125.558 129.22 126.199L129.5 127.006C125.534 126.936 122.338 126.933 118.439 126.03C113.499 125.299 114.268 124.67 112.815 120.207C112.413 118.887 111.344 116.635 110.22 115.752L109.931 115.758C109.115 116.993 110.182 121.495 110.469 123.126L112.294 133.805C112.664 135.893 113.256 138.628 113.486 140.667C114.318 148.033 114.792 155.509 115.278 162.903C116.945 168.306 104.162 169.979 100.745 165.579L100.17 164.8C98.6456 162.919 97.9761 161.42 96.9024 159.267C99.2538 158.89 100.512 158.341 102.486 157.108C102.983 156.619 103.255 156.413 103.501 155.759L103.445 155.327C102.736 154.85 102.121 154.999 101.265 155.213C93.9863 157.037 87.5492 157.784 80.0353 156.73C79.1361 156.604 76.4162 156.264 75.4123 156.448C75.2731 156.592 75.1528 156.717 75.0513 156.822C74.8624 157.375 74.859 157.443 74.9779 158.015C75.4316 158.841 77.4055 159.355 78.3372 159.623L78.4242 159.648C77.693 161.935 77.2708 163.803 75.9642 165.835C73.3516 170.267 62.5858 170.178 60.7474 164.936C59.9551 161.432 60.85 149.51 61.3263 145.804C66.0755 147.695 69.9118 148.682 75.0494 148.906C77.0176 149.047 79.8933 148.865 81.7729 149.111C90.6122 150.268 105.252 153.108 106.13 140.159C106.202 139.054 106.906 136.699 106.754 135.669C106.412 133.346 106.956 130.718 106.84 128.571C106.516 122.623 100.458 121.117 95.4176 121.624C95.5002 119.507 95.5072 118.447 94.9416 116.416C94.4591 114.674 93.478 113.433 92.2938 112.135C97.7309 111.281 103.257 109.798 108.55 108.283Z" fill="#FC83DC"/>
<path id="Vector_16" d="M60.7471 164.936C61.8332 164.43 63.0507 163.696 64.1779 163.308C66.5593 162.487 69.6734 162.661 72.0363 163.505C73.6607 164.085 74.6444 164.808 75.9639 165.835C73.3513 170.267 62.5854 170.178 60.7471 164.936Z" fill="#9D27F7"/>
<path id="Vector_17" d="M100.744 165.579C103.167 162.923 107.326 161.415 110.956 161.844C112.027 161.971 113.831 163.052 115.092 163.244L115.277 162.903C116.944 168.305 104.162 169.979 100.744 165.579Z" fill="#9D27F7"/>
<path id="Vector_18" d="M108.55 108.283L110.862 109.154C110.463 109.852 109.781 110.198 109.098 110.637C107.588 111.605 105.971 112.395 104.279 112.99C102.057 113.785 96.3745 115.069 94.9415 116.416C94.459 114.674 93.4779 113.433 92.2937 112.135C97.7308 111.281 103.257 109.798 108.55 108.283Z" fill="#E654CF"/>
<path id="Vector_19" d="M96.9023 159.267C99.2537 158.89 100.512 158.341 102.486 157.108C102.718 158.711 101.096 160.286 100.644 161.841C100.351 162.847 100.614 163.951 100.17 164.8C98.6456 162.919 97.976 161.42 96.9023 159.267Z" fill="#E654CF"/>
<path id="Vector_20" d="M112.815 120.207L113.192 119.941C114.019 120.394 118.234 125.144 118.439 126.029C113.499 125.298 114.268 124.67 112.815 120.207Z" fill="#E654CF"/>
<path id="Vector_21" d="M86.1576 113.481C89.0577 112.898 91.0253 114.961 91.5234 117.676C91.5637 117.898 91.5978 118.121 91.626 118.345C92.0233 119.328 91.7486 123.319 91.7344 124.636C97.4121 124.418 106.376 123.794 102.339 132.57C104.163 135.102 103.533 138.106 101.922 140.583C102.212 141.831 102.2 142.285 102.075 143.553C98.7777 148.584 86.3312 145.981 81.2392 145.525C79.1269 145.336 73.1391 145.831 71.4954 145.255C71.6873 145.113 71.6001 145.195 71.6956 144.919C69.4484 141.178 68.8928 136.757 70.2958 132.613C70.7793 131.185 71.9144 129.776 72.3334 128.471C74.2998 127.743 78.5019 128.919 80.7271 127.074C82.931 125.246 84.1269 122.385 84.3667 119.56C84.5372 117.55 84.2835 115.749 84.6692 113.817L84.6888 113.723L86.1576 113.481Z" fill="#9D27F7"/>
<path id="Vector_22" d="M86.1572 113.481C89.0574 112.898 91.0249 114.961 91.5231 117.676C91.5634 117.898 91.5975 118.121 91.6257 118.345C90.9773 118.186 88.9626 114.787 88.0982 114.219C87.492 113.821 86.8459 113.836 86.1572 113.481Z" fill="#E654CF"/>
<path id="Vector_23" d="M64.9811 112.947C68.5135 113.49 72.6565 113.433 76.2409 113.426C77.4179 113.424 80.5201 113.198 81.5089 113.366C81.4563 114.659 81.3528 115.984 81.5558 117.26C81.7372 118.726 81.7258 119.154 81.5346 120.673C80.1683 122.615 79.1641 124.506 76.6625 124.929C76.1209 125.017 75.5766 125.086 75.0301 125.134C74.9276 124.065 74.8425 121.312 73.27 121.505C72.0373 122.397 72.2662 124.564 72.2917 125.901C71.027 125.961 68.6565 125.971 68.4265 127.544C69.0309 128.815 71.1545 128.536 72.333 128.471C71.914 129.776 70.7789 131.185 70.2954 132.613C68.8924 136.757 69.448 141.178 71.6952 144.919C71.5997 145.195 71.6869 145.113 71.495 145.255C54.6918 142.403 52.3266 132.047 60.9477 118.216C61.7644 116.906 62.8643 115.674 63.7708 114.394L64.9811 112.947Z" fill="#FC83DC"/>
<path id="Vector_24" d="M64.9808 112.947C68.5132 113.49 72.6562 113.433 76.2406 113.426C77.4176 113.424 80.5198 113.198 81.5086 113.366C81.456 114.659 81.3525 115.984 81.5555 117.26C75.3301 117.526 69.5058 116.821 63.7705 114.394L64.9808 112.947Z" fill="#E654CF"/>
<path id="Vector_25" d="M30.3252 30.4272C31.2079 28.8569 32.1032 26.9625 34.0147 26.4784C38.25 25.4056 44.2894 28.8301 47.9073 30.8999C50.4837 32.3741 55.486 35.8801 57.0929 38.1968C56.4687 38.7595 56.2465 38.9268 55.5266 39.364C55.2288 39.6261 54.8942 39.8516 54.5724 40.0841C52.9203 41.2778 51.5383 42.7167 50.1335 44.1869C46.3148 40.9159 43.8793 39.2158 39.1416 37.2383C32.0627 34.2837 32.5686 40.2782 32.3131 45.4388C31.9118 53.543 34.4677 59.3988 38.0971 66.4333C37.8935 68.3265 37.3034 71.0601 36.9679 73.0189C36.6897 72.4145 36.3498 71.8149 35.9797 71.2854C29.7392 62.3618 27.2208 51.5667 28.1512 40.7583C28.3643 38.2843 28.7884 32.5185 30.3252 30.4272Z" fill="#9D27F7"/>
<path id="Vector_26" d="M30.325 30.4272C31.2076 28.8569 32.1029 26.9625 34.0144 26.4784C38.2497 25.4056 44.2891 28.8301 47.907 30.8999C50.4834 32.3741 55.4857 35.8801 57.0926 38.1968C56.4684 38.7595 56.2462 38.9268 55.5264 39.364C49.797 34.3623 42.5728 29.4773 34.7588 28.9178C33.0946 28.7988 31.3022 30.5702 30.325 30.4272Z" fill="#D599FB"/>
<path id="Vector_27" d="M141.661 89.9273C143.747 88.444 146.725 89.3965 148.06 91.4326C148.86 92.653 148.933 93.1305 149.061 94.5759C149.578 96.1448 148.337 99.781 148.211 101.43C144.266 102.619 142.947 102.777 140.074 105.871C139.423 108.818 138.906 111.036 141.174 113.422C141.043 113.868 140.63 114.021 140.165 114.352C139.462 118.796 140.064 118.367 141.95 122.397C142.093 122.703 142.649 126.077 142.748 126.666C141.66 126.217 141.483 126.131 140.498 125.521C139.394 124.836 137.236 122.179 136.153 122.237C135.574 123.066 136.191 123.944 136.54 124.822C136.925 125.425 137.097 125.705 137.379 126.359C134.82 126.621 132.056 126.938 129.5 127.006L129.219 126.199C128.729 125.558 127.176 122.222 126.909 121.426C125.273 116.553 125.765 113.796 127.797 109.363C129.267 109.015 131.559 108.849 133.242 108.504C133.205 110.068 133.014 111.459 134.272 112.647C134.439 112.593 134.636 112.528 134.864 112.453C135.163 111.708 135.246 110.297 135.475 109.517C136.706 105.329 140.52 102.552 141.474 98.1335C141.956 95.8979 140.598 91.7801 141.661 89.9273Z" fill="#9D27F7"/>
<path id="Vector_28" d="M136.54 124.822C136.925 125.425 137.097 125.705 137.379 126.359C134.82 126.621 132.056 126.938 129.5 127.006L129.219 126.199C130.343 125.228 136.085 125.194 136.54 124.822Z" fill="#8518E5"/>
<path id="Vector_29" d="M141.661 89.9273C143.746 88.444 146.724 89.3965 148.059 91.4326C148.86 92.653 148.933 93.1305 149.06 94.5759C148.168 93.6211 148.002 92.3315 146.894 91.3287C145.442 90.0159 142.547 90.6572 141.661 89.9273Z" fill="#D381F7"/>
<path id="Vector_30" d="M97.3765 30.1869C100.091 24.1602 112.902 4.69463 119.926 15.4937C126.131 22.0212 129.114 42.7444 126.05 50.9718C125.509 50.2073 123.489 47.5049 123.386 46.6537C123.052 43.8266 123.577 41.1144 123.447 38.2503C123.258 34.1108 121.067 22.8062 116.555 21.552C113.02 20.5697 106.893 30.1018 105.666 33.0767C103.996 31.8454 101.5 31.1307 99.4941 30.5852L97.3765 30.1869Z" fill="#9D27F7"/>
<path id="Vector_31" d="M97.3765 30.1869C100.091 24.1602 112.902 4.69463 119.926 15.4937C116.782 14.6979 115.008 14.252 111.914 16.1701C108.287 18.4193 104.778 22.608 102.165 25.9903C101.275 27.1427 100.125 30.2025 99.4941 30.5852L97.3765 30.1869Z" fill="#D599FB"/>
<path id="Vector_32" d="M146.014 104.612C149.242 103.545 154.725 103.016 157.905 104.588C159.59 105.421 160.153 106.37 160.659 108.069L160.696 108.199C160.856 109.724 159.835 112.534 159.931 112.668C161.163 114.399 161.949 118.066 159.715 119.994C156.67 122.622 147.053 123.507 144.119 120.015C142.855 118.511 143.066 116.732 143.276 114.928C145.861 115.366 148.879 115.765 151.485 115.304C152.903 115.054 157.667 114.254 158.564 113.281C157.078 112.173 138.506 118.011 143.122 106.548C143.544 105.498 145.043 104.909 146.014 104.612Z" fill="#9D27F7"/>
<path id="Vector_33" d="M146.014 104.612C149.242 103.545 154.724 103.016 157.905 104.588C159.59 105.421 160.152 106.37 160.659 108.069L160.696 108.199C160.665 108.649 160.686 108.72 160.465 109.096C159.527 108.544 159.689 106.253 156.397 105.054C153.694 104.069 147.246 105.583 146.014 104.612Z" fill="#D599FB"/>
<path id="Vector_34" d="M36.6822 40.4373C40.2579 41.4572 44.9838 44.0411 47.644 46.6007C47.3334 47.0496 46.5378 48.2613 46.1972 48.591C43.2044 53.2747 41.265 56.6311 39.5883 62.0541C37.0757 55.1586 36.2389 52.5046 36.2373 44.9518C36.2818 43.6377 36.3791 41.7179 36.6822 40.4373Z" fill="#FC83DC"/>
<path id="Vector_35" d="M36.6822 40.4373C40.2579 41.4572 44.9838 44.0411 47.644 46.6007C47.3334 47.0496 46.5378 48.2613 46.1972 48.591C44.8094 47.1184 38.2413 43.2526 36.4416 44.218L36.2373 44.9518C36.2818 43.6377 36.3791 41.7179 36.6822 40.4373Z" fill="#E654CF"/>
<path id="Vector_36" d="M109.546 34.6775C111.055 31.6054 113.451 28.0052 116.089 25.7883C116.663 26.9844 117.215 28.924 117.811 29.8107C119.296 33.6616 119.565 37.8685 119.345 41.9495C117.5 40.2662 113.304 36.8704 111.196 35.5912C110.644 35.2614 110.113 34.9787 109.546 34.6775Z" fill="#FC83DC"/>
<path id="Vector_37" d="M109.546 34.6775C111.055 31.6054 113.451 28.0052 116.089 25.7883C116.663 26.9844 117.215 28.924 117.811 29.8107C117.451 29.9084 116.507 30.1759 116.241 30.3829C115.173 31.2155 111.913 34.595 111.196 35.5912C110.644 35.2614 110.113 34.9787 109.546 34.6775Z" fill="#E654CF"/>
<path id="Vector_38" d="M158.83 122.819L158.919 122.898C158.983 123.459 158.832 123.55 158.549 124.045C156.392 127.816 149.412 127.872 146.122 125.671C145.569 125.08 144.629 124.178 144.891 123.353C145.411 123.224 147.624 123.612 148.307 123.679C151.948 124.034 155.26 123.443 158.83 122.819Z" fill="#9D27F7"/>
<path id="Vector_39" d="M152.137 37.1064C152.406 37.2344 153.018 37.5279 153.171 37.7513C154.864 40.2207 155.651 44.6334 157.434 46.9382C158.429 47.268 159.612 47.6559 160.488 47.9131C173.158 51.6364 162.562 52.8613 158.001 54.9527C156.478 55.6508 154.817 62.4225 152.679 64.7548C152.37 64.7359 152.079 64.7776 151.892 64.5158C150.157 62.0314 149.441 58.3816 147.787 55.88C146.451 53.8594 138.821 53.6045 138.547 50.8609C139.364 48.9332 145.088 48.2412 147.403 46.5848L147.54 46.485C148.688 44.1161 150.687 38.4871 152.137 37.1064Z" fill="#F8D563"/>
</g>
</svg>
