<svg width="29" height="28" viewBox="0 0 29 28" fill="none" xmlns="http://www.w3.org/2000/svg">
<mask id="mask0_5134_202443" style="mask-type:alpha" maskUnits="userSpaceOnUse" x="0" y="0" width="29" height="28">
<path fill-rule="evenodd" clip-rule="evenodd" d="M3.03712 13.4989C3.03712 7.83902 8.32614 3.5 14.5187 3.5C20.7113 3.5 26.0003 7.83902 26.0003 13.4989C26.0003 19.1589 20.7113 23.4979 14.5187 23.4979C13.1456 23.4979 11.8257 23.288 10.6007 22.9013C9.15586 24.2498 7.05655 24.898 4.48853 24.9989C3.44243 25.04 2.68738 23.9519 3.1254 22.978C3.74681 21.5866 4.54971 19.9915 4.64491 18.6002C3.62808 17.1195 3.03712 15.3721 3.03712 13.4989ZM14.5187 5.5C9.13363 5.5 5.03712 9.21891 5.03712 13.4989C5.03712 15.0359 5.55176 16.4778 6.45898 17.6996C6.587 17.872 6.65612 18.081 6.65612 18.2957C6.65612 19.9295 6.00486 21.471 5.34169 22.9339C7.39776 22.7155 8.7466 22.0571 9.55995 21.1C9.83312 20.7786 10.2786 20.6631 10.6736 20.8114C11.8458 21.2516 13.1461 21.4979 14.5187 21.4979C19.9038 21.4979 24.0003 17.779 24.0003 13.4989C24.0003 9.21891 19.9038 5.5 14.5187 5.5Z" fill="#ffffff"/>
</mask>
<g mask="url(#mask0_5134_202443)">
<rect x="0.5" width="28" height="28" fill="#ffffff"/>
</g>
</svg>
