<svg width="180" height="169" viewBox="0 0 180 169" fill="none" xmlns="http://www.w3.org/2000/svg">
<g id="mascot verify devices" clip-path="url(#clip0_41647_9565)">
<path id="Vector" d="M49.4154 19.2451C57.5216 16.0268 70.2661 15.934 78.7149 18.0534C79.8494 18.3388 80.6843 18.5814 81.4978 17.5182C83.6671 14.8209 86.1932 11.7596 88.7478 9.51185C101.485 -1.71273 115.264 -6.53651 118.889 15.2776C121.03 28.1862 120.459 38.7899 114.893 50.9779C114.358 52.1481 113.609 53.3969 113.223 54.5672L113.166 54.7384C113.937 58.9414 115.885 63.7509 117.198 67.8111C119.153 73.8337 118.925 79.1999 115.343 84.5802C112.603 88.6976 109.028 92.1299 106.23 96.2258C103.183 100.693 100.557 105.445 98.3882 110.397C94.542 119.203 94.5206 127.673 94.4635 137.028C94.4278 142.637 93.8356 148.303 94.3351 153.883C94.5492 156.245 94.8774 157.515 95.7908 159.663C96.4758 161.276 96.6685 162.952 95.8907 164.579C95.1985 166.035 93.7785 167.063 92.2158 167.562C87.6917 169.011 81.0197 168.697 76.7169 166.784C73.0633 165.157 70.787 159.199 69.5739 155.595C65.7563 155.967 62.2169 156.209 58.3779 155.867C56.1444 163.167 57.4859 167.755 47.5672 168.454C40.4457 168.954 32.7961 167.855 31.8899 159.128C31.7329 157.636 31.4118 155.852 31.1834 154.354C22.1139 152.948 13.237 148.274 7.42131 141.081C2.15511 134.417 -0.65639 125.846 0.128545 117.362C1.02765 107.707 7.18583 100.4 17.5398 101.549C24.2189 102.291 28.8144 107.279 30.4913 113.551C30.8909 115.05 30.8695 118.768 31.7258 119.874C32.2324 119.653 32.3609 118.91 32.4679 118.368C33.7381 111.974 35.4506 106.851 37.8768 100.843C37.7198 100.814 37.5628 100.778 37.413 100.736C35.2508 100.193 32.9959 99.0801 30.9622 98.2524C18.7529 93.2859 6.67919 81.6474 12.9515 67.49C14.3216 64.4003 15.3991 60.5826 16.234 57.2217C10.8108 47.9594 8.0778 35.1079 9.04827 24.5041C9.8118 16.1767 12.4734 -0.742262 24.2189 0.920374C35.0011 2.44743 42.8362 11.41 49.4154 19.2451Z" fill="#300585"/>
<path id="Vector_2" d="M15.913 80.9055C13.3156 73.3701 15.5134 71.265 17.7041 64.2363C19.6379 58.0425 21.3291 51.8415 24.2904 45.9901C29.5281 35.2651 38.3051 26.6236 49.708 22.7204C60.9683 18.867 74.8973 18.8314 85.7009 24.1261C98.6238 30.4627 104.989 40.5455 109.377 53.8395C110.434 57.0292 111.29 60.5757 112.239 63.5798C114.408 70.423 116.777 73.9552 113.323 81.1981C112.581 82.7537 110.662 85.5866 109.327 86.607L107.536 88.4979C103.69 88.6407 100.222 86.8639 96.8184 89.8894C94.8133 91.6662 94.9275 95.912 93.8 97.0038C89.5613 98.6165 85.1657 99.3657 80.7487 100.272C78.3653 93.6643 72.7066 97.4676 69.938 101.578C66.6056 101.663 60.9255 101.606 57.6502 101.292C49.9649 100.55 35.9217 98.0599 29.8206 93.8926C29.5209 92.8793 28.2008 90.7529 27.6442 89.4898C23.9265 88.2268 21.6073 86.3358 19.0813 83.3816C18.0537 82.1828 17.49 81.2623 15.913 80.9126V80.9055Z" fill="#FE87DD"/>
<path id="Vector_3" d="M27.6366 89.4825C27.0158 79.207 35.279 73.8551 44.8124 74.2761C50.2142 74.5187 52.5548 74.3404 56.772 70.7225C63.658 64.5929 75.1324 62.3308 82.4394 68.9314C87.8198 73.7909 89.2041 74.2119 96.4541 73.9193C98.7233 73.8266 102.42 74.9041 104.339 76.1386C106.573 77.5729 108.606 80.3059 109.02 83.0103C109.206 84.202 109.006 85.3152 109.32 86.6068L107.529 88.4977C103.683 88.6405 100.215 86.8636 96.8109 89.8892C94.8057 91.666 94.9199 95.9118 93.7924 97.0036C89.5538 98.6163 85.1581 99.3727 80.7411 100.272C78.3649 93.664 72.6991 97.4674 69.9304 101.578C66.598 101.663 60.9179 101.606 57.6426 101.285C49.9573 100.543 35.9141 98.0526 29.813 93.8853C29.5133 92.872 28.1932 90.7455 27.6366 89.4825Z" fill="#FAFAFA"/>
<path id="Vector_4" d="M70.409 68.2892C79.7355 67.4329 83.2106 75.1253 72.4712 78.4149C69.6669 79.264 64.415 76.5738 63.9939 73.2842C63.8726 72.3281 64.1438 71.3647 64.7432 70.6083C66.0776 68.9171 68.3967 68.5033 70.409 68.2892Z" fill="#300585"/>
<path id="Vector_5" d="M70.5089 70.9581C72.0788 70.8154 75.4969 70.6584 76.1177 72.4495C75.8465 73.6982 73.9199 74.1121 72.8566 74.4118C69.8025 74.6188 68.5966 74.3119 66.2346 72.4138C67.99 71.3577 68.5038 71.2364 70.5089 70.9581Z" fill="#9E30FA"/>
<path id="Vector_6" d="M60.6971 82.6251C62.0815 83.1745 63.1875 86.2857 67.1622 86.8922C69.731 87.5059 72.2 87.1206 74.2979 85.4508C75.4896 84.5018 76.2674 82.9533 78.0513 83.3886C79.2288 84.4518 78.4438 85.7149 77.5947 86.6853C72.4783 91.4235 64.8573 91.6661 59.8337 86.0859C58.5136 84.6159 59.1772 83.5099 60.7114 82.6179L60.6971 82.6251Z" fill="#300585"/>
<path id="Vector_7" d="M48.8944 53.9607C56.5868 53.4256 58.6776 66.7481 50.9281 69.9449C42.4651 70.9867 41.3662 56.6224 48.8944 53.9607Z" fill="#300585"/>
<path id="Vector_8" d="M50.3571 57.0933C53.3898 58.0566 53.2185 60.6469 50.9351 62.4665C47.7168 62.3024 47.5598 58.7131 50.3571 57.0933Z" fill="#FAFAFA"/>
<path id="Vector_9" d="M88.5906 53.9891C91.6947 53.6537 93.6214 54.7811 94.8273 57.7068C96.5756 61.9455 95.9191 67.8824 91.2452 69.8019C83.4029 71.0864 81.2836 57.1003 88.5906 53.9891Z" fill="#300585"/>
<path id="Vector_10" d="M89.9677 57.1289C92.5009 57.4857 93.0432 61.0036 90.403 62.2381C87.5844 61.9598 87.199 58.5632 89.9677 57.1289Z" fill="#FAFAFA"/>
<path id="Vector_11" d="M50.9066 37.584C51.1563 37.5697 51.4061 37.5626 51.6558 37.5554C53.0188 37.5412 54.8955 38.1049 54.8527 39.7747C54.1962 41.4801 51.0493 41.0448 49.5508 41.5158C48.7516 41.7655 48.0594 42.1366 47.3244 42.5148C46.3682 43.0857 45.5333 43.7422 44.4273 43.1642C43.3355 41.6228 45.2336 39.8888 46.4539 39.1182C47.8453 38.2405 49.301 37.8266 50.9137 37.584H50.9066Z" fill="#300585"/>
<path id="Vector_12" d="M86.9779 37.5696C89.2685 37.5054 95.0414 39.1823 94.0566 42.3078C93.0648 43.3496 92.2656 42.8287 91.1809 42.2222C87.9984 40.8878 87.6273 41.687 84.5018 41.0662C83.9666 40.9591 83.724 40.5595 83.5171 40.1171C83.6384 38.5472 85.6935 37.8337 86.9779 37.5625V37.5696Z" fill="#300585"/>
<path id="Vector_13" d="M40.2031 103.697C42.4794 105.431 49.9078 107.957 52.6978 107.879C56.7724 110.298 64.0081 109.299 68.0683 107.151C68.475 107.836 68.2538 109.256 68.3466 110.183C68.8818 115.35 71.3508 117.548 74.5333 120.909C66.0061 127.338 56.0873 127.316 46.9964 122.136C46.454 122.535 45.0911 123.534 45.7904 124.269C47.9811 126.56 52.1484 128.016 55.1454 128.629C61.7175 129.971 68.5749 128.943 74.1123 125.054C77.4875 122.678 80.4489 120.166 84.1523 118.225C87.0067 116.734 88.1769 113.295 88.8191 110.248L89.1759 110.312C89.1902 109.755 89.2045 109.363 89.1545 108.799L89.3971 108.713C89.497 109.57 89.4328 112.082 89.3543 112.988C89.6112 113.095 89.8538 113.23 90.0965 113.373L90.3319 113.031C90.5745 114.693 90.7958 115.828 91.1882 117.462C92.2086 120.452 92.437 123.185 92.1016 126.339C92.0802 126.56 91.7234 126.696 91.5522 126.788C91.124 127.324 91.1454 128.644 91.0883 129.421C91.1169 130.264 91.1311 131.862 91.2596 132.633C91.2667 135.137 91.3452 138.22 91.2025 140.696C90.8243 147.347 90.282 153.027 92.123 159.606C91.4023 159.898 89.9252 159.399 89.0618 159.32C84.3807 158.871 80.7914 160.305 77.6659 163.666L77.0094 163.138C77.6302 161.183 77.2164 156.059 76.7169 153.969C77.1878 153.569 77.5446 153.369 77.6659 152.784C77.5803 152.163 77.5732 152.078 77.1379 151.635C75.7749 150.95 73.0277 151.921 71.5292 152.356C66.4628 153.819 61.2965 152.584 56.2372 152.934C55.5522 152.984 53.9252 160.847 53.6326 161.896C48.6305 158.6 42.9076 158.792 37.8554 161.846C36.7993 160.362 36.8564 158.921 35.1938 158.257C34.4731 155.517 34.0949 151.55 33.8451 148.674C32.5607 133.396 34.73 118.026 40.196 103.697H40.2031Z" fill="#FE87DD"/>
<path id="Vector_14" d="M90.3319 113.031C90.5745 114.693 90.7957 115.828 91.1882 117.462C92.2086 120.452 92.437 123.185 92.1016 126.339C92.0802 126.56 91.7234 126.696 91.5521 126.788C91.124 127.324 91.1454 128.644 91.0883 129.421C88.7478 128.943 87.6275 126.667 86.9067 124.619C87.2564 122.329 88.1055 120.152 88.6407 117.919C88.9975 116.434 89.1759 114.536 89.3472 112.988C89.6041 113.095 89.8467 113.23 90.0893 113.373L90.3248 113.031H90.3319Z" fill="#B575D2"/>
<path id="Vector_15" d="M68.0679 107.151C70.0017 105.574 71.5287 103.497 73.3912 101.828C74.169 101.128 75.5604 99.644 76.7378 99.8367C78.9357 100.201 77.0447 102.648 77.6084 103.868C78.85 103.369 80.1559 103.055 81.4831 102.934C82.1539 102.869 82.8532 102.862 83.4669 103.141C84.0806 103.419 84.5801 104.04 84.523 104.703C84.4802 105.146 84.2233 105.524 84.0592 105.938C83.895 106.352 83.8593 106.88 84.1947 107.165C84.4373 107.372 84.7941 107.379 85.0938 107.493C85.943 107.822 86.1357 108.849 85.9002 109.634C85.7289 110.205 85.5077 110.248 85.0582 110.498C84.5801 110.769 84.4588 111.268 84.5801 111.803C84.6942 112.324 84.9511 112.845 84.8441 113.366C84.4873 115.079 80.1273 116.898 78.7715 117.769C77.694 118.461 75.3749 120.48 74.54 120.901C71.3503 117.541 68.8885 115.35 68.3533 110.176C68.2605 109.242 68.4817 107.829 68.075 107.144L68.0679 107.151Z" fill="#9E30FA"/>
<path id="Vector_16" d="M37.8626 161.847C42.9147 158.785 48.6376 158.6 53.6398 161.897C52.7264 165.072 49.7936 165.514 46.8322 165.593C43.3214 165.686 39.6679 165.443 36.9207 162.988C37.2275 162.524 37.4915 162.253 37.8626 161.847Z" fill="#9E30FA"/>
<path id="Vector_17" d="M77.6658 163.659C80.7912 160.298 84.3877 158.871 89.0616 159.313C89.9322 159.399 91.4093 159.891 92.13 159.599C92.6295 160.641 93.0791 161.704 93.4929 162.781C91.4949 164.893 89.5254 165.293 86.6354 165.414C84.1879 165.521 79.7066 165.008 77.6658 163.652V163.659Z" fill="#9E30FA"/>
<path id="Vector_18" d="M40.9664 101.806C44.3987 103.397 54.6314 104.439 58.8058 104.903C60.0546 105.039 63.8793 105.06 65.3707 105.117C62.3237 106.38 59.605 106.188 56.3796 106.109C54.1961 106.052 53.0686 105.438 52.7047 107.886C49.9146 107.964 42.4863 105.438 40.21 103.704L40.9735 101.813L40.9664 101.806Z" fill="#F04FD2"/>
<path id="Vector_19" d="M15.9126 80.9053C17.4896 81.2549 18.0533 82.1754 19.0809 83.3743C21.5998 86.3285 23.9261 88.2266 27.6438 89.4825C28.2075 90.7455 29.5205 92.872 29.8202 93.8853C24.2543 92.1227 18.2603 86.2 15.9126 80.9053Z" fill="#F04FD2"/>
<path id="Vector_20" d="M72.8352 155.274C74.2267 154.853 75.3755 154.518 76.7171 153.969C77.2166 156.059 77.6304 161.183 77.0096 163.131C75.4184 161.111 73.9627 157.658 72.8352 155.274Z" fill="#F04FD2"/>
<path id="Vector_21" d="M35.2009 158.257C36.8636 158.921 36.8136 160.362 37.8626 161.847C37.4915 162.253 37.2275 162.525 36.9207 162.988C35.8717 161.533 35.3936 160.034 35.2009 158.264V158.257Z" fill="#F04FD2"/>
<path id="Vector_22" d="M5.67978 110.276C7.44945 107.443 9.64727 105.645 12.9868 104.903C16.0195 104.232 19.1949 104.803 21.8066 106.48C24.7823 108.378 26.1666 110.711 27.1941 113.965C28.2288 116.713 27.8792 120.316 28.5714 123.32C29.0566 125.433 30.7977 127.723 30.6479 129.55L30.5266 130.613C30.2839 133.396 30.184 135.901 30.0485 138.684C30.1127 140.76 30.2054 142.837 30.3125 144.913C30.5908 146.797 30.6193 149.088 30.8049 151.029C29.1208 150.665 27.5295 150.322 25.8598 149.865C22.7414 148.859 20.2296 147.589 17.4824 145.855C14.05 143.978 10.739 140.596 8.69821 137.299L8.19157 136.4C5.95094 133.36 3.46055 126.981 3.51764 123.163C2.58999 119.603 3.76025 113.43 5.67978 110.283V110.276Z" fill="#FE87DD"/>
<path id="Vector_23" d="M8.19922 136.393C8.46324 135.887 8.68445 135.023 8.94848 134.445C12.3522 126.924 19.1384 123.149 27.3302 123.328C28.0153 124.84 28.5362 129.2 30.6555 129.557L30.5342 130.62C30.2916 133.403 30.1917 135.908 30.0561 138.691C30.1203 140.767 30.2131 142.844 30.3201 144.92C30.5984 146.804 30.627 149.095 30.8125 151.036C29.1285 150.672 27.5372 150.329 25.8674 149.873C22.7491 148.867 20.2373 147.596 17.49 145.862C14.0577 143.986 10.7467 140.603 8.70586 137.307L8.19922 136.407V136.393Z" fill="#9E30FA"/>
<path id="Vector_24" d="M18.4531 143.008C19.6734 138.669 23.2341 134.381 27.2587 132.347C28.379 131.783 29.4422 131.248 30.5269 130.613C30.2843 133.396 30.1844 135.901 30.0488 138.684C30.113 140.76 30.2058 142.837 30.3128 144.913C30.5911 146.797 30.6196 149.088 30.8052 151.028C29.1211 150.665 27.5298 150.322 25.8601 149.865C22.7417 148.859 20.2299 147.589 17.4827 145.855C17.9179 144.956 18.1177 143.957 18.3604 142.979L18.446 143.015L18.4531 143.008Z" fill="#FE87DD"/>
<path id="Vector_25" d="M18.3674 142.972L18.4531 143.008C19.6019 144.271 25.1464 144.592 26.7805 144.885C27.5583 144.956 29.4564 144.913 30.3199 144.913C30.5982 146.797 30.6267 149.088 30.8122 151.029C29.1282 150.665 27.5369 150.322 25.8671 149.866C22.7488 148.859 20.237 147.589 17.4897 145.855C17.925 144.956 18.1248 143.957 18.3674 142.98V142.972Z" fill="#F04FD2"/>
<path id="Vector_26" d="M30.3199 144.913C30.5982 146.797 30.6268 149.088 30.8123 151.029C29.1282 150.665 27.537 150.322 25.8672 149.866C26.2739 149.373 26.4024 146.169 26.7806 144.885C27.5584 144.956 29.4565 144.913 30.3199 144.913Z" fill="#7231BF"/>
<path id="Vector_27" d="M26.7803 144.885C27.2442 143.079 27.8864 141.916 28.9282 140.396C29.3849 139.733 29.7631 139.454 30.0485 138.691C30.1127 140.767 30.2055 142.844 30.3125 144.92C29.4562 144.92 27.551 144.963 26.7732 144.892L26.7803 144.885Z" fill="#9E30FA"/>
<path id="Vector_28" d="M8.70581 137.292C8.94843 136.6 8.94129 136.457 8.7629 135.758L8.94843 135.687C9.59065 136.094 10.0545 137.093 10.9036 137.877C13.1157 139.918 15.6917 141.617 18.3677 142.972C18.1322 143.95 17.9324 144.949 17.49 145.848C14.0576 143.971 10.7466 140.589 8.70581 137.292Z" fill="#7231BF"/>
<path id="Vector_29" d="M5.68045 110.276C7.45013 107.443 9.64795 105.645 12.9875 104.903C16.0202 104.232 19.1956 104.803 21.8073 106.48C24.7829 108.378 26.1673 110.711 27.1948 113.965L25.9889 114.115L25.8319 114.051C18.2466 113.63 13.4299 114.137 7.21465 119.339C5.85171 120.48 4.68145 122.122 3.52545 123.149C2.5978 119.588 3.76807 113.416 5.68759 110.269L5.68045 110.276Z" fill="#9E30FA"/>
<path id="Vector_30" d="M5.68018 110.276C7.44985 107.443 9.64767 105.645 12.9872 104.903C16.0199 104.232 19.1953 104.803 21.807 106.48C24.7827 108.378 26.167 110.711 27.1945 113.965L25.9886 114.115L25.8316 114.051C23.2056 106.915 16.1341 104.396 9.37651 108.057C8.18483 108.699 7.24291 109.634 6.12973 110.39L5.68731 110.276H5.68018Z" fill="#D394FA"/>
<path id="Vector_31" d="M25.9886 114.115L27.1945 113.965C28.2292 116.713 27.8796 120.316 28.5717 123.32C29.057 125.433 30.7981 127.723 30.6482 129.55C28.5289 129.193 28.008 124.84 27.323 123.32C27.0518 122.507 26.3311 115.878 25.9814 114.115H25.9886Z" fill="#D394FA"/>
<path id="Vector_32" d="M16.391 8.5272C17.5042 6.7718 19.1098 4.5383 21.2933 4.29569C30.4913 3.28954 41.4447 13.8576 45.8618 20.5224L43.821 21.4501C41.088 23.02 39.1613 23.705 36.6994 25.8957C34.3518 21.6071 29.5708 17.1544 24.9825 15.3419C21.1292 13.8219 20.1516 16.5193 19.0955 19.5948C16.234 28.0792 16.8192 37.3486 20.7153 45.4049C19.7234 47.4029 18.4533 50.6996 17.7254 52.819C11.9026 41.3446 10.4897 27.8937 13.8507 15.4275C14.2646 13.9004 14.7355 11.5813 15.5347 10.2541C15.7774 9.5833 16.0414 9.13374 16.3839 8.52007L16.391 8.5272Z" fill="#9E30FA"/>
<path id="Vector_33" d="M16.3906 8.5272C17.5038 6.7718 19.1094 4.5383 21.2929 4.29569C30.4909 3.28954 41.4443 13.8576 45.8614 20.5224L43.8206 21.4501C43.2854 20.9006 42.5147 19.816 41.9795 19.1666C37.7195 14.0003 23.4979 1.81957 16.9758 9.04098L16.3906 8.5272Z" fill="#D394FA"/>
<path id="Vector_34" d="M16.3911 8.5271L16.9763 9.04088C16.4126 9.75445 16.3697 9.89003 15.542 10.2611C15.7846 9.59033 16.0486 9.14078 16.3911 8.5271Z" fill="#B575D2"/>
<path id="Vector_35" d="M83.9736 19.5446C88.8117 13.8574 93.8852 8.36998 100.764 5.14461C106.187 2.59713 110.39 1.93351 113.173 8.09168C113.837 8.94084 114.379 11.2814 114.7 12.3589C118.639 25.4174 116.948 37.8265 111.596 50.1286C110.861 47.7167 109.769 45.2548 108.77 42.9214C112.11 34.6939 112.888 25.0606 109.891 16.6118C108.82 13.6005 106.523 13.8931 104.089 14.992C99.5011 17.0614 96.4327 20.7434 93.5641 24.7537C92.0299 23.7119 90.4458 22.7343 88.826 21.8281C88.3907 21.5783 86.8065 20.772 86.4783 20.5508C85.886 20.251 84.6444 19.8086 83.9808 19.5517L83.9736 19.5446Z" fill="#9E30FA"/>
<path id="Vector_36" d="M83.9736 19.5446C88.8117 13.8574 93.8852 8.36998 100.764 5.14461C106.187 2.59713 110.39 1.93351 113.173 8.09168C112.196 8.12022 110.776 6.23638 109.548 6.12934C103.39 5.58702 97.6601 9.54025 93.086 13.2223C90.9881 14.9706 87.6129 18.4885 86.4783 20.5436C85.886 20.2439 84.6444 19.8015 83.9808 19.5446H83.9736Z" fill="#D394FA"/>
<path id="Vector_37" d="M22.6347 17.1614C28.0508 18.5886 31.5901 22.8986 34.5229 27.387C33.9306 27.9079 33.1172 28.6857 32.4607 29.0568C27.7439 33.2812 25.0751 37.8195 21.8355 43.1071C18.8956 35.0223 18.3247 26.9589 21.6714 18.8526C21.9283 18.3888 22.3564 17.5539 22.6347 17.1543V17.1614Z" fill="#FE87DD"/>
<path id="Vector_38" d="M22.6347 17.1614C28.0508 18.5886 31.5901 22.8986 34.5229 27.387C33.9307 27.9079 33.1172 28.6857 32.4607 29.0568C29.5921 24.1902 26.8306 21.4429 21.6714 18.8526C21.9283 18.3888 22.3564 17.5539 22.6347 17.1543V17.1614Z" fill="#F04FD2"/>
<path id="Vector_39" d="M95.6411 26.3594C98.2457 22.7345 101.129 19.0809 105.21 17.0544C107.237 16.0482 107.979 17.1828 108.528 18.9097C110.84 26.338 110.02 33.4524 107.501 40.6881C105.431 36.5065 101.107 30.9691 97.5749 27.9293C96.9256 27.3584 96.3333 26.8946 95.6411 26.3666V26.3594Z" fill="#FE87DD"/>
<path id="Vector_40" d="M95.6411 26.3594C98.2457 22.7345 101.129 19.0809 105.21 17.0544C107.237 16.0482 107.979 17.1828 108.528 18.9097C104.44 19.5876 100.893 23.1983 98.5668 26.4308C98.2243 26.916 97.8889 27.4155 97.5749 27.9222C96.9256 27.3513 96.3333 26.8875 95.6411 26.3594Z" fill="#F04FD2"/>
<path id="Vector_41" d="M151.757 26.1811C153.291 26.0384 155.41 26.0812 156.93 26.2668C163.738 27.0374 169.96 30.5054 174.199 35.8858C178.809 41.7871 180.714 48.5732 179.779 56.0301C178.844 63.016 175.184 69.3455 169.589 73.6269C163.288 78.5078 156.802 79.6067 149.06 78.6362C147.347 78.3651 145.206 77.5944 143.558 77.5088C140.704 77.3518 133.81 83.5671 131.192 81.6689C130.592 80.3916 133.211 72.4281 133.618 70.059C130.899 65.7419 128.673 61.7316 127.824 56.6295C125.975 45.5833 131.784 33.6023 142.074 28.8428C145.449 27.2801 148.168 26.7948 151.771 26.1883L151.757 26.1811Z" fill="#C6C4C5"/>
<path id="Vector_42" d="M151.749 29.0497C159.071 27.9793 167.562 31.9539 172.036 37.7196C175.975 42.7004 177.731 49.0655 176.882 55.3593C175.262 67.9111 164.016 77.8584 151.186 76.1529C148.667 75.9674 145.698 74.9613 143.35 74.1121C141.431 74.947 139.726 76.1886 137.842 77.0877C136.878 77.5515 134.652 78.365 134.973 76.3599C135.109 75.4964 135.287 74.6401 135.458 73.791C135.787 72.1569 136.15 70.5228 136.464 68.8887C133.089 64.122 131.105 61.3605 130.513 55.395C129.172 41.8298 138.134 30.3555 151.742 29.0497H151.749Z" fill="white"/>
<g id="Group">
<path id="Vector_43" d="M117.055 90.3687L102.302 87.5064C98.9706 86.8601 95.7463 89.0365 95.1001 92.3676L88.6999 125.355C88.0536 128.686 90.2301 131.91 93.5612 132.556L108.314 135.419C111.645 136.065 114.869 133.889 115.516 130.558L121.916 97.5703C122.562 94.2393 120.386 91.015 117.055 90.3687Z" fill="white"/>
<path id="Vector_44" d="M109.491 137.321C108.985 137.321 108.471 137.271 107.964 137.171L93.2219 134.31C88.9261 133.475 86.1146 129.307 86.9495 125.012L93.3503 92.0302C93.7571 89.9537 94.9416 88.1554 96.697 86.9709C98.4524 85.7864 100.565 85.3511 102.641 85.7578L117.384 88.6193C121.679 89.4542 124.491 93.6214 123.656 97.9172L117.255 130.899C116.848 132.975 115.664 134.773 113.908 135.958C112.581 136.85 111.054 137.321 109.491 137.321ZM101.128 89.183C99.0803 89.183 97.2536 90.6316 96.8468 92.7152L90.4461 125.697C90.2248 126.838 90.4603 128.002 91.1097 128.965C91.759 129.928 92.7509 130.585 93.8926 130.806L108.635 133.667C111.004 134.124 113.288 132.576 113.752 130.214L120.152 97.2321C120.374 96.0904 120.138 94.9273 119.489 93.964C118.839 93.0006 117.847 92.3441 116.706 92.1229L101.963 89.2615C101.685 89.2044 101.407 89.183 101.128 89.183Z" fill="#300585"/>
</g>
<g id="Group_2">
<path id="Vector_45" d="M115.771 127.987C114.758 127.987 113.43 127.902 112.182 127.266C110.419 126.36 109.42 124.526 109.756 122.799C109.848 122.3 110.084 121.908 110.441 121.636C110.876 121.301 111.361 121.28 111.518 121.28C111.582 121.28 111.654 121.28 111.725 121.28C111.104 120.837 110.391 120.188 110.005 119.26C109.413 117.826 109.884 116.177 111.104 115.435C111.454 115.221 111.853 115.086 112.289 115.036C112.018 114.815 111.782 114.536 111.604 114.172C111.111 113.138 111.447 111.81 112.41 111.018C113.124 110.433 113.966 110.248 114.622 110.162C115.143 110.091 115.742 110.048 116.349 110.048C117.705 110.048 121.023 110.262 122.643 112.21C124.484 114.429 124.056 117.797 123.849 119.417C123.649 120.987 123.435 122.407 122.85 123.791C122.1 125.561 120.852 126.874 119.339 127.488C118.376 127.88 117.362 127.959 116.42 127.987C116.206 127.987 115.992 128.001 115.778 128.001L115.771 127.987Z" fill="#9E30FA"/>
<path id="Vector_46" d="M116.342 111.468C118.204 111.468 120.502 111.868 121.537 113.116C122.878 114.736 122.671 117.319 122.429 119.232C122.258 120.587 122.065 121.965 121.53 123.228C120.994 124.491 120.067 125.64 118.797 126.153C118.033 126.46 117.191 126.524 116.363 126.553C116.164 126.553 115.964 126.56 115.764 126.56C114.744 126.56 113.723 126.453 112.824 125.996C111.754 125.447 110.919 124.255 111.147 123.071C111.169 122.964 111.204 122.842 111.29 122.778C111.368 122.721 111.468 122.707 111.568 122.707C111.661 122.707 111.747 122.707 111.839 122.707C112.225 122.707 112.631 122.735 113.024 122.735C113.716 122.735 114.372 122.643 114.822 122.15C114.886 122.079 114.95 121.986 114.943 121.886C114.936 121.793 114.865 121.715 114.793 121.651C114.237 121.123 113.538 120.773 112.881 120.359C112.232 119.945 111.597 119.431 111.304 118.718C111.012 118.004 111.161 117.062 111.825 116.663C112.089 116.506 112.382 116.449 112.681 116.449C113.074 116.449 113.488 116.541 113.88 116.62C114.308 116.706 114.758 116.763 115.193 116.763C115.792 116.763 116.385 116.656 116.906 116.37C117.084 116.27 117.262 116.12 117.255 115.921C117.241 115.714 117.041 115.585 116.856 115.492C116.014 115.064 115.143 114.708 114.244 114.429C113.716 114.265 113.117 114.08 112.874 113.58C112.638 113.095 112.874 112.481 113.295 112.139C113.709 111.796 114.265 111.668 114.801 111.589C115.236 111.525 115.764 111.489 116.328 111.489M116.342 108.614C115.671 108.614 115.008 108.656 114.422 108.742C113.645 108.849 112.496 109.092 111.504 109.912C110.148 111.025 109.627 112.802 110.148 114.351C108.493 115.507 107.865 117.797 108.692 119.795C108.849 120.166 109.035 120.502 109.242 120.801C108.878 121.173 108.514 121.722 108.357 122.528C107.907 124.876 109.213 127.345 111.532 128.537C113.074 129.329 114.694 129.414 115.778 129.414C116.007 129.414 116.235 129.414 116.463 129.4C117.541 129.364 118.704 129.272 119.874 128.794C121.744 128.037 123.264 126.453 124.163 124.334C124.876 122.657 125.098 120.88 125.262 119.581C125.49 117.762 125.968 113.973 123.735 111.282C121.801 108.956 118.276 108.606 116.342 108.606V108.614Z" fill="#300585"/>
</g>
<path id="Vector_47" d="M87.6703 104.018C87.656 103.262 87.5918 102.434 87.078 101.885C88.0485 101.642 89.019 101.406 89.9823 101.164C90.9884 106.623 89.8539 112.217 88.7335 117.647C88.4909 118.818 88.2483 119.995 87.8487 121.115C87.7845 121.287 87.706 121.472 87.5347 121.536C87.3849 121.594 87.2065 121.536 87.0638 121.451C84.6447 120.109 85.9863 116.449 86.4786 114.479C87.3278 111.061 87.7345 107.529 87.6703 104.004V104.018Z" fill="#F04FD2"/>
<path id="Vector_48" d="M103.297 99.6512C104.89 99.6512 106.18 98.3605 106.18 96.7683C106.18 95.1762 104.89 93.8855 103.297 93.8855C101.705 93.8855 100.415 95.1762 100.415 96.7683C100.415 98.3605 101.705 99.6512 103.297 99.6512Z" fill="#9E30FA"/>
<path id="Vector 502" d="M142 53.7771L150 61.2771L163.5 45.2771" stroke="#7231BF" stroke-width="4" stroke-linecap="round"/>
</g>
<defs><clipPath id="clip0_41647_9565">
<rect width="180" height="168.554" fill="white"/>
</clipPath></defs>
</svg>
