<svg width="312" height="208" viewBox="0 0 312 208" fill="none" xmlns="http://www.w3.org/2000/svg">
<g opacity="0.2">
<path fill-rule="evenodd" clip-rule="evenodd" d="M0 76.2949V95.6094L55.7807 93.9917V116H79.2732V93.3104L96.49 92.8111V73.1568L79.2732 73.8283V0H48.5173L0 76.2949ZM56.2346 26.7344H55.3267L24.741 75.0488V75.9551L56.2346 74.7268V26.7344Z" fill="#D2E9FF"/>
<path fill-rule="evenodd" clip-rule="evenodd" d="M218.313 76.2949V95.6094H274.094V116H297.587V95.6094H312V75.9551H297.587V0H266.831L218.313 76.2949ZM274.548 26.7344H273.64L243.054 75.0488V75.9551H274.548V26.7344Z" fill="#D2E9FF"/>
<path fill-rule="evenodd" clip-rule="evenodd" d="M132.716 109.054C139.608 113.648 147.833 115.964 157.393 116C166.952 116 175.16 113.703 182.014 109.109C188.869 104.515 194.13 97.8608 197.799 89.1466C201.504 80.4325 203.357 72.6337 203.357 60.3464C203.394 48.1321 201.56 35.0388 197.854 26.4705C194.149 17.8658 188.851 11.3028 181.959 6.78171C175.104 2.26057 166.915 0 157.393 0C147.87 0 139.663 2.26057 132.771 6.78171C125.917 11.2664 120.637 17.8111 116.931 26.4158C113.263 35.0206 111.429 45.4301 111.429 57.6445C111.392 69.8953 113.208 80.3778 116.876 89.0919C120.581 97.8061 125.861 104.46 132.716 109.054ZM173.011 86.6855C169.12 93.1391 163.914 96.3659 157.393 96.3659C153.058 96.3659 149.278 94.9439 146.055 92.1C142.831 89.2196 140.33 84.9172 138.552 79.1928C136.81 73.432 135.939 66.2493 135.939 57.6445C135.976 44.9197 137.94 35.367 141.831 28.9863C145.721 22.6057 150.909 19.4154 157.393 19.4154C161.728 19.4154 165.489 20.8373 168.675 23.6813C171.899 26.5252 174.381 30.7729 176.123 36.4243C177.901 42.0757 178.791 49.1491 178.791 57.6445C178.828 70.5516 176.901 80.232 173.011 86.6855Z" fill="#D2E9FF"/>
</g>
<rect x="101.5" y="59.5" width="109.257" height="147.717" rx="2.98638" fill="white"/>
<mask id="mask0_14773_165345" style="mask-type:alpha" maskUnits="userSpaceOnUse" x="104" y="62" width="11" height="11">
<rect x="104.486" y="62.4864" width="10.4591" height="10.4591" fill="#D9D9D9"/>
</mask>
<g mask="url(#mask0_14773_165345)">
<path d="M107.896 68.1518L110.337 70.5922L109.716 71.2024L106.229 67.716L109.716 64.2296L110.337 64.8397L107.896 67.2802H113.202V68.1518H107.896Z" fill="#9BC8FF"/>
</g>
<mask id="mask1_14773_165345" style="mask-type:alpha" maskUnits="userSpaceOnUse" x="116" y="62" width="12" height="11">
<rect x="116.688" y="62.4864" width="10.4591" height="10.4591" fill="#D9D9D9"/>
</mask>
<g mask="url(#mask1_14773_165345)">
<path d="M123.737 68.1518H118.432V67.2802H123.737L121.297 64.8397L121.918 64.2296L125.404 67.716L121.918 71.2024L121.297 70.5922L123.737 68.1518Z" fill="#9BC8FF"/>
</g>
<mask id="mask2_14773_165345" style="mask-type:alpha" maskUnits="userSpaceOnUse" x="136" y="63" width="10" height="10">
<rect x="136.735" y="63.358" width="8.71595" height="8.71595" fill="#D9D9D9"/>
</mask>
<g mask="url(#mask2_14773_165345)">
<path d="M143.68 70.7664L141.51 68.5965C141.329 68.7296 141.13 68.834 140.913 68.9097C140.696 68.9854 140.466 69.0232 140.221 69.0232C139.616 69.0232 139.101 68.8113 138.678 68.3877C138.254 67.964 138.042 67.4495 138.042 66.8442C138.042 66.2389 138.254 65.7244 138.678 65.3008C139.101 64.8771 139.616 64.6652 140.221 64.6652C140.826 64.6652 141.341 64.8771 141.764 65.3008C142.188 65.7244 142.4 66.239 142.4 66.8445C142.4 67.0889 142.362 67.3195 142.286 67.5361C142.211 67.7527 142.106 67.9519 141.973 68.1334L144.143 70.3033L143.68 70.7664ZM140.221 68.3695C140.645 68.3695 141.005 68.2212 141.301 67.9246C141.598 67.628 141.746 67.2679 141.746 66.8442C141.746 66.4205 141.598 66.0604 141.301 65.7638C141.005 65.4672 140.645 65.3189 140.221 65.3189C139.797 65.3189 139.437 65.4672 139.141 65.7638C138.844 66.0604 138.696 66.4205 138.696 66.8442C138.696 67.2679 138.844 67.628 139.141 67.9246C139.437 68.2212 139.797 68.3695 140.221 68.3695Z" fill="#9BC8FF"/>
</g>
<path d="M150.452 66.8627C150.484 66.908 150.494 66.9794 150.484 67.0771C150.477 67.1712 150.459 67.274 150.431 67.3856C150.404 67.4937 150.37 67.6018 150.332 67.7098C150.294 67.8144 150.262 67.9016 150.238 67.9713C150.179 68.1317 150.126 68.2816 150.081 68.4211C150.036 68.5605 149.982 68.7139 149.919 68.8813C149.898 68.9301 149.877 68.9789 149.856 69.0277C149.839 69.0765 149.816 69.1201 149.788 69.1584C149.764 69.1968 149.732 69.2282 149.694 69.2526C149.659 69.277 149.616 69.2892 149.563 69.2892C149.504 69.2892 149.452 69.2683 149.406 69.2264C149.365 69.1846 149.328 69.1323 149.297 69.0695C149.269 69.0068 149.244 68.9405 149.223 68.8708C149.202 68.8011 149.185 68.7401 149.171 68.6878C149.126 68.5344 149.086 68.3949 149.051 68.2694C149.016 68.1404 148.985 68.0254 148.957 67.9243C148.925 68.0254 148.894 68.1352 148.863 68.2537C148.831 68.3723 148.791 68.5065 148.742 68.6564C148.728 68.7087 148.711 68.7732 148.69 68.8499C148.669 68.9231 148.643 68.9928 148.612 69.0591C148.584 69.1253 148.547 69.1811 148.502 69.2264C148.46 69.2752 148.409 69.2961 148.35 69.2892C148.266 69.2857 148.193 69.2526 148.13 69.1898C148.071 69.1236 148.019 69.0451 147.974 68.9545C147.932 68.8638 147.895 68.7697 147.864 68.6721C147.832 68.5745 147.806 68.489 147.785 68.4158C147.757 68.3217 147.724 68.2171 147.686 68.1021C147.648 67.987 147.609 67.8702 147.571 67.7517C147.536 67.6297 147.503 67.5094 147.472 67.3908C147.44 67.2688 147.419 67.1572 147.409 67.0561C147.402 66.9899 147.414 66.9289 147.445 66.8731C147.48 66.8173 147.524 66.779 147.576 66.7581C147.632 66.7337 147.691 66.7284 147.754 66.7424C147.82 66.7563 147.879 66.7982 147.932 66.8679C147.96 66.9027 147.984 66.9463 148.005 66.9986C148.029 67.0509 148.05 67.1084 148.068 67.1712C148.085 67.2305 148.103 67.2915 148.12 67.3542C148.137 67.417 148.155 67.478 148.172 67.5373C148.211 67.6697 148.242 67.7743 148.266 67.851C148.294 67.9243 148.322 68.001 148.35 68.0811C148.374 68.001 148.399 67.9243 148.423 67.851C148.451 67.7743 148.484 67.6697 148.523 67.5373C148.537 67.4954 148.552 67.4484 148.57 67.3961C148.591 67.3403 148.612 67.288 148.632 67.2392C148.657 67.1904 148.683 67.145 148.711 67.1032C148.742 67.0579 148.775 67.0248 148.81 67.0038C148.887 66.9516 148.957 66.9394 149.019 66.9672C149.082 66.9916 149.136 67.0352 149.182 67.098C149.227 67.1607 149.265 67.2339 149.297 67.3176C149.331 67.3978 149.359 67.471 149.38 67.5373C149.401 67.607 149.42 67.668 149.438 67.7203C149.455 67.7691 149.471 67.8144 149.485 67.8563C149.499 67.8981 149.511 67.9382 149.521 67.9765C149.535 68.0149 149.549 68.055 149.563 68.0968C149.577 68.055 149.589 68.0149 149.6 67.9765C149.614 67.9382 149.628 67.8981 149.642 67.8563C149.656 67.8144 149.671 67.7691 149.689 67.7203C149.706 67.668 149.725 67.607 149.746 67.5373C149.76 67.4919 149.774 67.4396 149.788 67.3804C149.806 67.3211 149.823 67.2618 149.84 67.2026C149.858 67.1398 149.875 67.0805 149.893 67.0248C149.914 66.969 149.936 66.9219 149.961 66.8836C149.985 66.8452 150.018 66.8138 150.06 66.7894C150.102 66.7615 150.146 66.7459 150.191 66.7424C150.236 66.7354 150.282 66.7406 150.327 66.7581C150.376 66.7755 150.417 66.8104 150.452 66.8627ZM152.553 68.4995C152.595 68.489 152.637 68.4821 152.678 68.4786C152.724 68.4751 152.764 68.4803 152.799 68.4943C152.837 68.5082 152.868 68.5326 152.893 68.5675C152.917 68.5989 152.929 68.6442 152.929 68.7035C152.929 68.7453 152.919 68.7854 152.898 68.8237C152.877 68.8621 152.851 68.897 152.82 68.9283C152.788 68.9597 152.753 68.9876 152.715 69.012C152.677 69.0329 152.64 69.0504 152.605 69.0643C152.504 69.1096 152.387 69.1445 152.255 69.1689C152.126 69.1933 151.992 69.202 151.852 69.195C151.664 69.1881 151.483 69.1515 151.308 69.0852C151.137 69.0155 151.003 68.9022 150.906 68.7453C150.815 68.5919 150.761 68.4211 150.743 68.2328C150.726 68.0445 150.735 67.8667 150.77 67.6994C150.808 67.4972 150.872 67.3333 150.963 67.2078C151.057 67.0788 151.169 66.976 151.298 66.8993C151.455 66.8086 151.631 66.7615 151.826 66.7581C152.021 66.7546 152.208 66.7929 152.386 66.8731C152.504 66.9254 152.61 66.9969 152.705 67.0875C152.799 67.1747 152.87 67.281 152.919 67.4065C152.933 67.4379 152.943 67.4763 152.95 67.5216C152.961 67.5669 152.968 67.6157 152.971 67.668C152.975 67.7168 152.975 67.7656 152.971 67.8144C152.968 67.8632 152.959 67.9068 152.945 67.9452C152.924 68.0079 152.898 68.0567 152.867 68.0916C152.835 68.1265 152.795 68.1526 152.746 68.17C152.698 68.1875 152.638 68.1997 152.569 68.2067C152.502 68.2101 152.422 68.2136 152.328 68.2171C152.244 68.2206 152.166 68.2223 152.093 68.2223C152.02 68.2223 151.945 68.2223 151.868 68.2223C151.791 68.2189 151.711 68.2171 151.627 68.2171C151.547 68.2136 151.456 68.2101 151.355 68.2067C151.345 68.2764 151.354 68.3374 151.382 68.3897C151.413 68.4385 151.455 68.4803 151.507 68.5152C151.559 68.5466 151.619 68.571 151.685 68.5884C151.751 68.6058 151.816 68.6163 151.878 68.6198C151.997 68.6268 152.11 68.618 152.218 68.5936C152.326 68.5657 152.438 68.5344 152.553 68.4995ZM152.328 67.485C152.262 67.4083 152.192 67.3525 152.119 67.3176C152.063 67.2932 152.004 67.2828 151.941 67.2862C151.882 67.2862 151.824 67.295 151.768 67.3124C151.667 67.3368 151.582 67.3891 151.512 67.4693C151.505 67.4763 151.493 67.4937 151.476 67.5216C151.458 67.546 151.441 67.5721 151.423 67.6C151.409 67.6279 151.399 67.6541 151.392 67.6785C151.385 67.7029 151.388 67.7151 151.402 67.7151H152.427C152.424 67.6663 152.415 67.6262 152.401 67.5948C152.387 67.5599 152.363 67.5233 152.328 67.485ZM153.404 65.9109C153.411 65.7854 153.45 65.6843 153.52 65.6076C153.593 65.5309 153.696 65.5099 153.828 65.5448C153.891 65.5622 153.936 65.5884 153.964 65.6232C153.995 65.6581 154.016 65.6999 154.027 65.7488C154.041 65.7941 154.048 65.8446 154.048 65.9004C154.048 65.9527 154.048 66.005 154.048 66.0573V66.779C154.044 66.8069 154.043 66.8348 154.043 66.8627C154.046 66.8871 154.048 66.9097 154.048 66.9306V66.9986H154.178C154.217 66.9986 154.253 66.9986 154.288 66.9986C154.327 66.9986 154.36 66.9969 154.388 66.9934C154.579 66.9934 154.743 67.0213 154.879 67.0771C155.019 67.1328 155.13 67.2113 155.214 67.3124C155.301 67.41 155.364 67.5285 155.402 67.668C155.444 67.804 155.463 67.9539 155.46 68.1177C155.456 68.313 155.425 68.4803 155.366 68.6198C155.306 68.7592 155.223 68.8743 155.115 68.9649C155.006 69.0556 154.876 69.1236 154.722 69.1689C154.572 69.2107 154.403 69.2316 154.215 69.2316C153.999 69.2316 153.835 69.2299 153.723 69.2264C153.612 69.2229 153.532 69.1916 153.483 69.1323C153.438 69.073 153.413 68.9702 153.41 68.8237C153.406 68.6773 153.404 68.4629 153.404 68.1805C153.404 67.9086 153.404 67.6401 153.404 67.3751C153.408 67.1102 153.408 66.8435 153.404 66.575C153.404 66.5402 153.403 66.5036 153.399 66.4652C153.399 66.4269 153.399 66.3833 153.399 66.3345C153.399 66.2857 153.399 66.2281 153.399 66.1619C153.399 66.0922 153.401 66.0085 153.404 65.9109ZM154.382 68.6459C154.574 68.6355 154.707 68.5832 154.78 68.489C154.818 68.4368 154.848 68.374 154.869 68.3008C154.89 68.2276 154.898 68.1544 154.895 68.0811C154.891 68.0079 154.876 67.9382 154.848 67.872C154.823 67.8022 154.783 67.7447 154.728 67.6994C154.679 67.6575 154.63 67.6279 154.581 67.6105C154.532 67.5896 154.482 67.5774 154.429 67.5739C154.377 67.5669 154.321 67.5652 154.262 67.5686C154.203 67.5686 154.135 67.5704 154.058 67.5739V68.2014L154.048 68.6355C154.083 68.639 154.119 68.6424 154.158 68.6459C154.224 68.6529 154.299 68.6529 154.382 68.6459ZM156.524 69.216C156.524 69.3066 156.491 69.3833 156.425 69.4461C156.362 69.5123 156.286 69.5454 156.195 69.5454C156.104 69.5454 156.026 69.5123 155.96 69.4461C155.897 69.3833 155.865 69.3066 155.865 69.216C155.865 69.1253 155.897 69.0469 155.96 68.9806C156.026 68.9144 156.104 68.8813 156.195 68.8813C156.286 68.8813 156.362 68.9144 156.425 68.9806C156.491 69.0469 156.524 69.1253 156.524 69.216ZM159.815 65.6755C159.853 65.7209 159.872 65.7679 159.872 65.8167C159.872 65.8377 159.871 65.8603 159.867 65.8847C159.867 65.9056 159.865 65.9248 159.862 65.9422C159.851 65.9806 159.829 66.0172 159.794 66.0521C159.766 66.073 159.728 66.0887 159.679 66.0991C159.654 66.1061 159.63 66.1113 159.606 66.1148C159.581 66.1183 159.555 66.1235 159.527 66.1305C159.503 66.134 159.478 66.1357 159.454 66.1357C159.43 66.1357 159.403 66.1357 159.376 66.1357H159.109C159.046 66.1392 158.983 66.141 158.921 66.141C158.861 66.141 158.802 66.141 158.743 66.141C158.746 66.249 158.748 66.3658 158.748 66.4914C158.748 66.6134 158.746 66.7563 158.743 66.9202C158.743 67.084 158.741 67.274 158.738 67.4902C158.738 67.7064 158.738 67.9574 158.738 68.2433V68.6407C158.738 68.6756 158.739 68.7017 158.743 68.7191C158.743 68.7331 158.743 68.747 158.743 68.761C158.743 68.7714 158.741 68.7854 158.738 68.8028C158.731 68.8342 158.725 68.8708 158.722 68.9126C158.722 68.9301 158.72 68.9475 158.717 68.9649C158.713 68.9789 158.708 68.9946 158.701 69.012C158.687 69.0259 158.68 69.0364 158.68 69.0434L158.664 69.0748C158.647 69.1096 158.614 69.1427 158.565 69.1741C158.488 69.2125 158.403 69.2212 158.309 69.2003C158.249 69.1933 158.204 69.1776 158.173 69.1532C158.141 69.1218 158.119 69.0904 158.105 69.0591C158.084 69.0207 158.072 68.9841 158.068 68.9492C158.058 68.9179 158.052 68.8848 158.052 68.8499V66.1619C158.032 66.1619 157.988 66.1619 157.922 66.1619C157.855 66.1619 157.784 66.1619 157.707 66.1619C157.634 66.1584 157.564 66.1549 157.498 66.1514C157.432 66.1479 157.387 66.1445 157.362 66.141C157.341 66.1375 157.308 66.1323 157.263 66.1253C157.221 66.1183 157.186 66.1113 157.158 66.1044C157.085 66.0834 157.027 66.0503 156.986 66.005C156.947 65.9597 156.928 65.9091 156.928 65.8533C156.928 65.8324 156.928 65.8115 156.928 65.7906C156.928 65.7697 156.932 65.7505 156.939 65.7331C156.949 65.6912 156.977 65.6564 157.022 65.6285C157.036 65.618 157.057 65.6058 157.085 65.5919C157.116 65.5744 157.146 65.5622 157.174 65.5553C157.216 65.5413 157.268 65.5309 157.331 65.5239C157.359 65.5204 157.387 65.5186 157.414 65.5186C157.442 65.5186 157.472 65.5186 157.503 65.5186C157.625 65.5186 157.74 65.5186 157.848 65.5186C157.96 65.5186 158.077 65.5169 158.199 65.5134C158.401 65.5099 158.602 65.5099 158.8 65.5134C159.002 65.5134 159.203 65.5169 159.402 65.5239C159.447 65.5274 159.491 65.5326 159.532 65.5396C159.574 65.5465 159.616 65.5587 159.658 65.5762C159.689 65.5866 159.719 65.6006 159.747 65.618C159.775 65.632 159.797 65.6511 159.815 65.6755ZM162.776 66.8627C162.807 66.908 162.817 66.9794 162.807 67.0771C162.8 67.1712 162.783 67.274 162.755 67.3856C162.727 67.4937 162.694 67.6018 162.655 67.7098C162.617 67.8144 162.586 67.9016 162.561 67.9713C162.502 68.1317 162.45 68.2816 162.404 68.4211C162.359 68.5605 162.305 68.7139 162.242 68.8813C162.221 68.9301 162.2 68.9789 162.179 69.0277C162.162 69.0765 162.139 69.1201 162.111 69.1584C162.087 69.1968 162.056 69.2282 162.017 69.2526C161.982 69.277 161.939 69.2892 161.887 69.2892C161.827 69.2892 161.775 69.2683 161.73 69.2264C161.688 69.1846 161.651 69.1323 161.62 69.0695C161.592 69.0068 161.568 68.9405 161.547 68.8708C161.526 68.8011 161.508 68.7401 161.494 68.6878C161.449 68.5344 161.409 68.3949 161.374 68.2694C161.339 68.1404 161.308 68.0254 161.28 67.9243C161.249 68.0254 161.217 68.1352 161.186 68.2537C161.154 68.3723 161.114 68.5065 161.065 68.6564C161.052 68.7087 161.034 68.7732 161.013 68.8499C160.992 68.9231 160.966 68.9928 160.935 69.0591C160.907 69.1253 160.87 69.1811 160.825 69.2264C160.783 69.2752 160.733 69.2961 160.673 69.2892C160.59 69.2857 160.516 69.2526 160.454 69.1898C160.394 69.1236 160.342 69.0451 160.297 68.9545C160.255 68.8638 160.218 68.7697 160.187 68.6721C160.156 68.5745 160.129 68.489 160.108 68.4158C160.081 68.3217 160.047 68.2171 160.009 68.1021C159.971 67.987 159.932 67.8702 159.894 67.7517C159.859 67.6297 159.826 67.5094 159.795 67.3908C159.763 67.2688 159.742 67.1572 159.732 67.0561C159.725 66.9899 159.737 66.9289 159.769 66.8731C159.803 66.8173 159.847 66.779 159.899 66.7581C159.955 66.7337 160.014 66.7284 160.077 66.7424C160.143 66.7563 160.203 66.7982 160.255 66.8679C160.283 66.9027 160.307 66.9463 160.328 66.9986C160.353 67.0509 160.373 67.1084 160.391 67.1712C160.408 67.2305 160.426 67.2915 160.443 67.3542C160.461 67.417 160.478 67.478 160.495 67.5373C160.534 67.6697 160.565 67.7743 160.59 67.851C160.617 67.9243 160.645 68.001 160.673 68.0811C160.698 68.001 160.722 67.9243 160.746 67.851C160.774 67.7743 160.807 67.6697 160.846 67.5373C160.86 67.4954 160.875 67.4484 160.893 67.3961C160.914 67.3403 160.935 67.288 160.956 67.2392C160.98 67.1904 161.006 67.145 161.034 67.1032C161.065 67.0579 161.099 67.0248 161.133 67.0038C161.21 66.9516 161.28 66.9394 161.343 66.9672C161.405 66.9916 161.459 67.0352 161.505 67.098C161.55 67.1607 161.588 67.2339 161.62 67.3176C161.655 67.3978 161.683 67.471 161.703 67.5373C161.724 67.607 161.744 67.668 161.761 67.7203C161.778 67.7691 161.794 67.8144 161.808 67.8563C161.822 67.8981 161.834 67.9382 161.845 67.9765C161.859 68.0149 161.873 68.055 161.887 68.0968C161.9 68.055 161.913 68.0149 161.923 67.9765C161.937 67.9382 161.951 67.8981 161.965 67.8563C161.979 67.8144 161.995 67.7691 162.012 67.7203C162.029 67.668 162.049 67.607 162.07 67.5373C162.084 67.4919 162.097 67.4396 162.111 67.3804C162.129 67.3211 162.146 67.2618 162.164 67.2026C162.181 67.1398 162.199 67.0805 162.216 67.0248C162.237 66.969 162.26 66.9219 162.284 66.8836C162.308 66.8452 162.342 66.8138 162.383 66.7894C162.425 66.7615 162.469 66.7459 162.514 66.7424C162.559 66.7354 162.605 66.7406 162.65 66.7581C162.699 66.7755 162.741 66.8104 162.776 66.8627ZM163.745 67.0143C163.85 66.962 163.959 66.9254 164.074 66.9045C164.189 66.8801 164.303 66.8749 164.414 66.8888C164.529 66.8993 164.639 66.9289 164.744 66.9777C164.848 67.023 164.946 67.0893 165.037 67.1764C165.127 67.2671 165.197 67.3664 165.246 67.4745C165.295 67.5826 165.33 67.7029 165.35 67.8354C165.364 67.926 165.387 68.0097 165.418 68.0864C165.45 68.1631 165.483 68.2398 165.518 68.3165C165.556 68.3932 165.591 68.4699 165.622 68.5466C165.657 68.6233 165.685 68.7035 165.706 68.7871C165.723 68.8673 165.717 68.9458 165.685 69.0225C165.657 69.0957 165.598 69.141 165.507 69.1584C165.455 69.1689 165.404 69.1654 165.356 69.148C165.31 69.1271 165.269 69.0992 165.23 69.0643C165.192 69.0259 165.157 68.9859 165.126 68.944C165.098 68.8987 165.072 68.8569 165.047 68.8185C164.967 68.9231 164.88 69.005 164.786 69.0643C164.692 69.1201 164.578 69.1567 164.446 69.1741C164.334 69.1881 164.228 69.1916 164.127 69.1846C164.026 69.1776 163.918 69.1584 163.802 69.1271C163.653 69.0887 163.529 69.0225 163.431 68.9283C163.337 68.8307 163.264 68.7191 163.212 68.5936C163.163 68.4646 163.137 68.3269 163.133 68.1805C163.13 68.0341 163.147 67.8894 163.185 67.7464C163.234 67.5582 163.307 67.4048 163.405 67.2862C163.503 67.1677 163.616 67.0771 163.745 67.0143ZM163.876 67.6262C163.827 67.675 163.789 67.7325 163.761 67.7987C163.733 67.865 163.715 67.9347 163.708 68.0079C163.705 68.0811 163.712 68.1544 163.729 68.2276C163.747 68.3008 163.775 68.3653 163.813 68.4211C163.848 68.4699 163.907 68.5117 163.991 68.5466C164.074 68.5779 164.162 68.5971 164.252 68.6041C164.357 68.6111 164.447 68.5832 164.524 68.5204C164.604 68.4577 164.664 68.3792 164.702 68.2851C164.744 68.1875 164.763 68.0846 164.759 67.9765C164.756 67.865 164.726 67.7639 164.671 67.6732C164.629 67.607 164.573 67.5582 164.503 67.5268C164.437 67.4954 164.366 67.4797 164.289 67.4797C164.212 67.4763 164.135 67.4885 164.059 67.5163C163.986 67.5408 163.925 67.5774 163.876 67.6262ZM167.182 68.0132C167.259 68.0933 167.314 68.1526 167.349 68.191C167.387 68.2258 167.414 68.252 167.428 68.2694C167.445 68.2868 167.457 68.2973 167.464 68.3008C167.471 68.3043 167.483 68.3147 167.501 68.3322C167.518 68.3496 167.546 68.3775 167.584 68.4158C167.623 68.4507 167.68 68.5082 167.757 68.5884C167.82 68.6512 167.87 68.7244 167.909 68.8081C167.951 68.8882 167.947 68.9754 167.898 69.0695C167.87 69.1183 167.839 69.1532 167.804 69.1741C167.769 69.1916 167.731 69.1985 167.689 69.195C167.651 69.1916 167.609 69.1794 167.564 69.1584C167.522 69.1375 167.48 69.1114 167.438 69.08C167.358 69.0207 167.281 68.9527 167.208 68.876C167.135 68.7958 167.075 68.7348 167.03 68.693C166.999 68.6616 166.98 68.6407 166.973 68.6302C166.966 68.6233 166.959 68.618 166.952 68.6146C166.945 68.6076 166.938 68.6006 166.931 68.5936C166.906 68.5692 166.88 68.5448 166.852 68.5204C166.824 68.496 166.797 68.4699 166.769 68.442V68.6459C166.769 68.6843 166.77 68.7122 166.774 68.7296C166.774 68.7645 166.772 68.7906 166.769 68.8081C166.758 68.8464 166.753 68.883 166.753 68.9179C166.749 68.9353 166.746 68.9527 166.743 68.9702C166.739 68.9841 166.734 68.9998 166.727 69.0172C166.723 69.0242 166.72 69.0294 166.716 69.0329C166.716 69.0364 166.716 69.0416 166.716 69.0486C166.713 69.0556 166.709 69.0608 166.706 69.0643C166.706 69.0678 166.704 69.073 166.701 69.08C166.683 69.1149 166.655 69.148 166.617 69.1794C166.551 69.2177 166.469 69.2282 166.371 69.2107C166.319 69.2003 166.279 69.1811 166.251 69.1532C166.22 69.1323 166.199 69.1027 166.188 69.0643C166.181 69.0469 166.174 69.0294 166.167 69.012C166.164 68.9911 166.159 68.9719 166.152 68.9545C166.145 68.937 166.141 68.9214 166.141 68.9074C166.141 68.89 166.141 68.876 166.141 68.8656V65.8899C166.141 65.869 166.141 65.8481 166.141 65.8272C166.141 65.8063 166.143 65.7854 166.146 65.7644C166.15 65.7435 166.153 65.7243 166.157 65.7069C166.164 65.686 166.171 65.6668 166.178 65.6494C166.192 65.6145 166.209 65.5866 166.23 65.5657C166.247 65.5483 166.265 65.5361 166.282 65.5291C166.303 65.5186 166.322 65.5099 166.34 65.503C166.357 65.4995 166.376 65.4977 166.397 65.4977C166.422 65.4942 166.444 65.4925 166.465 65.4925C166.514 65.4925 166.563 65.5064 166.612 65.5343C166.657 65.5657 166.69 65.6058 166.711 65.6546C166.739 65.7209 166.753 65.7854 166.753 65.8481C166.756 65.883 166.76 65.937 166.763 66.0102C166.767 66.08 166.769 66.1323 166.769 66.1671V66.188C166.772 66.3031 166.774 66.4129 166.774 66.5175C166.774 66.6221 166.774 66.7354 166.774 66.8574C166.77 66.9794 166.769 67.0962 166.769 67.2078C166.769 67.3159 166.769 67.424 166.769 67.532V67.5896C166.797 67.5617 166.824 67.5355 166.852 67.5111C166.88 67.4867 166.906 67.4606 166.931 67.4327C166.945 67.4222 166.959 67.41 166.973 67.3961L167.03 67.3385C167.075 67.2932 167.135 67.2322 167.208 67.1555C167.281 67.0753 167.358 67.0056 167.438 66.9463C167.525 66.8836 167.609 66.8452 167.689 66.8313C167.773 66.8173 167.842 66.8592 167.898 66.9568C167.947 67.0509 167.951 67.1398 167.909 67.2235C167.87 67.3037 167.82 67.3786 167.757 67.4484C167.68 67.5285 167.623 67.5878 167.584 67.6262C167.546 67.661 167.518 67.6872 167.501 67.7046C167.483 67.7186 167.471 67.7273 167.464 67.7308C167.457 67.7342 167.445 67.7447 167.428 67.7621C167.414 67.7761 167.387 67.8022 167.349 67.8406C167.314 67.8754 167.259 67.933 167.182 68.0132ZM170.167 68.4995C170.209 68.489 170.251 68.4821 170.292 68.4786C170.338 68.4751 170.378 68.4803 170.413 68.4943C170.451 68.5082 170.483 68.5326 170.507 68.5675C170.531 68.5989 170.544 68.6442 170.544 68.7035C170.544 68.7453 170.533 68.7854 170.512 68.8237C170.491 68.8621 170.465 68.897 170.434 68.9283C170.402 68.9597 170.367 68.9876 170.329 69.012C170.291 69.0329 170.254 69.0504 170.219 69.0643C170.118 69.1096 170.001 69.1445 169.869 69.1689C169.74 69.1933 169.606 69.202 169.466 69.195C169.278 69.1881 169.097 69.1515 168.922 69.0852C168.752 69.0155 168.617 68.9022 168.52 68.7453C168.429 68.5919 168.375 68.4211 168.358 68.2328C168.34 68.0445 168.349 67.8667 168.384 67.6994C168.422 67.4972 168.487 67.3333 168.577 67.2078C168.671 67.0788 168.783 66.976 168.912 66.8993C169.069 66.8086 169.245 66.7615 169.44 66.7581C169.635 66.7546 169.822 66.7929 170 66.8731C170.118 66.9254 170.225 66.9969 170.319 67.0875C170.413 67.1747 170.484 67.281 170.533 67.4065C170.547 67.4379 170.557 67.4763 170.564 67.5216C170.575 67.5669 170.582 67.6157 170.585 67.668C170.589 67.7168 170.589 67.7656 170.585 67.8144C170.582 67.8632 170.573 67.9068 170.559 67.9452C170.538 68.0079 170.512 68.0567 170.481 68.0916C170.449 68.1265 170.409 68.1526 170.36 68.17C170.312 68.1875 170.252 68.1997 170.183 68.2067C170.116 68.2101 170.036 68.2136 169.942 68.2171C169.858 68.2206 169.78 68.2223 169.707 68.2223C169.634 68.2223 169.559 68.2223 169.482 68.2223C169.405 68.2189 169.325 68.2171 169.241 68.2171C169.161 68.2136 169.071 68.2101 168.969 68.2067C168.959 68.2764 168.968 68.3374 168.996 68.3897C169.027 68.4385 169.069 68.4803 169.121 68.5152C169.173 68.5466 169.233 68.571 169.299 68.5884C169.365 68.6058 169.43 68.6163 169.492 68.6198C169.611 68.6268 169.724 68.618 169.832 68.5936C169.94 68.5657 170.052 68.5344 170.167 68.4995ZM169.942 67.485C169.876 67.4083 169.806 67.3525 169.733 67.3176C169.677 67.2932 169.618 67.2828 169.555 67.2862C169.496 67.2862 169.438 67.295 169.383 67.3124C169.281 67.3368 169.196 67.3891 169.126 67.4693C169.119 67.4763 169.107 67.4937 169.09 67.5216C169.072 67.546 169.055 67.5721 169.037 67.6C169.023 67.6279 169.013 67.6541 169.006 67.6785C168.999 67.7029 169.003 67.7151 169.016 67.7151H170.041C170.038 67.6663 170.029 67.6262 170.015 67.5948C170.001 67.5599 169.977 67.5233 169.942 67.485ZM171.651 69.216C171.651 69.3066 171.618 69.3833 171.552 69.4461C171.489 69.5123 171.413 69.5454 171.322 69.5454C171.231 69.5454 171.153 69.5123 171.087 69.4461C171.024 69.3833 170.992 69.3066 170.992 69.216C170.992 69.1253 171.024 69.0469 171.087 68.9806C171.153 68.9144 171.231 68.8813 171.322 68.8813C171.413 68.8813 171.489 68.9144 171.552 68.9806C171.618 69.0469 171.651 69.1253 171.651 69.216ZM174 67.2026C174.028 67.2514 174.042 67.3037 174.042 67.3595C174.046 67.4152 174.034 67.4675 174.006 67.5163C173.974 67.5791 173.929 67.6227 173.87 67.6471C173.814 67.668 173.751 67.6697 173.681 67.6523C173.65 67.6453 173.622 67.6331 173.598 67.6157C173.573 67.5983 173.547 67.5808 173.519 67.5634C173.495 67.5425 173.465 67.5233 173.43 67.5059C173.399 67.4885 173.357 67.4763 173.305 67.4693C173.253 67.4623 173.195 67.4623 173.132 67.4693C173.073 67.4763 173.019 67.4902 172.97 67.5111C172.894 67.5495 172.832 67.6087 172.787 67.6889C172.742 67.7656 172.712 67.8493 172.698 67.9399C172.684 68.0271 172.686 68.116 172.703 68.2067C172.724 68.2973 172.763 68.374 172.819 68.4368C172.86 68.4856 172.914 68.5257 172.981 68.557C173.05 68.5884 173.117 68.6076 173.179 68.6146C173.239 68.6215 173.298 68.6215 173.357 68.6146C173.416 68.6041 173.474 68.5902 173.53 68.5727C173.572 68.5553 173.619 68.5326 173.671 68.5047C173.723 68.4734 173.774 68.4542 173.823 68.4472C173.885 68.4472 173.934 68.4646 173.969 68.4995C174.004 68.5309 174.028 68.571 174.042 68.6198C174.056 68.6651 174.058 68.7139 174.047 68.7662C174.041 68.8185 174.021 68.8638 173.99 68.9022C173.948 68.9545 173.889 69.005 173.812 69.0538C173.735 69.0992 173.662 69.1323 173.593 69.1532C173.509 69.1811 173.415 69.1968 173.31 69.2003C173.209 69.2038 173.113 69.2003 173.022 69.1898C172.981 69.1828 172.937 69.1741 172.892 69.1637C172.846 69.1532 172.803 69.141 172.761 69.1271C172.608 69.0713 172.479 68.9928 172.374 68.8917C172.273 68.7871 172.194 68.6703 172.139 68.5413C172.086 68.4123 172.057 68.2746 172.05 68.1282C172.043 67.9818 172.06 67.8371 172.102 67.6942C172.14 67.5582 172.188 67.4431 172.243 67.349C172.303 67.2549 172.371 67.1782 172.447 67.1189C172.527 67.0561 172.616 67.0073 172.714 66.9725C172.812 66.9341 172.92 66.901 173.038 66.8731C173.16 66.8487 173.289 66.8487 173.425 66.8731C173.561 66.8975 173.683 66.9428 173.791 67.0091C173.875 67.0544 173.945 67.1189 174 67.2026ZM175.145 66.8522C175.26 66.7964 175.381 66.7563 175.506 66.7319C175.632 66.7075 175.755 66.7023 175.877 66.7162C176.003 66.7302 176.123 66.7633 176.238 66.8156C176.357 66.8679 176.465 66.9411 176.562 67.0352C176.643 67.1154 176.712 67.213 176.772 67.3281C176.831 67.4396 176.875 67.5495 176.902 67.6575C176.962 67.8493 176.97 68.0428 176.929 68.238C176.887 68.4333 176.815 68.6146 176.714 68.7819C176.665 68.8586 176.604 68.9283 176.531 68.9911C176.461 69.0504 176.386 69.0992 176.306 69.1375C176.202 69.1863 176.088 69.2194 175.966 69.2369C175.844 69.2578 175.726 69.263 175.611 69.2526C175.402 69.2421 175.217 69.1898 175.056 69.0957C174.899 69.0015 174.772 68.8813 174.675 68.7348C174.58 68.5884 174.518 68.4228 174.486 68.238C174.458 68.0498 174.471 67.858 174.523 67.6628C174.579 67.4536 174.659 67.2845 174.763 67.1555C174.872 67.023 174.999 66.9219 175.145 66.8522ZM175.302 67.553C175.25 67.6018 175.21 67.6628 175.182 67.736C175.154 67.8092 175.137 67.8859 175.13 67.9661C175.123 68.0428 175.128 68.1212 175.145 68.2014C175.166 68.2781 175.198 68.3478 175.239 68.4106C175.274 68.4629 175.337 68.5065 175.428 68.5413C175.518 68.5762 175.612 68.5971 175.71 68.6041C175.822 68.6111 175.919 68.5814 176.003 68.5152C176.087 68.4455 176.149 68.3601 176.191 68.2589C176.236 68.1578 176.257 68.048 176.254 67.9295C176.25 67.8109 176.219 67.7029 176.16 67.6052C176.118 67.5355 176.059 67.485 175.982 67.4536C175.909 67.4187 175.83 67.4013 175.747 67.4013C175.666 67.3978 175.586 67.41 175.506 67.4379C175.426 67.4623 175.358 67.5007 175.302 67.553ZM180.206 67.9975C180.213 68.109 180.216 68.2154 180.216 68.3165C180.216 68.4141 180.213 68.5187 180.206 68.6302C180.206 68.6721 180.206 68.7191 180.206 68.7714C180.206 68.8237 180.202 68.8743 180.195 68.9231C180.188 68.9719 180.176 69.0172 180.159 69.0591C180.141 69.1009 180.115 69.134 180.08 69.1584C180.039 69.1863 179.991 69.2055 179.939 69.216C179.887 69.2229 179.838 69.2194 179.793 69.2055C179.747 69.1916 179.707 69.1654 179.672 69.1271C179.641 69.0887 179.624 69.0347 179.62 68.9649C179.61 68.8046 179.604 68.6442 179.604 68.4838C179.604 68.4036 179.603 68.3269 179.599 68.2537C179.599 68.1805 179.601 68.0777 179.604 67.9452C179.604 67.8789 179.599 67.804 179.589 67.7203C179.578 67.6331 179.552 67.5721 179.51 67.5373C179.479 67.5094 179.444 67.4937 179.406 67.4902C179.367 67.4832 179.329 67.4867 179.291 67.5007C179.256 67.5146 179.224 67.5408 179.197 67.5791C179.169 67.614 179.149 67.6593 179.139 67.7151C179.139 67.7604 179.137 67.8075 179.134 67.8563C179.134 67.9016 179.136 67.9452 179.139 67.987C179.143 68.0986 179.144 68.2049 179.144 68.306C179.144 68.4036 179.143 68.5082 179.139 68.6198C179.136 68.6651 179.134 68.7139 179.134 68.7662C179.137 68.8185 179.137 68.8708 179.134 68.9231C179.13 68.9719 179.12 69.0172 179.102 69.0591C179.088 69.1009 179.062 69.134 179.024 69.1584C178.982 69.1863 178.937 69.2038 178.888 69.2107C178.843 69.2142 178.799 69.2072 178.757 69.1898C178.719 69.1689 178.684 69.1375 178.653 69.0957C178.625 69.0538 178.609 68.9981 178.606 68.9283C178.599 68.8481 178.593 68.7749 178.59 68.7087C178.59 68.639 178.59 68.5657 178.59 68.489C178.59 68.4089 178.592 68.3269 178.595 68.2433C178.599 68.1561 178.597 68.0724 178.59 67.9922C178.59 67.9678 178.588 67.9399 178.585 67.9086C178.585 67.8737 178.583 67.8388 178.579 67.804C178.579 67.7691 178.576 67.736 178.569 67.7046C178.566 67.6697 178.559 67.6419 178.548 67.6209C178.52 67.5721 178.47 67.5408 178.396 67.5268C178.327 67.5129 178.267 67.5181 178.219 67.5425C178.17 67.5669 178.133 67.5983 178.109 67.6366C178.084 67.675 178.067 67.7168 178.056 67.7621C178.046 67.8075 178.041 67.8563 178.041 67.9086C178.041 67.9574 178.041 68.0044 178.041 68.0498C178.041 68.2764 178.041 68.4734 178.041 68.6407C178.044 68.8046 178.027 68.937 177.989 69.0382C177.971 69.0904 177.934 69.1305 177.879 69.1584C177.826 69.1863 177.769 69.2003 177.706 69.2003C177.647 69.2003 177.591 69.1863 177.539 69.1584C177.486 69.1305 177.452 69.087 177.434 69.0277C177.424 68.9893 177.413 68.9353 177.403 68.8656C177.396 68.7924 177.391 68.7122 177.387 68.625C177.384 68.5379 177.382 68.4507 177.382 68.3635C177.382 68.2729 177.382 68.191 177.382 68.1177V67.3647C177.378 67.2845 177.377 67.1973 177.377 67.1032C177.377 67.0091 177.391 66.9237 177.418 66.847C177.443 66.7807 177.481 66.7389 177.534 66.7215C177.586 66.7005 177.64 66.6918 177.696 66.6953C177.758 66.6953 177.807 66.7127 177.842 66.7476C177.88 66.779 177.908 66.8191 177.926 66.8679C177.943 66.9132 177.954 66.9655 177.957 67.0248C177.961 67.0805 177.964 67.1346 177.968 67.1869C178.006 67.0997 178.051 67.0283 178.104 66.9725C178.159 66.9132 178.238 66.8749 178.339 66.8574C178.597 66.8086 178.803 66.8749 178.956 67.0561C179.026 66.9864 179.115 66.9289 179.223 66.8836C179.306 66.8522 179.392 66.8382 179.479 66.8417C179.566 66.8417 179.648 66.8574 179.725 66.8888C179.805 66.9202 179.876 66.9655 179.939 67.0248C180.005 67.084 180.058 67.1555 180.096 67.2392C180.148 67.3507 180.178 67.4745 180.185 67.6105C180.192 67.7464 180.199 67.8754 180.206 67.9975Z" fill="#9BC8FF"/>
<mask id="mask3_14773_165345" style="mask-type:alpha" maskUnits="userSpaceOnUse" x="184" y="63" width="9" height="10">
<rect x="184.237" y="63.358" width="8.71595" height="8.71595" fill="#D9D9D9"/>
</mask>
<g mask="url(#mask3_14773_165345)">
<path d="M187.67 69.45L188.596 68.7419L189.522 69.45L189.177 68.3242L190.212 67.498H188.968L188.596 66.3541L188.233 67.498H186.98L188.024 68.3242L187.67 69.45ZM186.444 71.2023L187.261 68.5603L185.109 66.8443H187.751L188.596 64.2295L189.44 66.8443H192.082L189.93 68.5603L190.748 71.2023L188.596 69.5681L186.444 71.2023Z" fill="#9BC8FF"/>
</g>
<rect x="136.299" y="62.9222" width="57.0895" height="9.58755" rx="2.17899" stroke="#9BC8FF" stroke-width="0.871595"/>
<mask id="mask4_14773_165345" style="mask-type:alpha" maskUnits="userSpaceOnUse" x="197" y="62" width="11" height="11">
<rect x="197.312" y="62.4864" width="10.4591" height="10.4591" fill="#D9D9D9"/>
</mask>
<g mask="url(#mask4_14773_165345)">
<path d="M202.541 71.2023C201.568 71.2023 200.743 70.8645 200.068 70.1891C199.392 69.5136 199.055 68.6892 199.055 67.7159C199.055 66.7426 199.392 65.9182 200.068 65.2428C200.743 64.5673 201.568 64.2295 202.541 64.2295C203.042 64.2295 203.522 64.333 203.979 64.54C204.437 64.747 204.829 65.043 205.156 65.428V64.2295H206.027V67.2801H202.977V66.4085H204.807C204.575 66.0018 204.257 65.6822 203.854 65.4498C203.451 65.2173 203.013 65.1011 202.541 65.1011C201.815 65.1011 201.197 65.3553 200.689 65.8638C200.18 66.3722 199.926 66.9896 199.926 67.7159C199.926 68.4422 200.18 69.0596 200.689 69.568C201.197 70.0765 201.815 70.3307 202.541 70.3307C203.1 70.3307 203.605 70.1709 204.055 69.8513C204.506 69.5317 204.822 69.1105 205.003 68.5875H205.919C205.715 69.3574 205.301 69.9857 204.676 70.4723C204.052 70.959 203.34 71.2023 202.541 71.2023Z" fill="#9BC8FF"/>
</g>
<path d="M211.257 75.5603H101V77.3035H211.257V75.5603Z" fill="#9BC8FF" mask="url(#path-3-inside-1_14773_165345)"/>
<rect x="107.102" y="81.7467" width="98.4903" height="81.0584" rx="6.97276" fill="#0A84FF"/>
<mask id="mask5_14773_165345" style="mask-type:alpha" maskUnits="userSpaceOnUse" x="121" y="87" width="71" height="71">
<rect x="121.429" y="87.3577" width="69.8366" height="69.8366" fill="#D9D9D9"/>
</mask>
<g mask="url(#mask5_14773_165345)">
<path d="M156.347 126.968L142.016 141.299C141.337 141.978 140.549 142.318 139.652 142.318C138.755 142.318 137.979 141.978 137.324 141.299C136.645 140.62 136.311 139.838 136.324 138.953C136.336 138.068 136.669 137.298 137.324 136.643L151.655 122.276L137.324 107.908C136.669 107.254 136.342 106.484 136.342 105.599C136.342 104.714 136.669 103.932 137.324 103.253C137.979 102.574 138.755 102.234 139.652 102.234C140.549 102.234 141.337 102.562 142.016 103.216L156.347 117.584L170.714 103.216C171.369 102.562 172.145 102.234 173.042 102.234C173.94 102.234 174.728 102.574 175.407 103.253C176.061 103.932 176.383 104.714 176.37 105.599C176.358 106.484 176.025 107.254 175.37 107.908L161.039 122.276L175.37 136.643C176.025 137.298 176.352 138.068 176.352 138.953C176.352 139.838 176.025 140.62 175.37 141.299C174.715 141.978 173.94 142.318 173.042 142.318C172.145 142.318 171.369 141.978 170.714 141.299L156.347 126.968Z" fill="white"/>
</g>
<rect x="107.1" y="184.595" width="48.3736" height="2.61479" rx="1.30739" fill="#D2E9FF"/>
<rect x="107.1" y="189.389" width="66.2412" height="2.61479" rx="1.30739" fill="#D2E9FF"/>
<rect x="107.1" y="194.183" width="23.0973" height="2.61479" rx="1.30739" fill="#D2E9FF"/>
<rect x="107.1" y="171.957" width="43.144" height="6.97276" rx="3.48638" fill="#D2E9FF"/>
<rect x="101.5" y="59.5" width="109.257" height="147.717" rx="2.98638" stroke="#9BC8FF"/>
</svg>
