<svg width="28" height="28" viewBox="0 0 28 28" fill="none" xmlns="http://www.w3.org/2000/svg">
<mask id="mask0_959_25242" style="mask-type:alpha" maskUnits="userSpaceOnUse" x="0" y="0" width="28" height="28">
<path d="M17.1537 3.72748C17.4727 3.40855 17.9897 3.40855 18.3087 3.72748L24.2704 9.6892C24.4236 9.84236 24.5096 10.0501 24.5096 10.2667C24.5096 10.7177 24.144 11.0833 23.6929 11.0833H21.5812L18.0812 14.5833V21.8887C18.0812 22.1115 17.9927 22.3252 17.8352 22.4827C17.5071 22.8107 16.9753 22.8107 16.6472 22.4827L12.1123 17.9468L6.57278 23.4878C6.00327 24.0573 5.0799 24.0573 4.51039 23.4878C3.94087 22.9183 3.94087 21.9949 4.51039 21.4254L10.0496 15.8841L5.51517 11.3506C5.38915 11.2246 5.30731 11.0627 5.27961 10.8889L5.26914 10.7567C5.26914 10.2928 5.64522 9.91667 6.10914 9.91667H13.4145L16.9145 6.41667V4.30495C16.9145 4.08835 17.0006 3.88063 17.1537 3.72748Z" fill="#ffffff"/>
</mask>
<g mask="url(#mask0_959_25242)">
<rect width="28" height="28" fill="#ffffff"/>
</g>
</svg>
