<svg width="16" height="16" viewBox="0 0 16 16" fill="none" xmlns="http://www.w3.org/2000/svg">
    <path
        d="M10.6898 4.73866C10.8958 4.94465 10.9117 5.26878 10.7374 5.49295L10.6898 5.54678L4.97556 11.2611C4.76957 11.4671 4.44544 11.4829 4.22127 11.3086L4.16744 11.2611L1.88172 8.97535C1.65857 8.75219 1.65857 8.39038 1.88172 8.16723C2.08771 7.96124 2.41185 7.94539 2.63601 8.11969L2.68984 8.16723L4.5715 10.0484L9.88172 4.73866C10.1049 4.5155 10.4667 4.5155 10.6898 4.73866ZM14.1184 4.73866C14.3244 4.94465 14.3403 5.26878 14.166 5.49295L14.1184 5.54678L8.40413 11.2611C8.18097 11.4842 7.81917 11.4842 7.59601 11.2611C7.39002 11.0551 7.37417 10.7309 7.54847 10.5068L7.59601 10.4529L13.3103 4.73866C13.5335 4.5155 13.8953 4.5155 14.1184 4.73866Z"
        fill="#ffffff" />
</svg>
