<svg width="44" height="44" viewBox="0 0 44 44" fill="none" xmlns="http://www.w3.org/2000/svg">
<g clip-path="url(#clip0_35816_47459)">
<rect width="44" height="44" rx="22" fill="white"/>
<g opacity="0.38">
<rect width="44" height="44" fill="#0A84FF"/>
<g clip-path="url(#clip1_35816_47459)">
<rect x="4" y="4" width="36" height="36" rx="18" fill="white"/>
<rect width="36" height="36" transform="translate(4 4)" fill="#0A84FF"/>
<path d="M22 24.2502C23.494 24.2502 24.7 23.0442 24.7 21.5502V16.1502C24.7 14.6562 23.494 13.4502 22 13.4502C20.506 13.4502 19.3 14.6562 19.3 16.1502V21.5502C19.3 23.0442 20.506 24.2502 22 24.2502ZM21.1 16.1502C21.1 15.6552 21.505 15.2502 22 15.2502C22.495 15.2502 22.9 15.6552 22.9 16.1502V21.5502C22.9 22.0452 22.495 22.4502 22 22.4502C21.505 22.4502 21.1 22.0452 21.1 21.5502V16.1502ZM26.5 21.5502C26.5 24.0342 24.484 26.0502 22 26.0502C19.516 26.0502 17.5 24.0342 17.5 21.5502H15.7C15.7 24.7272 18.049 27.3372 21.1 27.7782V30.5502H22.9V27.7782C25.951 27.3372 28.2999 24.7272 28.2999 21.5502H26.5Z" fill="#FFFBFE"/>
</g>
</g>
</g>
<defs>
<clipPath id="clip0_35816_47459">
<rect width="44" height="44" rx="22" fill="white"/>
</clipPath>
<clipPath id="clip1_35816_47459">
<rect x="4" y="4" width="36" height="36" rx="18" fill="white"/>
</clipPath>
</defs>
</svg>
