<svg width="36" height="36" viewBox="0 0 36 36" fill="none" xmlns="http://www.w3.org/2000/svg">
    <path fill-rule="evenodd" clip-rule="evenodd"
        d="M2.57129 18.0001C2.57129 9.47914 9.4789 2.57153 17.9999 2.57153C26.5208 2.57153 33.4284 9.47914 33.4284 18.0001C33.4284 26.5211 26.5208 33.4287 17.9999 33.4287C9.4789 33.4287 2.57129 26.5211 2.57129 18.0001ZM16.7141 14.6755L13.7661 17.6235C13.264 18.1256 12.45 18.1256 11.9479 17.6235C11.4458 17.1214 11.4458 16.3073 11.9479 15.8052L17.0907 10.6624C17.5928 10.1603 18.4069 10.1603 18.909 10.6624L24.0519 15.8052C24.554 16.3073 24.554 17.1214 24.0519 17.6235C23.5498 18.1256 22.7357 18.1256 22.2336 17.6235L19.2856 14.6755V24.4287C19.2856 25.1387 18.7099 25.7144 17.9999 25.7144C17.2898 25.7144 16.7141 25.1387 16.7141 24.4287V14.6755Z"
        fill="#007AFF" />
</svg>
