<svg width="238" height="44" viewBox="0 0 238 44" fill="none" xmlns="http://www.w3.org/2000/svg">
<path d="M175.688 36.8381C173.323 36.8381 171.167 36.2816 169.219 35.1687C167.295 34.0326 165.776 32.5024 164.663 30.5779C163.55 28.6535 162.994 26.5436 162.994 24.2482C162.994 21.9297 163.527 19.8082 164.593 17.8837C165.683 15.9361 167.19 14.4059 169.115 13.2929C171.039 12.1568 173.23 11.5888 175.688 11.5888C177.659 11.5888 179.351 11.9018 180.766 12.5278C182.203 13.1306 183.478 14.0929 184.591 15.4144L181.148 18.4054C179.687 16.8752 177.867 16.11 175.688 16.11C174.158 16.11 172.813 16.481 171.654 17.2229C170.494 17.9417 169.602 18.9271 168.976 20.1791C168.35 21.408 168.037 22.7643 168.037 24.2482C168.037 25.7321 168.35 27.0885 168.976 28.3173C169.625 29.5462 170.529 30.52 171.688 31.2387C172.871 31.9575 174.239 32.3169 175.792 32.3169C178.064 32.3169 179.919 31.5286 181.357 29.9519L184.904 32.9777C183.93 34.1602 182.655 35.0992 181.079 35.7947C179.525 36.4903 177.728 36.8381 175.688 36.8381Z" fill="url(#paint0_linear_55505_36082)"/>
<path d="M186.543 10.9976H191.238V20.8051C192.212 18.8575 194.032 17.8837 196.698 17.8837C197.996 17.8837 199.167 18.1967 200.211 18.8228C201.254 19.4256 202.077 20.2951 202.68 21.4312C203.283 22.5441 203.584 23.8425 203.584 25.3264V36.386H198.889V26.4741C198.889 24.967 198.541 23.8425 197.846 23.1005C197.15 22.3586 196.199 21.9876 194.994 21.9876C193.927 21.9876 193.035 22.3702 192.316 23.1353C191.597 23.8773 191.238 24.9902 191.238 26.4741V36.386H186.543V10.9976Z" fill="url(#paint1_linear_55505_36082)"/>
<path d="M214.45 36.8381C212.827 36.8381 211.332 36.4208 209.964 35.5861C208.596 34.7282 207.506 33.5805 206.694 32.143C205.906 30.7055 205.512 29.1288 205.512 27.4131C205.512 25.6973 205.906 24.1207 206.694 22.6832C207.506 21.2225 208.596 20.0632 209.964 19.2053C211.332 18.3474 212.827 17.9185 214.45 17.9185C215.934 17.9185 217.128 18.1967 218.032 18.7532C218.96 19.3097 219.678 20.1096 220.189 21.1529V18.3011H224.849V36.386H220.293V33.4298C219.76 34.5195 219.029 35.3658 218.102 35.9686C217.198 36.5483 215.98 36.8381 214.45 36.8381ZM210.207 27.3783C210.207 28.3057 210.416 29.1752 210.833 29.9867C211.274 30.775 211.865 31.4126 212.607 31.8995C213.372 32.3633 214.241 32.5951 215.215 32.5951C216.212 32.5951 217.093 32.3633 217.858 31.8995C218.647 31.4358 219.25 30.8098 219.667 30.0215C220.084 29.2332 220.293 28.3637 220.293 27.4131C220.293 26.4625 220.084 25.593 219.667 24.8047C219.25 23.9932 218.647 23.3556 217.858 22.8919C217.093 22.405 216.212 22.1615 215.215 22.1615C214.241 22.1615 213.372 22.405 212.607 22.8919C211.842 23.3556 211.25 23.9816 210.833 24.7699C210.416 25.5582 210.207 26.4277 210.207 27.3783Z" fill="url(#paint2_linear_55505_36082)"/>
<path d="M234.49 36.386C232.658 36.386 231.279 35.9339 230.351 35.0296C229.424 34.1254 228.96 32.711 228.96 30.7866V22.3006H226.421V18.3011H228.96V14.6493L233.655 14.1624V18.3011H237.481V22.3006H233.655V30.5432C233.655 31.6561 234.142 32.2125 235.116 32.2125H237.064V36.386H234.49Z" fill="url(#paint3_linear_55505_36082)"/>
<path d="M54.9417 15.6443H47.6816V11.0705H67.2838V15.6443H60.0237V36.4806H54.9417V15.6443Z" fill="black"/>
<path d="M63.7519 17.6045H69.4873L71.9194 28.3131C72.1856 29.4021 72.3792 30.358 72.5002 31.1808C72.6696 30.1402 72.8753 29.1722 73.1173 28.2768L75.8761 17.6045H81.5027L84.443 28.2768C84.685 29.1722 84.8907 30.1402 85.0601 31.1808C85.1811 30.358 85.3747 29.4021 85.6409 28.3131L88.2545 17.6045H93.5907L87.71 36.4806H82.4102L79.3247 25.7357C79.0343 24.8645 78.8165 23.9207 78.6713 22.9043C78.5019 24.0175 78.3083 24.9613 78.0905 25.7357L75.259 36.4806H69.6325L63.7519 17.6045Z" fill="black"/>
<path d="M102.355 36.9525C100.661 36.9525 99.1 36.5169 97.6722 35.6457C96.2444 34.7503 95.1069 33.5524 94.2599 32.052C93.4371 30.5516 93.0257 28.906 93.0257 27.1152C93.0257 25.3243 93.4371 23.6787 94.2599 22.1783C95.1069 20.6537 96.2444 19.4437 97.6722 18.5483C99.1 17.6529 100.661 17.2052 102.355 17.2052C103.904 17.2052 105.15 17.4956 106.094 18.0764C107.062 18.6572 107.812 19.4921 108.344 20.5811V17.6045H113.209V36.4806H108.453V33.3951C107.897 34.5325 107.134 35.4158 106.166 36.045C105.223 36.65 103.952 36.9525 102.355 36.9525ZM97.9263 27.0789C97.9263 28.0469 98.1441 28.9544 98.5797 29.8014C99.0395 30.6242 99.6566 31.2897 100.431 31.7979C101.23 32.2819 102.137 32.5239 103.153 32.5239C104.194 32.5239 105.114 32.2819 105.912 31.7979C106.735 31.3139 107.364 30.6605 107.8 29.8377C108.236 29.0149 108.453 28.1074 108.453 27.1152C108.453 26.1229 108.236 25.2154 107.8 24.3926C107.364 23.5456 106.735 22.8801 105.912 22.3961C105.114 21.8879 104.194 21.6338 103.153 21.6338C102.137 21.6338 101.23 21.8879 100.431 22.3961C99.6324 22.8801 99.0153 23.5335 98.5797 24.3563C98.1441 25.1791 97.9263 26.0866 97.9263 27.0789Z" fill="black"/>
<path d="M121.021 27.5145V36.4806H116.12V9.98145H121.021V25.2275L128.099 17.6045H135.069L126.176 26.3891L135.105 36.4806H128.608L121.021 27.5145Z" fill="black"/>
<path d="M143.026 36.9525C141.114 36.9525 139.42 36.5169 137.944 35.6457C136.467 34.7503 135.318 33.5524 134.495 32.052C133.672 30.5516 133.261 28.8939 133.261 27.0789C133.261 25.288 133.684 23.6303 134.531 22.1057C135.378 20.5811 136.54 19.3711 138.016 18.4757C139.517 17.5803 141.186 17.1326 143.026 17.1326C144.865 17.1326 146.51 17.5803 147.962 18.4757C149.439 19.3711 150.576 20.5811 151.375 22.1057C152.197 23.6061 152.609 25.2638 152.609 27.0789C152.609 27.6839 152.56 28.2647 152.464 28.8213H138.343C138.633 29.9587 139.178 30.8783 139.976 31.5801C140.799 32.2577 141.816 32.5965 143.026 32.5965C144.042 32.5965 144.95 32.3666 145.748 31.9068C146.547 31.4228 147.176 30.8057 147.636 30.0555L151.447 32.9232C150.673 34.1332 149.535 35.1133 148.035 35.8635C146.535 36.5895 144.865 36.9525 143.026 36.9525ZM147.672 25.1549C147.382 24.0659 146.813 23.1584 145.966 22.4324C145.119 21.7064 144.115 21.3434 142.953 21.3434C141.816 21.3434 140.823 21.6943 139.976 22.3961C139.154 23.0979 138.609 24.0175 138.343 25.1549H147.672Z" fill="black"/>
<rect x="1.20752" y="2.43701" width="39.126" height="39.126" rx="12.9215" fill="white"/>
<rect x="1.20752" y="2.43701" width="39.126" height="39.126" rx="12.9215" fill="url(#paint4_linear_55505_36082)"/>
<rect x="1.20752" y="2.43701" width="39.126" height="39.126" rx="12.9215" fill="url(#paint5_linear_55505_36082)"/>
<rect x="1.20752" y="2.43701" width="39.126" height="39.126" rx="12.9215" fill="url(#paint6_linear_55505_36082)"/>
<path d="M20.6161 10.73C27.6071 10.73 33.2744 15.6245 33.2744 21.6622C33.2744 27.6998 27.6071 32.5943 20.6161 32.5943C19.1827 32.5943 17.8051 32.3886 16.5205 32.0094C15.085 33.1258 12.8586 34.0631 9.84201 34.8198C9.69918 34.8556 9.54808 34.8356 9.41949 34.7639C9.14059 34.6082 9.04067 34.256 9.1963 33.9771L9.41218 33.5853C10.414 31.742 11.039 30.2302 11.2873 29.05C9.21922 27.1047 7.95776 24.5107 7.95776 21.6622C7.95776 15.6245 13.6251 10.73 20.6161 10.73Z" fill="white"/>
<defs>
<linearGradient id="paint0_linear_55505_36082" x1="175.219" y1="5.18996" x2="195.221" y2="53.9385" gradientUnits="userSpaceOnUse">
<stop stop-color="#74DF74"/>
<stop offset="1" stop-color="#32B332"/>
</linearGradient>
<linearGradient id="paint1_linear_55505_36082" x1="175.219" y1="5.18996" x2="195.221" y2="53.9385" gradientUnits="userSpaceOnUse">
<stop stop-color="#74DF74"/>
<stop offset="1" stop-color="#32B332"/>
</linearGradient>
<linearGradient id="paint2_linear_55505_36082" x1="175.219" y1="5.18996" x2="195.221" y2="53.9385" gradientUnits="userSpaceOnUse">
<stop stop-color="#74DF74"/>
<stop offset="1" stop-color="#32B332"/>
</linearGradient>
<linearGradient id="paint3_linear_55505_36082" x1="175.219" y1="5.18996" x2="195.221" y2="53.9385" gradientUnits="userSpaceOnUse">
<stop stop-color="#74DF74"/>
<stop offset="1" stop-color="#32B332"/>
</linearGradient>
<linearGradient id="paint4_linear_55505_36082" x1="40.3335" y1="25.2605" x2="29.7405" y2="18.4975" gradientUnits="userSpaceOnUse">
<stop offset="0.12998" stop-color="#A033FF"/>
<stop offset="0.610381" stop-color="#0094FF"/>
<stop offset="1" stop-color="#4FB500"/>
</linearGradient>
<linearGradient id="paint5_linear_55505_36082" x1="19.1403" y1="14.6639" x2="6.91339" y2="39.1176" gradientUnits="userSpaceOnUse">
<stop stop-color="#FFD600" stop-opacity="0"/>
<stop offset="0.563347" stop-color="#FFC700"/>
</linearGradient>
<linearGradient id="paint6_linear_55505_36082" x1="22.4008" y1="25.2605" x2="36.2579" y2="39.9328" gradientUnits="userSpaceOnUse">
<stop offset="0.0297327" stop-color="#FF3B30" stop-opacity="0"/>
<stop offset="0.842824" stop-color="#E73B2D"/>
</linearGradient>
</defs>
</svg>
