<svg width="83" height="24" viewBox="0 0 83 24" fill="none" xmlns="http://www.w3.org/2000/svg">
<rect width="24" height="24" rx="6" fill="white"/>
<rect width="24" height="24" rx="6" fill="url(#paint0_linear_54753_25605)"/>
<rect width="24" height="24" rx="6" fill="url(#paint1_linear_54753_25605)"/>
<rect width="24" height="24" rx="6" fill="url(#paint2_linear_54753_25605)"/>
<path d="M12.0308 4C12.0391 4.00611 12.0487 4.01026 12.0589 4.01216C12.0638 4.01216 12.0688 4.01444 12.0741 4.01482C12.1327 4.0209 12.1895 4.03887 12.2409 4.06765C12.2569 4.07563 12.2721 4.08513 12.2877 4.09387L13.4297 4.73994L14.7651 5.49545C15.0882 5.67787 15.4109 5.86055 15.7335 6.04347C15.7536 6.05487 15.7738 6.06551 15.7931 6.07767C15.917 6.15341 16.0036 6.27737 16.0322 6.41971C16.0354 6.43472 16.0373 6.44998 16.0379 6.46531C16.0379 6.50104 16.0405 6.53676 16.0405 6.57287V8.11506C16.0405 8.69044 16.0405 9.26582 16.0405 9.8412C16.0405 9.87199 16.0405 9.90277 16.0405 9.93317C16.0381 10.0155 16.0139 10.0957 15.9706 10.1658C15.9059 10.2747 15.8038 10.3564 15.6833 10.3957C15.6319 10.4116 15.5786 10.4204 15.5248 10.4219C15.5018 10.4217 15.4788 10.4198 15.456 10.4162C15.3949 10.4095 15.3356 10.3911 15.2812 10.3622C15.263 10.3527 15.2451 10.3425 15.2276 10.3326L13.5114 9.36159L12.2953 8.67486L12.2352 8.64104C12.1871 8.61723 12.136 8.60022 12.0832 8.59049C12.0706 8.58816 12.0579 8.58677 12.0452 8.58631C12.0247 8.58631 12.0041 8.58631 11.9836 8.58631C11.9041 8.58681 11.8259 8.6065 11.7556 8.6437C11.7351 8.65434 11.7153 8.66612 11.6956 8.67752C11.2628 8.92531 10.8301 9.17322 10.3973 9.42126L8.83918 10.314C8.81714 10.3269 8.79472 10.3394 8.7723 10.352C8.72284 10.3788 8.66969 10.3981 8.61458 10.4094C8.60456 10.4115 8.5944 10.4129 8.58418 10.4135L8.50817 10.4158C8.43616 10.416 8.3651 10.3993 8.30067 10.3672C8.16094 10.3038 8.05702 10.181 8.01754 10.0327C8.0053 9.99088 7.99891 9.94752 7.99854 9.90391V6.57325C7.99854 6.55272 7.99854 6.5322 7.99854 6.51206C7.99991 6.44796 8.01278 6.38463 8.03654 6.32508C8.07653 6.22449 8.14713 6.13901 8.23834 6.08071C8.25544 6.06969 8.27368 6.05981 8.29117 6.04955L9.20972 5.52282L10.3016 4.89727L11.4056 4.26603L11.6788 4.10945L11.7389 4.07563C11.7751 4.05585 11.8133 4.03993 11.8529 4.02812C11.8779 4.02197 11.9033 4.01753 11.9289 4.01482C11.939 4.01329 11.9484 4.00879 11.9559 4.0019L12.0308 4Z" fill="white"/>
<path d="M4 13.3759C4.01534 13.3717 4.02641 13.3583 4.02774 13.3425C4.0317 13.3121 4.03754 13.282 4.04522 13.2524C4.07812 13.1355 4.15086 13.0339 4.25083 12.9651C4.27173 12.9506 4.29415 12.9377 4.31619 12.9271L5.01394 12.5242L6.56869 11.6273L7.17333 11.2781C7.19537 11.2655 7.21779 11.2526 7.2406 11.2401C7.30917 11.2049 7.38508 11.1864 7.46216 11.1861C7.59943 11.1845 7.73184 11.2369 7.8308 11.332C7.89282 11.39 7.939 11.4629 7.96495 11.5437C7.98092 11.5897 7.98964 11.6379 7.99079 11.6866C7.99079 11.7147 7.99079 11.7429 7.99079 11.771V15.0161C7.99079 15.0492 7.99079 15.0826 7.99079 15.1157C7.99399 15.285 8.07897 15.4422 8.21882 15.5376C8.24162 15.5535 8.2667 15.5672 8.29102 15.5809L8.95381 15.9514L10.3197 16.7149L11.1656 17.1869C11.1881 17.1995 11.2105 17.2116 11.2321 17.2249C11.3489 17.2925 11.4336 17.4041 11.4674 17.5347C11.4863 17.6012 11.4911 17.671 11.4815 17.7395C11.4732 17.8004 11.455 17.8594 11.4275 17.9143C11.3849 17.9966 11.3207 18.0658 11.2416 18.1142C11.22 18.1279 11.1972 18.1397 11.1748 18.1522L8.96369 19.3684L8.21083 19.7815C8.19069 19.7925 8.17283 19.8043 8.15041 19.8145C8.11629 19.8322 8.08035 19.846 8.04324 19.8559C7.99118 19.8696 7.93738 19.8753 7.88362 19.873C7.79621 19.8688 7.71127 19.8427 7.6366 19.797L7.40515 19.661L4.33063 17.8535C4.31087 17.8421 4.29263 17.8307 4.27135 17.8182C4.15288 17.7448 4.06882 17.6269 4.038 17.491C4.0323 17.4685 4.03078 17.4454 4.0266 17.4229C4.02461 17.4127 4.01741 17.4042 4.0076 17.4005C4.00525 17.3996 4.00284 17.3988 4.00038 17.3982L4 13.3759Z" fill="white"/>
<path d="M15.9772 19.8981C15.9716 19.8931 15.9653 19.8889 15.9586 19.8855C15.9393 19.8787 15.9196 19.873 15.8997 19.8684C15.8522 19.8577 15.8065 19.8402 15.764 19.8164C15.7393 19.8027 15.7153 19.7883 15.691 19.7742L14.5551 19.1186L12.8738 18.1491C12.8559 18.1389 12.8381 18.129 12.821 18.118C12.7047 18.0454 12.6225 17.9291 12.5929 17.7953C12.5846 17.7605 12.5804 17.7248 12.5804 17.6889C12.5742 17.5138 12.6583 17.3478 12.8031 17.2492C12.8242 17.2354 12.846 17.2227 12.8685 17.2112L13.8269 16.6617L15.1191 15.9217L15.7248 15.5748C15.7514 15.5596 15.7784 15.5447 15.8043 15.5284C15.903 15.4672 15.9785 15.3748 16.0186 15.2658C16.0326 15.23 16.0419 15.1926 16.0464 15.1544C16.0509 15.1138 16.0532 15.073 16.0532 15.0321C16.0532 14.8861 16.0532 14.7406 16.0532 14.5946C16.0532 13.6638 16.0532 12.7331 16.0532 11.8025C16.0532 11.7766 16.0532 11.7512 16.0532 11.7265C16.0532 11.7018 16.0532 11.6854 16.0555 11.6653C16.062 11.5435 16.1133 11.4285 16.1995 11.3423C16.2644 11.2761 16.3459 11.2287 16.4355 11.2051C16.4749 11.1937 16.5154 11.1872 16.5564 11.1856C16.6411 11.1843 16.725 11.2034 16.8007 11.2416C16.8213 11.2518 16.8414 11.2632 16.8612 11.275L17.6319 11.7193L18.9875 12.5018L19.6982 12.9118C19.7206 12.9247 19.7426 12.9373 19.7647 12.9498C19.8549 13.0047 19.926 13.0861 19.9684 13.1828C19.9764 13.1989 19.9817 13.2162 19.9839 13.2341C19.9869 13.2464 19.9925 13.258 20.0003 13.2679V17.5042C19.9916 17.5098 19.9859 17.519 19.9847 17.5293C19.9818 17.5497 19.9757 17.5694 19.9665 17.5878C19.9251 17.6793 19.8579 17.7566 19.773 17.8102C19.7517 17.8242 19.7293 17.8368 19.7073 17.8482L18.6625 18.4471L16.3337 19.7829C16.3139 19.7943 16.2957 19.8061 16.2736 19.8168C16.2313 19.8406 16.1857 19.8582 16.1383 19.8688C16.1208 19.8728 16.1035 19.8779 16.0866 19.884C16.0795 19.8866 16.0734 19.8916 16.0695 19.8981H15.9772Z" fill="white"/>
<path d="M32.6054 18.755C31.5599 18.755 30.7725 18.5101 30.2432 18.0202C29.7138 17.5303 29.4491 16.764 29.4491 15.7214V11.1238H28V8.95693H29.4491V6.97847L32.129 6.71467V8.95693H34.3126V11.1238H32.129V15.5895C32.129 16.1925 32.4069 16.4939 32.9627 16.4939H34.0744V18.755H32.6054Z" fill="black"/>
<path d="M34.4083 8.95693H37.5447L38.8747 14.5155C39.0203 15.0808 39.1262 15.5769 39.1923 16.004C39.285 15.4639 39.3975 14.9614 39.5298 14.4966L41.0385 8.95693H44.1154L45.7233 14.4966C45.8556 14.9614 45.9681 15.4639 46.0607 16.004C46.1269 15.5769 46.2328 15.0808 46.3784 14.5155L47.8076 8.95693H50.7257L47.5099 18.755H44.6116L42.9243 13.1777C42.7655 12.7254 42.6464 12.2355 42.567 11.7079C42.4744 12.2858 42.3685 12.7757 42.2494 13.1777L40.701 18.755H37.6241L34.4083 8.95693Z" fill="black"/>
<path d="M55.5185 19C54.5921 19 53.7385 18.7739 52.9577 18.3217C52.1769 17.8569 51.5549 17.2351 51.0917 16.4563C50.6418 15.6774 50.4168 14.8232 50.4168 13.8937C50.4168 12.9641 50.6418 12.1099 51.0917 11.3311C51.5549 10.5397 52.1769 9.91162 52.9577 9.44684C53.7385 8.98205 54.5921 8.74966 55.5185 8.74966C56.3654 8.74966 57.047 8.9004 57.5631 9.20188C58.0925 9.50336 58.5027 9.93674 58.7939 10.502V8.95693H61.4539V18.755H58.8534V17.1534C58.549 17.7438 58.1322 18.2023 57.6028 18.5289C57.0867 18.843 56.3919 19 55.5185 19ZM53.0966 13.8748C53.0966 14.3773 53.2158 14.8484 53.454 15.288C53.7054 15.7151 54.0429 16.0606 54.4664 16.3244C54.9031 16.5756 55.3994 16.7012 55.9552 16.7012C56.5242 16.7012 57.0271 16.5756 57.4638 16.3244C57.9138 16.0731 58.2579 15.734 58.4961 15.3069C58.7343 14.8798 58.8534 14.4087 58.8534 13.8937C58.8534 13.3786 58.7343 12.9076 58.4961 12.4805C58.2579 12.0408 57.9138 11.6954 57.4638 11.4441C57.0271 11.1803 56.5242 11.0485 55.9552 11.0485C55.3994 11.0485 54.9031 11.1803 54.4664 11.4441C54.0296 11.6954 53.6922 12.0345 53.454 12.4616C53.2158 12.8887 53.0966 13.3598 53.0966 13.8748Z" fill="black"/>
<path d="M65.726 14.1009V18.755H63.0461V5H65.726V12.9139L69.5969 8.95693H73.4083L68.5448 13.5168L73.4281 18.755H69.8748L65.726 14.1009Z" fill="black"/>
<path d="M77.7594 19C76.7139 19 75.7875 18.7739 74.9802 18.3217C74.173 17.8569 73.5444 17.2351 73.0944 16.4563C72.6445 15.6774 72.4195 14.817 72.4195 13.8748C72.4195 12.9453 72.6511 12.0848 73.1143 11.2934C73.5774 10.502 74.2127 9.87393 75.0199 9.40915C75.8404 8.94437 76.7536 8.71198 77.7594 8.71198C78.7651 8.71198 79.6651 8.94437 80.4591 9.40915C81.2664 9.87393 81.8884 10.502 82.3251 11.2934C82.775 12.0722 83 12.9327 83 13.8748C83 14.1889 82.9735 14.4904 82.9206 14.7793H75.1986C75.3574 15.3697 75.6552 15.847 76.0919 16.2113C76.5418 16.563 77.0977 16.7389 77.7594 16.7389C78.3152 16.7389 78.8115 16.6196 79.2482 16.3809C79.6849 16.1297 80.029 15.8093 80.2804 15.4199L82.3648 16.9085C81.9413 17.5366 81.3193 18.0453 80.4988 18.4347C79.6783 18.8116 78.7651 19 77.7594 19ZM80.3003 12.8762C80.1415 12.3109 79.8305 11.8398 79.3673 11.463C78.9041 11.0861 78.3549 10.8977 77.7197 10.8977C77.0977 10.8977 76.5551 11.0799 76.0919 11.4441C75.6419 11.8084 75.3442 12.2858 75.1986 12.8762H80.3003Z" fill="black"/>
<defs>
<linearGradient id="paint0_linear_54753_25605" x1="24" y1="14" x2="-6.17882e-07" y2="14" gradientUnits="userSpaceOnUse">
<stop offset="0.12998" stop-color="#A033FF"/>
<stop offset="0.610381" stop-color="#0094FF"/>
<stop offset="1" stop-color="#4FB500"/>
</linearGradient>
<linearGradient id="paint1_linear_54753_25605" x1="11" y1="7.5" x2="3.5" y2="22.5" gradientUnits="userSpaceOnUse">
<stop stop-color="#FFD600" stop-opacity="0"/>
<stop offset="0.563347" stop-color="#FFC700"/>
</linearGradient>
<linearGradient id="paint2_linear_54753_25605" x1="13" y1="14" x2="21.5" y2="23" gradientUnits="userSpaceOnUse">
<stop offset="0.0297327" stop-color="#FF3B30" stop-opacity="0"/>
<stop offset="0.842824" stop-color="#E73B2D"/>
</linearGradient>
</defs>
</svg>
