<svg width="101" height="26" viewBox="0 0 101 26" fill="none" xmlns="http://www.w3.org/2000/svg">
<path d="M4.66933 24.3464C5.73426 25.3847 7.31835 25.9038 9.42159 25.9038H12.2538V21.1116H10.1404C9.02224 21.1116 8.46315 20.4727 8.46315 19.1948L8.46346 11.1418H13.0602V6.54929H8.46346L8.46316 0.0976562L3.07193 0.656748L3.07224 6.54929H0.156982V11.1418H3.07224L3.07193 19.4743C3.07193 21.684 3.6044 23.3081 4.66933 24.3464Z" fill="#1C1B1F"/>
<path d="M64.6733 0.0976562H70.0496V14.0737L75.424 6.54941H80.8003L74.4891 15.3852L80.8001 25.9035H75.4238L71.5672 19.4758L70.0496 21.6005V25.9038H64.6733V0.0976562Z" fill="#1C1B1F"/>
<path fill-rule="evenodd" clip-rule="evenodd" d="M57.6838 24.438C56.2806 25.367 54.6221 25.9039 52.8452 25.9039C47.7975 25.9039 43.7055 21.5712 43.7055 16.2266C43.7055 10.882 47.7975 6.54929 52.8452 6.54929C54.6221 6.54929 56.2806 7.0862 57.6838 8.01517V6.54929H63.0601V25.9039H57.6838V24.438ZM57.6838 16.2266C57.6838 18.8989 55.7582 21.0653 53.3828 21.0653C51.0074 21.0653 49.0818 18.8989 49.0818 16.2266C49.0818 13.5543 51.0074 11.3879 53.3828 11.3879C55.7582 11.3879 57.6838 13.5543 57.6838 16.2266Z" fill="#1C1B1F"/>
<path d="M14.6731 6.54929H20.3183L23.1409 16.2267L25.9635 6.54929H32.4151L35.2377 16.2267L38.0603 6.54929H43.7055L38.0603 25.9042H32.4151L29.1893 14.8442L25.9635 25.9042H20.3183L14.6731 6.54929Z" fill="#1C1B1F"/>
<path fill-rule="evenodd" clip-rule="evenodd" d="M90.4797 25.9039C94.6932 25.9039 98.2778 23.211 99.6063 19.4524H94.2053C93.4616 20.738 92.0717 21.6029 90.4797 21.6029C88.1043 21.6029 86.1786 19.6773 86.1786 17.3019H100.098C100.137 16.9488 100.157 16.5901 100.157 16.2266C100.157 10.882 95.8243 6.54929 90.4797 6.54929C85.135 6.54929 80.8023 10.882 80.8023 16.2266C80.8023 21.5712 85.135 25.9039 90.4797 25.9039ZM94.6452 14.0761C94.1677 12.221 92.4838 10.8503 90.4797 10.8503C88.4756 10.8503 86.7916 12.221 86.3141 14.0761H94.6452Z" fill="#1C1B1F"/>
</svg>
