<svg width="1335" height="221" viewBox="0 0 1335 221" fill="none" xmlns="http://www.w3.org/2000/svg">
    <path d="M880.57 177.611C868.717 177.611 857.909 174.822 848.148 169.244C838.502 163.55 830.891 155.88 825.312 146.234C819.734 136.589 816.945 126.014 816.945 114.509C816.945 102.888 819.618 92.2546 824.964 82.6092C830.426 72.8475 837.979 65.1776 847.625 59.5995C857.27 53.9052 868.252 51.0581 880.57 51.0581C890.448 51.0581 898.932 52.6269 906.02 55.7646C913.225 58.7861 919.617 63.6088 925.195 70.2328L907.938 85.2239C900.617 77.554 891.494 73.7191 880.57 73.7191C872.901 73.7191 866.16 75.5784 860.35 79.2972C854.539 82.8997 850.065 87.8386 846.928 94.114C843.79 100.273 842.221 107.071 842.221 114.509C842.221 121.946 843.79 128.745 846.928 134.904C850.181 141.063 854.714 145.944 860.524 149.546C866.451 153.149 873.307 154.95 881.093 154.95C892.482 154.95 901.779 150.999 908.984 143.097L926.764 158.262C921.883 164.189 915.492 168.895 907.589 172.382C899.803 175.868 890.797 177.611 880.57 177.611Z" fill="url(#paint0_linear_58327_94)"/>
    <path d="M934.976 48.0947H958.508V97.2516C963.389 87.49 972.512 82.6092 985.876 82.6092C992.384 82.6092 998.252 84.178 1003.48 87.3157C1008.71 90.3371 1012.84 94.695 1015.86 100.389C1018.88 105.967 1020.39 112.475 1020.39 119.913V175.345H996.858V125.665C996.858 118.111 995.115 112.475 991.628 108.756C988.142 105.038 983.377 103.178 977.334 103.178C971.989 103.178 967.515 105.096 963.912 108.931C960.31 112.649 958.508 118.228 958.508 125.665V175.345H934.976V48.0947Z" fill="url(#paint1_linear_58327_94)"/>
    <path d="M1074.85 177.611C1066.72 177.611 1059.22 175.519 1052.36 171.336C1045.51 167.036 1040.05 161.283 1035.98 154.078C1032.03 146.873 1030.05 138.971 1030.05 130.372C1030.05 121.772 1032.03 113.87 1035.98 106.665C1040.05 99.3434 1045.51 93.5329 1052.36 89.2331C1059.22 84.9334 1066.72 82.7835 1074.85 82.7835C1082.29 82.7835 1088.27 84.178 1092.81 86.967C1097.45 89.7561 1101.06 93.7653 1103.61 98.9948V84.7009H1126.97V175.345H1104.14V160.528C1101.46 165.99 1097.8 170.232 1093.15 173.253C1088.62 176.158 1082.52 177.611 1074.85 177.611ZM1053.59 130.197C1053.59 134.846 1054.63 139.204 1056.72 143.271C1058.93 147.222 1061.89 150.418 1065.61 152.858C1069.45 155.182 1073.81 156.345 1078.69 156.345C1083.68 156.345 1088.1 155.182 1091.93 152.858C1095.89 150.534 1098.91 147.396 1101 143.445C1103.09 139.494 1104.14 135.136 1104.14 130.372C1104.14 125.607 1103.09 121.249 1101 117.298C1098.91 113.231 1095.89 110.035 1091.93 107.711C1088.1 105.27 1083.68 104.05 1078.69 104.05C1073.81 104.05 1069.45 105.27 1065.61 107.711C1061.78 110.035 1058.81 113.172 1056.72 117.124C1054.63 121.075 1053.59 125.433 1053.59 130.197Z" fill="url(#paint2_linear_58327_94)"/>
    <path d="M1175.29 175.345C1166.11 175.345 1159.2 173.079 1154.55 168.547C1149.9 164.014 1147.58 156.926 1147.58 147.28V104.747H1134.85V84.7009H1147.58V66.3978L1171.11 63.9574V84.7009H1190.29V104.747H1171.11V146.06C1171.11 151.638 1173.55 154.427 1178.43 154.427H1188.19V175.345H1175.29Z" fill="url(#paint3_linear_58327_94)"/>
    <path d="M275.373 71.3829H238.984V48.4582H337.233V71.3829H300.845V175.817H275.373V71.3829Z" fill="black"/>
    <path d="M319.53 81.2077H348.277L360.467 134.88C361.802 140.339 362.772 145.13 363.378 149.254C364.227 144.038 365.258 139.186 366.471 134.699L380.299 81.2077H408.5L423.237 134.699C424.45 139.186 425.481 144.038 426.33 149.254C426.937 145.13 427.907 140.339 429.241 134.88L442.341 81.2077H469.086L439.612 175.817H413.048L397.583 121.963C396.128 117.596 395.036 112.866 394.308 107.771C393.459 113.351 392.489 118.081 391.397 121.963L377.206 175.817H349.005L319.53 81.2077Z" fill="black"/>
    <path d="M513.014 178.183C504.523 178.183 496.7 175.999 489.543 171.633C482.387 167.145 476.686 161.141 472.441 153.62C468.317 146.1 466.255 137.852 466.255 128.876C466.255 119.901 468.317 111.653 472.441 104.132C476.686 96.4908 482.387 90.4261 489.543 85.9382C496.7 81.4503 504.523 79.2064 513.014 79.2064C520.777 79.2064 527.023 80.6619 531.754 83.573C536.606 86.484 540.366 90.6687 543.034 96.1269V81.2077H567.414V175.817H543.58V160.352C540.79 166.053 536.97 170.48 532.118 173.634C527.387 176.666 521.019 178.183 513.014 178.183ZM490.817 128.694C490.817 133.546 491.909 138.095 494.092 142.34C496.397 146.464 499.49 149.8 503.371 152.347C507.374 154.773 511.922 155.986 517.017 155.986C522.232 155.986 526.842 154.773 530.844 152.347C534.968 149.921 538.122 146.646 540.305 142.522C542.488 138.398 543.58 133.849 543.58 128.876C543.58 123.903 542.488 119.355 540.305 115.231C538.122 110.985 534.968 107.65 530.844 105.224C526.842 102.677 522.232 101.403 517.017 101.403C511.922 101.403 507.374 102.677 503.371 105.224C499.368 107.65 496.275 110.925 494.092 115.049C491.909 119.173 490.817 123.721 490.817 128.694Z" fill="black"/>
    <path d="M606.57 130.878V175.817H582.008V43H606.57V119.415L642.049 81.2077H676.982L632.406 125.238L677.164 175.817H644.596L606.57 130.878Z" fill="black"/>
    <path d="M716.861 178.183C707.279 178.183 698.788 175.999 691.389 171.633C683.99 167.145 678.229 161.141 674.105 153.62C669.981 146.1 667.919 137.792 667.919 128.694C667.919 119.719 670.041 111.41 674.287 103.768C678.532 96.1269 684.354 90.0622 691.753 85.5743C699.273 81.0864 707.643 78.8425 716.861 78.8425C726.079 78.8425 734.327 81.0864 741.605 85.5743C749.004 90.0622 754.705 96.1269 758.708 103.768C762.832 111.289 764.894 119.597 764.894 128.694C764.894 131.727 764.651 134.638 764.166 137.428H693.391C694.846 143.129 697.575 147.738 701.578 151.255C705.702 154.651 710.796 156.35 716.861 156.35C721.955 156.35 726.504 155.197 730.507 152.893C734.509 150.467 737.663 147.374 739.968 143.614L759.071 157.987C755.19 164.052 749.489 168.964 741.969 172.724C734.449 176.363 726.079 178.183 716.861 178.183ZM740.15 119.052C738.694 113.593 735.844 109.045 731.598 105.406C727.353 101.767 722.319 99.9477 716.497 99.9477C710.796 99.9477 705.823 101.706 701.578 105.224C697.454 108.742 694.725 113.351 693.391 119.052H740.15Z" fill="black"/>
    <g filter="url(#filter0_d_58327_94)">
        <path d="M98 48C133.899 48 163 73.1331 163 104.136C163 135.14 133.899 160.273 98 160.273C90.6399 160.273 83.5656 159.216 76.9691 157.269C69.5981 163.002 58.1656 167.815 42.6755 171.701C41.9421 171.884 41.1662 171.782 40.5059 171.413C39.0738 170.614 38.5607 168.805 39.3599 167.373L40.4684 165.361C45.6126 155.896 48.8222 148.133 50.0971 142.073C39.4775 132.084 33 118.763 33 104.136C33 73.1331 62.1015 48 98 48Z" fill="white"/>
    </g>
    <g clip-path="url(#clip0_58327_94)">
        <rect y="12" width="196.105" height="196.105" rx="64.7641" fill="white"/>
        <rect y="12" width="196.105" height="196.105" rx="64.7641" fill="url(#paint4_linear_58327_94)"/>
        <g filter="url(#filter1_d_58327_94)">
            <path d="M98 53C133.899 53 163 78.1331 163 109.136C163 140.14 133.899 165.273 98 165.273C90.6399 165.273 83.5656 164.216 76.9691 162.269C69.5981 168.002 58.1656 172.815 42.6755 176.701C41.9421 176.884 41.1662 176.782 40.5059 176.413C39.0738 175.614 38.5607 173.805 39.3599 172.373L40.4684 170.361C45.6126 160.896 48.8222 153.133 50.0971 147.073C39.4775 137.084 33 123.763 33 109.136C33 78.1331 62.1015 53 98 53Z" fill="white"/>
        </g>
    </g>
    <path d="M1225.74 176V144.568H1237.25C1239.48 144.568 1241.33 144.936 1242.79 145.673C1244.25 146.399 1245.35 147.387 1246.07 148.635C1246.8 149.873 1247.16 151.27 1247.16 152.825C1247.16 154.135 1246.92 155.24 1246.44 156.14C1245.96 157.03 1245.32 157.746 1244.51 158.289C1243.71 158.821 1242.83 159.21 1241.87 159.455V159.762C1242.91 159.813 1243.93 160.151 1244.92 160.775C1245.93 161.389 1246.75 162.264 1247.41 163.4C1248.06 164.535 1248.39 165.917 1248.39 167.543C1248.39 169.15 1248.01 170.592 1247.26 171.871C1246.51 173.14 1245.35 174.148 1243.79 174.895C1242.22 175.632 1240.22 176 1237.79 176H1225.74ZM1230.48 171.933H1237.33C1239.6 171.933 1241.22 171.493 1242.21 170.613C1243.19 169.733 1243.68 168.633 1243.68 167.313C1243.68 166.321 1243.43 165.41 1242.93 164.581C1242.43 163.753 1241.71 163.093 1240.78 162.601C1239.86 162.11 1238.76 161.865 1237.49 161.865H1230.48V171.933ZM1230.48 158.166H1236.83C1237.9 158.166 1238.86 157.961 1239.7 157.552C1240.56 157.143 1241.24 156.57 1241.75 155.833C1242.26 155.086 1242.51 154.206 1242.51 153.193C1242.51 151.894 1242.06 150.804 1241.15 149.924C1240.24 149.044 1238.84 148.604 1236.96 148.604H1230.48V158.166ZM1255.31 176V144.568H1275.02V148.65H1260.06V158.227H1273.99V162.295H1260.06V171.918H1275.2V176H1255.31ZM1281.1 148.65V144.568H1305.43V148.65H1295.62V176H1290.89V148.65H1281.1ZM1311.04 176H1306.01L1317.32 144.568H1322.8L1334.11 176H1329.07L1320.19 150.277H1319.94L1311.04 176ZM1311.88 163.691H1328.21V167.682H1311.88V163.691Z" fill="#97A3B7"/>
    <defs>
        <filter id="filter0_d_58327_94" x="23" y="40" width="150" height="143.79" filterUnits="userSpaceOnUse" color-interpolation-filters="sRGB">
            <feFlood flood-opacity="0" result="BackgroundImageFix"/>
            <feColorMatrix in="SourceAlpha" type="matrix" values="0 0 0 0 0 0 0 0 0 0 0 0 0 0 0 0 0 0 127 0" result="hardAlpha"/>
            <feOffset dy="2"/>
            <feGaussianBlur stdDeviation="5"/>
            <feComposite in2="hardAlpha" operator="out"/>
            <feColorMatrix type="matrix" values="0 0 0 0 0 0 0 0 0 0 0 0 0 0 0 0 0 0 0.1 0"/>
            <feBlend mode="normal" in2="BackgroundImageFix" result="effect1_dropShadow_58327_94"/>
            <feBlend mode="normal" in="SourceGraphic" in2="effect1_dropShadow_58327_94" result="shape"/>
        </filter>
        <filter id="filter1_d_58327_94" x="23" y="45" width="150" height="143.79" filterUnits="userSpaceOnUse" color-interpolation-filters="sRGB">
            <feFlood flood-opacity="0" result="BackgroundImageFix"/>
            <feColorMatrix in="SourceAlpha" type="matrix" values="0 0 0 0 0 0 0 0 0 0 0 0 0 0 0 0 0 0 127 0" result="hardAlpha"/>
            <feOffset dy="2"/>
            <feGaussianBlur stdDeviation="5"/>
            <feComposite in2="hardAlpha" operator="out"/>
            <feColorMatrix type="matrix" values="0 0 0 0 0 0 0 0 0 0 0 0 0 0 0 0 0 0 0.1 0"/>
            <feBlend mode="normal" in2="BackgroundImageFix" result="effect1_dropShadow_58327_94"/>
            <feBlend mode="normal" in="SourceGraphic" in2="effect1_dropShadow_58327_94" result="shape"/>
        </filter>
        <linearGradient id="paint0_linear_58327_94" x1="1004" y1="3.99999" x2="1004" y2="215" gradientUnits="userSpaceOnUse">
            <stop stop-color="#B666FA"/>
            <stop offset="1" stop-color="#A347EC"/>
        </linearGradient>
        <linearGradient id="paint1_linear_58327_94" x1="1004" y1="3.99999" x2="1004" y2="215" gradientUnits="userSpaceOnUse">
            <stop stop-color="#B666FA"/>
            <stop offset="1" stop-color="#A347EC"/>
        </linearGradient>
        <linearGradient id="paint2_linear_58327_94" x1="1004" y1="3.99999" x2="1004" y2="215" gradientUnits="userSpaceOnUse">
            <stop stop-color="#B666FA"/>
            <stop offset="1" stop-color="#A347EC"/>
        </linearGradient>
        <linearGradient id="paint3_linear_58327_94" x1="1004" y1="3.99999" x2="1004" y2="215" gradientUnits="userSpaceOnUse">
            <stop stop-color="#B666FA"/>
            <stop offset="1" stop-color="#A347EC"/>
        </linearGradient>
        <linearGradient id="paint4_linear_58327_94" x1="26.5" y1="192" x2="184" y2="12" gradientUnits="userSpaceOnUse">
            <stop stop-color="#8135FE"/>
            <stop offset="1" stop-color="#E8A6FF"/>
        </linearGradient>
        <clipPath id="clip0_58327_94">
            <rect width="196" height="196" fill="white" transform="translate(0 12)"/>
        </clipPath>
    </defs>
</svg>
