<svg width="24" height="24" viewBox="0 0 24 24" fill="none" xmlns="http://www.w3.org/2000/svg">
<rect width="24" height="24" rx="6" fill="white"/>
<rect width="24" height="24" rx="6" fill="url(#paint0_linear_1902_181)"/>
<rect width="24" height="24" rx="6" fill="url(#paint1_linear_1902_181)"/>
<rect width="24" height="24" rx="6" fill="url(#paint2_linear_1902_181)"/>
<path d="M12.0303 4C12.0386 4.00611 12.0482 4.01026 12.0584 4.01216C12.0633 4.01216 12.0683 4.01444 12.0736 4.01482C12.1322 4.0209 12.189 4.03887 12.2404 4.06765C12.2564 4.07563 12.2716 4.08513 12.2872 4.09387L13.4292 4.73994L14.7646 5.49545C15.0877 5.67787 15.4105 5.86055 15.733 6.04347C15.7531 6.05487 15.7733 6.06551 15.7927 6.07767C15.9165 6.15341 16.0031 6.27737 16.0317 6.41971C16.0349 6.43472 16.0368 6.44998 16.0374 6.46531C16.0374 6.50104 16.0401 6.53676 16.0401 6.57287V8.11506C16.0401 8.69044 16.0401 9.26582 16.0401 9.8412C16.0401 9.87199 16.0401 9.90277 16.0401 9.93317C16.0376 10.0155 16.0135 10.0957 15.9701 10.1658C15.9054 10.2747 15.8033 10.3564 15.6828 10.3957C15.6314 10.4116 15.5781 10.4204 15.5243 10.4219C15.5013 10.4217 15.4783 10.4198 15.4556 10.4162C15.3944 10.4095 15.3351 10.3911 15.2807 10.3622C15.2625 10.3527 15.2446 10.3425 15.2272 10.3326L13.5109 9.36159L12.2948 8.67486L12.2347 8.64104C12.1866 8.61723 12.1355 8.60022 12.0827 8.59049C12.0702 8.58816 12.0575 8.58677 12.0447 8.58631C12.0242 8.58631 12.0037 8.58631 11.9831 8.58631C11.9036 8.58681 11.8254 8.6065 11.7551 8.6437C11.7346 8.65434 11.7148 8.66612 11.6951 8.67752C11.2623 8.92531 10.8296 9.17322 10.3969 9.42126L8.83869 10.314C8.81665 10.3269 8.79423 10.3394 8.77181 10.352C8.72235 10.3788 8.66921 10.3981 8.61409 10.4094C8.60407 10.4115 8.59391 10.4129 8.58369 10.4135L8.50768 10.4158C8.43567 10.416 8.36462 10.3993 8.30018 10.3672C8.16045 10.3038 8.05653 10.181 8.01705 10.0327C8.00482 9.99088 7.99842 9.94752 7.99805 9.90391V6.57325C7.99805 6.55272 7.99805 6.5322 7.99805 6.51206C7.99942 6.44796 8.01229 6.38463 8.03605 6.32508C8.07605 6.22449 8.14664 6.13901 8.23785 6.08071C8.25495 6.06969 8.2732 6.05981 8.29068 6.04955L9.20923 5.52282L10.3011 4.89727L11.4051 4.26603L11.6783 4.10945L11.7384 4.07563C11.7746 4.05585 11.8128 4.03993 11.8524 4.02812C11.8774 4.02197 11.9028 4.01753 11.9284 4.01482C11.9385 4.01329 11.9479 4.00879 11.9554 4.0019L12.0303 4Z" fill="white"/>
<path d="M4 13.3759C4.01534 13.3717 4.02641 13.3583 4.02774 13.3425C4.0317 13.3121 4.03754 13.282 4.04522 13.2524C4.07812 13.1355 4.15086 13.0339 4.25083 12.9651C4.27173 12.9506 4.29415 12.9377 4.31619 12.9271L5.01394 12.5242L6.56869 11.6273L7.17333 11.2781C7.19537 11.2655 7.21779 11.2526 7.2406 11.2401C7.30917 11.2049 7.38508 11.1864 7.46216 11.1861C7.59943 11.1845 7.73184 11.2369 7.8308 11.332C7.89282 11.39 7.939 11.4629 7.96495 11.5437C7.98092 11.5897 7.98964 11.6379 7.99079 11.6866C7.99079 11.7147 7.99079 11.7429 7.99079 11.771V15.0161C7.99079 15.0492 7.99079 15.0826 7.99079 15.1157C7.99399 15.285 8.07897 15.4422 8.21882 15.5376C8.24162 15.5535 8.2667 15.5672 8.29102 15.5809L8.95381 15.9514L10.3197 16.7149L11.1656 17.1869C11.1881 17.1995 11.2105 17.2116 11.2321 17.2249C11.3489 17.2925 11.4336 17.4041 11.4674 17.5347C11.4863 17.6012 11.4911 17.671 11.4815 17.7395C11.4732 17.8004 11.455 17.8594 11.4275 17.9143C11.3849 17.9966 11.3207 18.0658 11.2416 18.1142C11.22 18.1279 11.1972 18.1397 11.1748 18.1522L8.96369 19.3684L8.21083 19.7815C8.19069 19.7925 8.17283 19.8043 8.15041 19.8145C8.11629 19.8322 8.08035 19.846 8.04324 19.8559C7.99118 19.8696 7.93738 19.8753 7.88362 19.873C7.79621 19.8688 7.71127 19.8427 7.6366 19.797L7.40515 19.661L4.33063 17.8535C4.31087 17.8421 4.29263 17.8307 4.27135 17.8182C4.15288 17.7448 4.06882 17.6269 4.038 17.491C4.0323 17.4685 4.03078 17.4454 4.0266 17.4229C4.02461 17.4127 4.01741 17.4042 4.0076 17.4005C4.00525 17.3996 4.00284 17.3988 4.00038 17.3982L4 13.3759Z" fill="white"/>
<path d="M15.9772 19.8981C15.9716 19.8931 15.9653 19.8889 15.9586 19.8855C15.9393 19.8787 15.9196 19.873 15.8997 19.8684C15.8522 19.8577 15.8065 19.8402 15.764 19.8164C15.7393 19.8027 15.7153 19.7883 15.691 19.7742L14.5551 19.1186L12.8738 18.1491C12.8559 18.1389 12.8381 18.129 12.821 18.118C12.7047 18.0454 12.6225 17.9291 12.5929 17.7953C12.5846 17.7605 12.5804 17.7248 12.5804 17.6889C12.5742 17.5138 12.6583 17.3478 12.8031 17.2492C12.8242 17.2354 12.846 17.2227 12.8685 17.2112L13.8269 16.6617L15.1191 15.9217L15.7248 15.5748C15.7514 15.5596 15.7784 15.5447 15.8043 15.5284C15.903 15.4672 15.9785 15.3748 16.0186 15.2658C16.0326 15.23 16.0419 15.1926 16.0464 15.1544C16.0509 15.1138 16.0532 15.073 16.0532 15.0321C16.0532 14.8861 16.0532 14.7406 16.0532 14.5946C16.0532 13.6638 16.0532 12.7331 16.0532 11.8025C16.0532 11.7766 16.0532 11.7512 16.0532 11.7265C16.0532 11.7018 16.0532 11.6854 16.0555 11.6653C16.062 11.5435 16.1133 11.4285 16.1995 11.3423C16.2644 11.2761 16.3459 11.2287 16.4355 11.2051C16.4749 11.1937 16.5154 11.1872 16.5564 11.1856C16.6411 11.1843 16.725 11.2034 16.8007 11.2416C16.8213 11.2518 16.8414 11.2632 16.8612 11.275L17.6319 11.7193L18.9875 12.5018L19.6982 12.9118C19.7206 12.9247 19.7426 12.9373 19.7647 12.9498C19.8549 13.0047 19.926 13.0861 19.9684 13.1828C19.9764 13.1989 19.9817 13.2162 19.9839 13.2341C19.9869 13.2464 19.9925 13.258 20.0003 13.2679V17.5042C19.9916 17.5098 19.9859 17.519 19.9847 17.5293C19.9818 17.5497 19.9757 17.5694 19.9665 17.5878C19.9251 17.6793 19.8579 17.7566 19.773 17.8102C19.7517 17.8242 19.7293 17.8368 19.7073 17.8482L18.6625 18.4471L16.3337 19.7829C16.3139 19.7943 16.2957 19.8061 16.2736 19.8168C16.2313 19.8406 16.1857 19.8582 16.1383 19.8688C16.1208 19.8728 16.1035 19.8779 16.0866 19.884C16.0795 19.8866 16.0734 19.8916 16.0695 19.8981H15.9772Z" fill="white"/>
<defs>
<linearGradient id="paint0_linear_1902_181" x1="24" y1="14" x2="-6.17882e-07" y2="14" gradientUnits="userSpaceOnUse">
<stop offset="0.12998" stop-color="#A033FF"/>
<stop offset="0.610381" stop-color="#0094FF"/>
<stop offset="1" stop-color="#4FB500"/>
</linearGradient>
<linearGradient id="paint1_linear_1902_181" x1="11" y1="7.5" x2="3.5" y2="22.5" gradientUnits="userSpaceOnUse">
<stop stop-color="#FFD600" stop-opacity="0"/>
<stop offset="0.563347" stop-color="#FFC700"/>
</linearGradient>
<linearGradient id="paint2_linear_1902_181" x1="13" y1="14" x2="21.5" y2="23" gradientUnits="userSpaceOnUse">
<stop offset="0.0297327" stop-color="#FF3B30" stop-opacity="0"/>
<stop offset="0.842824" stop-color="#E73B2D"/>
</linearGradient>
</defs>
</svg>
