<svg width="36" height="36" viewBox="0 0 36 36" fill="none" xmlns="http://www.w3.org/2000/svg">
<g id="Icons/Human/users_outline_28">
<mask id="mask0_11859_1460" style="mask-type:alpha" maskUnits="userSpaceOnUse" x="1" y="6" width="34" height="23">
<path id="Shape" d="M11.5713 19.2859C16.7107 19.2859 21.2142 21.2689 21.2142 25.6226C21.2142 27.9046 20.3282 28.9287 18.4537 28.9287H4.68897C2.81442 28.9287 1.92847 27.9046 1.92847 25.6226C1.92847 21.2689 6.43195 19.2859 11.5713 19.2859ZM25.0713 19.2859C30.2107 19.2859 34.7142 21.2689 34.7142 25.6226C34.7142 27.9046 33.8282 28.9287 31.9537 28.9287H24.4285C23.7184 28.9287 23.1428 28.3531 23.1428 27.643C23.1428 26.9329 23.7184 26.3573 24.4285 26.3573L32.0306 26.3576C32.0525 26.3579 32.0706 26.3584 32.0855 26.3594L32.1016 26.3611L32.1047 26.3421C32.1182 26.2377 32.1356 26.058 32.1411 25.7923L32.1428 25.6226C32.1428 23.2656 28.9446 21.8573 25.0713 21.8573C24.5214 21.8573 23.9164 21.8959 23.3102 21.9741C22.6059 22.0649 21.9614 21.5677 21.8705 20.8634C21.7797 20.1592 22.2769 19.5147 22.9812 19.4238C23.6969 19.3315 24.4118 19.2859 25.0713 19.2859ZM11.5713 21.8573C7.69809 21.8573 4.4999 23.2656 4.4999 25.6226C4.4999 25.9831 4.52169 26.2168 4.53793 26.3421L4.53975 26.3611L4.55719 26.3594L4.58199 26.3583L18.5512 26.358C18.5642 26.3583 18.5756 26.3588 18.5855 26.3594L18.6016 26.3611L18.6047 26.3421C18.621 26.2168 18.6428 25.9831 18.6428 25.6226C18.6428 23.2656 15.4446 21.8573 11.5713 21.8573ZM25.0713 6.42871C28.0901 6.42871 30.5356 8.87426 30.5356 11.893C30.5356 14.9117 28.0901 17.3573 25.0713 17.3573C22.0526 17.3573 19.607 14.9117 19.607 11.893C19.607 8.87426 22.0526 6.42871 25.0713 6.42871ZM11.5713 6.42871C14.5901 6.42871 17.0356 8.87426 17.0356 11.893C17.0356 14.9117 14.5901 17.3573 11.5713 17.3573C8.55258 17.3573 6.10704 14.9117 6.10704 11.893C6.10704 8.87426 8.55258 6.42871 11.5713 6.42871ZM25.0713 9.00014C23.4727 9.00014 22.1785 10.2944 22.1785 11.893C22.1785 13.4916 23.4727 14.7859 25.0713 14.7859C26.6699 14.7859 27.9642 13.4916 27.9642 11.893C27.9642 10.2944 26.6699 9.00014 25.0713 9.00014ZM11.5713 9.00014C9.97274 9.00014 8.67847 10.2944 8.67847 11.893C8.67847 13.4916 9.97274 14.7859 11.5713 14.7859C13.1699 14.7859 14.4642 13.4916 14.4642 11.893C14.4642 10.2944 13.1699 9.00014 11.5713 9.00014Z" fill="#ffffff"/>
</mask>
<g mask="url(#mask0_11859_1460)">
<rect id="Colors" width="36" height="36" fill="#ffffff"/>
</g>
</g>
</svg>
