<svg width="18" height="18" viewBox="0 0 18 18" fill="none" xmlns="http://www.w3.org/2000/svg">
<path d="M10.5 3V6.75C10.5 7.38051 10.6563 7.97721 10.9342 8.50205L12.9321 10.5H14.25V9C13.005 9 12 7.995 12 6.75V3H12.75C13.1625 3 13.5 2.6625 13.5 2.25C13.5 1.8375 13.1625 1.5 12.75 1.5H5.25C4.8375 1.5 4.5 1.8375 4.5 2.25C4.5 2.6625 4.8375 3 5.25 3H6V3.5679L7.5 5.0679V3H10.5Z" fill="#0A84FF"/>
<path fill-rule="evenodd" clip-rule="evenodd" d="M7.4774 7.16663C7.4774 7.16665 7.4774 7.1666 7.4774 7.16663L2.56066 2.24998L1.5 3.31064L5.82133 7.63196C5.47909 8.4371 4.68176 9 3.75 9V10.5H8.2275V15.75L8.9775 16.5L9.7275 15.75V11.5381L14.2279 16.0386L15.2886 14.9779L7.4774 7.16663ZM6.92961 8.74025C6.87365 8.82901 6.81375 8.91566 6.75 9H7.18936L6.92961 8.74025Z" fill="#0A84FF"/>
</svg>
