<svg width="258" height="179" viewBox="0 0 258 179" fill="none" xmlns="http://www.w3.org/2000/svg">
<path d="M168.281 162.865C165.475 162.865 162.916 162.204 160.606 160.884C158.322 159.536 156.521 157.721 155.2 155.437C153.88 153.154 153.219 150.651 153.219 147.927C153.219 145.176 153.852 142.659 155.118 140.376C156.411 138.065 158.199 136.25 160.482 134.929C162.765 133.581 165.365 132.907 168.281 132.907C170.619 132.907 172.627 133.279 174.305 134.022C176.011 134.737 177.524 135.878 178.844 137.446L174.759 140.995C173.026 139.18 170.866 138.272 168.281 138.272C166.465 138.272 164.87 138.712 163.494 139.592C162.119 140.445 161.06 141.614 160.317 143.1C159.574 144.557 159.203 146.167 159.203 147.927C159.203 149.688 159.574 151.297 160.317 152.755C161.087 154.213 162.16 155.368 163.535 156.221C164.938 157.074 166.561 157.5 168.404 157.5C171.1 157.5 173.301 156.565 175.007 154.695L179.215 158.284C178.06 159.687 176.547 160.802 174.676 161.627C172.833 162.452 170.701 162.865 168.281 162.865Z" fill="url(#paint0_linear_19365_467)"/>
<path d="M181.159 132.206H186.73V143.842C187.885 141.532 190.045 140.376 193.208 140.376C194.749 140.376 196.138 140.748 197.376 141.49C198.614 142.205 199.59 143.237 200.305 144.585C201.021 145.905 201.378 147.446 201.378 149.207V162.328H195.808V150.568C195.808 148.78 195.395 147.446 194.57 146.566C193.745 145.685 192.617 145.245 191.186 145.245C189.921 145.245 188.862 145.699 188.009 146.607C187.156 147.487 186.73 148.808 186.73 150.568V162.328H181.159V132.206Z" fill="url(#paint1_linear_19365_467)"/>
<path d="M214.27 162.865C212.345 162.865 210.57 162.37 208.947 161.379C207.324 160.361 206.031 159 205.069 157.294C204.133 155.589 203.666 153.718 203.666 151.682C203.666 149.647 204.133 147.776 205.069 146.07C206.031 144.337 207.324 142.962 208.947 141.944C210.57 140.926 212.345 140.417 214.27 140.417C216.031 140.417 217.448 140.748 218.52 141.408C219.621 142.068 220.474 143.017 221.079 144.255V140.871H226.608V162.328H221.202V158.821C220.57 160.114 219.703 161.118 218.603 161.833C217.53 162.521 216.086 162.865 214.27 162.865ZM209.236 151.641C209.236 152.741 209.484 153.773 209.979 154.736C210.502 155.671 211.203 156.428 212.083 157.005C212.991 157.555 214.023 157.831 215.178 157.831C216.361 157.831 217.406 157.555 218.314 157.005C219.249 156.455 219.965 155.712 220.46 154.777C220.955 153.842 221.202 152.81 221.202 151.682C221.202 150.554 220.955 149.523 220.46 148.588C219.965 147.625 219.249 146.868 218.314 146.318C217.406 145.74 216.361 145.452 215.178 145.452C214.023 145.452 212.991 145.74 212.083 146.318C211.175 146.868 210.474 147.611 209.979 148.546C209.484 149.482 209.236 150.513 209.236 151.641Z" fill="url(#paint2_linear_19365_467)"/>
<path d="M238.047 162.328C235.873 162.328 234.237 161.792 233.136 160.719C232.036 159.646 231.486 157.968 231.486 155.685V145.617H228.474V140.871H231.486V136.539L237.056 135.961V140.871H241.595V145.617H237.056V155.396C237.056 156.716 237.634 157.377 238.789 157.377H241.1V162.328H238.047Z" fill="url(#paint3_linear_19365_467)"/>
<path d="M25.0184 137.719H16.4047V132.292H39.6618V137.719H31.048V162.44H25.0184V137.719Z" fill="black"/>
<path d="M35.4713 140.044H42.2762L45.1618 152.75C45.4776 154.042 45.7073 155.176 45.8509 156.152C46.0518 154.917 46.2959 153.769 46.583 152.707L49.8562 140.044H56.5319L60.0204 152.707C60.3076 153.769 60.5516 154.917 60.7526 156.152C60.8962 155.176 61.1259 154.042 61.4417 152.75L64.5426 140.044H70.8737L63.8966 162.44H57.6086L53.9478 149.692C53.6032 148.658 53.3448 147.538 53.1725 146.332C52.9715 147.653 52.7418 148.773 52.4834 149.692L49.1241 162.44H42.4484L35.4713 140.044Z" fill="black"/>
<path d="M81.2721 163C79.2622 163 77.4103 162.483 75.7163 161.45C74.0222 160.387 72.6727 158.966 71.6678 157.186C70.6916 155.406 70.2035 153.453 70.2035 151.328C70.2035 149.204 70.6916 147.251 71.6678 145.471C72.6727 143.662 74.0222 142.227 75.7163 141.164C77.4103 140.102 79.2622 139.571 81.2721 139.571C83.1097 139.571 84.5884 139.915 85.7082 140.604C86.8567 141.293 87.7468 142.284 88.3784 143.576V140.044H94.1496V162.44H88.5076V158.779C87.8473 160.129 86.9428 161.177 85.7943 161.923C84.6745 162.641 83.1671 163 81.2721 163ZM76.0177 151.285C76.0177 152.434 76.2762 153.511 76.793 154.515C77.3385 155.492 78.0707 156.281 78.9895 156.884C79.937 157.458 81.0137 157.746 82.2196 157.746C83.4543 157.746 84.5453 157.458 85.4928 156.884C86.4691 156.31 87.2156 155.535 87.7324 154.559C88.2492 153.582 88.5076 152.506 88.5076 151.328C88.5076 150.151 88.2492 149.074 87.7324 148.098C87.2156 147.093 86.4691 146.304 85.4928 145.729C84.5453 145.127 83.4543 144.825 82.2196 144.825C81.0137 144.825 79.937 145.127 78.9895 145.729C78.042 146.304 77.3098 147.079 76.793 148.055C76.2762 149.031 76.0177 150.108 76.0177 151.285Z" fill="black"/>
<path d="M103.418 151.802V162.44H97.6042V131H103.418V149.089L111.817 140.044H120.086L109.534 150.467L120.129 162.44H112.42L103.418 151.802Z" fill="black"/>
<path d="M129.526 163C127.258 163 125.248 162.483 123.497 161.45C121.745 160.387 120.381 158.966 119.405 157.186C118.429 155.406 117.941 153.439 117.941 151.285C117.941 149.161 118.443 147.194 119.448 145.385C120.453 143.576 121.831 142.14 123.583 141.078C125.363 140.016 127.344 139.485 129.526 139.485C131.708 139.485 133.661 140.016 135.383 141.078C137.135 142.14 138.484 143.576 139.432 145.385C140.408 147.165 140.896 149.132 140.896 151.285C140.896 152.003 140.839 152.692 140.724 153.353H123.97C124.315 154.702 124.961 155.793 125.908 156.626C126.885 157.43 128.091 157.832 129.526 157.832C130.732 157.832 131.809 157.559 132.756 157.013C133.704 156.439 134.45 155.707 134.996 154.817L139.518 158.219C138.599 159.655 137.25 160.818 135.47 161.708C133.689 162.569 131.708 163 129.526 163ZM135.039 149.003C134.694 147.711 134.02 146.634 133.015 145.773C132.01 144.911 130.818 144.48 129.44 144.48C128.091 144.48 126.913 144.897 125.908 145.729C124.932 146.562 124.286 147.653 123.97 149.003H135.039Z" fill="black"/>
<rect x="85.4047" y="16" width="88" height="88" rx="29.3925" fill="white"/>
<rect x="85.4047" y="16" width="88" height="88" rx="29.3925" fill="url(#paint4_linear_19365_467)"/>
<rect x="85.4047" y="16" width="88" height="88" rx="29.3925" fill="url(#paint5_linear_19365_467)"/>
<rect x="85.4047" y="16" width="88" height="88" rx="29.3925" fill="url(#paint6_linear_19365_467)"/>
<path d="M129.054 34.6522C144.778 34.6522 157.525 45.6607 157.525 59.2403C157.525 72.8198 144.778 83.8283 129.054 83.8283C125.831 83.8283 122.732 83.3655 119.843 82.5128C116.614 85.0237 111.607 87.1318 104.822 88.8337C104.501 88.9143 104.161 88.8693 103.872 88.7079C103.244 88.3579 103.02 87.5656 103.37 86.9383L103.855 86.0571C106.109 81.9112 107.514 78.511 108.073 75.8565C103.421 71.4813 100.584 65.6469 100.584 59.2403C100.584 45.6607 113.331 34.6522 129.054 34.6522Z" fill="white"/>
<defs>
<linearGradient id="paint0_linear_19365_467" x1="167.724" y1="125.316" x2="191.456" y2="183.154" gradientUnits="userSpaceOnUse">
<stop stop-color="#74DF74"/>
<stop offset="1" stop-color="#32B332"/>
</linearGradient>
<linearGradient id="paint1_linear_19365_467" x1="167.724" y1="125.316" x2="191.456" y2="183.154" gradientUnits="userSpaceOnUse">
<stop stop-color="#74DF74"/>
<stop offset="1" stop-color="#32B332"/>
</linearGradient>
<linearGradient id="paint2_linear_19365_467" x1="167.724" y1="125.316" x2="191.456" y2="183.154" gradientUnits="userSpaceOnUse">
<stop stop-color="#74DF74"/>
<stop offset="1" stop-color="#32B332"/>
</linearGradient>
<linearGradient id="paint3_linear_19365_467" x1="167.724" y1="125.316" x2="191.456" y2="183.154" gradientUnits="userSpaceOnUse">
<stop stop-color="#74DF74"/>
<stop offset="1" stop-color="#32B332"/>
</linearGradient>
<linearGradient id="paint4_linear_19365_467" x1="173.405" y1="67.3333" x2="149.579" y2="52.1223" gradientUnits="userSpaceOnUse">
<stop offset="0.12998" stop-color="#A033FF"/>
<stop offset="0.610381" stop-color="#0094FF"/>
<stop offset="1" stop-color="#4FB500"/>
</linearGradient>
<linearGradient id="paint5_linear_19365_467" x1="125.738" y1="43.5" x2="98.238" y2="98.5" gradientUnits="userSpaceOnUse">
<stop stop-color="#FFD600" stop-opacity="0"/>
<stop offset="0.563347" stop-color="#FFC700"/>
</linearGradient>
<linearGradient id="paint6_linear_19365_467" x1="133.071" y1="67.3333" x2="164.238" y2="100.333" gradientUnits="userSpaceOnUse">
<stop offset="0.0297327" stop-color="#FF3B30" stop-opacity="0"/>
<stop offset="0.842824" stop-color="#E73B2D"/>
</linearGradient>
</defs>
</svg>
