<svg width="873" height="842" viewBox="0 0 873 842" fill="none" xmlns="http://www.w3.org/2000/svg">
<g clip-path="url(#clip0_37909_413)">
<path d="M402.5 842C565.148 842 697 828.792 697 812.5C697 796.208 565.148 783 402.5 783C239.852 783 108 796.208 108 812.5C108 828.792 239.852 842 402.5 842Z" fill="#EBC6FE"/>
<path d="M606.94 501.73C629.28 488.98 651.22 473.67 668.71 454.63C674.99 447.8 693.13 419.5 696.25 417.25C699.06 415.22 707.32 413.55 711.82 410.84C742.66 392.28 760.01 380.86 767.6 342.76C777.7 292.06 764.97 268.64 729.61 235.91C727.36 233.82 719 229.87 718.32 228.23C716.72 224.36 716.14 208.89 714.69 202.9C712.51 193.9 707.05 180.71 706.19 172.45C703.49 146.51 707.92 118.5 704.03 89.71C697.47 41.2 684.07 -17.89 621.78 7.16999C613.64 10.44 582.25 31.61 579.83 31.7C577.6 31.79 544.66 17.87 538.14 15.89C471.58 -4.36001 396.13 -1.59001 332.24 26.29C325.73 29.13 290.74 49.78 288.34 49.17C287.24 48.89 275.27 35.7 272.11 33.16C222.47 -6.65001 183.06 -22.25 163.85 53.68C152.5 98.55 151.29 146.59 157.94 192.27C158.67 197.25 165.37 223.63 164.84 225.22C164.59 225.98 152.91 230.49 150.49 232.08C109.91 258.66 99.9 341.11 128.4 378.61C135.47 387.91 145.53 390.74 150.24 395.72C152.5 398.11 154.37 406.41 156.61 410.32C186.91 463.17 228.66 494.53 284.65 517C288.2 518.42 306.92 523.2 306.59 525.98C306.39 527.67 287.93 547.84 284.82 552.17C275.79 564.73 268.59 578.27 259.41 590.69L189.75 590.43C230.72 519.9 182.09 434.87 100.35 435.65C18.65 436.42 -26.93 525.03 17.15 593.73C40.37 629.92 80.92 642.13 122.34 637.37C135.45 679.61 160.21 774.85 160.56 776.96C161.21 780.84 154.63 791.98 165.65 807.48C169.03 812.23 175.29 814.49 181.13 815.17L544.63 815.22C554.79 813.58 562.8 807.92 568.68 798.25C584.97 797.5 601.31 797.09 617.71 797.02L638.24 791.22C705.1 773.73 732.92 719.25 736.16 653.93C736.89 639.13 732.97 626.16 737.85 610.67C744.89 588.33 770.42 598.24 754.9 568.2C731.37 522.64 668.61 513.66 630.24 546.02C627.14 548.63 610.61 569.28 609.29 568.49C608.07 567.76 598.43 547.62 595.69 543.62C592.55 539.04 574.76 518.69 574.32 517.04C573.86 515.3 604.2 504.46 606.94 501.74V501.73ZM178.94 569.16C176.94 574.14 168.24 586.94 167.81 590.05C166.94 596.2 177 623.16 175.76 624.41C174.39 625.8 143.71 613.69 138.28 613.4C131.11 613.01 120.58 618.46 112.32 619.4C36.01 628.04 -11.73 541.69 37.96 483.12C96.13 414.57 216.28 476.12 178.94 569.16ZM508.76 103.79C506.14 104.3 465.79 92.4 456.78 91.22C415.71 85.85 374.91 90.24 336.03 103.98L324.7 90.39C370.14 59.97 430.13 51.79 483.61 60.4C489.33 61.32 531.98 71.91 533.35 74.1C534.38 75.74 510.66 103.43 508.76 103.8V103.79Z" fill="#2F0085"/>
<path d="M793.57 549.5C836.935 549.5 872.09 514.345 872.09 470.98C872.09 427.615 836.935 392.46 793.57 392.46C750.205 392.46 715.05 427.615 715.05 470.98C715.05 514.345 750.205 549.5 793.57 549.5Z" fill="#2F0085"/>
<path d="M619.26 233.88C621.59 238.01 630.15 256.77 630.15 260.35C630.15 263.68 619.94 288.46 618.54 296.59C612.67 330.59 615.25 371.2 638.23 398.68L638.56 401.84C635.41 407.97 616.16 432.4 609.98 431.25C609.39 431.14 608.82 430.91 608.26 430.64L604.73 428.75C576.25 386.09 520.1 383.29 475.87 397.02L473.89 395.38C439.7 323.45 336.3 315.38 303.17 394.06C267.54 377.42 222.28 377.98 198.89 413.81C196.79 418.97 194.07 423.24 190.73 426.64C183.23 417.1 164.95 392.62 166.77 380.2C166.99 378.71 181.39 359.99 183.9 355.39C203.43 319.63 202.05 279.03 219.69 242.86C263.24 152.82 368.77 113.13 464.46 128.57C528.17 138.86 590.3 174.32 619.24 233.87L619.26 233.88Z" fill="#FE80DD"/>
<path d="M436.47 757.25C436.79 763.85 436.38 766.68 429.03 769.29H183.21C171.68 767.8 170.31 761.9 167.07 752.47C154.44 715.72 150.05 671.08 138.82 633.41C153.24 634.85 178.02 651.15 190.28 640.43C198.78 633 194.69 628.07 192.75 619.43C192 616.07 197.45 614.9 200.22 614.69C222.16 613.04 244.46 612.6 266.63 613.23C306.8 615.15 346.96 615.54 387.11 614.4C402.36 615.15 405.83 630.48 408.65 643.29C413.54 668.39 417.83 693.61 421.53 718.96C424.06 731.89 426.68 745.23 432.39 756.96C433.91 756.01 434.99 755.68 436.46 757.26L436.47 757.25Z" fill="#9E23FE"/>
<path d="M608.27 430.65C612.25 431.15 615.31 438.27 613.26 441.64C602.77 448.36 567.32 467.87 555.77 465.21C554.93 465.02 547.39 455.34 543.65 452.82C500.31 423.56 448.31 481.36 491.4 510.56C491.61 511.04 491.76 511.52 491.72 511.99C491.38 515.94 459.77 518.73 453.37 519.24C431.45 520.99 409.42 521.59 387.52 519.56C315.05 515.66 236.05 484.34 190.74 426.67C206.31 380.07 262.94 370.87 302.56 392.66C329.45 323.87 417.13 318.24 462.39 373.27C465.53 377.09 475.2 394.68 476.37 395.27C477.24 395.71 492.02 390.62 495.21 390.03C536.94 382.33 585.06 391.58 608.26 430.66L608.27 430.65Z" fill="#FEFEFE"/>
<path d="M561.33 532.52C624.79 588 640.46 737.5 525.37 740.27C535.37 701.11 515.65 714.99 511.46 740.83L487.87 738.32C480.91 727.94 500.19 706.3 498.45 701.01C496.1 693.86 481.35 709.31 479.6 711.97C474.41 719.85 474.19 734.31 473.43 735.27C472.67 736.23 465.71 731.41 465.01 730.22C459.83 721.49 466.3 706.27 471.22 698.59C481.13 683.11 499.5 673.69 516.44 667.9C522.91 665.69 555.26 658.93 557.33 655.86C561.1 650.25 554.87 645.38 549.86 645.38H535.38C537.88 636.14 536.12 594.93 527.96 590.38C513.41 582.27 520.4 609.82 520.45 614.86C520.5 619.9 520.63 645.65 518.93 648.4C518.29 649.43 499.75 654.79 496.07 656.5C473.05 667.17 453.19 684.99 446.49 710.28L424.53 606.88C422.96 600.41 411.27 590.43 405.02 590.43H330.61C331.11 584.9 338.11 564.34 328.11 564.37C319.6 564.39 317.13 590.43 315.63 590.43H282.67C293.49 572.92 306.06 553.14 321.63 539.49L326.58 539.77C369.22 559.73 418.65 565.52 465.4 561.58C498.52 558.79 534.28 550.5 561.36 532.49L561.33 532.52Z" fill="#FE80DD"/>
<path d="M677.1 221.8C676.04 222.75 654.07 226.61 651.23 232.88C663.34 196.6 669.36 157.89 667.25 119.47C666.49 105.72 662.06 60.57 645.28 57.5C624.34 53.67 567.26 109.44 557.29 128.99L528.39 112.53C546.4 91.5 565.2 70.59 586.84 53.14C602 40.91 638.84 11.91 658.37 23.49C680.21 36.44 687.13 113.8 687.16 137.5C687.17 147.37 681.51 217.84 677.1 221.8Z" fill="#9E23FE"/>
<path d="M280.66 132.01C271.52 110.01 254.46 87.29 236.16 72.12C210.67 50.98 199.93 52.73 191.05 85.87C180.67 124.58 183.78 170.99 191.24 209.93C192.67 217.41 198.31 230.52 198.69 236.52C198.79 238.14 197.27 246.65 194.76 244.87C193.14 243.72 186.5 226.8 185.49 223.67C170.64 177.78 171.24 103.61 183.05 56.91C192.29 20.4 200.59 10.29 235.6 31.73C267.08 51 292.19 83.88 314.58 112.54L280.65 132.02L280.66 132.01Z" fill="#9E23FE"/>
<path d="M638.23 221.89C621.24 190.16 598.82 162.11 571.47 138.67C579.26 123.34 623.58 76.2499 639.77 76.9899C646.03 77.2799 648.1 94.8299 648.92 99.8599C655.4 139.73 649.78 183.49 638.24 221.88L638.23 221.89Z" fill="#EC45CE"/>
<path d="M619.26 233.88C536.88 87.68 296.43 92.77 220.7 243.86L219.72 242.86C287.78 70.09 543.14 65.56 619.26 233.87V233.88Z" fill="#FE9DDD"/>
<path d="M686.18 353.74L686.8 350.38C693.92 339.05 697.65 326.01 697.99 311.25C700.65 296.26 706.68 278.01 720.61 270.01C725.28 267.33 732.18 264 737.12 266.84C758.72 288.7 755.23 340.37 739.92 365.02C720.78 395.84 694.31 386.4 686.18 353.74Z" fill="#9E23FE"/>
<path d="M736.13 573.47L734.18 575.91C714.24 580.77 702.99 599.73 698.62 618.6L696.18 620.42L692.18 619.59C673.09 603.59 648.89 593.78 623.87 593.42L620.27 591.45C621.27 584.89 632.31 568.82 637.21 563.95C665.26 536.09 715.14 539.01 736.13 573.47Z" fill="#9E23FE"/>
<path d="M561.33 532.52C561.86 536.59 555.61 538.56 552.54 540.21C490.42 573.6 383.73 572.36 321.6 539.51C323.12 538.17 328.81 532.17 330.05 531.93C332.95 531.38 364.33 538.55 371.19 539.36C433.13 546.61 490.57 542.75 550.87 524.47C555.99 524.9 558.26 529.84 561.33 532.51V532.52Z" fill="#EC45CE"/>
<path d="M563.32 45.12L547.04 59.88C473.44 26.41 380.34 27.88 313.05 75.02L302.64 63.58C378.16 12.28 480.56 10.1 563.32 45.11V45.12Z" fill="#721AFE"/>
<path d="M644.23 371.72C624.39 330.16 638.39 216.29 706.16 244.86C667.02 260.16 661.86 326.95 671.2 361.73C668.71 362.75 666.58 364.66 664.84 367.46C660.08 370.58 649 374.58 644.24 371.72H644.23Z" fill="#6307ED"/>
<path d="M252.68 117.02L253.47 120.25C241.25 150.83 227.67 180.72 212.73 209.91C211.77 211.36 211.05 213.18 210.72 214.9C201.63 184.89 199.95 151.01 202.77 119.55C203.3 113.61 207.58 79.85 212.42 78.19C222.91 74.59 247.55 109.09 252.69 117.04L252.68 117.02Z" fill="#FE60D7"/>
<path d="M696.17 620.42C698.83 619.97 699.17 620.64 697.17 622.42L698.71 625.9C698.16 635.44 691.21 675.48 684.17 679.56C683.56 679.91 682.88 680.15 682.19 680.36C681.91 681.23 681.57 681.22 681.19 680.36L678.98 679.48C668.89 661.66 648.52 648.18 630.16 639.73L629.24 637.41C628.45 627.64 619.59 595.84 620.25 591.47C648.02 590.74 675.67 602.06 696.16 620.44L696.17 620.42Z" fill="#FE80DD"/>
<path d="M439.47 783.22C441.21 784.44 440.5 794.7 436.45 795.68L187.26 796.2C179.82 795.2 174.72 791.37 175.77 783.22H439.47Z" fill="#5403E4"/>
<path d="M681.19 680.35C683.41 683.57 682.13 686.3 680.51 689.54C673.91 702.8 651.75 724.96 637.6 730.3L635.24 729.29C634.96 730.18 634.63 730.16 634.24 729.29L631.92 727.94C630.18 719.5 627.7 710.52 620.58 705L620.26 702.32C629.52 681.59 631.07 659.92 629.25 637.4C642.13 640.29 679.88 668.01 681.19 680.35Z" fill="#9E23FE"/>
<path d="M172.71 243.94C173.16 244.25 176.71 253.6 176.62 254.13C176.47 254.96 169.78 263.51 168.62 266.18C159.13 287.99 157.68 308.6 158.82 332.24C159.09 337.8 163.15 350.14 162.58 354.04C162.41 355.21 150.48 373.61 149.3 373.69C148.41 373.75 142.48 365.8 141.62 364.41C125.02 337.75 129.77 282.47 149.39 257.94C152.32 254.27 167.9 240.62 172.71 243.93V243.94Z" fill="#6407ED"/>
<path d="M699.17 723.29C684.87 748.38 663.62 765.34 635.24 772.23C631.91 770.97 634.05 763.21 637.24 762.74C636.47 762.64 635.34 762.43 635.24 761.86C634.87 759.72 634.84 744.27 635.24 742.19L637.24 740.77C633.37 739.8 632.62 732.36 635.24 729.28C640.9 726.25 644.71 724.79 650.11 720.68C658.21 714.51 682.26 690.46 681.19 680.34H682.19C682.91 680.05 684.1 679.79 684.3 680.23C688.73 690.01 696.53 707.65 699.03 717.48C699.83 719.23 699.88 721.16 699.18 723.29H699.17Z" fill="#7310F5"/>
<path d="M436.47 757.25C429.41 761.49 429.63 761.75 428.42 756.41C420.85 722.93 414.72 666.77 403.43 631.97C400.42 622.7 402.33 616.31 387.06 616.38C328.21 616.88 259.43 616.55 192.61 618.8C191.74 615.43 190.98 612.58 189.75 608.43H398.01C402.6 608.43 406.75 614.23 408.21 618.21C415.73 638.8 435.39 735.31 436.47 757.25Z" fill="#CA6FFD"/>
<path d="M716.15 643.39C718.83 650.75 715.35 676.67 713.68 685.37C711.06 699.01 705.99 711.32 699.17 723.3L681.19 680.35C691.39 662.83 694.43 642.15 697.17 622.42L699.79 622.14C705.71 626.91 715.31 635.83 716.15 643.39Z" fill="#EC45CE"/>
<path d="M737.13 266.84C716.5 269.25 708.22 282.28 702.45 300.58C696.86 318.31 700.04 341.93 686.19 353.74C680.4 330.47 682.2 297.74 694.38 276.53C704.36 259.16 721.06 250.58 737.13 266.84Z" fill="#B959FE"/>
<path d="M512.15 462.87C554.48 457.03 550.18 506.58 511.15 501.3C485.84 497.88 486.66 466.39 512.15 462.87Z" fill="#4A02CF"/>
<path d="M635.24 772.23C590.07 779.03 601.1 784.86 595.29 743.26C606.11 735.52 623.17 734.92 635.24 729.27C637.37 741.96 638.67 759.56 635.24 772.22V772.23Z" fill="#EC45CE"/>
<path d="M554.34 783.22C556.41 784.9 548 795.2 542.78 796.13C533.37 797.81 470.42 797.87 460.9 796.26C453.03 794.93 457.51 789.59 456.46 783.22H554.35H554.34Z" fill="#5302E4"/>
<path d="M736.13 573.47C736.81 574.58 740.18 578.1 740.05 578.98C739.91 579.92 729.47 587.6 726.33 592.14C714.33 609.51 718.28 623.75 716.15 643.39C714.48 638.8 701.35 626.33 697.17 622.42C696.75 622.03 696.58 620.79 696.17 620.42C700.47 599.27 713.23 577.48 736.12 573.48L736.13 573.47Z" fill="#7410F5"/>
<path d="M252.68 117.02C255.27 121.03 268.42 139.81 267.57 143.38C267.27 144.65 250.71 158.15 248.15 160.93C234.37 175.89 223.9 193 212.73 209.91L252.68 117.02Z" fill="#EC45CE"/>
<path d="M677.19 414.67C658.96 438.05 631.38 465.95 604.27 478.59C595.78 483.18 568.59 495.7 560.34 492.65C559.63 492.39 558.97 492 558.32 491.57C558.85 490.02 557.76 484.26 558.34 483.59C558.92 482.92 572.98 481.35 576.52 480.29C616.48 468.37 646.09 443.02 673.2 412.66C675.11 410.46 677.73 411.74 677.2 414.66L677.19 414.67Z" fill="#791EFC"/>
<path d="M555.33 767.24H454.45C458 764.45 454.62 749.77 455.96 749.25C456.82 748.91 470.1 755.12 473.21 755.97C490.99 760.84 506.44 761.81 524.85 761.22C536.71 760.84 550.27 752.45 555.34 767.24H555.33Z" fill="#690BEF"/>
<path d="M635.24 729.29C635.09 729.37 634.11 731.51 632.68 732.18C620.62 737.83 607.64 738.83 595.29 743.28C594.93 741.12 592.7 738.23 593.44 736.46C593.78 735.66 604 727.6 606.24 724.77C611.58 718.01 616.74 710.21 620.26 702.33C629.63 708.49 633.12 719.03 635.24 729.3V729.29Z" fill="#FE80DD"/>
<path d="M671.2 361.73C672.71 367.35 676.52 373.98 679.19 379.23L667.09 395.6C655.84 391.25 649.21 382.14 644.23 371.71C650.75 370.24 668.56 363.79 671.2 361.72V361.73Z" fill="#4701CF"/>
<path d="M613.27 441.63C611.8 437.92 610.32 434.08 608.28 430.64C620.85 424.38 630.54 410.63 638.25 398.68C639.89 400.64 649.46 407.99 649.8 408.68C652.66 414.38 619.02 437.96 613.28 441.63H613.27Z" fill="#E846DA"/>
<path d="M172.78 327.77C173.07 311.19 173.91 288.38 181.9 273.48C193.85 251.23 183.51 294.72 182.26 299.81C180.01 308.95 177.64 319.67 172.78 327.77Z" fill="#4402C1"/>
<path d="M578.3 747.26C579.8 752.47 582.47 775.25 578.31 777.73C570.08 782.63 572.86 771.67 571.66 766.39C568.52 752.56 557.88 751.57 578.3 747.26Z" fill="#EC45CE"/>
<path d="M604.28 478.59C592.16 485.72 566.19 500.89 552.81 502.54C549.93 502.9 557.5 493.99 558.33 491.57C573.46 489.66 590.44 485.04 604.28 478.59Z" fill="#DCB9FB"/>
<path d="M673.2 412.67C676.15 409.36 686.68 394.74 688.66 393.58C700.23 386.79 678.14 413.46 677.19 414.67L673.19 412.67H673.2Z" fill="#4903D0"/>
<path d="M793.55 532.31C827.383 532.31 854.81 504.883 854.81 471.05C854.81 437.217 827.383 409.79 793.55 409.79C759.717 409.79 732.29 437.217 732.29 471.05C732.29 504.883 759.717 532.31 793.55 532.31Z" fill="#4ADEBA"/>
<path d="M493.15 274.08C548.04 265.27 545.77 363.49 501.87 367.7C452.1 372.46 455.62 280.11 493.15 274.08Z" fill="#2F0085"/>
<path d="M288.38 269.08C338.98 260.37 338.91 357.25 296.11 360.7C247.39 364.63 252.23 275.3 288.38 269.08Z" fill="#2F0085"/>
<path d="M497.23 197.19C512.74 196.34 535.48 208.42 539.4 224.33C545.1 247.43 524.33 225.51 518.31 222.45C498.09 212.16 493.84 220.93 477.99 219.79C459.91 218.49 480.3 198.1 497.22 197.18L497.23 197.19Z" fill="#2F0085"/>
<path d="M296.39 195.19C305.62 194.08 321.49 197.82 323.42 208.66C325.93 222.76 305.37 213.18 296.57 214.36C287.05 215.64 261.63 238.66 264.06 221.87C265.74 210.24 285.26 196.53 296.39 195.19Z" fill="#2F0085"/>
<path d="M271.818 674.544C299.853 668.719 309.657 711.481 284.599 714.763C256.843 718.4 250.238 679.032 271.818 674.544Z" fill="#FEFEFE"/>
<path d="M387.82 423.37C395.79 433.8 427.59 429.87 437.99 422.68C445.04 417.81 447.9 406.15 457.49 409.12C470.14 413.04 457.24 428.39 455.91 432.61C445.77 464.77 433.91 502.14 390.31 497.29C350.4 492.85 353.19 462.85 336.45 443.28C333.12 439.38 325.18 437.63 320.1 431.66C315.42 426.16 306.62 407.06 320.6 410.11C331.94 412.59 330.55 431.82 355.41 428.01C357.34 427.71 370.09 423.26 370.47 422.56C370.89 421.77 368.9 405.56 368.42 404.81C367.62 403.57 350.78 397.77 344.34 388.44C315.47 346.65 400.24 343.1 411.53 364.2C423.51 386.58 384.69 402.98 383.72 406.26C383.36 407.47 386.73 421.95 387.82 423.37Z" fill="#2F0085"/>
<path d="M135.97 565.64C133.78 569.48 144.46 585.85 136.34 586.41C131.23 586.76 112.88 568.19 107.09 566.74C98.61 564.62 82.72 565.39 72.48 565.39C37.93 565.39 37.37 498.59 72.38 498.59C85.16 498.59 133.64 497.63 143.74 503.12C160.24 512.08 161.93 539.74 151.79 553.99C147.96 559.38 136.47 564.78 135.97 565.64Z" fill="#9E23FE"/>
<path d="M818.75 441.85C828.4 439.35 833.2 446.7 830.47 455.57C829.57 458.51 795.68 502.73 792.81 503.8C788.74 505.32 785.85 504.91 782.12 503.02C780.13 502.01 756.23 477.37 755.66 475.55C753.36 468.23 757.61 460.64 765.49 461.64C771.51 462.4 784.38 480.89 787.42 480.51C791.11 480.06 812.32 443.53 818.75 441.86V441.85Z" fill="#FEFEFE"/>
<path d="M506.16 293.99C519.23 292.67 523.45 321.14 507.87 320.65C495.81 320.27 492.79 295.33 506.16 293.99Z" fill="#FDFDFD"/>
<path d="M300.35 291.03C315.7 287.45 319.71 315.16 305.84 316.61C293.41 317.91 288.74 293.74 300.35 291.03Z" fill="#FDFDFD"/>
<path d="M402.31 455.92C414.5 454.73 436.24 456.06 421.01 471.62C410.27 482.59 392.72 484.68 379.33 477.3C360.39 466.85 392.98 456.83 402.31 455.92Z" fill="#FE80DD"/>
<path d="M367.88 380.11C369.11 380.23 370.35 380.29 371.57 380.29C372.62 380.29 373.75 380.22 374.93 380.11C375.4 380.06 375.88 380.01 376.37 379.94C377.34 379.81 378.33 379.65 379.33 379.46C380.08 379.32 380.83 379.16 381.59 378.98C381.84 378.92 382.09 378.86 382.34 378.8C382.84 378.68 383.34 378.55 383.83 378.41C384.32 378.27 384.81 378.13 385.29 377.99C385.77 377.85 386.25 377.69 386.71 377.54C387.41 377.31 388.09 377.06 388.75 376.8C389.04 376.69 389.32 376.57 389.6 376.46C390.32 376.16 390.99 375.85 391.62 375.54C391.94 375.38 392.25 375.21 392.55 375.05C392.73 374.95 392.91 374.85 393.08 374.74C393.41 374.54 393.73 374.33 394.02 374.13C394.13 374.05 394.24 373.97 394.34 373.9C394.66 373.66 394.95 373.41 395.21 373.16C395.34 373.04 395.45 372.91 395.56 372.79C395.83 372.48 396.04 372.17 396.18 371.86C396.52 371.14 396.5 370.41 396.05 369.71C395.92 369.51 395.75 369.31 395.55 369.11C394.74 368.32 393.32 367.56 391.16 366.87C390.08 366.52 388.82 366.19 387.36 365.88C386.63 365.72 385.85 365.57 385.02 365.43C379.94 364.55 374.19 364.24 368.79 364.64C366.99 364.77 365.23 364.99 363.54 365.28C362.01 365.55 360.63 365.84 359.4 366.15C358.58 366.35 357.82 366.57 357.12 366.78C356.42 367 355.79 367.22 355.21 367.45C354.92 367.57 354.65 367.68 354.39 367.8C354.18 367.89 353.98 367.99 353.79 368.09C353.03 368.47 352.41 368.87 351.92 369.27C351.07 369.97 350.62 370.7 350.5 371.44C350.47 371.65 350.46 371.86 350.48 372.07C350.53 372.59 350.75 373.11 351.11 373.62C351.18 373.72 351.26 373.82 351.34 373.93C351.51 374.13 351.69 374.33 351.9 374.53C352.21 374.83 352.57 375.12 352.97 375.41C353.24 375.6 353.52 375.79 353.82 375.97C354.12 376.15 354.44 376.34 354.77 376.51C356.27 377.31 358.07 378.02 360.06 378.61C360.5 378.74 360.95 378.87 361.41 378.98C363.01 379.39 364.7 379.72 366.41 379.95C366.9 380.01 367.39 380.07 367.88 380.12V380.11Z" fill="#9E23FE"/>
<g clip-path="url(#clip1_37909_413)">
<path d="M76.1173 51.9103L87.1214 81.6539C89.0465 86.8527 93.1423 90.9485 98.3411 92.8736L128.085 103.878C133.298 105.808 133.298 113.187 128.085 115.112L98.3411 126.116C93.1423 128.041 89.0465 132.137 87.1214 137.336L76.1173 167.08C74.1872 172.293 66.8077 172.293 64.8827 167.08L53.8786 137.336C51.9535 132.137 47.8577 128.041 42.6589 126.116L12.9153 115.112C7.70157 113.182 7.70157 105.803 12.9153 103.878L42.6589 92.8736C47.8577 90.9485 51.9535 86.8527 53.8786 81.6539L64.8827 51.9103C66.8128 46.6966 74.1923 46.6966 76.1173 51.9103Z" fill="#F4D15B"/>
</g>
<g clip-path="url(#clip2_37909_413)">
<path d="M49.3795 181.353L55.9999 199.247C57.1581 202.375 59.6222 204.839 62.7499 205.997L80.6444 212.617C83.7812 213.779 83.7812 218.218 80.6444 219.377L62.7499 225.997C59.6222 227.155 57.1581 229.619 55.9999 232.747L49.3795 250.641C48.2183 253.778 43.7786 253.778 42.6205 250.641L36.0001 232.747C34.8419 229.619 32.3778 227.155 29.2501 225.997L11.3556 219.377C8.21883 218.215 8.21883 213.776 11.3556 212.617L29.2501 205.997C32.3778 204.839 34.8419 202.375 36.0001 199.247L42.6205 181.353C43.7817 178.216 48.2214 178.216 49.3795 181.353Z" fill="#F4D15B"/>
</g>
</g>
<defs>
<clipPath id="clip0_37909_413">
<rect width="872.09" height="841.55" fill="white"/>
</clipPath>
<clipPath id="clip1_37909_413">
<rect width="123" height="123" fill="white" transform="translate(9 48)"/>
</clipPath>
<clipPath id="clip2_37909_413">
<rect width="74" height="74" fill="white" transform="translate(9 179)"/>
</clipPath>
</defs>
</svg>
