<svg width="130" height="24" viewBox="0 0 130 24" fill="none" xmlns="http://www.w3.org/2000/svg">
<path d="M95.8291 20.0939C94.5392 20.0939 93.363 19.7904 92.3007 19.1834C91.251 18.5637 90.4226 17.729 89.8156 16.6793C89.2086 15.6296 88.905 14.4788 88.905 13.2267C88.905 11.962 89.1959 10.8049 89.7777 9.75518C90.3721 8.69285 91.1941 7.85816 92.2438 7.25112C93.2935 6.63142 94.4886 6.32158 95.8291 6.32158C96.9041 6.32158 97.8273 6.49231 98.5988 6.83377C99.3829 7.16259 100.078 7.68743 100.686 8.4083L98.8075 10.0397C98.0107 9.20505 97.0179 8.7877 95.8291 8.7877C94.9945 8.7877 94.2609 8.99005 93.6286 9.39475C92.9963 9.7868 92.5094 10.3243 92.1679 11.0072C91.8264 11.6775 91.6557 12.4173 91.6557 13.2267C91.6557 14.0361 91.8264 14.776 92.1679 15.4462C92.522 16.1165 93.0152 16.6477 93.6476 17.0397C94.2926 17.4318 95.0387 17.6278 95.8861 17.6278C97.1254 17.6278 98.1372 17.1978 98.9213 16.3378L100.856 17.9882C100.325 18.6332 99.6295 19.1454 98.7695 19.5248C97.9222 19.9042 96.9421 20.0939 95.8291 20.0939Z" fill="url(#paint0_linear_55488_610)"/>
<path d="M101.75 5.99908H104.311V11.3487C104.842 10.2863 105.835 9.75518 107.289 9.75518C107.997 9.75518 108.636 9.92591 109.205 10.2674C109.774 10.5962 110.223 11.0704 110.552 11.6901C110.881 12.2972 111.045 13.0054 111.045 13.8148V19.8473H108.484V14.4408C108.484 13.6188 108.295 13.0054 107.915 12.6007C107.536 12.196 107.017 11.9937 106.36 11.9937C105.778 11.9937 105.291 12.2023 104.899 12.6197C104.507 13.0244 104.311 13.6314 104.311 14.4408V19.8473H101.75V5.99908Z" fill="url(#paint1_linear_55488_610)"/>
<path d="M116.972 20.0939C116.087 20.0939 115.271 19.8663 114.525 19.411C113.779 18.9431 113.184 18.3171 112.742 17.533C112.312 16.7489 112.097 15.8889 112.097 14.953C112.097 14.0171 112.312 13.1572 112.742 12.3731C113.184 11.5763 113.779 10.944 114.525 10.476C115.271 10.0081 116.087 9.77415 116.972 9.77415C117.782 9.77415 118.433 9.92591 118.926 10.2294C119.432 10.533 119.824 10.9693 120.102 11.5384V9.98282H122.644V19.8473H120.159V18.2349C119.868 18.8293 119.47 19.2909 118.964 19.6197C118.471 19.9358 117.807 20.0939 116.972 20.0939ZM114.658 14.934C114.658 15.4399 114.772 15.9142 114.999 16.3568C115.24 16.7868 115.562 17.1346 115.967 17.4002C116.384 17.6531 116.858 17.7796 117.389 17.7796C117.933 17.7796 118.414 17.6531 118.831 17.4002C119.261 17.1472 119.59 16.8058 119.818 16.3758C120.045 15.9458 120.159 15.4715 120.159 14.953C120.159 14.4345 120.045 13.9602 119.818 13.5302C119.59 13.0876 119.261 12.7398 118.831 12.4869C118.414 12.2213 117.933 12.0885 117.389 12.0885C116.858 12.0885 116.384 12.2213 115.967 12.4869C115.549 12.7398 115.227 13.0813 114.999 13.5113C114.772 13.9413 114.658 14.4155 114.658 14.934Z" fill="url(#paint2_linear_55488_610)"/>
<path d="M127.903 19.8473C126.904 19.8473 126.151 19.6007 125.646 19.1075C125.14 18.6143 124.887 17.8428 124.887 16.7931V12.1644H123.502V9.98282H124.887V7.99095L127.448 7.72537V9.98282H129.534V12.1644H127.448V16.6603C127.448 17.2674 127.713 17.5709 128.244 17.5709H129.307V19.8473H127.903Z" fill="url(#paint3_linear_55488_610)"/>
<path d="M29.9676 8.53355H26.0076V6.03874H36.6996V8.53355H32.7396V19.8988H29.9676V8.53355Z" fill="black"/>
<path d="M34.7731 9.60276H37.9016L39.2282 15.4438C39.3734 16.0378 39.479 16.5592 39.545 17.008C39.6374 16.4404 39.7496 15.9124 39.8816 15.424L41.3864 9.60276H44.4554L46.0592 15.424C46.1912 15.9124 46.3034 16.4404 46.3958 17.008C46.4618 16.5592 46.5674 16.0378 46.7126 15.4438L48.1382 9.60276H51.0488L47.8412 19.8988H44.9504L43.2674 14.038C43.109 13.5628 42.9902 13.048 42.911 12.4936C42.8186 13.1008 42.713 13.6156 42.5942 14.038L41.0498 19.8988H37.9808L34.7731 9.60276Z" fill="black"/>
<path d="M55.8293 20.1562C54.9053 20.1562 54.0539 19.9186 53.2751 19.4434C52.4963 18.955 51.8759 18.3016 51.4139 17.4832C50.9651 16.6648 50.7407 15.7672 50.7407 14.7904C50.7407 13.8136 50.9651 12.916 51.4139 12.0976C51.8759 11.266 52.4963 10.606 53.2751 10.1176C54.0539 9.62916 54.9053 9.38496 55.8293 9.38496C56.6741 9.38496 57.354 9.54336 57.8688 9.86016C58.3968 10.177 58.806 10.6324 59.0964 11.2264V9.60276H61.7496V19.8988H59.1558V18.2158C58.8522 18.8362 58.4364 19.318 57.9084 19.6612C57.3936 19.9912 56.7005 20.1562 55.8293 20.1562ZM53.4137 14.7706C53.4137 15.2986 53.5325 15.7936 53.7701 16.2556C54.0209 16.7044 54.3575 17.0674 54.7799 17.3446C55.2155 17.6086 55.7105 17.7406 56.2649 17.7406C56.8325 17.7406 57.3342 17.6086 57.7698 17.3446C58.2186 17.0806 58.5618 16.7242 58.7994 16.2754C59.037 15.8266 59.1558 15.3316 59.1558 14.7904C59.1558 14.2492 59.037 13.7542 58.7994 13.3054C58.5618 12.8434 58.2186 12.4804 57.7698 12.2164C57.3342 11.9392 56.8325 11.8006 56.2649 11.8006C55.7105 11.8006 55.2155 11.9392 54.7799 12.2164C54.3443 12.4804 54.0077 12.8368 53.7701 13.2856C53.5325 13.7344 53.4137 14.2294 53.4137 14.7706Z" fill="black"/>
<path d="M66.0108 15.0082V19.8988H63.3378V5.44473H66.0108V13.7608L69.8718 9.60276H73.6734L68.8224 14.3944L73.6932 19.8988H70.149L66.0108 15.0082Z" fill="black"/>
<path d="M78.0134 20.1562C76.9706 20.1562 76.0466 19.9186 75.2414 19.4434C74.4361 18.955 73.8091 18.3016 73.3603 17.4832C72.9115 16.6648 72.6871 15.7606 72.6871 14.7706C72.6871 13.7938 72.9181 12.8896 73.3801 12.058C73.8421 11.2264 74.4757 10.5664 75.281 10.078C76.0994 9.58956 77.0102 9.34536 78.0134 9.34536C79.0166 9.34536 79.9142 9.58956 80.7062 10.078C81.5114 10.5664 82.1318 11.2264 82.5674 12.058C83.0162 12.8764 83.2406 13.7806 83.2406 14.7706C83.2406 15.1006 83.2142 15.4174 83.1614 15.721H75.4592C75.6176 16.3414 75.9146 16.843 76.3502 17.2258C76.799 17.5954 77.3534 17.7802 78.0134 17.7802C78.5678 17.7802 79.0628 17.6548 79.4984 17.404C79.934 17.14 80.2772 16.8034 80.528 16.3942L82.607 17.9584C82.1846 18.6184 81.5642 19.153 80.7458 19.5622C79.9274 19.9582 79.0166 20.1562 78.0134 20.1562ZM80.5478 13.7212C80.3894 13.1272 80.0792 12.6322 79.6172 12.2362C79.1552 11.8402 78.6074 11.6422 77.9738 11.6422C77.3534 11.6422 76.8122 11.8336 76.3502 12.2164C75.9014 12.5992 75.6044 13.1008 75.4592 13.7212H80.5478Z" fill="black"/>
<rect x="0.659424" y="1.32928" width="21.3415" height="21.3415" rx="7.04807" fill="white"/>
<rect x="0.659424" y="1.32928" width="21.3415" height="21.3415" rx="7.04807" fill="url(#paint4_linear_55488_610)"/>
<rect x="0.659424" y="1.32928" width="21.3415" height="21.3415" rx="7.04807" fill="url(#paint5_linear_55488_610)"/>
<rect x="0.659424" y="1.32928" width="21.3415" height="21.3415" rx="7.04807" fill="url(#paint6_linear_55488_610)"/>
<path d="M11.2458 5.85263C15.0591 5.85263 18.1504 8.52236 18.1504 11.8156C18.1504 15.1089 15.0591 17.7786 11.2458 17.7786C10.464 17.7786 9.71256 17.6664 9.01187 17.4596C8.22889 18.0685 7.01449 18.5798 5.36908 18.9925C5.29117 19.0121 5.20875 19.0012 5.13862 18.962C4.98649 18.8771 4.93198 18.685 5.01688 18.5329L5.13463 18.3192C5.68107 17.3137 6.022 16.4891 6.15743 15.8453C5.02937 14.7843 4.34131 13.3694 4.34131 11.8156C4.34131 8.52236 7.43257 5.85263 11.2458 5.85263Z" fill="white"/>
<defs>
<linearGradient id="paint0_linear_55488_610" x1="95.5732" y1="2.8313" x2="106.484" y2="29.4214" gradientUnits="userSpaceOnUse">
<stop stop-color="#74DF74"/>
<stop offset="1" stop-color="#32B332"/>
</linearGradient>
<linearGradient id="paint1_linear_55488_610" x1="95.5732" y1="2.8313" x2="106.484" y2="29.4214" gradientUnits="userSpaceOnUse">
<stop stop-color="#74DF74"/>
<stop offset="1" stop-color="#32B332"/>
</linearGradient>
<linearGradient id="paint2_linear_55488_610" x1="95.5732" y1="2.8313" x2="106.484" y2="29.4214" gradientUnits="userSpaceOnUse">
<stop stop-color="#74DF74"/>
<stop offset="1" stop-color="#32B332"/>
</linearGradient>
<linearGradient id="paint3_linear_55488_610" x1="95.5732" y1="2.8313" x2="106.484" y2="29.4214" gradientUnits="userSpaceOnUse">
<stop stop-color="#74DF74"/>
<stop offset="1" stop-color="#32B332"/>
</linearGradient>
<linearGradient id="paint4_linear_55488_610" x1="22.0009" y1="13.7785" x2="16.2228" y2="10.0895" gradientUnits="userSpaceOnUse">
<stop offset="0.12998" stop-color="#A033FF"/>
<stop offset="0.610381" stop-color="#0094FF"/>
<stop offset="1" stop-color="#4FB500"/>
</linearGradient>
<linearGradient id="paint5_linear_55488_610" x1="10.4409" y1="7.99849" x2="3.77172" y2="21.3369" gradientUnits="userSpaceOnUse">
<stop stop-color="#FFD600" stop-opacity="0"/>
<stop offset="0.563347" stop-color="#FFC700"/>
</linearGradient>
<linearGradient id="paint6_linear_55488_610" x1="12.2194" y1="13.7785" x2="19.7778" y2="21.7815" gradientUnits="userSpaceOnUse">
<stop offset="0.0297327" stop-color="#FF3B30" stop-opacity="0"/>
<stop offset="0.842824" stop-color="#E73B2D"/>
</linearGradient>
</defs>
</svg>
