<svg width="100" height="100" viewBox="0 0 100 100" fill="none" xmlns="http://www.w3.org/2000/svg">
<path d="M14.5 26.2207C14.5 17.6603 21.4396 10.7207 30 10.7207H70C78.5604 10.7207 85.5 17.6603 85.5 26.2207V74.2207C85.5 82.7811 78.5604 89.7207 70 89.7207H30C21.4396 89.7207 14.5 82.7811 14.5 74.2207V26.2207Z" fill="#F9F3FF" stroke="#AF52DE"/>
<path d="M50.5009 76C54.0256 75.9907 56.9045 73.2025 57 69.7055L55.39 55.8498C55.2033 54.0484 53.6992 52.6641 51.8754 52.6148H49.1069C47.3227 52.6561 45.833 53.9777 45.5923 55.7329L44.0019 69.3742C43.9596 71.1136 44.625 72.7966 45.8479 74.0433C47.0707 75.29 48.7479 75.9953 50.5009 76ZM47.0453 69.2573L47.2023 67.8542C47.3352 66.149 48.768 64.8326 50.4911 64.8326C52.2143 64.8326 53.6471 66.149 53.7799 67.8542L53.937 69.2573C54.0529 70.0525 53.8097 70.8579 53.2724 71.4588C52.7351 72.0598 51.9582 72.3951 51.1489 72.3753H49.8334C49.0063 72.3931 48.2145 72.0429 47.6748 71.4206C47.1352 70.7982 46.9042 69.9689 47.0453 69.1598V69.2573ZM48.5375 58.1104V57.3114C48.6349 56.3777 49.4276 55.6682 50.3733 55.6682C51.319 55.6682 52.1117 56.3777 52.2092 57.3114L52.3073 58.1104C52.3716 58.556 52.2335 59.007 51.9303 59.3418C51.627 59.6767 51.1899 59.8608 50.7366 59.8448H50.0101C49.5739 59.8325 49.1637 59.636 48.8825 59.3048C48.6013 58.9736 48.4758 58.5391 48.5375 58.1104Z" fill="#AF52DE"/>
<path d="M49.7252 38H46.9175C46.0771 38 45.3958 38.6762 45.3958 39.5103C45.3958 40.3444 46.0771 41.0206 46.9175 41.0206H49.7252C50.5656 41.0206 51.2469 40.3444 51.2469 39.5103C51.2469 38.6762 50.5656 38 49.7252 38Z" fill="#AF52DE"/>
<path d="M52.8471 41.0207H50.0394C49.199 41.0207 48.5177 41.6969 48.5177 42.531C48.5177 43.3651 49.199 44.0413 50.0394 44.0413H52.8471C53.6875 44.0413 54.3688 43.3651 54.3688 42.531C54.3688 41.6969 53.6875 41.0207 52.8471 41.0207Z" fill="#AF52DE"/>
<path d="M49.7252 44.0214H46.9174C46.077 44.0214 45.3958 44.6976 45.3958 45.5317C45.3958 46.3658 46.077 47.042 46.9174 47.042H49.7252C50.5656 47.042 51.2469 46.3658 51.2469 45.5317C51.2469 44.6976 50.5656 44.0214 49.7252 44.0214Z" fill="#AF52DE"/>
<path d="M52.8471 47.0414H50.0394C49.199 47.0414 48.5177 47.7176 48.5177 48.5517C48.5177 49.3858 49.199 50.062 50.0394 50.062H52.8471C53.6875 50.062 54.3688 49.3858 54.3688 48.5517C54.3688 47.7176 53.6875 47.0414 52.8471 47.0414Z" fill="#AF52DE"/>
</svg>
