<svg width="182" height="182" viewBox="0 0 182 182" fill="none" xmlns="http://www.w3.org/2000/svg">
<g clip-path="url(#clip0_13653_10540)">
<path d="M40.1599 35.1967C49.8792 35.1967 57.7583 27.3176 57.7583 17.5983C57.7583 7.87905 49.8792 0 40.1599 0C30.4406 0 22.5616 7.87905 22.5616 17.5983C22.5616 27.3176 30.4406 35.1967 40.1599 35.1967Z" fill="#9BC8FF"/>
<path d="M91.3004 54.1487C101.02 54.1487 108.899 46.2697 108.899 36.5504C108.899 26.8311 101.02 18.952 91.3004 18.952C81.5811 18.952 73.702 26.8311 73.702 36.5504C73.702 46.2697 81.5811 54.1487 91.3004 54.1487Z" fill="#0A84FF"/>
<path d="M129.656 106.793C129.656 85.3625 112.28 67.9868 90.849 67.9868C69.4182 67.9868 52.0424 85.3625 52.0424 106.793V166.056H81.2226V182L101.354 166.056H129.656V106.793Z" fill="#0A84FF"/>
<path d="M142.742 36.7008C152.462 36.7008 160.341 28.8218 160.341 19.1025C160.341 9.38318 152.462 1.50414 142.742 1.50414C133.023 1.50414 125.144 9.38318 125.144 19.1025C125.144 28.8218 133.023 36.7008 142.742 36.7008Z" fill="#9BC8FF"/>
<path d="M47.2293 106.793C47.2293 89.2643 57.6229 74.1207 72.5709 67.1926C65.7031 56.2847 53.5527 49.0348 39.7086 49.0348C18.2778 49.0348 0.902039 66.4105 0.902039 87.8414V147.104H20.1549V163.048L40.2862 147.104H47.2293V106.793Z" fill="#9BC8FF"/>
<path d="M142.291 49.0348C128.402 49.0348 116.218 56.3328 109.362 67.3039C124.184 74.2801 134.469 89.3575 134.469 106.793V126.046H144.721L164.853 141.99V126.046H181.097V87.8414C181.097 66.4105 163.722 49.0348 142.291 49.0348Z" fill="#9BC8FF"/>
</g>
<defs>
<clipPath id="clip0_13653_10540">
<rect width="180.195" height="182" fill="white" transform="translate(0.902466)"/>
</clipPath>
</defs>
</svg>
