<svg width="100" height="100" viewBox="0 0 100 100" fill="none" xmlns="http://www.w3.org/2000/svg">
<rect x="10" y="10" width="80" height="80" rx="16" fill="#818C99" fill-opacity="0.12"/>
<path d="M54.51 31.9933C55.05 32.1178 55.5278 32.3157 55.9976 32.6095C56.4674 32.9033 56.848 33.2118 57.8439 34.2077L63.9734 40.3372C64.9693 41.3331 65.2777 41.7136 65.5716 42.1835C65.8654 42.6533 66.0633 43.1311 66.1877 43.671C66.3122 44.211 66.3632 44.6982 66.3632 46.1066V59.3709C66.3632 61.8023 66.11 62.684 65.6346 63.5729C65.1593 64.4618 64.4617 65.1594 63.5728 65.6348C62.6839 66.1102 61.8022 66.3633 59.3708 66.3633H42.4465C40.0151 66.3633 39.1334 66.1102 38.2445 65.6348C37.3556 65.1594 36.658 64.4618 36.1826 63.5729C35.7073 62.684 35.4541 61.8023 35.4541 59.3709V38.8103C35.4541 36.3789 35.7073 35.4972 36.1826 34.6083C36.658 33.7194 37.3556 33.0218 38.2445 32.5464C39.1334 32.071 40.0151 31.8179 42.4465 31.8179H52.0744C53.4828 31.8179 53.97 31.8689 54.51 31.9933ZM53.2723 35.3165C52.971 35.3165 52.7268 35.5607 52.7268 35.862V42.727C52.7268 43.2291 53.1338 43.6361 53.6359 43.6361H60.5009C60.6456 43.6361 60.7843 43.5786 60.8866 43.4763C61.0996 43.2633 61.0996 42.918 60.8866 42.7049L53.658 35.4763C53.5557 35.374 53.4169 35.3165 53.2723 35.3165Z" fill="#99A2AD"/>
</svg>
