<svg width="180" height="180" viewBox="0 0 180 180" fill="none" xmlns="http://www.w3.org/2000/svg">
<g clip-path="url(#clip0_39411_55372)">
<path d="M168.633 89.2048C168.158 83.3853 165.767 78.3902 161.717 74.7573C157.904 71.3372 152.893 69.4533 147.607 69.4533C143.649 69.4533 139.638 70.5272 136.007 72.5604C135.827 72.6607 135.608 72.81 135.328 73.0186C135.348 72.6054 135.354 72.2884 135.338 72.0511C135.301 71.4906 135.215 70.9813 135.131 70.4883C135.101 70.3042 135.07 70.1201 135.041 69.934C134.841 68.6023 134.145 66.4055 133.337 63.8608C132.644 61.6762 131.513 58.1068 131.429 56.9286C131.701 56.452 132.321 55.4537 132.793 54.6908C133.816 53.04 134.507 51.915 134.777 51.3545C137.866 44.9316 139.472 37.8725 139.55 30.3736C139.621 23.6418 138.463 16.5316 136.113 9.2393C134.534 4.33209 131.14 1.73633 126.305 1.73633C122.572 1.73633 117.961 3.30524 112.596 6.40011C107.979 9.06338 104.025 12.146 102.08 13.7456C101.744 14.0217 101.063 14.6661 99.979 15.697C99.1915 16.4457 97.9887 17.5871 97.3137 18.1864C96.6918 18.0596 95.7345 17.8448 94.9716 17.673C93.1797 17.27 92.0526 17.0205 91.4921 16.9509C88.0618 16.5234 84.5742 16.3086 81.1275 16.3086C78.3947 16.3086 75.6393 16.4457 72.9331 16.7136C72.0188 16.8036 70.634 17.1043 69.1694 17.4234C68.0587 17.6648 66.6022 17.9819 65.827 18.078C64.9372 17.3846 62.8057 15.4822 61.5887 14.3961C60.3573 13.2956 59.582 12.6083 59.2097 12.3137C54.2555 8.41291 44.7745 1.8652 36.9136 1.8652C33.7287 1.8652 31.092 2.92068 29.0772 5.00302C27.0194 7.13037 25.52 13.5267 25.027 15.6275C24.0534 19.7717 23.2638 24.4396 23.1472 26.7264C22.5867 37.7764 25.4423 48.4478 31.1984 56.8774C30.779 59.0314 30.1654 61.1096 29.5722 63.1285C28.2119 67.7432 26.8066 72.5154 27.7169 78.1406C28.7478 84.5165 33.1621 90.8167 39.54 95.0366C40.1373 95.6114 41.2746 96.2148 44.077 97.5935C44.4513 97.7776 44.8768 97.9862 45.2818 98.1888C44.9504 98.5529 44.6047 98.9313 44.3142 99.2483C42.9478 100.74 42.0908 101.682 41.7123 102.208C41.381 102.67 40.8369 103.62 39.9757 105.129C39.5011 105.962 38.7954 107.201 38.325 107.964C38.0815 107.936 37.8259 107.901 37.6049 107.872C37.3513 107.522 36.9995 107.019 36.7172 106.614C35.5656 104.964 34.8292 103.926 34.3137 103.44C32.4543 101.685 30.4231 100.832 28.1096 100.832C27.588 100.832 27.0419 100.877 26.4834 100.962C25.5814 101.104 24.5995 101.627 23.5849 102.229C22.5213 101.615 21.6437 101.14 20.9155 100.985C20.3264 100.86 19.7291 100.797 19.138 100.797C16.8204 100.797 14.9263 101.787 13.9383 103.511C12.3632 106.264 13.4944 109.222 14.5622 111.176C13.6049 111.479 12.576 112.055 11.8662 113.189C11.007 114.557 10.7779 116.05 11.1993 117.507C12.0666 120.503 15.5522 122.717 18.3239 124.044C22.4251 126.01 28.6701 127.998 32.0248 129.066C32.4666 129.207 33.3462 129.407 34.7433 129.722C35.2342 129.833 35.8744 129.978 36.4656 130.117C36.1649 130.888 35.944 131.545 35.8785 132.097C34.6655 142.118 41.8903 149.362 56.2212 152.489C56.7203 152.598 57.6694 152.714 59.177 152.89C59.7272 152.956 60.4248 153.037 61.0139 153.113C61.0139 155.093 61.1591 158.55 63.2558 160.876C65.2174 163.052 69.6439 164.21 72.0863 164.21C72.342 164.21 72.5874 164.198 72.8186 164.175C74.7577 163.985 77.511 162.459 80.3993 160.776C80.7225 160.587 81.0886 160.375 81.3913 160.203C81.6389 160.354 81.9232 160.53 82.1768 160.688C84.6171 162.205 86.9388 163.596 88.5179 163.934C89.2932 164.1 90.0971 164.183 90.9112 164.183C93.3699 164.183 95.7652 163.431 97.6532 162.066C99.7847 160.524 101.114 158.284 101.394 155.756C101.458 155.177 101.399 154.369 101.29 153.223C102.059 153.099 103.017 152.962 103.706 152.861C105.048 152.669 105.891 152.544 106.318 152.446C110.473 151.487 114.907 150.233 119.195 147.578C119.773 147.22 120.449 146.612 121.162 145.97C121.52 145.649 122.048 145.174 122.271 145.015C122.971 144.753 124.636 144.467 125.982 144.235C127.401 143.992 128.741 143.761 129.745 143.475C141.163 140.212 151.428 132.993 158.649 123.144C166.045 113.056 169.588 101.001 168.627 89.2007L168.633 89.2048ZM122.672 95.2289C122.083 97.481 121.283 100.259 120.602 102.456C119.874 101.545 118.97 100.496 117.883 99.2586C117.609 98.9476 117.313 98.6081 117.035 98.2869C117.395 98.1213 117.761 97.9556 118.074 97.8124C119.692 97.078 120.71 96.6076 121.226 96.2987C121.494 96.1371 121.909 95.8221 122.674 95.2268L122.672 95.2289Z" fill="#2F0085"/>
<path d="M71.534 168.256C79.8572 168.009 115.044 167.731 120.686 171.908C124.002 174.362 116.654 175.553 115.106 175.862C97.9969 179.261 66.8948 179.024 49.6388 176.132C48.168 175.886 38.4518 174.397 42.3608 171.781C46.2555 169.175 66.0745 168.418 71.532 168.256H71.534Z" fill="#EBC6FE"/>
<path d="M122.05 43.8799C125.413 49.6647 128.821 62.6496 130.224 69.4244C130.017 69.8253 129.989 70.5085 130.138 71.474C130.373 73.8652 127.334 81.6157 125.143 82.0678C125.002 82.0964 124.854 82.1005 124.707 82.0944L124.159 81.7834C121.858 76.3608 115.044 76.371 110.01 76.4303L104.045 76.639C99.7518 76.9826 96.0638 75.0721 93.3268 71.8238L89.4179 67.4034C81.3156 59.3625 75.2669 64.4743 69.5784 71.8422C65.4505 77.3897 59.6514 77.044 53.3042 76.191C48.0145 75.8719 41.0638 76.8701 38.4026 82.033L37.8605 82.2989C37.7255 82.3705 37.5148 82.4544 37.4494 82.3726C35.9643 80.5316 33.9781 77.5001 33.3358 75.2521C33.121 73.5257 32.7897 71.924 32.3438 70.4451C33.3726 64.0508 36.0727 56.4865 37.8605 50.2149C45.8851 27.033 72.8921 18.1023 95.3499 23.9832C106.312 26.853 116.916 33.4785 122.054 43.8799H122.05Z" fill="#FE80DD"/>
<path d="M106.518 103.348C106.93 103.286 107.015 103.458 106.723 103.757C107.541 104.591 108.055 105.727 108.261 107.156C108.736 108.351 108.836 109.466 108.562 110.501C108.811 112.084 109.014 114.218 108.971 115.813C109.088 116.678 108.848 117.392 108.55 118.225C108.01 119.732 107.085 121.51 106.226 122.87L105.702 123.171C99.758 124.717 94.1655 127.366 88.8083 130.289C87.6853 130.903 81.5569 135.057 81.1089 135.006C80.6896 134.957 75.0583 131.097 73.9599 130.494C68.2038 127.329 62.1122 124.329 55.6361 122.966C55.7015 122.584 56.0227 122.441 56.6016 122.535L54.8465 119.869C54.0078 118.579 53.4576 117.235 53.5926 115.815C53.5312 113.991 53.7194 111.489 54.0017 109.685L53.6908 109.079C54.0447 107.246 54.599 105.455 55.2597 103.71L55.8406 103.35C56.3193 103.329 56.8123 103.323 57.2745 103.466C65.6366 106.066 72.2907 107.619 81.1621 107.58C89.9885 107.541 96.7429 105.911 105.089 103.44C105.551 103.303 106.042 103.319 106.52 103.348H106.518Z" fill="#FE80DD"/>
<path d="M122.05 132.57C122.394 133.971 122.269 134.679 122.05 136.043C119.706 139.987 114.733 141.949 110.534 143.415C104.064 144.923 97.608 146.486 91.1646 148.104C84.9769 150.742 78.8894 153.62 72.9042 156.74C71.7158 157.435 70.5232 157.757 69.3246 157.705C69.6416 156.748 72.6097 152.988 72.3888 152.802C71.2146 151.81 66.964 157.182 67.6882 158.726C62.5948 155.596 66.2031 146.975 69.3205 143.497C72.6138 139.823 76.1873 138.69 80.9738 138.291C81.9761 138.185 82.9498 138.007 83.8969 137.757C89.6652 134.01 95.1738 130.68 101.799 128.393C108.429 126.106 120 122.985 122.048 132.57H122.05Z" fill="#9E23FE"/>
<path d="M75.6617 136.452C70.6972 138.146 67.1319 141.257 64.6261 145.853C64.483 145.939 64.3377 146.017 64.1843 146.07C64.0309 146.123 63.8898 146.17 63.7588 146.15C57.8309 145.291 51.8335 144.098 46.5376 141.163C44.3182 139.934 41.6509 138.324 40.5135 136.043C40.2742 134.525 40.2865 134.085 40.5135 132.57C41.5281 128.859 44.6557 126.691 48.4195 126.137C56.0636 125.009 69.0751 131.318 75.0419 135.519C75.1831 135.618 75.2894 135.771 75.3938 135.928C75.4981 136.086 75.586 136.27 75.6617 136.452Z" fill="#9E23FE"/>
<path d="M55.8387 103.143C56.0146 103.211 56.0146 103.278 55.8387 103.348C55.0778 105.24 54.3107 107.682 53.9998 109.683C52.7806 110.925 51.9154 114.046 51.5472 115.813C48.5035 123.012 40.7162 125.27 33.5139 123.059C27.9623 121.308 22.3924 119.643 16.8081 118.061C16.1842 117.548 14.8935 116.914 15.3783 115.813L15.7772 115.539C17.0229 115.365 18.2523 115.185 19.4653 114.997C20.5862 115.202 30.3556 119.485 24.845 115.236C24.037 114.613 20.171 113.126 20.1321 112.855C20.0278 112.117 21.654 111.125 22.376 111.156C23.0981 111.186 26.4282 113.232 26.2032 113.764C26.1746 113.833 24.9043 114.263 25.79 114.905C27.9685 116.486 31.3395 111.463 28.3653 108.859C27.1421 107.787 26.4793 110.325 24.7775 109.378C23.1145 108.454 25.563 106.543 26.4139 106.007C28.9176 104.9 31.1022 106.152 32.5443 108.255C34.2666 110.027 34.5816 112.461 37.0404 113.16L37.4126 112.835C39.8018 113.324 42.3996 113.827 44.8174 113.355L45.4168 112.956C45.6663 111.704 43.6638 111.366 42.7596 110.912L42.5469 110.515C44.9115 107.363 47.2761 104.209 49.6428 101.055L50.1174 101.104L50.9049 100.985C51.7129 101.206 55.3007 102.411 55.6055 102.773C55.6996 102.886 55.7732 103.015 55.8407 103.147L55.8387 103.143Z" fill="#9E23FE"/>
<path d="M119.393 110.908C118.478 111.413 116.822 111.63 116.94 112.951L117.542 113.369C120.076 113.649 122.619 113.465 125.171 112.816L125.523 113.156C127.706 112.636 127.976 110.965 129.201 109.273C131.167 106.066 135.657 103.485 137.989 107.844C138.666 111.231 134.538 108.439 134.307 108.551C133.883 108.758 132.924 111.086 132.895 111.656C132.732 114.835 136.952 115.823 136.976 114.485C136.988 113.88 136.17 113.816 136.15 113.765C135.976 113.358 139.799 111.125 140.359 111.112C141.026 111.098 142.507 112.301 142.296 113.025C142.204 113.346 137.469 114.788 136.463 116.226C134.708 118.734 140.509 115.723 141.255 115.5C142.532 115.117 148.415 113.788 146.778 116.834C144.935 118.196 143.151 118.896 140.979 119.652C136.242 121.303 130.375 123.185 125.431 123.835C119.702 124.588 113.653 121.334 111.018 116.222C110.515 114.023 109.805 111.779 108.772 109.783L108.568 110.501C108.216 108.277 107.549 105.857 106.729 103.757L106.725 103.221C108.288 102.22 109.963 101.435 111.755 100.864L112.248 101.102L112.671 101.026C114.989 104.162 117.294 107.312 119.585 110.474L119.399 110.912L119.393 110.908Z" fill="#9E23FE"/>
<path d="M59.5186 21.8107C56.8594 23.0073 54.2862 24.4555 51.852 26.0613C49.0353 22.8171 45.6929 18.8794 41.7471 16.9996C39.225 15.7989 35.8356 14.4038 33.9721 17.1101L34.0191 17.7871C29.4617 27.4277 30.9734 40.292 34.9928 49.8057C34.0641 52.6653 34.8353 54.6454 32.6384 50.8305C26.2155 39.6803 26.1746 23.49 30.4968 11.5913C31.2209 8.97503 32.6568 7.78249 35.3405 7.59226C42.9785 7.0502 54.1921 15.8582 59.0584 20.8329C59.175 20.9536 59.2568 21.1091 59.3345 21.2727C59.4122 21.4363 59.4695 21.6245 59.5166 21.8107H59.5186Z" fill="#9E23FE"/>
<path d="M132.267 11.5926C136.542 23.4975 136.383 38.0432 130.807 49.4715C130.565 49.9666 128.958 53.1453 128.79 53.2803C128.403 53.5892 128.456 53.178 128.377 52.9837C128.064 52.2084 127.835 50.7316 127.567 49.807C127.988 49.4818 128.344 49.0993 128.638 48.6574C131.967 39.0353 133.108 27.5927 129.334 17.9071L129.588 17.4857C129.363 17.0419 129.318 16.4568 128.782 15.9946C125.398 13.0838 117.55 19.1099 115.097 21.5031C114.346 22.2375 111.395 26.214 111.092 26.2856C110.662 26.3878 104.248 22.7243 103.245 22.2191C103.362 21.8407 103.503 21.4541 103.771 21.1554C107.572 16.9089 113.87 12.0917 119.139 9.69436C123.388 7.76134 130.629 5.25558 132.263 11.5926H132.267Z" fill="#9E23FE"/>
<path d="M157.198 104.982C157.376 105.05 157.376 105.119 157.198 105.187C157.229 105.373 157.253 105.559 157.249 105.745C157.245 105.931 157.237 106.101 157.173 106.248C156.271 108.351 152.81 115.486 151.182 116.41C151.018 116.503 150.843 116.57 150.66 116.629C150.131 116.777 149.791 116.435 149.638 115.607C149.554 114.195 148.253 113.123 146.981 112.745L145.365 112.209L145.346 111.722C146.913 109.419 149.139 104.825 145.489 103.098C141.987 101.443 139.678 104.393 138.737 104.321C138.418 104.297 137.097 103.162 136.242 102.947C133.887 102.354 131.66 102.773 129.817 104.366C129.23 104.88 128.1 104.524 127.978 103.753C127.824 103.7 127.601 103.591 127.62 103.479C128.076 100.901 128.786 97.3299 129.551 94.8732C129.628 94.3557 129.716 93.9875 130.224 93.738C129.939 93.4639 130.062 93.3452 130.428 93.5334C130.571 93.3125 130.749 93.11 130.995 93.0016C132.024 92.5536 135.202 92.6947 136.446 92.8113C142.215 93.3575 148.044 96.0371 152.557 99.625C153.768 100.588 156.498 102.939 157.141 104.215C157.259 104.45 157.241 104.722 157.2 104.974L157.198 104.982Z" fill="#FE80DD"/>
<path d="M105.089 100.896C106.042 100.675 107.069 102.733 106.519 103.349C90.6433 109.377 71.6711 109.692 55.8387 103.349C55.8633 103.289 55.8142 103.201 55.8387 103.144C55.403 102.397 56.391 100.642 57.2686 100.691C73.8802 104.838 88.4423 105.012 105.087 100.896H105.089Z" fill="#EC45CE"/>
<path d="M161.694 81.8902C162.332 82.9519 162.502 83.4039 162.919 84.5474C162.359 85.1038 162.559 84.3735 162.719 84.6169C162.948 84.9688 161.919 91.9337 161.725 92.9463L161.287 93.1304L160.496 92.8072C154.942 86.3945 146.4 82.8966 137.954 83.2669L137.175 82.913C137.633 81.0618 140.126 79.4806 141.834 78.5683C148.104 75.2259 157.243 75.9521 161.696 81.8902H161.694Z" fill="#FE80DD"/>
<path d="M122.05 136.043C120.035 148.596 99.175 148.273 89.6041 151.517C85.513 152.904 73.9313 160.08 71.2967 159.935C69.378 159.828 68.75 159.448 69.3268 157.705C77.0343 155.054 84.2714 149.803 92.0198 147.394C102.129 144.25 114.163 144.62 122.05 136.043Z" fill="#8500F6"/>
<path d="M122.05 43.8814C104.285 13.3315 50.1952 15.9416 38.0591 50.4209L37.8586 50.2163C42.8988 35.1531 53.6194 24.7005 69.4926 21.8736C89.8455 18.249 113.017 23.5428 122.052 43.8814H122.05Z" fill="#E8BAFE"/>
<path d="M127.362 21.6052C129.729 29.145 128.628 37.1532 125.519 44.286C123.198 39.5179 120.336 35.1118 116.736 31.209L116.683 30.5094C118.624 27.2161 120.706 24.4322 124.106 22.5666C124.904 22.1289 126.56 21.458 127.362 21.6032V21.6052Z" fill="#FE80DD"/>
<path d="M35.6086 21.4031C35.942 21.3581 36.3061 21.5135 36.6968 21.8695C39.4644 22.7511 41.6347 24.543 43.6066 26.7317C44.3 27.5008 45.8014 29.1904 46.1819 30.029C46.2923 30.2725 46.278 30.5445 46.2351 30.8022C44.6805 32.4305 43.2322 34.1508 41.8986 35.9692L37.0425 44.2904C34.0785 37.0984 33.0578 28.9061 35.6086 21.4031Z" fill="#FE80DD"/>
<path d="M150.659 116.631L151.348 116.891C152.356 118.374 153.128 120 153.854 121.635L153.725 122.352C150.769 126.153 147.435 129.195 143.508 131.956L143.023 131.367C142.769 129.487 142.18 127.677 141.37 125.965L141.462 125.212C140.795 125.228 140.415 124.263 140.848 123.782C143.829 122.449 149.871 119.577 149.636 115.608C150.061 115.85 150.372 116.251 150.659 116.631Z" fill="#8500F6"/>
<path d="M161.694 81.8899C154.971 74.9474 143.213 75.4669 137.173 82.9126C137.287 83.4485 137.148 83.5119 136.763 83.1172C135.274 83.7513 133.039 84.5142 131.429 84.7433C131.151 84.7822 130.879 84.6615 130.633 84.547C137.056 72.6748 154.234 69.5001 161.694 81.8899Z" fill="#FEADF7"/>
<path d="M143.506 131.956C139.828 134.542 136.123 136.581 131.858 138.087L131.464 137.434C131.503 135.432 131.453 133.413 131.008 131.449L131.247 130.729L131.218 130.281C134.497 128.512 137.776 126.74 141.057 124.969L141.464 125.212C142.567 127.458 143.236 129.434 143.508 131.956H143.506Z" fill="#EC45CE"/>
<path d="M64.626 145.853C64.3253 146.403 63.5542 149.05 63.096 149.142C62.2103 149.322 56.8694 148.103 55.6339 147.796C49.3255 146.223 41.6671 143.333 40.5134 136.045C46.6766 142.607 55.9898 144.738 64.626 145.853Z" fill="#8500F6"/>
<path d="M111.014 116.222C112.189 117.281 112.978 118.623 114.177 119.701C116.57 121.853 119.931 123.379 123.167 123.586C126.912 123.827 140.376 119.668 144.172 118.012C145.207 117.559 145.874 116.408 146.776 116.835C144.978 120.182 131.744 124.463 127.859 125.404C126.83 125.654 123.138 126.592 122.359 126.464C122.201 126.437 120.563 124.688 119.988 124.314C118.644 123.436 117.12 122.927 115.551 122.62C114.778 122.469 111.964 122.487 111.833 122.354C111.616 122.133 111.268 117.322 111.016 116.222H111.014Z" fill="#8500F6"/>
<path d="M132.267 11.5944C129.471 3.80919 117.701 10.5165 113.403 13.4722C109.719 16.0046 106.477 19.1567 103.249 22.2209C102.951 22.0696 100.787 21.2391 100.799 21.0979C100.875 20.1304 112.143 11.5576 113.77 10.5676C119.155 7.29067 130.322 1.93549 132.267 11.5924V11.5944Z" fill="#D098FE"/>
<path d="M159.855 112.135C159.626 114.021 155.087 120.602 153.725 122.353C152.88 120.436 151.923 118.307 150.659 116.631C153.441 113.183 155.423 109.22 157.198 105.187C157.3 105.166 157.405 105.152 157.507 105.156C158.151 105.181 161.05 110.955 159.855 112.135Z" fill="#EC45CE"/>
<path d="M30.4986 11.5936C32.6403 1.8283 44.0093 7.44529 49.4054 10.7713C50.9313 11.7122 62.1919 20.0764 62.1715 20.8925C62.1674 21.0337 59.8662 21.6535 59.5164 21.811C55.364 17.9859 51.0459 13.9685 46.0323 11.2827C41.8574 9.04694 32.898 4.98453 30.4966 11.5936H30.4986Z" fill="#D098FE"/>
<path d="M51.5472 115.812C51.2935 117.034 51.089 118.357 50.9397 119.599C50.8803 120.086 51.0337 122.256 50.9356 122.354C50.8456 122.444 48.8962 122.315 48.4093 122.383C45.5436 122.78 44.2692 123.309 41.876 124.841C41.3912 125.15 40.5095 126.318 40.1843 126.388C37.834 126.879 19.1134 119.965 16.8081 118.063C27.6821 118.965 40.2416 129.315 49.4035 118.678C50.1685 117.791 50.5756 116.436 51.5472 115.815V115.812Z" fill="#8500F6"/>
<path d="M116.736 31.2126C116.223 30.6562 113.257 28.2568 113.257 27.8416C113.259 26.3627 120.042 20.4961 121.578 19.6063C125.56 17.301 125.974 17.1865 127.36 21.6089C126.248 22.335 124.971 22.5212 123.75 23.2105C120.627 24.9758 118.542 28.2241 116.734 31.2146L116.736 31.2126Z" fill="#EC45CE"/>
<path d="M46.2346 30.8027C44.048 27.7548 41.9984 25.0322 38.6764 23.136C37.6107 22.5265 36.0929 22.4099 35.6082 21.4035C37.0359 17.2102 37.4389 17.5293 41.1883 19.6055C42.6427 20.4114 49.7243 26.3598 49.667 27.6403C49.6568 27.8735 46.6928 30.326 46.2346 30.8047V30.8027Z" fill="#EC45CE"/>
<path d="M122.05 132.57C119.051 120.357 98.6635 129.625 92.0789 133.149C90.1786 134.166 84.9585 137.911 83.5757 138.337C82.3688 138.709 81.6652 138.234 80.9758 138.292C86.3596 134.931 91.7578 131.415 97.5957 128.856C105.24 125.507 119.618 120.496 122.05 132.568V132.57Z" fill="#D098FE"/>
<path d="M129.406 17.1101C133.394 24.9853 132.423 39.1915 129.506 47.3531C129.158 48.3247 128.638 48.9711 127.567 49.8077C127.329 48.9895 126.501 47.7602 126.585 46.8908C126.675 45.9478 128.898 41.3147 129.348 39.6333C131.326 32.2428 131.206 23.7539 127.364 17.0078L129.406 17.1121V17.1101Z" fill="#8500F6"/>
<path d="M163.942 97.4215C163.39 102.404 162.007 107.612 159.855 112.135C160.109 110.051 158.364 106.878 157.198 105.186C157.223 105.129 157.174 105.039 157.198 104.982C157.571 103.014 158.213 101.081 159.125 99.1806C159.702 97.1576 160.489 95.2778 161.49 93.5391C162.864 94.1445 163.766 95.9364 163.942 97.4215Z" fill="#8500F6"/>
<path d="M125.652 85.4945L125.175 82.6982L124.707 82.5039L123.774 82.8987C120.42 86.3638 116.222 88.8634 111.738 90.5817L111.305 91.0071C111.389 90.8251 111.209 90.7003 110.81 90.6778C110.503 90.6778 110.221 90.8803 109.963 91.2833C107.134 92.4247 104.117 93.4659 101.02 93.7297L100.592 94.1511C99.989 94.2227 99.8806 94.4436 100.183 94.9693C99.8704 94.7811 99.5349 94.6727 99.1728 94.6502C87.1902 97.0864 75.1032 96.8103 62.9876 94.6441L62.1755 94.7648C62.5335 94.2616 62.3801 93.965 61.7664 93.9465C58.6224 93.474 54.963 92.5167 52.1893 90.9683L51.7536 91.0869C51.6861 91.1176 51.6452 91.1483 51.6309 91.1749L51.0683 90.6471C46.3923 89.1109 42.0292 86.5581 38.7216 82.8803L37.8584 82.5039L37.4329 82.6798C37.2365 83.7374 37.0136 84.801 36.5022 85.7563L36.6331 86.1817C40.4071 90.7289 45.5045 93.6213 50.9374 95.7855C55.7546 97.7042 60.8868 99.0849 66.06 99.6679C66.8884 100.138 70.1674 100.511 71.3006 100.66C79.9797 101.799 87.9327 101.312 96.5075 99.8724C101.945 98.9581 106.706 97.8474 111.835 95.7855C117.521 93.4986 122.51 90.6369 126.343 85.7726C126.213 85.3758 125.998 85.3431 125.654 85.4924L125.652 85.4945Z" fill="#E8BAFE"/>
<path d="M131.245 130.731C131.909 133.128 131.916 135.611 131.858 138.086C130.887 138.43 123.799 140.629 123.482 140.332C123.277 140.14 124.809 136.143 124.881 134.889C124.934 133.952 124.871 132.455 124.707 131.545L125.067 131.222C126.906 131.569 129.056 131.363 130.578 130.205L131.042 130.318C131.574 130.217 131.631 130.33 131.247 130.727L131.245 130.731Z" fill="#8500F6"/>
<path d="M40.5134 132.57C42.3851 120.094 58.6981 126.049 65.927 129.33C66.6634 129.665 78.2103 135.585 77.7071 136.041C77.6294 136.111 76.0932 136.305 75.6636 136.453C71.7403 133.644 67.0786 131.169 62.5805 129.406C56.2517 126.927 47.1593 123.809 42.0455 130.115L40.5155 132.57H40.5134Z" fill="#D098FE"/>
<path d="M97.1193 155.559C97.0293 156.146 96.5138 157.349 96.0945 157.805C94.4928 159.542 94.8569 158.098 94.5072 157.353C94.1349 156.557 91.895 153.066 90.7843 154.029C89.96 154.745 96.79 159.728 90.8559 159.941C89.6859 159.982 83.9748 157.459 84.0361 156.586C84.0607 156.228 89.9088 154 90.6227 153.767C91.0932 153.614 97.1172 151.849 97.1172 152.497C97.1172 153.401 97.2441 154.737 97.1172 155.563L97.1193 155.559Z" fill="#8500F6"/>
<path d="M33.9739 17.1102L35.6082 17.0059C31.5213 23.9361 31.3802 33.188 33.6691 40.8116C34.0352 42.0267 36.1196 46.2548 36.1667 46.672C36.2321 47.2489 35.2155 49.1267 34.9966 49.8058C34.4055 49.6667 34.3728 49.4212 34.1416 48.9221C30.6601 41.3844 29.1239 24.1631 33.9739 17.1102Z" fill="#8500F6"/>
<path d="M136.763 83.1172L136.479 84.0684C134.254 86.6928 132.386 89.6219 131.126 92.8334L130.428 93.5391C130.367 93.5534 130.287 93.7273 130.224 93.7437C129.719 94.5107 127.974 95.2533 127.158 94.7664C128.219 90.794 128.612 88.2821 130.631 84.5491C132.693 83.9579 134.595 83.3729 136.761 83.1192L136.763 83.1172Z" fill="#D098FE"/>
<path d="M130.224 69.4232C133.159 79.6815 125.421 87.0147 125.362 86.9431C125.249 86.806 124.951 83.3471 124.705 82.5023C124.155 82.4573 124.179 82.2527 124.705 82.0932C128.24 78.9717 129.643 74.7497 129.813 70.1269C129.827 69.7362 129.606 69.3087 130.222 69.4232H130.224Z" fill="#EC45CE"/>
<path d="M37.8564 82.2987C38.0405 82.3478 38.0364 82.4174 37.8564 82.5033C37.8626 82.9512 37.1998 85.9152 36.6312 86.1811C32.6669 81.4048 31.4355 76.0946 32.4297 69.9131C32.6935 71.1363 33.1599 74.3171 34.4138 77.0581C34.9027 78.1259 37.8114 81.9878 37.8585 82.2987H37.8564Z" fill="#DD5EE0"/>
<path d="M140.85 123.782C141.065 124.232 141.247 124.774 141.464 125.212L131.247 130.729C131.22 130.635 131.095 130.481 131.042 130.32C130.291 129.986 129.488 128.44 129.817 127.663C133.264 126.689 137.592 125.237 140.852 123.78L140.85 123.782Z" fill="#FE80DD"/>
<path d="M130.224 93.7433L127.976 103.756C127.223 104.173 125.72 103.961 125.114 103.347C125.904 100.526 126.399 97.6011 127.158 94.764C128.223 94.5083 129.156 94.0255 130.224 93.7412V93.7433Z" fill="#FDADF7"/>
<path d="M127.976 103.757C128.483 103.894 129.17 104.368 129.815 104.37C128.817 105.231 126.421 109.435 126.137 109.582C125.992 109.658 122.987 109.998 122.868 109.887C122.615 109.652 124.871 104.225 125.114 103.35C126.057 103.374 127.07 103.513 127.976 103.759V103.757Z" fill="#D098FE"/>
<path d="M161.285 93.1302L162.515 84.3447L162.922 84.5472C164.572 89.0494 164.466 92.7109 163.944 97.4217C163.22 96.0471 162.427 94.781 161.492 93.5393C160.935 93.6314 160.931 93.5557 161.287 93.1302H161.285Z" fill="#EC45CE"/>
<path d="M129.815 127.665C130.214 128.534 130.739 129.414 131.04 130.322C129.8 131.701 126.464 132.108 124.705 131.547C124.629 131.134 123.572 128.98 123.684 128.892C123.93 128.7 128.843 127.939 129.815 127.665Z" fill="#9E23FE"/>
<path d="M57.2703 100.69C56.6526 101.392 56.2025 102.496 55.8405 103.347C54.0138 102.676 51.8865 101.856 50.1192 101.099C49.7019 101.558 49.0575 101.024 49.0964 100.486C49.4912 100.081 50.3585 98.704 50.8228 98.659C51.2872 98.614 56.2312 100.432 57.2703 100.69Z" fill="#8500F6"/>
<path d="M113.263 100.691C113.136 101.323 112.768 101.472 112.24 101.1C110.477 101.859 107.989 102.56 106.723 103.757C106.666 103.608 106.578 103.485 106.518 103.348C106.14 102.468 105.905 101.515 105.089 100.895C106.122 100.64 111.1 98.8211 111.536 98.864C111.972 98.907 112.876 100.286 113.263 100.691Z" fill="#8500F6"/>
<path d="M50.1173 101.1L42.7616 110.908C42.5693 110.812 41.9884 110.816 41.9393 110.585C41.6489 109.208 47.8468 101.769 49.0966 100.486C49.4955 100.672 49.8105 100.934 50.1194 101.1H50.1173Z" fill="#8500F6"/>
<path d="M113.263 100.69C114.482 101.971 120.262 109.11 120.18 110.437C120.142 111.065 119.591 110.797 119.393 110.908L112.24 101.1C112.575 100.956 112.917 100.809 113.263 100.69Z" fill="#D098FE"/>
<path d="M21.9178 107.23C21.8339 109.351 21.7071 108.58 20.0114 109.512C19.7086 109.678 19.0275 110.494 18.9538 110.494C18.5386 110.494 17.5997 108.181 17.6263 107.637C17.3133 104.908 21.3757 105.464 21.9178 107.227V107.23Z" fill="#9E23FE"/>
<path d="M53.5906 115.813C53.605 116.22 53.5641 114.628 53.5784 115.033L53.7481 116.101C54.5275 118.57 57.2112 123.048 57.3892 123.375C57.3892 123.375 55.7139 122.968 55.6321 122.964C55.3457 122.95 53.2695 122.641 53.1918 122.545C52.979 122.283 53.5804 116.627 53.5886 115.811L53.5906 115.813Z" fill="#DD5EE0"/>
<path d="M105.702 123.17C106.312 121.495 107.431 120.184 108.042 118.459C108.329 117.649 108.961 116.22 108.971 115.812C109.067 116.631 109.576 122.28 109.366 122.544C109.249 122.69 106.3 123.013 105.7 123.17H105.702Z" fill="#DE5FE0"/>
<path d="M144.528 108.864C143.506 110.842 143.303 109.809 141.81 109.028C140.74 108.467 140.257 109.259 140.237 107.841C141.515 105.157 146.465 104.546 144.528 108.864Z" fill="#9E23FE"/>
<path d="M137.989 107.844C135.035 104.094 131.684 106.612 129.201 109.273C130.332 107.713 131.267 105.332 133.609 104.996C135.481 104.728 137.604 105.927 137.989 107.844Z" fill="#D098FE"/>
<path d="M116.94 112.953C118.882 113.861 124.139 111.818 125.626 112.34C125.888 112.432 125.532 112.976 125.523 113.158C124.161 113.483 117.11 114.851 116.94 112.953Z" fill="#D098FE"/>
<path d="M45.4169 112.953C45.0507 114.794 38.4048 113.547 37.0384 113.158C37.1448 112.921 36.7234 112.403 36.9361 112.34C38.6789 111.82 43.2916 113.892 45.4169 112.953Z" fill="#D098FE"/>
<path d="M144.528 108.865C145.872 104.727 142.166 106.036 140.237 107.842C140.185 104.27 147.208 103.679 144.528 108.865Z" fill="#D098FE"/>
<path d="M32.5423 108.253C30.7463 106.404 29.0301 105.698 26.4119 106.005C29.5292 104.037 30.7852 105.471 32.5423 108.253Z" fill="#D098FE"/>
<path d="M21.918 107.231C20.7766 106.19 17.7369 105.314 17.6265 107.64C17.0251 104.832 20.482 104.281 21.83 106.192C22.3843 106.977 21.9302 106.924 21.918 107.231Z" fill="#D098FE"/>
<path d="M19.4649 114.997L18.9658 115.61L15.3779 115.813C16.0141 114.371 18.2785 114.78 19.4649 114.995V114.997Z" fill="#D098FE"/>
<path d="M146.981 112.75C146.367 112.568 145.389 112.564 144.733 112.544C144.894 112.243 145.15 112.016 145.346 111.729L146.981 112.752V112.75Z" fill="#6E1CF4"/>
<path d="M65.6387 70.6461C64.8982 71.1186 63.1063 68.3449 62.4845 67.7865C58.5612 64.262 53.118 63.7384 49.295 67.6842C48.6261 68.3756 46.5703 72.3664 46.6603 68.3367C46.8526 59.7374 62.8895 58.463 65.4996 67.6331C65.6632 68.2058 66.1541 70.3188 65.6387 70.6461Z" fill="#2F0085"/>
<path d="M115.682 69.8009C114.68 70.4984 113.981 68.2565 113.459 67.694C109.906 63.8464 104.418 64.2351 100.589 67.4813C99.8072 68.144 97.0949 72.4765 96.9108 69.535C96.4362 61.9502 109.276 58.4196 114.285 64.2105C115.073 65.1208 116.818 69.0093 115.68 69.8009H115.682Z" fill="#2F0085"/>
<path d="M161.285 93.1297C161.371 93.2402 161.404 93.4243 161.49 93.5388C160.289 97.4723 158.837 101.222 157.198 104.983C151.741 97.4744 139.758 91.4687 130.428 93.5388C131.793 89.6605 134.047 86.1749 136.763 83.1169C136.88 83.1026 137.06 82.9226 137.173 82.9123C145.976 82.1432 155.826 86.1974 161.285 93.1297Z" fill="#9E23FE"/>
<path d="M124.705 82.0945C121.829 73.4849 107.999 76.6943 101.709 76.1748C93.5356 75.4997 91.4983 65.7978 84.3533 63.4905C73.2604 59.9108 70.6012 75.2563 62.0653 76.1625C58.1829 76.5736 53.8546 75.4752 49.8024 75.7513C45.4556 76.0479 39.448 77.7969 37.8545 82.2991C37.8647 82.3645 37.8545 82.4361 37.8545 82.5036C41.6714 87.0999 47.0409 89.7448 52.5147 91.8537C68.0382 97.8327 85.7872 98.2991 101.842 94.2551C106.598 93.0564 111.287 91.4609 115.662 89.2293C117.718 88.182 119.622 86.9751 121.469 85.6005C122.028 85.1853 124.961 83.3975 124.703 82.5016C124.67 82.387 124.74 82.2009 124.703 82.0925L124.705 82.0945Z" fill="#FFFEFF"/>
<path d="M82.414 78.6297C82.1542 78.9713 82.7883 80.0186 83.0194 80.3561C84.8133 82.9682 88.6119 82.5182 90.8804 80.8634C91.3713 80.5054 93.3882 77.5374 93.1979 80.3009C92.9709 83.5921 89.6653 83.498 88.7244 84.6333C88.393 85.0342 88.0453 87.1145 87.6873 87.8877C85.1263 93.4515 77.1467 93.2347 74.7453 87.6054C74.461 86.9386 74.0805 84.7376 73.9823 84.5883C73.5773 83.9685 70.2492 83.6842 69.6274 81.0761C68.666 77.0424 71.6402 80.9923 72.6609 81.5159C74.7453 82.5857 77.8524 82.5264 79.5502 80.7714C81.7492 78.4988 80.1046 78.8097 78.8547 78.1817C76.799 77.1508 74.866 75.8396 75.2485 73.1968C75.8744 68.8705 91.5227 69.4167 86.4968 76.2733C85.2797 77.9322 82.5592 78.4354 82.4119 78.6277L82.414 78.6297Z" fill="#2F0085"/>
<path d="M81.5876 86.1865C81.6633 86.344 81.1826 86.6079 81.1805 86.6958C81.1744 87.0374 82.7085 85.9451 83.0133 85.8735C89.5344 84.3619 83.8888 92.2392 78.4518 89.2179C78.014 88.9745 76.0565 86.8492 76.0729 86.4872C76.0872 86.2049 81.1785 85.3253 81.5876 86.1865Z" fill="#EC45CE"/>
<path d="M79.5049 72.7573C80.3334 72.6448 84.6003 72.3993 84.4592 73.6102C84.3487 74.5696 81.5914 74.7557 80.9 74.7107C79.284 74.6064 76.0664 73.2257 79.5049 72.7573Z" fill="#9E23FE"/>
<path d="M103.487 44.6493C106.66 44.4754 111.311 46.9464 112.113 50.2008C113.279 54.926 109.03 50.4422 107.799 49.8163C103.663 47.7114 102.794 49.5053 99.5514 49.2721C95.8531 49.0062 100.024 44.8354 103.485 44.6472L103.487 44.6493Z" fill="#2F0085"/>
<path d="M62.405 44.2414C64.293 44.0144 67.5393 44.7794 67.9341 46.9968C68.4475 49.8809 64.2419 47.9213 62.4418 48.1627C60.4945 48.4245 55.2948 53.1333 55.7919 49.6989C56.1355 47.3199 60.1284 44.5155 62.405 44.2414Z" fill="#2F0085"/>
</g>
<defs>
<clipPath id="clip0_39411_55372">
<rect width="157.789" height="176.62" fill="white" transform="translate(10.9966 1.73633)"/>
</clipPath>
</defs>
</svg>
