<svg width="21" height="22" viewBox="0 0 21 22" fill="none" xmlns="http://www.w3.org/2000/svg">
<path d="M16.3629 0.0196122C16.8657 0.120188 17.2045 0.581624 17.1636 1.08063L17.1473 1.19631L16.1857 6L19.1667 6.00019C19.719 6.00019 20.1667 6.44791 20.1667 7.00019C20.1667 7.51303 19.7807 7.9357 19.2834 7.99346L19.1667 8.00019L15.7857 8L14.5857 14L17.1667 14.0002C17.719 14.0002 18.1667 14.4479 18.1667 15.0002C18.1667 15.513 17.7807 15.9357 17.2834 15.9935L17.1667 16.0002L14.1857 16L13.1473 21.1963C13.039 21.7379 12.5122 22.0891 11.9706 21.9808C11.4678 21.8802 11.129 21.4188 11.1699 20.9198L11.1862 20.8041L12.1467 16H6.18575L5.14733 21.1963C5.03902 21.7379 4.51219 22.0891 3.97063 21.9808C3.46776 21.8802 3.129 21.4188 3.16989 20.9198L3.18617 20.8041L4.14675 16L1.16675 16.0002C0.614463 16.0002 0.166748 15.5525 0.166748 15.0002C0.166748 14.4874 0.552788 14.0647 1.05013 14.0069L1.16675 14.0002L4.54675 14L5.74675 8L3.16675 8.00019C2.61446 8.00019 2.16675 7.55248 2.16675 7.00019C2.16675 6.48736 2.55279 6.06469 3.05013 6.00692L3.16675 6.00019L6.14675 6L7.18617 0.804077C7.29448 0.262517 7.8213 -0.0886998 8.36286 0.0196122C8.86574 0.120188 9.2045 0.581624 9.1636 1.08063L9.14733 1.19631L8.18575 6H14.1467L15.1862 0.804077C15.2945 0.262517 15.8213 -0.0886998 16.3629 0.0196122ZM13.7467 8H7.78575L6.58575 14H12.5467L13.7467 8Z" fill="#99A2AD"/>
</svg>
