<svg width="29" height="28" viewBox="0 0 29 28" fill="none" xmlns="http://www.w3.org/2000/svg">
<mask id="mask0_5134_202436" style="mask-type:alpha" maskUnits="userSpaceOnUse" x="1" y="5" width="26" height="17">
<path d="M14.1665 14.5C18.0285 14.5 20.6665 16.2586 20.6665 19C20.6665 20.9301 19.3826 22 17.6665 22H10.6665C8.95044 22 7.6665 20.9301 7.6665 19C7.6665 16.2586 10.3045 14.5 14.1665 14.5ZM22.1665 14.5C24.9123 14.5 26.6665 16.1568 26.6665 18.25C26.6665 19.9424 25.3739 21 23.9165 21H23.1665C22.6142 21 22.1665 20.5523 22.1665 20C22.1665 19.4477 22.6142 19 23.1665 19H23.9165C24.348 19 24.6665 18.7394 24.6665 18.25C24.6665 17.2877 23.8325 16.5 22.1665 16.5C21.6142 16.5 21.1665 16.0523 21.1665 15.5C21.1665 14.9477 21.6142 14.5 22.1665 14.5ZM6.1665 14.5C6.71879 14.5 7.1665 14.9477 7.1665 15.5C7.1665 16.0523 6.71879 16.5 6.1665 16.5C4.50053 16.5 3.6665 17.2877 3.6665 18.25C3.6665 18.7394 3.98505 19 4.4165 19H5.1665C5.71879 19 6.1665 19.4477 6.1665 20C6.1665 20.5523 5.71879 21 5.1665 21H4.4165C2.95907 21 1.6665 19.9424 1.6665 18.25C1.6665 16.1568 3.42071 14.5 6.1665 14.5ZM14.1665 16.5C11.2785 16.5 9.6665 17.5747 9.6665 19C9.6665 19.7366 9.98257 20 10.6665 20H17.6665C18.3504 20 18.6665 19.7366 18.6665 19C18.6665 17.5747 17.0545 16.5 14.1665 16.5ZM20.1665 6C22.0995 6 23.6665 7.567 23.6665 9.5C23.6665 11.433 22.0995 13 20.1665 13C19.6142 13 19.1665 12.5523 19.1665 12C19.1665 11.4477 19.6142 11 20.1665 11L20.311 10.9931C21.0716 10.9204 21.6665 10.2797 21.6665 9.5C21.6665 8.67157 20.9949 8 20.1665 8L20.0499 7.99327C19.5525 7.93551 19.1665 7.51284 19.1665 7C19.1665 6.44772 19.6142 6 20.1665 6ZM8.1665 6C8.71879 6 9.1665 6.44772 9.1665 7C9.1665 7.51284 8.78046 7.93551 8.28312 7.99327L8.1665 8C7.33808 8 6.6665 8.67157 6.6665 9.5C6.6665 10.2797 7.26139 10.9204 8.02204 10.9931L8.1665 11C8.71879 11 9.1665 11.4477 9.1665 12C9.1665 12.5523 8.71879 13 8.1665 13C6.23351 13 4.6665 11.433 4.6665 9.5C4.6665 7.567 6.23351 6 8.1665 6ZM14.1665 5C16.3756 5 18.1665 6.79086 18.1665 9C18.1665 11.2091 16.3756 13 14.1665 13C11.9574 13 10.1665 11.2091 10.1665 9C10.1665 6.79086 11.9574 5 14.1665 5ZM14.1665 7C13.0619 7 12.1665 7.89543 12.1665 9C12.1665 10.1046 13.0619 11 14.1665 11C15.2711 11 16.1665 10.1046 16.1665 9C16.1665 7.89543 15.2711 7 14.1665 7Z" fill="#ffffff"/>
</mask>
<g mask="url(#mask0_5134_202436)">
<rect x="0.166504" width="28" height="28" fill="#ffffff"/>
</g>
</svg>
