<svg width="124" height="32" viewBox="0 0 124 32" fill="none" xmlns="http://www.w3.org/2000/svg">
<path d="M44.9807 27.6511C43.4105 27.6511 42.2278 27.2635 41.4327 26.4883C40.6377 25.7131 40.2401 24.5007 40.2401 22.8509V15.576H38.0636V12.1472H40.2401V9.01659L44.2652 8.59918V12.1472H47.5449V15.576H44.2652V22.6422C44.2652 23.5963 44.6826 24.0733 45.5174 24.0733H47.1871V27.6511H44.9807Z" fill="black"/>
<path d="M47.6886 12.1472H52.3994L54.397 20.9427C54.6157 21.8372 54.7747 22.6223 54.8741 23.2981C55.0132 22.4434 55.1822 21.6483 55.3809 20.9129L57.6469 12.1472H62.2683L64.6833 20.9129C64.8821 21.6483 65.051 22.4434 65.1902 23.2981C65.2895 22.6223 65.4485 21.8372 65.6672 20.9427L67.8139 12.1472H72.1967L67.3667 27.6511H63.0136L60.4793 18.8258C60.2408 18.1103 60.0619 17.3351 59.9427 16.5002C59.8035 17.4146 59.6445 18.1898 59.4656 18.8258L57.14 27.6511H52.5187L47.6886 12.1472Z" fill="black"/>
<path d="M79.3953 28.0387C78.0039 28.0387 76.7218 27.681 75.5491 26.9654C74.3764 26.2299 73.4422 25.246 72.7465 24.0137C72.0706 22.7813 71.7327 21.4297 71.7327 19.9588C71.7327 18.4879 72.0706 17.1363 72.7465 15.9039C73.4422 14.6517 74.3764 13.6578 75.5491 12.9224C76.7218 12.1869 78.0039 11.8192 79.3953 11.8192C80.6674 11.8192 81.691 12.0577 82.4662 12.5348C83.2613 13.0118 83.8775 13.6976 84.3148 14.592V12.1472H88.31V27.6511H84.4042V25.1168C83.9471 26.0511 83.3209 26.7766 82.5259 27.2934C81.7507 27.7903 80.7071 28.0387 79.3953 28.0387ZM75.7578 19.929C75.7578 20.7241 75.9367 21.4694 76.2945 22.1651C76.6721 22.8409 77.179 23.3876 77.8151 23.805C78.471 24.2025 79.2164 24.4013 80.0512 24.4013C80.9059 24.4013 81.6612 24.2025 82.3172 23.805C82.993 23.4074 83.5098 22.8708 83.8676 22.1949C84.2253 21.5191 84.4042 20.7737 84.4042 19.9588C84.4042 19.1438 84.2253 18.3985 83.8676 17.7227C83.5098 17.027 82.993 16.4803 82.3172 16.0828C81.6612 15.6654 80.9059 15.4567 80.0512 15.4567C79.2164 15.4567 78.471 15.6654 77.8151 16.0828C77.1591 16.4803 76.6523 17.017 76.2945 17.6928C75.9367 18.3686 75.7578 19.114 75.7578 19.929Z" fill="black"/>
<path d="M94.7266 20.2868V27.6511H90.7016V5.88599H94.7266V18.4084L100.541 12.1472H106.265L98.9604 19.3625L106.295 27.6511H100.958L94.7266 20.2868Z" fill="black"/>
<path d="M112.8 28.0387C111.23 28.0387 109.839 27.681 108.626 26.9654C107.414 26.2299 106.469 25.246 105.794 24.0137C105.118 22.7813 104.78 21.4197 104.78 19.929C104.78 18.4581 105.128 17.0965 105.823 15.8443C106.519 14.592 107.473 13.5982 108.686 12.8628C109.918 12.1273 111.29 11.7596 112.8 11.7596C114.311 11.7596 115.663 12.1273 116.855 12.8628C118.068 13.5982 119.002 14.592 119.658 15.8443C120.334 17.0767 120.672 18.4382 120.672 19.929C120.672 20.4259 120.632 20.9029 120.552 21.3601H108.954C109.193 22.2943 109.64 23.0496 110.296 23.6261C110.972 24.1826 111.806 24.4609 112.8 24.4609C113.635 24.4609 114.38 24.2721 115.036 23.8944C115.692 23.4969 116.209 22.99 116.587 22.3738L119.717 24.7292C119.081 25.7231 118.147 26.5281 116.915 27.1443C115.682 27.7406 114.311 28.0387 112.8 28.0387ZM116.617 18.3488C116.378 17.4543 115.911 16.7089 115.215 16.1126C114.52 15.5163 113.695 15.2182 112.741 15.2182C111.806 15.2182 110.991 15.5064 110.296 16.0828C109.62 16.6592 109.173 17.4146 108.954 18.3488H116.617Z" fill="black"/>
<mask id="mask0_6900_138770" style="mask-type:alpha" maskUnits="userSpaceOnUse" x="0" y="-1" width="33" height="34">
<rect x="0.335449" y="-0.000976562" width="32.1669" height="32.0017" rx="8.93526" fill="white"/>
</mask>
<g mask="url(#mask0_6900_138770)">
<g filter="url(#filter0_f_6900_138770)">
<rect width="54.2397" height="42.1617" transform="matrix(0.708925 -0.705284 0.708925 0.705284 -17.7522 20.2585)" fill="url(#paint0_angular_6900_138770)"/>
</g>
</g>
<path d="M16.5507 5.1377C16.5622 5.14604 16.5755 5.15172 16.5895 5.15431C16.5963 5.15431 16.6031 5.15743 16.6105 5.15795C16.6915 5.16625 16.7698 5.19081 16.8409 5.23013C16.8629 5.24103 16.8839 5.25401 16.9054 5.26596L18.4825 6.14872L20.3267 7.18103C20.7728 7.43029 21.2185 7.67988 21.6639 7.92983C21.6917 7.9454 21.7195 7.95994 21.7463 7.97656C21.9173 8.08004 22.037 8.24942 22.0764 8.44391C22.0809 8.46441 22.0835 8.48526 22.0843 8.50622C22.0843 8.55503 22.0879 8.60384 22.0879 8.65317V10.7604C22.0879 11.5466 22.0879 12.3327 22.0879 13.1189C22.0879 13.161 22.0879 13.203 22.0879 13.2446C22.0845 13.3571 22.0512 13.4667 21.9914 13.5624C21.902 13.7112 21.761 13.8229 21.5946 13.8765C21.5237 13.8983 21.45 13.9103 21.3758 13.9124C21.344 13.9121 21.3122 13.9095 21.2808 13.9046C21.1963 13.8954 21.1144 13.8703 21.0394 13.8308C21.0142 13.8179 20.9895 13.8038 20.9654 13.7903L18.5953 12.4636L16.9159 11.5253L16.833 11.4791C16.7666 11.4465 16.696 11.4233 16.6231 11.41C16.6058 11.4068 16.5882 11.4049 16.5706 11.4043C16.5423 11.4043 16.5139 11.4043 16.4856 11.4043C16.3758 11.405 16.2678 11.4319 16.1707 11.4827C16.1424 11.4972 16.1151 11.5133 16.0878 11.5289C15.4902 11.8675 14.8926 12.2062 14.295 12.5451L12.1433 13.7649C12.1129 13.7826 12.0819 13.7997 12.0509 13.8168C11.9826 13.8534 11.9093 13.8799 11.8331 13.8952C11.8193 13.8981 11.8053 13.9 11.7912 13.9009L11.6862 13.9041C11.5868 13.9043 11.4886 13.8815 11.3996 13.8376C11.2067 13.751 11.0632 13.5832 11.0087 13.3806C10.9918 13.3234 10.9829 13.2642 10.9824 13.2046V8.65369C10.9824 8.62565 10.9824 8.59761 10.9824 8.57009C10.9843 8.48251 11.0021 8.39597 11.0349 8.31461C11.0901 8.17716 11.1876 8.06037 11.3136 7.98071C11.3372 7.96566 11.3624 7.95215 11.3865 7.93813L12.655 7.21842L14.1628 6.3637L15.6873 5.50119L16.0647 5.28725L16.1476 5.24103C16.1977 5.21401 16.2504 5.19226 16.3051 5.17612C16.3396 5.16771 16.3747 5.16164 16.41 5.15795C16.4239 5.15586 16.4369 5.14971 16.4473 5.14029L16.5507 5.1377Z" fill="white"/>
<path d="M5.46069 17.9492C5.48187 17.9434 5.49716 17.9252 5.499 17.9035C5.50447 17.862 5.51253 17.8209 5.52315 17.7804C5.56857 17.6208 5.66902 17.4819 5.80707 17.3878C5.83593 17.3681 5.8669 17.3505 5.89734 17.3359L6.86089 16.7855L9.00789 15.56L9.84286 15.0828C9.8733 15.0657 9.90427 15.048 9.93575 15.0309C10.0304 14.9828 10.1353 14.9575 10.2417 14.9571C10.4313 14.9549 10.6141 15.0265 10.7508 15.1565C10.8364 15.2357 10.9002 15.3353 10.936 15.4458C10.9581 15.5086 10.9701 15.5745 10.9717 15.641C10.9717 15.6794 10.9717 15.7179 10.9717 15.7563V20.1904C10.9717 20.2355 10.9717 20.2812 10.9717 20.3264C10.9761 20.5577 11.0935 20.7725 11.2866 20.9028C11.3181 20.9246 11.3527 20.9433 11.3863 20.962L12.3016 21.4683L14.1878 22.5115L15.356 23.1564C15.387 23.1736 15.4179 23.1902 15.4478 23.2084C15.609 23.3007 15.7261 23.4532 15.7727 23.6316C15.7988 23.7225 15.8054 23.8179 15.7921 23.9115C15.7808 23.9946 15.7556 24.0753 15.7176 24.1503C15.6588 24.2628 15.5701 24.3573 15.461 24.4235C15.431 24.4422 15.3996 24.4583 15.3686 24.4754L12.3152 26.1371L11.2756 26.7015C11.2478 26.7166 11.2231 26.7327 11.1922 26.7467C11.145 26.7708 11.0954 26.7898 11.0442 26.8033C10.9723 26.8219 10.898 26.8298 10.8237 26.8267C10.703 26.8209 10.5857 26.7852 10.4826 26.7228L10.163 26.5369L5.91728 24.0673C5.88999 24.0517 5.8648 24.0361 5.83541 24.019C5.67181 23.9186 5.55573 23.7576 5.51317 23.5719C5.5053 23.5412 5.5032 23.5096 5.49743 23.4789C5.49468 23.4649 5.48474 23.4533 5.47119 23.4483C5.46795 23.447 5.46461 23.446 5.46122 23.4452L5.46069 17.9492Z" fill="white"/>
<path d="M22.0005 26.8603C21.9928 26.8535 21.9841 26.8477 21.9748 26.8432C21.9482 26.8339 21.921 26.8261 21.8935 26.8198C21.8279 26.8051 21.7648 26.7812 21.7061 26.7487C21.672 26.73 21.6389 26.7103 21.6053 26.6911L20.0367 25.7953L17.7149 24.4706C17.6903 24.4566 17.6656 24.4431 17.642 24.4281C17.4814 24.3289 17.3679 24.17 17.3271 23.9872C17.3156 23.9396 17.3097 23.8908 17.3098 23.8418C17.3012 23.6026 17.4173 23.3757 17.6173 23.241C17.6464 23.2221 17.6766 23.2048 17.7076 23.1891L19.0311 22.4382L20.8155 21.4272L21.6521 20.9531C21.6888 20.9323 21.7261 20.9121 21.7617 20.8897C21.8981 20.8061 22.0023 20.6798 22.0577 20.5309C22.077 20.482 22.0899 20.4309 22.096 20.3788C22.1023 20.3233 22.1055 20.2674 22.1055 20.2116C22.1055 20.0122 22.1055 19.8133 22.1055 19.6139C22.1055 18.342 22.1055 17.0703 22.1055 15.7988C22.1055 15.7635 22.1055 15.7287 22.1055 15.6949C22.1055 15.6612 22.1055 15.6388 22.1086 15.6113C22.1176 15.445 22.1885 15.2877 22.3075 15.1699C22.3971 15.0795 22.5097 15.0148 22.6335 14.9825C22.6878 14.9669 22.7438 14.958 22.8003 14.9559C22.9174 14.9541 23.0332 14.9803 23.1378 15.0323C23.1661 15.0464 23.1939 15.0619 23.2212 15.078L24.2856 15.6851L26.1576 16.7542L27.1389 17.3145C27.1699 17.3322 27.2004 17.3493 27.2308 17.3665C27.3554 17.4415 27.4536 17.5526 27.5121 17.6848C27.5232 17.7068 27.5304 17.7305 27.5336 17.7549C27.5377 17.7717 27.5454 17.7875 27.5562 17.8011V23.5894C27.5442 23.5971 27.5363 23.6097 27.5347 23.6237C27.5307 23.6515 27.5222 23.6785 27.5095 23.7037C27.4524 23.8286 27.3595 23.9342 27.2423 24.0074C27.2129 24.0267 27.182 24.0438 27.1515 24.0594L25.7088 24.8777L22.4928 26.703C22.4655 26.7186 22.4403 26.7347 22.4099 26.7492C22.3515 26.7818 22.2885 26.8058 22.223 26.8203C22.1988 26.8258 22.175 26.8327 22.1517 26.8411C22.1418 26.8446 22.1334 26.8514 22.1281 26.8603H22.0005Z" fill="white"/>
<defs>
<filter id="filter0_f_6900_138770" x="-25.7424" y="-25.9861" width="84.3219" height="83.971" filterUnits="userSpaceOnUse" color-interpolation-filters="sRGB">
<feFlood flood-opacity="0" result="BackgroundImageFix"/>
<feBlend mode="normal" in="SourceGraphic" in2="BackgroundImageFix" result="shape"/>
<feGaussianBlur stdDeviation="3.99512" result="effect1_foregroundBlur_6900_138770"/>
</filter>
<radialGradient id="paint0_angular_6900_138770" cx="0" cy="0" r="1" gradientUnits="userSpaceOnUse" gradientTransform="translate(27.1199 21.0809) rotate(90) scale(21.0809 27.1199)">
<stop offset="0.0625" stop-color="#EA4335"/>
<stop offset="0.197917" stop-color="#FFC700"/>
<stop offset="0.348958" stop-color="#FFD600"/>
<stop offset="0.468937" stop-color="#4FB500"/>
<stop offset="0.516943" stop-color="#00B066"/>
<stop offset="0.583333" stop-color="#0094FF"/>
<stop offset="0.786458" stop-color="#A033FF"/>
<stop offset="1" stop-color="#FF3B30"/>
</radialGradient>
</defs>
</svg>
