<?xml version="1.0" encoding="UTF-8"?>
<svg xmlns="http://www.w3.org/2000/svg" xmlns:xlink="http://www.w3.org/1999/xlink" width="24px" height="24px" viewBox="0 0 24 24" version="1.1">
<defs>
<linearGradient id="linear0" gradientUnits="userSpaceOnUse" x1="385.057" y1="225.01" x2="281.061" y2="158.614" gradientTransform="matrix(0.0621762,0,0,0.0621762,0,0)">
<stop offset="0.12998" style="stop-color:rgb(62.745098%,20%,100%);stop-opacity:1;"/>
<stop offset="0.610381" style="stop-color:rgb(0%,58.039216%,100%);stop-opacity:1;"/>
<stop offset="1" style="stop-color:rgb(30.980392%,70.980392%,0%);stop-opacity:1;"/>
</linearGradient>
<linearGradient id="linear1" gradientUnits="userSpaceOnUse" x1="176.995" y1="120.979" x2="56.9599" y2="361.05" gradientTransform="matrix(0.0621762,0,0,0.0621762,0,0)">
<stop offset="0" style="stop-color:rgb(100%,83.921569%,0%);stop-opacity:0;"/>
<stop offset="0.563347" style="stop-color:rgb(100%,78.039216%,0%);stop-opacity:1;"/>
</linearGradient>
<linearGradient id="linear2" gradientUnits="userSpaceOnUse" x1="209.005" y1="225.01" x2="345.045" y2="369.052" gradientTransform="matrix(0.0621762,0,0,0.0621762,0,0)">
<stop offset="0.0297327" style="stop-color:rgb(100%,23.137255%,18.823529%);stop-opacity:0;"/>
<stop offset="0.842824" style="stop-color:rgb(90.588235%,23.137255%,17.647059%);stop-opacity:1;"/>
</linearGradient>
</defs>
<g id="surface1">
<path style=" stroke:none;fill-rule:nonzero;fill:rgb(100%,100%,100%);fill-opacity:1;" d="M 7.945312 0.0585938 L 16.054688 0.0585938 C 20.410156 0.0585938 23.941406 3.589844 23.941406 7.945312 L 23.941406 16.054688 C 23.941406 20.410156 20.410156 23.941406 16.054688 23.941406 L 7.945312 23.941406 C 3.589844 23.941406 0.0585938 20.410156 0.0585938 16.054688 L 0.0585938 7.945312 C 0.0585938 3.589844 3.589844 0.0585938 7.945312 0.0585938 Z M 7.945312 0.0585938 "/>
<path style=" stroke:none;fill-rule:nonzero;fill:url(#linear0);" d="M 7.945312 0.0585938 L 16.054688 0.0585938 C 20.410156 0.0585938 23.941406 3.589844 23.941406 7.945312 L 23.941406 16.054688 C 23.941406 20.410156 20.410156 23.941406 16.054688 23.941406 L 7.945312 23.941406 C 3.589844 23.941406 0.0585938 20.410156 0.0585938 16.054688 L 0.0585938 7.945312 C 0.0585938 3.589844 3.589844 0.0585938 7.945312 0.0585938 Z M 7.945312 0.0585938 "/>
<path style=" stroke:none;fill-rule:nonzero;fill:url(#linear1);" d="M 7.945312 0.0585938 L 16.054688 0.0585938 C 20.410156 0.0585938 23.941406 3.589844 23.941406 7.945312 L 23.941406 16.054688 C 23.941406 20.410156 20.410156 23.941406 16.054688 23.941406 L 7.945312 23.941406 C 3.589844 23.941406 0.0585938 20.410156 0.0585938 16.054688 L 0.0585938 7.945312 C 0.0585938 3.589844 3.589844 0.0585938 7.945312 0.0585938 Z M 7.945312 0.0585938 "/>
<path style=" stroke:none;fill-rule:nonzero;fill:url(#linear2);" d="M 7.945312 0.0585938 L 16.054688 0.0585938 C 20.410156 0.0585938 23.941406 3.589844 23.941406 7.945312 L 23.941406 16.054688 C 23.941406 20.410156 20.410156 23.941406 16.054688 23.941406 L 7.945312 23.941406 C 3.589844 23.941406 0.0585938 20.410156 0.0585938 16.054688 L 0.0585938 7.945312 C 0.0585938 3.589844 3.589844 0.0585938 7.945312 0.0585938 Z M 7.945312 0.0585938 "/>
<path style=" stroke:none;fill-rule:nonzero;fill:rgb(100%,100%,100%);fill-opacity:1;" d="M 11.90625 5.121094 C 16.171875 5.121094 19.632812 8.109375 19.632812 11.792969 C 19.632812 15.480469 16.171875 18.46875 11.90625 18.46875 C 11.03125 18.46875 10.191406 18.339844 9.40625 18.109375 C 8.53125 18.792969 7.171875 19.363281 5.328125 19.824219 C 5.242188 19.847656 5.148438 19.835938 5.070312 19.792969 C 4.902344 19.695312 4.839844 19.480469 4.933594 19.3125 L 5.066406 19.070312 C 5.679688 17.945312 6.058594 17.023438 6.210938 16.304688 C 4.949219 15.117188 4.179688 13.53125 4.179688 11.792969 C 4.179688 8.109375 7.636719 5.121094 11.90625 5.121094 Z M 11.90625 5.121094 "/>
</g>
</svg>
