<svg width="28" height="28" viewBox="0 0 28 28" fill="none" xmlns="http://www.w3.org/2000/svg">
<mask id="mask0_959_25246" style="mask-type:alpha" maskUnits="userSpaceOnUse" x="0" y="0" width="28" height="28">
<path d="M7.83385 3.84447L24.1517 20.1661C24.6073 20.6218 24.6073 21.3605 24.1516 21.8161C23.7311 22.2366 23.0694 22.269 22.6118 21.9132L22.5018 21.816L18.6667 17.9795V23.3333C18.6667 23.9316 18.2163 24.4248 17.6361 24.4922L17.5 24.5C16.7516 24.5 16.0325 24.2093 15.4943 23.6893L9.08848 17.5H5.83333C4.54467 17.5 3.5 16.4553 3.5 15.1667V12.8333C3.5 11.5447 4.54467 10.5 5.83333 10.5H9.05917L10.1442 9.45467L6.18403 5.49448C5.72845 5.0388 5.72849 4.3001 6.18412 3.84447C6.63968 3.38891 7.37829 3.38891 7.83385 3.84447ZM17.5 3.5C18.1443 3.5 18.6667 4.02233 18.6667 4.66667V11.3867L13.503 6.223L15.4927 4.30896C15.9781 3.84184 16.6094 3.56028 17.2765 3.50864L17.5 3.5Z" fill="#ffffff"/>
</mask>
<g mask="url(#mask0_959_25246)">
<rect width="28" height="28" fill="#ffffff"/>
</g>
</svg>
