<svg width="29" height="28" viewBox="0 0 29 28" fill="none" xmlns="http://www.w3.org/2000/svg">
<path fill-rule="evenodd" clip-rule="evenodd" d="M16.373 4.2H13.293C11.6902 4.2 10.6144 4.20163 9.78595 4.26932C8.982 4.335 8.59761 4.45228 8.34404 4.58148C7.68547 4.91703 7.15004 5.45246 6.81449 6.11103C6.68528 6.3646 6.56801 6.74899 6.50233 7.55294C6.43464 8.3814 6.43301 9.4572 6.43301 11.06V16.94C6.43301 18.5428 6.43464 19.6186 6.50233 20.4471C6.56801 21.251 6.68528 21.6354 6.81449 21.889C7.15004 22.5475 7.68547 23.083 8.34404 23.4185C8.59761 23.5477 8.982 23.665 9.78595 23.7307C10.6144 23.7984 11.6902 23.8 13.293 23.8H16.373C17.9758 23.8 19.0516 23.7984 19.8801 23.7307C20.684 23.665 21.0684 23.5477 21.322 23.4185C21.9805 23.083 22.516 22.5475 22.8515 21.889C22.9807 21.6354 23.098 21.251 23.1637 20.4471C23.2314 19.6186 23.233 18.5428 23.233 16.94V11.06C23.233 9.4572 23.2314 8.3814 23.1637 7.55294C23.098 6.74899 22.9807 6.3646 22.8515 6.11103C22.516 5.45246 21.9805 4.91703 21.322 4.58148C21.0684 4.45228 20.684 4.335 19.8801 4.26932C19.0516 4.20163 17.9758 4.2 16.373 4.2ZM4.94337 5.15765C4.33301 6.35556 4.33301 7.9237 4.33301 11.06V16.94C4.33301 20.0763 4.33301 21.6444 4.94337 22.8423C5.48026 23.8961 6.33695 24.7527 7.39066 25.2896C8.58857 25.9 10.1567 25.9 13.293 25.9H16.373C19.5093 25.9 21.0774 25.9 22.2754 25.2896C23.3291 24.7527 24.1858 23.8961 24.7226 22.8423C25.333 21.6444 25.333 20.0763 25.333 16.94V11.06C25.333 7.9237 25.333 6.35556 24.7226 5.15765C24.1858 4.10394 23.3291 3.24725 22.2754 2.71036C21.0774 2.1 19.5093 2.1 16.373 2.1H13.293C10.1567 2.1 8.58857 2.1 7.39066 2.71036C6.33695 3.24725 5.48026 4.10394 4.94337 5.15765Z" fill="#ffffff"/>
<path d="M17.633 9.8C17.633 11.3464 16.3794 12.6 14.833 12.6C13.2866 12.6 12.033 11.3464 12.033 9.8C12.033 8.2536 13.2866 7 14.833 7C16.3794 7 17.633 8.2536 17.633 9.8Z" fill="#ffffff"/>
<path d="M9.23301 15.75C9.23301 15.1701 9.70311 14.7 10.283 14.7H19.383C19.9629 14.7 20.433 15.1701 20.433 15.75C20.433 16.3299 19.9629 16.8 19.383 16.8H10.283C9.70311 16.8 9.23301 16.3299 9.23301 15.75Z" fill="#ffffff"/>
<path d="M9.23301 19.95C9.23301 19.3701 9.70311 18.9 10.283 18.9H19.383C19.9629 18.9 20.433 19.3701 20.433 19.95C20.433 20.5299 19.9629 21 19.383 21H10.283C9.70311 21 9.23301 20.5299 9.23301 19.95Z" fill="#ffffff"/>
</svg>
