<svg width="28" height="28" viewBox="0 0 28 28" fill="none" xmlns="http://www.w3.org/2000/svg">
<mask id="mask0_682_9963" style="mask-type:alpha" maskUnits="userSpaceOnUse" x="0" y="0" width="28" height="28">
<path d="M15.148 2.04074C15.5756 2.10915 15.98 2.27274 16.3431 2.56326C16.938 3.03918 17.2213 3.63909 17.4403 4.51493C17.4963 4.73914 17.5933 5.00052 17.7146 5.25421C17.9926 5.37243 18.2647 5.50383 18.5299 5.6479C18.7916 5.58323 19.043 5.49734 19.2437 5.40389C20.656 4.74644 21.8407 4.78098 22.8109 5.82744C22.893 5.91595 22.942 5.97458 23.0486 6.10623L23.6779 6.88337C23.8471 7.09238 23.9194 7.18761 24.0262 7.3653C24.7181 8.51673 24.4483 9.58909 23.5738 10.7511C23.4287 10.9439 23.2806 11.1963 23.1566 11.4618C23.2348 11.7444 23.2999 12.0309 23.3517 12.3206C23.5744 12.499 23.8112 12.6554 24.0203 12.7621C24.8245 13.1725 25.3453 13.5835 25.6752 14.2702C25.8766 14.6894 25.945 15.1202 25.9155 15.5522C25.8998 15.7805 25.8752 15.9078 25.8094 16.1928L25.5844 17.1672C25.5186 17.4521 25.485 17.5773 25.399 17.7894C25.2361 18.1906 24.9858 18.5479 24.621 18.8364C24.0234 19.3089 23.3752 19.45 22.4725 19.4663C22.2442 19.4705 21.9714 19.5054 21.6999 19.5652C21.5235 19.809 21.3355 20.0443 21.1368 20.2704C21.1402 20.5446 21.1675 20.814 21.2142 21.0344C21.4013 21.9176 21.4097 22.581 21.0836 23.2695C20.8846 23.6898 20.5928 24.0141 20.2385 24.2631C20.0513 24.3946 19.9368 24.4555 19.674 24.5837L18.7752 25.0221C18.5123 25.1503 18.3938 25.203 18.1749 25.2696C17.7606 25.3955 17.3254 25.4258 16.8716 25.3238C16.1283 25.1569 15.6107 24.7419 15.03 24.0506C14.8765 23.8679 14.6667 23.6691 14.4386 23.49C14.2928 23.4967 14.1466 23.5 14 23.5C13.8534 23.5 13.7072 23.4967 13.5614 23.49C13.3333 23.6691 13.1235 23.8679 12.97 24.0506C12.3893 24.7419 11.8717 25.1569 11.1284 25.3238C10.6746 25.4258 10.2394 25.3955 9.82513 25.2696C9.60617 25.203 9.48772 25.1503 9.22484 25.0221L8.32605 24.5837C8.24703 24.5453 8.19801 24.521 8.14075 24.4912C6.8292 23.8082 6.44471 22.6441 6.78581 21.0344C6.83251 20.814 6.85976 20.5446 6.86317 20.2704C6.66447 20.0443 6.47654 19.809 6.30007 19.5652C6.02865 19.5054 5.7558 19.4705 5.52746 19.4663C4.62482 19.45 3.97655 19.3089 3.37901 18.8364C3.01425 18.5479 2.76387 18.1906 2.60104 17.7894C2.51498 17.5773 2.48136 17.4521 2.41557 17.1672L2.19062 16.1928C2.12096 15.8911 2.0953 15.7565 2.08209 15.512C2.05732 15.0537 2.14502 14.5984 2.37766 14.1664C2.7166 13.537 3.2183 13.1507 3.97967 12.7621C4.1888 12.6554 4.42557 12.499 4.64832 12.3206C4.70007 12.0309 4.76519 11.7444 4.84337 11.4618C4.71944 11.1963 4.57129 10.9439 4.42619 10.7511C3.5517 9.58909 3.28193 8.51673 3.97378 7.3653C4.08055 7.18761 4.15285 7.09238 4.3221 6.88337L4.95142 6.10623C5.05803 5.97458 5.10703 5.91595 5.18909 5.82744C6.15929 4.78098 7.34403 4.74644 8.75627 5.40389C8.95701 5.49734 9.20839 5.58323 9.47014 5.6479C9.73532 5.50383 10.0074 5.37243 10.2854 5.25421C10.4067 5.00052 10.5037 4.73914 10.5597 4.51493C10.7787 3.63909 11.062 3.03918 11.6569 2.56326C12.02 2.27274 12.4244 2.10915 12.852 2.04074C13.0328 2.01182 13.1518 2.0031 13.342 2.00077L14.5 2C14.7925 2 14.922 2.00459 15.148 2.04074ZM14.5857 4.0002L13.5 4C13 4 12.75 4 12.5 5C12.3612 5.55507 12.0684 6.26419 11.6643 6.87084C11.0217 7.08124 10.4174 7.37609 9.86438 7.74228C9.14762 7.67166 8.4243 7.45545 7.91218 7.21704C6.97771 6.78201 6.82038 6.97629 6.50572 7.36487L5.8764 8.14201C5.56174 8.53059 5.40441 8.72487 6.02422 9.54848C6.37308 10.012 6.74535 10.6984 6.96124 11.4045C6.74018 12.0038 6.59347 12.6392 6.5323 13.2993C6.03069 13.8335 5.40134 14.282 4.88878 14.5436C3.97065 15.0121 4.02689 15.2557 4.13936 15.7429L4.36431 16.7173C4.47679 17.2044 4.53303 17.448 5.56363 17.4667C6.13346 17.477 6.8866 17.6018 7.56651 17.8571C7.91185 18.4319 8.33202 18.9565 8.81356 19.4177C8.90792 20.1352 8.86007 20.8935 8.74237 21.449C8.5287 22.4574 8.75339 22.567 9.20279 22.7862L10.1016 23.2245C10.551 23.4437 10.7757 23.5533 11.4388 22.7641C11.8105 22.3216 12.3926 21.8067 13.0292 21.4377C13.347 21.4788 13.671 21.5 14 21.5C14.329 21.5 14.653 21.4788 14.9708 21.4377C15.6074 21.8067 16.1895 22.3216 16.5613 22.7641C17.2243 23.5533 17.449 23.4437 17.8984 23.2245L18.7972 22.7862C19.2466 22.567 19.4713 22.4574 19.2576 21.449C19.1399 20.8935 19.0921 20.1352 19.1864 19.4177C19.668 18.9565 20.0882 18.4319 20.4335 17.8571C21.1134 17.6018 21.8665 17.477 22.4364 17.4667C23.467 17.448 23.5232 17.2044 23.6357 16.7173L23.8606 15.7429C23.9731 15.2557 24.0294 15.0121 23.1112 14.5436C22.5987 14.282 21.9693 13.8335 21.4677 13.2993C21.4065 12.6392 21.2598 12.0038 21.0388 11.4045C21.2546 10.6984 21.6269 10.012 21.9758 9.54848C22.5956 8.72487 22.4383 8.53059 22.1236 8.14201L21.4943 7.36487C21.1796 6.97629 21.0223 6.78201 20.0878 7.21704C19.5757 7.45545 18.8524 7.67166 18.1356 7.74228C17.5826 7.37609 16.9783 7.08124 16.3357 6.87084C15.9316 6.26419 15.6388 5.55507 15.5 5C15.2647 4.05882 15.0294 4.00346 14.5857 4.0002ZM14 9.5C16.4853 9.5 18.5 11.5147 18.5 14C18.5 16.4853 16.4853 18.5 14 18.5C11.5147 18.5 9.5 16.4853 9.5 14C9.5 11.5147 11.5147 9.5 14 9.5ZM14 11.5C12.6193 11.5 11.5 12.6193 11.5 14C11.5 15.3807 12.6193 16.5 14 16.5C15.3807 16.5 16.5 15.3807 16.5 14C16.5 12.6193 15.3807 11.5 14 11.5Z" fill="#ffffff"/>
</mask>
<g mask="url(#mask0_682_9963)">
<rect width="28" height="28" fill="#ffffff"/>
</g>
</svg>
