<svg width="95" height="23" viewBox="0 0 95 23" fill="none" xmlns="http://www.w3.org/2000/svg">
<path d="M10.5851 17.8925V22.2528H7.96892C6.10449 22.2528 4.65104 21.8018 3.60857 20.8996C2.56609 19.9774 2.04485 18.4839 2.04485 16.419V9.74313H0V5.47299H2.04485V1.38328H7.18706V5.47299H10.5551V9.74313H7.18706V16.4791C7.18706 16.9803 7.30735 17.3412 7.54792 17.5617C7.78849 17.7822 8.18944 17.8925 8.75077 17.8925H10.5851Z" fill="black"/>
<path d="M37.5366 5.47299L32.9958 22.2528H27.3123L24.6661 11.367L21.9296 22.2528H16.2761L11.7053 5.47299H16.8475L19.2231 17.4715L22.0498 5.47299H27.4928L30.3496 17.4113L32.6951 5.47299H37.5366Z" fill="black"/>
<path d="M38.4752 13.8328C38.4752 12.1087 38.7959 10.5952 39.4375 9.29206C40.099 7.98897 40.9911 6.98659 42.1138 6.28492C43.2365 5.58325 44.4894 5.23242 45.8727 5.23242C47.0555 5.23242 48.088 5.47299 48.9701 5.95413C49.8722 6.43528 50.5639 7.06678 51.045 7.84863V5.47299H56.1872V22.2528H51.045V19.8772C50.5438 20.659 49.8422 21.2905 48.94 21.7717C48.0579 22.2528 47.0255 22.4934 45.8427 22.4934C44.4794 22.4934 43.2365 22.1426 42.1138 21.4409C40.9911 20.7192 40.099 19.7068 39.4375 18.4037C38.7959 17.0805 38.4752 15.5569 38.4752 13.8328ZM51.045 13.8629C51.045 12.5799 50.6842 11.5675 49.9624 10.8257C49.2608 10.0839 48.3987 9.71306 47.3763 9.71306C46.3539 9.71306 45.4818 10.0839 44.7601 10.8257C44.0584 11.5474 43.7076 12.5498 43.7076 13.8328C43.7076 15.1159 44.0584 16.1383 44.7601 16.9001C45.4818 17.6419 46.3539 18.0128 47.3763 18.0128C48.3987 18.0128 49.2608 17.6419 49.9624 16.9001C50.6842 16.1584 51.045 15.146 51.045 13.8629Z" fill="black"/>
<path d="M70.1617 22.2528L65.0496 15.2161V22.2528H59.9074V0H65.0496V12.2992L70.1317 5.47299H76.4767L69.5002 13.893L76.5369 22.2528H70.1617Z" fill="black"/>
<path d="M94.314 13.5923C94.314 14.0734 94.2839 14.5746 94.2238 15.0958H82.5861C82.6663 16.1383 82.9971 16.9402 83.5785 17.5015C84.1799 18.0428 84.9117 18.3135 85.7737 18.3135C87.0567 18.3135 87.9489 17.7722 88.4501 16.6896H93.9231C93.6424 17.7922 93.1312 18.7846 92.3894 19.6667C91.6677 20.5488 90.7555 21.2404 89.6529 21.7416C88.5503 22.2428 87.3174 22.4934 85.9541 22.4934C84.3102 22.4934 82.8468 22.1426 81.5637 21.4409C80.2807 20.7392 79.2783 19.7369 78.5566 18.4338C77.8349 17.1307 77.474 15.6071 77.474 13.8629C77.474 12.1188 77.8248 10.5952 78.5265 9.29206C79.2482 7.98897 80.2506 6.98659 81.5336 6.28492C82.8167 5.58325 84.2902 5.23242 85.9541 5.23242C87.578 5.23242 89.0214 5.57323 90.2844 6.25485C91.5474 6.93647 92.5297 7.90877 93.2314 9.17177C93.9531 10.4348 94.314 11.9083 94.314 13.5923ZM89.0515 12.2391C89.0515 11.357 88.7508 10.6553 88.1493 10.1341C87.5479 9.61282 86.7961 9.3522 85.894 9.3522C85.032 9.3522 84.3002 9.6028 83.6988 10.104C83.1174 10.6052 82.7565 11.3169 82.6162 12.2391H89.0515Z" fill="black"/>
</svg>
