<svg width="84" height="32" viewBox="0 0 84 32" fill="none" xmlns="http://www.w3.org/2000/svg">
<rect x="4" y="4" width="24" height="24" rx="6" fill="white"/>
<rect x="4" y="4" width="24" height="24" rx="6" fill="url(#paint0_linear_1840_34400)"/>
<rect x="4" y="4" width="24" height="24" rx="6" fill="url(#paint1_linear_1840_34400)"/>
<rect x="4" y="4" width="24" height="24" rx="6" fill="url(#paint2_linear_1840_34400)"/>
<path d="M16.0308 8C16.0391 8.00611 16.0487 8.01026 16.0589 8.01216C16.0638 8.01216 16.0688 8.01444 16.0741 8.01482C16.1327 8.0209 16.1895 8.03887 16.2409 8.06765C16.2569 8.07563 16.2721 8.08513 16.2877 8.09387L17.4297 8.73994L18.7651 9.49545C19.0882 9.67787 19.4109 9.86055 19.7335 10.0435C19.7536 10.0549 19.7738 10.0655 19.7931 10.0777C19.917 10.1534 20.0036 10.2774 20.0322 10.4197C20.0354 10.4347 20.0373 10.45 20.0379 10.4653C20.0379 10.501 20.0405 10.5368 20.0405 10.5729V12.1151C20.0405 12.6904 20.0405 13.2658 20.0405 13.8412C20.0405 13.872 20.0405 13.9028 20.0405 13.9332C20.0381 14.0155 20.0139 14.0957 19.9706 14.1658C19.9059 14.2747 19.8038 14.3564 19.6833 14.3957C19.6319 14.4116 19.5786 14.4204 19.5248 14.4219C19.5018 14.4217 19.4788 14.4198 19.456 14.4162C19.3949 14.4095 19.3356 14.3911 19.2812 14.3622C19.263 14.3527 19.2451 14.3425 19.2276 14.3326L17.5114 13.3616L16.2953 12.6749L16.2352 12.641C16.1871 12.6172 16.136 12.6002 16.0832 12.5905C16.0706 12.5882 16.0579 12.5868 16.0452 12.5863C16.0247 12.5863 16.0041 12.5863 15.9836 12.5863C15.9041 12.5868 15.8259 12.6065 15.7556 12.6437C15.7351 12.6543 15.7153 12.6661 15.6956 12.6775C15.2628 12.9253 14.8301 13.1732 14.3973 13.4213L12.8392 14.314C12.8171 14.3269 12.7947 14.3394 12.7723 14.352C12.7228 14.3788 12.6697 14.3981 12.6146 14.4094C12.6046 14.4115 12.5944 14.4129 12.5842 14.4135L12.5082 14.4158C12.4362 14.416 12.3651 14.3993 12.3007 14.3672C12.1609 14.3038 12.057 14.181 12.0175 14.0327C12.0053 13.9909 11.9989 13.9475 11.9985 13.9039V10.5732C11.9985 10.5527 11.9985 10.5322 11.9985 10.5121C11.9999 10.448 12.0128 10.3846 12.0365 10.3251C12.0765 10.2245 12.1471 10.139 12.2383 10.0807C12.2554 10.0697 12.2737 10.0598 12.2912 10.0496L13.2097 9.52282L14.3016 8.89727L15.4056 8.26603L15.6788 8.10945L15.7389 8.07563C15.7751 8.05585 15.8133 8.03993 15.8529 8.02812C15.8779 8.02197 15.9033 8.01753 15.9289 8.01482C15.939 8.01329 15.9484 8.00879 15.9559 8.0019L16.0308 8Z" fill="white"/>
<path d="M8 17.3759C8.01534 17.3717 8.02641 17.3583 8.02774 17.3425C8.0317 17.3121 8.03754 17.282 8.04522 17.2524C8.07812 17.1355 8.15086 17.0339 8.25083 16.9651C8.27173 16.9506 8.29415 16.9377 8.31619 16.9271L9.01394 16.5242L10.5687 15.6273L11.1733 15.2781C11.1954 15.2655 11.2178 15.2526 11.2406 15.2401C11.3092 15.2049 11.3851 15.1864 11.4622 15.1861C11.5994 15.1845 11.7318 15.2369 11.8308 15.332C11.8928 15.39 11.939 15.4629 11.9649 15.5437C11.9809 15.5897 11.9896 15.6379 11.9908 15.6866C11.9908 15.7147 11.9908 15.7429 11.9908 15.771V19.0161C11.9908 19.0492 11.9908 19.0826 11.9908 19.1157C11.994 19.285 12.079 19.4422 12.2188 19.5376C12.2416 19.5535 12.2667 19.5672 12.291 19.5809L12.9538 19.9514L14.3197 20.7149L15.1656 21.1869C15.1881 21.1995 15.2105 21.2116 15.2321 21.2249C15.3489 21.2925 15.4336 21.4041 15.4674 21.5347C15.4863 21.6012 15.4911 21.671 15.4815 21.7395C15.4732 21.8004 15.455 21.8594 15.4275 21.9143C15.3849 21.9966 15.3207 22.0658 15.2416 22.1142C15.22 22.1279 15.1972 22.1397 15.1748 22.1522L12.9637 23.3684L12.2108 23.7815C12.1907 23.7925 12.1728 23.8043 12.1504 23.8145C12.1163 23.8322 12.0804 23.846 12.0432 23.8559C11.9912 23.8696 11.9374 23.8753 11.8836 23.873C11.7962 23.8688 11.7113 23.8427 11.6366 23.797L11.4052 23.661L8.33063 21.8535C8.31087 21.8421 8.29263 21.8307 8.27135 21.8182C8.15288 21.7448 8.06882 21.6269 8.038 21.491C8.0323 21.4685 8.03078 21.4454 8.0266 21.4229C8.02461 21.4127 8.01741 21.4042 8.0076 21.4005C8.00525 21.3996 8.00284 21.3988 8.00038 21.3982L8 17.3759Z" fill="white"/>
<path d="M19.9772 23.8981C19.9716 23.8931 19.9653 23.8889 19.9586 23.8855C19.9393 23.8787 19.9196 23.873 19.8997 23.8684C19.8522 23.8577 19.8065 23.8402 19.764 23.8164C19.7393 23.8027 19.7153 23.7883 19.691 23.7742L18.5551 23.1186L16.8738 22.1491C16.8559 22.1389 16.8381 22.129 16.821 22.118C16.7047 22.0454 16.6225 21.9291 16.5929 21.7953C16.5846 21.7605 16.5804 21.7248 16.5804 21.6889C16.5742 21.5138 16.6583 21.3478 16.8031 21.2492C16.8242 21.2354 16.846 21.2227 16.8685 21.2112L17.8269 20.6617L19.1191 19.9217L19.7248 19.5748C19.7514 19.5596 19.7784 19.5447 19.8043 19.5284C19.903 19.4672 19.9785 19.3748 20.0186 19.2658C20.0326 19.23 20.0419 19.1926 20.0464 19.1544C20.0509 19.1138 20.0532 19.073 20.0532 19.0321C20.0532 18.8861 20.0532 18.7406 20.0532 18.5946C20.0532 17.6638 20.0532 16.7331 20.0532 15.8025C20.0532 15.7766 20.0532 15.7512 20.0532 15.7265C20.0532 15.7018 20.0532 15.6854 20.0555 15.6653C20.062 15.5435 20.1133 15.4285 20.1995 15.3423C20.2644 15.2761 20.3459 15.2287 20.4355 15.2051C20.4749 15.1937 20.5154 15.1872 20.5564 15.1856C20.6411 15.1843 20.725 15.2034 20.8007 15.2416C20.8213 15.2518 20.8414 15.2632 20.8612 15.275L21.6319 15.7193L22.9875 16.5018L23.6982 16.9118C23.7206 16.9247 23.7426 16.9373 23.7647 16.9498C23.8549 17.0047 23.926 17.0861 23.9684 17.1828C23.9764 17.1989 23.9817 17.2162 23.9839 17.2341C23.9869 17.2464 23.9925 17.258 24.0003 17.2679V21.5042C23.9916 21.5098 23.9859 21.519 23.9847 21.5293C23.9818 21.5497 23.9757 21.5694 23.9665 21.5878C23.9251 21.6793 23.8579 21.7566 23.773 21.8102C23.7517 21.8242 23.7293 21.8368 23.7073 21.8482L22.6625 22.4471L20.3337 23.7829C20.3139 23.7943 20.2957 23.8061 20.2736 23.8168C20.2313 23.8406 20.1857 23.8582 20.1383 23.8688C20.1208 23.8728 20.1035 23.8779 20.0866 23.884C20.0795 23.8866 20.0734 23.8916 20.0695 23.8981H19.9772Z" fill="white"/>
<path fill-rule="evenodd" clip-rule="evenodd" d="M57.25 20C58.0763 20 58.8475 19.7503 59.5 19.3184V20H62V11H59.5V11.6816C58.8475 11.2497 58.0763 11 57.25 11C54.9028 11 53 13.0147 53 15.5C53 17.9853 54.9028 20 57.25 20ZM57.5 17.75C58.6046 17.75 59.5 16.7426 59.5 15.5C59.5 14.2574 58.6046 13.25 57.5 13.25C56.3954 13.25 55.5 14.2574 55.5 15.5C55.5 16.7426 56.3954 17.75 57.5 17.75Z" fill="black"/>
<path d="M68 11H70.5L65.5 18V14.5L68 11Z" fill="black"/>
<path d="M68 20H70.5L67.5 15H65L68 20Z" fill="black"/>
<rect x="63" y="8" width="2.5" height="12" fill="black"/>
<path fill-rule="evenodd" clip-rule="evenodd" d="M42.5 11H40L42.5 20H45L46.25 15.5L47.5 20H50L52.5 11H50L48.75 15.5L47.5 11H45L43.75 15.5L42.5 11Z" fill="black"/>
<path d="M32 8H40V10.25H32V8Z" fill="black"/>
<path d="M34.75 8H37.25V20H34.75V8Z" fill="black"/>
<path fill-rule="evenodd" clip-rule="evenodd" d="M75.5 20C77.4593 20 79.1262 18.7478 79.7439 17H77.2324C76.8866 17.5978 76.2403 18 75.5 18C74.3954 18 73.5 17.1046 73.5 16H79.9725C79.9907 15.8358 80 15.669 80 15.5C80 13.0147 77.9853 11 75.5 11C73.0147 11 71 13.0147 71 15.5C71 17.9853 73.0147 20 75.5 20ZM77.437 14.5C77.215 13.6374 76.4319 13 75.5 13C74.5681 13 73.785 13.6374 73.563 14.5H77.437Z" fill="black"/>
<defs>
<linearGradient id="paint0_linear_1840_34400" x1="28" y1="18" x2="4" y2="18" gradientUnits="userSpaceOnUse">
<stop offset="0.12998" stop-color="#A033FF"/>
<stop offset="0.610381" stop-color="#0094FF"/>
<stop offset="1" stop-color="#4FB500"/>
</linearGradient>
<linearGradient id="paint1_linear_1840_34400" x1="15" y1="11.5" x2="7.5" y2="26.5" gradientUnits="userSpaceOnUse">
<stop stop-color="#FFD600" stop-opacity="0"/>
<stop offset="0.563347" stop-color="#FFC700"/>
</linearGradient>
<linearGradient id="paint2_linear_1840_34400" x1="17" y1="18" x2="25.5" y2="27" gradientUnits="userSpaceOnUse">
<stop offset="0.0297327" stop-color="#FF3B30" stop-opacity="0"/>
<stop offset="0.842824" stop-color="#E73B2D"/>
</linearGradient>
</defs>
</svg>
