<svg width="180" height="180" viewBox="0 0 180 180" fill="none" xmlns="http://www.w3.org/2000/svg">
<g clip-path="url(#clip0_39411_33797)">
<path d="M48.8366 167.858C47.889 164.899 49.3857 161.39 51.6237 159.41C52.1092 158.98 54.2386 157.842 54.2728 157.688C54.3115 157.507 53.474 154.7 53.3763 154.095C52.7885 150.447 52.8257 146.244 53.5903 142.622C53.792 141.664 54.6946 139.44 54.7148 138.782C54.7318 138.208 53.9967 136.457 53.8431 135.646C51.9308 125.523 54.5721 115.857 58.5968 106.635C44.1605 98.5781 34.7291 83.2919 30.9075 67.4504C30.5322 65.8963 30.3693 62.858 29.8932 61.6467C29.7195 61.2046 28.7641 60.5331 28.4089 60.0306C26.1352 56.8154 26.1523 54.1959 24.9379 50.793C23.9282 47.9625 21.8825 45.695 21.7134 42.3961C21.4948 38.1139 24.9611 35.4649 28.6912 38.1263C28.0181 31.1687 34.7027 28.7989 37.9877 35.1811C38.7647 30.5561 43.9449 28.7353 46.4404 33.3153C46.8809 34.1233 47.751 36.884 47.751 37.7386V42.1557C51.6532 39.0833 56.4751 40.5629 55.7679 46.0673C55.4546 48.5085 52.5853 52.8062 51.2236 55.0055C50.8948 55.5359 48.9095 58.1725 48.8801 58.3757C48.7979 58.9309 49.6462 61.3349 49.9177 61.9925C51.1166 59.7762 52.8691 57.9771 54.2619 55.874C56.4813 52.5239 58.1424 48.8032 60.551 45.5663C59.3956 34.114 62.7193 21.0735 68.7603 11.3226C81.5945 -9.39199 91.4539 15.4125 93.481 27.7178C103.381 27.8947 113.16 30.8539 121.147 36.7072C126.385 33.2083 131.905 29.7682 138.051 28.0932C152.034 24.2809 155.519 30.4506 153.685 43.5764C152.371 52.9768 148.14 62.6455 141.953 69.8156C141.24 70.6422 137.528 74.104 137.352 74.5119C136.999 75.3277 136.801 80.3202 136.838 81.4509C136.975 85.5082 138.315 88.2518 137.075 92.5263C136.447 94.6914 134.149 98.9798 131.734 96.0935C129.054 103.133 120.696 105.968 113.913 107.408L118.179 110.967C126.147 118.64 125.561 127.051 118.867 135.378C117.98 136.482 116.381 137.672 115.709 138.574C115.658 138.643 114.935 140.052 114.998 140.108C115.337 140.411 118.452 138.084 118.873 137.709C125.943 131.42 124.886 120.32 129.482 112.208C138.211 96.8038 156.861 100.751 158.069 118.801C159.645 142.357 135.824 165.423 112.364 154.681C113.226 158.316 115.306 161.39 115.461 165.22C116.598 172.995 108.394 174.222 103.817 174.535C99.0164 174.862 90.4582 174.598 90.0922 168.171C90.024 166.977 90.1046 165.09 90.9809 164.291C90.7979 164.055 90.846 163.701 91.1267 163.233C89.2562 160.413 87.8076 157.391 86.7778 154.165C83.6743 154.393 80.819 153.989 77.7776 153.417C77.3293 156.476 77.0827 159.573 77.0347 162.71C77.0347 162.71 76.8191 169.105 73.8847 170.682C68.4268 173.618 55.5492 174.37 50.5148 170.577C49.775 170.02 48.4194 168.77 48.8351 167.855L48.8366 167.858Z" fill="#2F0085"/>
<path d="M111.589 110.045C120.2 115.565 123.802 121.586 117.941 131.124L117.541 130.763C116.376 126.111 112.47 122.236 107.659 121.564L107.251 121.204C107.173 119.335 101.926 115.737 100.2 115.765C98.8227 115.787 98.7358 116.913 99.5036 117.794L99.9161 118.434L101.006 125.524C100.977 125.676 100.889 125.786 100.744 125.852C98.2535 127.332 96.7506 127.157 94.4676 129.725C91.9225 132.588 90.5995 138.237 93.6177 141.196L94.0287 141.804C95.1593 147.839 101.351 151.453 107.22 150.14L107.717 150.34C108.012 151.363 108.338 152.417 108.646 153.441C108.612 153.565 108.572 153.686 108.515 153.798C108.203 154.39 106.297 155.347 105.569 155.71C101.338 157.818 96.4652 158.472 91.8434 157.458L91.2928 157.007C90.7654 155.989 90.2878 154.951 89.8271 153.901C89.382 152.889 88.3211 148.986 87.4278 148.7C85.8473 148.194 86.6461 150.806 86.491 150.962C86.066 151.392 78.6199 150.333 77.4985 150.114C75.4993 149.725 72.0624 148.914 70.2214 148.172L69.7174 148.247C53.8743 140.407 55.9805 122.929 62.8528 109.223C63.3584 108.215 65.3126 104.372 66.0075 103.981C66.1129 103.922 66.2292 103.88 66.3471 103.844C66.693 103.844 67.0264 103.906 67.349 104.032C80.2546 111.852 96.0185 115.1 110.551 110.09L111.592 110.043L111.589 110.045Z" fill="#FE80DD"/>
<path d="M117.941 131.124C116.494 133.479 114.746 134.94 113.32 136.963C112.068 138.737 111.548 140.736 109.814 142.446C108.212 144.026 103.621 146.489 104.192 142.245C104.298 141.464 106.008 138.781 105.284 138.557C103.566 138.028 102.23 141.295 102.022 142.556C101.962 142.922 102.033 144.229 101.981 144.297C101.866 144.443 99.623 143.251 99.3423 142.985C97.8394 141.563 98.0535 139.083 98.8057 137.323C99.074 136.695 101.124 134.294 99.1205 134.365C97.4874 134.424 96.3024 137.445 95.7875 138.646C95.4618 139.406 94.7608 137.154 94.7143 136.766C94.3327 133.573 97.1493 130.165 100.122 129.34C100.831 129.143 101.658 129.202 102.267 129.006C103.79 128.519 105.686 123.297 107.128 122.088C107.275 121.807 107.262 121.506 107.249 121.204C112.524 121.703 116.865 126.013 117.94 131.124H117.941Z" fill="#9E23FE"/>
<path d="M153.114 125.39C153.412 125.475 153.415 125.615 153.114 125.7C153.16 125.834 153.199 125.967 153.218 126.103C153.348 127.087 151.751 130.578 151.222 131.704C150.693 132.83 149.03 136.304 148.218 136.831C148.103 136.906 147.976 136.963 147.845 137.014L147.351 136.633C144.182 129.444 137.502 123.146 129.345 122.764L128.787 122.445C129.805 118.805 130.485 116.531 132.506 113.3C132.602 113.215 132.702 113.134 132.812 113.072C133.587 112.635 136.742 113.119 137.775 113.331C144.225 114.663 149.553 119.282 153.053 124.709L153.115 125.39H153.114Z" fill="#FE80DD"/>
<path d="M147.846 137.014C147.849 137.151 147.846 137.285 147.819 137.416C147.635 138.394 144.685 141.526 143.79 142.435C142.895 143.344 140.078 146.107 139.106 146.289C138.976 146.314 138.841 146.317 138.704 146.314C138.636 146.379 138.585 146.328 138.549 146.159C138.411 146.152 138.267 146.104 138.23 145.979C136.4 139.948 133.468 134.086 126.484 132.757L125.999 132.364C127.306 129.092 127.851 125.796 128.787 122.444C137.355 122.433 144.782 129.445 147.846 137.014Z" fill="#9E23FE"/>
<path d="M70.3735 155.769L70.7814 155.904C71.7089 157.52 72.658 159.077 73.6274 160.574C73.2924 165.019 74.4354 167.371 69.2909 169.022C67.7632 169.512 61.1406 170.515 59.9464 169.842C58.8964 169.251 61.0848 165.319 60.7436 164.781C60.4939 164.386 59.6424 164.694 59.295 164.913C57.6168 165.971 57.547 169.389 57.3532 169.558C57.1795 169.71 55.188 169.191 54.8778 169.02C53.5145 168.274 54.1303 166.666 54.6979 165.583C55.0608 164.891 56.86 162.948 54.4389 163.621C53.5394 163.871 52.7313 165.045 52.3156 165.836C52.007 166.424 52.0024 167.559 51.5929 166.726C50.4716 164.44 53.1702 161.537 55.0841 160.546C55.917 160.114 57.3501 160.094 57.6835 159.103C57.896 158.47 56.4598 154.399 56.2721 153.287L57.1469 153.317C61.0755 154.888 65.3065 155.621 69.536 155.494L70.3719 155.767L70.3735 155.769Z" fill="#9E23FE"/>
<path d="M108.645 153.443C109.089 154.908 109.559 156.407 110.038 157.864C111.015 160.838 114.514 166.786 111.114 169.321C110.439 169.823 106.078 171.255 105.566 170.938C105.191 170.706 105.203 168.616 105.276 168.131C105.394 167.356 106.629 165.732 105.303 165.53C103.798 165.301 103.133 168.441 103.069 169.49C103.045 169.898 103.288 171.208 103.221 171.267C103.031 171.441 99.3284 171.549 98.9608 171.112C98.6553 170.749 98.6894 168.815 98.7685 168.286C98.9081 167.359 100.775 165.206 99.2726 165.13C97.9729 165.065 96.6515 168.139 96.4452 169.217C96.2017 170.493 97.0113 171.165 95.3254 170.564C93.1261 169.781 92.8857 167.777 93.4534 165.758C93.7434 164.727 94.8586 163.47 94.6942 162.521C94.6383 162.202 91.7752 157.941 91.2898 157.008C97.2393 158.545 103.775 157.13 108.643 153.442L108.645 153.443Z" fill="#9E23FE"/>
<path d="M111.589 110.045C100.673 114.131 88.4343 113.441 77.6179 109.386C73.6552 107.9 70.0539 105.835 66.344 103.845C66.7147 102.375 68.0842 100.643 69.4428 99.9712C78.7904 105.434 91.0555 108.86 101.911 108.812C103.666 108.804 107.448 108.128 108.867 108.348C109.639 108.469 110.911 109.612 111.589 110.046V110.045Z" fill="#EC45CE"/>
<path d="M153.889 113.766C154.401 115.571 154.637 117.337 154.539 119.206C154.482 120.314 153.942 124.494 153.392 125.137C153.311 125.232 153.215 125.313 153.114 125.39C148.733 118.257 141.268 112.618 132.506 113.3C138.234 104.136 149.905 102.208 153.889 113.766Z" fill="#9E23FE"/>
<path d="M138.549 146.159C138.664 146.337 138.706 146.748 138.605 146.92C138.22 147.579 130.604 150.902 130.143 150.998C129.845 151.06 129.546 151.035 129.253 150.962L128.932 150.492C128.665 145.721 126.563 141.206 122.711 138.376L122.745 137.942C124.198 136.25 125.175 134.424 125.999 132.361C131.284 133.098 134.842 136.8 136.978 141.45C137.426 142.424 138.563 145.196 138.549 146.156V146.159Z" fill="#FE80DD"/>
<path d="M68.6688 150.033L69.0937 150.55C69.4241 152.097 69.8196 153.636 70.4214 155.103L70.3733 155.769C65.5576 156.046 60.6782 155.198 56.2735 153.289C55.3321 147.682 56.1634 144.783 57.8229 139.649L58.3627 140.008C60.6643 144.059 64.3028 147.203 68.3167 149.49L68.6688 150.035V150.033Z" fill="#FE80DD"/>
<path d="M122.745 137.944C123.397 138.761 124.32 139.246 125.063 140.04C127.636 142.793 129.224 147.211 129.252 150.962L129.114 151.325C127.625 151.753 119.559 153.645 118.667 152.993C118.504 152.873 118.399 152.754 118.388 152.544C118.963 149.276 117.989 146.235 115.787 143.694L115.773 143.211C118.301 142.119 120.956 140.025 122.746 137.94L122.745 137.944Z" fill="#9E23FE"/>
<path d="M66.3455 103.845C60.151 113.058 54.6776 128.481 60.2766 138.978C62.2029 142.588 66.3967 146.635 70.2183 148.173C68.5293 148.852 69.0023 149.771 70.2183 150.653C69.7964 151.052 68.8596 150.562 68.6689 150.033C64.4006 147.761 60.0223 143.982 57.823 139.648C58.1363 138.678 57.0971 136.687 56.8149 135.463C53.8836 122.764 59.4763 113.447 63.8655 102.448C64.6782 102.924 65.5158 103.397 66.344 103.842L66.3455 103.845Z" fill="#9900FE"/>
<path d="M115.773 143.213C117.367 144.961 118.732 147.553 118.878 149.951C118.911 150.486 118.621 152.572 118.717 152.668C119.407 153.35 127.891 151.388 129.254 150.964C129.767 151.618 129.552 153.2 128.944 153.754C125.892 154.275 123.306 154.332 120.235 153.862C118.433 153.588 112.367 152.037 111.271 150.74C110.988 150.405 109.799 146.398 109.903 146.183C109.969 146.047 112.077 144.29 112.215 144.228C113.065 143.846 114.529 143.752 115.773 143.215V143.213Z" fill="#7410F5"/>
<path d="M93.6145 141.199C94.0751 141.65 95.3779 142.132 95.7021 142.444C97.0065 143.704 96.6606 145.203 99.3174 146.422C100.567 146.996 104.001 147.449 105.465 147.561C105.822 147.589 107.026 147.351 107.089 147.403C107.207 147.496 107.6 149.946 107.714 150.343C101.244 152.01 94.483 147.958 93.6145 141.199Z" fill="#EC45CE"/>
<path d="M148.931 140.115C146.267 144.052 143.2 147.182 139.169 149.724C138.481 148.971 138.399 147.263 138.704 146.314C142.205 143.955 145.466 140.507 147.846 137.014C148.649 137.721 149.094 139.058 148.93 140.115H148.931Z" fill="#7410F5"/>
<path d="M138.704 146.314C138.904 147.436 138.934 148.607 139.169 149.725C135.906 151.783 132.786 153.098 128.942 153.754C129.099 152.842 129.259 151.893 129.253 150.964C131.241 150.344 133.142 149.529 134.988 148.565C135.447 148.324 138.405 146.758 138.521 146.592C138.599 146.48 138.547 146.296 138.549 146.159C138.585 146.213 138.698 146.276 138.704 146.314Z" fill="#EC45CE"/>
<path d="M154.353 127.56C153.415 132.132 151.538 136.261 148.93 140.115C148.588 139.069 148.258 138.036 147.845 137.014C150.124 133.672 152.069 129.615 153.114 125.7C153.775 125.616 154.333 126.916 154.353 127.56Z" fill="#EC45CE"/>
<path d="M70.2184 150.654C71.5801 151.302 72.9077 151.997 74.3827 152.378C74.3408 153.306 74.1795 154.224 74.0927 155.148C73.3575 155.932 71.3335 156.24 70.3734 155.769C69.5452 153.966 69.0691 151.97 68.6689 150.033C69.1715 150.302 69.7949 150.452 70.2184 150.654Z" fill="#DF42E0"/>
<path d="M100.743 125.855L99.5034 117.795C99.5034 117.795 103.699 120.59 103.817 121.305C103.857 121.548 101.5 125.3 101.278 125.542C101.02 125.824 100.93 125.744 100.741 125.855H100.743Z" fill="#DF43DF"/>
<path d="M154.353 127.559L153.114 125.7C153.137 125.611 153.091 125.48 153.114 125.39C154.127 121.444 154.724 117.835 153.89 113.765C155.52 118.496 155.348 122.719 154.355 127.559H154.353Z" fill="#7410F5"/>
<path d="M73.6274 160.574C73.2799 160.589 73.2257 160.344 73.0659 160.129C72.1896 158.945 70.9814 157.09 70.375 155.769C71.5832 155.699 72.9356 155.511 74.0942 155.148C73.9236 156.954 73.7654 158.764 73.6289 160.574H73.6274Z" fill="#6D00E4"/>
<path d="M48.2164 70.5216L48.3668 70.8194C44.4506 81.7878 53.4167 93.1672 61.7842 99.6812L62.3162 100.437C61.826 100.815 60.3123 103.746 60.1308 103.836C59.5539 104.125 53.3407 99.3121 52.4815 98.5723C44.0365 91.3014 38.1739 81.0573 34.8486 70.4859C34.6625 69.895 32.1856 61.7013 32.6416 61.6889C32.7502 61.6858 33.6963 62.4597 34.0437 61.5276C34.3105 60.8141 32.0895 59.7734 31.4768 59.1344C28.803 56.3443 28.9565 52.7817 27.7297 49.5542C27.038 47.7349 23.1621 42.1607 25.2017 40.4516C27.2412 38.7424 30.5602 44.3879 30.7991 45.8799C30.8658 46.3002 28.7766 48.7461 30.6548 48.7818C30.9805 48.788 34.5974 46.2211 35.514 45.8086C36.3453 45.4348 37.3798 45.044 38.267 44.8423C39.2379 44.6206 42.9431 44.6981 42.0885 43.2588C41.4867 42.2445 40.0847 42.3996 40.0025 42.3143C39.8815 42.1886 39.9699 39.2465 40.0056 38.8324C40.1173 37.5172 40.9641 32.3912 43.1819 33.9437C45.0416 35.2465 44.6073 40.8191 44.6445 42.8633C44.6585 43.6 45.0322 45.1867 44.9594 45.7993C44.8927 46.3545 42.4794 48.0668 43.4751 49.3029C44.156 50.1482 45.0447 48.7058 45.6216 48.3227C47.9465 46.781 47.2067 47.1393 48.8383 45.1867C50.1938 43.5628 53.1794 42.3903 52.7948 45.5759C52.542 47.6682 47.9791 54.8042 46.5041 56.6467C45.9085 57.3896 43.4177 58.9949 45.0291 59.8386C45.513 60.0914 46.0698 59.806 46.2156 60.3566C46.166 61.9076 47.6627 64.5473 47.7418 65.816C47.8255 67.1483 46.3257 69.6344 48.2133 70.5247L48.2164 70.5216Z" fill="#9E23FE"/>
<path d="M137.311 70.2115C137.631 68.8203 136.523 65.2329 136.786 64.1581C136.899 63.6913 140.615 58.4134 141.265 57.1943C143.517 52.9726 145.984 46.5687 146.139 41.7669C146.316 36.3308 143.425 36.5215 139.137 37.7065C135.169 38.803 131.354 41.0023 127.934 43.2326C127.708 42.3997 123.833 39.1256 123.833 38.8247C123.833 38.2571 131.931 33.9376 133.023 33.4506C138.527 31.0032 149.955 26.5845 150.786 36.0376C151.817 47.749 145.586 62.0783 137.311 70.21V70.2115Z" fill="#9E23FE"/>
<path d="M84.94 28.8285C84.1102 24.9356 82.9439 20.4393 80.8796 17.0008C77.9188 12.0688 76.4267 13.384 73.5016 17.3095C69.5715 22.5827 67.2916 29.027 66.6572 35.572C66.5781 36.3956 66.8232 37.7915 66.6216 38.4816C66.482 38.9578 63.8205 41.3106 63.4033 42.0023C63.0931 34.0692 65.1357 25.8847 68.3819 18.6976C69.8941 15.3475 74.381 6.51324 78.6415 6.67454C83.6372 6.86376 87.6945 18.5006 88.853 22.5098C89.0516 23.1969 90.2489 27.5303 90.1683 27.8281C90.0985 28.0871 85.596 28.5524 84.9384 28.83L84.94 28.8285Z" fill="#9E23FE"/>
<path d="M48.2164 70.5215C49.786 69.563 48.7468 71.815 48.6848 72.6168C47.931 82.4018 61.6276 95.402 69.4444 99.9696C68.3029 101.154 67.2622 102.481 66.3456 103.844C65.3607 103.841 64.3821 103.287 63.8672 102.45C64.5946 100.626 64.5759 98.6373 62.3177 100.435C58.3581 97.7129 54.9398 94.1162 52.2117 90.1613C48.9686 85.4603 46.6251 80.5252 47.154 74.6486C47.2098 74.022 47.8271 70.7588 48.218 70.5199L48.2164 70.5215Z" fill="#8500F6"/>
<path d="M132.041 49.2871L132.044 48.8311C134.706 46.3512 138.695 43.7006 142.451 44.7676C142.746 44.4931 142.927 44.5551 142.887 44.9475C141.815 50.621 139.312 55.401 136.376 60.2912C135.954 60.3579 136.14 60.2369 136.066 60.0648C135.456 58.6503 135.08 56.4448 134.481 54.8303C133.792 52.9753 132.961 51.0351 132.041 49.2887V49.2871Z" fill="#FE80DD"/>
<path d="M79.051 30.6864C75.4962 32.1133 72.3927 33.8643 69.2908 36.1117C69.677 30.7205 71.4404 25.638 74.2476 21.0767L74.7672 21.0844C77.1216 23.5582 78.6136 26.6043 79.2417 30.2227L79.051 30.6864Z" fill="#FE80DD"/>
<path d="M132.041 49.2872C131.745 48.7243 129.442 45.4641 129.563 45.261C129.664 45.0934 132.527 43.5549 132.967 43.3176C134.304 42.5949 135.743 41.8706 137.156 41.3091C138.009 40.9694 142.814 39.2711 143.352 39.8326C143.785 40.2839 142.881 45.2129 142.834 45.2129C142.029 45.2129 141.486 44.7414 140.488 44.7972C137.635 44.957 133.929 47.2183 132.04 49.2872H132.041Z" fill="#EC45CE"/>
<path d="M74.2478 21.0769C74.6588 20.4084 76.886 16.8582 77.4257 16.7373C77.6196 16.6938 79.2621 19.7539 79.4435 20.1432C79.9476 21.2289 82.6509 29.1791 82.3066 29.6009C82.198 29.7343 79.6203 30.4586 79.0511 30.6866C78.1019 27.3629 77.1931 23.197 74.2478 21.0769Z" fill="#EC45CE"/>
<path d="M37.2156 42.6177C37.1009 42.793 33.7772 43.6289 33.3444 44.1718C32.4775 42.1106 30.4457 36.89 32.1921 35.0397C34.41 32.6916 36.2168 38.8799 36.5968 40.2168C36.6883 40.5348 37.2823 42.5138 37.2141 42.6177H37.2156Z" fill="#9E23FE"/>
<path d="M132.816 60.7562L132.654 60.8446C122.729 32.4093 83.1267 21.6581 63.8948 47.6894C61.1992 51.3372 59.4637 55.5357 56.6611 59.0533L55.0342 59.9823C58.1718 55.6319 60.3865 50.9433 63.4962 46.6704C82.8243 20.1087 125.221 29.0577 132.816 60.7578V60.7562Z" fill="#FEA2E5"/>
<path d="M115.618 101.21C115.694 101.323 115.748 101.474 115.669 101.573C114.371 103.202 112.711 104.187 110.661 104.776C91.2181 108.034 68.3088 100.491 56.7402 84.1621C69.5589 99.6004 96.5162 107.045 115.619 101.212L115.618 101.21Z" fill="#C8A2FD"/>
<path d="M110.66 104.775C111.837 104.057 113.101 103.509 114.21 102.669C114.712 102.287 115.226 101.493 115.618 101.209C115.751 101.113 115.944 100.958 116.083 100.899C122.659 98.1166 126.728 97.8111 129.564 90.2036C129.408 91.2303 129.543 92.5456 129.392 93.518C128.274 100.733 116.679 103.765 110.661 104.773L110.66 104.775Z" fill="#EC45CE"/>
<path d="M133.739 82.2299C133.392 74.2378 134.819 69.1197 132.815 60.7569C124.218 34.6511 88.7274 22.5645 68.0066 42.5269C64.078 46.3112 61.3995 50.6912 58.7846 55.4107C57.7532 57.244 56.5977 58.7717 55.0328 59.9814C54.0867 61.292 51.0003 64.6793 51.0081 66.2659C51.0096 66.6056 50.9879 66.4365 51.2314 66.4908C52.0208 66.6676 54.7009 65.7773 54.887 66.8847C54.9785 67.426 53.7378 68.8126 53.4028 69.433C51.7773 72.4341 51.4889 73.3786 52.5528 76.7209L52.9251 76.3673C54.521 69.1631 62.0121 67.2027 68.095 70.2053C70.8867 71.1918 73.3838 70.7761 75.8188 69.0949C76.2701 68.7831 77.8257 67.7874 78.0041 67.2197L78.1483 67.2058C85.2517 61.9418 95.2104 63.2245 99.6012 71.139L101.129 74.6008C101.983 79.6693 104.988 83.4133 108.563 83.4133C109.318 83.4133 110.045 83.2443 110.736 82.9325C111.202 83.0985 111.672 83.2582 112.15 83.404C119.52 86.2826 121.456 94.3616 116.209 100.275L116.079 100.899L116.646 100.997C122.146 99.1183 128.46 96.674 129.558 90.2034C130.583 87.452 133.012 92.778 133.822 92.9921C134.107 93.0665 134.233 92.2817 134.288 92.0661C135.117 88.8339 133.877 85.4528 133.736 82.2268L133.739 82.2299ZM77.6846 66.7033C75.4791 68.0386 72.0763 69.7711 69.8042 68.0154C64.4254 63.8604 71.1147 50.7625 77.9188 52.9028C83.8667 54.7748 81.1572 63.516 77.6846 66.7017V66.7033Z" fill="#FE80DD"/>
<path d="M80.256 40.3409C82.5297 40.1626 84.9291 41.1226 85.2191 42.8954C85.6208 45.3521 81.4441 43.8151 80.0621 43.8647C79.085 43.9004 75.9754 45.1644 75.476 44.4153C74.2802 42.6209 77.5961 40.5488 80.256 40.3409Z" fill="#2F0085"/>
<path d="M77.3079 56.4494C79.6809 56.0771 79.7026 59.8072 77.7189 60.5858C75.1164 61.6063 75.0094 56.8107 77.3079 56.4494Z" fill="#FDFDFE"/>
<path d="M102.292 76.4104L102.503 77.0122C103.086 78.2127 103.713 78.923 104.802 79.7047L105.236 79.9746C107.669 81.8016 109.836 82.0358 112.467 83.2037C120.307 86.684 121.751 94.5582 116.082 100.9C115.385 101.493 114.85 101.7 114.85 101.7C103.257 104.965 90.3529 103.569 79.1069 99.4577C70.5844 96.3418 62.2635 91.4796 56.7374 84.1621C55.067 82.1521 53.3439 79.2037 52.5544 76.7222C53.1965 72.2384 56.9933 68.8867 61.4678 68.5114C66.7333 68.0694 70.6883 72.6757 74.8697 69.3629C82.6136 63.2257 89.959 62.0284 96.2373 66.7387C100.194 69.7056 100.276 72.502 102.294 76.4136L102.292 76.4104Z" fill="#FEFEFE"/>
<path d="M84.5988 67.7784C87.451 67.6202 94.7328 69.196 95.4059 72.5274C95.9736 75.3347 94.0256 77.0625 91.5673 77.8503C90.9267 78.0551 88.0606 78.4242 87.9504 78.5715C87.8109 78.7592 87.8574 80.1628 87.9194 80.4823C88.4312 83.1422 92.5909 83.761 94.6971 82.8413C96.0247 82.2613 96.566 80.3769 98.103 81.2997C100.254 82.5916 96.8731 84.839 96.276 85.661C95.6324 86.5466 95.1671 88.1704 94.5715 89.2251C88.8609 99.3389 78.7067 98.8504 77.3496 86.2503C77.2349 85.1864 77.4691 82.8475 77.1651 81.9402C77.1185 81.7991 75.5753 80.3412 75.2078 79.713C74.3997 78.3296 73.4241 75.3176 75.1922 74.3328C77.2504 73.1851 76.7525 76.8903 77.4722 78.2226C79.4171 81.8224 85.0533 80.062 84.4375 77.4595C84.3243 76.9803 82.001 74.4413 81.5015 73.4161C80.0126 70.3639 81.1014 67.9723 84.5988 67.7784Z" fill="#2F0085"/>
<path d="M84.7524 87.4625C85.7373 87.3881 91.2075 88.1465 91.2726 89.3516C91.282 89.5346 89.2766 91.5943 88.9679 91.8347C87.1812 93.2244 84.6547 93.93 82.6245 92.5978C81.8707 92.103 80.5493 90.1302 80.7789 89.2337C81.0084 88.3373 83.9025 87.5277 84.7524 87.4641V87.4625Z" fill="#EC45CE"/>
<path d="M86.6974 72.2074C86.8758 72.2803 87.0557 72.3439 87.2372 72.3981C87.3938 72.4447 87.5644 72.485 87.7443 72.5191C87.8172 72.5331 87.8901 72.5455 87.9646 72.5579C88.115 72.5811 88.2686 72.6013 88.4268 72.6184C88.5446 72.6308 88.6641 72.6401 88.7835 72.6478C88.8238 72.6509 88.8626 72.6525 88.9029 72.654C88.982 72.6587 89.0627 72.6602 89.1418 72.6618C89.2209 72.6633 89.3 72.6649 89.3775 72.6633C89.4551 72.6618 89.5326 72.6618 89.6102 72.6587C89.7249 72.6556 89.8366 72.6478 89.9452 72.6401C89.9932 72.6354 90.0398 72.6323 90.0863 72.6261C90.2057 72.6137 90.3205 72.5982 90.4275 72.578C90.4833 72.5687 90.5361 72.5579 90.5873 72.5455C90.6183 72.5377 90.6493 72.5315 90.6788 72.5238C90.7377 72.5083 90.7935 72.4927 90.8463 72.4741C90.8664 72.4679 90.885 72.4602 90.9037 72.454C90.9626 72.4323 91.0169 72.4074 91.065 72.3826C91.0898 72.3702 91.1115 72.3563 91.1332 72.3438C91.1859 72.3097 91.2309 72.2725 91.2666 72.2337C91.3488 72.1407 91.3783 72.0337 91.3426 71.908C91.3317 71.8724 91.3162 71.8351 91.2945 71.7964C91.2092 71.6428 91.0308 71.4676 90.7424 71.269C90.5981 71.1698 90.4244 71.0643 90.2212 70.9542C90.1189 70.8984 90.0103 70.841 89.8924 70.7836C89.1774 70.4269 88.3368 70.126 87.5148 69.9461C87.2418 69.8856 86.9704 69.839 86.7068 69.8096C86.4679 69.7817 86.2492 69.7631 86.0523 69.7553C85.9204 69.7491 85.7994 69.7475 85.6847 69.7491C85.5715 69.7491 85.4675 69.7553 85.3714 69.7646C85.3233 69.7693 85.2768 69.7739 85.2333 69.7801C85.1977 69.7848 85.1651 69.7894 85.1325 69.7956C85.0022 69.8189 84.8937 69.8499 84.8022 69.8887C84.644 69.9554 84.5447 70.0438 84.4951 70.1477C84.4811 70.1772 84.4718 70.2082 84.4656 70.2407C84.4501 70.3214 84.4594 70.4083 84.4904 70.4998C84.4966 70.5184 84.5028 70.537 84.5121 70.5556C84.5277 70.5928 84.5463 70.6316 84.5695 70.6704C84.6021 70.7293 84.6424 70.7882 84.689 70.8487C84.72 70.8891 84.7541 70.9294 84.7898 70.9697C84.827 71.01 84.8658 71.0519 84.9076 71.0922C85.0953 71.2768 85.3311 71.4629 85.6009 71.6397C85.6599 71.6785 85.7219 71.7173 85.7839 71.7545C86.0026 71.8863 86.2399 72.0104 86.4834 72.1205C86.5532 72.1515 86.6246 72.1826 86.6959 72.2105L86.6974 72.2074Z" fill="#9E23FE"/>
<path d="M101.632 70.2128C101.295 69.5878 104.185 66.9341 104.796 66.5324C109.061 63.7267 115.227 65.4994 116.989 70.3415C117.237 71.0224 117.926 74.0669 116.505 73.7319C116.325 73.6901 114.37 71.6443 113.759 71.2411C111.231 69.5707 108.737 69.0341 105.746 69.4017C105.124 69.4777 101.777 70.4858 101.632 70.2144V70.2128Z" fill="#2F0085"/>
<path d="M119.405 60.6997C117.333 58.5888 115.069 56.8192 112.099 56.1585C111.34 55.9894 107.102 55.8204 106.895 55.4466C106.719 55.1255 107.865 53.953 108.136 53.7219C112.591 49.919 120.559 55.0976 119.405 60.6997Z" fill="#2F0085"/>
</g>
<defs>
<clipPath id="clip0_39411_33797">
<rect width="136.44" height="173.455" fill="white" transform="translate(21.7043 3.35693)"/>
</clipPath>
</defs>
</svg>
