<svg width="172" height="52" viewBox="0 0 172 52" fill="none" xmlns="http://www.w3.org/2000/svg">
<g clip-path="url(#clip0_25143_3535)">
<path d="M165.027 0.900208H6.3472C2.84174 0.900208 0 3.74195 0 7.24741V45.3306C0 48.8361 2.84174 51.6778 6.3472 51.6778H165.027C168.533 51.6778 171.374 48.8361 171.374 45.3306V7.24741C171.374 3.74195 168.533 0.900208 165.027 0.900208Z" fill="white"/>
<path d="M165.027 1.91576C166.441 1.91576 167.797 2.47749 168.797 3.47736C169.797 4.47724 170.359 5.83337 170.359 7.24741V45.3306C170.359 46.7447 169.797 48.1008 168.797 49.1007C167.797 50.1006 166.441 50.6623 165.027 50.6623H6.3472C4.93316 50.6623 3.57704 50.1006 2.57716 49.1007C1.57728 48.1008 1.01555 46.7447 1.01555 45.3306V7.24741C1.01555 5.83337 1.57728 4.47724 2.57716 3.47736C3.57704 2.47749 4.93316 1.91576 6.3472 1.91576H165.027ZM165.027 0.900208H6.3472C4.66382 0.900208 3.04938 1.56893 1.85905 2.75926C0.668721 3.94959 0 5.56403 0 7.24741V45.3306C0 47.014 0.668721 48.6285 1.85905 49.8188C3.04938 51.0091 4.66382 51.6778 6.3472 51.6778H165.027C166.711 51.6778 168.325 51.0091 169.515 49.8188C170.706 48.6285 171.374 47.014 171.374 45.3306V7.24741C171.374 5.56403 170.706 3.94959 169.515 2.75926C168.325 1.56893 166.711 0.900208 165.027 0.900208Z" fill="#B8C1CC"/>
<path opacity="0.12" d="M13.253 41.9285C12.8452 41.425 12.6454 40.7847 12.6944 40.1386V40.329C12.6512 40.9769 12.8656 41.6157 13.291 42.1063L13.3799 42.0174L13.253 41.9285Z" fill="black"/>
<path d="M41.677 25.4877C41.6912 24.3859 41.9847 23.3056 42.5302 22.3473C43.0756 21.3889 43.8553 20.5838 44.7966 20.0067C44.1986 19.155 43.4097 18.4541 42.4925 17.9597C41.5754 17.4652 40.5552 17.1909 39.5131 17.1583C37.2902 16.9257 35.1351 18.4848 34.0023 18.4848C32.8476 18.4848 31.1035 17.1815 29.2254 17.22C28.0106 17.2591 26.8266 17.6114 25.789 18.2425C24.7513 18.8735 23.8952 19.7619 23.3042 20.821C20.744 25.2412 22.6537 31.7374 25.1061 35.3104C26.3331 37.06 27.7672 39.0143 29.6436 38.945C31.4798 38.8691 32.1655 37.7774 34.382 37.7774C36.5778 37.7774 37.2212 38.945 39.1357 38.9009C41.106 38.8691 42.3474 37.1436 43.5314 35.3774C44.413 34.1308 45.0914 32.753 45.5415 31.2951C44.3968 30.8123 43.4199 30.0041 42.7327 28.9714C42.0455 27.9387 41.6783 26.7271 41.677 25.4877Z" fill="black"/>
<path d="M38.0609 14.8085C39.1352 13.5225 39.6645 11.8695 39.5363 10.2006C37.895 10.3725 36.379 11.1547 35.2901 12.3914C34.7578 12.9956 34.3501 13.6985 34.0903 14.4598C33.8305 15.2212 33.7237 16.0262 33.7761 16.8288C34.597 16.8372 35.4092 16.6598 36.1514 16.3098C36.8936 15.9599 37.5465 15.4466 38.0609 14.8085Z" fill="black"/>
<path d="M63.7064 34.6916H57.6808L56.2337 38.9524H53.6815L59.3889 23.1885H62.0406L67.748 38.9524H65.1522L63.7064 34.6916ZM58.3049 32.7254H63.0812L60.7266 25.8104H60.6607L58.3049 32.7254Z" fill="black"/>
<path d="M80.074 33.2064C80.074 36.778 78.157 39.0726 75.2642 39.0726C74.5313 39.1108 73.8025 38.9425 73.1612 38.5869C72.5199 38.2313 71.9919 37.7027 71.6378 37.0618H71.5831V42.7545H69.2173V27.4592H71.5073V29.3708H71.5508C71.9212 28.733 72.458 28.2072 73.1042 27.8494C73.7505 27.4916 74.4818 27.3152 75.2206 27.339C78.1458 27.339 80.074 29.6448 80.074 33.2064ZM77.6423 33.2064C77.6423 30.8795 76.4364 29.3497 74.5966 29.3497C72.789 29.3497 71.5732 30.9117 71.5732 33.2064C71.5732 35.5222 72.789 37.073 74.5966 37.073C76.4365 37.073 77.6423 35.5544 77.6423 33.2064H77.6423Z" fill="black"/>
<path d="M92.7599 33.2064C92.7599 36.778 90.8423 39.0726 87.9495 39.0726C87.2166 39.1108 86.4879 38.9425 85.8465 38.5869C85.2052 38.2313 84.6772 37.7027 84.3231 37.0618H84.2684V42.7545H81.9026V27.4592H84.1926V29.3708H84.2361C84.6065 28.733 85.1433 28.2072 85.7895 27.8494C86.4358 27.4916 87.1672 27.3152 87.9059 27.339C90.8311 27.339 92.7599 29.6448 92.7599 33.2064ZM90.3276 33.2064C90.3276 30.8795 89.1218 29.3497 87.2819 29.3497C85.4743 29.3497 84.2585 30.9117 84.2585 33.2064C84.2585 35.5222 85.4743 37.073 87.2819 37.073C89.1218 37.073 90.3276 35.5544 90.3276 33.2064Z" fill="black"/>
<path d="M101.143 34.5602C101.318 36.1234 102.841 37.1498 104.922 37.1498C106.916 37.1498 108.35 36.1234 108.35 34.7138C108.35 33.4902 107.485 32.7576 105.437 32.2555L103.388 31.7634C100.485 31.0642 99.1374 29.7104 99.1374 27.5137C99.1374 24.7938 101.514 22.9256 104.888 22.9256C108.23 22.9256 110.52 24.7938 110.597 27.5137H108.209C108.066 25.9405 106.762 24.9909 104.856 24.9909C102.95 24.9909 101.646 25.9517 101.646 27.3501C101.646 28.4646 102.479 29.1203 104.517 29.6224L106.258 30.0488C109.502 30.8137 110.848 32.1129 110.848 34.4187C110.848 37.3679 108.493 39.2151 104.746 39.2151C101.241 39.2151 98.8738 37.4113 98.7209 34.56L101.143 34.5602Z" fill="black"/>
<path d="M115.956 24.7393V27.4592H118.148V29.3274H115.956V35.6635C115.956 36.6478 116.395 37.1065 117.358 37.1065C117.619 37.1019 117.878 37.0837 118.137 37.0519V38.9089C117.704 38.9896 117.263 39.0262 116.823 39.018C114.489 39.018 113.579 38.144 113.579 35.9151V29.3274H111.903V27.4592H113.579V24.7393H115.956Z" fill="black"/>
<path d="M119.416 33.2064C119.416 29.5903 121.552 27.3179 124.882 27.3179C128.224 27.3179 130.35 29.5902 130.35 33.2064C130.35 36.8325 128.235 39.0949 124.882 39.0949C121.531 39.0949 119.416 36.8325 119.416 33.2064ZM127.939 33.2064C127.939 30.7258 126.799 29.2617 124.882 29.2617C122.965 29.2617 121.825 30.737 121.825 33.2064C121.825 35.6969 122.965 37.1499 124.882 37.1499C126.799 37.1499 127.939 35.6969 127.939 33.2064H127.939Z" fill="black"/>
<path d="M132.3 27.4592H134.556V29.4154H134.611C134.764 28.8045 135.123 28.2645 135.628 27.8864C136.133 27.5082 136.753 27.3149 137.383 27.339C137.656 27.338 137.928 27.3675 138.194 27.427V29.6336C137.85 29.5287 137.491 29.4806 137.131 29.4911C136.787 29.4772 136.445 29.5376 136.127 29.6682C135.809 29.7988 135.523 29.9965 135.289 30.2477C135.054 30.4989 134.877 30.7977 134.77 31.1235C134.662 31.4494 134.627 31.7945 134.666 32.1353V38.9524H132.3L132.3 27.4592Z" fill="black"/>
<path d="M149.102 35.5767C148.783 37.6631 146.746 39.0949 144.139 39.0949C140.786 39.0949 138.705 36.8548 138.705 33.261C138.705 29.6559 140.797 27.3179 144.039 27.3179C147.228 27.3179 149.233 29.5022 149.233 32.987V33.7953H141.093V33.9378C141.055 34.3608 141.109 34.7869 141.249 35.1878C141.389 35.5888 141.613 35.9554 141.907 36.2633C142.2 36.5712 142.555 36.8133 142.95 36.9737C143.344 37.134 143.768 37.2089 144.194 37.1932C144.753 37.2455 145.314 37.1164 145.793 36.8251C146.273 36.5338 146.645 36.096 146.855 35.5767L149.102 35.5767ZM141.104 32.1465H146.866C146.888 31.7662 146.83 31.3856 146.696 31.0286C146.563 30.6716 146.357 30.3459 146.092 30.072C145.827 29.7981 145.507 29.5819 145.154 29.4369C144.801 29.2919 144.421 29.2213 144.039 29.2295C143.654 29.2272 143.272 29.301 142.916 29.4467C142.559 29.5923 142.235 29.8069 141.962 30.0781C141.689 30.3493 141.473 30.6717 141.326 31.0267C141.179 31.3817 141.103 31.7623 141.104 32.1465V32.1465Z" fill="black"/>
<path d="M58.009 11.3229C58.5049 11.2874 59.0026 11.3621 59.4662 11.5416C59.9297 11.7212 60.3475 12.0011 60.6894 12.3611C61.0313 12.7212 61.2888 13.1524 61.4433 13.6237C61.5979 14.095 61.6456 14.5946 61.5831 15.0866C61.5831 17.5064 60.2715 18.8974 58.009 18.8974H55.2653V11.3229H58.009ZM56.445 17.8262H57.8772C58.2316 17.8473 58.5863 17.7894 58.9154 17.6566C59.2445 17.5238 59.5398 17.3195 59.7797 17.0585C60.0197 16.7976 60.1983 16.4866 60.3025 16.1481C60.4067 15.8096 60.4339 15.4523 60.3822 15.102C60.4302 14.7531 60.4002 14.398 60.2944 14.062C60.1886 13.726 60.0095 13.4175 59.7701 13.1587C59.5307 12.8998 59.2369 12.6969 58.9096 12.5646C58.5823 12.4323 58.2298 12.3738 57.8772 12.3933H56.445V17.8262Z" fill="black"/>
<path d="M62.9157 16.0367C62.8797 15.6611 62.9228 15.2821 63.0423 14.924C63.1617 14.5659 63.3549 14.2367 63.6094 13.9574C63.864 13.6782 64.1742 13.4551 64.5203 13.3024C64.8663 13.1497 65.2406 13.0708 65.619 13.0708C65.9974 13.0708 66.3717 13.1497 66.7178 13.3024C67.0638 13.4551 67.3741 13.6782 67.6286 13.9574C67.8831 14.2367 68.0763 14.5659 68.1958 14.924C68.3152 15.2821 68.3583 15.6611 68.3223 16.0367C68.359 16.4128 68.3164 16.7923 68.1973 17.1509C68.0781 17.5096 67.8851 17.8394 67.6305 18.1192C67.3759 18.399 67.0654 18.6226 66.719 18.7756C66.3726 18.9286 65.9979 19.0077 65.619 19.0077C65.2401 19.0077 64.8655 18.9286 64.519 18.7756C64.1726 18.6226 63.8621 18.399 63.6076 18.1192C63.353 17.8394 63.1599 17.5096 63.0407 17.1509C62.9216 16.7923 62.879 16.4128 62.9157 16.0367ZM67.1587 16.0367C67.1587 14.7977 66.6005 14.0731 65.6209 14.0731C64.6375 14.0731 64.0844 14.7977 64.0844 16.0367C64.0844 17.2857 64.6376 18.0047 65.6209 18.0047C66.6005 18.0047 67.1587 17.2808 67.1587 16.0367H67.1587Z" fill="black"/>
<path d="M75.509 18.8973H74.3354L73.1507 14.6873H73.0612L71.8814 18.8973H70.7191L69.139 13.1811H70.2865L71.3133 17.5429H71.3979L72.5764 13.1811H73.6617L74.8402 17.5429H74.9297L75.9516 13.1811H77.0828L75.509 18.8973Z" fill="black"/>
<path d="M78.4118 13.1811H79.5009V14.0892H79.5854C79.7288 13.763 79.9707 13.4896 80.2773 13.3071C80.5839 13.1245 80.94 13.0419 81.296 13.0708C81.5749 13.0499 81.855 13.0918 82.1154 13.1935C82.3759 13.2952 82.61 13.454 82.8006 13.6582C82.9911 13.8623 83.1332 14.1067 83.2162 14.373C83.2992 14.6394 83.321 14.9209 83.2801 15.1968V18.8973H82.1488V15.4801C82.1488 14.5615 81.7485 14.1047 80.9119 14.1047C80.7225 14.0959 80.5334 14.128 80.3577 14.1989C80.1819 14.2698 80.0236 14.3777 79.8936 14.5153C79.7636 14.6529 79.665 14.8169 79.6045 14.996C79.544 15.1752 79.5231 15.3653 79.5431 15.5533V18.8973H78.4118L78.4118 13.1811Z" fill="black"/>
<path d="M85.0827 10.9497H86.214V18.8973H85.0827V10.9497Z" fill="black"/>
<path d="M87.7866 16.0367C87.7506 15.6611 87.7937 15.282 87.9132 14.9239C88.0327 14.5659 88.2259 14.2366 88.4804 13.9574C88.735 13.6781 89.0453 13.455 89.3914 13.3023C89.7375 13.1496 90.1117 13.0707 90.4902 13.0707C90.8686 13.0707 91.2429 13.1496 91.589 13.3023C91.9351 13.455 92.2453 13.6781 92.4999 13.9574C92.7544 14.2366 92.9477 14.5659 93.0671 14.9239C93.1866 15.282 93.2298 15.6611 93.1937 16.0367C93.2304 16.4128 93.1878 16.7923 93.0686 17.151C92.9494 17.5096 92.7563 17.8394 92.5017 18.1192C92.2471 18.399 91.9366 18.6226 91.5902 18.7756C91.2437 18.9286 90.8691 19.0077 90.4902 19.0077C90.1113 19.0077 89.7366 18.9286 89.3902 18.7756C89.0437 18.6226 88.7332 18.399 88.4786 18.1192C88.224 17.8394 88.0309 17.5096 87.9117 17.151C87.7925 16.7923 87.7499 16.4128 87.7866 16.0367ZM92.0295 16.0367C92.0295 14.7977 91.4713 14.0731 90.4917 14.0731C89.5084 14.0731 88.9552 14.7977 88.9552 16.0368C88.9552 17.2857 89.5084 18.0048 90.4917 18.0048C91.4713 18.0047 92.0295 17.2808 92.0295 16.0367H92.0295Z" fill="black"/>
<path d="M94.3847 17.2808C94.3847 16.2518 95.153 15.6586 96.5167 15.5743L98.0695 15.4851V14.9917C98.0695 14.3879 97.6692 14.047 96.8959 14.047C96.2644 14.047 95.8268 14.2782 95.7012 14.6824H94.606C94.7216 13.7005 95.6478 13.0708 96.9481 13.0708C98.3852 13.0708 99.1958 13.7842 99.1958 14.9917V18.8973H98.1068V18.094H98.0172C97.8356 18.3822 97.5805 18.6171 97.278 18.7747C96.9755 18.9324 96.6364 19.0072 96.2955 18.9915C96.0548 19.0165 95.8116 18.9909 95.5815 18.9163C95.3514 18.8418 95.1395 18.7201 94.9595 18.5589C94.7794 18.3977 94.6353 18.2007 94.5363 17.9805C94.4373 17.7604 94.3857 17.522 94.3847 17.2808ZM98.0695 16.7923V16.3144L96.6697 16.4037C95.8802 16.4564 95.5222 16.7241 95.5222 17.2281C95.5222 17.7425 95.9697 18.0419 96.5852 18.0419C96.7655 18.0601 96.9476 18.042 97.1207 17.9885C97.2939 17.9351 97.4545 17.8475 97.593 17.7309C97.7314 17.6143 97.845 17.4711 97.9269 17.3099C98.0087 17.1486 98.0572 16.9726 98.0695 16.7923Z" fill="black"/>
<path d="M100.683 16.0367C100.683 14.2305 101.614 13.0863 103.062 13.0863C103.42 13.0698 103.776 13.1554 104.087 13.333C104.398 13.5106 104.652 13.7728 104.82 14.0891H104.904V10.9497H106.036V18.8973H104.952V17.9942H104.862C104.682 18.3084 104.419 18.5674 104.102 18.7432C103.784 18.919 103.425 19.0048 103.062 18.9915C101.604 18.9916 100.683 17.8473 100.683 16.0367ZM101.851 16.0367C101.851 17.2492 102.424 17.9787 103.383 17.9787C104.336 17.9787 104.926 17.2386 104.926 16.0417C104.926 14.8504 104.33 14.0997 103.383 14.0997C102.43 14.0997 101.851 14.8342 101.851 16.0367H101.851Z" fill="black"/>
<path d="M110.716 16.0367C110.68 15.6611 110.723 15.2821 110.843 14.924C110.962 14.5659 111.155 14.2367 111.41 13.9574C111.664 13.6782 111.975 13.4551 112.321 13.3024C112.667 13.1497 113.041 13.0708 113.419 13.0708C113.798 13.0708 114.172 13.1497 114.518 13.3024C114.864 13.4551 115.175 13.6782 115.429 13.9574C115.684 14.2367 115.877 14.5659 115.996 14.924C116.116 15.2821 116.159 15.6611 116.123 16.0367C116.159 16.4128 116.117 16.7923 115.998 17.1509C115.879 17.5096 115.686 17.8394 115.431 18.1192C115.176 18.399 114.866 18.6226 114.519 18.7756C114.173 18.9286 113.798 19.0077 113.419 19.0077C113.041 19.0077 112.666 18.9286 112.32 18.7756C111.973 18.6226 111.663 18.399 111.408 18.1192C111.153 17.8394 110.96 17.5096 110.841 17.1509C110.722 16.7923 110.679 16.4128 110.716 16.0367ZM114.959 16.0367C114.959 14.7977 114.401 14.0731 113.421 14.0731C112.438 14.0731 111.885 14.7977 111.885 16.0367C111.885 17.2857 112.438 18.0047 113.421 18.0047C114.401 18.0047 114.959 17.2808 114.959 16.0367Z" fill="black"/>
<path d="M117.641 13.1811H118.73V14.0892H118.814C118.958 13.763 119.199 13.4896 119.506 13.3071C119.813 13.1245 120.169 13.0419 120.525 13.0708C120.804 13.0499 121.084 13.0918 121.344 13.1935C121.605 13.2952 121.839 13.454 122.029 13.6582C122.22 13.8623 122.362 14.1067 122.445 14.373C122.528 14.6394 122.55 14.9209 122.509 15.1968V18.8973H121.378V15.4801C121.378 14.5615 120.977 14.1047 120.141 14.1047C119.951 14.0959 119.762 14.128 119.586 14.1989C119.411 14.2698 119.252 14.3777 119.122 14.5153C118.992 14.6529 118.894 14.8169 118.833 14.996C118.773 15.1752 118.752 15.3653 118.772 15.5533V18.8973H117.641V13.1811Z" fill="black"/>
<path d="M128.901 11.7579V13.2071H130.143V14.1574H128.901V17.0967C128.901 17.6954 129.149 17.9576 129.712 17.9576C129.856 17.9572 130 17.9485 130.143 17.9316V18.8713C129.94 18.9075 129.734 18.9268 129.528 18.9289C128.27 18.9289 127.769 18.4876 127.769 17.3855V14.1573H126.859V13.2071H127.769V11.7579H128.901Z" fill="black"/>
<path d="M131.688 10.9497H132.81V14.0997H132.899C133.05 13.7705 133.298 13.4956 133.611 13.3123C133.924 13.1291 134.286 13.0465 134.647 13.0757C134.925 13.0607 135.202 13.1069 135.459 13.211C135.717 13.3152 135.948 13.4747 136.137 13.6782C136.325 13.8818 136.467 14.1243 136.55 14.3885C136.634 14.6527 136.658 14.9321 136.621 15.2068V18.8973H135.489V15.4851C135.489 14.572 135.062 14.1096 134.263 14.1096C134.069 14.0937 133.873 14.1204 133.69 14.1877C133.507 14.2551 133.341 14.3615 133.203 14.4995C133.066 14.6376 132.96 14.8039 132.894 14.9869C132.828 15.1698 132.802 15.365 132.82 15.5588V18.8973H131.688L131.688 10.9497Z" fill="black"/>
<path d="M143.218 17.3539C143.064 17.8763 142.731 18.3282 142.277 18.6305C141.823 18.9329 141.277 19.0663 140.734 19.0076C140.356 19.0176 139.981 18.9455 139.634 18.7963C139.287 18.6471 138.977 18.4244 138.725 18.1437C138.473 17.8629 138.285 17.5309 138.175 17.1706C138.065 16.8103 138.034 16.4304 138.086 16.0572C138.035 15.6829 138.066 15.3021 138.177 14.9407C138.287 14.5794 138.473 14.2458 138.724 13.9626C138.975 13.6794 139.283 13.4533 139.629 13.2994C139.975 13.1455 140.35 13.0676 140.729 13.0708C142.324 13.0708 143.286 14.1574 143.286 15.9524V16.3461H139.238V16.4093C139.22 16.619 139.247 16.8302 139.316 17.0292C139.385 17.2282 139.495 17.4106 139.638 17.5648C139.782 17.719 139.956 17.8415 140.15 17.9245C140.344 18.0075 140.554 18.0492 140.765 18.0469C141.035 18.0793 141.31 18.0307 141.552 17.9073C141.795 17.7839 141.996 17.5912 142.129 17.3539L143.218 17.3539ZM139.238 15.5117H142.134C142.148 15.3199 142.122 15.1272 142.057 14.946C141.992 14.7648 141.89 14.5992 141.757 14.4597C141.624 14.3203 141.463 14.2101 141.285 14.1362C141.107 14.0624 140.915 14.0265 140.723 14.0309C140.527 14.0285 140.333 14.0651 140.151 14.1387C139.97 14.2122 139.806 14.3212 139.667 14.4592C139.529 14.5972 139.42 14.7615 139.346 14.9422C139.272 15.123 139.236 15.3166 139.238 15.5117H139.238Z" fill="black"/>
</g>
<defs>
<clipPath id="clip0_25143_3535">
<rect width="171.375" height="50.7776" fill="white" transform="translate(0 0.900208)"/>
</clipPath>
</defs>
</svg>
