<svg width="24" height="20" viewBox="0 0 24 20" fill="none" xmlns="http://www.w3.org/2000/svg">
<rect x="0.75" y="0.75" width="22.5" height="18.5" rx="3.25" fill="white"/>
<rect x="0.75" y="0.75" width="22.5" height="18.5" rx="3.25" stroke="#99A0A9" stroke-width="1.5"/>
<path d="M5 14.3333V12.6667H6.66667V14.3333H5ZM13.3333 14.3333L15.8333 10.1667L13.3333 6H15L16.6667 8.77083L18.3333 6H20L17.5 10.1667L20 14.3333H18.3333L16.6667 11.5625L15 14.3333H13.3333ZM7.5 14.3333V12.6667H10.8333V11H7.5V6H12.5V7.66667H9.16667V9.33333H10.8333C11.2917 9.33333 11.684 9.49653 12.0104 9.82292C12.3368 10.1493 12.5 10.5417 12.5 11V12.6667C12.5 13.125 12.3368 13.5174 12.0104 13.8437C11.684 14.1701 11.2917 14.3333 10.8333 14.3333H7.5Z" fill="#99A0A9"/>
</svg>
