<svg width="172" height="52" viewBox="0 0 172 52" fill="none" xmlns="http://www.w3.org/2000/svg">
<g clip-path="url(#clip0_25143_3424)">
<path d="M165.027 0.900208H6.3472C2.84174 0.900208 0 3.74195 0 7.24741V45.3306C0 48.8361 2.84174 51.6778 6.3472 51.6778H165.027C168.533 51.6778 171.374 48.8361 171.374 45.3306V7.24741C171.374 3.74195 168.533 0.900208 165.027 0.900208Z" fill="white"/>
<path d="M165.027 1.91576C166.441 1.91576 167.797 2.47749 168.797 3.47736C169.797 4.47724 170.359 5.83337 170.359 7.24741V45.3306C170.359 46.7447 169.797 48.1008 168.797 49.1007C167.797 50.1006 166.441 50.6623 165.027 50.6623H6.3472C4.93316 50.6623 3.57704 50.1006 2.57716 49.1007C1.57728 48.1008 1.01555 46.7447 1.01555 45.3306V7.24741C1.01555 5.83337 1.57728 4.47724 2.57716 3.47736C3.57704 2.47749 4.93316 1.91576 6.3472 1.91576H165.027ZM165.027 0.900208H6.3472C4.66382 0.900208 3.04938 1.56893 1.85905 2.75926C0.668721 3.94959 0 5.56403 0 7.24741V45.3306C0 47.014 0.668721 48.6285 1.85905 49.8188C3.04938 51.0091 4.66382 51.6778 6.3472 51.6778H165.027C166.711 51.6778 168.325 51.0091 169.515 49.8188C170.706 48.6285 171.375 47.014 171.375 45.3306V7.24741C171.375 5.56403 170.706 3.94959 169.515 2.75926C168.325 1.56893 166.711 0.900208 165.027 0.900208Z" fill="#B8C1CC"/>
<path d="M60.1969 13.8993C60.2177 14.3648 60.1441 14.8298 59.9805 15.2661C59.8169 15.7024 59.5666 16.1011 59.2448 16.4382C58.8842 16.8105 58.449 17.1025 57.9677 17.295C57.4864 17.4875 56.9699 17.5762 56.452 17.5553C55.9311 17.5669 55.4134 17.4715 54.9308 17.275C54.4483 17.0784 54.0111 16.785 53.6466 16.4128C52.9069 15.6561 52.4927 14.64 52.4927 13.5819C52.4927 12.5238 52.9069 11.5077 53.6466 10.7511C54.2121 10.1985 54.9283 9.82531 55.7053 9.6785C56.4822 9.53169 57.2853 9.61777 58.0134 9.92593C58.4712 10.1141 58.8795 10.4051 59.2067 10.7765L58.5339 11.4493C58.2818 11.1456 57.9624 10.9048 57.601 10.7462C57.2396 10.5875 56.8462 10.5153 56.452 10.5353C55.9544 10.5387 55.4653 10.664 55.0273 10.9001C54.5893 11.1363 54.2158 11.4761 53.9394 11.8899C53.6631 12.3037 53.4923 12.7789 53.442 13.274C53.3917 13.7691 53.4635 14.2689 53.651 14.7298C53.8385 15.1907 54.136 15.5987 54.5176 15.9181C54.8992 16.2375 55.3532 16.4586 55.8399 16.562C56.3267 16.6654 56.8313 16.648 57.3098 16.5114C57.7883 16.3747 58.226 16.1229 58.5847 15.778C58.9724 15.3529 59.1973 14.8043 59.2194 14.2293H56.452V13.3153H60.1461C60.175 13.5088 60.192 13.7038 60.1969 13.8993Z" fill="black" stroke="black" stroke-width="0.240178" stroke-miterlimit="10"/>
<path d="M66.0109 10.7257H62.5834V13.1376H65.7062V14.0516H62.5834V16.4636H66.0109V17.4029H61.5932V9.7863H66.0109V10.7257Z" fill="black" stroke="black" stroke-width="0.240178" stroke-miterlimit="10"/>
<path d="M70.1747 17.4029H69.1972V10.7257H67.0646V9.7863H72.3581V10.7257H70.1747V17.4029Z" fill="black" stroke="black" stroke-width="0.240178" stroke-miterlimit="10"/>
<path d="M76.0903 17.4029V9.7863H77.0677V17.4029H76.0903Z" fill="black" stroke="black" stroke-width="0.240178" stroke-miterlimit="10"/>
<path d="M81.4092 17.4029H80.4318V10.7257H78.2991V9.7863H83.5292V10.7257H81.4092V17.4029Z" fill="black" stroke="black" stroke-width="0.240178" stroke-miterlimit="10"/>
<path d="M93.4435 16.4128C93.0769 16.7797 92.6415 17.0708 92.1623 17.2694C91.6831 17.468 91.1695 17.5702 90.6508 17.5702C90.132 17.5702 89.6184 17.468 89.1392 17.2694C88.66 17.0708 88.2246 16.7797 87.858 16.4128C87.1404 15.6499 86.7408 14.642 86.7408 13.5946C86.7408 12.5472 87.1404 11.5393 87.858 10.7765C88.2167 10.3992 88.6507 10.1014 89.1318 9.90242C89.6128 9.70343 90.1303 9.60765 90.6508 9.62127C91.1705 9.61305 91.6864 9.7113 92.1667 9.90997C92.647 10.1086 93.0815 10.4035 93.4435 10.7765C93.8086 11.1478 94.0955 11.5884 94.2873 12.0725C94.4792 12.5565 94.5721 13.0741 94.5606 13.5946C94.5773 14.1158 94.4867 14.6349 94.2946 15.1196C94.1024 15.6044 93.8128 16.0445 93.4435 16.4128ZM88.5816 15.7781C88.852 16.0521 89.1742 16.2697 89.5294 16.4182C89.8846 16.5667 90.2658 16.6432 90.6508 16.6432C91.0358 16.6432 91.417 16.5667 91.7722 16.4182C92.1274 16.2697 92.4495 16.0521 92.72 15.7781C93.2677 15.1828 93.5717 14.4035 93.5717 13.5946C93.5717 12.7857 93.2677 12.0064 92.72 11.4112C92.4495 11.1371 92.1274 10.9195 91.7722 10.771C91.417 10.6225 91.0358 10.546 90.6508 10.546C90.2658 10.546 89.8846 10.6225 89.5294 10.771C89.1742 10.9195 88.852 11.1371 88.5816 11.4112C88.0338 12.0064 87.7298 12.7857 87.7298 13.5946C87.7298 14.4035 88.0338 15.1828 88.5816 15.7781Z" fill="black" stroke="black" stroke-width="0.240178" stroke-miterlimit="10"/>
<path d="M95.9444 17.4029V9.7863H97.1249L100.832 15.7146V14.242V9.7863H101.809V17.4029H100.794L96.9218 11.1954V12.6552V17.4029H95.9444Z" fill="black" stroke="black" stroke-width="0.240178" stroke-miterlimit="10"/>
<path d="M86.4997 28.5105C85.4301 28.5131 84.3853 28.8327 83.4974 29.429C82.6095 30.0253 81.9184 30.8715 81.5114 31.8606C81.1044 32.8497 80.9999 33.9373 81.211 34.9858C81.4221 36.0343 81.9394 36.9967 82.6975 37.7512C83.4556 38.5057 84.4204 39.0185 85.4699 39.2247C86.5194 39.4309 87.6064 39.3213 88.5936 38.9097C89.5808 38.498 90.4238 37.8029 91.0159 36.9122C91.608 36.0215 91.9227 34.9752 91.9202 33.9057C91.9306 33.1922 91.7972 32.4839 91.5282 31.823C91.2591 31.162 90.8598 30.562 90.354 30.0586C89.8483 29.5552 89.2464 29.1588 88.5842 28.8928C87.9221 28.6268 87.2132 28.4968 86.4997 28.5105V28.5105ZM86.4997 37.1808C85.8441 37.2267 85.1899 37.0742 84.6222 36.7434C84.0544 36.4125 83.5993 35.9184 83.316 35.3255C83.0327 34.7325 82.9343 34.068 83.0337 33.4184C83.1331 32.7688 83.4256 32.1641 83.8732 31.6829C84.3208 31.2018 84.9028 30.8664 85.5435 30.7204C86.1843 30.5743 86.8541 30.6245 87.466 30.8642C88.0779 31.1039 88.6035 31.5222 88.9745 32.0646C89.3455 32.607 89.5448 33.2485 89.5464 33.9057C89.5668 34.3221 89.5037 34.7383 89.3607 35.1299C89.2177 35.5215 88.9977 35.8806 88.7138 36.1858C88.4298 36.4911 88.0876 36.7364 87.7074 36.9072C87.3271 37.0781 86.9165 37.1712 86.4997 37.1808ZM74.6685 28.5105C73.599 28.5131 72.5542 28.8327 71.6662 29.429C70.7783 30.0253 70.0872 30.8715 69.6802 31.8606C69.2732 32.8497 69.1687 33.9373 69.3798 34.9858C69.5909 36.0343 70.1082 36.9967 70.8663 37.7512C71.6244 38.5057 72.5892 39.0185 73.6387 39.2247C74.6882 39.4309 75.7752 39.3213 76.7624 38.9097C77.7496 38.498 78.5926 37.8029 79.1847 36.9122C79.7768 36.0215 80.0915 34.9752 80.089 33.9057C80.0994 33.1922 79.9661 32.4839 79.697 31.823C79.4279 31.162 79.0286 30.562 78.5229 30.0586C78.0171 29.5552 77.4152 29.1588 76.7531 28.8928C76.0909 28.6268 75.382 28.4968 74.6685 28.5105V28.5105ZM74.6685 37.1808C74.013 37.2267 73.3588 37.0742 72.791 36.7434C72.2232 36.4125 71.7681 35.9184 71.4848 35.3255C71.2015 34.7325 71.1032 34.068 71.2025 33.4184C71.3019 32.7688 71.5944 32.1641 72.042 31.6829C72.4896 31.2018 73.0716 30.8664 73.7123 30.7204C74.3531 30.5743 75.0229 30.6245 75.6348 30.8642C76.2467 31.1039 76.7723 31.5222 77.1433 32.0646C77.5143 32.607 77.7136 33.2485 77.7152 33.9057C77.7356 34.3221 77.6725 34.7383 77.5295 35.1299C77.3865 35.5215 77.1665 35.8806 76.8826 36.1858C76.5986 36.4911 76.2565 36.7364 75.8762 36.9072C75.4959 37.0781 75.0853 37.1712 74.6685 37.1808ZM60.6031 30.1735V32.4585H66.0871C66.0011 33.5347 65.5537 34.5503 64.8177 35.3401C64.2676 35.9006 63.6059 36.3394 62.8755 36.628C62.1452 36.9167 61.3624 37.0488 60.5777 37.0158C58.9617 37.0158 57.4118 36.3738 56.2691 35.2311C55.1264 34.0884 54.4844 32.5385 54.4844 30.9225C54.4844 29.3064 55.1264 27.7566 56.2691 26.6139C57.4118 25.4711 58.9617 24.8292 60.5777 24.8292C62.127 24.8061 63.623 25.3945 64.7415 26.4667L66.3537 24.8546C65.5971 24.1062 64.6987 23.5164 63.7113 23.1197C62.7238 22.723 61.6671 22.5273 60.6031 22.5442C59.4746 22.5003 58.3488 22.6846 57.2932 23.0862C56.2376 23.4878 55.274 24.0983 54.46 24.8812C53.646 25.6641 52.9984 26.6033 52.5561 27.6425C52.1138 28.6817 51.8858 29.7994 51.8858 30.9288C51.8858 32.0582 52.1138 33.176 52.5561 34.2152C52.9984 35.2543 53.646 36.1935 54.46 36.9764C55.274 37.7594 56.2376 38.3699 57.2932 38.7715C58.3488 39.1731 59.4746 39.3574 60.6031 39.3135C61.689 39.3569 62.7718 39.17 63.7804 38.7653C64.789 38.3605 65.7006 37.747 66.4552 36.965C67.7883 35.5006 68.4986 33.5746 68.4356 31.5953C68.4401 31.1189 68.4019 30.6431 68.3213 30.1735H60.6031ZM118.121 31.9507C117.79 30.9767 117.171 30.1263 116.346 29.5119C115.521 28.8976 114.529 28.5484 113.501 28.5105C112.806 28.5092 112.119 28.6503 111.481 28.9251C110.844 29.1999 110.269 29.6025 109.793 30.1082C109.317 30.6138 108.95 31.2117 108.714 31.8649C108.479 32.5181 108.38 33.2126 108.423 33.9057C108.412 35.0645 108.776 36.1957 109.461 37.1304C110.147 38.0651 111.116 38.753 112.224 39.0915C113.332 39.43 114.52 39.4009 115.611 39.0084C116.701 38.616 117.635 37.8814 118.274 36.9142L116.433 35.6448C116.159 36.1022 115.77 36.4798 115.304 36.7404C114.839 37.0009 114.313 37.1352 113.78 37.13C113.23 37.1528 112.686 37.0085 112.219 36.7162C111.752 36.424 111.385 35.9974 111.165 35.4925L118.388 32.5093L118.121 31.9507ZM110.759 33.7533C110.733 33.359 110.786 32.9635 110.915 32.59C111.044 32.2165 111.246 31.8725 111.51 31.5782C111.774 31.2838 112.093 31.045 112.45 30.8757C112.808 30.7065 113.195 30.6102 113.59 30.5924C113.999 30.5675 114.406 30.6638 114.76 30.8693C115.115 31.0747 115.401 31.3803 115.583 31.7476L110.759 33.7533ZM104.894 38.9834H107.268V23.1154H104.894V38.9834ZM101.009 29.7165H100.921C100.566 29.3127 100.128 28.9901 99.6375 28.7711C99.1467 28.552 98.6144 28.4414 98.077 28.4471C96.6897 28.5143 95.3815 29.1128 94.4235 30.1184C93.4655 31.124 92.9311 32.4597 92.9311 33.8485C92.9311 35.2374 93.4655 36.5731 94.4235 37.5787C95.3815 38.5843 96.6897 39.1827 98.077 39.25C98.6152 39.2608 99.1491 39.1526 99.6407 38.9332C100.132 38.7137 100.569 38.3885 100.921 37.9806H101.009V38.7549C101.009 40.8241 99.905 41.9285 98.1278 41.9285C97.5341 41.9155 96.9577 41.7263 96.4717 41.385C95.9858 41.0437 95.6122 40.5657 95.3985 40.0117L93.342 40.8622C93.7222 41.8171 94.3833 42.6342 95.2378 43.2054C96.0923 43.7766 97.1 44.075 98.1278 44.0612C100.908 44.0612 103.206 42.4236 103.206 38.4376V28.8279H101.009V29.7165ZM98.2801 37.1808C97.4484 37.129 96.6677 36.762 96.0971 36.1547C95.5264 35.5474 95.2088 34.7454 95.2088 33.912C95.2088 33.0787 95.5264 32.2767 96.0971 31.6693C96.6677 31.062 97.4484 30.6951 98.2801 30.6432C98.6866 30.6607 99.0855 30.7599 99.4529 30.9347C99.8203 31.1095 100.149 31.3565 100.419 31.6609C100.689 31.9653 100.895 32.3209 101.025 32.7065C101.155 33.0921 101.205 33.5 101.174 33.9057C101.209 34.3128 101.161 34.7227 101.032 35.1106C100.904 35.4985 100.699 35.8563 100.428 36.1625C100.157 36.4686 99.8276 36.7167 99.4584 36.8918C99.0892 37.0668 98.6884 37.1651 98.2801 37.1808V37.1808ZM129.242 23.1154H123.555V38.9834H125.929V32.9663H129.242C129.918 33.0149 130.598 32.9236 131.237 32.6981C131.877 32.4726 132.463 32.1177 132.96 31.6556C133.456 31.1935 133.852 30.634 134.123 30.0121C134.394 29.3902 134.534 28.7191 134.534 28.0409C134.534 27.3626 134.394 26.6915 134.123 26.0696C133.852 25.4477 133.456 24.8883 132.96 24.4261C132.463 23.964 131.877 23.6091 131.237 23.3836C130.598 23.1581 129.918 23.0668 129.242 23.1154V23.1154ZM129.242 30.7321H125.929V25.3242H129.293C129.649 25.3242 130.003 25.3945 130.332 25.531C130.662 25.6676 130.961 25.8677 131.213 26.1199C131.466 26.3722 131.666 26.6717 131.802 27.0013C131.939 27.3308 132.009 27.6841 132.009 28.0409C132.009 28.3976 131.939 28.7509 131.802 29.0805C131.666 29.41 131.466 29.7095 131.213 29.9618C130.961 30.214 130.662 30.4141 130.332 30.5507C130.003 30.6872 129.649 30.7575 129.293 30.7575L129.242 30.7321ZM143.891 28.4598C143.027 28.4065 142.165 28.6077 141.414 29.0387C140.663 29.4696 140.054 30.1113 139.664 30.8844L141.758 31.7603C141.97 31.3787 142.288 31.0666 142.673 30.8616C143.058 30.6566 143.494 30.5675 143.929 30.6051C144.231 30.5699 144.536 30.5951 144.827 30.6792C145.119 30.7632 145.391 30.9045 145.627 31.0948C145.863 31.285 146.06 31.5204 146.204 31.7873C146.348 32.0541 146.438 32.347 146.468 32.6489V32.8013C145.705 32.4 144.855 32.1909 143.993 32.1919C141.733 32.1919 139.423 33.4614 139.423 35.7717C139.445 36.2628 139.566 36.7444 139.778 37.1879C139.99 37.6313 140.289 38.0277 140.657 38.3533C141.026 38.6789 141.456 38.9272 141.922 39.0835C142.388 39.2397 142.881 39.3006 143.371 39.2627C143.966 39.2957 144.56 39.1696 145.091 38.8974C145.622 38.6253 146.071 38.2169 146.392 37.714H146.468V38.9834H148.753V32.8774C148.753 30.0973 146.646 28.4852 143.942 28.4852L143.891 28.4598ZM143.599 37.1554C142.825 37.1554 141.746 36.7619 141.746 35.8098C141.746 34.5404 143.091 34.1088 144.285 34.1088C145.039 34.0902 145.784 34.2743 146.443 34.6419C146.363 35.3313 146.036 35.9685 145.523 36.4353C145.009 36.9021 144.344 37.167 143.65 37.1808L143.599 37.1554ZM157.081 28.8279L154.364 35.7083H154.288L151.47 28.8279H148.931L153.158 38.4503L150.746 43.7946H153.222L159.721 28.8279H157.081ZM135.754 38.9834H138.115V23.1154H135.754V38.9834Z" fill="black"/>
<path d="M13.253 10.4718C12.8346 10.9664 12.6212 11.6022 12.6563 12.249V40.329C12.6131 40.9769 12.8276 41.6157 13.253 42.1063L13.3418 42.2078L29.0702 26.4794V26.0986L13.3418 10.3829L13.253 10.4718Z" fill="url(#paint0_linear_25143_3424)"/>
<path d="M34.2749 31.7222L29.0702 26.4794V26.0986L34.2749 20.8558L34.3891 20.932L40.6221 24.461C42.3993 25.4639 42.3993 27.1142 40.6221 28.1297L34.4145 31.6588L34.2749 31.7222Z" fill="url(#paint1_linear_25143_3424)"/>
<path d="M34.4272 31.6461L29.0702 26.289L13.253 42.1062C13.6117 42.4255 14.0708 42.6092 14.5508 42.6255C15.0307 42.6417 15.5012 42.4894 15.8807 42.1951L34.4272 31.6461" fill="url(#paint2_linear_25143_3424)"/>
<path d="M34.4272 20.932L15.8807 10.3956C15.5037 10.0972 15.0336 9.94124 14.553 9.95517C14.0723 9.9691 13.612 10.152 13.253 10.4718L29.0702 26.289L34.4272 20.932Z" fill="url(#paint3_linear_25143_3424)"/>
<path opacity="0.2" d="M34.2749 31.5318L15.8807 42.0047C15.515 42.2807 15.0694 42.43 14.6113 42.43C14.1531 42.43 13.7075 42.2807 13.3418 42.0047V42.0047L13.253 42.0936L13.3418 42.1951C13.7075 42.4711 14.1531 42.6204 14.6113 42.6204C15.0694 42.6204 15.515 42.4711 15.8807 42.1951L34.4272 31.6461L34.2749 31.5318Z" fill="black"/>
<path opacity="0.12" d="M13.253 41.9285C12.8452 41.425 12.6454 40.7847 12.6944 40.1386V40.329C12.6512 40.9769 12.8656 41.6157 13.291 42.1063L13.3799 42.0174L13.253 41.9285Z" fill="black"/>
<path opacity="0.12" d="M40.6221 27.9393L34.2749 31.5318L34.3891 31.6461L40.6221 28.117C40.99 27.9614 41.3092 27.7095 41.546 27.3878C41.7828 27.0661 41.9285 26.6865 41.9677 26.289C41.8883 26.6503 41.7252 26.9878 41.4915 27.2745C41.2578 27.5611 40.96 27.7888 40.6221 27.9393Z" fill="black"/>
<path opacity="0.25" d="M15.8807 10.5734L40.6221 24.6388C40.96 24.7892 41.2578 25.017 41.4915 25.3036C41.7252 25.5902 41.8883 25.9278 41.9677 26.289C41.9285 25.8915 41.7828 25.5119 41.546 25.1902C41.3092 24.8685 40.99 24.6166 40.6221 24.461L15.8807 10.3956C14.1162 9.38008 12.6563 10.2179 12.6563 12.249V12.4394C12.6944 10.4083 14.1162 9.5705 15.8807 10.5734Z" fill="white"/>
</g>
<defs>
<linearGradient id="paint0_linear_25143_3424" x1="27.6738" y1="11.957" x2="6.37259" y2="33.2583" gradientUnits="userSpaceOnUse">
<stop stop-color="#00A0FF"/>
<stop offset="0.01" stop-color="#00A1FF"/>
<stop offset="0.26" stop-color="#00BEFF"/>
<stop offset="0.51" stop-color="#00D2FF"/>
<stop offset="0.76" stop-color="#00DFFF"/>
<stop offset="1" stop-color="#00E3FF"/>
</linearGradient>
<linearGradient id="paint1_linear_25143_3424" x1="42.9452" y1="26.289" x2="12.2374" y2="26.289" gradientUnits="userSpaceOnUse">
<stop stop-color="#FFE000"/>
<stop offset="0.41" stop-color="#FFBD00"/>
<stop offset="0.78" stop-color="#FFA500"/>
<stop offset="1" stop-color="#FF9C00"/>
</linearGradient>
<linearGradient id="paint2_linear_25143_3424" x1="31.5202" y1="29.2087" x2="2.62773" y2="58.0885" gradientUnits="userSpaceOnUse">
<stop stop-color="#FF3A44"/>
<stop offset="1" stop-color="#C31162"/>
</linearGradient>
<linearGradient id="paint3_linear_25143_3424" x1="9.26692" y1="1.12871" x2="22.1644" y2="14.0262" gradientUnits="userSpaceOnUse">
<stop stop-color="#32A071"/>
<stop offset="0.07" stop-color="#2DA771"/>
<stop offset="0.48" stop-color="#15CF74"/>
<stop offset="0.8" stop-color="#06E775"/>
<stop offset="1" stop-color="#00F076"/>
</linearGradient>
<clipPath id="clip0_25143_3424">
<rect width="171.374" height="50.7776" fill="white" transform="translate(0 0.900208)"/>
</clipPath>
</defs>
</svg>
