<svg width="20" height="20" viewBox="0 0 20 20" fill="none" xmlns="http://www.w3.org/2000/svg">
    <path
        d="M10 2.85712C10.3945 2.85712 10.7143 3.17691 10.7143 3.5714V9.28569H16.4286C16.8231 9.28569 17.1429 9.60548 17.1429 9.99997C17.1429 10.3945 16.8231 10.7143 16.4286 10.7143H10.7143V16.4285C10.7143 16.823 10.3945 17.1428 10 17.1428C9.60555 17.1428 9.28575 16.823 9.28575 16.4285V10.7143H3.57146C3.17697 10.7143 2.85718 10.3945 2.85718 9.99997C2.85718 9.60548 3.17697 9.28569 3.57146 9.28569H9.28575V3.5714C9.28575 3.17691 9.60555 2.85712 10 2.85712Z"
        fill="#007AFF" />
</svg>
