<svg width="23" height="23" viewBox="0 0 23 23" fill="none" xmlns="http://www.w3.org/2000/svg">
<path fill-rule="evenodd" clip-rule="evenodd" d="M13.3526 2.76109L13.382 2.73167L14.4415 1.67224L14.4709 1.6428C14.8165 1.29714 15.1224 0.991229 15.3966 0.75842C15.6886 0.510514 16.0178 0.280228 16.4289 0.14666C17.0308 -0.0488866 17.6791 -0.0488869 18.2808 0.146661C18.6919 0.280228 19.0211 0.510514 19.3132 0.75842C19.5874 0.991229 19.8933 1.29714 20.2389 1.6428L20.2684 1.67224L21.3278 2.73167L21.3572 2.7611C21.7028 3.1067 22.0088 3.41263 22.2416 3.68684C22.4895 3.97886 22.7198 4.30805 22.8534 4.71913C23.0489 5.32096 23.0489 5.96925 22.8534 6.57108C22.7198 6.98216 22.4895 7.31137 22.2416 7.60334C22.0088 7.8776 21.7029 8.1835 21.3572 8.52912L21.3278 8.55853L20.2684 9.61795L20.2389 9.64742C19.8933 9.99304 19.5874 10.299 19.3132 10.5318C19.0211 10.7797 18.6919 11.01 18.2808 11.1435C17.6791 11.3391 17.0308 11.3391 16.4289 11.1435C16.0178 11.01 15.6886 10.7797 15.3966 10.5318C15.1224 10.299 14.8165 9.99304 14.4709 9.64742L14.4415 9.61795L13.382 8.55853L13.3526 8.52912C13.0069 8.1835 12.701 7.8776 12.4682 7.60334C12.2203 7.31137 11.99 6.98216 11.8564 6.57108C11.6609 5.96925 11.6609 5.32096 11.8564 4.71913C11.99 4.30805 12.2203 3.97886 12.4682 3.68684C12.701 3.41261 13.0069 3.10672 13.3526 2.76109ZM14.1815 5.14131C14.0238 5.32702 13.9992 5.39707 13.9938 5.41361C13.945 5.56407 13.945 5.72614 13.9938 5.8766C13.9992 5.89314 14.0238 5.96318 14.1815 6.1489C14.3477 6.34463 14.5872 6.58544 14.9711 6.96942L16.0306 8.02884C16.4146 8.41276 16.6554 8.65233 16.8511 8.81849C17.0368 8.97619 17.1069 9.00075 17.1234 9.00615C17.2739 9.05501 17.4359 9.05501 17.5864 9.00615C17.6029 9.00075 17.673 8.97619 17.8587 8.81849C18.0545 8.65233 18.2953 8.41276 18.6792 8.02884L19.7386 6.96942C20.1226 6.58544 20.3621 6.34463 20.5283 6.1489C20.686 5.96318 20.7106 5.89314 20.7159 5.8766C20.7649 5.72614 20.7649 5.56406 20.7159 5.41361C20.7106 5.39707 20.686 5.32702 20.5283 5.14131C20.3621 4.94555 20.1226 4.70476 19.7386 4.32081L18.6792 3.26138C18.2953 2.87744 18.0545 2.63788 17.8587 2.4717C17.673 2.31404 17.6029 2.28943 17.5864 2.28406C17.4359 2.23517 17.2739 2.23517 17.1234 2.28406C17.1069 2.28943 17.0368 2.31404 16.8511 2.4717C16.6554 2.63788 16.4146 2.87744 16.0306 3.26138L14.9711 4.32081C14.5872 4.70476 14.3477 4.94555 14.1815 5.14131ZM5.61851 10.5145H5.66012C6.14894 10.5145 6.58155 10.5145 6.9401 10.4852C7.3219 10.454 7.7175 10.3841 8.1026 10.1879C8.66647 9.90054 9.12485 9.44216 9.41217 8.87835C9.60835 8.49319 9.67828 8.09759 9.70949 7.7158C9.73877 7.35731 9.73877 6.92472 9.73877 6.43588V6.39423V4.89597V4.85435C9.73877 4.36554 9.73877 3.93293 9.70949 3.5744C9.67828 3.19261 9.60835 2.797 9.41217 2.41188C9.12485 1.84805 8.66647 1.38964 8.1026 1.10235C7.7175 0.906123 7.3219 0.836191 6.9401 0.804998C6.58155 0.775707 6.14896 0.775726 5.66014 0.775751H5.61851H4.12024H4.07862C3.58981 0.775726 3.15719 0.775707 2.79866 0.804998C2.41687 0.836191 2.02127 0.906123 1.63614 1.10235C1.0723 1.38964 0.613895 1.84805 0.326607 2.41188C0.130377 2.797 0.0604455 3.19261 0.0292516 3.5744C-3.95132e-05 3.9329 -2.04065e-05 4.36549 1.18474e-06 4.85427L3.95912e-06 4.89597L3.82814e-06 6.39423L1.18474e-06 6.43588C-2.06301e-05 6.92466 -3.9937e-05 7.35731 0.0292513 7.7158C0.060445 8.09759 0.130377 8.49319 0.326606 8.87835C0.613894 9.44216 1.0723 9.90054 1.63614 10.1879C2.02127 10.3841 2.41687 10.454 2.79866 10.4852C3.15719 10.5145 3.5898 10.5145 4.07862 10.5145H4.12024H5.61851ZM7.08233 8.18543C7.06679 8.19332 6.9999 8.22546 6.75709 8.24529C6.50117 8.26618 6.16149 8.26705 5.61851 8.26705H4.12024C3.57725 8.26705 3.23759 8.26618 2.98167 8.24529C2.73886 8.22546 2.67194 8.19332 2.65644 8.18543C2.51548 8.11357 2.40088 7.99901 2.32906 7.85802C2.32116 7.84254 2.28903 7.7756 2.26919 7.53279C2.24828 7.27687 2.24741 6.93722 2.24741 6.39423V4.89597C2.24741 4.35299 2.24828 4.01333 2.26919 3.75741C2.28903 3.5146 2.32116 3.44767 2.32906 3.43217C2.40088 3.29122 2.51548 3.17661 2.65644 3.10479C2.67194 3.0969 2.73886 3.06477 2.98167 3.04492C3.2376 3.02402 3.57725 3.02314 4.12024 3.02314H5.61851C6.16149 3.02314 6.50117 3.02402 6.75709 3.04493C6.9999 3.06477 7.06679 3.0969 7.08233 3.10479C7.22325 3.17661 7.33788 3.29122 7.40967 3.43217C7.41757 3.44767 7.44971 3.5146 7.46954 3.75741C7.49048 4.01333 7.49135 4.35299 7.49135 4.89597V6.39423C7.49135 6.93722 7.49048 7.27687 7.46954 7.53279C7.44971 7.7756 7.41757 7.84254 7.40967 7.85802C7.33788 7.99901 7.22325 8.11357 7.08233 8.18543ZM5.61851 23H5.66012C6.14889 23 6.58161 23 6.9401 22.9707C7.3219 22.9395 7.7175 22.8696 8.1026 22.6734C8.66647 22.3861 9.12485 21.9277 9.41217 21.3638C9.60835 20.9787 9.67828 20.5831 9.70949 20.2013C9.73877 19.8428 9.73877 19.4102 9.73877 18.9214V18.8798V17.3815V17.3399C9.73877 16.8511 9.73877 16.4185 9.70949 16.0599C9.67828 15.6781 9.60835 15.2825 9.41217 14.8974C9.12485 14.3336 8.66647 13.8752 8.1026 13.5879C7.7175 13.3916 7.3219 13.3217 6.9401 13.2905C6.58161 13.2612 6.149 13.2613 5.66022 13.2613H5.61851H4.12024H4.07862C3.58984 13.2613 3.15717 13.2612 2.79866 13.2905C2.41687 13.3217 2.02127 13.3916 1.63614 13.5879C1.0723 13.8752 0.613895 14.3336 0.326607 14.8974C0.130377 15.2825 0.0604455 15.6781 0.0292516 16.0599C-3.95132e-05 16.4184 -2.04065e-05 16.851 1.18474e-06 17.3398L3.95912e-06 17.3815L3.82814e-06 18.8798L1.18474e-06 18.9214C-2.06301e-05 19.4101 -3.9937e-05 19.8428 0.0292513 20.2013C0.060445 20.5831 0.130377 20.9787 0.326606 21.3638C0.613894 21.9277 1.0723 22.3861 1.63614 22.6734C2.02127 22.8696 2.41687 22.9395 2.79866 22.9707C3.15716 23 3.58973 23 4.07849 23H4.12024H5.61851ZM7.08233 20.6709C7.06679 20.6788 6.9999 20.7109 6.75709 20.7308C6.50117 20.7517 6.16149 20.7526 5.61851 20.7526H4.12024C3.57725 20.7526 3.23759 20.7517 2.98167 20.7308C2.73886 20.7109 2.67194 20.6788 2.65644 20.6709C2.51548 20.5991 2.40088 20.4845 2.32906 20.3436C2.32116 20.328 2.28903 20.2611 2.26919 20.0183C2.24828 19.7624 2.24741 19.4228 2.24741 18.8798V17.3815C2.24741 16.8385 2.24828 16.4988 2.26919 16.2429C2.28903 16.0001 2.32116 15.9332 2.32906 15.9177C2.40088 15.7767 2.51548 15.6621 2.65644 15.5903C2.67194 15.5824 2.73886 15.5503 2.98167 15.5304C3.2376 15.5095 3.57725 15.5087 4.12024 15.5087H5.61851C6.16149 15.5087 6.50117 15.5095 6.75709 15.5304C6.9999 15.5503 7.06679 15.5824 7.08233 15.5903C7.22325 15.6621 7.33788 15.7767 7.40967 15.9177C7.41757 15.9332 7.44971 16.0001 7.46954 16.2429C7.49048 16.4988 7.49135 16.8385 7.49135 17.3815V18.8798C7.49135 19.4228 7.49048 19.7624 7.46954 20.0183C7.44971 20.2611 7.41757 20.328 7.40967 20.3436C7.33788 20.4845 7.22325 20.5991 7.08233 20.6709ZM18.1041 23H18.1457C18.6344 23 19.0671 23 19.4256 22.9707C19.8074 22.9395 20.203 22.8696 20.5882 22.6734C21.152 22.3861 21.6104 21.9277 21.8977 21.3638C22.0939 20.9787 22.1639 20.5831 22.1951 20.2013C22.2244 19.8428 22.2244 19.4102 22.2243 18.9214V18.8798V17.3815V17.3399C22.2244 16.8511 22.2244 16.4185 22.1951 16.0599C22.1639 15.6781 22.0939 15.2825 21.8977 14.8974C21.6104 14.3336 21.152 13.8752 20.5882 13.5879C20.203 13.3916 19.8074 13.3217 19.4256 13.2905C19.0671 13.2612 18.6346 13.2613 18.1458 13.2613H18.1041H16.6058H16.5642C16.0754 13.2613 15.6427 13.2612 15.2842 13.2905C14.9025 13.3217 14.5069 13.3916 14.1217 13.5879C13.5579 13.8752 13.0994 14.3336 12.8122 14.8974C12.6159 15.2825 12.546 15.6781 12.5148 16.0599C12.4855 16.4185 12.4855 16.8511 12.4856 17.3398V17.3815V18.8798V18.9214C12.4855 19.4102 12.4855 19.8428 12.5148 20.2013C12.546 20.5831 12.6159 20.9787 12.8122 21.3638C13.0994 21.9277 13.5579 22.3861 14.1217 22.6734C14.5069 22.8696 14.9025 22.9395 15.2842 22.9707C15.6427 23 16.0753 23 16.5641 23H16.6058H18.1041ZM19.5679 20.6709C19.5524 20.6788 19.4854 20.7109 19.2426 20.7308C18.9867 20.7517 18.647 20.7526 18.1041 20.7526H16.6058C16.0628 20.7526 15.7232 20.7517 15.4673 20.7308C15.2245 20.7109 15.1575 20.6788 15.142 20.6709C15.001 20.5991 14.8864 20.4845 14.8146 20.3436C14.8067 20.328 14.7746 20.2611 14.7548 20.0183C14.7339 19.7624 14.7329 19.4228 14.7329 18.8798V17.3815C14.7329 16.8385 14.7339 16.4988 14.7548 16.2429C14.7746 16.0001 14.8067 15.9332 14.8146 15.9177C14.8864 15.7767 15.001 15.6621 15.142 15.5903C15.1575 15.5824 15.2245 15.5503 15.4673 15.5304C15.7232 15.5095 16.0628 15.5087 16.6058 15.5087H18.1041C18.647 15.5087 18.9867 15.5095 19.2426 15.5304C19.4854 15.5503 19.5524 15.5824 19.5679 15.5903C19.7088 15.6621 19.8235 15.7767 19.8953 15.9177C19.9032 15.9332 19.9353 16.0001 19.9551 16.2429C19.976 16.4988 19.9769 16.8385 19.9769 17.3815V18.8798C19.9769 19.4228 19.976 19.7624 19.9551 20.0183C19.9353 20.2611 19.9032 20.328 19.8953 20.3436C19.8234 20.4845 19.7088 20.5991 19.5679 20.6709Z" fill="#1D7AFF"/>
</svg>
