<svg width="112" height="76" viewBox="0 0 112 76" fill="none" xmlns="http://www.w3.org/2000/svg">
<path d="M26.3333 76.0001L112 76.0001L96.6431 57.9482L96.6431 26.3828C96.6431 16.994 89.0319 9.38281 79.6431 9.38282L26.3333 9.38282C16.9445 9.38282 9.33334 16.994 9.33334 26.3828L9.33335 59.0001C9.33335 68.3889 16.9445 76.0001 26.3333 76.0001Z" fill="#007AFF"/>
<path d="M105.206 68.0137C96.0184 69.1215 89.8238 66.8807 79.5 61L67.5 63C79.4858 73.065 97.3715 77.4972 109.01 72.4852L105.206 68.0137Z" fill="#0048A5"/>
<path d="M64.9378 76C54.7055 71.3933 48.9473 67.8007 42 61L18 63C20.9086 68.986 23.5562 72.3652 29.7787 76L64.9378 76Z" fill="#0048A5"/>
<path d="M93.5 33.5C93.9 41.5 86 40.5 82.5 39V12.5C86.1667 16.3333 93.1 25.5 93.5 33.5Z" fill="#0048A5"/>
<path d="M17.0001 65.6173L100.503 65.6173L86.5481 49.2134L86.3098 48.9332L86.3098 48.5654L86.3098 17C86.3098 8.16344 79.1464 1 70.3098 1L17.0001 1.00001C8.16352 1.00001 1.00008 8.16345 1.00008 17L1.00008 49.6173C1.00008 58.4538 8.16351 65.6173 17.0001 65.6173Z" fill="white" stroke="#007AFF" stroke-width="2"/>
<path d="M14.9333 41.7893C20.9538 39.9335 25.9704 37.5568 30.9401 33.7919C34.1988 31.3232 37.9864 28.3162 39.2624 24.3506C40.2223 21.3675 36.5238 23.2239 35.2897 24.1284C28.2433 29.2934 22.7985 43.3468 28.9972 44.0663C32.5994 44.4844 37.3484 40.7634 40.0454 38.9291C44.4619 35.9252 48.4294 32.3358 52.0214 28.4603C52.5679 27.8708 58.4129 21.08 54.3412 22.7955C49.0412 25.0287 38.962 34.9311 42.8582 41.1784C46.851 47.5807 57.9779 37.9376 61.0542 34.9582C62.3403 33.7126 65.3169 30.7929 65.3169 30.7929C65.3169 30.7929 64.7085 31.5708 64.4035 31.9592C63.6179 32.9592 62.8685 33.9793 62.1996 35.0554C61.5249 36.1409 59.1587 39.6511 62.0401 39.6511C64.7797 39.6511 67.3902 38.2905 70 36.541" stroke="black" stroke-width="2" stroke-linecap="round" stroke-linejoin="round"/>
</svg>
