<svg width="24" height="24" viewBox="0 0 24 24" fill="none" xmlns="http://www.w3.org/2000/svg">
<path d="M3 6V21L6 18H12.075C12.0417 17.8333 12.0208 17.6667 12.0125 17.5C12.0042 17.3333 12 17.1667 12 17C12 16.8333 12.0042 16.6667 12.0125 16.5C12.0208 16.3333 12.0417 16.1667 12.075 16H5V6H17V11.075C17.1667 11.0417 17.3333 11.0208 17.5 11.0125C17.6667 11.0042 17.8333 11 18 11C18.1667 11 18.3333 11.0042 18.5 11.0125C18.6667 11.0208 18.8333 11.0417 19 11.075V6C19 5.45 18.8042 4.97917 18.4125 4.5875C18.0208 4.19583 17.55 4 17 4H5C4.45 4 3.97917 4.19583 3.5875 4.5875C3.19583 4.97917 3 5.45 3 6Z" fill="#1C1B1F"/>
<path d="M15 10H7V8H15V10Z" fill="#1C1B1F"/>
<path d="M12 14H7V12H12V14Z" fill="#1C1B1F"/>
<path d="M16.6481 16.3011V16.7178H17.4814V16.3011C17.4814 16.1831 17.4415 16.0841 17.3617 16.0042C17.2818 15.9244 17.1828 15.8844 17.0648 15.8844C16.9467 15.8844 16.8478 15.9244 16.7679 16.0042C16.688 16.0841 16.6481 16.1831 16.6481 16.3011Z" fill="#1C1B1F"/>
<path fill-rule="evenodd" clip-rule="evenodd" d="M14.6742 19.6396C15.3026 20.5042 16.0995 21.0581 17.0648 21.3011C18.0301 21.0581 18.8269 20.5042 19.4554 19.6396C20.0839 18.7751 20.3981 17.815 20.3981 16.7594V14.2178L17.0648 12.9678L13.7314 14.2178V16.7594C13.7314 17.815 14.0457 18.7751 14.6742 19.6396ZM17.8981 18.8011H16.2314C16.1134 18.8011 16.0144 18.7612 15.9346 18.6813C15.8547 18.6015 15.8148 18.5025 15.8148 18.3844V17.1344C15.8148 17.0164 15.8547 16.9174 15.9346 16.8376C16.0144 16.7577 16.1134 16.7178 16.2314 16.7178V16.3011C16.2314 16.0719 16.313 15.8758 16.4762 15.7126C16.6394 15.5494 16.8356 15.4678 17.0648 15.4678C17.2939 15.4678 17.4901 15.5494 17.6533 15.7126C17.8165 15.8758 17.8981 16.0719 17.8981 16.3011V16.7178C18.0162 16.7178 18.1151 16.7577 18.195 16.8376C18.2748 16.9174 18.3148 17.0164 18.3148 17.1344V18.3844C18.3148 18.5025 18.2748 18.6015 18.195 18.6813C18.1151 18.7612 18.0162 18.8011 17.8981 18.8011Z" fill="#1C1B1F"/>
</svg>
