<svg width="100" height="100" viewBox="0 0 100 100" fill="none" xmlns="http://www.w3.org/2000/svg">
<path d="M30.2188 10.5L52.7057 10.5L52.707 10.5L52.7084 10.5L52.7136 10.5L52.719 10.5L52.7353 10.5L52.8225 10.5L53.1733 10.5L54.5801 10.5L60.0116 10.5L85.7188 36.2071V74C85.7188 82.5604 78.7792 89.5 70.2188 89.5H30.2187C21.6583 89.5 14.7188 82.5604 14.7188 74V26C14.7188 17.4396 21.6583 10.5 30.2188 10.5Z" fill="#F5FDF7" stroke="#248A3D"/>
<path d="M86.2188 37L59.2188 10V23.9655C59.2188 31.1643 64.86 37 71.8187 37H86.2188Z" fill="#248A3D"/>
<path fill-rule="evenodd" clip-rule="evenodd" d="M39.3985 52H46.0001L50.0274 58.1923L54.1502 52.0242H60.6581L52.9596 62.4512L61.001 73.9769H55.0049L49.9603 66.7601L47.0753 71.059L49.9995 71.0627V74H39.001L47.0006 62.5183L39.3985 52Z" fill="#248A3D"/>
</svg>
