<svg width="48" height="48" viewBox="0 0 48 48" fill="none" xmlns="http://www.w3.org/2000/svg">
<path d="M14.5052 5.03999L25.2989 5.04L25.2995 5.04L25.3002 5.04L25.3027 5.04L25.3057 5.04L25.3131 5.04L25.355 5.04L25.5234 5.04L26.1987 5.04L28.8058 5.04L41.1452 17.3794V35.52C41.1452 39.629 37.8142 42.96 33.7052 42.96H14.5052C10.3962 42.96 7.0652 39.629 7.0652 35.52V12.48C7.0652 8.37099 10.3962 5.03999 14.5052 5.03999Z" fill="#FDF5F4" stroke="#FF3347" stroke-width="0.48"/>
<path d="M41.3848 17.7599L28.4248 4.79993V11.5034C28.4248 14.9588 31.1326 17.7599 34.4728 17.7599H41.3848Z" fill="#FF3347"/>
<mask id="mask0_21640_11801" style="mask-type:alpha" maskUnits="userSpaceOnUse" x="14" y="17" width="20" height="20">
<rect x="14.4004" y="17.76" width="19.2" height="19.2" fill="#1C1B1F"/>
</mask>
<path d="M24.0004 23.36C23.5604 23.36 23.1837 23.2033 22.8704 22.89C22.5571 22.5766 22.4004 22.2 22.4004 21.76C22.4004 21.32 22.5571 20.9433 22.8704 20.63C23.1837 20.3166 23.5604 20.16 24.0004 20.16C24.4404 20.16 24.8171 20.3166 25.1304 20.63C25.4437 20.9433 25.6004 21.32 25.6004 21.76C25.6004 22.2 25.4437 22.5766 25.1304 22.89C24.8171 23.2033 24.4404 23.36 24.0004 23.36ZM24.0004 34.56C23.6671 34.56 23.3837 34.4433 23.1504 34.21C22.9171 33.9766 22.8004 33.6933 22.8004 33.36V26.16C22.8004 25.8266 22.9171 25.5433 23.1504 25.31C23.3837 25.0766 23.6671 24.96 24.0004 24.96C24.3337 24.96 24.6171 25.0766 24.8504 25.31C25.0837 25.5433 25.2004 25.8266 25.2004 26.16V33.36C25.2004 33.6933 25.0837 33.9766 24.8504 34.21C24.6171 34.4433 24.3337 34.56 24.0004 34.56Z" fill="#FF3347"/>
</svg>
