<svg width="28" height="28" viewBox="0 0 28 28" fill="none" xmlns="http://www.w3.org/2000/svg">
<path d="M9.69166 4H18.3083C20.9829 4 21.9528 4.27848 22.9305 4.8014C23.9083 5.32432 24.6757 6.09169 25.1986 7.06946C25.7215 8.04724 26 9.0171 26 11.6917V16.3083C26 18.9829 25.7215 19.9528 25.1986 20.9305C24.6757 21.9083 23.9083 22.6757 22.9305 23.1986C21.9528 23.7215 20.9829 24 18.3083 24H9.69166C7.0171 24 6.04724 23.7215 5.06946 23.1986C4.09169 22.6757 3.32432 21.9083 2.8014 20.9305C2.27848 19.9528 2 18.9829 2 16.3083V11.6917C2 9.0171 2.27848 8.04724 2.8014 7.06946C3.32432 6.09169 4.09169 5.32432 5.06946 4.8014C6.04724 4.27848 7.0171 4 9.69166 4ZM9.69166 6C7.55513 6 6.79452 6.14688 6.01266 6.56502C5.38342 6.90155 4.90155 7.38342 4.56502 8.01266C4.14688 8.79452 4 9.55513 4 11.6917V16.3083C4 18.4449 4.14688 19.2055 4.56502 19.9873C4.90155 20.6166 5.38342 21.0985 6.01266 21.435C6.79452 21.8531 7.55513 22 9.69166 22H18.3083C20.4449 22 21.2055 21.8531 21.9873 21.435C22.6166 21.0985 23.0985 20.6166 23.435 19.9873C23.8531 19.2055 24 18.4449 24 16.3083V11.6917C24 9.55513 23.8531 8.79452 23.435 8.01266C23.0985 7.38342 22.6166 6.90155 21.9873 6.56502C21.2055 6.14688 20.4449 6 18.3083 6H9.69166ZM8 11.5C7.17157 11.5 6.5 10.8284 6.5 10C6.5 9.17157 7.17157 8.5 8 8.5C8.82843 8.5 9.5 9.17157 9.5 10C9.5 10.8284 8.82843 11.5 8 11.5ZM12 11.5C11.1716 11.5 10.5 10.8284 10.5 10C10.5 9.17157 11.1716 8.5 12 8.5C12.8284 8.5 13.5 9.17157 13.5 10C13.5 10.8284 12.8284 11.5 12 11.5ZM16 11.5C15.1716 11.5 14.5 10.8284 14.5 10C14.5 9.17157 15.1716 8.5 16 8.5C16.8284 8.5 17.5 9.17157 17.5 10C17.5 10.8284 16.8284 11.5 16 11.5ZM20 11.5C19.1716 11.5 18.5 10.8284 18.5 10C18.5 9.17157 19.1716 8.5 20 8.5C20.8284 8.5 21.5 9.17157 21.5 10C21.5 10.8284 20.8284 11.5 20 11.5ZM20 16C19.1716 16 18.5 15.3284 18.5 14.5C18.5 13.6716 19.1716 13 20 13C20.8284 13 21.5 13.6716 21.5 14.5C21.5 15.3284 20.8284 16 20 16ZM16 16C15.1716 16 14.5 15.3284 14.5 14.5C14.5 13.6716 15.1716 13 16 13C16.8284 13 17.5 13.6716 17.5 14.5C17.5 15.3284 16.8284 16 16 16ZM12 16C11.1716 16 10.5 15.3284 10.5 14.5C10.5 13.6716 11.1716 13 12 13C12.8284 13 13.5 13.6716 13.5 14.5C13.5 15.3284 12.8284 16 12 16ZM8 16C7.17157 16 6.5 15.3284 6.5 14.5C6.5 13.6716 7.17157 13 8 13C8.82843 13 9.5 13.6716 9.5 14.5C9.5 15.3284 8.82843 16 8 16ZM9 18H19C19.5523 18 20 18.4477 20 19C20 19.5523 19.5523 20 19 20H9C8.44772 20 8 19.5523 8 19C8 18.4477 8.44772 18 9 18Z" fill="#007AFF"/>
</svg>
