<svg width="216" height="116" viewBox="0 0 216 116" fill="none" xmlns="http://www.w3.org/2000/svg">
<path d="M24 48C37.2548 48 48 37.2548 48 24C48 10.7452 37.2548 0 24 0C10.7452 0 0 10.7452 0 24C0 37.2548 10.7452 48 24 48Z" fill="#E6E1E5"/>
<path d="M140 8C140 4.68629 137.314 2 134 2H78C74.6863 2 72 4.68629 72 8C72 11.3137 74.6863 14 78 14H134C137.314 14 140 11.3137 140 8Z" fill="#E6E1E5"/>
<path d="M216 26C216 23.7909 214.209 22 212 22H76C73.7909 22 72 23.7909 72 26C72 28.2091 73.7909 30 76 30H212C214.209 30 216 28.2091 216 26Z" fill="#E6E1E5"/>
<path d="M72 42C72 39.7909 73.7909 38 76 38H100C102.209 38 104 39.7909 104 42C104 44.2091 102.209 46 100 46H76C73.7909 46 72 44.2091 72 42Z" fill="#E6E1E5"/>
<path d="M24 116C37.2548 116 48 105.255 48 92C48 78.7452 37.2548 68 24 68C10.7452 68 0 78.7452 0 92C0 105.255 10.7452 116 24 116Z" fill="#F4EFF4"/>
<path d="M140 76C140 72.6863 137.314 70 134 70H78C74.6863 70 72 72.6863 72 76C72 79.3137 74.6863 82 78 82H134C137.314 82 140 79.3137 140 76Z" fill="#F4EFF4"/>
<path d="M216 94C216 91.7909 214.209 90 212 90H76C73.7909 90 72 91.7909 72 94C72 96.2091 73.7909 98 76 98H212C214.209 98 216 96.2091 216 94Z" fill="#F4EFF4"/>
<path d="M72 110C72 107.791 73.7909 106 76 106H100C102.209 106 104 107.791 104 110C104 112.209 102.209 114 100 114H76C73.7909 114 72 112.209 72 110Z" fill="#F4EFF4"/>
</svg>
