<svg width="203" height="203" viewBox="0 0 203 203" fill="none" xmlns="http://www.w3.org/2000/svg">
<rect x="0.943359" y="0.232178" width="202.032" height="202.032" rx="66.7216" fill="white"/>
<rect x="0.943359" y="0.232178" width="202.032" height="202.032" rx="66.7216" fill="url(#paint0_linear_55759_27406)"/>
<rect x="0.943359" y="0.232178" width="202.032" height="202.032" rx="66.7216" fill="url(#paint1_linear_55759_27406)"/>
<rect x="0.943359" y="0.232178" width="202.032" height="202.032" rx="66.7216" fill="url(#paint2_linear_55759_27406)"/>
<path fill-rule="evenodd" clip-rule="evenodd" d="M69.7418 39.7667C68.5546 39.1318 67.1495 38.7937 65.2675 38.7937H64.6716C62.7896 38.7937 61.3845 39.1318 60.1974 39.7667C59.0102 40.4016 58.0785 41.3333 57.4436 42.5204C56.8087 43.7076 56.4706 45.1127 56.4706 46.9947L56.4768 49.7503C53.6941 50.3939 51.6124 51.2815 49.5232 52.3988C44.7746 54.9384 41.0478 58.6651 38.5082 63.4137C35.9686 68.1623 34.6162 72.8725 34.6162 85.8616V127.709C34.6162 140.698 35.9686 145.408 38.5082 150.157C41.0478 154.905 44.7746 158.632 49.5232 161.172C54.2718 163.711 58.9819 165.064 71.971 165.064H133.244C146.234 165.064 150.944 163.711 155.692 161.172C160.441 158.632 164.168 154.905 166.707 150.157C169.247 145.408 170.599 140.698 170.599 127.709V85.8616C170.599 72.8725 169.247 68.1623 166.707 63.4137C164.168 58.6651 160.441 54.9384 155.692 52.3988C153.605 51.2827 151.526 50.3959 148.748 49.7524L148.745 46.9947C148.745 45.1127 148.407 43.7076 147.772 42.5204C147.137 41.3333 146.205 40.4016 145.018 39.7667C143.831 39.1318 142.426 38.7937 140.544 38.7937H139.948C138.066 38.7937 136.661 39.1318 135.474 39.7667C134.287 40.4016 133.355 41.3333 132.72 42.5204C132.085 43.7076 131.747 45.1127 131.747 46.9947V48.5068L73.4685 48.4971V46.9947C73.4685 45.1127 73.1304 43.7076 72.4955 42.5204C71.8606 41.3333 70.9289 40.4016 69.7418 39.7667ZM59.7076 84.9308H145.508C148.322 84.9308 149.343 85.2238 150.372 85.7741C151.4 86.3243 152.208 87.1318 152.758 88.1606C153.308 89.1895 153.601 90.21 153.601 93.0243V136.871L153.536 138.088C152.929 143.685 148.187 148.041 142.407 148.041L65.9064 147.873L64.3618 147.851C60.5328 147.741 58.9294 147.233 57.3145 146.367C55.4979 145.392 54.0728 143.964 53.1018 142.145C52.1309 140.326 51.6141 138.523 51.6141 133.55V93.0243L51.6319 91.9228C51.7031 89.9183 51.9857 89.0425 52.4574 88.1606C53.0076 87.1318 53.8151 86.3243 54.8439 85.7741C55.8728 85.2238 56.8933 84.9308 59.7076 84.9308ZM132.121 97.0721H126.516C123.269 97.0721 122.091 97.4103 120.904 98.0451C119.717 98.68 118.785 99.6117 118.15 100.799C117.515 101.986 117.177 103.164 117.177 106.411V112.016C117.177 115.263 117.515 116.441 118.15 117.628C118.785 118.815 119.717 119.747 120.904 120.382C122.091 121.017 123.269 121.355 126.516 121.355H132.121C135.369 121.355 136.546 121.017 137.733 120.382C138.92 119.747 139.852 118.815 140.487 117.628C141.122 116.441 141.46 115.263 141.46 112.016V106.411C141.46 103.164 141.122 101.986 140.487 100.799C139.852 99.6117 138.92 98.68 137.733 98.0451C136.546 97.4103 135.369 97.0721 132.121 97.0721Z" fill="white"/>
<defs>
<linearGradient id="paint0_linear_55759_27406" x1="202.975" y1="118.084" x2="148.277" y2="83.1623" gradientUnits="userSpaceOnUse">
<stop offset="0.12998" stop-color="#A033FF"/>
<stop offset="0.610381" stop-color="#0094FF"/>
<stop offset="1" stop-color="#F47734"/>
</linearGradient>
<linearGradient id="paint1_linear_55759_27406" x1="93.5413" y1="63.3671" x2="30.4063" y2="189.637" gradientUnits="userSpaceOnUse">
<stop stop-color="#FFD600" stop-opacity="0"/>
<stop offset="0.563347" stop-color="#FFC700"/>
</linearGradient>
<linearGradient id="paint2_linear_55759_27406" x1="110.377" y1="118.084" x2="181.93" y2="193.846" gradientUnits="userSpaceOnUse">
<stop offset="0.0297327" stop-color="#FF3B30" stop-opacity="0"/>
<stop offset="0.842824" stop-color="#E73B2D"/>
</linearGradient>
</defs>
</svg>
