<svg width="386" height="386" viewBox="0 0 386 386" fill="none" xmlns="http://www.w3.org/2000/svg">
<rect x="0.943359" y="0.943359" width="384.114" height="384.114" rx="126.855" fill="white"/>
<rect x="0.943359" y="0.943359" width="384.114" height="384.114" rx="126.855" fill="url(#paint0_linear_55502_32228)"/>
<rect x="0.943359" y="0.943359" width="384.114" height="384.114" rx="126.855" fill="url(#paint1_linear_55502_32228)"/>
<rect x="0.943359" y="0.943359" width="384.114" height="384.114" rx="126.855" fill="url(#paint2_linear_55502_32228)"/>
<path d="M191.487 82.3584C260.12 82.3584 315.758 130.409 315.758 189.683C315.758 248.957 260.12 297.008 191.487 297.008C177.415 297.008 163.89 294.988 151.279 291.266C137.186 302.226 115.329 311.428 85.7141 318.857C84.312 319.208 82.8285 319.012 81.5661 318.308C78.8281 316.78 77.847 313.321 79.375 310.583L81.4944 306.737C91.3294 288.64 97.4657 273.799 99.9032 262.212C79.6 243.115 67.2158 217.648 67.2158 189.683C67.2158 130.409 122.854 82.3584 191.487 82.3584Z" fill="white"/>
<defs>
<linearGradient id="paint0_linear_55502_32228" x1="385.057" y1="225.01" x2="281.061" y2="158.614" gradientUnits="userSpaceOnUse">
<stop offset="0.12998" stop-color="#A033FF"/>
<stop offset="0.610381" stop-color="#0094FF"/>
<stop offset="1" stop-color="#4FB500"/>
</linearGradient>
<linearGradient id="paint1_linear_55502_32228" x1="176.995" y1="120.979" x2="56.9599" y2="361.05" gradientUnits="userSpaceOnUse">
<stop stop-color="#FFD600" stop-opacity="0"/>
<stop offset="0.563347" stop-color="#FFC700"/>
</linearGradient>
<linearGradient id="paint2_linear_55502_32228" x1="209.005" y1="225.01" x2="345.045" y2="369.052" gradientUnits="userSpaceOnUse">
<stop offset="0.0297327" stop-color="#FF3B30" stop-opacity="0"/>
<stop offset="0.842824" stop-color="#E73B2D"/>
</linearGradient>
</defs>
</svg>
