<svg width="197" height="196" viewBox="0 0 197 196" fill="none" xmlns="http://www.w3.org/2000/svg">
<rect x="0.265625" width="196" height="196" rx="64.7295" fill="white"/>
<rect x="0.265625" width="196" height="196" rx="64.7295" fill="url(#paint0_linear_56449_2954)"/>
<rect x="0.265625" width="196" height="196" rx="64.7295" fill="url(#paint1_linear_56449_2954)"/>
<rect x="0.265625" width="196" height="196" rx="64.7295" fill="url(#paint2_linear_56449_2954)"/>
<path d="M33.1895 90.051C33.1895 78.0037 33.1895 71.98 35.534 67.3785C37.5964 63.331 40.8871 60.0402 44.9347 57.9779C49.5362 55.6333 55.5598 55.6333 67.6071 55.6333H95.5715C107.619 55.6333 113.642 55.6333 118.244 57.9779C122.292 60.0402 125.582 63.331 127.645 67.3785C129.989 71.98 129.989 78.0037 129.989 90.051V107.26C129.989 119.307 129.989 125.331 127.645 129.932C125.582 133.98 122.292 137.271 118.244 139.333C113.642 141.678 107.619 141.678 95.5715 141.678H67.6071C55.5598 141.678 49.5362 141.678 44.9347 139.333C40.8871 137.271 37.5964 133.98 35.534 129.932C33.1895 125.331 33.1895 119.307 33.1895 107.26V90.051Z" fill="white"/>
<path d="M140.745 85.111C140.745 84.1699 140.745 83.6993 140.885 83.2815C141.01 82.912 141.213 82.574 141.482 82.2909C141.785 81.9708 142.201 81.7505 143.032 81.3097L155 74.967C159.168 72.7575 161.253 71.6528 162.953 71.8753C164.438 72.0695 165.774 72.8736 166.641 74.0942C167.634 75.4926 167.634 77.8516 167.634 82.5696V114.741C167.634 119.459 167.634 121.818 166.641 123.217C165.774 124.437 164.438 125.241 162.953 125.435C161.253 125.658 159.168 124.553 155 122.344L143.032 116.001C142.201 115.56 141.785 115.34 141.482 115.02C141.213 114.737 141.01 114.399 140.885 114.029C140.745 113.611 140.745 113.141 140.745 112.2V85.111Z" fill="white"/>
<defs>
<linearGradient id="paint0_linear_56449_2954" x1="196.266" y1="114.333" x2="143.2" y2="80.4541" gradientUnits="userSpaceOnUse">
<stop offset="0.12998" stop-color="#A033FF"/>
<stop offset="0.610381" stop-color="#0094FF"/>
<stop offset="1" stop-color="#A84FF0"/>
</linearGradient>
<linearGradient id="paint1_linear_56449_2954" x1="90.099" y1="61.25" x2="28.8489" y2="183.75" gradientUnits="userSpaceOnUse">
<stop stop-color="#FFD600" stop-opacity="0"/>
<stop offset="0.563347" stop-color="#FFC700"/>
</linearGradient>
<linearGradient id="paint2_linear_56449_2954" x1="106.432" y1="114.333" x2="175.849" y2="187.833" gradientUnits="userSpaceOnUse">
<stop offset="0.0297327" stop-color="#FF3B30" stop-opacity="0"/>
<stop offset="0.842824" stop-color="#E73B2D"/>
</linearGradient>
</defs>
</svg>
