<svg width="388" height="388" viewBox="0 0 388 388" fill="none" xmlns="http://www.w3.org/2000/svg">
<rect x="0.783203" y="0.782715" width="386.435" height="386.435" rx="127.621" fill="white"/>
<rect x="0.783203" y="0.782715" width="386.435" height="386.435" rx="127.621" fill="url(#paint0_linear_55504_32414)"/>
<rect x="0.783203" y="0.782715" width="386.435" height="386.435" rx="127.621" fill="url(#paint1_linear_55504_32414)"/>
<rect x="0.783203" y="0.782715" width="386.435" height="386.435" rx="127.621" fill="url(#paint2_linear_55504_32414)"/>
<path fill-rule="evenodd" clip-rule="evenodd" d="M64.8534 135.296C55.6869 142.287 50.3076 153.154 50.3076 164.682V289.609C50.3076 314.101 70.1624 333.956 94.6546 333.956H292.904C317.396 333.956 337.251 314.101 337.251 289.609V164.682C337.251 153.154 331.872 142.287 322.705 135.296L216.189 54.0652C202.954 43.9718 184.605 43.9718 171.369 54.0652L64.8534 135.296ZM82.1902 162.02V287.912C82.1902 296.076 88.8085 302.695 96.9726 302.695H290.586C298.75 302.695 305.369 296.076 305.369 287.912V162.02L210.74 228.294C200.557 235.425 187.002 235.426 176.819 228.294L82.1902 162.02Z" fill="white"/>
<defs>
<linearGradient id="paint0_linear_55504_32414" x1="387.218" y1="226.203" x2="282.594" y2="159.407" gradientUnits="userSpaceOnUse">
<stop offset="0.12998" stop-color="#A033FF"/>
<stop offset="0.610381" stop-color="#0094FF"/>
<stop offset="1" stop-color="#1D90FF"/>
</linearGradient>
<linearGradient id="paint1_linear_55504_32414" x1="177.899" y1="121.544" x2="57.1382" y2="363.065" gradientUnits="userSpaceOnUse">
<stop stop-color="#FFD600" stop-opacity="0"/>
<stop offset="0.563347" stop-color="#FFC700"/>
</linearGradient>
<linearGradient id="paint2_linear_55504_32414" x1="210.102" y1="226.203" x2="346.964" y2="371.116" gradientUnits="userSpaceOnUse">
<stop offset="0.0297327" stop-color="#FF3B30" stop-opacity="0"/>
<stop offset="0.842824" stop-color="#E73B2D"/>
</linearGradient>
</defs>
</svg>
