<svg width="384" height="384" viewBox="0 0 384 384" fill="none" xmlns="http://www.w3.org/2000/svg">
<path d="M0.0761719 126.955C0.0761719 57.065 56.7336 0.407471 126.624 0.407471H256.713C326.604 0.407471 383.261 57.0649 383.261 126.955V257.045C383.261 326.935 326.604 383.593 256.713 383.593H126.624C56.7337 383.593 0.0761719 326.935 0.0761719 257.045V126.955Z" fill="white"/>
<path d="M0.0761719 126.955C0.0761719 57.065 56.7336 0.407471 126.624 0.407471H256.713C326.604 0.407471 383.261 57.0649 383.261 126.955V257.045C383.261 326.935 326.604 383.593 256.713 383.593H126.624C56.7337 383.593 0.0761719 326.935 0.0761719 257.045V126.955Z" fill="url(#paint0_linear_55504_32315)"/>
<path d="M0.0761719 126.955C0.0761719 57.065 56.7336 0.407471 126.624 0.407471H256.713C326.604 0.407471 383.261 57.0649 383.261 126.955V257.045C383.261 326.935 326.604 383.593 256.713 383.593H126.624C56.7337 383.593 0.0761719 326.935 0.0761719 257.045V126.955Z" fill="url(#paint1_linear_55504_32315)"/>
<path fill-rule="evenodd" clip-rule="evenodd" d="M190.533 224.502C190.533 223.336 190.504 222.17 190.448 221.005C190.39 219.84 190.305 218.676 190.19 217.516C190.075 216.355 189.933 215.197 189.762 214.044C189.591 212.89 189.391 211.741 189.164 210.597C188.936 209.452 188.681 208.315 188.397 207.183C188.114 206.051 187.802 204.928 187.464 203.812C187.125 202.696 186.76 201.588 186.367 200.489C185.974 199.392 185.554 198.303 185.107 197.226C184.661 196.148 184.189 195.082 183.69 194.027C183.191 192.972 182.667 191.932 182.117 190.903C181.567 189.873 180.992 188.859 180.392 187.858C179.792 186.858 179.169 185.873 178.521 184.903C177.872 183.932 177.201 182.98 176.506 182.043C175.811 181.106 175.094 180.187 174.354 179.285C173.614 178.382 172.853 177.499 172.069 176.636C171.285 175.771 170.482 174.927 169.657 174.101C168.831 173.277 167.988 172.473 167.123 171.689C166.259 170.906 165.376 170.144 164.474 169.404C163.572 168.664 162.653 167.947 161.716 167.252C160.779 166.557 159.826 165.886 158.855 165.238C157.885 164.589 156.9 163.966 155.9 163.366C154.899 162.766 153.885 162.192 152.855 161.642C151.827 161.091 150.786 160.567 149.731 160.069C148.676 159.57 147.61 159.098 146.533 158.651C145.455 158.205 144.367 157.784 143.269 157.391C142.17 156.998 141.063 156.633 139.947 156.295C138.831 155.956 137.707 155.645 136.575 155.362C135.444 155.077 134.306 154.823 133.161 154.594C132.017 154.367 130.869 154.168 129.714 153.996C128.561 153.826 127.403 153.683 126.243 153.568C125.082 153.454 123.918 153.368 122.754 153.311C121.589 153.254 120.422 153.225 119.256 153.225C118.09 153.225 116.924 153.254 115.759 153.311C114.594 153.368 113.431 153.454 112.27 153.568C111.109 153.683 109.951 153.826 108.798 153.996C107.644 154.168 106.495 154.367 105.351 154.594C104.207 154.823 103.069 155.077 101.937 155.362C100.806 155.645 99.6817 155.956 98.5655 156.295C97.4492 156.633 96.3419 156.998 95.2436 157.391C94.1452 157.784 93.0572 158.205 91.9795 158.651C90.9018 159.098 89.8357 159.57 88.7812 160.069C87.7267 160.567 86.6851 161.091 85.6563 161.642C84.6276 162.192 83.6129 162.766 82.6124 163.366C81.6118 163.966 80.6266 164.589 79.6567 165.238C78.6867 165.886 77.7333 166.557 76.7963 167.252C75.8594 167.947 74.9401 168.664 74.0383 169.404C73.1367 170.144 72.2536 170.906 71.3892 171.689C70.525 172.473 69.6805 173.277 68.8557 174.101C68.0307 174.927 67.2266 175.771 66.4432 176.636C65.6599 177.499 64.8983 178.382 64.1582 179.285C63.4182 180.187 62.7007 181.106 62.0058 182.043C61.3109 182.98 60.6394 183.932 59.9914 184.903C59.3433 185.873 58.7194 186.858 58.1197 187.858C57.52 188.859 56.9452 189.873 56.3953 190.903C55.8455 191.932 55.3211 192.972 54.8224 194.027C54.3236 195.082 53.851 196.148 53.4046 197.226C52.9582 198.303 52.5385 199.392 52.1455 200.489C51.7526 201.588 51.3868 202.696 51.0482 203.812C50.7096 204.928 50.3986 206.051 50.115 207.183C49.8316 208.315 49.5761 209.452 49.3485 210.597C49.121 211.741 48.9216 212.89 48.7505 214.044C48.5793 215.197 48.4366 216.355 48.3222 217.516C48.2078 218.676 48.1221 219.84 48.0649 221.005C48.0076 222.17 47.979 223.336 47.979 224.502C47.979 225.668 48.0076 226.834 48.0649 228C48.1221 229.165 48.2078 230.327 48.3222 231.489C48.4366 232.649 48.5793 233.807 48.7505 234.961C48.9216 236.115 49.121 237.263 49.3485 238.408C49.5761 239.552 49.8316 240.69 50.115 241.822C50.3986 242.953 50.7096 244.077 51.0482 245.193C51.3868 246.309 51.7526 247.417 52.1455 248.514C52.5385 249.613 52.9582 250.701 53.4046 251.779C53.851 252.856 54.3236 253.922 54.8224 254.977C55.3211 256.031 55.8455 257.073 56.3953 258.102C56.9452 259.13 57.52 260.146 58.1197 261.145C58.7194 262.146 59.3433 263.132 59.9914 264.101C60.6394 265.072 61.3109 266.025 62.0058 266.962C62.7007 267.899 63.4182 268.818 64.1582 269.72C64.8983 270.622 65.6599 271.505 66.4432 272.369C67.2266 273.233 68.0307 274.078 68.8557 274.903C69.6805 275.728 70.525 276.531 71.3892 277.315C72.2536 278.098 73.1367 278.86 74.0383 279.6C74.9401 280.34 75.8594 281.057 76.7963 281.752C77.7333 282.447 78.6867 283.118 79.6567 283.767C80.6266 284.415 81.6118 285.039 82.6124 285.638C83.6129 286.238 84.6276 286.813 85.6563 287.363C86.6851 287.913 87.7267 288.437 88.7812 288.936C89.8357 289.435 90.9018 289.907 91.9795 290.354C93.0572 290.8 94.1452 291.22 95.2436 291.613C96.3419 292.006 97.4492 292.371 98.5655 292.71C99.6817 293.048 100.806 293.36 101.937 293.643C103.069 293.926 104.207 294.182 105.351 294.41C106.495 294.637 107.644 294.837 108.798 295.007C109.951 295.179 111.109 295.322 112.27 295.436C113.431 295.55 114.594 295.637 115.759 295.693C116.924 295.75 118.09 295.78 119.256 295.78H233.3V224.502H190.533Z" fill="white"/>
<path d="M233.303 295.78C288.415 295.78 333.092 251.104 333.092 195.992C333.092 140.88 288.415 96.2041 233.303 96.2041C178.193 96.2041 133.516 140.88 133.516 195.992C133.516 251.104 178.193 295.78 233.303 295.78Z" fill="white"/>
<defs>
<linearGradient id="paint0_linear_55504_32315" x1="383.261" y1="223.932" x2="279.517" y2="157.697" gradientUnits="userSpaceOnUse">
<stop offset="0.12998" stop-color="#A033FF"/>
<stop offset="0.610381" stop-color="#0094FF"/>
<stop offset="1" stop-color="#FF4759"/>
</linearGradient>
<linearGradient id="paint1_linear_55504_32315" x1="175.703" y1="120.153" x2="55.9573" y2="359.643" gradientUnits="userSpaceOnUse">
<stop stop-color="#FFD600" stop-opacity="0"/>
<stop offset="0.563347" stop-color="#FFC700"/>
</linearGradient>
</defs>
</svg>
