<svg width="203" height="203" viewBox="0 0 203 203" fill="none" xmlns="http://www.w3.org/2000/svg">
<rect y="0.199219" width="202.032" height="202.032" rx="66.7216" fill="white"/>
<rect y="0.199219" width="202.032" height="202.032" rx="66.7216" fill="url(#paint0_linear_55782_2842)"/>
<rect y="0.199219" width="202.032" height="202.032" rx="66.7216" fill="url(#paint1_linear_55782_2842)"/>
<rect y="0.199219" width="202.032" height="202.032" rx="66.7216" fill="url(#paint2_linear_55782_2842)"/>
<rect y="0.199219" width="202.032" height="202.032" rx="66.7216" fill="url(#paint3_linear_55782_2842)" fill-opacity="0.2"/>
<path fill-rule="evenodd" clip-rule="evenodd" d="M42.0036 54.245C39 60.1391 39 67.8556 39 83.2881V119.11C39 134.543 39 142.259 42.0036 148.153C44.6452 153.338 48.8607 157.554 54.0458 160.196C59.9399 163.199 67.6564 163.199 83.0889 163.199H118.911C134.344 163.199 142.06 163.199 147.954 160.196C153.139 157.554 157.355 153.338 159.996 148.153C163 142.259 163 134.543 163 119.11V83.2881C163 67.8556 163 60.1391 159.996 54.245C157.355 49.06 153.139 44.8444 147.954 42.2028C142.06 39.1992 134.344 39.1992 118.911 39.1992H83.0889C67.6564 39.1992 59.9399 39.1992 54.0458 42.2028C48.8607 44.8444 44.6452 49.06 42.0036 54.245ZM101 66.7548C110.515 66.7548 118.222 74.4616 118.222 83.977C118.222 93.4924 110.515 101.199 101 101.199C91.4846 101.199 83.7778 93.4924 83.7778 83.977C83.7778 74.4616 91.4846 66.7548 101 66.7548ZM66.5556 131.317V127.165C66.5556 112.328 89.5043 108.088 101 108.088C112.496 108.088 135.444 112.328 135.444 127.165V131.317C135.444 133.707 133.507 135.644 131.117 135.644H70.8827C68.4927 135.644 66.5556 133.707 66.5556 131.317Z" fill="white"/>
<defs>
<linearGradient id="paint0_linear_55782_2842" x1="202.032" y1="118.051" x2="147.333" y2="83.1293" gradientUnits="userSpaceOnUse">
<stop offset="0.12998" stop-color="#A033FF"/>
<stop offset="0.610381" stop-color="#0094FF"/>
<stop offset="1" stop-color="#FF008A"/>
</linearGradient>
<linearGradient id="paint1_linear_55782_2842" x1="92.598" y1="63.3342" x2="29.463" y2="189.604" gradientUnits="userSpaceOnUse">
<stop stop-color="#FFD600" stop-opacity="0"/>
<stop offset="0.563347" stop-color="#FFC700"/>
</linearGradient>
<linearGradient id="paint2_linear_55782_2842" x1="109.434" y1="118.051" x2="180.987" y2="193.813" gradientUnits="userSpaceOnUse">
<stop offset="0.0297327" stop-color="#FF3B30" stop-opacity="0"/>
<stop offset="0.842824" stop-color="#E73B2D"/>
</linearGradient>
<linearGradient id="paint3_linear_55782_2842" x1="101.016" y1="0.199219" x2="101.016" y2="202.231" gradientUnits="userSpaceOnUse">
<stop stop-color="white"/>
<stop offset="1" stop-opacity="0"/>
</linearGradient>
</defs>
</svg>
