<svg width="952" height="136" viewBox="0 0 952 136" fill="none" xmlns="http://www.w3.org/2000/svg">
<path d="M641.584 134.611C629.731 134.611 618.923 131.822 609.161 126.244C599.516 120.55 591.904 112.88 586.326 103.234C580.748 93.5888 577.959 83.0137 577.959 71.5089C577.959 59.8878 580.632 49.2546 585.977 39.6092C591.439 29.8475 598.993 22.1776 608.638 16.5995C618.284 10.9052 629.266 8.05809 641.584 8.05809C651.462 8.05809 659.945 9.62693 667.034 12.7646C674.239 15.7861 680.631 20.6088 686.209 27.2328L668.952 42.2239C661.63 34.554 652.508 30.7191 641.584 30.7191C633.914 30.7191 627.174 32.5785 621.363 36.2972C615.553 39.8997 611.079 44.8386 607.941 51.114C604.804 57.2731 603.235 64.0714 603.235 71.5089C603.235 78.9463 604.804 85.7446 607.941 91.9037C611.195 98.0629 615.727 102.944 621.538 106.546C627.465 110.149 634.321 111.95 642.107 111.95C653.496 111.95 662.792 107.999 669.997 100.097L687.778 115.262C682.897 121.189 676.505 125.895 668.603 129.382C660.817 132.868 651.811 134.611 641.584 134.611Z" fill="url(#paint0_linear_57236_3783)"/>
<path d="M695.989 5.09474H719.522V54.2516C724.403 44.49 733.525 39.6092 746.89 39.6092C753.397 39.6092 759.266 41.178 764.495 44.3157C769.725 47.3371 773.85 51.695 776.872 57.3893C779.893 62.9674 781.404 69.4752 781.404 76.9126V132.345H757.871V82.665C757.871 75.1114 756.128 69.4752 752.642 65.7565C749.156 62.0377 744.391 60.1784 738.348 60.1784C733.002 60.1784 728.528 62.0958 724.926 65.9308C721.323 69.6495 719.522 75.2276 719.522 82.665V132.345H695.989V5.09474Z" fill="url(#paint1_linear_57236_3783)"/>
<path d="M835.865 134.611C827.731 134.611 820.235 132.519 813.379 128.336C806.522 124.036 801.06 118.283 796.993 111.078C793.042 103.873 791.066 95.9711 791.066 87.3716C791.066 78.772 793.042 70.8697 796.993 63.6647C801.06 56.3434 806.522 50.5329 813.379 46.2331C820.235 41.9334 827.731 39.7835 835.865 39.7835C843.303 39.7835 849.288 41.178 853.82 43.967C858.468 46.7561 862.071 50.7653 864.627 55.9948V41.7009H887.986V132.345H865.15V117.528C862.477 122.99 858.817 127.232 854.168 130.253C849.636 133.158 843.535 134.611 835.865 134.611ZM814.599 87.1972C814.599 91.8456 815.645 96.2035 817.736 100.271C819.944 104.222 822.908 107.418 826.627 109.858C830.461 112.182 834.819 113.345 839.7 113.345C844.697 113.345 849.113 112.182 852.948 109.858C856.899 107.534 859.921 104.396 862.013 100.445C864.104 96.494 865.15 92.1362 865.15 87.3716C865.15 82.6069 864.104 78.249 862.013 74.2979C859.921 70.2305 856.899 67.0348 852.948 64.7106C849.113 62.2702 844.697 61.0499 839.7 61.0499C834.819 61.0499 830.461 62.2702 826.627 64.7106C822.792 67.0348 819.828 70.1724 817.736 74.1236C815.645 78.0747 814.599 82.4326 814.599 87.1972Z" fill="url(#paint2_linear_57236_3783)"/>
<path d="M936.308 132.345C927.127 132.345 920.212 130.079 915.564 125.547C910.916 121.014 908.591 113.926 908.591 104.28V61.7472H895.866V41.7009H908.591V23.3978L932.124 20.9574V41.7009H951.299V61.7472H932.124V103.06C932.124 108.638 934.564 111.427 939.445 111.427H949.207V132.345H936.308Z" fill="url(#paint3_linear_57236_3783)"/>
<path d="M36.3883 28.3829H0V5.45824H98.2484V28.3829H61.8601V132.817H36.3883V28.3829Z" fill="black"/>
<path d="M80.5461 38.2077H109.293L121.483 91.8805C122.817 97.3387 123.788 102.13 124.394 106.254C125.243 101.038 126.274 96.1864 127.487 91.6985L141.315 38.2077H169.516L184.253 91.6985C185.466 96.1864 186.497 101.038 187.346 106.254C187.952 102.13 188.923 97.3387 190.257 91.8805L203.357 38.2077H230.102L200.628 132.817H174.064L158.599 78.9626C157.143 74.596 156.052 69.8656 155.324 64.7712C154.475 70.3507 153.505 75.0812 152.413 78.9626L138.222 132.817H110.021L80.5461 38.2077Z" fill="black"/>
<path d="M274.03 135.183C265.539 135.183 257.715 132.999 250.559 128.633C243.403 124.145 237.702 118.141 233.457 110.62C229.333 103.1 227.271 94.8522 227.271 85.8764C227.271 76.9006 229.333 68.6526 233.457 61.1324C237.702 53.4908 243.403 47.4261 250.559 42.9382C257.715 38.4503 265.539 36.2064 274.03 36.2064C281.792 36.2064 288.039 37.6619 292.77 40.573C297.621 43.484 301.381 47.6687 304.05 53.1269V38.2077H328.43V132.817H304.596V117.352C301.806 123.053 297.985 127.48 293.133 130.634C288.403 133.666 282.035 135.183 274.03 135.183ZM251.833 85.6945C251.833 90.5462 252.924 95.0948 255.108 99.3401C257.412 103.464 260.505 106.8 264.387 109.347C268.389 111.773 272.938 112.986 278.032 112.986C283.248 112.986 287.857 111.773 291.86 109.347C295.984 106.921 299.137 103.646 301.321 99.522C303.504 95.398 304.596 90.8495 304.596 85.8764C304.596 80.9033 303.504 76.3548 301.321 72.2308C299.137 67.9855 295.984 64.6499 291.86 62.224C287.857 59.6768 283.248 58.4032 278.032 58.4032C272.938 58.4032 268.389 59.6768 264.387 62.224C260.384 64.6499 257.291 67.9248 255.108 72.0489C252.924 76.1729 251.833 80.7214 251.833 85.6945Z" fill="black"/>
<path d="M367.586 87.8778V132.817H343.024V0H367.586V76.4155L403.065 38.2077H437.997L393.422 82.2376L438.179 132.817H405.612L367.586 87.8778Z" fill="black"/>
<path d="M477.877 135.183C468.294 135.183 459.804 132.999 452.405 128.633C445.006 124.145 439.244 118.141 435.12 110.62C430.996 103.1 428.934 94.7915 428.934 85.6945C428.934 76.7187 431.057 68.41 435.302 60.7685C439.548 53.1269 445.37 47.0622 452.769 42.5743C460.289 38.0864 468.658 35.8425 477.877 35.8425C487.095 35.8425 495.343 38.0864 502.621 42.5743C510.02 47.0622 515.72 53.1269 519.723 60.7685C523.847 68.2887 525.909 76.5974 525.909 85.6945C525.909 88.7268 525.667 91.6379 525.181 94.4277H454.406C455.862 100.129 458.591 104.738 462.594 108.255C466.718 111.651 471.812 113.35 477.877 113.35C482.971 113.35 487.52 112.197 491.522 109.893C495.525 107.467 498.679 104.374 500.983 100.614L520.087 114.987C516.206 121.052 510.505 125.964 502.985 129.724C495.464 133.363 487.095 135.183 477.877 135.183ZM501.165 76.0516C499.71 70.5933 496.859 66.0448 492.614 62.406C488.369 58.7671 483.335 56.9477 477.513 56.9477C471.812 56.9477 466.839 58.7065 462.594 62.224C458.47 65.7416 455.74 70.3507 454.406 76.0516H501.165Z" fill="black"/>
<defs>
<linearGradient id="paint0_linear_57236_3783" x1="765.016" y1="-39" x2="765.016" y2="172" gradientUnits="userSpaceOnUse">
<stop stop-color="#B666FA"/>
<stop offset="1" stop-color="#A347EC"/>
</linearGradient>
<linearGradient id="paint1_linear_57236_3783" x1="765.016" y1="-39" x2="765.016" y2="172" gradientUnits="userSpaceOnUse">
<stop stop-color="#B666FA"/>
<stop offset="1" stop-color="#A347EC"/>
</linearGradient>
<linearGradient id="paint2_linear_57236_3783" x1="765.016" y1="-39" x2="765.016" y2="172" gradientUnits="userSpaceOnUse">
<stop stop-color="#B666FA"/>
<stop offset="1" stop-color="#A347EC"/>
</linearGradient>
<linearGradient id="paint3_linear_57236_3783" x1="765.016" y1="-39" x2="765.016" y2="172" gradientUnits="userSpaceOnUse">
<stop stop-color="#B666FA"/>
<stop offset="1" stop-color="#A347EC"/>
</linearGradient>
</defs>
</svg>
