<svg width="28" height="28" viewBox="0 0 28 28" fill="none" xmlns="http://www.w3.org/2000/svg">
    <path
        d="M15.3467 5.8335C16.9069 5.8335 17.4726 5.99594 18.043 6.30098C18.6133 6.60602 19.061 7.05365 19.366 7.62402C19.6711 8.19439 19.8335 8.76014 19.8335 10.3203V17.68C19.8335 19.2402 19.6711 19.8059 19.366 20.3763C19.061 20.9467 18.6133 21.3943 18.043 21.6993C17.4726 22.0044 16.9069 22.1668 15.3467 22.1668H6.8203C5.26014 22.1668 4.69439 22.0044 4.12402 21.6993C3.55365 21.3943 3.10602 20.9467 2.80098 20.3763C2.49594 19.8059 2.3335 19.2402 2.3335 17.68V10.3203C2.3335 8.76014 2.49594 8.19439 2.80098 7.62402C3.10602 7.05365 3.55365 6.60602 4.12402 6.30098C4.69439 5.99594 5.26014 5.8335 6.8203 5.8335H15.3467ZM26.5997 9.21322C26.7514 9.41528 26.8335 9.66115 26.8335 9.91386V18.0865C26.8335 18.7309 26.3112 19.2532 25.6668 19.2532C25.4141 19.2532 25.1682 19.1711 24.9662 19.0194L22.3998 17.0918C22.2531 16.9817 22.1668 16.8089 22.1668 16.6254V11.3749C22.1668 11.1914 22.2531 11.0187 22.3998 10.9085L24.9662 8.981C25.4814 8.59405 26.2127 8.69802 26.5997 9.21322Z"
        fill="#007AFF" />
</svg>
