<svg width="28" height="28" viewBox="0 0 28 28" fill="none" xmlns="http://www.w3.org/2000/svg">
    <path
        d="M16.4636 17.8021C18.0435 16.2221 20.5306 16.0765 22.1845 17.467L23.3795 18.4737C24.7432 19.6214 24.8819 21.6903 23.6869 23.0935C23.0352 23.8474 22.1178 24.321 21.1258 24.4157C17.3073 24.9301 13.3016 23.09 9.10627 18.8944C4.911 14.6988 3.06993 10.6916 3.58422 6.87389C3.61095 6.57518 3.67302 6.2807 3.76914 5.99663C3.99154 5.34404 4.38414 4.76267 4.90637 4.3126C6.31058 3.11864 8.37817 3.25618 9.5258 4.6212L10.5313 5.81632C11.9239 7.46798 11.7795 9.95646 10.1996 11.5365L9.34204 12.3929C9.11341 12.622 9.03855 12.9629 9.15019 13.2667C9.46224 14.1197 10.2585 15.1854 11.5368 16.4637C12.8161 17.7432 13.8817 18.5384 14.7335 18.8516C15.0375 18.963 15.3784 18.8877 15.6072 18.6586L16.4636 17.8021Z"
        fill="#007AFF" />
</svg>
