<svg width="44" height="44" viewBox="0 0 44 44" fill="none" xmlns="http://www.w3.org/2000/svg">
<mask id="mask0_8262_146900" style="mask-type:alpha" maskUnits="userSpaceOnUse" x="0" y="4" width="40" height="40">
<rect y="4" width="40" height="40" fill="#D9D9D9"/>
</mask>
<g mask="url(#mask0_8262_146900)">
<path d="M8.44033 38.1666C7.724 38.1666 7.11044 37.9112 6.59966 37.4005C6.08888 36.8897 5.8335 36.2761 5.8335 35.5598V12.4402C5.8335 11.7239 6.08888 11.1103 6.59966 10.5995C7.11044 10.0888 7.724 9.83337 8.44033 9.83337H31.5599C32.2762 9.83337 32.8898 10.0888 33.4006 10.5995C33.9114 11.1103 34.1667 11.7239 34.1667 12.4402V35.5598C34.1667 36.2761 33.9114 36.8897 33.4006 37.4005C32.8898 37.9112 32.2762 38.1666 31.5599 38.1666H8.44033ZM8.44033 36.0727H31.5599C31.6881 36.0727 31.8057 36.0192 31.9125 35.9124C32.0194 35.8055 32.0728 35.688 32.0728 35.5598V12.4402C32.0728 12.312 32.0194 12.1945 31.9125 12.0876C31.8057 11.9808 31.6881 11.9273 31.5599 11.9273H8.44033C8.31211 11.9273 8.19458 11.9808 8.08775 12.0876C7.98088 12.1945 7.92745 12.312 7.92745 12.4402V35.5598C7.92745 35.688 7.98088 35.8055 8.08775 35.9124C8.19458 36.0192 8.31211 36.0727 8.44033 36.0727ZM12.4746 31.9786H27.6817C27.9359 31.9786 28.124 31.8607 28.2458 31.625C28.3676 31.3892 28.3505 31.1581 28.1945 30.9316L24.0792 25.4327C23.9417 25.2547 23.769 25.1656 23.561 25.1656C23.353 25.1656 23.1803 25.2547 23.0428 25.4327L18.639 31.0598L15.7672 27.3227C15.6298 27.1553 15.4579 27.0716 15.2517 27.0716C15.0456 27.0716 14.8737 27.1607 14.7362 27.3387L11.9842 30.9316C11.8132 31.1581 11.7887 31.3892 11.9105 31.625C12.0323 31.8607 12.2203 31.9786 12.4746 31.9786Z" fill="#1C1B1F"/>
</g>
<g clip-path="url(#clip0_8262_146900)">
<rect x="24" width="20" height="20" rx="10" fill="white"/>
<mask id="mask1_8262_146900" style="mask-type:alpha" maskUnits="userSpaceOnUse" x="24" y="0" width="20" height="20">
<rect x="24" width="20" height="20" rx="10" fill="#D9D9D9"/>
</mask>
<g mask="url(#mask1_8262_146900)">
<path d="M33.9954 13.7756C34.1613 13.7756 34.3018 13.7195 34.4169 13.6073C34.532 13.4951 34.5895 13.3561 34.5895 13.1903C34.5895 13.0244 34.5334 12.8839 34.4213 12.7688C34.3091 12.6537 34.1701 12.5962 34.0042 12.5962C33.8384 12.5962 33.6979 12.6523 33.5828 12.7644C33.4676 12.8766 33.4101 13.0157 33.4101 13.1815C33.4101 13.3473 33.4662 13.4878 33.5784 13.603C33.6906 13.7181 33.8296 13.7756 33.9954 13.7756ZM33.9957 11.0641C34.148 11.0641 34.2771 11.0122 34.3828 10.9084C34.4886 10.8046 34.5415 10.6759 34.5415 10.5225V6.60575C34.5415 6.45229 34.4899 6.32365 34.3869 6.21983C34.2839 6.11601 34.1562 6.0641 34.0039 6.0641C33.8516 6.0641 33.7226 6.11601 33.6168 6.21983C33.5111 6.32365 33.4582 6.45229 33.4582 6.60575V10.5225C33.4582 10.6759 33.5097 10.8046 33.6127 10.9084C33.7157 11.0122 33.8434 11.0641 33.9957 11.0641ZM34.007 17.5833C32.9637 17.5833 31.9812 17.386 31.0595 16.9912C30.1377 16.5965 29.3309 16.0534 28.639 15.3619C27.9471 14.6703 27.4038 13.8642 27.0089 12.9434C26.614 12.0226 26.4165 11.0388 26.4165 9.99185C26.4165 8.94494 26.6139 7.96406 27.0086 7.04923C27.4033 6.13438 27.9464 5.33104 28.638 4.63919C29.3295 3.94733 30.1357 3.40394 31.0564 3.00904C31.9772 2.61414 32.9611 2.41669 34.008 2.41669C35.0549 2.41669 36.0358 2.61405 36.9506 3.00877C37.8654 3.40349 38.6688 3.94662 39.3606 4.63815C40.0525 5.32969 40.5959 6.13422 40.9908 7.05175C41.3857 7.96928 41.5831 8.94965 41.5831 9.99285C41.5831 11.0361 41.3858 12.0186 40.991 12.9404C40.5963 13.8621 40.0532 14.669 39.3617 15.3608C38.6701 16.0527 37.8656 16.5961 36.9481 16.991C36.0305 17.3859 35.0502 17.5833 34.007 17.5833Z" fill="#FF3347"/>
</g>
</g>
<defs>
<clipPath id="clip0_8262_146900">
<rect x="24" width="20" height="20" rx="10" fill="white"/>
</clipPath>
</defs>
</svg>
