<svg width="106" height="126" viewBox="0 0 106 126" fill="none" xmlns="http://www.w3.org/2000/svg">
<g clip-path="url(#clip0_40503_516)">
<path d="M102.522 70.8469C100.203 68.195 96.3986 66.5193 92.9184 66.3377C90.2209 66.1901 86.1303 67.4661 84.127 69.3688C83.9659 69.521 83.8117 69.6776 83.6574 69.8366L83.6166 69.7571C83.0403 68.6196 82.6387 67.3254 81.974 66.1243C81.3501 64.9936 80.6604 64.0081 80.0342 62.9024C87.3214 59.0221 92.9501 52.2037 95.5683 44.3773C96.3578 42.0182 94.7561 41.4983 93.6761 39.6887C92.687 37.9631 91.5526 35.5563 91.0149 33.6491C91.4188 32.5729 91.9088 31.4717 92.265 30.3523C94.8196 22.3192 95.2098 13.5618 91.9632 5.66498C89.2544 -0.919515 84.4832 -0.974008 78.6934 1.51448C75.7781 2.7678 71.1998 5.78532 69.3621 8.55535C67.8874 8.09216 66.2766 7.6267 64.7543 7.3497C59.4908 6.43241 54.0776 6.98642 49.109 8.95496C48.6757 8.41003 48.0995 7.90144 47.5776 7.36333C43.8637 3.52842 34.5415 -2.66327 29.371 1.27834C26.6417 3.36041 25.8023 10.315 25.5641 13.5641C25.0355 19.6536 26.2243 27.4506 28.6859 33.027C28.3433 33.8171 28.1527 34.4528 27.8963 35.2793C25.8341 35.738 22.4514 36.1376 21.2739 38.0607C20.5751 39.2028 20.6681 40.5923 20.7475 41.8683C20.7952 42.6358 18.3586 42.5881 17.8776 42.7357C16.5844 43.133 15.4818 44.2024 14.7331 45.2923C13.8846 46.5274 13.3605 47.9533 12.9227 49.386C11.144 55.1985 10.6517 61.3448 10.8899 67.4185C10.9262 68.3471 10.9806 69.2803 11.2211 70.1771C11.5954 71.5735 12.4077 72.8019 12.8138 74.1869C13.0134 74.8658 13.12 75.3993 13.1745 76.0759C13.238 76.882 13.3628 77.6971 13.4513 78.5054C12.1468 79.4159 10.688 80.3808 9.36982 81.2822C7.64784 82.4584 5.97351 83.6617 4.30145 84.9105C3.51193 85.5008 2.65662 86.0707 1.95104 86.7587C1.613 87.0902 1.38386 87.4308 1.20236 87.869C0.167813 90.3734 0.238144 99.2488 1.3226 101.742C1.64249 102.48 2.13708 102.87 2.87215 103.154C3.17843 103.27 3.48471 103.386 3.79326 103.495C4.18575 107.016 4.68714 116.176 4.68714 116.176C4.23566 116.65 2.52503 117.767 2.45243 118.296C2.44336 118.362 2.44789 118.385 2.491 118.435C2.67477 118.648 8.73684 120.544 9.55585 120.667C9.09984 121.112 8.11974 121.965 8.00177 122.535C8.1878 122.817 13.3061 124.311 14.0185 124.538C15.1324 123.509 15.9106 122.515 16.9565 121.457C18.0682 121.688 20.9109 122.753 22.161 123.166C22.533 122.719 23.2318 121.818 23.4791 121.298C24.4842 121.341 26.7415 121.645 27.708 121.877C27.3042 122.878 26.7983 123.795 26.3808 124.874C27.0705 125.067 27.9803 125.135 28.6972 125.228C30.0562 125.407 31.4469 125.528 32.8013 125.743C33.2732 125.133 34.0242 123.709 34.419 122.98C35.1472 123.932 39.6597 124.084 40.7624 123.807C40.7192 124.64 40.7351 124.154 40.5831 125.094C41.7833 125.371 45.2045 126.145 46.5045 125.966L47.0082 124.483C49.987 124.797 56.2964 124.965 57.3514 124.71C58.0706 124.538 66.2947 120.088 68.5998 118.378C72.5565 120.178 77.2301 119.761 81.0347 117.724C83.9705 116.153 85.1321 113.605 85.9579 110.54C86.5614 108.167 86.9153 103.937 86.7429 101.51C91.5208 101.646 95.6182 99.133 98.9805 95.9316C105.517 89.7058 109.065 78.3442 102.52 70.8424L102.522 70.8469Z" fill="#2F0085"/>
<path d="M31.8099 36.4803C32.1479 34.5935 32.3861 32.432 32.9828 30.6156C35.0156 24.4148 39.3761 18.4774 44.5602 14.5812C49.9666 10.4716 56.8 8.72099 63.5132 9.7291C75.6669 11.4615 82.6364 20.4119 87.1353 31.0719C88.6894 34.7547 90.1165 39.4297 92.4805 42.5857L93.0318 43.3078C92.0154 46.877 89.6809 50.8345 87.2692 53.6386C86.8472 54.1268 86.3866 54.7761 85.9647 55.2302C85.2614 55.9727 84.5399 56.529 83.7753 57.1761C80.3609 60.0732 76.2567 62.1644 71.9484 63.3609C70.5214 63.756 69.0784 64.2237 67.5584 64.3464C67.7331 63.1248 67.2771 62.707 66.6259 61.7466L66.3287 61.5718C65.3191 60.9565 63.3521 60.6772 62.1633 60.3366C61.7663 60.2231 61.2853 60.1754 60.9246 59.9779L61.0766 59.7713C61.2036 59.7259 61.3262 59.6736 61.4464 59.6123C64.4003 58.0956 64.9584 54.4333 65.8863 51.6337C66.9753 50.8549 67.8193 50.6392 68.3093 49.2792C68.0915 48.6389 67.631 47.7852 66.8687 47.6944C65.8954 47.5877 65.6753 48.8569 64.9289 49.3246C62.7124 50.7142 59.9218 50.8095 58.3042 48.5799C59.9354 47.8783 61.3284 47.1063 62.0295 45.4057C63.1548 42.6697 60.7544 41.4596 58.4653 41.2393C56.7569 41.0758 54.9873 41.1212 53.431 41.8183C51.8973 42.504 51.4912 43.9707 52.3057 45.3648C53.4514 47.5196 54.8988 47.9532 57.0632 48.6389C56.1784 49.4472 55.289 50.201 54.0299 50.1988C52.2194 50.1965 51.464 48.539 50.3477 47.456L50.2819 47.3924L49.5718 47.6921C49.4289 46.5659 49.4198 45.6873 48.3603 45.0356C44.8914 43.7687 38.0149 43.4758 34.4189 42.6425C34.2397 42.6016 32.2636 37.3999 31.8121 36.4826L31.8099 36.4803Z" fill="#FE80DD"/>
<path d="M68.3093 51.334C68.1936 50.9934 68.0076 50.5915 67.7444 50.2782C67.2634 50.8322 66.6327 51.1024 65.8863 51.6337C64.9584 54.4332 64.398 58.0956 61.4464 59.6123C61.3261 59.6736 61.2036 59.7258 61.0766 59.7712L60.9246 59.9778C61.2853 60.1776 61.764 60.2231 62.1633 60.3366C62.397 60.4024 62.6624 60.4683 62.9415 60.5318C64.6339 58.7291 65.1421 55.9318 65.8863 53.6885C66.9753 52.9097 67.8193 52.694 68.3093 51.334Z" fill="#EDCEFB"/>
<path d="M32.9828 32.6681C35.0156 26.4673 39.3761 20.5299 44.5602 16.6337C49.9666 12.5241 56.8 10.7735 63.5132 11.7816C75.6669 13.5141 82.6364 22.4644 87.1353 33.1245C88.6894 36.8073 90.1165 41.4823 92.4805 44.6383L92.5599 44.7427C92.7369 44.2591 92.8979 43.78 93.0318 43.3078L92.4805 42.5857C90.1165 39.4297 88.6871 34.7547 87.1353 31.0719C82.6364 20.4119 75.6669 11.4615 63.5132 9.7291C56.8 8.72099 49.9643 10.4716 44.5602 14.5812C39.3761 18.4774 35.0156 24.4148 32.9828 30.6156C32.3884 32.432 32.1502 34.5935 31.8099 36.4803C31.8689 36.6007 31.9551 36.7936 32.0572 37.0389C32.2931 35.5608 32.5381 34.0191 32.9805 32.6704L32.9828 32.6681Z" fill="#FE9DDD"/>
<path d="M62.0294 47.4581C62.4083 46.5386 62.3879 45.7938 62.1065 45.199C62.0816 45.2671 62.0566 45.3352 62.0294 45.4056C61.3306 47.1062 59.9376 47.8782 58.3041 48.5798C58.7352 49.1769 59.2525 49.6038 59.8174 49.8876C60.7748 49.3222 61.5575 48.6002 62.0271 47.4604L62.0294 47.4581Z" fill="#EDCEFB"/>
<path d="M52.3056 45.3626C52.2398 45.2514 52.1854 45.1379 52.1355 45.0266C51.7725 45.7282 51.8201 46.5865 52.3056 47.4175C53.0634 48.8433 53.955 49.5154 55.0984 50.0059C55.8358 49.7311 56.4506 49.1975 57.0632 48.639C54.8965 47.9533 53.4513 47.5196 52.3056 45.3649V45.3626Z" fill="#EDCEFB"/>
<path d="M85.9533 53.616C85.9488 52.9734 85.9011 52.5943 85.8058 51.9653L85.7559 51.7701C85.7287 51.6588 85.7015 51.5498 85.6697 51.4409C85.0753 49.2294 83.2671 47.2449 81.2774 46.1415C78.8385 44.7905 75.8642 44.5657 73.1395 44.9858C72.1662 45.1356 70.8911 45.5239 69.9201 45.7941C68.5226 44.0526 67.9078 42.6403 65.9476 41.3371C61.2966 38.2446 54.3929 37.7837 50.4044 42.2294C49.5922 43.1353 49.05 44.0435 48.358 45.0357C49.4175 45.6851 49.4266 46.5638 49.5695 47.6922L50.2797 47.3925L50.3454 47.4561C51.4639 48.5369 52.2172 50.1943 54.0276 50.1989C55.2868 50.1989 56.1738 49.4473 57.0609 48.639C54.8943 47.9533 53.4491 47.5197 52.3034 45.365C51.4889 43.9709 51.895 42.5041 53.4287 41.8184C54.985 41.1214 56.7546 41.0759 58.463 41.2394C60.7522 41.4597 63.1525 42.6698 62.0272 45.4058C61.3284 47.1064 59.9354 47.8784 58.3019 48.58C59.9173 50.8119 62.7101 50.7143 64.9266 49.3247C65.673 48.857 65.8931 47.5878 66.8664 47.6945C67.6287 47.7876 68.0915 48.6413 68.307 49.2816C67.817 50.6394 66.973 50.8573 65.884 51.6361C64.9561 54.4357 64.3957 58.098 61.4418 59.6124C61.3216 59.6737 61.1991 59.726 61.072 59.7714C59.6541 59.8191 58.5401 59.3445 57.2016 58.9449C56.4007 58.7065 54.9896 58.4999 54.3951 57.8778C52.9182 56.3338 52.9477 53.6478 52.2988 51.7701C50.8491 50.6257 50.2343 50.5985 49.379 48.8706C49.2247 51.0708 48.9729 54.7762 48.3807 56.8311C53.0271 58.8677 58.59 60.0506 63.4633 61.5265C64.0759 61.7127 64.9607 61.6854 65.6254 61.8375C65.8341 61.8148 66.6713 61.8171 66.6713 61.8171C67.3224 62.7775 67.7308 63.1272 67.5561 64.3487C69.0739 64.2239 70.5191 63.7584 71.9461 63.3633C76.2544 62.1668 80.3586 60.0756 83.773 57.1784C84.5353 56.5313 85.2591 55.9773 85.9624 55.2326C85.9011 54.8512 85.9533 54.0542 85.951 53.6183L85.9533 53.616Z" fill="#F9F8F8"/>
<path d="M85.7582 51.7677L85.8058 51.963C85.9011 52.5919 85.9488 52.9711 85.9533 53.6136C85.9533 54.0496 85.9011 54.8465 85.9647 55.228C85.2614 55.9704 84.5399 56.5267 83.7753 57.1738C80.3609 60.071 76.2567 62.1621 71.9484 63.3587C70.5214 63.7537 69.0784 64.2192 67.5584 64.3441C67.7331 63.1226 66.7302 62.7404 66.0791 61.78C68.3115 61.6755 74.0969 59.8939 76.1161 58.8994C78.9157 57.5189 82.1577 55.4096 84.4128 53.2345C84.8235 52.8394 85.5699 52.2876 85.7582 51.7677Z" fill="#D6BAEA"/>
<path d="M92.4805 42.5835L93.0318 43.3055C92.0154 46.8748 89.6809 50.8323 87.2692 53.6364C86.8473 54.1245 86.3867 54.7739 85.9647 55.228C85.9035 54.8466 85.9556 54.0496 85.9534 53.6137C85.9488 52.9711 85.9012 52.5919 85.8059 51.963C85.9125 51.7541 86.9947 50.7165 87.2511 50.4168C89.5856 47.6876 91.1306 45.9779 92.4805 42.5835Z" fill="#EC45CE"/>
<path d="M70.5237 29.0898C77.5477 28.47 78.8771 41.4687 72.747 42.9241C66.6509 43.8209 64.6567 32.9202 68.9083 29.8981C69.539 29.4508 69.7636 29.2465 70.5237 29.0898Z" fill="#2F0085"/>
<path d="M70.333 33.1608C70.6166 33.179 71.0227 33.1926 71.2746 33.3334C72.3318 33.9169 72.5178 35.6221 71.937 36.5961C71.6603 37.0616 71.3744 37.2228 70.8639 37.3499C68.3615 37.1615 68.5044 33.6172 70.3308 33.1586L70.333 33.1608Z" fill="#F9F8F8"/>
<path d="M46.0915 28.6494C51.1939 28.7493 52.165 37.2206 49.5196 40.3993C48.5622 41.5482 47.7772 41.8593 46.3456 42.05C45.3134 41.9433 44.576 41.7435 43.7479 41.085C40.0363 38.1243 40.6556 29.1716 46.0915 28.6517V28.6494Z" fill="#2F0085"/>
<path d="M46.6859 32.5502C48.8798 32.4979 49.6761 35.881 47.3847 36.7983C45.3315 37.0412 44.6078 33.883 46.6859 32.5502Z" fill="#F9F8F8"/>
<path d="M70.8253 19.8125C71.0431 19.7966 71.2609 19.7853 71.4787 19.7785C73.1667 19.7308 75.744 20.8229 76.0729 22.8573C76.1002 23.0208 75.9618 23.1479 75.8597 23.2524C75.1269 23.5316 73.9312 22.8255 73.1145 22.5144C72.2751 22.2692 71.9302 22.2647 71.0817 22.3124C70.172 22.3623 68.6111 23.0412 67.8215 22.6802C67.4563 22.3328 67.5516 21.747 67.851 21.3905C68.6247 20.4664 69.6615 20.0237 70.8276 19.8125H70.8253Z" fill="#2F0085"/>
<path d="M45.6084 20.4187C47.2668 20.2007 49.2679 20.6639 50.0506 22.3963C50.1141 22.5348 50.0687 22.7777 49.9712 22.9026C49.5764 23.4021 48.8799 23.1546 48.3581 23.0615C47.2872 22.8118 46.686 22.7255 45.6084 22.9457C44.4831 23.2409 43.106 24.2694 42.3164 24.1582C41.5315 23.7291 42.0828 22.721 42.5547 22.2646C43.5189 21.3291 44.3084 20.7524 45.6106 20.4187H45.6084Z" fill="#2F0085"/>
<path d="M3.07403 89.338C3.0831 88.8907 3.192 88.1914 3.51643 87.9325C4.7665 86.9381 12.7547 80.8644 13.821 80.7645L13.9322 80.8803C13.9821 81.3185 14.0048 81.6409 14.0184 82.0814C12.6753 83.0873 10.5767 84.5404 9.38339 85.5894C9.35162 85.9572 9.49002 86.2569 9.62614 86.5998C10.604 86.8313 11.7542 86.8472 12.757 86.8836C15.366 86.9789 17.9887 86.9903 20.5955 87.1015C28.341 87.5057 36.091 87.8009 43.8455 87.9825C45.9328 88.037 48.1039 88.1778 50.1821 88.1914C51.0941 87.4784 51.9653 86.711 52.7889 85.8959C54.7604 86.3909 56.8182 87.3558 58.8873 87.4875C59.1595 87.2832 59.4091 87.0539 59.6654 86.8291C60.219 86.0685 60.5389 84.8038 60.9813 83.8615C61.4351 84.1204 61.823 84.3383 62.2518 84.6426C62.9256 84.8946 63.2795 85.0013 63.9987 85.0603C64.761 85.0195 65.2601 84.99 66.0224 84.8855C66.4921 84.7606 66.9662 84.6494 67.4427 84.554C67.7104 85.3215 67.8578 86.1116 67.9781 86.9131C68.1936 88.3435 68.8039 94.2854 68.3003 95.4366C68.0393 96.0315 66.7689 96.7058 66.2334 97.0691C63.6357 98.8356 60.9972 100.611 58.125 101.912C57.104 102.378 56.3848 102.643 55.2981 102.957L54.8784 103.059C53.9573 103.193 52.6369 103.175 51.6999 103.175C50.2456 103.186 48.7914 103.168 47.3394 103.122L36.454 102.734C30.8502 102.55 25.2487 102.312 19.6494 102.026C14.7058 101.805 9.55354 101.587 4.64626 100.981C4.1063 100.845 3.92934 100.786 3.42341 100.554C3.34627 100.275 3.28048 99.9731 3.21469 99.6893C2.54995 97.4869 2.5318 91.4019 3.07629 89.3335L3.07403 89.338Z" fill="#9C89B5"/>
<path d="M66.0202 84.8901C66.4898 84.7652 66.964 84.654 67.4404 84.5586C67.7081 85.326 67.8556 86.1162 67.9758 86.9177C68.1913 88.3481 68.8016 94.29 68.298 95.4412C68.0371 96.036 66.7666 96.7104 66.2312 97.0737C63.6334 98.8401 60.9949 100.616 58.1227 101.917C57.6236 100.007 57.0791 94.3808 58.007 92.6371C59.037 90.7071 63.0776 87.3967 64.8835 85.9936C65.2964 85.6734 65.9385 85.3124 66.0179 84.8901H66.0202Z" fill="#7A6292"/>
<path d="M63.9965 85.0647C64.7588 85.0239 65.2579 84.9943 66.0202 84.8899C65.9385 85.3122 65.2987 85.6732 64.8858 85.9934C63.0799 87.3965 59.037 90.707 58.0093 92.6369C57.0791 94.3806 57.6236 100.007 58.125 101.916C57.104 102.382 56.6299 102.577 55.5409 102.891C55.3957 100.227 55.3072 97.6888 55.3072 95.0436C55.3072 93.8357 55.4025 92.6551 56.0241 91.5879C56.9656 89.9713 62.2654 86.8289 63.9352 85.1283L63.9965 85.0647Z" fill="#9C89B5"/>
<path d="M60.9813 83.866C61.4351 84.1248 61.823 84.3428 62.2518 84.647C61.3285 85.1738 61.5621 86.6473 59.9513 87.7554C59.7358 87.7508 59.7108 87.7576 59.4953 87.6963L59.4522 87.5964C59.6995 87.2763 59.847 87.2014 59.6677 86.8335C60.2213 86.0729 60.5412 84.8082 60.9836 83.866H60.9813Z" fill="#9C89B5"/>
<path d="M59.6655 86.8336C59.8447 87.2014 59.6972 87.2764 59.4499 87.5965L59.493 87.6987C59.7086 87.76 59.7313 87.7532 59.9491 87.7554C59.2639 87.9121 58.9213 87.9235 58.2203 87.8531C58.4744 87.7804 58.665 87.6351 58.8896 87.4921C59.1618 87.2877 59.4114 87.0584 59.6677 86.8336H59.6655Z" fill="#9C89B5"/>
<path d="M67.9781 86.9175C67.8579 86.116 67.7104 85.3259 67.4427 84.5584C66.9662 84.6561 66.4921 84.7651 66.0224 84.8899C65.2602 84.9944 64.761 85.0239 63.9987 85.0648C63.2818 85.0057 62.9256 84.899 62.2518 84.647C61.823 84.3427 61.4351 84.1248 60.9813 83.8659C60.5412 84.8082 60.2213 86.0729 59.6654 86.8335C59.4091 87.0605 59.1618 87.2876 58.8873 87.4919C56.8182 87.3603 54.7604 86.3953 52.7889 85.9003C51.9653 86.7154 51.0941 87.4806 50.1821 88.1958C48.104 88.1799 45.9328 88.0414 43.8455 87.9869C36.091 87.8053 28.341 87.5101 20.5955 87.106C17.9887 86.9924 15.3661 86.9833 12.757 86.888C11.7542 86.8517 10.604 86.8358 9.62615 86.6042C9.48775 86.2591 9.34936 85.9616 9.38339 85.5938C10.5745 84.5471 12.6753 83.0917 14.0184 82.0858C14.0048 81.6454 13.9322 80.694 13.88 80.2535C13.88 80.2535 4.69164 86.8539 3.51417 87.9347C2.20283 89.1381 2.54541 97.4936 3.21242 99.696C3.27822 99.9798 3.34401 100.282 3.42115 100.561C3.92481 100.793 4.10404 100.849 4.644 100.988C4.6803 100.606 4.69618 98.815 4.67576 98.3632C4.59408 96.5558 4.53056 94.7485 4.48745 92.9389C4.4693 92.1987 4.40578 90.766 4.46477 90.0395C4.51695 90.0485 4.56686 90.0554 4.6145 90.0622C11.2733 91.118 18.6625 91.513 25.4166 91.9921C32.706 92.5779 40.0136 92.9389 47.3258 93.0729C49.708 93.116 52.1854 93.2091 54.5585 93.1433C54.5903 94.0401 54.7786 102.82 54.8739 103.065L55.2936 102.963C56.3826 102.65 57.0995 102.387 58.1204 101.919C60.9927 100.618 63.6312 98.8423 66.2289 97.0758C66.7643 96.7125 68.0348 96.0359 68.2957 95.4433C68.7994 94.2921 68.1891 88.3502 67.9736 86.9198L67.9781 86.9175Z" fill="#D6BAEA"/>
<path d="M50.4181 96.9397C52.1831 96.7694 52.5597 98.738 51.2688 99.3624C49.4788 99.6711 49.2406 97.6799 50.4181 96.9397Z" fill="#9C89B5"/>
<path d="M84.1951 73.6486C84.186 73.5873 84.152 73.2967 84.1656 73.2672C85.4384 70.3564 90.7495 68.3561 93.5083 68.9328C96.7027 69.6003 98.8988 70.6765 100.655 72.9493C102.776 75.1222 103.216 77.3155 103.191 80.2331C103.175 81.9269 102.715 84.9331 101.889 86.3703C100.319 90.4345 97.3016 94.4715 93.5582 96.767C93.261 96.9986 92.7891 97.2211 92.4533 97.43C90.6429 98.5607 88.7439 99.3554 86.5863 98.8786C86.2506 97.9817 85.8603 94.7621 85.5994 93.5383C85.4724 92.7482 85.0413 91.4427 84.819 90.6593C84.0839 88.0619 83.1515 85.6279 82.1328 83.1303C82.7567 82.0654 83.0948 81.1958 83.5031 80.0379C84.1248 77.9354 84.2155 75.8238 84.1974 73.6509L84.1951 73.6486Z" fill="#FE80DD"/>
<path d="M84.195 73.6486C84.1859 73.5873 84.1519 73.2967 84.1655 73.2672C85.4383 70.3564 90.7494 68.3561 93.5082 68.9328C96.7026 69.6003 98.8987 70.6765 100.655 72.9493C102.776 75.1222 103.216 77.3155 103.191 80.2331C103.175 81.9269 102.715 84.9331 101.889 86.3703C101.664 85.9911 101.505 85.5393 101.281 85.1238C100.838 84.3087 100.358 83.539 99.8697 82.7511L99.7858 82.6535C97.0474 78.889 92.5054 75.3152 87.9702 74.1232C86.7315 73.7985 85.47 73.7031 84.195 73.6463V73.6486Z" fill="#9E23FE"/>
<path d="M100.655 72.9517C102.776 75.1245 103.216 77.3179 103.191 80.2355C103.175 81.9293 102.715 84.9354 101.889 86.3727C101.664 85.9935 101.505 85.5417 101.281 85.1262C100.838 84.3111 100.357 83.5413 99.8697 82.7535C100.074 81.8475 100.485 80.9144 100.698 80.0084C101.317 77.3769 100.934 75.4651 100.657 72.9517H100.655Z" fill="#812DF6"/>
<path d="M82.1305 83.1281C82.7544 82.0632 83.0924 81.1936 83.5008 80.0356C84.4922 80.794 85.6652 81.6023 86.6022 82.372C89.3859 84.6539 91.2236 87.8371 92.5485 91.1521L92.5213 91.1861C93.0726 92.7346 93.3176 94.3376 93.4651 95.9679C93.4878 96.2335 93.4991 96.5037 93.5559 96.7671C93.2587 96.9987 92.7868 97.2212 92.451 97.4301C90.6405 98.5608 88.7416 99.3555 86.584 98.8787C86.2483 97.9818 85.858 94.7622 85.5971 93.5384C85.4701 92.7483 85.039 91.4427 84.8167 90.6594C84.0816 88.0619 83.1492 85.6279 82.1305 83.1304V83.1281Z" fill="#9E23FE"/>
<path d="M85.5995 93.5384C86.8677 93.2069 87.9817 93.0707 89.2771 92.5712C89.9464 92.3146 92.0404 91.1975 92.5237 91.1862C93.075 92.7346 93.3223 94.3376 93.4675 95.9679C93.4902 96.2335 93.5015 96.5037 93.5582 96.7671C93.261 96.9987 92.7891 97.2212 92.4534 97.4301C90.6429 98.5608 88.744 99.3555 86.5864 98.8787C86.2506 97.9818 85.8604 94.7622 85.5995 93.5384Z" fill="#812DF6"/>
<path d="M99.7836 82.6559L99.8675 82.7535C100.355 83.5414 100.836 84.3111 101.279 85.1262C101.503 85.5417 101.662 85.9935 101.887 86.3704C100.317 90.4347 97.2993 94.4716 93.5559 96.7671C93.4992 96.5038 93.4878 96.2336 93.4652 95.9679C93.32 94.3377 93.0727 92.7347 92.5214 91.1862L92.5486 91.1521C92.5962 91.1521 92.6643 91.1612 92.7074 91.134C95.659 89.1927 98.7173 86.1093 99.7859 82.6559H99.7836Z" fill="#EC45CE"/>
<path d="M74.1809 87.1288C77.196 87.0697 78.2101 86.3977 80.7443 85.0104C80.919 85.494 81.0665 86.0208 81.2162 86.5157C83.4963 93.2206 84.4378 100.743 83.6869 107.788C83.2445 111.934 81.8628 114.804 77.5976 116.06C75.3561 116.72 72.0936 117.293 70.0245 115.871C69.9996 114.711 70.1493 112.763 70.2423 111.566L70.2968 111.498C70.991 110.62 72.7402 109.421 73.0125 108.44C72.8809 107.622 70.898 108.372 70.3127 108.524L70.2491 108.492C70.0177 104.859 69.682 102.187 69.176 98.5812C71.5106 96.5673 70.805 91.2452 70.6189 88.3844C70.5531 88.1641 70.51 86.7019 70.4964 86.3954C71.7919 86.7087 72.865 86.9812 74.1809 87.1288Z" fill="#9E23FE"/>
<path d="M26.4398 73.9415C25.5368 73.5919 24.7519 72.9879 24.1711 72.1841C23.3725 71.0829 23.0526 69.7365 23.2658 68.3946L26.8391 45.9551C27.0524 44.611 27.7761 43.4326 28.8764 42.6334C29.9768 41.8342 31.3221 41.514 32.663 41.7274L49.0296 44.3385C50.3727 44.552 51.5502 45.2762 52.3488 46.3774C53.1474 47.4786 53.4673 48.8251 53.254 50.1669L49.6808 72.6064C49.4675 73.9506 48.7438 75.129 47.6434 75.9282C46.5431 76.7274 45.1977 77.0476 43.8569 76.8341L27.4902 74.2231C27.1272 74.1663 26.7756 74.0709 26.4421 73.9392L26.4398 73.9415ZM49.3359 46.525C49.1363 46.4478 48.9253 46.3911 48.7075 46.3547L32.3408 43.7437C30.6823 43.478 29.1169 44.6133 28.8537 46.273L25.2805 68.7125C25.1534 69.5163 25.344 70.3223 25.8227 70.9808C26.3014 71.6392 27.0047 72.0729 27.8101 72.2023L44.1768 74.8134C45.8352 75.079 47.4007 73.9438 47.6638 72.284L51.2371 49.8445C51.3642 49.0408 51.1736 48.2347 50.6949 47.5763C50.3455 47.0949 49.8759 46.7339 49.3359 46.525Z" fill="#2F0085"/>
<path d="M47.6637 72.2862L51.237 49.8467C51.364 49.043 51.1735 48.2369 50.6948 47.5785C50.3454 47.0971 49.8758 46.7361 49.3358 46.5272C49.1361 46.45 48.9251 46.3933 48.7074 46.3569L32.3407 43.7458C30.6822 43.4802 29.1168 44.6154 28.8536 46.2752L25.2804 68.7147C25.1533 69.5185 25.3439 70.3245 25.8226 70.9829C26.3013 71.6414 27.0046 72.0751 27.81 72.2045L44.1767 74.8156C45.8351 75.0812 47.4006 73.946 47.6637 72.2862Z" fill="#5298FA"/>
<path d="M51.237 49.8445C51.3641 49.0408 51.1735 48.2347 50.6948 47.5763C50.3454 47.0949 49.8758 46.7339 49.3358 46.525C49.1362 46.4478 48.9252 46.3911 48.7074 46.3547L32.3407 43.7436C30.6823 43.478 29.1168 44.6132 28.8537 46.273L27.4312 55.2052C33.0054 54.8578 43.5936 54.5195 50.2025 56.3268L51.2348 49.8422L51.237 49.8445Z" fill="#8FCBF9"/>
<path d="M28.5701 48.0666C28.8355 46.4069 30.3374 45.6599 31.9959 45.9233L48.3625 48.5344C48.5803 48.5684 48.7891 48.6252 48.991 48.7046C49.5309 48.9135 50.0006 49.2745 50.35 49.7559C50.8264 50.4143 51.0192 51.2204 50.8922 52.0241L51.2393 49.8467C51.3664 49.043 51.1758 48.2369 50.6971 47.5785C50.3477 47.0971 49.8781 46.7361 49.3381 46.5272C49.1385 46.45 48.9275 46.3933 48.7097 46.3569L32.343 43.7458C30.6845 43.4802 29.1191 44.6154 28.8559 46.2752L28.5701 48.0666Z" fill="#DEEDF9"/>
<path d="M45.3291 65.3435L29.6483 62.8411C28.8205 62.709 28.0424 63.2735 27.9104 64.102L27.1687 68.7567C27.0367 69.5852 27.6008 70.3639 28.4286 70.496L44.1094 72.9983C44.9372 73.1304 45.7152 72.5659 45.8472 71.7375L46.5889 67.0827C46.7209 66.2543 46.1569 65.4756 45.3291 65.3435Z" fill="#F9F8F8"/>
<path d="M42.7905 51.7835C43.1649 51.7994 43.7593 51.8539 44.0951 52.0037C44.4127 52.4442 42.9335 56.8853 42.6771 57.7095C42.389 58.6291 41.9193 60.9745 41.1253 61.4854C39.7844 62.3459 38.464 61.9304 37.6133 60.6045C37.6337 58.4929 39.2785 58.3793 40.9256 58.6087C41.393 57.2668 41.7174 56.6061 42.0328 55.187C41.0413 55.0371 37.822 54.7874 36.8487 54.7897C36.5016 54.8646 35.6236 58.1591 35.4239 58.7086C35.1925 59.4919 35.1199 59.9233 34.5822 60.5386C33.1121 62.2233 29.6205 60.3002 31.347 58.3612C31.9845 57.646 33.4728 57.73 34.3644 57.8026C34.7796 56.7332 35.8278 52.2467 36.3904 51.7199C36.556 51.5633 36.7852 51.4815 37.0075 51.4497C37.6723 51.3521 38.4482 51.4747 39.1174 51.5201C40.3426 51.5996 41.5654 51.6881 42.7883 51.7858L42.7905 51.7835Z" fill="#F9F8F8"/>
<path d="M32.2658 67.2775C32.132 67.5704 31.9391 68.0132 31.6873 68.6081C31.617 68.817 31.5489 69.0236 31.4808 69.2302C31.3606 69.4868 31.1972 69.598 30.9885 69.564C30.8592 69.5435 30.7616 69.4822 30.7004 69.3823C30.6482 69.296 30.6301 69.2007 30.6459 69.0985C30.6936 68.792 30.8206 68.4287 31.0203 68.0086C31.3198 67.3797 31.4831 67.0301 31.5103 66.9619C31.6124 66.6804 31.7145 66.3966 31.8166 66.115C31.9663 65.7268 32.1002 65.4747 32.2204 65.359C32.3407 65.2409 32.4768 65.1955 32.6288 65.2182C32.8012 65.2454 32.9124 65.3521 32.9669 65.5406C33.0168 65.7177 33.044 66.0674 33.0485 66.5896C33.0531 67.0959 33.0916 67.6476 33.1665 68.2425C33.4705 67.7157 33.77 67.1322 34.0627 66.4897L34.3258 65.863C34.471 65.6087 34.6503 65.4997 34.8635 65.5338C35.07 65.5656 35.197 65.7472 35.2469 66.0787C35.2674 66.2127 35.2742 66.4556 35.2674 66.8075C35.2492 67.6295 35.2764 68.3424 35.3513 68.9441C35.4262 69.5549 35.4602 69.8864 35.4511 69.9363C35.433 70.0476 35.374 70.1338 35.2742 70.1952C35.1789 70.2496 35.0813 70.2701 34.977 70.2519C34.7705 70.2201 34.6412 70.0476 34.589 69.7365L34.5391 69.0258C34.5028 68.6716 34.4824 68.1676 34.4778 67.5137C34.3531 67.7543 34.1489 68.129 33.8653 68.6398L33.6112 69.1348C33.5091 69.3301 33.4093 69.4868 33.3117 69.6071C33.1847 69.766 33.0304 69.8319 32.8512 69.8046C32.6742 69.7774 32.5539 69.6502 32.4927 69.4254L32.4178 68.8737C32.3475 68.3674 32.2953 67.8361 32.2636 67.2844L32.2658 67.2775Z" fill="#6BB8FD"/>
<path d="M36.9554 68.7013C36.9236 68.6967 36.8442 68.6763 36.7194 68.6445C36.665 68.9079 36.5901 69.3415 36.4948 69.9455C36.4789 70.0454 36.429 70.1271 36.3496 70.1862C36.2679 70.2475 36.1749 70.2679 36.066 70.252C35.9594 70.2339 35.8754 70.1839 35.8164 70.1022C35.7575 70.0182 35.7348 69.9273 35.7507 69.8274L35.8777 69.0373C35.9253 68.7444 36.0116 68.313 36.1409 67.7454C36.2702 67.1664 36.3587 66.735 36.4063 66.4466C36.4857 65.9562 36.6627 65.7428 36.9327 65.8064C36.9985 65.7995 37.0915 65.8018 37.2049 65.8109C37.3206 65.82 37.459 65.8381 37.6201 65.8631C37.9899 65.9221 38.3189 66.097 38.6047 66.3899C38.9223 66.7168 39.0517 67.071 38.9904 67.457C38.9133 67.9406 38.6614 68.2948 38.2304 68.5196C37.8515 68.7172 37.425 68.7785 36.9554 68.7035V68.7013ZM37.4386 66.5829C37.3773 66.5738 37.3252 66.5647 37.2775 66.5579C37.2321 66.5511 37.1913 66.5488 37.1595 66.5465C37.1459 66.6351 37.1232 66.7691 37.0937 66.9462C37.0574 67.155 36.9871 67.4797 36.8828 67.9179C36.9758 67.9475 37.0393 67.9656 37.0711 67.9724C37.366 68.0201 37.6224 67.9883 37.8379 67.8793C38.0693 67.7635 38.2054 67.5819 38.244 67.3367C38.269 67.1755 38.1941 67.0165 38.0194 66.8621C37.8515 66.7123 37.6564 66.6192 37.4363 66.5829H37.4386Z" fill="#6BB8FD"/>
<path d="M41.5904 68.708C41.9443 68.9873 42.085 69.3665 42.0078 69.8455C41.9466 70.2315 41.7515 70.5358 41.4248 70.7583C41.0958 70.9808 40.7283 71.0603 40.3199 70.9944C40.0159 70.9467 39.7527 70.84 39.5281 70.6788C39.2695 70.4904 39.1129 70.2565 39.0562 69.975C39.0471 69.9318 39.0471 69.8887 39.0539 69.8433C39.0698 69.7366 39.1265 69.6571 39.2241 69.6003C39.3126 69.5481 39.4101 69.5299 39.5122 69.5481C39.6302 69.5663 39.7187 69.6298 39.7754 69.7366C39.8707 69.9182 39.9251 70.0181 39.9433 70.0363C40.0454 70.1498 40.211 70.2247 40.4401 70.261C40.6194 70.2906 40.785 70.261 40.937 70.1748C41.089 70.0885 41.1775 69.9704 41.2024 69.8183C41.2773 69.3483 41.0028 69.0304 40.3811 68.8669C40.1066 68.7966 39.9864 68.6581 40.0204 68.4514C40.0454 68.2948 40.1724 68.1971 40.397 68.1608C40.608 68.1472 40.819 68.1336 41.0277 68.1199C41.1616 68.1018 41.2659 68.0632 41.3408 68.011C41.4157 67.9565 41.4611 67.8861 41.4769 67.7975C41.5291 67.516 41.3317 67.3412 40.8848 67.2685C40.7373 67.2458 40.5672 67.2753 40.3743 67.3593C40.1815 67.4433 40.0522 67.4819 39.9864 67.4706C39.8797 67.4524 39.7935 67.4002 39.73 67.3094C39.6665 67.2208 39.6438 67.1255 39.6597 67.0278C39.6846 66.8666 39.8684 66.7327 40.2132 66.6237C40.5195 66.526 40.76 66.492 40.9392 66.5215C41.368 66.5896 41.697 66.7372 41.9284 66.9643C42.1802 67.214 42.2778 67.5273 42.2165 67.9065C42.1825 68.1154 42.1145 68.2857 42.0124 68.4197C41.908 68.5536 41.7696 68.649 41.5949 68.7103L41.5904 68.708Z" fill="#6BB8FD"/>
<path d="M70.4942 86.3953C71.7896 86.7087 72.8627 86.9811 74.1786 87.1287C74.2217 87.7054 74.2648 88.2549 74.3601 88.8293V88.8906C74.6029 90.5004 74.6687 92.1102 74.7095 93.7336C74.8479 99.1193 73.6545 104.217 70.3081 108.522L70.2446 108.49C70.0132 104.857 69.6774 102.185 69.1715 98.5789C71.506 96.565 70.8005 91.2429 70.6144 88.382C70.5486 88.1618 70.5055 86.6996 70.4919 86.3931L70.4942 86.3953Z" fill="#FE80DD"/>
<path d="M9.85526 76.0031C8.88651 76.0031 7.93818 75.7261 7.10555 75.1857C5.96438 74.4478 5.17713 73.308 4.89127 71.9798L0.115572 49.765C-0.17029 48.4345 0.0792717 47.0745 0.816612 45.9324C1.55395 44.7903 2.69286 44.0025 4.02007 43.7164L20.2234 40.2289C21.5529 39.9428 22.9119 40.1926 24.053 40.9305C25.1942 41.6684 25.9815 42.8082 26.2673 44.1364L31.043 66.3512C31.3289 67.6817 31.0793 69.0417 30.342 70.1838C29.6046 71.3259 28.4657 72.1137 27.1385 72.3998L10.9352 75.8873C10.5767 75.9645 10.2137 76.0031 9.85526 76.0031ZM21.2988 42.1566C21.0833 42.1566 20.8677 42.1793 20.6522 42.2247L4.44886 45.7122C2.8063 46.0664 1.75814 47.6898 2.11206 49.3337L6.88776 71.5484C7.05791 72.3453 7.52981 73.0265 8.2127 73.467C8.89559 73.9097 9.71007 74.0573 10.5064 73.887L26.7097 70.3995C28.3523 70.0453 29.4004 68.4219 29.0465 66.778L24.2708 44.5633C24.1007 43.7663 23.6288 43.0852 22.9459 42.6447C22.4468 42.3223 21.8796 42.1566 21.2988 42.1566Z" fill="#2F0085"/>
<path d="M29.0441 66.7803L24.2684 44.5656C24.0983 43.7686 23.6264 43.0875 22.9435 42.647C22.4444 42.3246 21.8772 42.1588 21.2964 42.1588C21.0809 42.1588 20.8653 42.1815 20.6498 42.2269L4.44648 45.7144C2.80391 46.0686 1.75576 47.6921 2.10968 49.3359L6.88537 71.5506C7.05553 72.3476 7.52743 73.0287 8.21032 73.4692C8.89321 73.912 9.70768 74.0596 10.504 73.8893L26.7073 70.4018C28.3499 70.0476 29.3981 68.4241 29.0441 66.7803Z" fill="#E5650E"/>
<path d="M24.2684 44.5632C24.0983 43.7663 23.6264 43.0851 22.9435 42.6447C22.4444 42.3222 21.8772 42.1565 21.2964 42.1565C21.0809 42.1565 20.8653 42.1792 20.6498 42.2246L4.44648 45.7121C2.80391 46.0663 1.75576 47.6897 2.10968 49.3336L4.01088 58.175C9.08378 55.8341 18.8303 51.6881 25.6478 50.982L24.2684 44.5632Z" fill="#ECAA42"/>
<path d="M2.57482 51.4906C2.2209 49.8467 3.26905 48.2233 4.91162 47.8691L21.115 44.3816C21.3305 44.3362 21.546 44.3135 21.7615 44.3135C22.3423 44.3135 22.9095 44.4792 23.4086 44.8016C24.0915 45.2444 24.5634 45.9256 24.7336 46.7202L24.2708 44.5632C24.1006 43.7663 23.6287 43.0851 22.9458 42.6447C22.4467 42.3222 21.8795 42.1565 21.2987 42.1565C21.0832 42.1565 20.8677 42.1792 20.6521 42.2246L4.4488 45.7121C2.80623 46.0663 1.75808 47.6897 2.112 49.3336L2.57482 51.4906Z" fill="#EEBFA5"/>
<path d="M24.3632 61.1512L8.83937 64.4932C8.01987 64.6696 7.49844 65.4775 7.67472 66.2976L8.66522 70.9058C8.8415 71.726 9.64875 72.2478 10.4683 72.0714L25.9921 68.7294C26.8116 68.553 27.333 67.7451 27.1567 66.925L26.1662 62.3168C25.9899 61.4966 25.1827 60.9748 24.3632 61.1512Z" fill="#F9F8F8"/>
<path d="M12.7797 67.5387C12.7593 67.8725 12.7389 68.3765 12.7184 69.0486C12.7298 69.2779 12.7411 69.505 12.7525 69.7298C12.7321 70.0227 12.6141 70.193 12.4008 70.2406C12.267 70.2702 12.1513 70.2475 12.0537 70.1725C11.9698 70.109 11.9176 70.0227 11.8949 69.916C11.8268 69.6004 11.8109 69.2007 11.8472 68.7171C11.9017 67.9928 11.9289 67.5932 11.9289 67.516C11.9198 67.2027 11.913 66.8916 11.9085 66.5783C11.9085 66.1469 11.9425 65.8495 12.0151 65.6905C12.0877 65.5316 12.2012 65.434 12.3577 65.4022C12.5347 65.3636 12.6844 65.4249 12.8069 65.5861C12.9204 65.7382 13.0792 66.0674 13.2811 66.5738C13.4762 67.0642 13.7212 67.5841 14.0162 68.1359C14.1137 67.5092 14.184 66.8281 14.2249 66.0947L14.243 65.3863C14.2884 65.0843 14.42 64.9095 14.6401 64.8641C14.8533 64.8186 15.0462 64.9458 15.2186 65.2478C15.2889 65.3681 15.3865 65.602 15.5135 65.9494C15.8062 66.7554 16.1011 67.4366 16.3983 67.9928C16.7001 68.5582 16.8589 68.867 16.8702 68.9192C16.8952 69.035 16.8702 69.1394 16.7954 69.2371C16.725 69.3256 16.6366 69.3824 16.5299 69.4051C16.3167 69.4505 16.1261 69.3324 15.9582 69.0509L15.6428 68.3788C15.475 68.0473 15.264 67.566 15.0144 66.9325C14.9826 67.2118 14.9259 67.6545 14.8443 68.2585L14.7853 68.8352C14.758 69.0622 14.7217 69.253 14.6718 69.4074C14.6083 69.6117 14.4835 69.732 14.2975 69.7729C14.1137 69.8115 13.9504 69.7343 13.8074 69.5391L13.5261 69.0305C13.2675 68.565 13.0179 68.0678 12.7797 67.5455V67.5387Z" fill="#E5650E"/>
<path d="M17.8706 67.1527C17.8366 67.1595 17.7549 67.1708 17.6211 67.1845C17.6687 67.4592 17.7572 67.911 17.8933 68.5331C17.916 68.6353 17.8979 68.7329 17.8434 68.8215C17.7867 68.91 17.705 68.9668 17.5939 68.9918C17.4827 69.0168 17.3829 68.9986 17.2944 68.9396C17.2059 68.8805 17.1492 68.8011 17.1265 68.6966L16.9518 67.8792C16.8883 67.5772 16.8111 67.1254 16.7227 66.5237C16.6296 65.913 16.5525 65.4589 16.4912 65.1614C16.3846 64.6551 16.4754 64.3804 16.7612 64.3418C16.8225 64.31 16.9132 64.2759 17.0267 64.2419C17.1424 64.2078 17.283 64.1738 17.4509 64.1374C17.8321 64.0557 18.2178 64.1034 18.6057 64.2782C19.0368 64.4757 19.2954 64.7732 19.3816 65.1705C19.4883 65.67 19.3771 66.1082 19.0436 66.4897C18.7486 66.8234 18.3584 67.0437 17.8729 67.1481L17.8706 67.1527ZM17.5417 64.9117C17.4781 64.9253 17.4237 64.9366 17.3761 64.948C17.3284 64.9593 17.2876 64.9707 17.2558 64.9821C17.2762 65.0729 17.3035 65.2114 17.342 65.3953C17.3851 65.6133 17.4396 65.9538 17.5031 66.4193C17.6052 66.4125 17.6733 66.4079 17.7073 66.3989C18.0113 66.333 18.2473 66.2081 18.4174 66.0197C18.5989 65.8199 18.6624 65.5928 18.608 65.3385C18.5717 65.1728 18.4401 65.0479 18.2109 64.9616C17.9909 64.8776 17.7685 64.8617 17.5394 64.9094L17.5417 64.9117Z" fill="#E5650E"/>
<path d="M22.0702 66.6918L20.904 66.9438C20.2779 67.0778 19.9375 67.0187 19.8831 66.7622C19.8604 66.6555 19.8899 66.5238 19.9693 66.3671C20.0374 66.2468 20.1054 66.1242 20.1758 66.0016C20.3936 65.4861 20.7271 64.7164 21.1808 63.6924C21.2897 63.4563 21.4644 63.3133 21.7094 63.261C21.8251 63.2361 21.9295 63.2451 22.0271 63.2837C22.1405 63.3337 22.2131 63.42 22.2403 63.5471L22.7167 65.745C22.9731 65.6973 23.1501 65.6882 23.2454 65.7132C23.352 65.745 23.4223 65.8381 23.4541 65.9925C23.4904 66.1537 23.4405 66.2808 23.3044 66.3739C23.2068 66.4375 23.0661 66.4852 22.8824 66.517C22.9482 66.7962 23.014 67.1005 23.0752 67.4297C23.0956 67.5364 23.0797 67.6341 23.0276 67.7181C22.9754 67.8021 22.8892 67.8588 22.7712 67.8838C22.4763 67.9474 22.2925 67.7839 22.2222 67.3911L22.0724 66.6918H22.0702ZM21.6232 64.6075C21.4984 64.9458 21.3011 65.4475 21.0311 66.1083L21.9045 65.9198L21.6232 64.6075Z" fill="#E5650E"/>
<path d="M16.9201 47.6761L9.34709 49.3063C8.25129 49.5425 7.55478 50.6255 7.79073 51.7176L9.41969 59.2966C9.65564 60.391 10.7333 61.0903 11.8291 60.8542L19.4021 59.2239C20.4957 58.9878 21.1944 57.9048 20.9585 56.8127L19.3295 49.2337C19.0936 48.1393 18.0114 47.44 16.9201 47.6761ZM11.9244 49.8853L12.4643 49.7695C12.7593 49.7059 13.0565 49.8944 13.1223 50.1941C13.1881 50.4938 12.993 50.789 12.698 50.8526L12.1581 50.9684C11.8586 51.0319 11.5659 50.8435 11.5001 50.5438C11.4343 50.2441 11.6249 49.9512 11.9244 49.8853ZM15.965 53.618C16.0739 53.6657 16.1556 53.7634 16.1783 53.8769C16.2009 53.9904 16.1692 54.1176 16.0898 54.2061L13.9526 56.5538C13.8959 56.6106 13.8301 56.6492 13.7575 56.6628C13.7008 56.6764 13.6395 56.6764 13.5828 56.6583C13.449 56.6219 13.3469 56.5152 13.3196 56.379L12.5437 52.7711C12.5142 52.6372 12.5642 52.4987 12.6708 52.4124C12.7774 52.3261 12.9226 52.3011 13.0519 52.3579L15.965 53.618ZM12.1399 59.6553L11.5999 59.7711C11.3005 59.8347 11.0078 59.6463 10.942 59.3466C10.8762 59.0468 11.0668 58.754 11.3663 58.6881L11.9062 58.5723C12.2012 58.5087 12.4984 58.6972 12.5642 58.9969C12.63 59.2966 12.4348 59.5918 12.1399 59.6553ZM10.3544 51.3566L9.81445 51.4724C9.51497 51.536 9.22231 51.3475 9.15651 51.0478C9.09072 50.7481 9.28129 50.4552 9.58077 50.3894L10.1207 50.2736C10.4157 50.21 10.7129 50.3985 10.7787 50.6982C10.8445 50.9979 10.6493 51.293 10.3544 51.3566ZM14.4835 59.1513L13.9436 59.2671C13.6441 59.3307 13.3514 59.1422 13.2856 58.8425C13.2198 58.5428 13.4104 58.2499 13.7099 58.1841L14.2498 58.0683C14.5448 58.0047 14.842 58.1931 14.9078 58.4928C14.9736 58.7925 14.7784 59.0877 14.4835 59.1513ZM16.8271 58.6472L16.2872 58.763C15.9877 58.8266 15.695 58.6382 15.6292 58.3384C15.5634 58.0387 15.754 57.7458 16.0535 57.68L16.5934 57.5642C16.8884 57.5006 17.1856 57.6891 17.2514 57.9888C17.3172 58.2885 17.1221 58.5837 16.8271 58.6472ZM15.0416 50.3462L14.5017 50.462C14.2022 50.5256 13.9095 50.3372 13.8437 50.0374C13.7779 49.7377 13.9685 49.4448 14.268 49.379L14.8079 49.2632C15.1029 49.1996 15.4001 49.3881 15.4659 49.6878C15.5317 49.9875 15.3366 50.2827 15.0416 50.3462ZM19.1707 58.1432L18.6308 58.259C18.3313 58.3226 18.0386 58.1341 17.9728 57.8344C17.907 57.5347 18.0976 57.2418 18.3971 57.1759L18.937 57.0601C19.232 56.9966 19.5292 57.185 19.595 57.4847C19.6608 57.7844 19.4657 58.0796 19.1707 58.1432ZM17.3875 49.8422L16.8475 49.958C16.5481 50.0215 16.2554 49.8331 16.1896 49.5334C16.1238 49.2337 16.3144 48.9408 16.6139 48.8749L17.1538 48.7591C17.4488 48.6956 17.746 48.884 17.8118 49.1837C17.8775 49.4834 17.6824 49.7786 17.3875 49.8422Z" fill="white"/>
<path d="M70.4941 86.3953C71.7895 86.7086 72.8627 86.9811 74.1785 87.1286C74.2216 87.7053 74.2647 88.2548 74.36 88.8293V88.8906C73.6159 88.8656 71.0658 88.1277 70.6143 88.3865C70.5485 88.1663 70.5054 86.704 70.4918 86.3975L70.4941 86.3953Z" fill="#F464C7"/>
<path d="M74.1808 87.1288C77.1959 87.0697 78.2101 86.3977 80.7442 85.0104C80.9189 85.494 81.0664 86.0208 81.2161 86.5157C79.5554 87.6328 78.201 88.4161 76.1977 88.7317C75.7689 88.7999 74.7412 88.9997 74.3646 88.8271C74.267 88.2549 74.2239 87.7032 74.1831 87.1265L74.1808 87.1288Z" fill="#9534EA"/>
<path d="M57.2379 105.252C58.2338 104.689 59.5951 104.321 60.6342 103.742C61.9047 103.027 63.157 102.284 64.3957 101.515C65.0401 101.108 65.977 100.434 66.6236 100.111C67.2226 102.634 68.1686 113.448 66.9481 115.689C66.1631 117.134 59.1186 121.314 57.2333 122.038C56.9112 122.215 56.8567 122.215 56.4892 122.247C55.0826 122.222 53.6419 122.324 52.199 122.29C50.4566 122.251 49.1566 122.122 47.446 121.902C47.6706 120.628 47.8521 119.486 48.1153 118.207C49.5582 119.004 50.7175 119.879 52.4077 119.159C53.0089 118.902 54.2499 118.777 54.6765 118.341C55.137 117.211 54.2658 107.856 54.225 105.874C54.8239 105.765 55.9901 105.608 56.5073 105.463L57.2379 105.254V105.252Z" fill="#5403E4"/>
<path d="M12.2511 114.915L14.5334 115.454C14.5334 115.454 13.542 117.526 12.6821 118.7L10.1185 117.472L12.2511 114.915Z" fill="#9534EA"/>
<path d="M54.225 105.872C54.824 105.763 55.9901 105.606 56.5074 105.461C56.5369 107.057 56.5868 108.655 56.6004 110.252C56.639 114.245 56.4348 118.255 56.487 122.244C55.0804 122.219 53.6397 122.322 52.1968 122.288C50.4544 122.249 49.1544 122.12 47.4438 121.899C47.6684 120.626 47.9384 119.014 48.2015 117.735C50.8333 120.258 51.1577 120.231 54.6289 117.799C55.0894 116.668 54.2636 107.854 54.225 105.87V105.872Z" fill="#9534EA"/>
<path d="M57.238 105.252C57.5987 105.695 57.2788 120.442 57.2311 122.038C56.909 122.215 56.8545 122.215 56.4847 122.247C56.4348 118.255 56.6367 114.245 56.5982 110.252C56.5823 108.655 56.5324 107.057 56.5051 105.461L57.2357 105.252H57.238Z" fill="#CA6FFD"/>
<path d="M20.7656 39.3116C20.7656 39.3116 19.7265 46.2049 20.4231 47.0041C20.8791 47.5264 21.875 48.1576 23.2839 47.5173C23.2839 47.5173 27.0001 49.9104 29.2621 46.961C29.2621 46.961 33.7882 47.8352 33.3617 43.8708C32.9351 39.9065 31.7395 36.36 30.2444 35.806C28.7493 35.252 21.4054 36.276 20.7634 39.3116H20.7656Z" fill="#2F0085"/>
<path d="M71.3245 9.91537C71.9279 9.12978 74.7934 6.68897 75.7508 6.04642C78.4642 4.22319 82.4367 2.1661 85.8104 2.61113C87.1875 2.79277 88.0496 3.9303 88.7847 4.97019C89.3564 5.7399 89.7602 7.0023 90.0642 7.92413C91.6932 12.9624 92.1265 18.3117 91.3257 23.5476C90.9831 25.8975 90.2616 28.3111 89.5447 30.5793C88.9934 29.3215 88.5759 28.5677 87.8636 27.387C88.0904 25.8113 88.5578 24.349 88.7756 22.5826C89.2679 18.2845 89.5311 13.169 87.3327 9.27509C87.1308 8.91862 86.4796 8.43046 86.0781 8.40775C82.7408 8.22611 79.1743 10.9916 76.9713 13.2916C76.259 12.8875 75.5194 12.3834 74.8319 11.9293C74.4372 11.6682 73.6953 11.3095 73.3777 11.0801C72.5609 10.7191 72.0482 10.4308 71.3245 9.91537Z" fill="#9E23FE"/>
<path d="M71.3245 9.91537C71.9279 9.12977 74.7934 6.68897 75.7508 6.04642C78.4642 4.22319 82.4367 2.1661 85.8104 2.61113C87.1875 2.79277 88.0496 3.93029 88.7847 4.97019C88.5578 5.07236 86.0939 4.98154 85.4995 5.03377C81.4135 5.39478 77.8584 7.31336 74.714 9.85634C74.4848 10.0425 73.5297 10.894 73.3799 11.0824C72.5632 10.7214 72.0505 10.4331 71.3267 9.91764L71.3245 9.91537Z" fill="#B959FE"/>
<path d="M80.91 71.1147C81.5316 73.4239 81.5724 75.5037 81.189 77.8468C80.8691 79.8199 80.0274 81.818 78.3667 83.0281C76.9488 84.0431 75.1905 84.4631 73.4662 84.1952C72.0301 83.9659 71.0455 83.4255 69.8884 82.599C70.4261 81.8429 71.5809 80.526 70.1153 80.0288C69.505 80.492 68.9197 81.1277 68.2935 81.5478C67.2907 82.2198 64.2711 84.0976 63.3273 82.7511C63.477 82.2811 65.5915 81.1981 65.6278 80.7327C65.7344 79.4112 63.9806 80.4874 63.4951 80.6782C62.8508 80.9302 61.7981 81.3184 61.1311 81.1913C60.961 81.0959 60.8271 80.962 60.7931 80.7667C60.514 79.1478 63.2138 78.6188 63.8899 77.3836C63.8922 77.0862 63.9307 77.177 63.7946 76.9409C62.6807 76.321 60.0399 78.7596 59.8947 76.7138C59.9695 75.6626 61.4147 74.8089 62.2473 74.4115C64.389 73.3898 67.69 73.8076 69.859 74.6772C70.408 75.3969 72.8991 76.925 73.954 77.1816C75.2631 77.5108 76.6516 77.2906 77.7973 76.5753C79.0133 75.8283 80.0842 74.3275 80.5129 72.972C80.6536 72.5247 80.7784 71.6574 80.9077 71.117L80.91 71.1147Z" fill="#9534EA"/>
<path d="M70.1175 80.0266C70.2287 80.0039 70.3716 79.9766 70.544 79.9403C71.2814 80.1673 72.0096 80.7736 72.7651 81.0256C73.6068 81.3071 74.0311 81.348 74.8569 81.3707C77.1007 81.432 78.6775 80.349 80.2384 78.8709C80.5628 78.5644 80.8532 78.1784 81.189 77.8446C80.8691 79.8177 80.0274 81.8157 78.3666 83.0259C76.9487 84.0408 75.1881 84.4609 73.4662 84.193C72.0301 83.9636 71.0454 83.4233 69.8884 82.5968C70.4261 81.8407 71.5808 80.5238 70.1152 80.0266H70.1175Z" fill="#9534EA"/>
<path d="M32.3635 2.53157C36.4132 2.0979 41.7878 5.46054 44.685 8.10115C45.6084 8.94351 46.3321 9.5293 47.049 10.5783C46.3389 11.0755 45.3316 11.5137 44.5807 11.9974C43.7934 12.5037 43.0538 13.0804 42.3074 13.6457C40.2315 11.3889 37.0121 8.8209 33.904 8.29641C30.8276 7.77646 30.5213 11.382 30.2377 13.6616C29.8928 16.8608 30.0017 20.094 30.5644 23.2614C30.7845 24.5011 31.2586 26.1268 31.3471 27.3256C31.3834 27.8274 30.6778 29.7346 30.4736 30.334C30.1356 29.4485 29.8293 28.5494 29.5571 27.6412C27.8079 21.6947 27.4471 14.3178 28.8243 8.26917C29.312 6.13034 29.9859 3.19229 32.359 2.5293L32.3635 2.53157Z" fill="#9E23FE"/>
<path d="M67.1908 67.105C69.4732 66.9438 72.4248 66.0469 74.6119 65.3226C75.5284 65.0184 76.4269 64.5779 77.4138 64.2714C77.7064 64.6142 78.0558 65.1001 78.3349 65.4679L78.2464 65.4952C77.1347 65.8562 75.7145 66.7871 74.5688 67.273C71.9779 68.3765 69.5798 68.7329 66.8641 69.2256C66.7734 69.0258 66.7983 68.8805 66.8029 68.6603C66.8619 68.2266 66.9322 67.4433 67.1908 67.105Z" fill="#F464C7"/>
<path d="M22.5035 39.7385C23.3611 38.0152 25.3553 37.8268 27.0296 37.4022C28.1005 37.132 28.9989 36.9685 29.9631 37.5747C31.5354 38.878 32.0163 42.2656 31.7872 44.1842C29.3664 46.7068 29.8474 41.9614 28.6382 41.8183C28.4726 41.8978 28.3977 41.8819 28.3432 42.0976C28.0392 43.3282 28.4385 45.3195 27.2089 46.1391C26.7324 46.457 25.7705 45.8235 25.3916 45.4693L25.3553 45.3603C25.1738 44.7927 25.1534 42.8015 24.7836 42.6017C24.6089 42.5063 24.5 42.5426 24.323 42.5971C23.5857 43.3577 23.7241 47.0428 21.7004 44.9653C21.6187 43.6188 21.8297 40.9283 22.5012 39.7363L22.5035 39.7385Z" fill="#9534EA"/>
<path d="M22.5035 39.7385C23.3588 38.0152 25.3553 37.8268 27.0296 37.4022C28.1005 37.132 28.9989 36.9685 29.9631 37.5747C29.6205 38.0856 28.7924 38.2082 28.2116 38.3603C26.4216 38.8281 24.6225 39.2458 22.8551 39.7953C22.7508 39.8271 22.5988 39.7908 22.5035 39.7385Z" fill="#B959FE"/>
<path d="M20.0737 116.87L18.4017 120.617L15.4205 119.829L17.5554 116.132L20.0737 116.87Z" fill="#9534EA"/>
<path d="M33.5455 10.651C35.6191 10.6805 39.0698 13.7957 40.4991 15.2147C40.177 15.6598 39.1901 16.5543 38.7477 17.0243C37.7063 18.1301 36.7308 19.2971 35.8255 20.5164C35.1245 21.5154 33.7587 23.266 33.2278 24.2378C33.0917 23.5089 32.9034 22.6348 32.7945 21.9173C32.4247 19.4742 32.0186 12.59 33.5432 10.651H33.5455Z" fill="#FE80DD"/>
<path d="M33.5454 10.651C33.1507 11.1528 32.8852 11.9906 32.7151 12.9942C34.5255 13.1599 37.2458 15.4259 38.8452 16.9222C39.3217 16.434 40.1997 15.628 40.4991 15.2147C39.0676 13.7979 35.6191 10.6805 33.5454 10.651Z" fill="#F464C7"/>
<path d="M78.8113 14.9854C79.9639 13.496 83.5485 11.1551 85.4519 10.8326C85.8285 11.5342 86.001 12.2608 86.2029 13.0237C86.7678 15.6189 86.9153 18.289 86.6385 20.9319C86.5273 22.0785 86.3322 23.1956 86.2165 24.3172C84.7327 22.0013 82.7272 19.1859 80.8827 17.1469C80.1862 16.4068 79.5033 15.7642 78.8136 14.9877L78.8113 14.9854Z" fill="#FE80DD"/>
<path d="M78.8113 14.9854C79.9639 13.496 83.5485 11.1551 85.4519 10.8326C85.8285 11.5342 86.001 12.2608 86.2029 13.0237C84.1746 12.7989 81.6291 15.4622 80.8827 17.1447C80.1862 16.4045 79.5033 15.7619 78.8136 14.9854H78.8113Z" fill="#F464C7"/>
<path d="M16.4641 108.93C17.6167 109.032 18.6693 109.346 19.7697 109.684C19.2547 114.089 18.1112 117.199 15.5339 120.812C15.0144 121.541 14.1886 122.263 13.7802 122.946L13.7326 123.028C12.5052 122.708 11.2256 122.254 9.94604 121.915C13.3265 118.798 15.9446 113.519 16.4619 108.93H16.4641Z" fill="#F9F8F8"/>
<path d="M32.1343 111.623C32.8127 111.594 34.723 111.571 35.3673 111.657C35.4921 111.821 35.4626 112.093 35.4671 112.313C35.4059 115.503 33.5251 121.463 32.0776 124.331C30.7867 124.238 29.5003 124.088 28.2208 123.888C30.1832 121.47 31.6171 114.7 32.1343 111.625V111.623Z" fill="#88DAF1"/>
<path d="M23.3316 74.3208L26.6848 74.4548L26.9707 76.7616H23.833L23.3316 74.3208Z" fill="#FA92D4"/>
<path d="M37.5793 111.514C39.0268 111.389 39.6461 111.38 41.0936 111.478C41.1163 114.105 40.8985 116.729 40.447 119.318C40.2927 120.199 39.9547 121.856 39.7392 122.569C38.8317 123.041 36.2725 123.171 35.8483 122.528C35.8959 122.135 35.964 121.774 36.0502 121.388C36.7943 118.073 37.4568 114.92 37.5816 111.514H37.5793Z" fill="#F9F8F8"/>
<path d="M24.0508 78.6346L24.7609 81.4705L28.4567 81.6499V78.7981L24.0508 78.6346Z" fill="#7A6292"/>
<path d="M43.224 115.869C43.3419 114.886 43.41 114.041 43.4667 113.049C43.5075 112.797 43.5098 112.327 43.5212 112.057C44.7644 112.054 45.4201 112.113 46.6497 112.309C46.6225 114.824 46.5 117.429 46.01 119.899C45.6492 121.725 45.3112 122.926 45.1093 124.799C44.406 124.84 41.5564 124.445 41.5224 124.329C41.7357 123.289 42.2325 120.912 42.4753 119.879C42.6636 119.079 42.9721 117.91 43.0198 117.118" fill="#F9F8F8"/>
<path d="M21.8274 110.234C22.8688 110.431 23.9237 110.633 24.9424 110.931C24.6361 114.656 23.6674 118.373 21.7299 121.604C20.473 121.271 19.35 120.971 18.1317 120.519C18.5105 120.008 21.5869 112.086 21.8274 110.234Z" fill="#EC751F"/>
<path d="M11.4411 107.94C12.6549 108.126 13.6259 108.521 14.5765 108.685C13.9844 111.712 13.4218 113.312 11.6317 115.826C11.1984 116.327 10.7605 116.784 10.3272 117.274C9.77135 117.799 9.03401 118.532 8.39196 118.907C7.19406 118.589 6.00524 118.244 4.8255 117.869C5.32916 117.336 6.44538 116.448 7.04886 115.91C9.59666 113.635 10.8808 111.321 11.4411 107.94Z" fill="#F9F8F8"/>
<path d="M30.435 78.5552C30.4305 77.177 30.519 75.8715 30.4713 74.4819C29.6591 74.3366 28.8129 74.2889 27.9893 74.2435C27.9031 75.6989 27.7851 77.1793 27.8509 78.6324C27.9825 79.3295 27.9372 80.8394 28.0143 81.65C28.0982 82.4696 28.1663 83.2915 28.2207 84.1135C28.257 84.3155 28.3365 84.8673 28.3954 85.0376C29.1623 85.0989 30.3034 85.0694 31.0998 85.0739C30.7368 82.7807 30.4441 80.903 30.435 78.553V78.5552Z" fill="#88DAF1"/>
<path d="M58.1431 53.9247C59.4522 53.8021 63.5926 53.8656 62.4877 56.3927C62.0317 57.4371 60.7658 58.2636 59.6972 58.6314C57.9298 59.0833 55.9175 58.3022 55.2595 56.4381C54.7264 54.9305 56.9997 54.1744 58.1431 53.9269V53.9247Z" fill="#FE80DD"/>
<path d="M32.1502 74.8021C32.9829 74.843 33.6589 74.9293 34.487 75.0405C34.4643 75.6626 34.4485 76.9364 34.3532 77.4995C34.2828 80.2309 34.419 82.5832 35.1518 85.242L32.6403 85.1875C31.9937 82.5355 31.7918 79.082 32.0096 76.3642L32.148 74.8021H32.1502Z" fill="#88DAF1"/>
<path d="M32.1502 74.8021C32.9829 74.843 33.6589 74.9293 34.487 75.0405C34.4643 75.6626 34.4485 76.9364 34.3532 77.4995C34.3169 77.1498 34.3668 76.7797 34.4008 76.4301C33.5932 76.396 32.8195 76.3642 32.0118 76.3642L32.1502 74.8021Z" fill="#7EB8E7"/>
<path d="M17.7619 74.3002C18.4516 74.1821 19.1368 74.055 19.8242 73.921C20.0034 74.5159 20.0669 74.8837 20.169 75.4899C20.7226 78.512 21.1854 82.0199 22.068 84.9194C21.3147 84.8944 20.5025 84.8536 19.7539 84.8558C18.9485 81.7157 18.7125 78.9275 18.0682 75.9282L17.7642 74.3025L17.7619 74.3002Z" fill="#F9F8F8"/>
<path d="M17.7619 74.3002C18.4516 74.1821 19.1368 74.055 19.8242 73.921C20.0034 74.5159 20.0669 74.8837 20.169 75.4899C19.7607 75.4286 18.6172 75.5898 18.2043 75.6807C18.0682 75.8146 18.1136 75.7352 18.0659 75.9282L17.7619 74.3025V74.3002Z" fill="#7EB8E7"/>
<path d="M32.2431 105.24C33.3525 105.27 34.5436 105.334 35.6462 105.474C35.6734 106.501 35.6666 111.382 35.467 112.313C35.4625 112.093 35.4919 111.82 35.3672 111.657C34.7251 111.571 32.8126 111.593 32.1342 111.623C32.2613 109.498 32.2976 107.368 32.2431 105.24Z" fill="#479DED"/>
<path d="M43.0697 105.683C44.1019 105.724 45.2386 105.781 46.2572 105.919C46.5363 108.038 46.6679 110.172 46.6475 112.311C45.4178 112.116 44.7621 112.057 43.5189 112.059C43.5098 112.329 43.5075 112.799 43.4644 113.051C43.4553 111.78 43.4077 110.51 43.3215 109.244C43.2353 108.061 43.0855 106.869 43.0674 105.686L43.0697 105.683Z" fill="#7EB8E7"/>
<path d="M37.5839 105.552C38.6729 105.568 39.839 105.572 40.9212 105.661C41.0346 107.218 41.2002 109.963 41.0936 111.478C39.6462 111.38 39.0268 111.389 37.5793 111.514C37.5793 109.902 37.4727 107.03 37.5839 105.552Z" fill="#7EB8E7"/>
<path d="M21.2761 73.5329C22.0815 73.3921 22.8461 73.2604 23.6583 73.156C23.7422 73.5738 24.3639 77.9967 24.4977 78.7347C24.5613 79.3227 24.6293 79.7223 24.7609 80.3013C23.892 80.2695 22.9436 80.576 22.3833 80.4603C21.9817 78.3918 21.5075 75.6104 21.2761 73.5352V73.5329Z" fill="#F9F8F8"/>
<path d="M5.93939 103.96C6.69488 104.065 7.4481 104.18 8.19906 104.312C8.48492 106.324 8.67322 108.304 8.7912 110.508C8.85699 112.086 8.55298 112.182 7.81791 113.126C7.52297 113.455 7.13502 113.828 6.81966 114.148C6.4544 111.114 6.06417 106.989 5.93939 103.96Z" fill="#9534EA"/>
<path d="M49.2043 105.938C50.1685 105.972 51.2099 105.967 52.1809 105.981C52.2671 108.247 52.5348 110.213 52.469 112.497C51.9926 112.522 51.5162 112.543 51.0397 112.563C50.6926 112.574 50.0619 112.556 49.8532 112.286C49.0614 111.26 49.1771 107.218 49.2043 105.938Z" fill="#5A72EF"/>
<path d="M27.0909 105.011C28.1368 105.011 29.16 105.07 30.2036 105.125C30.2626 106.782 30.2649 109.069 30.0561 110.692L30.0017 111.208C29.4776 111.214 28.2593 110.999 27.6785 110.908L27.1113 110.837C27.2633 109.434 27.1272 106.558 27.0886 105.011H27.0909Z" fill="#479DED"/>
<path d="M27.6785 110.908C28.139 110.579 29.3415 110.717 30.0538 110.692L29.9994 111.208C29.4753 111.214 28.257 110.999 27.6762 110.908H27.6785Z" fill="#479DED"/>
<path d="M21.9159 104.873C22.9596 104.918 24.0032 104.948 25.0468 104.961C25.0786 106.544 25.1194 109.412 24.9424 110.931C23.9238 110.633 22.8688 110.431 21.8275 110.233C21.8932 108.447 21.9227 106.662 21.9159 104.873Z" fill="#9C89B5"/>
<path d="M27.1136 110.835L27.6808 110.906C28.2593 110.994 29.4776 111.21 30.004 111.205C29.7589 113.308 29.3823 115.367 28.1209 117.1C27.2633 116.932 26.6848 116.598 25.986 116.103C26.5192 114.611 26.9162 112.413 27.1181 110.837L27.1136 110.835Z" fill="#EEBFA5"/>
<path d="M14.0752 75.0087C14.7694 74.8452 15.7223 74.7362 16.4642 74.6C16.598 75.2425 16.7183 75.8874 16.8249 76.5367C17.0609 77.9876 17.4715 79.3522 17.6439 80.778C17.4125 81.0573 15.9333 81.466 15.4387 81.6613C15.1143 80.1287 14.8647 78.5552 14.5085 77.034C14.2953 76.321 14.2023 75.742 14.0729 75.0087H14.0752Z" fill="#F9F8F8"/>
<path d="M14.0752 75.0087C14.7694 74.8452 15.7223 74.7362 16.4642 74.6C16.598 75.2425 16.7183 75.8874 16.8249 76.5367C16.3349 76.5708 14.9396 76.6321 14.5857 76.9L14.5085 77.034C14.2953 76.321 14.2023 75.742 14.0729 75.0087H14.0752Z" fill="#7EB8E7"/>
<path d="M16.5549 104.855C17.5373 104.855 18.9598 104.821 19.9036 104.941C19.9217 105.72 19.9172 109.032 19.772 109.684C18.6694 109.343 17.6189 109.032 16.4664 108.93C16.5163 107.572 16.5458 106.215 16.5549 104.857V104.855Z" fill="#7EB8E7"/>
<path d="M35.9367 75.3697C36.5833 75.4106 37.7971 75.5332 38.3983 75.8283C38.5186 75.8874 38.5027 76.0009 38.5412 76.1735L38.4868 76.4891C38.4278 76.8047 38.4097 77.1929 38.3575 77.4404C38.328 78.1647 38.3189 78.7709 38.3688 79.4998C38.396 80.0742 38.4142 80.7258 38.4596 81.2912L38.3756 81.4683C37.7018 81.0006 36.6219 81.0869 35.8868 81.3571C35.7167 80.0765 35.8074 78.0058 35.8324 76.6684L35.939 75.3674L35.9367 75.3697Z" fill="#88DAF1"/>
<path d="M35.8846 81.3593C36.6197 81.0891 37.7019 81.0006 38.3734 81.4706L38.4573 81.2935L38.5481 81.9224C38.6388 82.4991 38.7977 83.6798 39.0223 84.1748C40.05 84.168 40.6762 84.1475 41.6948 84.3451C41.266 84.6039 40.2338 85.1148 39.9388 85.3691C39.1833 85.36 38.0807 85.3759 37.3593 85.2964L36.6197 85.2919C36.2998 83.9114 36.0706 82.7625 35.8823 81.3593H35.8846Z" fill="#88DAF1"/>
<path d="M39.0244 84.1747C40.0522 84.1679 40.6783 84.1475 41.697 84.345C41.2682 84.6038 40.2359 85.1147 39.941 85.369C39.1855 85.3599 38.0829 85.3758 37.3615 85.2963C37.8787 85.2509 38.7567 85.2963 39.3012 85.31L39.0244 84.1747Z" fill="#5A72EF"/>
<path d="M24.7609 80.299C24.8448 80.6736 24.9197 81.0642 25.0422 81.4252C25.2282 82.1449 25.4233 82.9714 25.6661 83.6684C26.1902 83.4913 26.746 83.3142 27.252 83.6253L27.2769 83.7615C26.8617 84.3314 26.0291 84.3678 25.9202 84.9672C25.2759 84.999 24.2391 84.9513 23.5653 84.9445C22.9096 83.1213 22.7258 82.3674 22.3832 80.4602C22.9459 80.576 23.8942 80.2695 24.7609 80.3013V80.299Z" fill="#88DAF1"/>
<path d="M25.6661 83.6662C26.1902 83.4891 26.746 83.312 27.2519 83.6231L27.2769 83.7593C26.8617 84.3292 26.0291 84.3655 25.9202 84.965C25.9156 84.5812 25.7614 84.0522 25.6661 83.6662Z" fill="#5A72EF"/>
<path d="M11.6181 104.771C12.6504 104.784 13.6827 104.816 14.7127 104.868C14.7331 105.949 14.7422 107.613 14.5766 108.685C13.6237 108.522 12.6549 108.126 11.4412 107.94C11.5364 106.835 11.6068 105.879 11.6181 104.771Z" fill="#479DED"/>
<path d="M51.076 113.828C51.6591 113.884 52.7889 114.893 53.1995 115.344C52.8161 116.489 52.0357 117.39 51.2076 118.23C50.688 118.16 49.3245 116.557 49.2065 115.955C49.3858 115.181 50.4317 114.25 51.076 113.825V113.828Z" fill="#88DAF1"/>
<path d="M56.3349 42.5199C57.2855 42.4086 59.2003 42.4858 59.9127 43.2237C60.0034 43.4826 60.008 43.36 59.9127 43.6052C59.4295 44.0684 58.3019 44.1637 57.6281 44.2591C56.7614 44.3136 54.0979 44.6042 53.7213 43.6574C53.9028 42.8241 55.6543 42.5857 56.3349 42.5199Z" fill="#9E23FE"/>
<path d="M17.6462 80.7758C17.8685 82.0427 18.3018 83.6616 18.4539 84.8491C17.6938 84.8218 16.9338 84.8127 16.1738 84.8218C15.9129 84.0589 15.4863 82.4514 15.4432 81.659C15.9378 81.4614 17.4148 81.055 17.6485 80.7758H17.6462Z" fill="#88DAF1"/>
<path d="M30.1559 116.782L30.258 116.788C30.2739 116.827 30.2875 116.866 30.3034 116.904C29.9086 117.731 29.4685 118.905 29.1804 119.72C28.4544 119.661 24.8607 119.375 24.441 119.054L24.4319 118.866L24.9514 116.975C25.623 117.617 26.1743 118.189 27.1294 118.326C29.1009 118.607 29.1146 117.515 30.0833 116.832L30.1559 116.782Z" fill="#9534EA"/>
<path d="M38.3688 79.4999C38.9587 79.5453 39.5032 79.5771 40.0885 79.6838C40.1748 80.5466 40.2678 81.23 40.6308 82.0338L38.5503 81.9225L38.4596 81.2936C38.4142 80.7282 38.3983 80.0766 38.3688 79.4999Z" fill="#9B67B9"/>
<path d="M43.3487 84.3473C44.1927 84.3132 45.343 84.4268 46.2096 84.4926C45.4677 85.0421 45.0843 85.5075 44.2154 85.5484C43.773 85.5484 41.7856 85.6846 41.629 85.2623C41.8899 84.8514 42.8473 84.4222 43.3487 84.3496V84.3473Z" fill="#5A72EF"/>
<path d="M47.437 84.6084C48.0541 84.5925 49.3563 84.9513 50.0165 85.117C49.6263 85.5325 49.5151 85.721 48.9434 85.7891L46.0667 85.671C46.4932 85.3668 47.0059 84.9376 47.437 84.6084Z" fill="#5A72EF"/>
<path d="M14.969 84.1997L15.0938 84.2383C15.1891 84.5062 15.1891 84.3768 15.1233 84.6356C14.8647 84.8218 14.8465 84.756 14.4722 84.7401C14.4019 84.7401 14.3293 84.7106 14.2544 84.6901L14.293 84.5199C14.5448 84.2928 14.6446 84.2883 14.9668 84.1997H14.969Z" fill="#9534EA"/>
<path d="M25.5822 113.358C25.8794 113.421 25.9361 113.462 26.079 113.719C26.0064 114.018 26.0768 113.891 25.8635 114.116C25.5822 114.032 25.5005 114.037 25.3372 113.839C25.3644 113.557 25.378 113.623 25.5822 113.36V113.358Z" fill="#39178F"/>
<path d="M52.789 85.9003C51.9654 86.7154 51.0942 87.4829 50.1822 88.1958C48.104 88.1799 10.604 86.8358 9.62621 86.6019C9.49235 86.2659 9.3585 85.973 9.38118 85.6188H8.47823C7.51855 86.3635 6.4409 87.2377 6.22991 87.8393C6.18453 87.971 6.22991 88.0391 6.26848 88.1799C6.81751 88.6658 11.5592 88.8588 12.5415 88.9315C16.0082 89.213 51.0466 90.9 54.2251 90.8659C55.6181 89.8964 56.6685 88.8815 58.218 87.8552C58.4721 87.7826 58.6627 87.6373 58.8873 87.4942C56.8182 87.3625 54.7605 86.3976 52.789 85.9026V85.9003Z" fill="#9C89B5"/>
<path d="M13.9799 81.4093L7.22815 86.5747L9.62621 86.602L14.0185 82.0836L13.9799 81.4093Z" fill="#7A6292"/>
<path d="M78.3372 65.468C78.0582 65.1002 77.7088 64.6143 77.4161 64.2715C76.4292 64.5803 75.5285 65.0207 74.6142 65.3227C72.4272 66.047 69.4755 66.9439 67.1932 67.1051C67.386 66.1106 67.5199 65.3568 67.5607 64.3464C67.7331 63.1408 66.8039 62.7729 66.1664 61.8375C65.8374 61.867 65.9794 61.8284 65.63 61.8375C66.3175 62.4528 66.8551 63.1408 66.8597 64.1057C66.8665 65.4521 66.5103 67.3344 66.263 68.6649C66.1473 69.2439 65.6073 71.6393 65.5983 72.0298C65.8342 72.0525 66.1564 72.0094 66.2789 72.0366C67.1342 72.2228 67.7626 72.4453 68.6406 72.577C69.6843 71.6938 71.7874 70.0613 73.2961 69.9659C74.0334 69.9205 74.2762 70.7969 73.709 71.2647C73.16 71.8096 72.5565 72.3182 71.9712 72.8132C71.3586 73.3286 70.5441 74.2981 69.868 74.6772C70.4171 75.397 72.9081 76.9228 73.9631 77.1816C75.2722 77.5108 76.6606 77.2906 77.8063 76.5754C79.0224 75.8284 80.0932 74.3276 80.522 72.9721C80.6627 72.5248 80.7875 71.6575 80.9168 71.1171C80.5856 69.2916 79.4512 66.9734 78.3418 65.4703L78.3372 65.468Z" fill="#FE80DD"/>
<path d="M78.3372 65.468C78.0582 65.1002 77.7088 64.6143 77.4161 64.2715C76.4292 64.5803 75.5285 65.0207 74.6142 65.3227C72.4271 66.047 69.4755 66.9439 67.1932 67.1051C67.386 66.1106 67.5199 65.3568 67.5607 64.3464C67.7331 63.1408 66.8039 62.7729 66.1664 61.8375C65.8374 61.867 65.9794 61.8284 65.63 61.8375C66.3174 62.4528 66.8551 63.1408 66.8597 64.1057C66.8665 65.4521 66.5103 67.3344 66.263 68.6649C66.1972 68.9919 65.9975 69.9001 65.8319 70.6993C67.1047 70.4019 68.3979 70.059 69.7047 69.6708C73.0216 68.6876 76.107 67.507 78.8477 66.215C78.6798 65.9517 78.5096 65.6996 78.3395 65.468H78.3372Z" fill="#EC45CE"/>
<path d="M37.8175 77.5222L40.1747 77.8378L40.6308 76.0532L37.6292 75.5741L37.8175 77.5222Z" fill="#F464C7"/>
<path d="M41.9988 83.3893C41.2773 82.976 40.692 82.363 40.3018 81.6069C39.7686 80.5693 39.6688 79.3863 40.0227 78.2761L45.9509 59.7101C46.3049 58.5998 47.0717 57.6916 48.1085 57.158C49.1453 56.6244 50.3273 56.5245 51.4367 56.8787L64.9788 61.2086C66.0883 61.5628 66.9958 62.3302 67.5289 63.3679C68.0621 64.4055 68.1619 65.5884 67.808 66.6987L61.8798 85.2647C61.5258 86.375 60.759 87.2832 59.7222 87.8168C58.6854 88.3503 57.5034 88.4502 56.3939 88.096L42.8518 83.7662C42.5524 83.6708 42.2665 83.5437 41.9988 83.3915V83.3893ZM64.9539 63.1022C64.7951 63.0114 64.6227 62.9342 64.4434 62.8774L50.9013 58.5475C49.5287 58.1093 48.0563 58.87 47.6185 60.2414L41.6902 78.8074C41.477 79.4726 41.536 80.181 41.8559 80.8009C42.1758 81.4207 42.718 81.8816 43.3827 82.0928L56.9248 86.4227C58.2974 86.8609 59.7698 86.1003 60.2077 84.7289L66.1359 66.1629C66.3492 65.4976 66.2902 64.7892 65.9703 64.1693C65.7366 63.7175 65.3849 63.3497 64.9539 63.1022Z" fill="#2F0085"/>
<path d="M60.2075 84.7309L66.104 66.1468C66.315 65.4815 66.2537 64.7708 65.9293 64.1464C65.6933 63.6923 65.3371 63.3222 64.9015 63.0725C64.7405 62.9794 64.568 62.9045 64.3865 62.8454L50.7378 58.452C49.3539 58.007 47.8747 58.763 47.4391 60.1367L41.5426 78.7209C41.3316 79.3861 41.3929 80.0968 41.7173 80.7212C42.0417 81.3456 42.5885 81.8065 43.26 82.0222L56.9088 86.4157C58.2927 86.8607 59.7719 86.1046 60.2075 84.7309Z" fill="#9534EA"/>
<path d="M66.1153 66.1514C66.3263 65.4862 66.2651 64.7755 65.9429 64.1534C65.7069 63.6993 65.353 63.3314 64.9197 63.0817C64.7586 62.9886 64.5862 62.9137 64.407 62.8546L50.7945 58.4839C49.4151 58.0411 47.9382 58.7995 47.5003 60.1732L45.1499 67.5682C49.9437 68.0064 59.0074 69.1144 64.4092 71.5189L66.1153 66.1514Z" fill="#A756FC"/>
<path d="M46.9014 61.9645C47.337 60.5908 48.8185 59.8324 50.2001 60.2775L63.8443 64.6664C64.0258 64.7254 64.1982 64.8003 64.3593 64.8934C64.7949 65.1432 65.1488 65.511 65.387 65.9674C65.7115 66.5895 65.7727 67.3002 65.5617 67.9654L66.1335 66.1626C66.3445 65.4974 66.2832 64.7867 65.9588 64.1646C65.7228 63.7105 65.3666 63.3404 64.931 63.0906C64.77 62.9975 64.5975 62.9226 64.416 62.8636L50.7718 58.4747C49.3902 58.0297 47.9087 58.7857 47.4731 60.1617L46.9014 61.9645Z" fill="#D6BAEA"/>
<path d="M58.9233 78.475L46.3609 74.4578C45.5624 74.2025 44.7083 74.6433 44.4531 75.4424L43.3552 78.8812C43.1001 79.6803 43.5405 80.5351 44.339 80.7905L56.9015 84.8076C57.7 85.063 58.5541 84.6222 58.8092 83.823L59.9072 80.3842C60.1623 79.5851 59.7218 78.7303 58.9233 78.475Z" fill="#F9F8F8"/>
<path d="M49.7259 77.7764C49.6942 77.7673 49.6465 77.7468 49.5807 77.7196C49.5149 77.6924 49.4628 77.6719 49.4196 77.6583L49.2177 77.5947C49.2245 77.5652 49.2041 77.6265 49.1565 77.7786C48.7617 79.0161 48.3874 79.8879 48.0312 80.3965C47.7703 80.7712 47.4731 80.9051 47.135 80.7984C46.8129 80.6962 46.5315 80.4828 46.2888 80.1627C46.012 79.8017 45.9281 79.4543 46.0324 79.1228C46.1186 78.8526 46.2843 78.7572 46.527 78.8344C46.7698 78.9116 46.8492 79.0842 46.7652 79.3498C46.7335 79.452 46.7856 79.5882 46.924 79.7608C47.0624 79.9334 47.2076 80.0446 47.3619 80.0923C47.4232 80.1127 47.5048 80.0128 47.6069 79.7903C47.6319 79.7381 47.7362 79.4747 47.9223 79.0024C48.0743 78.6165 48.2444 78.1306 48.4305 77.5425C48.4373 77.5175 48.4532 77.4608 48.4759 77.3722L48.4146 77.3563C48.3375 77.3359 48.2354 77.3018 48.1106 77.2564C47.9586 77.1997 47.8588 77.1633 47.8088 77.1474C47.7067 77.1156 47.6296 77.0566 47.5797 76.9703C47.5253 76.8795 47.5139 76.7796 47.5502 76.6729C47.6251 76.439 47.8179 76.3709 48.1265 76.4685C48.1855 76.4867 48.2717 76.5185 48.3851 76.5594C48.4985 76.6002 48.5847 76.6297 48.6415 76.6479C48.7504 76.682 48.9137 76.7297 49.1361 76.7864C49.3561 76.8432 49.5217 76.8909 49.6306 76.9249C50.0935 77.0725 50.284 77.2746 50.2024 77.5334C50.1729 77.6242 50.1161 77.6946 50.0322 77.7446C49.9369 77.7991 49.8348 77.8104 49.7282 77.7764H49.7259Z" fill="#9534EA"/>
<path d="M50.6675 79.9923C50.638 79.9832 50.5676 79.9537 50.4565 79.9038C50.368 80.1422 50.2364 80.5372 50.0594 81.0912C50.0299 81.1821 49.9732 81.2525 49.8893 81.2956C49.8053 81.341 49.7123 81.3478 49.6148 81.316C49.5172 81.2842 49.4446 81.2252 49.4015 81.1389C49.3584 81.0526 49.3493 80.9641 49.3788 80.871L49.6102 80.149C49.6964 79.8811 49.8394 79.4905 50.0413 78.9751C50.2455 78.4529 50.3884 78.0601 50.4746 77.7967C50.6198 77.3472 50.8149 77.1723 51.0577 77.2722C51.1212 77.2745 51.2051 77.2904 51.3118 77.3154C51.4184 77.3404 51.5455 77.3767 51.6929 77.4244C52.031 77.5334 52.3146 77.7445 52.5414 78.0578C52.7933 78.4075 52.8613 78.7594 52.7502 79.1114C52.6095 79.5541 52.3214 79.8493 51.888 79.9991C51.5046 80.1286 51.0962 80.1263 50.6675 79.9878V79.9923ZM51.4207 78.076C51.3662 78.0578 51.3163 78.042 51.2732 78.0306C51.2301 78.017 51.1938 78.0079 51.1643 78.0033C51.1394 78.0851 51.0985 78.2054 51.0441 78.3689C50.9805 78.5596 50.8671 78.8525 50.7083 79.2499C50.7922 79.293 50.849 79.318 50.8784 79.3271C51.1484 79.4133 51.3912 79.4202 51.6113 79.3498C51.8449 79.2748 51.9969 79.125 52.0695 78.9002C52.1172 78.7526 52.0695 78.5937 51.9289 78.4234C51.7927 78.2576 51.6249 78.1441 51.4229 78.0783L51.4207 78.076Z" fill="#9534EA"/>
<path d="M55.9037 81.5794C55.6224 82.0562 55.2526 82.3923 54.7988 82.5898C54.3382 82.7851 53.8664 82.8055 53.3808 82.6511C52.9226 82.5035 52.6163 82.2719 52.4643 81.9563C52.3123 81.6407 52.3123 81.2389 52.4688 80.7552C52.6095 80.3125 52.8636 79.8947 53.2288 79.4996C53.5941 79.1046 53.9934 78.8185 54.429 78.6391C54.733 78.5142 55.0234 78.4961 55.2979 78.5823C55.4658 78.6368 55.6745 78.7685 55.9241 78.982C56.219 79.234 56.3415 79.4429 56.2894 79.6041C56.2599 79.6972 56.1963 79.7698 56.1033 79.8198C56.0103 79.8697 55.9105 79.8788 55.8061 79.847C55.7539 79.8311 55.6564 79.7449 55.5089 79.5905C55.3637 79.4361 55.2163 79.3362 55.0711 79.2885C54.9168 79.2385 54.6536 79.3384 54.2815 79.5905C53.7416 79.9537 53.3808 80.4215 53.1993 80.9891C53.1063 81.2775 53.0859 81.4863 53.1381 81.618C53.1925 81.7565 53.3491 81.8655 53.6054 81.9473C53.8686 82.0313 54.125 82.0313 54.3746 81.945C54.6377 81.8542 54.8691 81.6725 55.0665 81.4023C54.6559 81.3047 54.2815 81.2752 53.9412 81.3138C53.88 81.3206 53.8232 81.3138 53.7688 81.2979C53.6622 81.2638 53.585 81.1957 53.5397 81.0935C53.4988 81.0027 53.492 80.9119 53.5215 80.8211C53.6054 80.5577 53.9775 80.4714 54.6355 80.5668C55.0053 80.6213 55.4272 80.7234 55.8969 80.8733C56.0012 80.9074 56.0761 80.9687 56.1237 81.0572C56.1714 81.148 56.1805 81.2411 56.1487 81.3388C56.1079 81.4636 56.0262 81.5454 55.8991 81.5817L55.9037 81.5794Z" fill="#9534EA"/>
<path d="M57.9207 69.8796C58.8622 69.7206 59.6404 69.732 60.296 69.9159C60.3323 70.0635 60.414 70.2247 60.6068 70.3314C60.7974 70.4381 61.1559 70.4177 61.5529 70.5744C61.7163 70.7106 61.8524 70.8446 61.9613 70.9603C62.3356 71.3577 62.3152 71.9844 61.9182 72.359C61.5211 72.7336 60.895 72.7132 60.5206 72.3158C60.4707 72.2614 60.4163 72.2069 60.3573 72.1501C60.2144 71.7232 59.8854 71.3963 59.4294 71.7618C59.1322 71.7323 58.751 71.7459 58.2474 71.8322C57.7097 71.923 57.1992 71.5598 57.1084 71.0216C57.0177 70.4835 57.3807 69.9727 57.9184 69.8819L57.9207 69.8796Z" fill="url(#paint0_linear_40503_516)"/>
<path d="M61.553 70.5742C61.0221 70.5311 60.4662 71.2077 60.3596 72.15C60.169 71.9751 59.9104 71.8094 59.4317 71.7617C59.4657 71.2327 59.7471 70.3086 60.2984 69.9158C60.3347 69.9249 60.371 69.9362 60.4073 69.9476C60.895 70.0997 61.2694 70.3381 61.5552 70.5742H61.553Z" fill="url(#paint1_linear_40503_516)"/>
<path d="M55.1619 75.4151C55.6814 75.5808 56.2373 75.2947 56.4029 74.7748C56.573 74.2389 56.9973 73.6214 57.2922 73.3557C57.6983 72.9902 57.7301 72.3658 57.3648 71.9593C56.9996 71.5529 56.3757 71.5211 55.9696 71.8867C55.484 72.3249 54.8238 73.2263 54.5221 74.1731C54.3565 74.693 54.6423 75.2493 55.1619 75.4151Z" fill="url(#paint2_linear_40503_516)"/>
<path d="M49.9597 73.2557C50.4429 73.4101 50.9738 73.1717 51.1712 72.6926C51.2665 72.4611 51.5546 72.3907 52.3169 72.3089C52.5824 72.2794 52.8569 72.2499 53.1201 72.1886C53.6509 72.0637 53.9799 71.5324 53.8551 71.0011C53.7303 70.4698 53.1995 70.1406 52.6686 70.2655C52.5234 70.2995 52.3192 70.3222 52.1037 70.3449C51.6771 70.3903 51.1916 70.4448 50.722 70.6265C50.0663 70.8785 49.6035 71.3213 49.3471 71.9366C49.1384 72.4406 49.3766 73.0196 49.8803 73.2285C49.9075 73.2398 49.9325 73.2489 49.9597 73.258V73.2557Z" fill="url(#paint3_linear_40503_516)"/>
<path d="M54.9146 65.1137C55.3139 64.8526 55.779 64.6846 56.26 64.612C56.6615 64.5507 57.0767 64.5597 57.4692 64.6347C58.0795 64.755 58.379 65.452 58.0409 65.9765C57.9048 66.1877 57.7596 66.3943 57.6053 66.5964C57.3921 66.8757 57.172 67.1254 56.9882 67.2821L54.9146 65.1137Z" fill="url(#paint4_linear_40503_516)"/>
<path d="M55.5499 65.5997C56.0581 65.3454 56.6865 65.2977 57.1584 65.3681C57.3331 65.393 57.4329 65.5815 57.3558 65.7427C57.1153 66.2422 56.7636 66.4534 56.5595 66.5578L55.5521 65.5997H55.5499Z" fill="url(#paint5_linear_40503_516)"/>
<path d="M53.7167 64.73C53.542 64.285 53.2607 63.8786 52.9113 63.5403C52.6187 63.2564 52.2783 63.0226 51.9131 62.8568C51.3459 62.6003 50.6993 62.9953 50.6698 63.6175C50.6585 63.8695 50.6562 64.1215 50.6653 64.3735C50.6766 64.7232 50.7106 65.0547 50.7719 65.2908L53.7167 64.7277V64.73Z" fill="url(#paint6_linear_40503_516)"/>
<path d="M52.9159 64.7572C52.6482 64.2555 52.1627 63.8513 51.7407 63.6356C51.5819 63.5539 51.3936 63.6515 51.3641 63.8263C51.2711 64.3735 51.4344 64.7482 51.541 64.9548L52.9159 64.7595V64.7572Z" fill="url(#paint7_linear_40503_516)"/>
<path d="M51.2778 68.5876C51.9448 67.6272 53.2652 67.3888 54.2249 68.0586C55.9196 69.237 56.362 69.3119 57.2468 69.4573C58.3994 69.648 59.1798 70.7401 58.9892 71.8935C58.9348 72.225 58.8055 72.527 58.6217 72.7813C58.5037 72.9448 58.4198 73.1287 58.3653 73.3239C58.2133 73.8643 58.2474 74.3775 58.4652 74.852C58.692 75.347 58.4924 75.9396 58.0023 76.1757C57.5078 76.4118 56.9133 76.2007 56.6819 75.7012C56.4619 75.2289 56.2713 74.5886 56.2985 73.8235C56.3031 73.694 56.2146 73.5782 56.0875 73.5533C55.7245 73.4829 55.3865 73.4011 55.0484 73.2922C54.8352 73.224 54.6197 73.1446 54.3996 73.0515C54.2635 72.9947 54.1069 73.0583 54.0525 73.1945C53.9481 73.4534 53.8755 73.7553 53.8301 74.1073C53.7621 74.6408 53.2924 75.0405 52.757 74.9905C52.1989 74.9383 51.7973 74.4365 51.8654 73.8848C51.9448 73.2377 52.1014 72.6723 52.3396 72.1773C52.3986 72.0547 52.36 71.9094 52.2465 71.8345C52.0991 71.7346 51.9516 71.6347 51.8064 71.5348C50.8467 70.8672 50.6085 69.5458 51.2778 68.5854V68.5876Z" fill="url(#paint8_linear_40503_516)"/>
<path d="M50.03 68.1971C49.8712 67.97 49.6806 67.8611 49.5014 67.7453C49.456 67.4773 49.4764 67.189 49.5763 66.8802C49.9551 65.6904 50.8286 64.948 51.8473 64.621C52.6686 64.3577 53.5829 64.3667 54.4109 64.6301C55.2368 64.8935 55.9877 65.418 56.505 66.1105C57.1448 66.9665 57.4261 68.079 57.0472 69.2688C56.9497 69.5776 56.7977 69.8228 56.6071 70.0158C56.3938 70.0067 56.176 69.984 55.9151 70.0771C55.6383 70.1747 55.4115 70.3268 55.0099 70.5925C54.9532 70.5925 54.8942 70.5925 54.8375 70.5925C54.1478 70.5834 53.3809 70.4177 52.6413 70.1793C51.9017 69.9409 51.1803 69.6343 50.6131 69.2415C50.5654 69.2097 50.5201 69.1757 50.4724 69.1394C50.2977 68.6875 50.2002 68.4332 50.0323 68.1926L50.03 68.1971Z" fill="url(#paint9_linear_40503_516)"/>
<path d="M55.6837 69.1054C55.9559 69.0214 56.2486 69.2008 56.4323 69.5096C56.5185 69.6549 56.5798 69.8274 56.6048 70.0181C56.2123 70.4109 55.6496 70.579 55.0076 70.5949C55.0439 70.4382 55.0597 70.2792 55.0711 70.1271C55.1097 69.6798 55.1346 69.2757 55.6859 69.1077L55.6837 69.1054Z" fill="url(#paint10_linear_40503_516)"/>
<path d="M50.7786 67.5365C50.6062 67.3117 50.2636 67.2867 49.9347 67.432C49.7804 67.5001 49.6307 67.6068 49.5013 67.7453C49.5921 68.2925 49.9551 68.7557 50.4701 69.144C50.5314 68.9941 50.6108 68.8579 50.6879 68.7239C50.917 68.3357 51.1303 67.9928 50.7786 67.5365Z" fill="url(#paint11_linear_40503_516)"/>
<path d="M53.0043 69.0305C52.7638 68.9533 52.4621 68.8284 52.2533 68.6536C52.0446 68.481 51.9266 68.2585 52.0469 67.9883C52.1354 67.793 52.3985 67.4706 52.7139 67.2209C53.0292 66.9711 53.3945 66.7917 53.6872 66.8848C53.9798 66.9779 54.175 67.3367 54.2861 67.7227C54.3973 68.1086 54.4245 68.5264 54.3837 68.7353C54.327 69.0259 54.1024 69.1395 53.8301 69.1576C53.5579 69.1781 53.2425 69.1054 52.9997 69.0282L53.0043 69.0305Z" fill="url(#paint12_linear_40503_516)"/>
<path d="M55.1619 68.4741C55.5941 68.4741 55.9446 68.1234 55.9446 67.6908C55.9446 67.2582 55.5941 66.9075 55.1619 66.9075C54.7296 66.9075 54.3792 67.2582 54.3792 67.6908C54.3792 68.1234 54.7296 68.4741 55.1619 68.4741Z" fill="white"/>
<path d="M52.0219 67.4706C52.4542 67.4706 52.8046 67.1199 52.8046 66.6873C52.8046 66.2546 52.4542 65.9039 52.0219 65.9039C51.5896 65.9039 51.2392 66.2546 51.2392 66.6873C51.2392 67.1199 51.5896 67.4706 52.0219 67.4706Z" fill="white"/>
<path d="M55.1619 68.1586C55.42 68.1586 55.6292 67.9492 55.6292 67.6909C55.6292 67.4326 55.42 67.2231 55.1619 67.2231C54.9038 67.2231 54.6945 67.4326 54.6945 67.6909C54.6945 67.9492 54.9038 68.1586 55.1619 68.1586Z" fill="#383842"/>
<path d="M52.0219 67.1549C52.28 67.1549 52.4893 66.9455 52.4893 66.6872C52.4893 66.4289 52.28 66.2195 52.0219 66.2195C51.7638 66.2195 51.5546 66.4289 51.5546 66.6872C51.5546 66.9455 51.7638 67.1549 52.0219 67.1549Z" fill="#383842"/>
<path d="M53.1041 68.7171C52.9725 68.674 52.8545 68.5831 52.7797 68.4469C52.7434 68.3833 52.766 68.3016 52.8296 68.2653C52.8931 68.2289 52.9748 68.2516 53.0111 68.3152C53.095 68.4628 53.2606 68.515 53.4126 68.4446C53.4784 68.4128 53.5578 68.4424 53.5896 68.5082C53.6214 68.5741 53.5919 68.6535 53.5261 68.6853C53.3854 68.7512 53.2379 68.758 53.1064 68.7171H53.1041Z" fill="#383842"/>
<path d="M53.5851 67.2071C53.719 67.2503 53.8302 67.3229 53.905 67.4092C53.9935 67.5114 54.0298 67.6317 53.9958 67.7407C53.964 67.8429 53.8665 67.945 53.7394 68.0086C53.6146 68.0745 53.4604 68.1017 53.3152 68.0563C53.17 68.0109 53.0611 67.8974 52.9953 67.7725C52.9295 67.6476 52.9113 67.5068 52.9431 67.4047C52.9771 67.2957 53.0792 67.2185 53.2085 67.1867C53.3197 67.1594 53.4513 67.164 53.5851 67.2071Z" fill="url(#paint13_linear_40503_516)"/>
<path d="M38.5436 76.1735C38.505 76.0009 38.5209 75.8874 38.3984 75.8284C37.7971 75.5332 36.5811 75.4106 35.9368 75.3698L35.8301 76.6708C35.8279 76.8569 35.8211 77.059 35.8165 77.2679L38.353 77.6039C38.353 77.5494 38.3552 77.4972 38.3575 77.4405C38.4097 77.1907 38.4278 76.8024 38.4868 76.4891L38.5413 76.1735H38.5436Z" fill="#479DED"/>
<path d="M69.1261 83.6299L69.4868 83.8888C70.426 82.9283 72.2456 81.725 72.2342 80.4853C72.2206 78.8346 70.3262 78.0967 69.1714 75.5764C68.9264 75.0383 69.0126 74.5093 69.3007 74.0075C68.2186 73.735 67.0728 73.5829 65.9975 73.5829C64.6271 73.5829 63.4383 73.819 62.4673 74.2822C61.1877 74.893 59.6405 75.9351 59.5361 77.4337L59.5316 77.5063L59.5361 77.579C59.6291 78.8936 60.498 79.3636 61.2808 79.3636C61.3329 79.3636 61.3828 79.3636 61.435 79.3591C60.7771 79.9244 60.2621 80.6692 60.4459 81.734C60.5275 82.2109 60.8293 82.6173 61.2898 82.8761L61.435 82.9578L61.5961 82.9896C61.7458 83.0192 61.9092 83.0328 62.0771 83.0328C62.4333 83.0328 62.8122 82.9692 63.191 82.8716C63.1094 82.9874 63.0504 83.1077 63.0095 83.2371L62.8553 83.7185L63.1457 84.1317C63.4361 84.5472 63.9987 85.0422 65.0287 85.0422C66.3968 85.0422 68.1119 84.1158 69.362 83.2939L69.1215 83.6322L69.1261 83.6299Z" fill="#9534EA"/>
<path d="M71.3562 82.1471C71.5944 81.609 71.5763 81.0913 70.7754 80.8189C70.1651 81.2821 69.5798 81.9178 68.9536 82.3379C68.2049 82.8396 66.3264 84.0158 65.0332 84.0158C64.5954 84.0158 64.2256 83.8818 63.9874 83.5412C64.1371 83.0712 66.2516 81.9882 66.2879 81.5227C66.3264 81.0368 66.1132 80.8756 65.8046 80.8756C65.2737 80.8756 64.4638 81.3479 64.1552 81.4682C63.5971 81.6862 62.735 82.0064 62.0816 82.0064C61.9795 82.0064 61.882 81.9995 61.7912 81.9814C61.6211 81.886 61.4872 81.7521 61.4532 81.5568C61.1741 79.9379 63.8739 79.4089 64.55 78.1737C64.5523 77.8763 64.5908 77.9671 64.4547 77.731C64.3231 77.6583 64.1689 77.6265 64.001 77.6265C63.1865 77.6265 62.0272 78.3372 61.283 78.3372C60.8837 78.3372 60.6024 78.1329 60.557 77.5017C60.6319 76.4504 62.0771 75.5967 62.9097 75.1994C63.7968 74.777 63.858 74.3842 66.0587 74.1822C67.0774 74.0891 68.9037 74.4274 69.8634 74.668C69.8362 74.0141 69.4164 73.7008 70.0154 73.1332C68.7199 72.7608 67.3133 72.5542 66.002 72.5542C64.4774 72.5542 63.1411 72.8221 62.0317 73.3534C60.5071 74.08 58.6604 75.3651 58.5197 77.3563L58.5106 77.5017L58.522 77.647C58.5991 78.7323 59.0778 79.4725 59.7131 79.9061C59.4408 80.4601 59.3092 81.1186 59.4453 81.9019C59.5815 82.6898 60.0624 83.3505 60.7975 83.7615L61.0856 83.9227L61.4101 83.984C61.5507 84.0112 61.6959 84.0294 61.8457 84.0385L62.3176 84.7128C62.9256 85.5802 63.8898 86.057 65.0355 86.057C66.12 86.057 67.429 85.6188 68.9423 84.7491C68.999 84.0703 70.4011 83.1575 71.3585 82.1449L71.3562 82.1471Z" fill="#2F0085"/>
<path d="M73.253 117.962C73.253 117.962 72.6722 113.265 74.4962 111.594C74.6641 111.439 74.925 111.407 75.1111 111.541C75.2063 111.609 75.2631 111.709 75.195 111.859C75.0248 112.243 76.554 117.629 76.554 117.629L73.2507 117.96L73.253 117.962Z" fill="#39178F"/>
<path d="M82.4413 115.878C82.1758 114.634 81.3409 111.491 79.5759 110.619C79.3717 110.517 79.113 110.56 78.9701 110.74C78.8975 110.831 78.8726 110.944 78.9769 111.069C79.1924 111.326 79.2537 114.931 79.2696 116.387C79.2741 116.702 79.56 116.936 79.8685 116.879L82.0352 116.48C82.3165 116.427 82.5003 116.155 82.4413 115.876V115.878Z" fill="#39178F"/>
</g>
<defs>
<linearGradient id="paint0_linear_40503_516" x1="56.6317" y1="69.3519" x2="61.7493" y2="70.9858" gradientUnits="userSpaceOnUse">
<stop stop-color="#FB8219"/>
<stop offset="1" stop-color="#FCAD53"/>
</linearGradient>
<linearGradient id="paint1_linear_40503_516" x1="58.8412" y1="71.1396" x2="60.5482" y2="71.6845" gradientUnits="userSpaceOnUse">
<stop stop-color="#AB706A"/>
<stop offset="1" stop-color="#FF9845"/>
</linearGradient>
<linearGradient id="paint2_linear_40503_516" x1="55.2752" y1="72.5695" x2="57.7509" y2="73.3599" gradientUnits="userSpaceOnUse">
<stop stop-color="#915954"/>
<stop offset="1" stop-color="#BF8165"/>
</linearGradient>
<linearGradient id="paint3_linear_40503_516" x1="50.0214" y1="71.0579" x2="54.093" y2="72.3579" gradientUnits="userSpaceOnUse">
<stop stop-color="#915954"/>
<stop offset="1" stop-color="#BF8165"/>
</linearGradient>
<linearGradient id="paint4_linear_40503_516" x1="55.2716" y1="66.1818" x2="58.4784" y2="67.2057" gradientUnits="userSpaceOnUse">
<stop stop-color="#FFD485"/>
<stop offset="1" stop-color="#FFEBC7"/>
</linearGradient>
<linearGradient id="paint5_linear_40503_516" x1="54.8346" y1="66.1838" x2="56.5651" y2="66.7363" gradientUnits="userSpaceOnUse">
<stop stop-color="#A56C66"/>
<stop offset="1" stop-color="#C8886B"/>
</linearGradient>
<linearGradient id="paint6_linear_40503_516" x1="51.1974" y1="64.8483" x2="54.137" y2="65.7868" gradientUnits="userSpaceOnUse">
<stop stop-color="#FFD485"/>
<stop offset="1" stop-color="#FFEBC7"/>
</linearGradient>
<linearGradient id="paint7_linear_40503_516" x1="-2772.29" y1="8906.25" x2="-2770.56" y2="8906.8" gradientUnits="userSpaceOnUse">
<stop stop-color="#A56C66"/>
<stop offset="1" stop-color="#C8886B"/>
</linearGradient>
<linearGradient id="paint8_linear_40503_516" x1="50.228" y1="71.2544" x2="58.4159" y2="73.8686" gradientUnits="userSpaceOnUse">
<stop stop-color="#AB706A"/>
<stop offset="1" stop-color="#FF9845"/>
</linearGradient>
<linearGradient id="paint9_linear_40503_516" x1="49.9142" y1="65.6073" x2="57.6001" y2="68.0612" gradientUnits="userSpaceOnUse">
<stop stop-color="#FB8219"/>
<stop offset="1" stop-color="#FCAD53"/>
</linearGradient>
<linearGradient id="paint10_linear_40503_516" x1="55.5148" y1="70.7356" x2="56.9958" y2="71.2085" gradientUnits="userSpaceOnUse">
<stop stop-color="#FFD485"/>
<stop offset="1" stop-color="#FFEBC7"/>
</linearGradient>
<linearGradient id="paint11_linear_40503_516" x1="49.8385" y1="68.9215" x2="51.1961" y2="69.3549" gradientUnits="userSpaceOnUse">
<stop stop-color="#FFD485"/>
<stop offset="1" stop-color="#FFEBC7"/>
</linearGradient>
<linearGradient id="paint12_linear_40503_516" x1="52.179" y1="66.9157" x2="54.5934" y2="67.6866" gradientUnits="userSpaceOnUse">
<stop stop-color="#FFD485"/>
<stop offset="1" stop-color="#FFEBC7"/>
</linearGradient>
<linearGradient id="paint13_linear_40503_516" x1="53.318" y1="68.0473" x2="53.5953" y2="67.1801" gradientUnits="userSpaceOnUse">
<stop stop-color="#495560"/>
<stop offset="1" stop-color="#5B778C"/>
</linearGradient>
<clipPath id="clip0_40503_516">
<rect width="106" height="126" fill="white"/>
</clipPath>
</defs>
</svg>
