<svg width="101" height="100" viewBox="0 0 101 100" fill="none" xmlns="http://www.w3.org/2000/svg">
<path d="M30.2178 10.5L52.7047 10.5L52.706 10.5L52.7074 10.5L52.7127 10.5L52.718 10.5L52.7343 10.5L52.8216 10.5L53.1724 10.5L54.5792 10.5L60.0107 10.5L85.7178 36.2071V74C85.7178 82.5604 78.7782 89.5 70.2178 89.5H30.2178C21.6574 89.5 14.7178 82.5604 14.7178 74V26C14.7178 17.4396 21.6574 10.5 30.2178 10.5Z" fill="#F2F8FF" stroke="#006BD8"/>
<path d="M86.2178 37L59.2178 10V23.9655C59.2178 31.1643 64.859 37 71.8178 37H86.2178Z" fill="#006BD8"/>
<path d="M41.8749 52.0007H37.2178L42.0857 73.9971H46.8614L50.0247 61.1899L53.0628 74H57.5537L63.2178 52H55.3469V55.6634H58.0296L55.3083 66.1829L52.4963 52H47.996L44.5037 66.3859L41.8749 52.0007Z" fill="#006BD8"/>
</svg>
