<svg width="180" height="180" viewBox="0 0 180 180" fill="none" xmlns="http://www.w3.org/2000/svg">
<g clip-path="url(#clip0_39115_6761)">
<path d="M37.2426 49.3718C37.6986 49.8462 38.2234 50.6023 38.6458 51.1455C40.3106 53.288 41.9753 54.1615 44.5872 54.7264C43.806 56.4666 43.0818 58.2302 42.4129 60.0157C43.3718 59.677 45.1086 59.0031 46.0793 58.9159C46.0927 57.4591 49.6518 51.3936 50.6325 50.0055C57.4172 40.4078 68.0124 34.225 79.4945 32.1864C93.0587 29.779 104.142 32.7748 115.327 40.6039C119.188 43.2997 122.667 46.5051 125.671 50.1312C125.929 50.4414 126.814 51.4624 126.871 51.7893C128.14 52.1497 129.497 52.6191 130.766 53.0198C130.88 52.5403 131.135 51.7993 131.289 51.3081C132.96 45.3248 133.294 39.0465 132.264 32.919C131.815 30.2233 129.297 19.6448 125.597 20.6892C119.557 22.3925 113.87 29.1922 110.551 34.2669C109.146 33.3549 106.668 32.2987 105.149 31.6365C104.283 31.2945 103.408 30.976 102.524 30.6826C106.263 25.2073 110.707 20.2483 115.743 15.9348C118.963 13.2172 124.605 9.11829 129.024 9.45694C130.875 9.59776 132.578 10.8149 133.731 12.2231C134.427 12.9373 135.351 14.4042 135.871 15.3145C139.483 21.6599 141.239 30.4261 141.115 37.6852C141.106 38.0808 141.086 38.4765 141.049 38.8721C139.83 42.4732 137.748 48.9041 134.122 50.8689C133.513 51.1992 132.863 51.3031 132.199 51.3232C132.863 51.3048 133.513 51.1992 134.122 50.8689C137.746 48.9041 139.83 42.4748 141.049 38.8721C141.091 43.3248 140.181 48.3492 139.047 52.6376C138.88 53.2746 138.432 54.9745 138.135 55.4842C139.207 55.801 140.358 56.2788 141.394 56.7147C145.777 42.557 146.105 27.6784 139.187 14.1862C135.046 6.11072 128.865 3.74356 120.725 8.27671C112.177 13.1452 104.41 21.5073 99.0756 29.6935C97.5114 29.3599 95.9037 29.0112 94.3161 28.7983C87.6739 27.9684 80.9346 28.473 74.4903 30.2819C69.2815 22.4847 63.1741 15.8728 54.941 11.2306C41.3751 3.58094 35.5964 11.286 33.1169 24.1142C30.6592 36.8101 32.4077 49.9602 38.0993 61.5697C39.189 61.0869 40.2804 60.7717 41.3936 60.3543C40.034 58.2872 37.7657 51.7976 37.2376 49.3701L37.2426 49.3718ZM114.561 32.4898C117.413 28.8167 121.606 24.1545 126.132 22.7647C127.029 23.6281 127.901 25.6147 128.342 26.7597C131.083 34.2384 131.433 42.3826 129.344 50.0675C126.171 45.6987 121.069 40.9392 116.611 37.9115C115.232 36.9878 113.931 36.1931 112.541 35.308C113.049 34.4731 113.956 33.2711 114.561 32.4915V32.4898ZM55.4188 40.4161C51.3685 43.8747 49.2914 46.6375 46.4397 51.0198C45.9703 49.9535 45.5562 48.4699 45.2662 47.3299C43.8278 41.6668 43.9451 36.2116 45.0147 30.5116C45.2813 28.9441 45.7021 27.0916 46.4263 25.6633C51.0349 26.8536 56.9779 33.2677 59.5647 37.1755C58.1431 38.2217 56.7416 39.2443 55.4188 40.4161ZM38.1479 18.6523C38.4363 17.8359 39.2225 15.9733 39.7305 15.3279C43.0298 9.36473 49.3433 11.9867 53.9586 14.6624C60.7869 18.6205 66.6863 24.8066 71.0217 31.3381C70.056 31.722 68.9982 32.1227 68.051 32.5351C66.2454 33.3582 63.1557 34.8453 61.5262 35.9987C59.5798 33.3616 50.2788 21.6733 45.1555 23.8712C43.7305 24.4831 42.6408 31.2778 42.4196 32.8235C41.4405 39.9484 42.2754 47.0113 45.0851 53.6267L44.5855 54.7281C41.9753 54.1631 40.3089 53.2897 38.6442 51.1472C38.2217 50.604 37.697 49.8479 37.241 49.3735C36.6341 47.5629 36.1949 44.7297 35.9585 42.8068C34.9895 34.9123 35.4924 26.1947 38.1446 18.6523H38.1479Z" fill="#270A60"/>
<path d="M91.937 54.3811C88.1197 55.8329 83.6016 58.118 79.6167 58.5388C83.6016 58.1163 88.1197 55.8329 91.937 54.3811C99.7594 51.4071 108.39 50.3409 116.854 50.599C108.39 50.3409 99.7594 51.4054 91.937 54.3811Z" fill="#FE7AC6"/>
<path d="M118.444 45.266C107.362 37.3112 94.6934 33.5845 81.1157 35.7454C69.01 37.551 58.118 44.0908 50.8355 53.9283C49.7223 55.4623 49.0014 56.7029 48.1682 58.3927C55.3552 56.9208 61.2128 56.329 68.5892 57.3399C70.3243 57.578 72.3143 57.9736 74.2791 58.2603C75.1408 58.386 75.9975 58.4883 76.8256 58.5486C77.0184 58.5621 77.2096 58.5738 77.399 58.5822C77.7209 58.5973 78.0394 58.6073 78.3495 58.6056C78.7871 58.6023 79.2113 58.5822 79.6186 58.5386C83.6036 58.1161 88.1216 55.8328 91.9389 54.381C99.7613 51.4069 108.392 50.3407 116.856 50.5989C119.678 50.6844 122.481 50.9174 125.23 51.2762C125.064 50.225 119.386 45.94 118.444 45.266Z" fill="#FE80DD"/>
<path d="M132.203 51.325C132.866 51.3065 133.517 51.2009 134.125 50.8706C137.75 48.9058 139.834 42.4766 141.053 38.8739C141.088 38.4799 141.11 38.0843 141.118 37.687C141.24 30.4279 139.487 21.6633 135.874 15.3163C135.354 14.4059 134.432 12.9374 133.735 12.2249C132.776 12.0656 131.948 11.6515 130.873 11.5945C127.398 11.4084 123.907 13.2576 121.069 15.1033C115.986 18.4881 111.694 22.9559 107.926 27.7388C107.674 28.0574 107.426 28.3776 107.178 28.6994C106.735 29.2745 105.475 31.018 105.153 31.6366C106.673 32.2971 109.15 33.355 110.554 34.267C113.874 29.1923 119.56 22.3926 125.601 20.6893C129.301 19.6449 131.819 30.2233 132.268 32.9191C133.297 39.0466 132.964 45.3249 131.292 51.3082C131.597 51.3216 131.901 51.3317 132.203 51.3233V51.325Z" fill="#9E23FE"/>
<path d="M38.6476 51.1471C40.3123 53.2896 41.9771 54.163 44.589 54.728L45.0886 53.6266C42.2788 47.0112 41.4439 39.9483 42.423 32.8233C42.6443 31.2793 43.734 24.483 45.159 23.871C50.2822 21.6732 59.5833 33.3615 61.5296 35.9986C63.1591 34.8435 66.2489 33.3565 68.0544 32.535C67.0904 31.2257 66.1265 29.8007 65.0535 28.5534C64.9261 28.4042 64.797 28.2567 64.668 28.1075C64.4098 27.8107 64.1483 27.514 63.885 27.2189C60.0594 22.9356 55.6369 18.8635 50.532 16.2767C48.19 15.0897 44.7784 13.9514 42.1363 14.4577C41.4406 14.5902 40.5303 15.0629 39.8161 15.301L39.7323 15.3278C39.2243 15.9732 38.4364 17.8358 38.1497 18.6522C35.4959 26.1946 34.9946 34.9105 35.9636 42.8067C36.1983 44.7279 36.6392 47.5628 37.2461 49.3734C37.7021 49.8478 38.2268 50.6039 38.6493 51.1471H38.6476Z" fill="#9E23FE"/>
<path d="M126.873 51.7911C126.317 51.6368 125.778 51.4575 125.229 51.2781C125.777 51.4575 126.315 51.6385 126.873 51.7928V51.7911Z" fill="#F0BEED"/>
<path d="M46.0791 58.9176C46.7765 58.7315 47.4605 58.542 48.168 58.3928C47.4605 58.542 46.7765 58.7298 46.0791 58.9159V58.9176Z" fill="#F0BEED"/>
<path d="M115.327 40.6053C104.142 32.7763 93.0586 29.7804 79.4943 32.1878C68.0122 34.2264 57.417 40.4092 50.6324 50.0069C49.65 51.395 46.0925 57.4605 46.0791 58.9173C46.7765 58.7312 47.4605 58.5418 48.168 58.3943C49.0012 56.7027 49.7221 55.4638 50.8352 53.9299C58.1178 44.0924 69.0097 37.5525 81.1155 35.747C94.6931 33.586 107.362 37.3128 118.444 45.2676C119.384 45.9432 125.064 50.2265 125.23 51.2777C125.778 51.4571 126.316 51.6381 126.874 51.7907C126.817 51.4638 125.932 50.4428 125.674 50.1327C122.67 46.5065 119.191 43.3011 115.33 40.6053H115.327Z" fill="#E8BAFE"/>
<path d="M42.1343 14.4557C44.7764 13.9494 48.1897 15.0877 50.53 16.2747C55.6348 18.8598 60.0574 22.9336 63.883 27.2169C64.1462 27.512 64.4078 27.8087 64.6659 28.1055C64.795 28.2547 64.9241 28.4022 65.0515 28.5514C66.1228 29.8004 67.0884 31.2237 68.0524 32.533C68.9979 32.1206 70.0574 31.7199 71.0231 31.336C66.6894 24.8062 60.7883 18.6184 53.9601 14.6602C49.3448 11.9863 43.0312 9.3643 39.7319 15.3258L39.8158 15.299C40.5299 15.0592 41.4402 14.5881 42.136 14.4557H42.1343Z" fill="#C989F0"/>
<path d="M68.0524 32.5336C67.0884 31.2243 66.1244 29.7993 65.0515 28.552C66.1228 29.801 67.0884 31.2243 68.0524 32.5336Z" fill="#C989F0"/>
<path d="M50.532 16.2749C55.6368 18.8617 60.0593 22.9338 63.885 27.2172C60.0593 22.9338 55.6368 18.86 50.532 16.2749Z" fill="#C989F0"/>
<path d="M107.924 27.7403C111.693 22.9574 115.984 18.4896 121.067 15.1048C123.906 13.259 127.394 11.4099 130.871 11.596C131.946 11.653 132.772 12.0671 133.733 12.228C132.58 10.8198 130.876 9.60268 129.025 9.46186C124.606 9.12321 118.965 13.2222 115.745 15.9397C110.708 20.2532 106.266 25.2122 102.526 30.6875C103.409 30.9809 104.284 31.2994 105.151 31.6414C105.473 31.0228 106.735 29.2776 107.176 28.7043C107.423 28.3824 107.672 28.0622 107.924 27.7437V27.7403Z" fill="#C989F0"/>
<path d="M121.069 15.1033C123.907 13.2575 127.396 11.4084 130.873 11.5945C131.948 11.6515 132.776 12.0656 133.735 12.2248C132.776 12.0656 131.949 11.6515 130.873 11.5928C127.398 11.4067 123.907 13.2558 121.069 15.1016V15.1033Z" fill="#C989F0"/>
<path d="M105.153 31.6383C105.475 31.0197 106.737 29.2762 107.178 28.7012C106.735 29.2762 105.475 31.0197 105.153 31.6383Z" fill="#C989F0"/>
<path d="M135.504 54.542C134.022 54.0575 132.27 53.4104 130.769 53.0198C132.27 53.4087 134.022 54.0575 135.504 54.542Z" fill="#7227E0"/>
<path d="M141.053 38.8752C139.834 42.4763 137.752 48.9072 134.126 50.872C133.517 51.2023 132.867 51.3062 132.203 51.3263C131.901 51.3347 131.596 51.3263 131.292 51.3112C131.138 51.8024 130.883 52.5418 130.769 53.0229C132.27 53.4118 134.022 54.0606 135.504 54.5451C136.154 54.758 137.546 55.2191 138.139 55.4873C138.436 54.9777 138.883 53.2794 139.051 52.6407C140.183 48.3523 141.095 43.3296 141.053 38.8752Z" fill="#7310F5"/>
<path d="M38.6473 51.147C38.2249 50.6038 37.7001 49.8477 37.2441 49.3733C37.7722 51.8008 40.0405 58.2904 41.4001 60.3575C41.8024 60.1932 41.9936 60.1244 42.4143 60.0188C43.0833 58.2334 43.8075 56.4681 44.5887 54.7296C41.9785 54.1646 40.3121 53.2912 38.6473 51.1487V51.147Z" fill="#7310F5"/>
<path d="M117.736 36.2167C117.403 36.6894 116.858 37.417 116.611 37.9099C121.069 40.9376 126.171 45.697 129.344 50.0659C131.433 42.3793 131.081 34.2351 128.342 26.7581C127.575 27.1302 126.549 27.5343 125.849 28.0087C122.665 30.1579 119.949 33.0934 117.736 36.2167Z" fill="#FE80DD"/>
<path d="M117.736 36.2165C119.949 33.0933 122.663 30.1578 125.849 28.0086C126.549 27.5358 127.575 27.1318 128.341 26.7579C127.901 25.6129 127.029 23.628 126.132 22.7629C121.607 24.1527 117.413 28.815 114.561 32.4881C113.956 33.2676 113.049 34.4697 112.541 35.3045C113.931 36.1897 115.231 36.986 116.611 37.9081C116.858 37.4152 117.403 36.6859 117.736 36.2149V36.2165Z" fill="#FD49C4"/>
<path d="M45.0149 30.5115C43.9453 36.2114 43.828 41.6666 45.2664 47.3297C45.5564 48.4697 45.9688 49.9534 46.4399 51.0196C49.2915 46.6374 51.3687 43.8745 55.419 40.416C55.238 40.131 55.0535 39.8477 54.8675 39.5677C52.8859 36.5819 48.6377 31.2424 45.0149 30.5115Z" fill="#FE80DD"/>
<path d="M46.4262 25.6631C45.702 27.0914 45.2812 28.9439 45.0146 30.5114C48.6375 31.2424 52.8856 36.5802 54.8672 39.5677C55.0533 39.8493 55.2377 40.1326 55.4188 40.4159C56.7432 39.2441 58.143 38.2231 59.5647 37.1753C56.9779 33.2675 51.0348 26.8534 46.4262 25.6631Z" fill="#FD49C4"/>
<path d="M107.587 166.136C107.592 164.547 107.796 162.709 107.91 161.11C108.511 152.714 108.771 144.35 108.603 135.934C108.588 135.237 108.563 134.476 108.603 133.782C108.465 132.969 108.615 132.241 109.557 132.087C109.833 132.04 110.117 132.114 110.336 132.288C111.602 133.289 114.633 140.617 115.364 142.488C119.309 139.504 123.232 137.287 128.073 136.079C129.145 135.812 130.258 135.72 131.319 135.485C129.019 130.018 127.141 126.219 124.244 121.022C122.108 122.224 119.904 123.301 117.641 124.243C104.046 129.752 84.9262 131.711 70.7685 127.634C69.8163 127.359 68.7953 127.012 67.8498 126.767C64.916 134.35 63.3216 144.094 63.0216 152.246C63.0048 152.686 62.9947 153.12 62.988 153.547C62.9813 153.975 62.9796 154.399 62.9813 154.818C62.9931 157.334 63.1456 159.723 63.2864 162.334C63.2864 162.334 66.3141 162.847 67.8296 163.085C78.4433 164.744 89.1509 165.76 99.8903 166.131C101.932 166.208 103.978 166.24 106.021 166.23C106.772 166.23 107.976 166.136 107.587 166.134V166.136Z" fill="url(#paint0_linear_39115_6761)"/>
<path d="M131.322 135.485C130.261 135.72 129.148 135.812 128.076 136.078C123.235 137.289 119.312 139.503 115.367 142.487C117.096 147.418 118.512 152.454 119.607 157.56C120.2 160.266 120.613 162.818 121.139 165.51C127.728 164.83 132.393 164 138.782 162.365C138.571 161.633 138.539 160.491 138.402 159.69C137.02 151.669 134.636 142.94 131.324 135.481L131.322 135.485Z" fill="url(#paint1_linear_39115_6761)"/>
<path d="M111.562 141.009C110.61 138.382 109.619 136.294 108.605 133.78C108.564 134.476 108.589 135.235 108.605 135.932C108.772 144.35 108.512 152.712 107.912 161.108C107.798 162.707 107.594 164.546 107.589 166.134C107.979 166.135 115.191 165.906 117.616 165.814C117.428 164.033 116.886 161.348 116.538 159.555C115.351 153.255 113.688 147.056 111.565 141.007L111.562 141.009Z" fill="url(#paint2_linear_39115_6761)"/>
<path d="M115.366 142.487C114.635 140.616 111.604 133.289 110.338 132.288C110.118 132.113 109.835 132.04 109.558 132.087C108.616 132.241 108.467 132.968 108.604 133.782C109.619 136.295 110.609 138.383 111.562 141.01C113.684 147.059 115.347 153.26 116.534 159.559C116.884 161.351 117.426 164.037 117.612 165.817C118.759 165.731 120.004 165.661 121.136 165.512C120.609 162.819 120.197 160.268 119.604 157.562C118.509 152.454 117.092 147.418 115.364 142.489L115.366 142.487Z" fill="#270A60"/>
<path d="M63.0398 153.649C63.0465 153.218 63.0566 152.784 63.0733 152.341C63.3768 144.147 64.9778 134.351 67.9267 126.73C68.8772 126.977 69.9032 127.325 70.8605 127.602C85.092 131.699 104.311 129.731 117.976 124.192C120.251 123.245 122.467 122.163 124.615 120.955C123.206 118.65 121.406 115.582 119.627 113.575C117.399 114.562 115.23 115.536 112.936 116.371C102.784 120.071 91.9621 121.578 81.1841 120.797C78.5001 120.604 73.5194 119.989 70.9376 119.268C69.8932 121.838 68.9242 124.07 67.9284 126.712C66.433 126.252 64.0205 125.387 62.6023 124.749C57.9333 136.113 53.8796 148.739 55.9584 161.141C58.334 161.592 61.0197 161.998 63.3382 162.482C63.1974 159.859 63.0432 157.456 63.0314 154.927C63.0297 154.506 63.0314 154.08 63.0381 153.649H63.0398Z" fill="url(#paint3_linear_39115_6761)"/>
<path d="M62.983 154.82C62.9813 154.4 62.983 153.978 62.9897 153.549C62.983 153.976 62.9813 154.4 62.983 154.82Z" fill="#FD49C4"/>
<path d="M62.554 124.797C63.3905 122.792 64.3293 120.833 65.2681 118.873C64.331 120.833 63.3922 122.794 62.554 124.797Z" fill="#A53AEE"/>
<path d="M70.9495 119.252C69.0031 118.844 67.6167 118.474 65.7088 117.922C65.573 118.205 65.4373 118.489 65.3031 118.772C64.3543 120.757 63.4037 122.742 62.5554 124.77C63.9854 125.414 66.413 126.286 67.9201 126.749C68.9226 124.086 69.8983 121.838 70.9511 119.25L70.9495 119.252Z" fill="#9E23FE"/>
<path d="M132.574 122.558L132.643 122.566C139.077 121.136 145.032 122.209 150.848 125.192C150.994 118.789 150.08 115.498 147.245 109.86C146.242 108.982 144.568 108.125 143.307 107.693C136.432 105.327 130.205 108.259 126.626 114.291C128.631 116.484 130.413 118.868 131.951 121.411C132.098 121.658 132.514 122.315 132.576 122.558H132.574Z" fill="#9E23FE"/>
<path d="M150.86 125.248L150.848 125.19C145.034 122.207 139.078 121.134 132.643 122.564C135.202 127.388 136.583 130.826 138.119 136.023L138.182 136.053C141.785 136.848 144.719 138.942 147.472 141.279C147.872 140.368 148.479 138.305 148.757 137.312C149.854 133.436 150.694 129.284 150.858 125.247L150.86 125.248Z" fill="#FE80DD"/>
<path d="M152.513 147.069C151.311 145.188 149.168 142.878 147.539 141.361C147.017 142.271 146.409 144.042 145.966 145.046C145.048 147.13 142.063 153.374 140.665 154.861C141.011 156.719 141.341 158.57 141.574 160.444C141.616 160.786 141.664 161.13 141.737 161.467C143.146 160.928 144.459 160.58 145.852 159.901C145.892 159.767 145.856 159.851 145.931 159.747C148.447 156.335 151.011 151.024 152.513 147.069Z" fill="#7310F5"/>
<path d="M148.759 137.316C148.479 138.308 147.874 140.37 147.473 141.282L147.539 141.361C149.168 142.878 151.311 145.188 152.513 147.069C154.629 142.184 156.518 134.568 156.508 129.233C155.267 128.145 152.33 125.934 150.862 125.249C150.697 129.287 149.857 133.438 148.761 137.314L148.759 137.316Z" fill="#FD49C4"/>
<path d="M147.538 141.361L147.473 141.282C144.72 138.943 141.787 136.851 138.184 136.056C138.437 137.354 138.824 138.67 139.067 139.949C139.788 143.756 140.412 147.562 140.549 151.441C140.574 152.177 140.761 153.535 140.563 154.207C140.596 154.42 140.63 154.653 140.667 154.863C142.067 153.378 145.049 147.133 145.968 145.047C146.41 144.043 147.019 142.273 147.54 141.362L147.538 141.361Z" fill="#9E23FE"/>
<path d="M150.848 125.192L150.86 125.25C152.33 125.936 155.267 128.146 156.506 129.235C156.489 126.618 156.333 124.56 155.632 121.991C154.518 117.907 152.337 114.253 149.223 111.373C148.766 110.95 147.765 110.152 147.245 109.862C150.082 115.5 150.994 118.791 150.848 125.193V125.192Z" fill="#7310F5"/>
<path d="M132.645 122.566L132.576 122.558C131.515 122.789 130.08 123.066 129.076 123.431C131.124 127.344 132.982 131.354 134.642 135.448C135.82 135.57 136.965 135.783 138.122 136.025C136.586 130.828 135.205 127.389 132.647 122.566H132.645Z" fill="#FD49C4"/>
<path d="M140.548 151.44C140.41 147.56 139.788 143.755 139.066 139.947C138.823 138.668 138.435 137.352 138.182 136.055L138.119 136.024C136.962 135.783 135.817 135.57 134.638 135.448C136.296 139.543 137.751 143.719 138.999 147.958C139.559 149.921 140.003 152.385 140.559 154.204C140.757 153.532 140.573 152.174 140.546 151.438L140.548 151.44Z" fill="#7310F5"/>
<path d="M131.949 121.411C130.414 118.869 128.63 116.484 126.625 114.291C126.179 115.05 125.76 115.947 125.396 116.755C126.466 118.657 127.611 120.501 128.575 122.457C128.689 122.688 128.937 123.242 129.074 123.433C130.078 123.067 131.513 122.791 132.575 122.559C132.513 122.315 132.097 121.659 131.949 121.413V121.411Z" fill="#7310F5"/>
<path d="M66.0963 86.9782C64.0862 88.0394 61.0267 88.7954 58.745 88.8055C57.8129 88.896 55.8883 89.0519 54.9998 89.2783C53.2965 89.7762 52.0124 90.3294 50.6293 91.4912C47.5949 94.0411 46.7265 98.4552 47.838 102.174C47.9302 102.49 48.0358 102.804 48.1548 103.112L48.2873 103.292C49.33 104.127 51.1808 105.176 52.3694 105.813C56.0225 107.818 59.8632 109.463 63.8348 110.729C79.85 115.962 98.4151 115.054 113.544 107.429C120.127 104.11 126.34 99.5768 130.439 93.3806C131.215 92.2087 132.3 90.5423 132.727 89.2313C130.429 84.0745 126.503 81.0955 120.759 81.0033L120.566 81.0368C114.913 85.689 103.657 86.3327 97.3221 82.9144C96.2391 82.331 92.6733 80.3662 92.3396 79.3452C91.2583 78.6763 89.5014 76.7769 88.6279 75.771C87.9121 75.5464 87.1091 75.1876 86.4117 75.0082C83.5013 74.2454 80.4116 74.6025 77.7527 76.0091C77.1341 76.331 76.5775 76.6813 75.9992 77.0686C75.5331 77.5129 75.0201 78.2874 74.6027 78.4634C73.6924 80.3662 71.8013 82.7702 70.0729 83.9723C69.8164 84.8004 66.8658 86.5741 66.0946 86.9815L66.0963 86.9782ZM70.6596 89.9002C70.9949 90.3562 71.1391 91.2548 71.4979 91.736C73.9958 94.6681 78.539 93.5214 80.4351 90.4836C80.4116 89.7644 80.358 89.0653 80.306 88.3495C78.4837 88.0561 76.767 87.2933 75.3286 86.1366C74.0478 85.1123 72.7837 83.1743 74.1215 81.7442C75.9338 79.8079 79.741 79.5162 82.2222 79.2648C84.5944 78.9446 89.0404 79.4056 87.6724 83.0401C86.8643 85.1877 84.7453 87.0871 82.6916 88.0645C83.0135 90.1383 83.4946 90.6094 85.446 91.404C88.9465 92.8307 93.5031 92.0947 96.5911 90.0058C97.9524 89.0855 98.8829 87.7577 99.9977 86.5859C100.464 86.1047 101.138 85.8767 101.671 86.4082C103.16 87.8969 99.6607 90.7921 98.6917 91.7326C97.2399 98.4418 96.5174 107.161 88.7051 109.451C80.0076 110.95 77.0335 102.405 74.7368 95.7628C71.8851 95.4728 69.6605 94.0629 68.7401 91.2682C68.3092 89.9556 69.6135 88.4752 70.6596 89.9002Z" fill="white"/>
<path d="M123.22 78.5974C122.517 79.4373 121.56 80.2336 120.76 81.0031C126.504 81.0953 130.429 84.0744 132.729 89.2311L132.786 89.3619C134.581 84.9964 135.607 79.8396 135.307 75.107C135.153 72.661 134.556 69.9066 133.998 67.5361C132.492 67.3248 128.714 66.9443 127.223 66.8906C126.831 71.1455 126.066 75.1941 123.22 78.5957V78.5974Z" fill="#FE80DD"/>
<path d="M145.237 83.2196C145.22 80.5255 143.121 79.0217 141.16 75.9454C143.121 79.0234 145.22 80.5272 145.237 83.2196Z" fill="#FD49C4"/>
<path d="M144.166 87.0937C144.59 86.2136 144.877 85.4407 145.044 84.7484C145.111 84.4701 145.16 84.2069 145.192 83.952C145.207 83.8246 145.219 83.7006 145.227 83.5782C145.234 83.4558 145.237 83.3368 145.237 83.2194C145.22 80.5254 143.121 79.0216 141.16 75.9453C139.537 73.397 138.325 70.6996 137.299 67.8597C136.385 67.7071 134.957 67.6216 134 67.5361C134.558 69.9066 135.155 72.6611 135.309 75.107C135.609 79.8397 134.583 84.9948 132.788 89.362C133.862 92.5959 133.99 95.1927 133.21 98.5792C132.999 99.4995 132.61 100.398 132.375 101.275C133.22 100.678 134.167 99.7577 134.93 99.0268C138.449 95.6571 142.037 91.5079 144.167 87.0954L144.166 87.0937Z" fill="#FD49C4"/>
<path d="M120.568 81.0368L120.761 81.0033C121.56 80.2338 122.518 79.4374 123.22 78.5975C126.067 75.196 126.831 71.1473 127.223 66.8925C128.714 66.9461 132.493 67.3267 133.998 67.5379C134.957 67.6217 136.385 67.7072 137.297 67.8615C137.053 67.1205 136.813 66.3661 136.56 65.6284C135.54 65.2278 134.367 64.812 133.319 64.4951C130.954 63.7793 128.558 62.7282 126.194 62.0676C125.473 62.3727 124.551 62.8053 124.306 63.5848C124.001 64.5588 123.753 66.3929 123.621 67.4021C122.826 73.5397 121.29 77.2413 115.329 79.8633C114.236 80.3444 113.036 80.7384 111.934 81.1793C112.858 81.652 119.166 80.9412 120.57 81.0385L120.568 81.0368Z" fill="#9E23FE"/>
<path d="M132.786 89.3622L132.729 89.2314C132.301 90.5424 131.217 92.2088 130.44 93.3807C126.341 99.5769 120.129 104.112 113.545 107.429C98.4167 115.054 79.8516 115.963 63.8363 110.729C59.8648 109.465 56.0257 107.818 52.371 105.813C51.1841 105.176 49.3333 104.125 48.2888 103.292C48.6677 104.184 48.9158 104.776 49.464 105.592C49.6183 105.82 50.1899 106.569 50.2553 106.712C50.8085 107.406 53.9536 109.245 54.8555 109.748C63.2613 114.43 73.2664 117.036 82.8474 117.518C97.7394 118.221 112.491 114.373 125.141 106.486C127.652 104.913 130.169 103.263 132.372 101.272C132.606 100.395 132.995 99.4964 133.207 98.576C133.986 95.1896 133.86 92.5928 132.784 89.3589L132.786 89.3622Z" fill="#E8BAFE"/>
<path d="M47.8412 102.174C46.7297 98.4552 47.5981 94.0411 50.6325 91.4912C52.0139 90.3294 53.2997 89.7761 55.003 89.2782C54.5403 88.9899 53.91 89.0351 53.288 88.9161C51.1622 88.5071 49.2578 87.7828 47.5159 86.4735C47.1069 86.165 46.2854 85.6068 46.2217 85.124C49.2008 86.9899 52.7482 87.5699 56.2872 87.5649C52.7482 87.5699 49.2008 86.9882 46.2217 85.124C46.0775 84.9647 45.3768 84.3763 45.1773 84.2019C44.609 85.352 44.2183 86.668 43.5545 87.8197C42.6123 89.4526 41.3449 90.5289 40.6089 92.2975C40.2401 93.1827 40.5821 95.2213 40.1831 95.575C40.676 96.6714 41.2862 97.7092 42.0021 98.6748C43.2108 98.7854 46.391 102.702 48.1597 103.114C48.0424 102.806 47.9367 102.492 47.8429 102.175L47.8412 102.174Z" fill="#FE7AC6"/>
<path d="M43.553 87.8182C44.2169 86.6664 44.6075 85.3504 45.1758 84.2004C44.4398 83.4895 43.9118 82.8089 43.2931 81.9941C42.8824 83.4678 42.1749 85.9841 41.5228 87.3722C39.9469 90.7235 38.3727 91.5801 40.1816 95.5735C40.5806 95.2197 40.2386 93.1812 40.6074 92.296C41.3434 90.5273 42.6108 89.451 43.553 87.8182Z" fill="#E8BAFE"/>
<path d="M61.7593 87.1758C59.9906 87.3988 58.1398 87.563 56.2856 87.5647C58.1398 87.5614 59.9923 87.3988 61.7593 87.1758Z" fill="#DA4DD3"/>
<path d="M46.2183 85.1237C46.2836 85.6066 47.1051 86.1665 47.5125 86.4733C49.256 87.7843 51.1605 88.5068 53.2845 88.9159C53.9048 89.0349 54.5369 88.9897 54.9996 89.278C55.8881 89.0517 57.811 88.8958 58.7448 88.8053C58.9661 88.5739 59.2209 88.423 59.4908 88.3124C59.6249 88.2571 59.7641 88.2101 59.9032 88.1682C60.6006 87.9586 61.3265 87.8547 61.7574 87.1741C59.9887 87.397 58.1379 87.5613 56.2837 87.563C52.7447 87.568 49.1973 86.9863 46.2183 85.1221V85.1237Z" fill="#DA4DD3"/>
<path d="M48.2891 103.292L48.1567 103.112C46.388 102.7 43.2078 98.7837 41.999 98.6731C43.8448 101.28 46.0695 103.595 48.6009 105.542C49.0033 105.853 49.8382 106.509 50.2556 106.712C50.1902 106.568 49.6169 105.818 49.4643 105.592C48.9144 104.775 48.668 104.184 48.2891 103.292Z" fill="#FD49C4"/>
<path d="M86.3008 72.3376C87.0602 73.4743 87.8381 74.6612 88.6294 75.7694C87.8381 74.6612 87.0602 73.4726 86.3008 72.3376Z" fill="#FE7AC6"/>
<path d="M86.2992 72.3375C85.9002 72.086 85.4677 71.6719 85.1139 71.3819C81.2933 68.257 78.1466 71.2763 76.8088 74.9963C76.564 75.6753 76.0577 76.3543 75.999 77.0668C76.5791 76.6812 77.134 76.3291 77.7526 76.0072C80.4115 74.6007 83.5012 74.2436 86.4115 75.0064C87.1089 75.1858 87.912 75.5445 88.6278 75.7692C87.8365 74.661 87.0586 73.4724 86.2992 72.3375Z" fill="#FE7AC6"/>
<path d="M86.3008 72.3371C86.2153 72.1579 86.1266 71.9838 86.0361 71.8096C86.1266 71.9838 86.217 72.1579 86.3008 72.3371Z" fill="#DA4DD3"/>
<path d="M76.0008 77.0653C76.0578 76.3528 76.5657 75.6755 76.8105 74.9948C78.1483 71.2748 81.295 68.2555 85.1157 71.3804C85.4694 71.6704 85.9019 72.0845 86.3009 72.336C86.2154 72.1566 86.1266 71.9822 86.0361 71.8079C85.7578 71.2731 85.456 70.7551 85.1425 70.2303C85.0486 70.0727 84.9531 69.9152 84.8575 69.7559C83.5683 67.6067 81.865 66.0626 79.2699 67.3502C77.9488 68.0057 77.4895 69.5061 77.0854 70.8137C76.4149 73.491 75.8365 75.9504 74.606 78.4601C75.0234 78.284 75.5364 77.5095 76.0024 77.0653H76.0008Z" fill="#FD49C4"/>
<path d="M111.932 81.1758C105.877 82.6377 100.262 83.0903 94.7148 80.5974C100.262 83.0903 105.878 82.6377 111.932 81.1758Z" fill="#F0BEED"/>
<path d="M93.5281 80.0173C93.9237 80.2269 94.3194 80.4197 94.7167 80.5974C94.321 80.4197 93.9237 80.2269 93.5281 80.0173Z" fill="#F0BEED"/>
<path d="M97.3237 82.9129C103.659 86.3312 114.915 85.6892 120.568 81.0353C119.165 80.9381 112.858 81.6489 111.932 81.1761C105.877 82.638 100.263 83.0906 94.7151 80.5977C94.3195 80.42 93.9222 80.2272 93.5265 80.0177C93.1309 79.8081 92.7352 79.5852 92.3396 79.3438C92.6732 80.363 96.239 82.3279 97.322 82.9129H97.3237Z" fill="#E8BAFE"/>
<path d="M59.9048 88.1683C59.7656 88.2102 59.6265 88.2555 59.4924 88.3125C59.2224 88.4231 58.9676 88.574 58.7463 88.8053C61.0263 88.7953 64.0875 88.0392 66.0976 86.978C66.8688 86.5706 69.8194 84.7969 70.0759 83.9688C69.7707 84.1599 69.4556 84.3476 69.1337 84.532C66.8839 85.8112 64.2854 86.8405 61.7606 87.1758C61.3281 87.8548 60.6039 87.9604 59.9064 88.17L59.9048 88.1683Z" fill="#E8BAFE"/>
<path d="M61.7592 87.1758C61.3267 87.8547 60.6024 87.9604 59.905 88.1699C60.6024 87.9604 61.3283 87.8564 61.7592 87.1758Z" fill="#C989F0"/>
<path d="M59.491 88.3125C59.625 88.2572 59.764 88.2103 59.903 88.1685C59.764 88.2103 59.625 88.2555 59.491 88.3125Z" fill="#C989F0"/>
<path d="M68.7401 91.2681C69.6604 94.0627 71.8851 95.4726 74.7368 95.7627C77.0335 102.405 80.0076 110.95 88.705 109.451C96.5157 107.161 97.2382 98.4417 98.6917 91.7325C99.659 90.792 103.159 87.895 101.671 86.408C101.139 85.8766 100.464 86.1046 99.9977 86.5857C98.8845 87.7559 97.9541 89.0837 96.5911 90.0057C93.5031 92.0946 88.9465 92.8289 85.446 91.4039C83.4946 90.6092 83.0135 90.1381 82.6916 88.0644C84.7452 87.087 86.8643 85.1876 87.6723 83.04C89.0403 79.4054 84.5944 78.9444 82.2222 79.2646C79.741 79.5178 75.9338 79.8078 74.1215 81.7441C72.7837 83.1741 74.0494 85.1121 75.3286 86.1364C76.767 87.2932 78.4837 88.056 80.306 88.3494C80.3579 89.0669 80.4116 89.766 80.4351 90.4835C78.539 93.5196 73.9958 94.6679 71.4978 91.7358C71.1391 91.2563 70.9949 90.3578 70.6596 89.9001C69.6135 88.4768 68.3075 89.9554 68.7401 91.2681ZM86.6631 99.0552C86.6279 100.138 86.5826 100.829 86.648 101.927C87.5868 99.6621 88.7637 98.2656 91.2734 97.8633C92.5324 97.7225 93.7629 98.0108 94.7856 98.7669C93.5986 103.419 90.5642 108.596 84.9146 107.134C84.2675 106.966 83.8064 106.713 83.2448 106.36C82.6011 105.88 81.342 104.8 81.3588 103.972C81.4175 101.176 84.1283 99.2497 86.6614 99.0552H86.6631ZM79.2112 83.5731C77.5197 83.4088 74.6077 82.4901 78.0411 81.4558C79.161 81.1171 80.544 81.0266 81.7243 80.9411C82.3697 80.8757 84.1451 80.7449 84.4552 81.4524C84.4301 83.1641 80.4418 83.5681 79.2129 83.5731H79.2112Z" fill="#270A60"/>
<path d="M83.2464 106.36C83.808 106.713 84.2673 106.967 84.9161 107.134C90.5658 108.596 93.6002 103.419 94.7871 98.7671C93.7645 98.0093 92.5323 97.7226 91.2749 97.8635C88.7653 98.2658 87.5884 99.6623 86.6496 101.927C86.5842 100.829 86.6295 100.138 86.6647 99.0554C84.1315 99.2499 81.4207 101.174 81.362 103.972C81.3436 104.802 82.6026 105.88 83.248 106.36H83.2464Z" fill="#FE80DD"/>
<path d="M84.4535 81.4525C84.1434 80.745 82.3697 80.8758 81.7226 80.9411C80.544 81.0266 79.1593 81.1172 78.0394 81.4558C74.6077 82.4919 77.5197 83.4089 79.2095 83.5732C80.4384 83.5682 84.4267 83.1641 84.4518 81.4525H84.4535Z" fill="#7310F5"/>
<path d="M37.0415 117.773C40.3056 121.485 44.9326 123.698 49.7122 124.703C50.7902 124.93 51.8816 125.059 52.9646 125.272C53.434 124.135 54.0895 123.007 54.6293 121.89C55.1088 120.9 55.5346 119.837 56.0845 118.896C53.3652 117.451 48.9695 114.1 47.2746 111.547L47.1489 111.501C46.0609 111.169 40.4967 109.114 40.2855 108.247C40.0541 107.751 39.92 106.936 39.7222 106.391C39.1337 104.774 38.4715 103.027 37.4707 101.62C36.272 99.9354 35.2008 98.2808 34.6241 96.2707C34.2435 94.9413 34.1127 93.6068 34.0457 92.2338C34.0138 91.7007 33.9669 90.1851 33.7858 89.7241C33.6182 89.9571 33.6651 89.8213 33.7138 90.1633C33.5612 89.994 33.5411 89.3922 33.407 89.1038C32.3256 86.7819 29.4606 86.2371 27.588 88.0342C26.1395 89.424 25.4874 91.6856 25.4354 93.647C25.4253 94.2003 25.5343 95.3838 25.3264 95.7493C25.3616 96.0293 25.313 96.0645 25.4706 96.2103C28.282 96.4266 31.1773 96.73 33.1689 99.067C34.1513 100.241 34.6358 101.753 34.5168 103.28C34.4564 104.011 34.3106 104.492 34.0323 105.163C34.5972 105.629 35.1404 106.056 35.5813 106.645C37.4221 109.109 37.1555 112.511 35.3416 114.886C35.6635 115.364 36.0004 116.296 36.2268 116.861C36.4866 117.106 36.7984 117.496 37.0399 117.771L37.0415 117.773Z" fill="#9E23FE"/>
<path d="M53.0685 112.713C52.1414 112.861 48.4146 111.838 47.278 111.547C48.9729 114.098 53.3685 117.451 56.0878 118.896C55.5379 119.837 55.1121 120.9 54.6326 121.89C54.0928 123.007 53.4373 124.135 52.9679 125.272C51.8849 125.059 50.7935 124.93 49.7155 124.703C44.9359 123.698 40.3089 121.485 37.0448 117.773C36.8034 117.498 36.4916 117.107 36.2318 116.863C36.2653 117.042 36.2938 117.22 36.3206 117.399C36.7582 120.353 35.9836 122.11 34.2971 124.395C41.3651 127.904 49.4004 129.564 57.2412 129.862C58.3795 126.231 61.0803 120.605 62.7953 117.116C60.5304 116.239 58.3812 115.414 56.1917 114.343C55.1389 113.827 54.1313 113.213 53.0701 112.715L53.0685 112.713Z" fill="#7310F5"/>
<path d="M44.2168 107.28C44.5789 108.097 46.5068 110.506 47.0249 111.279C46.5068 110.504 44.5806 108.097 44.2168 107.28Z" fill="#7227E0"/>
<path d="M53.0683 112.714C51.4958 111.788 49.9585 110.806 48.4597 109.766C46.9241 108.695 46.0892 107.728 44.2183 107.279C46.0892 107.726 46.9241 108.695 48.4597 109.766C49.9585 110.806 51.4958 111.788 53.07 112.714H53.0683Z" fill="#DA4DD3"/>
<path d="M47.1137 111.417C47.1355 111.454 47.1489 111.483 47.1523 111.5L47.278 111.545C48.4147 111.837 52.1414 112.859 53.0685 112.712C51.496 111.786 49.9587 110.804 48.4582 109.764C46.9226 108.693 46.0877 107.726 44.2168 107.277C44.5806 108.093 46.5068 110.502 47.0249 111.275C47.0618 111.33 47.0919 111.377 47.1137 111.414V111.417Z" fill="#9E23FE"/>
<path d="M25.4368 93.6487C25.4888 91.6856 26.1409 89.4241 27.5894 88.0359C29.462 86.2388 32.3271 86.7836 33.4084 89.1055C33.5425 89.3922 33.5626 89.9957 33.7152 90.1651C33.6665 89.8214 33.6196 89.9572 33.7873 89.7258C33.5861 87.5062 32.7277 82.9177 29.6866 83.3989C24.8031 84.1734 24.7528 91.2648 25.2071 94.8977C25.244 95.1844 25.2826 95.4677 25.3262 95.7527C25.534 95.3889 25.4251 94.2053 25.4351 93.6504L25.4368 93.6487Z" fill="#C989F0"/>
<path d="M47.152 111.501C47.1486 111.485 47.1352 111.456 47.1134 111.419C47.0916 111.382 47.0614 111.335 47.0246 111.28C46.5065 110.506 44.5803 108.098 44.2165 107.282C42.6507 106.692 41.8175 106.259 40.3791 105.32C40.4092 106.246 40.478 107.357 40.2869 108.249C40.4964 109.116 46.0623 111.171 47.1503 111.503L47.152 111.501Z" fill="#FD49C4"/>
<path d="M26.2046 124.93C25.7905 124.93 25.3748 124.898 24.9607 124.843C25.3748 124.898 25.7905 124.929 26.2046 124.93Z" fill="#A53AEE"/>
<path d="M33.9866 110.221C33.8642 109.371 33.3613 108.497 32.6706 107.983C30.9187 106.678 26.3872 107.838 24.3101 108.185C23.5255 108.318 22.5398 108.549 21.7585 108.361C21.3428 108.262 21.046 107.972 20.979 107.542C20.9404 107.299 21.0226 107.062 21.1701 106.868C21.3629 106.62 21.6579 106.445 21.9446 106.328C22.7124 106.011 23.606 105.879 24.4174 105.696C25.9296 105.354 27.4434 105.022 28.9606 104.702C30.2649 104.422 31.9313 104.363 31.7284 102.569C31.2825 98.8156 26.0721 98.8257 23.3025 99.0973C20.8801 99.3337 17.4081 100.566 15.8708 102.522C13.0895 106.061 14.9856 114.118 16.6872 117.889C17.4198 120.191 18.9488 122.157 20.9991 123.431C18.9471 122.157 17.4182 120.191 16.6872 117.889C16.9622 118.093 17.5925 118.841 17.8423 119.133C20.7996 122.581 26.0067 123.203 29.9849 121.292C31.2523 120.683 32.7796 119.108 33.2155 117.733C33.0193 117.238 32.964 117.069 32.6438 116.623C30.9858 117.111 25.6881 118.41 24.2078 117.579C23.9698 117.446 23.8088 117.26 23.7334 116.995C23.6613 116.745 23.7183 116.45 23.8692 116.239C24.6538 115.138 34.736 115.456 33.9866 110.219V110.221Z" fill="#9E23FE"/>
<path d="M31.1581 123.3C30.9404 123.473 30.716 123.63 30.4849 123.774C30.716 123.63 30.9421 123.473 31.1581 123.3Z" fill="#7227E0"/>
<path d="M26.6168 124.922C26.4795 124.927 26.3422 124.93 26.2048 124.93C26.3422 124.93 26.4795 124.928 26.6168 124.922Z" fill="#7227E0"/>
<path d="M29.9837 121.294C26.0055 123.205 20.7967 122.581 17.8411 119.134C17.5913 118.843 16.961 118.095 16.686 117.891C17.4186 120.192 18.9476 122.159 20.9979 123.433C21.9702 124.025 23.0381 124.452 24.1346 124.695C24.4078 124.756 24.6844 124.806 24.961 124.843C25.3751 124.898 25.7909 124.928 26.205 124.93C26.3425 124.93 26.4799 124.928 26.6174 124.922C27.9904 124.865 29.3249 124.496 30.485 123.775C30.7163 123.631 30.9427 123.473 31.1589 123.3C31.8111 122.782 32.3894 122.134 32.8672 121.349C33.6015 120.142 33.5646 119.039 33.2143 117.735C32.7767 119.109 31.2511 120.685 29.9837 121.294Z" fill="#7310F5"/>
<path d="M148.28 106.378C144.023 103.533 139.336 102.992 134.375 104.118C139.419 99.5819 144.196 94.8023 147.29 88.6161C148.819 85.5549 149.373 81.7292 147.547 78.6747C146.937 77.6538 145.837 76.4652 145.118 75.3922C143.431 72.8809 141.906 70.2857 140.88 67.4307C143.839 66.0694 143.82 61.2613 142.93 58.5941C142.62 57.6636 142.112 57.2412 141.409 56.6159C140.373 56.1783 139.222 55.7022 138.15 55.3853C137.557 55.1154 136.165 54.6561 135.515 54.4432C134.033 53.9587 132.281 53.3099 130.781 52.9209C129.51 52.5203 128.154 52.0509 126.886 51.6904C126.328 51.5362 125.79 51.3568 125.242 51.1757C122.492 50.817 119.689 50.5839 116.868 50.4984C108.403 50.2403 99.7728 51.3048 91.9504 54.2805C88.1331 55.7324 83.6151 58.0174 79.6301 58.4382C79.2227 58.4818 78.7986 58.5019 78.361 58.5052C78.0509 58.5069 77.7324 58.4968 77.4105 58.4818C77.221 58.4734 77.0299 58.4616 76.8371 58.4482C76.009 58.3879 75.1523 58.2856 74.2906 58.1599C72.3258 57.8732 70.3358 57.4776 68.6007 57.2395C61.2243 56.2303 55.3684 56.8204 48.1797 58.2923C47.4722 58.4415 46.7882 58.631 46.0908 58.817C45.1218 58.9042 43.385 59.5782 42.4244 59.9168C42.0036 60.0224 41.8125 60.0912 41.4102 60.2555C40.297 60.6729 39.2056 60.9881 38.1159 61.4709C37.4453 61.6503 36.5317 62.0375 36.2148 62.7282C35.6347 63.994 35.97 65.6436 36.0488 67.0116C36.1259 68.3293 36.2701 69.6688 36.6138 70.9597C36.939 72.1852 38.0505 72.6512 38.8686 73.5062C39.5778 74.2053 40.7915 76.6378 40.7295 77.4492C40.5317 80.0679 39.1888 84.135 38.0338 86.4267C37.6633 87.1459 37.271 87.8534 36.8602 88.5491C36.4545 86.5943 36.0388 84.031 34.8183 82.4099C31.9298 78.5741 26.3036 79.5364 23.975 83.451C21.814 87.0822 21.4217 91.9925 22.0705 96.0865C12.6069 97.6506 9.60433 103.183 11.4283 112.303C12.4661 117.493 13.8659 122.823 18.5013 126.025C22.2566 128.62 27.633 129.311 31.6817 126.97C37.0011 129.572 42.8167 131.503 48.6592 132.534C51.2795 132.997 53.4019 133.113 55.9786 133.349C53.3784 141.165 51.1219 152.023 52.8671 160.226C53.8763 160.444 54.9593 160.66 55.9568 160.902C57.5327 161.2 57.5327 161.2 55.9568 160.902C53.8881 148.563 57.9216 136.003 62.5654 124.697C63.402 122.692 64.3408 120.732 65.2796 118.772C65.4137 118.492 65.5478 118.212 65.6803 117.932C67.5663 118.477 68.936 118.843 70.8572 119.245C73.4239 119.961 78.3811 120.575 81.0501 120.766C91.7727 121.545 102.539 120.045 112.64 116.363C114.921 115.533 117.081 114.564 119.297 113.582C121.066 115.577 122.858 118.63 124.259 120.923C127.156 126.12 129.034 129.919 131.334 135.386C134.648 142.845 137.03 151.572 138.412 159.594C138.549 160.394 138.581 161.537 138.792 162.27C139.783 161.99 140.769 161.688 141.75 161.37C141.679 161.033 141.629 160.687 141.587 160.347C141.352 158.474 141.024 156.622 140.678 154.764C140.64 154.553 140.608 154.322 140.575 154.109C140.018 152.29 139.574 149.825 139.014 147.862C137.766 143.623 136.311 139.446 134.653 135.353C132.994 131.259 131.136 127.249 129.087 123.336C128.95 123.145 128.702 122.591 128.588 122.36C127.622 120.404 126.477 118.561 125.409 116.658C125.773 115.85 126.192 114.953 126.638 114.194C130.217 108.162 136.444 105.23 143.319 107.595C144.58 108.028 146.254 108.883 147.257 109.763C147.778 110.051 148.779 110.851 149.235 111.274C152.348 114.154 154.529 117.808 155.644 121.892C156.345 124.462 156.501 126.519 156.518 129.136C156.528 134.471 154.64 142.087 152.523 146.972C151.021 150.927 148.456 156.238 145.941 159.649C145.865 159.753 145.904 159.67 145.862 159.804C147.183 159.349 150.61 157.852 151.289 156.662C160.124 141.185 166.025 118.243 148.28 106.382V106.378ZM90.4114 59.4994C94.6847 57.0283 100.956 55.5999 105.852 55.0366C106.12 54.9947 106.692 54.9746 106.985 54.9545C106.472 56.1481 105.679 57.5664 105.06 58.7248C104.048 60.6042 103.045 62.4885 102.054 64.3779L97.8432 72.5137C97.1391 73.8666 96.3511 75.4643 95.585 76.7619C94.3008 76.0997 93.2044 74.9781 92.269 73.8968C89.7593 70.5975 85.2178 62.5036 90.4131 59.4994H90.4114ZM50.1831 62.2102C53.5276 61.1574 56.6442 60.9529 60.0993 60.7517C60.438 60.7114 60.547 60.6746 60.8672 60.7617C60.8839 61.1037 50.8352 79.9103 49.5628 82.3713C48.0657 81.5331 47.6399 81.1056 46.6541 79.7359C44.3976 76.2975 43.8561 73.8532 43.4219 69.828C42.8771 64.7785 45.9651 63.538 50.1814 62.2102H50.1831ZM23.7335 116.995C23.809 117.26 23.9699 117.446 24.208 117.579C25.6883 118.41 30.9859 117.111 32.6439 116.623C32.9641 117.069 33.0195 117.238 33.2156 117.733C33.5677 119.037 33.6029 120.14 32.8686 121.347C32.3908 122.134 31.8107 122.781 31.1603 123.299C30.9423 123.471 30.7177 123.629 30.4863 123.773C29.3262 124.494 27.9918 124.863 26.6187 124.92C26.4813 124.925 26.3438 124.928 26.2063 124.928C25.7922 124.928 25.3765 124.896 24.9624 124.841C24.6858 124.804 24.4108 124.754 24.1359 124.694C23.0395 124.451 21.9716 124.023 20.9992 123.431C18.9473 122.157 17.4183 120.191 16.6874 117.889C14.9858 114.118 13.0914 106.063 15.8709 102.522C17.4083 100.566 20.8802 99.3338 23.3027 99.0974C26.0722 98.8258 31.2827 98.8157 31.7286 102.569C31.9314 104.363 30.265 104.422 28.9608 104.702C27.4436 105.022 25.9297 105.354 24.4175 105.696C23.6078 105.879 22.7143 106.013 21.9448 106.328C21.6581 106.445 21.363 106.618 21.1702 106.868C21.021 107.061 20.9406 107.299 20.9791 107.542C21.0462 107.973 21.3429 108.261 21.7587 108.362C22.5399 108.548 23.5273 108.316 24.3102 108.185C26.3874 107.837 30.9205 106.678 32.6708 107.983C33.3615 108.497 33.8644 109.371 33.9868 110.221C34.7362 115.458 24.6539 115.139 23.8693 116.241C23.7201 116.452 23.6615 116.745 23.7335 116.997V116.995ZM57.2376 129.86C49.3968 129.562 41.3615 127.904 34.2936 124.394C35.9784 122.107 36.7546 120.352 36.3171 117.398C36.2902 117.218 36.2601 117.039 36.2282 116.861C36.0019 116.298 35.6666 115.364 35.343 114.886C37.157 112.512 37.4235 109.109 35.5828 106.645C35.1419 106.056 34.5987 105.631 34.0337 105.163C34.312 104.492 34.4579 104.011 34.5182 103.28C34.6373 101.755 34.1528 100.241 33.1703 99.0672C31.1804 96.7285 28.2835 96.4251 25.472 96.2105C25.3128 96.0647 25.3614 96.0295 25.3279 95.7495C25.2843 95.4645 25.244 95.1812 25.2088 94.8945C24.7545 91.2616 24.8048 84.1702 29.6883 83.3956C32.7294 82.9128 33.5878 87.5013 33.789 89.7226C33.97 90.1836 34.017 91.6992 34.0488 92.2323C34.1159 93.607 34.245 94.9398 34.6272 96.2692C35.2039 98.2793 36.2752 99.9339 37.4738 101.619C38.4763 103.027 39.1369 104.772 39.7253 106.39C39.9231 106.937 40.0573 107.75 40.2886 108.246C40.4797 107.354 40.411 106.242 40.3808 105.317C41.8192 106.254 42.6507 106.687 44.2182 107.279C46.0892 107.726 46.924 108.695 48.4597 109.766C49.9584 110.806 51.4957 111.788 53.0683 112.714C54.1295 113.212 55.137 113.827 56.1898 114.341C58.3793 115.414 60.5285 116.239 62.7934 117.114C61.0784 120.601 58.3776 126.229 57.2393 129.86H57.2376ZM123.419 113.934L122.879 113.225C122.692 112.995 122.365 112.491 122.184 112.229C123.114 111.651 124.211 111.099 125.205 110.492L125.287 110.613C124.447 111.958 124.078 112.38 123.421 113.934H123.419ZM125.143 106.489C112.492 114.377 97.7393 118.224 82.8489 117.522C73.2663 117.037 63.2628 114.434 54.857 109.751C53.9551 109.248 50.8101 107.408 50.2568 106.715C49.8394 106.512 49.0028 105.857 48.6022 105.545C46.0707 103.599 43.8444 101.283 42.0003 98.6766C41.2844 97.711 40.6742 96.6732 40.1813 95.5768C38.3707 91.5835 39.9466 90.7268 41.5225 87.3756C42.1746 85.9875 42.8821 83.4711 43.2928 81.9975C43.9114 82.8122 44.4412 83.4946 45.1755 84.2037C45.3733 84.3781 46.0757 84.9665 46.2199 85.1258C49.199 86.9917 52.7464 87.5717 56.2854 87.5667C58.1396 87.5633 59.9921 87.4007 61.759 87.1777C64.2855 86.8425 66.884 85.8131 69.1338 84.534C69.4557 84.3512 69.7692 84.1635 70.076 83.9707C71.8044 82.7687 73.6954 80.3646 74.6058 78.4618C75.838 75.9522 76.4147 73.4928 77.0869 70.8155C77.4893 69.5078 77.9486 68.0074 79.2714 67.3519C81.8682 66.0644 83.5715 67.6084 84.8607 69.7576C84.9562 69.9169 85.0518 70.0745 85.1457 70.2321C85.4592 70.7568 85.7609 71.2748 86.0392 71.8096C86.1298 71.984 86.2203 72.1583 86.3041 72.3377C87.0636 73.4727 87.8414 74.6613 88.6327 75.7694C89.5061 76.7753 91.2648 78.6747 92.3444 79.3436C92.74 79.5851 93.1357 79.8097 93.5313 80.0176C93.927 80.2271 94.3226 80.4199 94.7199 80.5976C100.267 83.0905 105.884 82.6379 111.937 81.176C113.039 80.7351 114.239 80.3411 115.332 79.86C121.294 77.238 122.829 73.5364 123.624 67.3989C123.756 66.3879 124.006 64.5556 124.309 63.5816C124.554 62.8037 125.476 62.3695 126.197 62.0644C128.561 62.7266 130.957 63.7777 133.322 64.4919C134.37 64.8087 135.545 65.2245 136.563 65.6252C136.818 66.3628 137.057 67.1172 137.3 67.8582C138.326 70.6981 139.538 73.3956 141.161 75.9438C143.123 79.0218 145.222 80.5255 145.238 83.2179C145.238 83.3353 145.235 83.4543 145.228 83.5767C145.222 83.6991 145.21 83.8231 145.193 83.9506C145.161 84.2054 145.113 84.4686 145.046 84.7469C144.876 85.4409 144.591 86.2138 144.167 87.0922C142.036 91.5047 138.45 95.6539 134.93 99.0236C134.167 99.7546 133.22 100.675 132.375 101.272C130.172 103.263 127.656 104.915 125.144 106.486L125.143 106.489Z" fill="#1B0852"/>
<path d="M95.5836 76.7615C96.3497 75.4639 97.1377 73.8663 97.8418 72.5134L102.053 64.3775C103.046 62.4881 104.048 60.6038 105.059 58.7245C105.678 57.566 106.471 56.1477 106.984 54.9541C106.69 54.9742 106.12 54.9943 105.85 55.0362C100.955 55.6012 94.6833 57.0296 90.41 59.499C85.213 62.5032 89.7562 70.5972 92.2659 73.8964C93.203 74.9778 94.2994 76.0993 95.5819 76.7615H95.5836Z" fill="url(#paint4_linear_39115_6761)"/>
<path d="M46.6545 79.736C47.6403 81.1074 48.0644 81.5332 49.5632 82.3714C50.8356 79.912 60.8843 61.1038 60.8676 60.7618C60.549 60.6746 60.4384 60.7115 60.0997 60.7518C56.6446 60.9529 53.5263 61.1575 50.1835 62.2103C45.9655 63.5364 42.8791 64.7786 43.424 69.8281C43.8582 73.8533 44.3997 76.2976 46.6562 79.736H46.6545Z" fill="url(#paint5_linear_39115_6761)"/>
</g>
<defs>
<linearGradient id="paint0_linear_39115_6761" x1="101.695" y1="134.782" x2="97.0127" y2="179.224" gradientUnits="userSpaceOnUse">
<stop stop-color="#FE80DD"/>
<stop offset="1" stop-color="white" stop-opacity="0"/>
</linearGradient>
<linearGradient id="paint1_linear_39115_6761" x1="128.471" y1="144.229" x2="132.876" y2="163.471" gradientUnits="userSpaceOnUse">
<stop stop-color="#9E23FE"/>
<stop offset="1" stop-color="white" stop-opacity="0"/>
</linearGradient>
<linearGradient id="paint2_linear_39115_6761" x1="112.649" y1="141.447" x2="115.431" y2="168.281" gradientUnits="userSpaceOnUse">
<stop offset="0.225962" stop-color="#FD49C4"/>
<stop offset="1" stop-color="white"/>
</linearGradient>
<linearGradient id="paint3_linear_39115_6761" x1="90.007" y1="113.575" x2="90.007" y2="162.482" gradientUnits="userSpaceOnUse">
<stop offset="0.225962" stop-color="#FD49C4"/>
<stop offset="1" stop-color="white" stop-opacity="0"/>
</linearGradient>
<linearGradient id="paint4_linear_39115_6761" x1="97.5036" y1="54.9541" x2="97.5036" y2="76.7615" gradientUnits="userSpaceOnUse">
<stop stop-color="#9182DA"/>
<stop offset="1" stop-color="#4D4574"/>
</linearGradient>
<linearGradient id="paint5_linear_39115_6761" x1="52.1146" y1="60.7085" x2="52.1146" y2="82.3714" gradientUnits="userSpaceOnUse">
<stop stop-color="#9182DA"/>
<stop offset="1" stop-color="#4D4574"/>
</linearGradient>
<clipPath id="clip0_39115_6761">
<rect width="160.499" height="160.234" fill="white" transform="translate(10.9189 6)"/>
</clipPath>
</defs>
</svg>
