<svg width="100" height="100" viewBox="0 0 100 100" fill="none" xmlns="http://www.w3.org/2000/svg">
<path d="M30.2188 10.5L52.7057 10.5L52.707 10.5L52.7084 10.5L52.7136 10.5L52.719 10.5L52.7353 10.5L52.8225 10.5L53.1733 10.5L54.5801 10.5L60.0116 10.5L85.7188 36.2071V74C85.7188 82.5604 78.7792 89.5 70.2188 89.5H30.2187C21.6583 89.5 14.7188 82.5604 14.7188 74V26C14.7188 17.4396 21.6583 10.5 30.2188 10.5Z" fill="#FDF5F4" stroke="#D32C3C"/>
<path d="M86.2188 37L59.2188 10V23.9655C59.2188 31.1643 64.86 37 71.8187 37H86.2188Z" fill="#D32C3C"/>
<path d="M28.001 74V56H35.432C36.7097 56 37.8277 56.2637 38.786 56.791C39.7443 57.3184 40.4897 58.0596 41.022 59.0146C41.5544 59.9697 41.8206 61.0859 41.8206 62.3633C41.8206 63.6523 41.546 64.7686 40.9968 65.7119C40.4532 66.6553 39.6883 67.3818 38.702 67.8916C37.7212 68.4014 36.5752 68.6562 35.2639 68.6562H30.8254V64.8594H34.3224C34.8716 64.8594 35.3395 64.7598 35.7262 64.5605C36.1185 64.3555 36.4183 64.0654 36.6256 63.6904C36.8386 63.3154 36.9451 62.873 36.9451 62.3633C36.9451 61.8477 36.8386 61.4082 36.6256 61.0449C36.4183 60.6758 36.1185 60.3945 35.7262 60.2012C35.3395 60.002 34.8716 59.9023 34.3224 59.9023H32.6748V74H28.001Z" fill="#D32C3C"/>
<path d="M50.1595 74H43.5355V56H50.0922C51.8631 56 53.393 56.3604 54.682 57.0811C55.9765 57.7959 56.974 58.8271 57.6745 60.1748C58.3807 61.5166 58.7337 63.125 58.7337 65C58.7337 66.875 58.3835 68.4863 57.6829 69.834C56.9824 71.1758 55.9905 72.207 54.7072 72.9277C53.4239 73.6426 51.9079 74 50.1595 74ZM48.2093 69.8516H49.9914C50.8432 69.8516 51.5689 69.708 52.1685 69.4209C52.7738 69.1338 53.2333 68.6387 53.5471 67.9355C53.8666 67.2324 54.0263 66.2539 54.0263 65C54.0263 63.7461 53.8638 62.7676 53.5387 62.0645C53.2193 61.3613 52.7486 60.8662 52.1265 60.5791C51.5101 60.292 50.7535 60.1484 49.8569 60.1484H48.2093V69.8516Z" fill="#D32C3C"/>
<path d="M60.8962 74V56H73.001V59.9375H65.57V63.0312H72.2612V66.9688H65.57V74H60.8962Z" fill="#D32C3C"/>
</svg>
