<svg width="100" height="100" viewBox="0 0 100 100" fill="none" xmlns="http://www.w3.org/2000/svg">
<path d="M10.5 26C10.5 17.4396 17.4396 10.5 26 10.5H74C82.5604 10.5 89.5 17.4396 89.5 26V74C89.5 82.5604 82.5604 89.5 74 89.5H26C17.4396 89.5 10.5 82.5604 10.5 74V26Z" fill="white" stroke="url(#paint0_linear_10720_157067)"/>
<path d="M59.4709 42.9657C61.5233 42.9657 63.1889 41.334 63.1889 39.3217C63.1889 37.3099 61.5238 35.6777 59.4709 35.6777C57.4186 35.6777 55.7535 37.3095 55.7535 39.3217C55.7535 41.3377 57.4311 42.9657 59.4742 42.9657H59.4709ZM71.937 61.7182L57.9326 49.522C57.1952 48.6763 56.5294 48.9266 55.7535 49.8336L52.3373 53.4595C51.6348 54.2563 50.6091 54.5084 50.0607 53.8586L42.7688 44.2114C41.9766 43.4127 40.9541 43.5927 40.4944 44.6123L27.8469 62.1913C27.3872 63.2146 27.9397 64.331 29.0541 64.3217L71.1954 64.3063C72.3544 64.3138 72.6692 62.5462 71.9263 61.7182H71.937Z" fill="url(#paint1_radial_10720_157067)"/>
<defs>
<linearGradient id="paint0_linear_10720_157067" x1="85.392" y1="11.472" x2="15.056" y2="86.736" gradientUnits="userSpaceOnUse">
<stop stop-color="#BA3CDD"/>
<stop offset="1" stop-color="#1E87FF"/>
</linearGradient>
<radialGradient id="paint1_radial_10720_157067" cx="0" cy="0" r="1" gradientUnits="userSpaceOnUse" gradientTransform="translate(35.1622 64.3209) rotate(-24.7749) scale(48.4062 31.0578)">
<stop stop-color="#0099FF"/>
<stop offset="0.6" stop-color="#A033FF"/>
<stop offset="0.9" stop-color="#FF5280"/>
<stop offset="1" stop-color="#FF7061"/>
</radialGradient>
</defs>
</svg>
