<svg width="24" height="25" viewBox="0 0 24 25" fill="none" xmlns="http://www.w3.org/2000/svg">
<path d="M4 6.2V8.75H5.7V6.2H19.3V16.4H6.6775L5.7 17.3563V14.7H4V21.5L7.4 18.1H19.3C19.7675 18.1 20.1677 17.9335 20.5006 17.6006C20.8335 17.2677 21 16.8675 21 16.4V6.2C21 5.7325 20.8335 5.33229 20.5006 4.99938C20.1677 4.66646 19.7675 4.5 19.3 4.5H5.7C5.2325 4.5 4.83229 4.66646 4.49938 4.99938C4.16646 5.33229 4 5.7325 4 6.2Z" fill="#1C1B1F"/>
<path d="M10 15.5L8.6 14.1L10.175 12.5H2V10.5H10.175L8.6 8.9L10 7.5L14 11.5L10 15.5Z" fill="#1C1B1F"/>
</svg>
